<?xml version="1.0" standalone="no"?>
<!DOCTYPE svg PUBLIC "-//W3C//DTD SVG 1.1//EN" "http://www.w3.org/Graphics/SVG/1.1/DTD/svg11.dtd" >
<svg xmlns="http://www.w3.org/2000/svg" xmlns:xlink="http://www.w3.org/1999/xlink" version="1.1">
<metadata>
Created by FontForge 20150102 at Mon Feb  9 22:34:14 2015
 By uniteet7
Copyright (c) 2014 by The Foundry. All rights reserved.
</metadata>
<defs>
<font id="LandRoverLight" horiz-adv-x="365" >
  <font-face 
    font-family="LandRoverLight"
    font-weight="300"
    font-stretch="normal"
    units-per-em="1000"
    panose-1="0 0 0 0 0 0 0 0 0 0"
    ascent="697"
    descent="-303"
    x-height="478"
    cap-height="667"
    bbox="-195 -199 1480 1021"
    underline-thickness="50"
    underline-position="-50"
    unicode-range="U+0020-FB02"
  />
<missing-glyph horiz-adv-x="270" 
 />
    <glyph glyph-name="IJ" unicode="IJ" horiz-adv-x="766" 
d="M142 0h-44v667h44v-667zM674 667v-461q0 -111 -41.5 -162.5t-153.5 -51.5q-101 0 -149 40t-48 138h41q0 -79 36.5 -107.5t119.5 -28.5q91 0 121 39t30 131v463h44z" />
    <glyph glyph-name="ij" unicode="ij" horiz-adv-x="422" 
d="M138 643q0 -33 -32 -33t-32 33q0 31 32 31t32 -31zM127 0h-43v478h43v-478zM349 643q0 -33 -32 -33t-32 33q0 31 32 31t32 -31zM172 -190v40h15q59 0 83.5 20.5t24.5 78.5v529h43v-525q0 -77 -33.5 -110t-113.5 -33h-19z" />
    <glyph glyph-name="fi" unicode="fi" horiz-adv-x="521" 
d="M270 704v-40h-17q-60 0 -83 -17t-23 -80v-89h123v-39h-123v-439h-43v439h-80v39h80v99q0 43 11 70.5t34.5 39t44.5 14.5t57 3h19zM448 643q0 -33 -32 -33t-32 33q0 31 32 31t32 -31zM437 0h-43v478h43v-478z" />
    <glyph glyph-name="fl" unicode="fl" horiz-adv-x="533" 
d="M270 704v-40h-17q-60 0 -83 -17t-23 -80v-89h123v-39h-123v-439h-43v439h-80v39h80v99q0 43 11 70.5t34.5 39t44.5 14.5t57 3h19zM497 34v-38h-16q-57 0 -72 28.5t-15 101.5v571h43v-564q0 -64 8.5 -81.5t44.5 -17.5h7z" />
    <glyph glyph-name="f_j" unicode="fj" horiz-adv-x="521" 
d="M270 704v-40h-17q-60 0 -83 -17t-23 -80v-89h123v-39h-123v-439h-43v439h-80v39h80v99q0 43 11 70.5t34.5 39t44.5 14.5t57 3h19zM448 643q0 -33 -32 -33t-32 33q0 31 32 31t32 -31zM271 -190v40h15q59 0 83.5 20.5t24.5 78.5v529h43v-525q0 -77 -33.5 -110t-113.5 -33
h-19z" />
    <glyph glyph-name="f_t" unicode="ft" horiz-adv-x="570" 
d="M560 36v-40h-9q-82 0 -119.5 32t-37.5 105v306h-247v-439h-43v439h-80v39h80v99q0 43 11 70.5t34.5 39t44.5 14.5t57 3h19v-40h-17q-60 0 -83 -17t-23 -80v-89h247v189h43v-189h123v-39h-123v-306q0 -57 27.5 -77t88.5 -20h7z" />
    <glyph glyph-name="f_f" unicode="ff" horiz-adv-x="584" 
d="M560 704v-40h-17q-60 0 -83 -17t-23 -80v-89h123v-39h-123v-439h-43v439h-247v-439h-43v439h-80v39h80v99q0 43 11 70.5t34.5 39t44.5 14.5t57 3h19v-40h-17q-60 0 -83 -17t-23 -80v-89h247v99q0 43 11 70.5t34.5 39t44.5 14.5t57 3h19z" />
    <glyph glyph-name="f_f_i" unicode="ffi" horiz-adv-x="811" 
d="M560 704v-40h-17q-60 0 -83 -17t-23 -80v-89h123v-39h-123v-439h-43v439h-247v-439h-43v439h-80v39h80v99q0 43 11 70.5t34.5 39t44.5 14.5t57 3h19v-40h-17q-60 0 -83 -17t-23 -80v-89h247v99q0 43 11 70.5t34.5 39t44.5 14.5t57 3h19zM727 0h-43v478h43v-478zM738 643
q0 -33 -32 -33t-32 33q0 31 32 31t32 -31z" />
    <glyph glyph-name="f_f_l" unicode="ffl" horiz-adv-x="823" 
d="M560 704v-40h-17q-60 0 -83 -17t-23 -80v-89h123v-39h-123v-439h-43v439h-247v-439h-43v439h-80v39h80v99q0 43 11 70.5t34.5 39t44.5 14.5t57 3h19v-40h-17q-60 0 -83 -17t-23 -80v-89h247v99q0 43 11 70.5t34.5 39t44.5 14.5t57 3h19zM787 34v-38h-16q-57 0 -72 28.5
t-15 101.5v571h43v-564q0 -64 8.5 -81.5t44.5 -17.5h7z" />
    <glyph glyph-name=".notdef" horiz-adv-x="270" 
 />
    <glyph glyph-name=".null" horiz-adv-x="0" 
 />
    <glyph glyph-name="nonmarkingreturn" horiz-adv-x="333" 
 />
    <glyph glyph-name="space" unicode=" " horiz-adv-x="270" 
 />
    <glyph glyph-name="exclam" unicode="!" horiz-adv-x="281" 
d="M161 190h-42v477h42v-477zM175 27q0 -34 -35 -34q-34 0 -34 34t34 34q35 0 35 -34z" />
    <glyph glyph-name="quotedbl" unicode="&#x22;" horiz-adv-x="430" 
d="M311 460h-41v207h41v-207zM161 460h-41v207h41v-207z" />
    <glyph glyph-name="numbersign" unicode="#" horiz-adv-x="562" 
d="M546 424h-134l-41 -154h123v-38h-133l-61 -232h-40l61 232h-141l-61 -232h-40l61 232h-124v38h134l41 154h-123v38h134l62 232h40l-63 -232h141l63 232h40l-63 -232h124v-38zM372 424h-141l-40 -154h140z" />
    <glyph glyph-name="dollar" unicode="$" horiz-adv-x="552" 
d="M295 627v-260q30 -3 47 -5t38.5 -6.5t33 -10t25 -14.5t20 -21.5t13 -30t8.5 -40t2 -51.5q0 -97 -44.5 -142t-142.5 -46v-99l-41 1v98q-95 1 -140 31.5t-45 102.5h42q0 -52 32.5 -72.5t110.5 -21.5v288q-48 3 -78 10.5t-55 25.5t-36 50t-11 81q0 90 45 130t135 42v95h41
v-95q94 -1 137 -31t43 -103h-42q0 52 -30.5 72.5t-107.5 21.5zM254 369v258q-75 -1 -106.5 -31t-31.5 -106q0 -74 30.5 -95t107.5 -26zM295 326v-287q79 2 112.5 36.5t33.5 116.5t-29 105t-117 29z" />
    <glyph glyph-name="percent" unicode="%" horiz-adv-x="824" 
d="M599 667l-338 -667h-39l336 667h41zM307 467q0 -109 -10 -138q-23 -68 -115 -68t-115 68q-10 29 -10 138q0 75 2.5 103.5t11.5 46.5q27 56 111 56q83 0 110 -56q15 -30 15 -150zM270 467q0 99 -8 124q-13 45 -80 45t-80 -45q-8 -25 -8 -124q0 -112 11 -135q15 -36 77 -36
t77 36q11 26 11 135zM766 200q0 -109 -10 -138q-23 -68 -115 -68t-115 68q-10 29 -10 138q0 75 2.5 103.5t11.5 46.5q27 56 111 56q83 0 110 -56q15 -30 15 -150zM729 200q0 99 -8 124q-13 45 -80 45t-80 -45q-8 -25 -8 -124q0 -112 11 -135q15 -36 77 -36t77 36
q11 26 11 135z" />
    <glyph glyph-name="ampersand" unicode="&#x26;" horiz-adv-x="601" 
d="M564 332h-60v-113q0 -70 -9 -110t-37 -68q-49 -49 -171 -49q-115 0 -165 39.5t-50 150.5q0 76 24.5 117t77.5 54q-57 16 -76.5 50.5t-19.5 99.5q0 94 44 132.5t150 38.5q100 0 146.5 -33t48.5 -114h-42q-2 60 -36.5 83t-115.5 23q-89 0 -121 -27.5t-32 -104.5
q0 -78 35.5 -103t117.5 -25h189v70h41v-70h61v-41zM462 219v113h-189q-92 0 -125.5 -30.5t-33.5 -122.5q0 -90 38.5 -117.5t134.5 -27.5q106 0 142 36q20 20 26.5 54t6.5 95z" />
    <glyph glyph-name="quotesingle" unicode="'" horiz-adv-x="281" 
d="M161 460h-41v207h41v-207z" />
    <glyph glyph-name="parenleft" unicode="(" horiz-adv-x="292" 
d="M252 -152v-39q-79 0 -121 25t-60 84q-31 104 -31 388q0 287 31 391q18 59 60 84t121 25v-38q-63 0 -92 -16.5t-43 -52.5q-15 -38 -25 -147t-10 -245t10 -244t25 -146q14 -36 43 -52.5t92 -16.5z" />
    <glyph glyph-name="parenright" unicode=")" horiz-adv-x="292" 
d="M40 768v38q79 0 121 -25t60 -84q31 -104 31 -391q0 -284 -31 -388q-18 -59 -60 -84t-121 -25v39q63 0 92 16.5t43 52.5q15 38 25 146t10 244t-10 245t-25 147q-14 36 -43 52.5t-92 16.5z" />
    <glyph glyph-name="asterisk" unicode="*" horiz-adv-x="523" 
d="M495 488l-203 -64l124 -167l-30 -22l-125 166l-123 -166l-31 22l125 167l-204 64l12 35l203 -63v207h38v-207l202 63z" />
    <glyph glyph-name="plus" unicode="+" horiz-adv-x="562" 
d="M519 220h-218v-220h-41v220h-218v40h218v218h41v-218h218v-40z" />
    <glyph glyph-name="comma" unicode="," horiz-adv-x="208" 
d="M126 60v-75q0 -45 -8 -69.5t-34 -46.5l-25 -22l-27 27l19 18q22 21 27.5 39t5.5 54v75h42z" />
    <glyph glyph-name="hyphen" unicode="-" horiz-adv-x="480" 
d="M386 220h-292v40h292v-40z" />
    <glyph glyph-name="period" unicode="." horiz-adv-x="208" 
d="M139 27q0 -34 -35 -34q-34 0 -34 34t34 34q35 0 35 -34z" />
    <glyph glyph-name="slash" unicode="/" horiz-adv-x="494" 
d="M478 755l-420 -839h-42l420 839h42z" />
    <glyph glyph-name="zero" unicode="0" horiz-adv-x="561" 
d="M484 333q0 -185 -16 -231q-36 -109 -188 -109q-151 0 -187 109q-16 46 -16 231q0 126 4.5 174t19.5 79q43 88 179 88t179 -88q15 -31 20 -80t5 -173zM441 333q0 171 -14 216q-14 44 -48 64.5t-99 20.5t-98.5 -20.5t-47.5 -64.5q-14 -45 -14 -216q0 -189 19 -232
q15 -35 48 -51.5t93 -16.5t93 16.5t48 51.5q20 45 20 232z" />
    <glyph glyph-name="one" unicode="1" horiz-adv-x="448" 
d="M264 0h-43v614l-138 -124l-28 28l168 149h41v-667z" />
    <glyph glyph-name="two" unicode="2" horiz-adv-x="550" 
d="M127 533h-42q0 77 48 109t147 32q101 0 149 -39q51 -41 51 -146q0 -90 -48 -137q-22 -21 -62.5 -38t-90.5 -32.5t-66 -22.5q-53 -22 -69 -49t-16 -83v-87h350v-40h-393v146q0 61 29.5 95.5t87.5 56.5q15 6 65.5 21.5t84.5 31t51 33.5q34 35 34 105q0 56 -16 88
q-29 57 -139 57q-81 0 -118 -22.5t-37 -78.5z" />
    <glyph glyph-name="three" unicode="3" horiz-adv-x="551" 
d="M114 533h-42q0 77 49 109t149 32q108 0 153 -38.5t45 -132.5q0 -62 -19.5 -101t-72.5 -55q55 -14 76.5 -54t21.5 -111q0 -105 -49.5 -147t-156.5 -42q-96 0 -146 31.5t-50 110.5h42q0 -55 36.5 -78.5t117.5 -23.5q89 0 126 30t37 116q0 93 -39 122q-34 25 -122 25h-94v41
h94q85 0 120 26.5t35 107.5q0 77 -32.5 105t-122.5 28q-82 0 -119 -23t-37 -78z" />
    <glyph glyph-name="four" unicode="4" horiz-adv-x="552" 
d="M494 199h-98v-199h-43v199h-299v39l297 429h45v-428h98v-40zM353 239v361l-249 -361h249z" />
    <glyph glyph-name="five" unicode="5" horiz-adv-x="562" 
d="M138 627v-261q40 52 153 52q108 0 150 -52.5t42 -162.5q0 -113 -46.5 -161.5t-159.5 -48.5q-97 0 -144 32.5t-47 109.5h41q0 -56 34.5 -78.5t115.5 -22.5q92 0 127.5 35.5t35.5 129.5q0 96 -29.5 137t-121.5 41q-148 0 -152 -88h-40v378h364v-40h-323z" />
    <glyph glyph-name="six" unicode="6" horiz-adv-x="559" 
d="M472 533h-42q0 101 -142 101q-67 0 -102 -20t-49 -65q-16 -53 -16 -218q48 87 167 87q105 0 149.5 -49t44.5 -165q0 -110 -47.5 -160.5t-150.5 -50.5q-146 0 -186 109q-21 58 -21 203q0 165 13 236q12 69 60.5 101t136.5 32q185 0 185 -141zM440 203q0 98 -32.5 136
t-114.5 38q-168 0 -168 -169q0 -92 38 -133t120 -41q85 0 121 38t36 131z" />
    <glyph glyph-name="seven" unicode="7" horiz-adv-x="455" 
d="M427 628l-291 -628h-47l292 627h-352v40h398v-39z" />
    <glyph glyph-name="eight" unicode="8" horiz-adv-x="562" 
d="M485 181q0 -105 -48.5 -146.5t-155.5 -41.5t-155.5 41.5t-48.5 146.5q0 75 24.5 114t78.5 52q-58 15 -77.5 51.5t-19.5 104.5q0 94 45 132.5t153 38.5t153 -38.5t45 -132.5q0 -66 -19.5 -103.5t-76.5 -52.5q54 -13 78 -52t24 -114zM436 501q0 77 -32.5 105t-122.5 28
t-122.5 -28t-32.5 -103q0 -82 35 -109.5t120 -27.5q86 0 120.5 26.5t34.5 108.5zM442 178q0 88 -36 118t-125 30q-92 0 -126.5 -28.5t-34.5 -118.5q0 -88 34.5 -116.5t126.5 -28.5q90 0 125.5 28.5t35.5 115.5z" />
    <glyph glyph-name="nine" unicode="9" horiz-adv-x="557" 
d="M85 134h42q0 -101 142 -101q67 0 102 20t49 65q16 53 16 218q-48 -87 -167 -87q-105 0 -149.5 49t-44.5 165q0 110 47.5 160.5t150.5 50.5q146 0 186 -109q21 -59 21 -203q0 -165 -13 -236q-12 -69 -60.5 -101t-136.5 -32q-185 0 -185 141zM432 459q0 92 -38 133t-120 41
q-85 0 -121 -38t-36 -131q0 -98 32.5 -136t114.5 -38q168 0 168 169z" />
    <glyph glyph-name="colon" unicode=":" horiz-adv-x="208" 
d="M139 452q0 -34 -35 -34q-34 0 -34 34t34 34q35 0 35 -34zM139 27q0 -34 -35 -34q-34 0 -34 34t34 34q35 0 35 -34z" />
    <glyph glyph-name="semicolon" unicode=";" horiz-adv-x="208" 
d="M139 452q0 -34 -35 -34q-34 0 -34 34t34 34q35 0 35 -34zM126 60v-75q0 -45 -8 -69.5t-34 -46.5l-25 -22l-27 27l19 18q22 21 27.5 39t5.5 54v75h42z" />
    <glyph glyph-name="less" unicode="&#x3c;" horiz-adv-x="562" 
d="M522 38l-17 -38l-465 220v40l465 218l17 -38l-431 -199z" />
    <glyph glyph-name="equal" unicode="=" horiz-adv-x="563" 
d="M520 317h-477v40h477v-40zM520 124h-477v40h477v-40z" />
    <glyph glyph-name="greater" unicode="&#x3e;" horiz-adv-x="562" 
d="M522 220l-465 -220l-17 38l431 203l-431 199l17 38l465 -218v-40z" />
    <glyph glyph-name="question" unicode="?" horiz-adv-x="420" 
d="M74 533h-40q0 76 43 108.5t134 32.5q93 0 136.5 -37t43.5 -129q0 -63 -25.5 -99t-81.5 -61q-47 -20 -57.5 -42.5t-10.5 -79.5v-36h-43v53q0 61 20 90t67 49q46 19 67.5 45.5t21.5 80.5q0 71 -30 98.5t-106 27.5q-75 0 -107 -22.5t-32 -78.5zM230 27q0 -34 -35 -34
q-34 0 -34 34t34 34q35 0 35 -34z" />
    <glyph glyph-name="at" unicode="@" horiz-adv-x="764" 
d="M621 59l35 -18q-14 -29 -38 -49.5t-49 -31.5t-59.5 -17.5t-61 -8t-61.5 -1.5q-98 0 -156 17t-91 55q-58 67 -58 310q0 234 69 299q64 60 235 60q179 0 240 -57q31 -29 43.5 -79.5t12.5 -155.5q0 -177 -48 -225q-40 -39 -132 -39v49q-40 -55 -131 -55q-41 0 -70 9.5
t-46 25t-26 43t-11.5 54t-2.5 66.5q0 51 4.5 82.5t19.5 61t47.5 43t83.5 13.5q92 0 132 -55v48h38v-347q40 0 63 23t31 70.5t8 140.5q0 90 -11 131.5t-36 65.5q-51 49 -207 49q-158 0 -208 -52q-58 -59 -58 -274q0 -221 50 -278q53 -61 220 -61q89 0 143 17t86 71zM502 310
q0 92 -30 127.5t-105 35.5q-31 0 -52.5 -8.5t-33 -20.5t-17.5 -36t-7 -43.5t-1 -54.5q0 -44 2.5 -67t12.5 -48t33.5 -35.5t63.5 -10.5q75 0 104.5 35t29.5 126z" />
    <glyph glyph-name="A" unicode="A" horiz-adv-x="607" 
d="M581 0h-47l-78 204h-308l-77 -204h-45l254 667h46zM441 242l-138 373l-140 -373h278z" />
    <glyph glyph-name="B" unicode="B" horiz-adv-x="646" 
d="M98 667h217h14h41.5t37.5 -1.5t36 -4.5t30.5 -8.5t28.5 -14t22 -21.5t17.5 -30t9.5 -39.5t4 -50.5q0 -129 -84 -154q52 -14 71 -55.5t19 -104.5q0 -34 -4 -60.5t-14 -45t-20 -32t-29.5 -22t-34 -13.5t-42 -7t-45.5 -2.5t-52 -0.5h-223v667zM141 361h174h7q44 0 65 1
t50.5 8t42.5 21t23 41t10 68q0 43 -10.5 70t-34 39t-47.5 15.5t-64 3.5h-49h-167v-267zM141 40h173h18q32 0 47.5 0.5t39.5 2.5t35.5 7.5t26.5 15.5t21 25t11 37t5 52t-5 53t-11 38t-21.5 25.5t-26.5 15.5t-36.5 7.5t-41 3t-50.5 0.5h-3.5h-4h-4.5h-173v-283z" />
    <glyph glyph-name="C" unicode="C" horiz-adv-x="635" 
d="M521 170h41q0 -97 -52 -137.5t-173 -40.5q-54 0 -94.5 9t-67.5 20.5t-45 38.5t-27.5 47.5t-14.5 65.5t-5.5 73t-0.5 87t0.5 87t5.5 73t14.5 65.5t27.5 47.5t45 38.5t67.5 20.5t94.5 9q121 0 173 -40t52 -137h-41q-1 77 -41.5 106.5t-151.5 29.5q-60 0 -98.5 -13.5
t-59.5 -31t-31 -62t-11.5 -77t-1.5 -105.5v-11q0 -142 11 -187q18 -77 89 -99q40 -13 102 -13q111 0 151.5 29.5t41.5 106.5z" />
    <glyph glyph-name="D" unicode="D" horiz-adv-x="660" 
d="M98 667h226q92 0 140 -18t76 -64q22 -36 30 -88.5t8 -162.5t-8 -163t-30 -89q-28 -46 -76 -64t-140 -18h-226v667zM141 40h177q81 0 120.5 13t60.5 45q19 29 27 79.5t8 156.5t-8 156.5t-27 79.5q-21 32 -60.5 45t-120.5 13h-177v-588z" />
    <glyph glyph-name="E" unicode="E" horiz-adv-x="583" 
d="M499 0h-401v667h401v-40h-356v-264h346v-40h-346v-283h356v-40z" />
    <glyph glyph-name="F" unicode="F" horiz-adv-x="558" 
d="M494 627h-352v-264h343v-40h-343v-323h-44v667h396v-40z" />
    <glyph glyph-name="G" unicode="G" horiz-adv-x="659" 
d="M573 363v-147q0 -59 -15.5 -101.5t-38 -65.5t-58 -36.5t-66 -17t-70.5 -3.5q-71 0 -118.5 17.5t-72 39.5t-36.5 73t-14 86.5t-2 112.5v12q0 152 14 206q23 88 107 117q52 18 136 18q122 0 178 -40.5t56 -136.5h-42q-1 76 -45.5 106t-155.5 30q-60 0 -99.5 -13.5
t-60.5 -30.5t-31 -60.5t-11.5 -75t-1.5 -102.5v-18q0 -141 7 -179q15 -79 80 -104q42 -16 114 -16q130 0 174 64q19 28 24 68t5 120v37h-202v40h245z" />
    <glyph glyph-name="H" unicode="H" horiz-adv-x="653" 
d="M555 0h-44v323h-369v-323h-44v667h44v-304h369v304h44v-667z" />
    <glyph glyph-name="I" unicode="I" horiz-adv-x="240" 
d="M142 0h-44v667h44v-667z" />
    <glyph glyph-name="J" unicode="J" horiz-adv-x="526" 
d="M434 667v-461q0 -111 -41.5 -162.5t-153.5 -51.5q-101 0 -149 40t-48 138h41q0 -79 36.5 -107.5t119.5 -28.5q91 0 121 39t30 131v463h44z" />
    <glyph glyph-name="K" unicode="K" horiz-adv-x="572" 
d="M548 0h-65l-341 314v-314h-44v667h43v-315l345 315h61l-368 -332z" />
    <glyph glyph-name="L" unicode="L" horiz-adv-x="509" 
d="M494 0h-396v667h44v-627h352v-40z" />
    <glyph glyph-name="M" unicode="M" horiz-adv-x="819" 
d="M721 0h-43v605l-246 -605h-47l-245 605v-605h-42v667h59l253 -620l251 620h60v-667z" />
    <glyph glyph-name="N" unicode="N" horiz-adv-x="651" 
d="M553 0h-56l-356 606v-606h-43v667h54l358 -605v605h43v-667z" />
    <glyph glyph-name="O" unicode="O" horiz-adv-x="665" 
d="M582 334q0 -146 -10 -195q-21 -96 -106 -128q-52 -19 -134 -19q-73 0 -122 17.5t-74.5 39t-37.5 72t-14 85.5t-2 110v18q0 145 10 194q21 95 105 127q52 19 135 19q53 0 93 -9t66.5 -20t44 -38t27 -46.5t14 -61.5t5 -67.5t0.5 -79.5v-18zM538 333v20q0 69 -1.5 100.5
t-11.5 74.5t-31 60.5t-61 31t-101 13.5t-101 -13.5t-61 -31t-31 -60.5t-11.5 -74t-1.5 -101v-20v-20v-58t2 -50t5.5 -45.5t10.5 -37t17 -32.5t25.5 -23.5t36 -19t48 -9.5t61.5 -4t61.5 4t48 9.5t36 19t25.5 23.5t17 33t10.5 36.5t5.5 45.5t2 49.5v58.5v20z" />
    <glyph glyph-name="P" unicode="P" horiz-adv-x="602" 
d="M98 667h215q41 0 60.5 -0.5t51 -3.5t46.5 -10t34.5 -19.5t28.5 -31.5t15.5 -47.5t6.5 -66.5q0 -29 -4 -52.5t-9.5 -41.5t-17.5 -31t-22 -22.5t-29 -15.5t-33 -9t-39.5 -4.5t-42 -2t-46.5 -0.5h-171v-309h-44v667zM142 349h167h16q32 0 47 0.5t39.5 3t35.5 7.5t26.5 15
t22 25t11.5 37t5 52q0 41 -10 68t-22.5 41t-42 21t-50 8t-64.5 1h-14h-167v-279z" />
    <glyph glyph-name="Q" unicode="Q" horiz-adv-x="684" 
d="M586 -7l-71 45q-59 -46 -183 -46q-73 0 -122 17.5t-74.5 39t-37.5 72t-14 85.5t-2 110v18q0 145 10 194q21 95 105 127q52 19 135 19q53 0 93 -9t66.5 -20t44 -38t27 -46.5t14 -61.5t5 -67.5t0.5 -79.5v-18q0 -81 -1 -113t-10 -79t-29 -75l65 -41zM394 115l21 33l88 -56
q23 30 29 79.5t6 161.5v20q0 69 -1.5 100.5t-11.5 74.5t-31 60.5t-61 31t-101 13.5t-101 -13.5t-61 -31t-31 -60.5t-11.5 -74t-1.5 -101v-20v-20v-58t2 -50t5.5 -45.5t10.5 -37t17 -32.5t25.5 -23.5t36 -19t48 -9.5t61.5 -4q96 0 142 30z" />
    <glyph glyph-name="R" unicode="R" horiz-adv-x="644" 
d="M142 358h189q36 0 55 1t43.5 4.5t37 12t25 23t17 37t4.5 54.5q0 23 -3 41.5t-7 32t-14.5 24t-17 17.5t-23 11.5t-25 7t-30.5 3.5t-32 1h-36h-16h-167v-270zM530 0l-152 232q-41 63 -57 74t-68 11h-111v-317h-44v667h215q112 0 149 -11q74 -21 89 -108q5 -27 5 -61
q0 -88 -40.5 -128.5t-140.5 -41.5l209 -317h-54z" />
    <glyph glyph-name="S" unicode="S" horiz-adv-x="640" 
d="M560 497h-41q0 38 -12 64t-28.5 40t-46.5 21.5t-54 9t-63 1.5q-51 0 -81 -4t-60 -17.5t-43.5 -43.5t-13.5 -79q0 -20 3.5 -36.5t7 -28.5t13.5 -22l16 -16t21.5 -10.5t23 -7t27.5 -4t27.5 -1.5t32 -0.5t31.5 -0.5q29 0 40 -0.5t37 -1.5t36 -3.5t31 -6.5t30 -10.5
t23.5 -15.5t21 -21.5t14 -28t10.5 -36.5t3 -46q0 -114 -63 -157t-184 -43q-45 0 -77.5 3.5t-66 14t-54.5 29.5t-34 52t-13 79h42q0 -38 12 -64t28.5 -40t46.5 -21.5t54 -9t64 -1.5q101 0 151 31t50 124q0 38 -9 63.5t-23.5 39t-39 20t-48.5 8t-60 1.5h-23h-13
q-113 2 -154 18q-78 32 -78 149q0 59 17 97.5t52 57t74.5 25t99.5 6.5q57 0 95.5 -6t75 -23.5t54.5 -54.5t18 -93z" />
    <glyph glyph-name="T" unicode="T" horiz-adv-x="536" 
d="M506 627h-216v-627h-44v627h-216v40h476v-40z" />
    <glyph glyph-name="U" unicode="U" horiz-adv-x="649" 
d="M557 667v-331v-64q0 -144 -31 -193q-55 -87 -202 -87q-174 0 -217 112q-16 40 -16 159q0 15 0.5 40t0.5 33v331h44v-331q0 -18 -0.5 -47.5t-0.5 -40.5q0 -110 19 -144q39 -70 170 -70q128 0 167 70q11 20 16 54.5t5.5 64t0.5 113.5v331h44z" />
    <glyph glyph-name="V" unicode="V" horiz-adv-x="561" 
d="M549 667l-247 -667h-46l-244 667h46l223 -612l223 612h45z" />
    <glyph glyph-name="W" unicode="W" horiz-adv-x="872" 
d="M822 667l-166 -667h-53l-167 609l-168 -609h-54l-164 667h45l148 -605l167 605h53l167 -605l149 605h43z" />
    <glyph glyph-name="X" unicode="X" horiz-adv-x="550" 
d="M513 0h-51l-189 302l-186 -302h-50l211 337l-208 330h50l186 -297l183 297h51l-209 -330z" />
    <glyph glyph-name="Y" unicode="Y" horiz-adv-x="521" 
d="M510 667l-229 -373v-294h-43v294l-227 373h49l202 -331l200 331h48z" />
    <glyph glyph-name="Z" unicode="Z" horiz-adv-x="598" 
d="M527 0h-456v41l406 586h-406v40h456v-41l-407 -586h407v-40z" />
    <glyph glyph-name="bracketleft" unicode="[" horiz-adv-x="292" 
d="M252 -191h-192v997h192v-38h-150v-920h150v-39z" />
    <glyph glyph-name="backslash" unicode="\" horiz-adv-x="520" 
d="M491 -84h-42l-420 839h42z" />
    <glyph glyph-name="bracketright" unicode="]" horiz-adv-x="292" 
d="M232 -191h-192v39h150v920h-150v38h192v-997z" />
    <glyph glyph-name="asciicircum" unicode="^" horiz-adv-x="562" 
d="M520 208l-38 -17l-201 431l-201 -431l-38 17l219 465h40z" />
    <glyph glyph-name="underscore" unicode="_" horiz-adv-x="500" 
d="M500 -194h-500v42h500v-42z" />
    <glyph glyph-name="grave" unicode="`" horiz-adv-x="402" 
d="M293 538h-51l-133 129h54z" />
    <glyph glyph-name="a" unicode="a" horiz-adv-x="531" 
d="M455 0h-40v75q-40 -82 -178 -82q-93 0 -136 33.5t-43 108.5q0 88 45 118t139 30h170q-1 81 -6 100q-13 46 -76 57q-28 5 -67 5q-44 0 -73 -5t-54 -28t-25 -65h-40q0 42 16.5 71t46.5 43t62.5 19.5t74.5 5.5q62 0 101 -12t56 -38t22 -51t5 -67v-40v-278zM412 244h-174
q-71 0 -104 -21t-33 -87q0 -56 30 -80t103 -24q56 0 92 12t54.5 38.5t25 58t6.5 79.5v24z" />
    <glyph glyph-name="b" unicode="b" horiz-adv-x="552" 
d="M127 697v-288q46 77 167 77q51 0 87 -12.5t56.5 -31.5t31.5 -53.5t14 -67.5t3 -83t-3 -83t-14.5 -66.5t-32 -52.5t-56 -31t-86.5 -12q-123 0 -169 79v-72h-41v697h43zM443 239q0 42 -1.5 67t-9.5 55t-23 45.5t-42.5 26.5t-67.5 11q-97 0 -135 -44t-38 -161
q0 -116 38 -160.5t135 -44.5q34 0 59 6.5t40.5 21.5t24.5 30.5t13.5 42.5t5.5 48t1 56z" />
    <glyph glyph-name="c" unicode="c" horiz-adv-x="515" 
d="M417 131h40q0 -138 -188 -138q-53 0 -90 10.5t-59 28.5t-34 51t-16 68t-4 88t4 88t16 68t34 51t59 29t90 11q188 0 188 -139h-40q0 98 -147 98q-45 0 -75.5 -9.5t-47.5 -23.5t-25.5 -43t-10.5 -55.5t-2 -73.5t2 -73.5t10.5 -55.5t25.5 -43.5t47.5 -24t75.5 -9.5
q30 0 53 3.5t46 13t35.5 30t12.5 50.5z" />
    <glyph glyph-name="d" unicode="d" horiz-adv-x="552" 
d="M468 0h-41v72q-46 -79 -169 -79q-52 0 -88 12t-56 31t-31 53t-14 66.5t-3 83.5q0 49 3 81.5t14 67t31.5 54t56.5 32t87 12.5q121 0 167 -77v288h43v-697zM426 238q0 118 -38 162t-135 44q-40 0 -67.5 -11t-42.5 -26.5t-23 -45.5t-9.5 -55t-1.5 -68q0 -42 1.5 -66.5
t9 -54.5t22.5 -45.5t42.5 -26.5t68.5 -11q98 0 135.5 43.5t37.5 160.5z" />
    <glyph glyph-name="e" unicode="e" horiz-adv-x="530" 
d="M464 235h-355q0 -45 2.5 -72t11 -55t25.5 -42t47 -23t74 -9q147 0 147 97h40q0 -138 -188 -138q-66 0 -106.5 14.5t-61.5 48.5t-27.5 74.5t-6.5 107.5q0 66 6.5 106.5t26.5 75.5t60.5 50.5t105.5 15.5q53 0 89.5 -11.5t58 -30.5t33 -53t15 -68.5t3.5 -87.5zM109 274h313
q0 93 -33 132.5t-124 39.5q-89 0 -122.5 -40t-33.5 -132z" />
    <glyph glyph-name="f" unicode="f" horiz-adv-x="294" 
d="M270 704v-40h-17q-60 0 -83 -17t-23 -80v-89h123v-39h-123v-439h-43v439h-80v39h80v99q0 43 11 70.5t34.5 39t44.5 14.5t57 3h19z" />
    <glyph glyph-name="g" unicode="g" horiz-adv-x="551" 
d="M467 478v-435q0 -102 -21 -148q-42 -89 -184 -89q-184 0 -185 138h41q0 -98 141 -98q117 0 148 66q6 13 10 26.5t5.5 31t2 27t0 32t-0.5 28.5v20q-46 -78 -167 -78q-52 0 -88 12t-56 30.5t-30.5 52.5t-13.5 66.5t-3 83.5q0 48 2.5 78t13 65t30 54t56 32t88.5 13
q124 0 170 -78v70h41zM425 243q0 115 -38 158.5t-135 43.5q-41 0 -68.5 -11t-42 -26t-22 -45t-9 -53.5t-1.5 -66.5q0 -35 1 -56t5 -47.5t13.5 -41.5t25 -29.5t40 -21t58.5 -6.5q97 0 135 43t38 159z" />
    <glyph glyph-name="h" unicode="h" horiz-adv-x="536" 
d="M460 0h-43v247q0 60 -1 82.5t-8 47.5t-22 39q-30 29 -101 29q-33 0 -58.5 -7.5t-42 -17t-28 -29.5t-17.5 -34.5t-8.5 -42.5t-3 -43t-0.5 -46v-13v-212h-43v697h43v-289q43 78 159 78q93 0 134 -41q27 -28 33.5 -64t6.5 -109v-17v-255z" />
    <glyph glyph-name="i" unicode="i" horiz-adv-x="211" 
d="M138 643q0 -33 -32 -33t-32 33q0 31 32 31t32 -31zM127 0h-43v478h43v-478z" />
    <glyph glyph-name="j" unicode="j" horiz-adv-x="211" 
d="M138 643q0 -33 -32 -33t-32 33q0 31 32 31t32 -31zM-39 -190v40h15q59 0 83.5 20.5t24.5 78.5v529h43v-525q0 -77 -33.5 -110t-113.5 -33h-19z" />
    <glyph glyph-name="k" unicode="k" horiz-adv-x="464" 
d="M445 0h-60l-258 242v-242h-43v697h43v-425l255 206h60l-274 -221z" />
    <glyph glyph-name="l" unicode="l" horiz-adv-x="223" 
d="M187 34v-38h-16q-57 0 -72 28.5t-15 101.5v571h43v-564q0 -64 8.5 -81.5t44.5 -17.5h7z" />
    <glyph glyph-name="m" unicode="m" horiz-adv-x="807" 
d="M731 0h-43v291q0 44 -2.5 66t-13.5 45.5t-35.5 32.5t-65.5 9q-108 0 -132 -93q-10 -38 -10 -141v-210h-43v291q0 43 -3 66t-14 46t-35.5 32.5t-64.5 9.5q-26 0 -47 -4.5t-35.5 -15.5t-25 -21t-17 -30t-10.5 -32.5t-5.5 -38t-1.5 -37.5v-40v-16v-210h-43v478h41v-68
q39 76 148 76q119 0 145 -87q41 87 156 87q43 0 73 -11t46 -26.5t25 -40t11 -43.5t2 -46v-30v-289z" />
    <glyph glyph-name="n" unicode="n" horiz-adv-x="536" 
d="M460 0h-43v247q0 60 -1 82.5t-8 47.5t-22 39q-30 29 -101 29q-33 0 -58.5 -7.5t-42 -17t-28 -29.5t-17.5 -34.5t-8.5 -42.5t-3 -43t-0.5 -46v-13v-212h-43v478h41v-72q43 80 161 80q93 0 134 -41q19 -19 28 -47t10.5 -51.5t1.5 -74.5v-17v-255z" />
    <glyph glyph-name="o" unicode="o" horiz-adv-x="542" 
d="M476 239q0 -63 -5.5 -100.5t-25 -74.5t-62.5 -54t-112 -17q-56 0 -95 12.5t-60.5 32t-32.5 54t-14 66t-3 81.5t3 81.5t14 66.5t32.5 54t60.5 32t95 13t94.5 -13t60 -32t33 -54t14.5 -66.5t3 -81.5zM433 239q0 47 -2 74t-11 56t-26 43t-47.5 23.5t-75.5 9.5t-75.5 -9.5
t-47.5 -23.5t-26 -43t-11 -56t-2 -74t2 -73.5t11 -55.5t26 -43t47.5 -23.5t75.5 -9.5q56 0 89.5 12t49 42t19.5 61t4 90z" />
    <glyph glyph-name="p" unicode="p" horiz-adv-x="552" 
d="M125 478v-72q46 80 169 80q64 0 103.5 -16.5t58.5 -53t24.5 -75t5.5 -102.5q0 -51 -3 -83.5t-14 -66.5t-31.5 -53t-56 -31t-87.5 -12q-121 0 -167 77v-261h-43v669h41zM443 240q0 35 -1 55.5t-5.5 47.5t-13.5 42.5t-24.5 30.5t-40.5 21.5t-59 6.5q-98 0 -135.5 -43.5
t-37.5 -160.5q0 -118 38 -162t135 -44q40 0 68 11.5t43 27t22.5 46t9 55t1.5 66.5z" />
    <glyph glyph-name="q" unicode="q" horiz-adv-x="552" 
d="M468 -191h-43v261q-46 -77 -168 -77q-64 0 -104 16.5t-58 53t-23.5 75t-5.5 102.5q0 50 3 82.5t14 66.5t31 53.5t56 31.5t87 12q123 0 169 -78v70h42v-669zM426 239q0 117 -38 161t-136 44q-34 0 -59 -6.5t-40 -21.5t-24.5 -30.5t-13.5 -43t-5 -48t-1 -55.5
q0 -43 1.5 -67t9 -54.5t22 -46t42 -26.5t68.5 -11q98 0 136 44t38 161z" />
    <glyph glyph-name="r" unicode="r" horiz-adv-x="433" 
d="M421 349h-40q0 54 -28 75t-84 21q-26 0 -47 -4.5t-35.5 -16t-25 -22t-17 -30.5t-10.5 -33t-5.5 -39t-1.5 -38v-39v-6v-5v-5v-207h-43v478h41v-70q42 78 148 78q148 0 148 -137z" />
    <glyph glyph-name="s" unicode="s" horiz-adv-x="501" 
d="M440 349h-41q0 52 -29.5 74.5t-106.5 22.5q-83 0 -117.5 -20.5t-35.5 -69.5q-1 -52 18 -67.5t76 -21.5q23 -2 62 -4t58.5 -4t46 -9t39 -19.5t22 -36.5t9.5 -59q0 -77 -47.5 -110t-148.5 -32t-143 31t-42 107h40q0 -56 30.5 -77t113.5 -21t118.5 22.5t35.5 77.5
q0 47 -19 64t-79 22q-22 2 -62 4t-58.5 3.5t-44.5 8.5t-38 19.5t-21 36t-9 57.5q0 77 46 108t149 30q107 0 147 -41q31 -33 31 -96z" />
    <glyph glyph-name="t" unicode="t" horiz-adv-x="284" 
d="M274 36v-40h-9q-82 0 -119.5 32t-37.5 105v306h-80v39h80v189h43v-189h123v-39h-123v-306q0 -57 27.5 -77t88.5 -20h7z" />
    <glyph glyph-name="u" unicode="u" horiz-adv-x="536" 
d="M452 0h-41v72q-44 -80 -161 -80q-93 0 -134 41q-19 19 -28 47t-10.5 51.5t-1.5 74.5v17v255h43v-247q0 -60 1 -82.5t8 -47.5t22 -39q30 -29 101 -29q33 0 58.5 7.5t42 17t28 29.5t17.5 34.5t8.5 42.5t3 43t0.5 46v13v212h43v-478z" />
    <glyph glyph-name="v" unicode="v" horiz-adv-x="457" 
d="M436 478l-183 -478h-48l-184 478h45l164 -429l161 429h45z" />
    <glyph glyph-name="w" unicode="w" horiz-adv-x="693" 
d="M664 478l-142 -478h-50l-125 425l-126 -425h-50l-142 478h45l123 -423l126 423h48l127 -423l122 423h44z" />
    <glyph glyph-name="x" unicode="x" horiz-adv-x="457" 
d="M428 0h-52l-148 208l-148 -208h-51l174 242l-170 236h52l144 -203l146 203h50l-171 -235z" />
    <glyph glyph-name="y" unicode="y" horiz-adv-x="536" 
d="M80 -56h41q0 -50 31.5 -74t100.5 -24q107 0 139 66q9 18 13 42.5t4.5 46t0.5 67.5q-45 -76 -160 -76q-93 0 -134 41q-19 19 -28 47t-10.5 51.5t-1.5 74.5v17v255h43v-247q0 -60 1 -82.5t8 -47.5t22 -39q30 -29 101 -29q33 0 58.5 7.5t42 17t28 29.5t17.5 34.5t8.5 42.5
t3 43t0.5 46v13v212h43v-435q0 -102 -21 -148q-42 -89 -175 -89q-176 0 -176 138z" />
    <glyph glyph-name="z" unicode="z" horiz-adv-x="400" 
d="M390 0h-366v38l312 401h-312v39h366v-36l-311 -401h311v-41z" />
    <glyph glyph-name="braceleft" unicode="{" horiz-adv-x="363" 
d="M323 -153v-38q-74 0 -110 36q-27 27 -36.5 61t-9.5 95v187q0 10 -6 16l-61 61q-19 19 -19 42q0 25 28 53l54 54q4 4 4 9v211q0 61 9.5 95t36.5 61q36 36 110 36v-38q-56 0 -84 -28q-31 -31 -31 -124v-205q0 -32 -21 -53q-48 -47 -57 -56q-7 -7 -7 -14q0 -8 7 -15l56 -54
q22 -22 22 -57v-182q0 -93 32 -125q29 -28 83 -28z" />
    <glyph glyph-name="bar" unicode="|" horiz-adv-x="280" 
d="M161 -191h-42v858h42v-858z" />
    <glyph glyph-name="braceright" unicode="}" horiz-adv-x="363" 
d="M200 414l54 -54q28 -28 28 -53q0 -23 -19 -42l-61 -61q-6 -6 -6 -16v-187q0 -61 -9.5 -95t-36.5 -61q-36 -36 -110 -36v38q54 0 83 28q32 32 32 125v182q0 35 22 57l56 54q7 7 7 15q0 7 -7 14l-57 56q-21 21 -21 53v205q0 93 -31 124q-28 28 -84 28v38q74 0 110 -36
q27 -27 36.5 -61t9.5 -95v-211q0 -5 4 -9z" />
    <glyph glyph-name="asciitilde" unicode="~" horiz-adv-x="562" 
d="M527 258l-79 -50q-34 -22 -79 -22q-42 0 -74 20q-14 9 -54 32q-23 14 -50 14t-53 -16l-79 -48l-24 33l79 49q34 22 80 22q42 0 73 -19q4 -3 24 -15t28.5 -16.5t24.5 -10t30 -5.5q24 0 50 16l81 50z" />
    <glyph glyph-name="uni00A0" unicode="&#xa0;" horiz-adv-x="270" 
 />
    <glyph glyph-name="exclamdown" unicode="&#xa1;" horiz-adv-x="281" 
d="M175 452q0 -34 -34 -34q-35 0 -35 34t35 34q34 0 34 -34zM162 -189h-42v477h42v-477z" />
    <glyph glyph-name="cent" unicode="&#xa2;" horiz-adv-x="515" 
d="M416 131h41q0 -133 -168 -138v-88h-41v88q-60 2 -97.5 19.5t-55.5 53.5t-23.5 74.5t-5.5 99.5q0 48 3 80.5t14 65.5t30 52.5t53 32.5t82 14v90h41v-90q168 -4 168 -138h-41q0 93 -127 97v-410q127 4 127 97zM248 34v410q-40 -1 -67 -13t-41 -27t-21 -45.5t-8.5 -53
t-1.5 -65.5t1.5 -66t8.5 -53t21 -45.5t41 -27.5t67 -14z" />
    <glyph glyph-name="sterling" unicode="&#xa3;" horiz-adv-x="562" 
d="M513 0h-449v40h56v275h-56v39h56v107v29q0 98 38 135q51 49 156 49q33 0 55.5 -2t50.5 -9.5t44.5 -22t28 -42t11.5 -65.5h-42q0 32 -10 53.5t-31 31t-43 13t-54 3.5q-99 0 -136 -40q-25 -26 -25 -99v-31v-110h295v-39h-295v-275h350v-40z" />
    <glyph glyph-name="currency" unicode="&#xa4;" horiz-adv-x="561" 
d="M18 104l90 92q-54 74 -54 147q0 66 55 144l-94 93l25 25l93 -94q77 56 147 56t146 -56l94 93l24 -24l-93 -93q55 -71 55 -146q0 -38 -11.5 -69.5t-41.5 -75.5l93 -94l-24 -23l-94 93q-69 -55 -144 -55q-68 0 -150 55l-92 -92zM283 527q-77 0 -131.5 -53.5t-54.5 -129.5
q0 -77 53.5 -131t129.5 -54q75 0 129 54t54 130q0 75 -53.5 129.5t-126.5 54.5z" />
    <glyph glyph-name="yen" unicode="&#xa5;" horiz-adv-x="533" 
d="M508 667l-151 -258h90v-38h-113l-41 -71h154v-39h-158v-261h-43v261h-159v39h156l-43 71h-113v38h91l-153 258h50l194 -332l192 332h47z" />
    <glyph glyph-name="brokenbar" unicode="&#xa6;" horiz-adv-x="280" 
d="M161 371h-42v296h42v-296zM161 -191h-42v296h42v-296z" />
    <glyph glyph-name="section" unicode="&#xa7;" horiz-adv-x="562" 
d="M468 533h-42q0 56 -33 78t-119 22q-72 0 -104.5 -22.5t-32.5 -85.5q0 -24 4 -41.5t15 -28.5t20 -18t28.5 -9.5t29.5 -3.5t35.5 -1.5t34.5 -0.5q84 -3 117 -25q47 -32 47 -113q0 -94 -71 -117q71 -23 71 -123q0 -84 -44 -116.5t-136 -32.5q-105 0 -149.5 31t-44.5 110h41
q0 -57 33 -78.5t120 -21.5q72 0 104.5 22.5t32.5 85.5q0 61 -29.5 81t-95.5 21h-26t-29 0.5t-27 2t-29 4t-24.5 7.5t-23.5 12q-47 33 -47 113q0 95 71 117q-71 23 -71 123q0 84 44 116.5t136 32.5q105 0 149.5 -31.5t44.5 -109.5zM425 286q0 63 -32.5 80t-121.5 17
q-73 0 -103.5 -19.5t-30.5 -81.5q0 -28 8.5 -47t18.5 -28.5t33 -14.5t38 -5.5t47 -0.5h9q28 0 43.5 1t35.5 6.5t30 15.5t17.5 29.5t7.5 47.5z" />
    <glyph glyph-name="dieresis" unicode="&#xa8;" horiz-adv-x="416" 
d="M348 636q0 -33 -33 -33q-32 0 -32 33q0 31 32 31q33 0 33 -31zM134 636q0 -33 -33 -33q-32 0 -32 33q0 31 32 31q33 0 33 -31z" />
    <glyph glyph-name="copyright" unicode="&#xa9;" horiz-adv-x="821" 
d="M739 334q0 -101 -14 -163.5t-51.5 -104t-100 -57.5t-163.5 -16t-163.5 16.5t-100 58.5t-51 104t-13.5 164q0 103 13.5 165t51 102.5t99.5 55.5t164 15q103 0 165 -15t99.5 -56t51 -103t13.5 -166zM699 337q0 94 -10.5 147.5t-43.5 90t-87.5 49t-147.5 12.5
q-94 0 -148.5 -13t-86.5 -50t-42.5 -91.5t-10.5 -148.5q0 -91 11 -145t43.5 -91.5t87.5 -51.5t146 -14q62 0 106 6t77 21.5t53 37.5t32 58.5t16.5 79t4.5 103.5zM562 242h39q0 -142 -189 -142q-65 0 -105.5 13.5t-62 45.5t-28.5 72t-7 105t7 105t28.5 72t62 45.5t105.5 13.5
q189 0 189 -142h-39q0 61 -40 82.5t-109 21.5q-55 0 -88 -11.5t-49.5 -39.5t-21 -59.5t-4.5 -87.5t4.5 -87.5t21 -59.5t49.5 -39.5t88 -11.5q69 0 109 21.5t40 82.5z" />
    <glyph glyph-name="ordfeminine" unicode="&#xaa;" horiz-adv-x="378" 
d="M334 336h-32v48q-42 -53 -130 -53q-70 0 -101 22.5t-31 77.5q0 34 10.5 55.5t31 32t42 14t53.5 3.5h120q0 60 -18 82t-88 22q-48 0 -76.5 -13t-28.5 -51h-37q0 98 148 98q39 0 66.5 -8.5t41 -19t20.5 -31t8 -33t1 -35.5v-211zM296 502h-122q-47 0 -71.5 -14t-24.5 -56
q0 -38 19.5 -52t72.5 -14q34 0 58.5 8t37.5 19.5t20 31.5t8.5 36t1.5 41z" />
    <glyph glyph-name="guillemotleft" unicode="&#xab;" horiz-adv-x="447" 
d="M368 433l28 -29l-18.5 -18.5t-22 -23t-20 -22.5t-21 -26t-15.5 -24.5t-12.5 -27t-3.5 -24.5t3.5 -25t12 -27t14.5 -24t20.5 -25.5t20 -21l22 -22l18.5 -18.5l-28 -28l-16.5 16.5l-19 19t-18 18.5t-18.5 21t-16 21t-15 23t-10.5 22.5t-8 24.5t-2.5 24q0 13 4 27.5
t8.5 26.5t15.5 28t17 25t21 25.5l20 22t21.5 22.5t18.5 19zM179 433l28 -29l-18.5 -18.5t-22 -23t-20 -22.5t-21 -26t-15.5 -24.5t-12.5 -27t-3.5 -24.5t3.5 -25t12 -27t14.5 -24t20.5 -25.5t20 -21l22 -22l18.5 -18.5l-28 -28l-16.5 16.5l-19 19t-18 18.5t-18.5 21t-16 21
t-15 23t-10.5 22.5t-8 24.5t-2.5 24q0 13 4 27.5t8.5 26.5t15.5 28t17 25t21 25.5l20 22t21.5 22.5t18.5 19z" />
    <glyph glyph-name="logicalnot" unicode="&#xac;" horiz-adv-x="562" 
d="M519 0h-41v317h-435v40h476v-357z" />
    <glyph glyph-name="uni00AD" unicode="&#xad;" horiz-adv-x="480" 
d="M386 220h-292v40h292v-40z" />
    <glyph glyph-name="registered" unicode="&#xae;" horiz-adv-x="530" 
d="M484 448q0 -131 -44 -179t-175 -48t-175 48t-44 180q0 134 43 179.5t176 45.5t176 -46t43 -180zM453 450q0 118 -35.5 156.5t-152.5 38.5q-62 0 -97.5 -8t-56.5 -32.5t-27.5 -59.5t-6.5 -98q0 -118 35.5 -157t152.5 -39t152.5 40t35.5 159zM369 306h-31v81
q0 34 -12.5 43.5t-41.5 9.5h-22h-61v-134h-32v291h96q26 0 35 -0.5t26.5 -4t24 -11.5t12.5 -24t6 -40q0 -45 -28 -62q28 -16 28 -66v-83zM201 469h64h22q27 0 39 9t12 40q0 32 -12 41t-41 9h-23h-61v-99z" />
    <glyph glyph-name="macron" unicode="&#xaf;" horiz-adv-x="415" 
d="M368 617h-320v38h320v-38z" />
    <glyph glyph-name="degree" unicode="&#xb0;" horiz-adv-x="564" 
d="M428 529q0 -82 -33 -117t-114 -35t-113 36t-32 119q0 77 34 109.5t112 32.5q79 0 112.5 -33t33.5 -112zM387 525q0 62 -22 86.5t-83 24.5t-83.5 -25t-22.5 -86t22.5 -85.5t82.5 -24.5q61 0 83.5 24.5t22.5 85.5z" />
    <glyph glyph-name="plusminus" unicode="&#xb1;" horiz-adv-x="562" 
d="M519 286h-218v-193h-41v193h-218v40h218v191h41v-191h218v-40zM525 0h-488v39h488v-39z" />
    <glyph glyph-name="twosuperior" unicode="&#xb2;" 
d="M92 581h-38q0 51 32 71.5t95 20.5q65 0 96 -25t31 -88q0 -27 -7.5 -47t-15.5 -31t-30.5 -21.5t-34 -14t-44.5 -12.5q-50 -13 -66.5 -28t-16.5 -59v-45h214v-35h-252v90q0 15 1.5 27t7 21.5t9.5 16.5t14 13.5t14.5 10.5t19 8.5t19.5 6t22.5 6.5t21.5 6q23 7 35 11.5t26 14
t20 24.5t6 37q0 44 -20.5 61t-68.5 17q-47 0 -68.5 -12t-21.5 -45z" />
    <glyph glyph-name="threesuperior" unicode="&#xb3;" 
d="M94 579h-37q0 51 32 72.5t95 21.5q67 0 96.5 -24t29.5 -82q0 -36 -9 -57t-37 -32q50 -18 50 -102q0 -65 -32.5 -90t-99.5 -25q-64 0 -96 21t-32 73h38q1 -33 21.5 -46t68.5 -13q54 0 74.5 14t20.5 65q0 52 -20.5 69t-72.5 17h-64v34h64q47 0 68 13t21 57q0 43 -18 58
t-71 15q-48 0 -69 -13t-21 -46z" />
    <glyph glyph-name="acute" unicode="&#xb4;" horiz-adv-x="402" 
d="M293 667l-133 -129h-51l130 129h54z" />
    <glyph glyph-name="mu" unicode="&#xb5;" horiz-adv-x="539" 
d="M456 0h-42v73q-42 -80 -160 -80q-92 0 -128 46v-230h-43v669h43v-246v-52q0 -39 3.5 -61.5t16 -44t39.5 -31t71 -9.5t74.5 13t46.5 31t24.5 53t10 62t1.5 74v211h43v-478z" />
    <glyph glyph-name="paragraph" unicode="&#xb6;" horiz-adv-x="559" 
d="M445 0h-42v627h-71v-627h-42v311q-41 0 -60.5 0.5t-51 3.5t-47 9.5t-35.5 19.5t-29 31.5t-16 47t-7 65.5q0 38 6.5 66.5t15.5 47.5t28.5 31.5t34.5 19.5t46.5 10t51 3.5t60.5 0.5h158v-667zM290 351v276q-101 0 -131 -9q-61 -18 -70 -94q-2 -16 -2 -35q0 -38 8 -64.5
t20 -41t35.5 -22t44 -9t56.5 -1.5h39z" />
    <glyph glyph-name="periodcentered" unicode="&#xb7;" horiz-adv-x="209" 
d="M139 335q0 -34 -35 -34q-34 0 -34 34t34 34q35 0 35 -34z" />
    <glyph glyph-name="cedilla" unicode="&#xb8;" horiz-adv-x="415" 
d="M214 0v-47q65 0 65 -67q0 -38 -17.5 -55.5t-58.5 -17.5t-58.5 14t-17.5 47h33q0 -19 9.5 -25.5t33.5 -6.5q26 0 33.5 10t7.5 33q0 9 -1.5 16t-6 11.5t-7.5 7t-11.5 4t-11.5 2t-14 0.5h-13v74h35z" />
    <glyph glyph-name="onesuperior" unicode="&#xb9;" 
d="M210 267h-38v349l-69 -63l-25 24l98 90h34v-400z" />
    <glyph glyph-name="ordmasculine" unicode="&#xba;" horiz-adv-x="378" 
d="M340 503q0 -46 -4.5 -73.5t-19.5 -52t-46 -35t-81 -10.5t-81 10.5t-46 35t-19.5 52t-4.5 73.5t4.5 73.5t19.5 52t46 35t81 10.5t81 -10.5t46 -35t19.5 -52t4.5 -73.5zM302 503q0 41 -3 62.5t-14 40.5t-34 26t-62 7t-62 -7t-34 -26t-14 -40.5t-3 -62.5t3 -62.5t14 -40.5
t34 -26t62 -7t62 7t34 26t14 40.5t3 62.5z" />
    <glyph glyph-name="guillemotright" unicode="&#xbb;" horiz-adv-x="447" 
d="M240 404l28 29q2 -2 18.5 -19t21.5 -22.5l20 -22t21 -25.5t17 -25t15.5 -28t8.5 -26.5t4 -27.5q0 -12 -2.5 -24t-8 -24.5t-10.5 -22.5t-15 -23t-16 -21t-18.5 -21t-18 -18.5l-19 -19l-16.5 -16.5l-28 28l18.5 18.5l22 22t20 21t20.5 25.5t14.5 24t12 27t3.5 25t-3.5 24.5
t-12.5 27t-15.5 24.5t-21 26t-20 22.5t-22 23zM51 404l28 29q2 -2 18.5 -19t21.5 -22.5l20 -22t21 -25.5t17 -25t15.5 -28t8.5 -26.5t4 -27.5q0 -12 -2.5 -24t-8 -24.5t-10.5 -22.5t-15 -23t-16 -21t-18.5 -21t-18 -18.5l-19 -19l-16.5 -16.5l-28 28l18.5 18.5l22 22t20 21
t20.5 25.5t14.5 24t12 27t3.5 25t-3.5 24.5t-12.5 27t-15.5 24.5t-21 26t-20 22.5t-22 23z" />
    <glyph glyph-name="onequarter" unicode="&#xbc;" horiz-adv-x="824" 
d="M775 112h-62v-112h-37v112h-180v33l182 255h35v-256h62v-32zM676 144v198l-138 -198h138zM599 667l-338 -667h-39l336 667h41zM210 267h-38v349l-69 -63l-25 24l98 90h34v-400z" />
    <glyph glyph-name="onehalf" unicode="&#xbd;" horiz-adv-x="824" 
d="M551 314h-38q0 51 32 71.5t95 20.5q65 0 96 -25t31 -88q0 -27 -7.5 -47t-15.5 -31t-30.5 -21.5t-34 -14t-44.5 -12.5q-50 -13 -66.5 -28t-16.5 -59v-45h214v-35h-252v90q0 15 1.5 27t7 21.5t9.5 16.5t14 13.5t14.5 10.5t19 8.5t19.5 6t22.5 6.5t21.5 6q23 7 35 11.5
t26 14t20 24.5t6 37q0 44 -20.5 61t-68.5 17q-47 0 -68.5 -12t-21.5 -45zM599 667l-338 -667h-39l336 667h41zM210 267h-38v349l-69 -63l-25 24l98 90h34v-400z" />
    <glyph glyph-name="threequarters" unicode="&#xbe;" horiz-adv-x="824" 
d="M775 112h-62v-112h-37v112h-180v33l182 255h35v-256h62v-32zM676 144v198l-138 -198h138zM94 579h-37q0 51 32 72.5t95 21.5q67 0 96.5 -24t29.5 -82q0 -36 -9 -57t-37 -32q50 -18 50 -102q0 -65 -32.5 -90t-99.5 -25q-64 0 -96 21t-32 73h38q1 -33 21.5 -46t68.5 -13
q54 0 74.5 14t20.5 65q0 52 -20.5 69t-72.5 17h-64v34h64q47 0 68 13t21 57q0 43 -18 58t-71 15q-48 0 -69 -13t-21 -46zM599 667l-338 -667h-39l336 667h41z" />
    <glyph glyph-name="questiondown" unicode="&#xbf;" horiz-adv-x="420" 
d="M262 452q0 -34 -34 -34q-35 0 -35 34t35 34q34 0 34 -34zM349 -53h40q0 -76 -43 -108.5t-134 -32.5q-93 0 -136.5 37t-43.5 129q0 63 25.5 99t81.5 61q47 20 57.5 42.5t10.5 79.5v36h43v-53q0 -61 -20 -90t-67 -49q-46 -19 -67.5 -45.5t-21.5 -80.5q0 -71 30 -98.5
t106 -27.5q75 0 107 22.5t32 78.5z" />
    <glyph glyph-name="Agrave" unicode="&#xc0;" horiz-adv-x="607" 
d="M581 0h-47l-78 204h-308l-77 -204h-45l254 667h46zM441 242l-138 373l-140 -373h278zM393 731h-51l-133 129h54z" />
    <glyph glyph-name="Aacute" unicode="&#xc1;" horiz-adv-x="607" 
d="M581 0h-47l-78 204h-308l-77 -204h-45l254 667h46zM441 242l-138 373l-140 -373h278zM401 860l-133 -129h-51l130 129h54z" />
    <glyph glyph-name="Acircumflex" unicode="&#xc2;" horiz-adv-x="607" 
d="M581 0h-47l-78 204h-308l-77 -204h-45l254 667h46zM441 242l-138 373l-140 -373h278zM457 731h-51l-101 100l-102 -100h-52l133 129h41z" />
    <glyph glyph-name="Atilde" unicode="&#xc3;" horiz-adv-x="607" 
d="M581 0h-47l-78 204h-308l-77 -204h-45l254 667h46zM441 242l-138 373l-140 -373h278zM490 826l-53 -29q-32 -18 -67 -18q-29 0 -55 14q-5 3 -17.5 10t-19.5 10.5t-17.5 6.5t-19.5 3q-17 0 -37 -10l-65 -36l-20 31q6 4 23 14t26 15t23.5 11.5t27.5 9.5t26 3q29 0 55 -15
q2 -1 14 -8t16 -9t13.5 -6t16.5 -5.5t15 -1.5q17 0 36 10l61 32z" />
    <glyph glyph-name="Adieresis" unicode="&#xc4;" horiz-adv-x="607" 
d="M581 0h-47l-78 204h-308l-77 -204h-45l254 667h46zM441 242l-138 373l-140 -373h278zM444 828q0 -33 -33 -33q-32 0 -32 33q0 31 32 31q33 0 33 -31zM230 828q0 -33 -33 -33q-32 0 -32 33q0 31 32 31q33 0 33 -31z" />
    <glyph glyph-name="Aring" unicode="&#xc5;" horiz-adv-x="607" 
d="M582 0h-47l-78 204h-308l-77 -204h-45l237 622q-39 7 -55.5 32.5t-16.5 75.5q0 63 24 86.5t87 23.5q62 0 87.5 -25t25.5 -86q0 -53 -16 -77t-56 -31zM442 242l-138 373l-140 -373h278zM305 653q46 0 59.5 15.5t13.5 61.5q0 44 -15 60t-60 16q-46 0 -59.5 -15.5
t-13.5 -61.5q0 -44 15 -60t60 -16z" />
    <glyph glyph-name="AE" unicode="&#xc6;" horiz-adv-x="901" 
d="M817 0h-365v206h-266l-135 -206h-49l440 667h375v-40h-322v-264h312v-40h-312v-283h322v-40zM452 245v368l-241 -368h241z" />
    <glyph glyph-name="Ccedilla" unicode="&#xc7;" horiz-adv-x="635" 
d="M521 170h41q0 -98 -51.5 -137.5t-173.5 -39.5v-40q65 0 65 -67q0 -38 -17.5 -55.5t-58.5 -17.5t-58.5 14t-17.5 47h33q0 -19 9.5 -25.5t33.5 -6.5q25 0 33 9t8 33q0 7 -1 13t-3.5 10.5t-4 7.5t-6.5 5t-7 3t-9.5 1.5t-10 1t-11.5 0.5h-12v67q-64 3 -107 22t-65.5 41.5
t-33 73.5t-12.5 88t-2 115q0 59 0.5 87t5.5 73t14.5 65.5t27.5 47.5t45 38.5t67.5 20.5t94.5 9q122 0 173.5 -40t51.5 -137h-41q-1 77 -41.5 106.5t-151.5 29.5q-60 0 -98.5 -13.5t-59.5 -31t-31 -62t-11.5 -77t-1.5 -105.5v-11q0 -142 11 -187q18 -77 89 -99
q40 -13 102 -13q111 0 151.5 29.5t41.5 106.5z" />
    <glyph glyph-name="Egrave" unicode="&#xc8;" horiz-adv-x="583" 
d="M499 0h-401v667h401v-40h-356v-264h346v-40h-346v-283h356v-40zM374 731h-51l-133 129h54z" />
    <glyph glyph-name="Eacute" unicode="&#xc9;" horiz-adv-x="583" 
d="M499 0h-401v667h401v-40h-356v-264h346v-40h-346v-283h356v-40zM386 860l-133 -129h-51l130 129h54z" />
    <glyph glyph-name="Ecircumflex" unicode="&#xca;" horiz-adv-x="583" 
d="M499 0h-401v667h401v-40h-356v-264h346v-40h-346v-283h356v-40zM447 731h-51l-101 100l-102 -100h-52l133 129h41z" />
    <glyph glyph-name="Edieresis" unicode="&#xcb;" horiz-adv-x="583" 
d="M499 0h-401v667h401v-40h-356v-264h346v-40h-346v-283h356v-40zM439 829q0 -33 -33 -33q-32 0 -32 33q0 31 32 31q33 0 33 -31zM225 829q0 -33 -33 -33q-32 0 -32 33q0 31 32 31q33 0 33 -31z" />
    <glyph glyph-name="Igrave" unicode="&#xcc;" horiz-adv-x="240" 
d="M142 0h-44v667h44v-667zM223 731h-51l-133 129h54z" />
    <glyph glyph-name="Iacute" unicode="&#xcd;" horiz-adv-x="240" 
d="M142 0h-44v667h44v-667zM230 860l-133 -129h-51l130 129h54z" />
    <glyph glyph-name="Icircumflex" unicode="&#xce;" horiz-adv-x="240" 
d="M142 0h-44v667h44v-667zM273 731h-51l-101 100l-102 -100h-52l133 129h41z" />
    <glyph glyph-name="Idieresis" unicode="&#xcf;" horiz-adv-x="240" 
d="M142 0h-44v667h44v-667zM275 829q0 -33 -33 -33q-32 0 -32 33q0 31 32 31q33 0 33 -31zM61 829q0 -33 -33 -33q-32 0 -32 33q0 31 32 31q33 0 33 -31z" />
    <glyph glyph-name="Eth" unicode="&#xd0;" horiz-adv-x="678" 
d="M116 667h226q92 0 140 -18t76 -64q22 -36 30 -88.5t8 -162.5t-8 -163t-30 -89q-28 -46 -76 -64t-140 -18h-226v316h-87v40h87v311zM159 40h177q81 0 120.5 13t60.5 45q19 29 27 79.5t8 156.5t-8 156.5t-27 79.5q-21 32 -60.5 45t-120.5 13h-177v-272h189v-40h-189v-276z
" />
    <glyph glyph-name="Ntilde" unicode="&#xd1;" horiz-adv-x="651" 
d="M553 0h-56l-356 606v-606h-43v667h54l358 -605v605h43v-667zM510 826l-53 -29q-32 -18 -67 -18q-29 0 -55 14q-4 2 -17.5 10t-19.5 11t-16.5 6.5t-20.5 3.5q-18 0 -37 -11l-65 -36l-20 31q6 4 23 14t26 15t23.5 11.5t27.5 9.5t26 3q29 0 55 -15q2 -1 14 -8t16 -9t13.5 -6
t16.5 -5.5t15 -1.5q17 0 36 10l61 32z" />
    <glyph glyph-name="Ograve" unicode="&#xd2;" horiz-adv-x="665" 
d="M582 334q0 -146 -10 -195q-21 -96 -106 -128q-52 -19 -134 -19q-73 0 -122 17.5t-74.5 39t-37.5 72t-14 85.5t-2 110v18q0 145 10 194q21 95 105 127q52 19 135 19q53 0 93 -9t66.5 -20t44 -38t27 -46.5t14 -61.5t5 -67.5t0.5 -79.5v-18zM538 333v20q0 69 -1.5 100.5
t-11.5 74.5t-31 60.5t-61 31t-101 13.5t-101 -13.5t-61 -31t-31 -60.5t-11.5 -74t-1.5 -101v-20v-20v-58t2 -50t5.5 -45.5t10.5 -37t17 -32.5t25.5 -23.5t36 -19t48 -9.5t61.5 -4t61.5 4t48 9.5t36 19t25.5 23.5t17 33t10.5 36.5t5.5 45.5t2 49.5v58.5v20zM431 731h-51
l-133 129h54z" />
    <glyph glyph-name="Oacute" unicode="&#xd3;" horiz-adv-x="665" 
d="M582 334q0 -146 -10 -195q-21 -96 -106 -128q-52 -19 -134 -19q-73 0 -122 17.5t-74.5 39t-37.5 72t-14 85.5t-2 110v18q0 145 10 194q21 95 105 127q52 19 135 19q53 0 93 -9t66.5 -20t44 -38t27 -46.5t14 -61.5t5 -67.5t0.5 -79.5v-18zM538 333v20q0 69 -1.5 100.5
t-11.5 74.5t-31 60.5t-61 31t-101 13.5t-101 -13.5t-61 -31t-31 -60.5t-11.5 -74t-1.5 -101v-20v-20v-58t2 -50t5.5 -45.5t10.5 -37t17 -32.5t25.5 -23.5t36 -19t48 -9.5t61.5 -4t61.5 4t48 9.5t36 19t25.5 23.5t17 33t10.5 36.5t5.5 45.5t2 49.5v58.5v20zM418 860
l-133 -129h-51l130 129h54z" />
    <glyph glyph-name="Ocircumflex" unicode="&#xd4;" horiz-adv-x="665" 
d="M582 334q0 -146 -10 -195q-21 -96 -106 -128q-52 -19 -134 -19q-73 0 -122 17.5t-74.5 39t-37.5 72t-14 85.5t-2 110v18q0 145 10 194q21 95 105 127q52 19 135 19q53 0 93 -9t66.5 -20t44 -38t27 -46.5t14 -61.5t5 -67.5t0.5 -79.5v-18zM538 333v20q0 69 -1.5 100.5
t-11.5 74.5t-31 60.5t-61 31t-101 13.5t-101 -13.5t-61 -31t-31 -60.5t-11.5 -74t-1.5 -101v-20v-20v-58t2 -50t5.5 -45.5t10.5 -37t17 -32.5t25.5 -23.5t36 -19t48 -9.5t61.5 -4t61.5 4t48 9.5t36 19t25.5 23.5t17 33t10.5 36.5t5.5 45.5t2 49.5v58.5v20zM485 731h-51
l-101 100l-102 -100h-52l133 129h41z" />
    <glyph glyph-name="Otilde" unicode="&#xd5;" horiz-adv-x="665" 
d="M582 334q0 -146 -10 -195q-21 -96 -106 -128q-52 -19 -134 -19q-73 0 -122 17.5t-74.5 39t-37.5 72t-14 85.5t-2 110v18q0 145 10 194q21 95 105 127q52 19 135 19q53 0 93 -9t66.5 -20t44 -38t27 -46.5t14 -61.5t5 -67.5t0.5 -79.5v-18zM538 333v20q0 69 -1.5 100.5
t-11.5 74.5t-31 60.5t-61 31t-101 13.5t-101 -13.5t-61 -31t-31 -60.5t-11.5 -74t-1.5 -101v-20v-20v-58t2 -50t5.5 -45.5t10.5 -37t17 -32.5t25.5 -23.5t36 -19t48 -9.5t61.5 -4t61.5 4t48 9.5t36 19t25.5 23.5t17 33t10.5 36.5t5.5 45.5t2 49.5v58.5v20zM518 826l-53 -29
q-31 -18 -67 -18q-29 0 -55 14q-5 3 -17.5 10t-19.5 10.5t-17.5 6.5t-19.5 3q-17 0 -37 -10l-65 -36l-20 31q6 4 23 14t26 15t23.5 11.5t27.5 9.5t26 3q29 0 55 -15q2 -1 14 -8t16 -9t13.5 -6t16.5 -5.5t15 -1.5q17 0 36 10l61 32z" />
    <glyph glyph-name="Odieresis" unicode="&#xd6;" horiz-adv-x="665" 
d="M582 334q0 -146 -10 -195q-21 -96 -106 -128q-52 -19 -134 -19q-73 0 -122 17.5t-74.5 39t-37.5 72t-14 85.5t-2 110v18q0 145 10 194q21 95 105 127q52 19 135 19q53 0 93 -9t66.5 -20t44 -38t27 -46.5t14 -61.5t5 -67.5t0.5 -79.5v-18zM538 333v20q0 69 -1.5 100.5
t-11.5 74.5t-31 60.5t-61 31t-101 13.5t-101 -13.5t-61 -31t-31 -60.5t-11.5 -74t-1.5 -101v-20v-20v-58t2 -50t5.5 -45.5t10.5 -37t17 -32.5t25.5 -23.5t36 -19t48 -9.5t61.5 -4t61.5 4t48 9.5t36 19t25.5 23.5t17 33t10.5 36.5t5.5 45.5t2 49.5v58.5v20zM472 828
q0 -33 -33 -33q-32 0 -32 33q0 31 32 31q33 0 33 -31zM258 828q0 -33 -33 -33q-32 0 -32 33q0 31 32 31q33 0 33 -31z" />
    <glyph glyph-name="multiply" unicode="&#xd7;" horiz-adv-x="563" 
d="M504 51l-29 -28l-194 195l-193 -195l-29 28l194 194l-193 193l28 28l193 -192l194 192l28 -28l-193 -193z" />
    <glyph glyph-name="Oslash" unicode="&#xd8;" horiz-adv-x="664" 
d="M458 795l-29 -130q82 -15 120 -75q33 -53 33 -204v-56q-2 -115 -9.5 -170.5t-31.5 -91.5q-53 -78 -213 -77q-18 0 -54 4l-30 -136l-39 8l30 134q-85 16 -121 75q-19 31 -26 76t-7 123q0 39 1 61q2 118 9 173t31 90q53 76 214 75q26 0 53 -3l30 133zM419 624l-136 -590
q15 -1 45 -1q132 -1 174 58q20 28 27.5 72.5t8.5 165.5v52q0 89 -6 126.5t-23 62.5q-30 44 -90 54zM244 41l136 590q-30 2 -44 2q-134 1 -176 -59q-20 -28 -27.5 -73.5t-8.5 -166.5v-48q0 -90 6.5 -127.5t23.5 -63.5q30 -44 90 -54z" />
    <glyph glyph-name="Ugrave" unicode="&#xd9;" horiz-adv-x="649" 
d="M557 667v-331v-64q0 -144 -31 -193q-55 -87 -202 -87q-174 0 -217 112q-16 40 -16 159q0 15 0.5 40t0.5 33v331h44v-331q0 -18 -0.5 -47.5t-0.5 -40.5q0 -110 19 -144q39 -70 170 -70q128 0 167 70q11 20 16 54.5t5.5 64t0.5 113.5v331h44zM410 731h-51l-133 129h54z" />
    <glyph glyph-name="Uacute" unicode="&#xda;" horiz-adv-x="649" 
d="M557 667v-331v-64q0 -144 -31 -193q-55 -87 -202 -87q-174 0 -217 112q-16 40 -16 159q0 15 0.5 40t0.5 33v331h44v-331q0 -18 -0.5 -47.5t-0.5 -40.5q0 -110 19 -144q39 -70 170 -70q128 0 167 70q11 20 16 54.5t5.5 64t0.5 113.5v331h44zM419 860l-133 -129h-51
l130 129h54z" />
    <glyph glyph-name="Ucircumflex" unicode="&#xdb;" horiz-adv-x="649" 
d="M557 667v-331v-64q0 -144 -31 -193q-55 -87 -202 -87q-174 0 -217 112q-16 40 -16 159q0 15 0.5 40t0.5 33v331h44v-331q0 -18 -0.5 -47.5t-0.5 -40.5q0 -110 19 -144q39 -70 170 -70q128 0 167 70q11 20 16 54.5t5.5 64t0.5 113.5v331h44zM478 731h-51l-101 100
l-102 -100h-52l133 129h41z" />
    <glyph glyph-name="Udieresis" unicode="&#xdc;" horiz-adv-x="649" 
d="M557 667v-331v-64q0 -144 -31 -193q-55 -87 -202 -87q-174 0 -217 112q-16 40 -16 159q0 15 0.5 40t0.5 33v331h44v-331q0 -18 -0.5 -47.5t-0.5 -40.5q0 -110 19 -144q39 -70 170 -70q128 0 167 70q11 20 16 54.5t5.5 64t0.5 113.5v331h44zM467 828q0 -33 -33 -33
q-32 0 -32 33q0 31 32 31q33 0 33 -31zM253 828q0 -33 -33 -33q-32 0 -32 33q0 31 32 31q33 0 33 -31z" />
    <glyph glyph-name="Yacute" unicode="&#xdd;" horiz-adv-x="521" 
d="M510 667l-229 -373v-294h-43v294l-227 373h49l202 -331l200 331h48zM393 867l-133 -129h-51l130 129h54z" />
    <glyph glyph-name="Thorn" unicode="&#xde;" horiz-adv-x="602" 
d="M142 514h171q41 0 60.5 -0.5t51 -3.5t46.5 -10t34.5 -19.5t28.5 -31.5t15.5 -47.5t6.5 -66.5q0 -29 -4 -52.5t-9.5 -41.5t-17.5 -31t-22 -22.5t-29 -15.5t-33 -9t-39.5 -4.5t-42 -2t-46.5 -0.5h-171v-156h-44v667h44v-153zM142 196h167h16q32 0 47 0.5t39.5 3t35.5 7.5
t26.5 15t22 25t11.5 37t5 52q0 41 -10 68t-22.5 41t-42 21t-50 8t-64.5 1h-14h-167v-279z" />
    <glyph glyph-name="germandbls" unicode="&#xdf;" horiz-adv-x="562" 
d="M84 0v490q0 55 7 90t27 65.5t60 44.5t102 14q107 0 152.5 -38.5t45.5 -132.5q0 -63 -20 -104t-73 -57q53 -13 76 -57t23 -121q0 -106 -49.5 -150t-156.5 -44h-79v39h81q88 0 124.5 32t36.5 119q0 95 -37.5 129t-131.5 34h-73v39h73q91 0 127 30t36 108q0 77 -33 105.5
t-122 28.5q-92 0 -122.5 -39t-30.5 -132v-493h-43z" />
    <glyph glyph-name="agrave" unicode="&#xe0;" horiz-adv-x="531" 
d="M455 0h-40v75q-40 -82 -178 -82q-93 0 -136 33.5t-43 108.5q0 88 45 118t139 30h170q-1 81 -6 100q-13 46 -76 57q-28 5 -67 5q-44 0 -73 -5t-54 -28t-25 -65h-40q0 42 16.5 71t46.5 43t62.5 19.5t74.5 5.5q62 0 101 -12t56 -38t22 -51t5 -67v-40v-278zM412 244h-174
q-71 0 -104 -21t-33 -87q0 -56 30 -80t103 -24q56 0 92 12t54.5 38.5t25 58t6.5 79.5v24zM353 538h-51l-133 129h54z" />
    <glyph glyph-name="aacute" unicode="&#xe1;" horiz-adv-x="531" 
d="M455 0h-40v75q-40 -82 -178 -82q-93 0 -136 33.5t-43 108.5q0 88 45 118t139 30h170q-1 81 -6 100q-13 46 -76 57q-28 5 -67 5q-44 0 -73 -5t-54 -28t-25 -65h-40q0 42 16.5 71t46.5 43t62.5 19.5t74.5 5.5q62 0 101 -12t56 -38t22 -51t5 -67v-40v-278zM412 244h-174
q-71 0 -104 -21t-33 -87q0 -56 30 -80t103 -24q56 0 92 12t54.5 38.5t25 58t6.5 79.5v24zM363 667l-133 -129h-51l130 129h54z" />
    <glyph glyph-name="acircumflex" unicode="&#xe2;" horiz-adv-x="531" 
d="M455 0h-40v75q-40 -82 -178 -82q-93 0 -136 33.5t-43 108.5q0 88 45 118t139 30h170q-1 81 -6 100q-13 46 -76 57q-28 5 -67 5q-44 0 -73 -5t-54 -28t-25 -65h-40q0 42 16.5 71t46.5 43t62.5 19.5t74.5 5.5q62 0 101 -12t56 -38t22 -51t5 -67v-40v-278zM412 244h-174
q-71 0 -104 -21t-33 -87q0 -56 30 -80t103 -24q56 0 92 12t54.5 38.5t25 58t6.5 79.5v24zM418 538h-51l-101 100l-102 -100h-52l133 129h41z" />
    <glyph glyph-name="atilde" unicode="&#xe3;" horiz-adv-x="531" 
d="M455 0h-40v75q-40 -82 -178 -82q-93 0 -136 33.5t-43 108.5q0 88 45 118t139 30h170q-1 81 -6 100q-13 46 -76 57q-28 5 -67 5q-44 0 -73 -5t-54 -28t-25 -65h-40q0 42 16.5 71t46.5 43t62.5 19.5t74.5 5.5q62 0 101 -12t56 -38t22 -51t5 -67v-40v-278zM412 244h-174
q-71 0 -104 -21t-33 -87q0 -56 30 -80t103 -24q56 0 92 12t54.5 38.5t25 58t6.5 79.5v24zM449 635l-53 -29q-32 -18 -67 -18q-29 0 -55 14q-4 2 -17.5 10t-19.5 11t-16.5 6.5t-20.5 3.5q-18 0 -37 -11l-65 -36l-20 31q6 4 23 14t26 15t23.5 11.5t27.5 9.5t26 3q29 0 55 -15
q2 -1 14 -8t16 -9t13.5 -6t16.5 -5.5t15 -1.5q17 0 36 10l61 32z" />
    <glyph glyph-name="adieresis" unicode="&#xe4;" horiz-adv-x="531" 
d="M455 0h-40v75q-40 -82 -178 -82q-93 0 -136 33.5t-43 108.5q0 88 45 118t139 30h170q-1 81 -6 100q-13 46 -76 57q-28 5 -67 5q-44 0 -73 -5t-54 -28t-25 -65h-40q0 42 16.5 71t46.5 43t62.5 19.5t74.5 5.5q62 0 101 -12t56 -38t22 -51t5 -67v-40v-278zM412 244h-174
q-71 0 -104 -21t-33 -87q0 -56 30 -80t103 -24q56 0 92 12t54.5 38.5t25 58t6.5 79.5v24zM405 636q0 -33 -33 -33q-32 0 -32 33q0 31 32 31q33 0 33 -31zM191 636q0 -33 -33 -33q-32 0 -32 33q0 31 32 31q33 0 33 -31z" />
    <glyph glyph-name="aring" unicode="&#xe5;" horiz-adv-x="531" 
d="M455 0h-40v75q-40 -82 -178 -82q-93 0 -136 33.5t-43 108.5q0 88 45 118t139 30h170q-1 81 -6 100q-13 46 -76 57q-28 5 -67 5q-44 0 -73 -5t-54 -28t-25 -65h-40q0 109 115 132q-29 15 -29 79q0 60 25.5 83.5t85.5 23.5q61 0 87 -23.5t26 -83.5q0 -63 -30 -79
q35 -8 57 -22.5t31.5 -38t12.5 -45t3 -55.5v-40v-278zM343 556q0 45 -15 61.5t-60 16.5t-59.5 -16t-14.5 -62q0 -45 15 -59t60 -14t59.5 14.5t14.5 58.5zM412 244h-174q-71 0 -104 -21t-33 -87q0 -56 30 -80t103 -24q56 0 92 12t54.5 38.5t25 58t6.5 79.5v24z" />
    <glyph glyph-name="ae" unicode="&#xe6;" horiz-adv-x="877" 
d="M811 241h-355q0 -47 2 -74t11 -56t26 -43.5t47 -24t75 -9.5q147 0 147 97h40q0 -138 -188 -138q-158 0 -183 103q-18 -55 -73 -79t-122 -24q-94 0 -137 32t-43 107q0 87 46 118t139 31h171q0 33 -0.5 45t-2.5 35.5t-7.5 31.5t-16 21.5t-27 18t-40.5 8.5t-57 4
q-44 0 -73 -5t-54 -28t-25 -65h-40q0 42 16.5 71t46.5 43t62.5 19.5t74.5 5.5q144 0 171 -81q37 81 171 81q115 0 156.5 -50.5t41.5 -170.5v-24zM457 281h312q0 93 -32.5 129t-123.5 36q-89 0 -122.5 -37.5t-33.5 -127.5zM414 242h-175q-70 0 -104 -22t-34 -87q0 -55 30 -78
t104 -23q49 0 82.5 10t52.5 26t29 45.5t12.5 56.5t2.5 72z" />
    <glyph glyph-name="ccedilla" unicode="&#xe7;" horiz-adv-x="515" 
d="M417 131h40q0 -132 -173 -138v-40q65 0 65 -67q0 -38 -17.5 -55.5t-58.5 -17.5t-58.5 14t-17.5 47h33q0 -19 9.5 -25.5t33.5 -6.5q26 0 33.5 10t7.5 33q0 9 -1.5 16t-6 11.5t-7.5 7t-11.5 4t-11.5 2t-14 0.5h-13v67q-60 2 -97 18t-55.5 50t-24.5 73.5t-6 104.5q0 53 4 88
t16 68t34 51t59 29t90 11q188 0 188 -139h-40q0 98 -147 98q-45 0 -75.5 -9.5t-47.5 -23.5t-25.5 -43t-10.5 -55.5t-2 -73.5q0 -39 1.5 -62t6.5 -50t15.5 -42t28 -28.5t44.5 -19t65 -5.5q147 0 147 98z" />
    <glyph glyph-name="egrave" unicode="&#xe8;" horiz-adv-x="530" 
d="M464 235h-355q0 -45 2.5 -72t11 -55t25.5 -42t47 -23t74 -9q147 0 147 97h40q0 -138 -188 -138q-66 0 -106.5 14.5t-61.5 48.5t-27.5 74.5t-6.5 107.5q0 66 6.5 106.5t26.5 75.5t60.5 50.5t105.5 15.5q53 0 89.5 -11.5t58 -30.5t33 -53t15 -68.5t3.5 -87.5zM109 274h313
q0 93 -33 132.5t-124 39.5q-89 0 -122.5 -40t-33.5 -132zM352 538h-51l-133 129h54z" />
    <glyph glyph-name="eacute" unicode="&#xe9;" horiz-adv-x="530" 
d="M464 235h-355q0 -45 2.5 -72t11 -55t25.5 -42t47 -23t74 -9q147 0 147 97h40q0 -138 -188 -138q-66 0 -106.5 14.5t-61.5 48.5t-27.5 74.5t-6.5 107.5q0 66 6.5 106.5t26.5 75.5t60.5 50.5t105.5 15.5q53 0 89.5 -11.5t58 -30.5t33 -53t15 -68.5t3.5 -87.5zM109 274h313
q0 93 -33 132.5t-124 39.5q-89 0 -122.5 -40t-33.5 -132zM362 667l-133 -129h-51l130 129h54z" />
    <glyph glyph-name="ecircumflex" unicode="&#xea;" horiz-adv-x="530" 
d="M464 235h-355q0 -45 2.5 -72t11 -55t25.5 -42t47 -23t74 -9q147 0 147 97h40q0 -138 -188 -138q-66 0 -106.5 14.5t-61.5 48.5t-27.5 74.5t-6.5 107.5q0 66 6.5 106.5t26.5 75.5t60.5 50.5t105.5 15.5q53 0 89.5 -11.5t58 -30.5t33 -53t15 -68.5t3.5 -87.5zM109 274h313
q0 93 -33 132.5t-124 39.5q-89 0 -122.5 -40t-33.5 -132zM416 538h-51l-101 100l-102 -100h-52l133 129h41z" />
    <glyph glyph-name="edieresis" unicode="&#xeb;" horiz-adv-x="530" 
d="M464 235h-355q0 -45 2.5 -72t11 -55t25.5 -42t47 -23t74 -9q147 0 147 97h40q0 -138 -188 -138q-66 0 -106.5 14.5t-61.5 48.5t-27.5 74.5t-6.5 107.5q0 66 6.5 106.5t26.5 75.5t60.5 50.5t105.5 15.5q53 0 89.5 -11.5t58 -30.5t33 -53t15 -68.5t3.5 -87.5zM109 274h313
q0 93 -33 132.5t-124 39.5q-89 0 -122.5 -40t-33.5 -132zM405 636q0 -33 -33 -33q-32 0 -32 33q0 31 32 31q33 0 33 -31zM191 636q0 -33 -33 -33q-32 0 -32 33q0 31 32 31q33 0 33 -31z" />
    <glyph glyph-name="igrave" unicode="&#xec;" horiz-adv-x="211" 
d="M127 0h-43v478h43v-478zM198 538h-51l-133 129h54z" />
    <glyph glyph-name="iacute" unicode="&#xed;" horiz-adv-x="211" 
d="M127 0h-43v478h43v-478zM197 667l-133 -129h-51l130 129h54z" />
    <glyph glyph-name="icircumflex" unicode="&#xee;" horiz-adv-x="211" 
d="M127 0h-43v478h43v-478zM258 538h-51l-101 100l-102 -100h-52l133 129h41z" />
    <glyph glyph-name="idieresis" unicode="&#xef;" horiz-adv-x="211" 
d="M127 0h-43v478h43v-478zM245 636q0 -33 -33 -33q-32 0 -32 33q0 31 32 31q33 0 33 -31zM31 636q0 -33 -33 -33q-32 0 -32 33q0 31 32 31q33 0 33 -31z" />
    <glyph glyph-name="eth" unicode="&#xf0;" horiz-adv-x="540" 
d="M238 623l148 -151q54 -55 70.5 -99t17.5 -134q0 -66 -7 -107t-28 -75t-62 -49t-107 -15q-53 0 -90 10.5t-59.5 29t-34.5 51t-16 67.5t-4 88q0 48 3 81t14 67t31.5 54t55.5 32.5t85 12.5q43 0 73 -8l-121 120l-61 -53l-24 28l60 51l-56 56l29 26l57 -57l61 53l24 -28z
M431 239q0 114 -39.5 159.5t-135.5 46.5q-41 0 -69 -10.5t-43.5 -27t-23.5 -46t-10 -55t-2 -67.5q0 -47 2 -74t10.5 -56t26 -43t47.5 -23.5t76 -9.5q56 0 89 12t48.5 42t19.5 61.5t4 90.5z" />
    <glyph glyph-name="ntilde" unicode="&#xf1;" horiz-adv-x="536" 
d="M461 0h-43v247q0 60 -1 82.5t-8 47.5t-22 39q-30 29 -101 29q-33 0 -58.5 -7.5t-42 -17t-28 -29.5t-17.5 -34.5t-8.5 -42.5t-3 -43t-0.5 -46v-13v-212h-43v478h41v-72q43 80 161 80q93 0 134 -41q19 -19 28 -47t10.5 -51.5t1.5 -74.5v-17v-255zM455 635l-53 -29
q-32 -18 -67 -18q-29 0 -55 14q-4 2 -17.5 10t-19.5 11t-16.5 6.5t-20.5 3.5q-18 0 -37 -11l-65 -36l-20 31q6 4 23 14t26 15t23.5 11.5t27.5 9.5t26 3q29 0 55 -15q2 -1 14 -8t16 -9t13.5 -6t16.5 -5.5t15 -1.5q17 0 36 10l61 32z" />
    <glyph glyph-name="ograve" unicode="&#xf2;" horiz-adv-x="542" 
d="M476 239q0 -63 -5.5 -100.5t-25 -74.5t-62.5 -54t-112 -17q-56 0 -95 12.5t-60.5 32t-32.5 54t-14 66t-3 81.5t3 81.5t14 66.5t32.5 54t60.5 32t95 13t94.5 -13t60 -32t33 -54t14.5 -66.5t3 -81.5zM433 239q0 47 -2 74t-11 56t-26 43t-47.5 23.5t-75.5 9.5t-75.5 -9.5
t-47.5 -23.5t-26 -43t-11 -56t-2 -74t2 -73.5t11 -55.5t26 -43t47.5 -23.5t75.5 -9.5q56 0 89.5 12t49 42t19.5 61t4 90zM366 538h-51l-133 129h54z" />
    <glyph glyph-name="oacute" unicode="&#xf3;" horiz-adv-x="542" 
d="M476 239q0 -63 -5.5 -100.5t-25 -74.5t-62.5 -54t-112 -17q-56 0 -95 12.5t-60.5 32t-32.5 54t-14 66t-3 81.5t3 81.5t14 66.5t32.5 54t60.5 32t95 13t94.5 -13t60 -32t33 -54t14.5 -66.5t3 -81.5zM433 239q0 47 -2 74t-11 56t-26 43t-47.5 23.5t-75.5 9.5t-75.5 -9.5
t-47.5 -23.5t-26 -43t-11 -56t-2 -74t2 -73.5t11 -55.5t26 -43t47.5 -23.5t75.5 -9.5q56 0 89.5 12t49 42t19.5 61t4 90zM358 667l-133 -129h-51l130 129h54z" />
    <glyph glyph-name="ocircumflex" unicode="&#xf4;" horiz-adv-x="542" 
d="M476 239q0 -63 -5.5 -100.5t-25 -74.5t-62.5 -54t-112 -17q-56 0 -95 12.5t-60.5 32t-32.5 54t-14 66t-3 81.5t3 81.5t14 66.5t32.5 54t60.5 32t95 13t94.5 -13t60 -32t33 -54t14.5 -66.5t3 -81.5zM433 239q0 47 -2 74t-11 56t-26 43t-47.5 23.5t-75.5 9.5t-75.5 -9.5
t-47.5 -23.5t-26 -43t-11 -56t-2 -74t2 -73.5t11 -55.5t26 -43t47.5 -23.5t75.5 -9.5q56 0 89.5 12t49 42t19.5 61t4 90zM423 538h-51l-101 100l-102 -100h-52l133 129h41z" />
    <glyph glyph-name="otilde" unicode="&#xf5;" horiz-adv-x="542" 
d="M476 239q0 -63 -5.5 -100.5t-25 -74.5t-62.5 -54t-112 -17q-56 0 -95 12.5t-60.5 32t-32.5 54t-14 66t-3 81.5t3 81.5t14 66.5t32.5 54t60.5 32t95 13t94.5 -13t60 -32t33 -54t14.5 -66.5t3 -81.5zM433 239q0 47 -2 74t-11 56t-26 43t-47.5 23.5t-75.5 9.5t-75.5 -9.5
t-47.5 -23.5t-26 -43t-11 -56t-2 -74t2 -73.5t11 -55.5t26 -43t47.5 -23.5t75.5 -9.5q56 0 89.5 12t49 42t19.5 61t4 90zM456 635l-53 -29q-31 -18 -67 -18q-29 0 -55 14q-4 2 -17.5 10t-19.5 11t-16.5 6.5t-20.5 3.5q-18 0 -37 -11l-65 -36l-20 31q6 4 23 14t26 15
t23.5 11.5t27.5 9.5t26 3q29 0 55 -15q2 -1 14 -8t16 -9t13.5 -6t16.5 -5.5t15 -1.5q17 0 36 10l61 32z" />
    <glyph glyph-name="odieresis" unicode="&#xf6;" horiz-adv-x="542" 
d="M476 239q0 -63 -5.5 -100.5t-25 -74.5t-62.5 -54t-112 -17q-56 0 -95 12.5t-60.5 32t-32.5 54t-14 66t-3 81.5t3 81.5t14 66.5t32.5 54t60.5 32t95 13t94.5 -13t60 -32t33 -54t14.5 -66.5t3 -81.5zM433 239q0 47 -2 74t-11 56t-26 43t-47.5 23.5t-75.5 9.5t-75.5 -9.5
t-47.5 -23.5t-26 -43t-11 -56t-2 -74t2 -73.5t11 -55.5t26 -43t47.5 -23.5t75.5 -9.5q56 0 89.5 12t49 42t19.5 61t4 90zM410 636q0 -33 -33 -33q-32 0 -32 33q0 31 32 31q33 0 33 -31zM196 636q0 -33 -33 -33q-32 0 -32 33q0 31 32 31q33 0 33 -31z" />
    <glyph glyph-name="divide" unicode="&#xf7;" horiz-adv-x="562" 
d="M316 452q0 -34 -35 -34q-34 0 -34 34t34 34q35 0 35 -34zM525 220h-488v40h488v-40zM316 27q0 -34 -35 -34q-34 0 -34 34t34 34q35 0 35 -34z" />
    <glyph glyph-name="oslash" unicode="&#xf8;" horiz-adv-x="542" 
d="M403 559l-31 -88q34 -12 56 -34t32 -53t13 -59t3 -67v-21q-1 -67 -8.5 -108t-29 -74.5t-63.5 -48t-108 -13.5q-28 0 -60 5l-33 -93l-38 13l32 90q-34 12 -55.5 33t-31 51t-12.5 56.5t-3 64.5v28q0 50 3 81t15 66t33.5 54.5t60.5 32t95 11.5q30 0 60 -5l32 91zM358 432
l-138 -395q28 -4 47 -4q45 -1 75.5 8t48.5 23.5t27 43.5t11.5 56t3.5 74q1 10 1 32q0 62 -15 104.5t-61 57.5zM182 47l137 395q-21 3 -46 3q-45 0 -75 -9t-47.5 -23.5t-26.5 -43t-11.5 -55.5t-2.5 -74q-1 -14 -1 -44q0 -57 14.5 -95.5t58.5 -53.5z" />
    <glyph glyph-name="ugrave" unicode="&#xf9;" horiz-adv-x="536" 
d="M452 0h-41v72q-44 -80 -161 -80q-93 0 -134 41q-19 19 -28 47t-10.5 51.5t-1.5 74.5v17v255h43v-247q0 -60 1 -82.5t8 -47.5t22 -39q30 -29 101 -29q33 0 58.5 7.5t42 17t28 29.5t17.5 34.5t8.5 42.5t3 43t0.5 46v13v212h43v-478zM359 538h-51l-133 129h54z" />
    <glyph glyph-name="uacute" unicode="&#xfa;" horiz-adv-x="536" 
d="M452 0h-41v72q-44 -80 -161 -80q-93 0 -134 41q-19 19 -28 47t-10.5 51.5t-1.5 74.5v17v255h43v-247q0 -60 1 -82.5t8 -47.5t22 -39q30 -29 101 -29q33 0 58.5 7.5t42 17t28 29.5t17.5 34.5t8.5 42.5t3 43t0.5 46v13v212h43v-478zM365 667l-133 -129h-51l130 129h54z" />
    <glyph glyph-name="ucircumflex" unicode="&#xfb;" horiz-adv-x="536" 
d="M452 0h-41v72q-44 -80 -161 -80q-93 0 -134 41q-19 19 -28 47t-10.5 51.5t-1.5 74.5v17v255h43v-247q0 -60 1 -82.5t8 -47.5t22 -39q30 -29 101 -29q33 0 58.5 7.5t42 17t28 29.5t17.5 34.5t8.5 42.5t3 43t0.5 46v13v212h43v-478zM421 538h-51l-101 100l-102 -100h-52
l133 129h41z" />
    <glyph glyph-name="udieresis" unicode="&#xfc;" horiz-adv-x="536" 
d="M452 0h-41v72q-44 -80 -161 -80q-93 0 -134 41q-19 19 -28 47t-10.5 51.5t-1.5 74.5v17v255h43v-247q0 -60 1 -82.5t8 -47.5t22 -39q30 -29 101 -29q33 0 58.5 7.5t42 17t28 29.5t17.5 34.5t8.5 42.5t3 43t0.5 46v13v212h43v-478zM407 636q0 -33 -33 -33q-32 0 -32 33
q0 31 32 31q33 0 33 -31zM193 636q0 -33 -33 -33q-32 0 -32 33q0 31 32 31q33 0 33 -31z" />
    <glyph glyph-name="yacute" unicode="&#xfd;" horiz-adv-x="536" 
d="M365 667l-133 -129h-51l130 129h54zM80 -56h41q0 -50 31.5 -74t100.5 -24q107 0 139 66q9 18 13 42.5t4.5 46t0.5 67.5q-45 -76 -160 -76q-93 0 -134 41q-19 19 -28 47t-10.5 51.5t-1.5 74.5v17v255h43v-247q0 -60 1 -82.5t8 -47.5t22 -39q30 -29 101 -29q33 0 58.5 7.5
t42 17t28 29.5t17.5 34.5t8.5 42.5t3 43t0.5 46v13v212h43v-435q0 -102 -21 -148q-42 -89 -175 -89q-176 0 -176 138z" />
    <glyph glyph-name="thorn" unicode="&#xfe;" horiz-adv-x="552" 
d="M127 697v-288q46 77 167 77q52 0 87.5 -12t56 -31.5t31.5 -53.5t14 -66.5t3 -83.5t-3 -83.5t-14 -66.5t-31.5 -53t-56 -31t-87.5 -12q-121 0 -167 77v-261h-43v888h43zM443 240q0 35 -1 55.5t-5.5 47.5t-13.5 42.5t-24.5 30.5t-40.5 21.5t-59 6.5q-98 0 -135.5 -43.5
t-37.5 -160.5q0 -118 38 -162t135 -44q41 0 69 11.5t42.5 27t22 46.5t9 54.5t1.5 66.5z" />
    <glyph glyph-name="ydieresis" unicode="&#xff;" horiz-adv-x="536" 
d="M407 636q0 -33 -33 -33q-32 0 -32 33q0 31 32 31q33 0 33 -31zM193 636q0 -33 -33 -33q-32 0 -32 33q0 31 32 31q33 0 33 -31zM80 -56h41q0 -50 31.5 -74t100.5 -24q107 0 139 66q9 18 13 42.5t4.5 46t0.5 67.5q-45 -76 -160 -76q-93 0 -134 41q-19 19 -28 47t-10.5 51.5
t-1.5 74.5v17v255h43v-247q0 -60 1 -82.5t8 -47.5t22 -39q30 -29 101 -29q33 0 58.5 7.5t42 17t28 29.5t17.5 34.5t8.5 42.5t3 43t0.5 46v13v212h43v-435q0 -102 -21 -148q-42 -89 -175 -89q-176 0 -176 138z" />
    <glyph glyph-name="Amacron" unicode="&#x100;" horiz-adv-x="607" 
d="M581 0h-47l-78 204h-308l-77 -204h-45l254 667h46zM441 242l-138 373l-140 -373h278zM463 807h-320v38h320v-38z" />
    <glyph glyph-name="amacron" unicode="&#x101;" horiz-adv-x="531" 
d="M455 0h-40v75q-40 -82 -178 -82q-93 0 -136 33.5t-43 108.5q0 88 45 118t139 30h170q-1 81 -6 100q-13 46 -76 57q-28 5 -67 5q-44 0 -73 -5t-54 -28t-25 -65h-40q0 42 16.5 71t46.5 43t62.5 19.5t74.5 5.5q62 0 101 -12t56 -38t22 -51t5 -67v-40v-278zM412 244h-174
q-71 0 -104 -21t-33 -87q0 -56 30 -80t103 -24q56 0 92 12t54.5 38.5t25 58t6.5 79.5v24zM427 617h-320v38h320v-38z" />
    <glyph glyph-name="Abreve" unicode="&#x102;" horiz-adv-x="607" 
d="M581 0h-47l-78 204h-308l-77 -204h-45l254 667h46zM441 242l-138 373l-140 -373h278zM400 867h40q0 -73 -31 -103q-29 -28 -106 -28q-73 0 -106 28q-31 27 -31 103h41q0 -60 19 -76q20 -17 77 -17t77 17t20 76z" />
    <glyph glyph-name="abreve" unicode="&#x103;" horiz-adv-x="531" 
d="M455 0h-40v75q-40 -82 -178 -82q-93 0 -136 33.5t-43 108.5q0 88 45 118t139 30h170q-1 81 -6 100q-13 46 -76 57q-28 5 -67 5q-44 0 -73 -5t-54 -28t-25 -65h-40q0 42 16.5 71t46.5 43t62.5 19.5t74.5 5.5q62 0 101 -12t56 -38t22 -51t5 -67v-40v-278zM412 244h-174
q-71 0 -104 -21t-33 -87q0 -56 30 -80t103 -24q56 0 92 12t54.5 38.5t25 58t6.5 79.5v24zM362 667h40q0 -73 -31 -103q-29 -28 -106 -28q-73 0 -106 28q-31 27 -31 103h41q0 -60 19 -76q20 -17 77 -17t77 17t20 76z" />
    <glyph glyph-name="Aogonek" unicode="&#x104;" horiz-adv-x="607" 
d="M326 667l255 -667q-49 -19 -70 -43.5t-21 -59.5q0 -60 73 -60q10 0 30 2v-31q-20 -3 -38 -3q-103 0 -103 90q0 77 78 115l-74 194h-308l-77 -204h-45l254 667h46zM441 242l-138 373l-140 -373h278z" />
    <glyph glyph-name="aogonek" unicode="&#x105;" horiz-adv-x="531" 
d="M415 15v60q-40 -82 -178 -82q-93 0 -136 33.5t-43 108.5q0 88 45 118t139 30h170q-1 81 -6 100q-13 46 -76 57q-28 5 -67 5q-44 0 -73 -5t-54 -28t-25 -65h-40q0 42 16.5 71t46.5 43t62.5 19.5t74.5 5.5q62 0 101 -12t56 -38t22 -51t5 -67v-40v-278q-93 -33 -93 -103
q0 -61 75 -61q10 0 30 2v-30q-19 -3 -38 -3q-103 0 -103 90q0 83 89 120zM412 244h-174q-71 0 -104 -21t-33 -87q0 -56 30 -80t103 -24q56 0 92 12t54.5 38.5t25 58t6.5 79.5v24z" />
    <glyph glyph-name="Cacute" unicode="&#x106;" horiz-adv-x="635" 
d="M418 860l-133 -129h-51l130 129h54zM521 170h41q0 -97 -52 -137.5t-173 -40.5q-54 0 -94.5 9t-67.5 20.5t-45 38.5t-27.5 47.5t-14.5 65.5t-5.5 73t-0.5 87t0.5 87t5.5 73t14.5 65.5t27.5 47.5t45 38.5t67.5 20.5t94.5 9q121 0 173 -40t52 -137h-41q-1 77 -41.5 106.5
t-151.5 29.5q-60 0 -98.5 -13.5t-59.5 -31t-31 -62t-11.5 -77t-1.5 -105.5v-11q0 -142 11 -187q18 -77 89 -99q40 -13 102 -13q111 0 151.5 29.5t41.5 106.5z" />
    <glyph glyph-name="cacute" unicode="&#x107;" horiz-adv-x="515" 
d="M417 131h40q0 -138 -188 -138q-53 0 -90 10.5t-59 28.5t-34 51t-16 68t-4 88t4 88t16 68t34 51t59 29t90 11q188 0 188 -139h-40q0 98 -147 98q-45 0 -75.5 -9.5t-47.5 -23.5t-25.5 -43t-10.5 -55.5t-2 -73.5t2 -73.5t10.5 -55.5t25.5 -43.5t47.5 -24t75.5 -9.5
q30 0 53 3.5t46 13t35.5 30t12.5 50.5zM358 667l-133 -129h-51l130 129h54z" />
    <glyph glyph-name="Ccircumflex" unicode="&#x108;" horiz-adv-x="635" 
d="M521 170h41q0 -97 -52 -137.5t-173 -40.5q-54 0 -94.5 9t-67.5 20.5t-45 38.5t-27.5 47.5t-14.5 65.5t-5.5 73t-0.5 87t0.5 87t5.5 73t14.5 65.5t27.5 47.5t45 38.5t67.5 20.5t94.5 9q121 0 173 -40t52 -137h-41q-1 77 -41.5 106.5t-151.5 29.5q-60 0 -98.5 -13.5
t-59.5 -31t-31 -62t-11.5 -77t-1.5 -105.5v-11q0 -142 11 -187q18 -77 89 -99q40 -13 102 -13q111 0 151.5 29.5t41.5 106.5zM485 731h-51l-101 100l-102 -100h-52l133 129h41z" />
    <glyph glyph-name="ccircumflex" unicode="&#x109;" horiz-adv-x="515" 
d="M417 131h40q0 -138 -188 -138q-53 0 -90 10.5t-59 28.5t-34 51t-16 68t-4 88t4 88t16 68t34 51t59 29t90 11q188 0 188 -139h-40q0 98 -147 98q-45 0 -75.5 -9.5t-47.5 -23.5t-25.5 -43t-10.5 -55.5t-2 -73.5t2 -73.5t10.5 -55.5t25.5 -43.5t47.5 -24t75.5 -9.5
q30 0 53 3.5t46 13t35.5 30t12.5 50.5zM422 538h-51l-101 100l-102 -100h-52l133 129h41z" />
    <glyph glyph-name="Cdotaccent" unicode="&#x10a;" horiz-adv-x="635" 
d="M521 170h41q0 -97 -52 -137.5t-173 -40.5q-54 0 -94.5 9t-67.5 20.5t-45 38.5t-27.5 47.5t-14.5 65.5t-5.5 73t-0.5 87t0.5 87t5.5 73t14.5 65.5t27.5 47.5t45 38.5t67.5 20.5t94.5 9q121 0 173 -40t52 -137h-41q-1 77 -41.5 106.5t-151.5 29.5q-60 0 -98.5 -13.5
t-59.5 -31t-31 -62t-11.5 -77t-1.5 -105.5v-11q0 -142 11 -187q18 -77 89 -99q40 -13 102 -13q111 0 151.5 29.5t41.5 106.5zM364 828q0 -33 -33 -33q-32 0 -32 33q0 31 32 31q33 0 33 -31z" />
    <glyph glyph-name="cdotaccent" unicode="&#x10b;" horiz-adv-x="515" 
d="M417 131h40q0 -138 -188 -138q-53 0 -90 10.5t-59 28.5t-34 51t-16 68t-4 88t4 88t16 68t34 51t59 29t90 11q188 0 188 -139h-40q0 98 -147 98q-45 0 -75.5 -9.5t-47.5 -23.5t-25.5 -43t-10.5 -55.5t-2 -73.5t2 -73.5t10.5 -55.5t25.5 -43.5t47.5 -24t75.5 -9.5
q30 0 53 3.5t46 13t35.5 30t12.5 50.5zM302 636q0 -33 -33 -33q-32 0 -32 33q0 31 32 31q33 0 33 -31z" />
    <glyph glyph-name="Ccaron" unicode="&#x10c;" horiz-adv-x="635" 
d="M521 170h41q0 -97 -52 -137.5t-173 -40.5q-54 0 -94.5 9t-67.5 20.5t-45 38.5t-27.5 47.5t-14.5 65.5t-5.5 73t-0.5 87t0.5 87t5.5 73t14.5 65.5t27.5 47.5t45 38.5t67.5 20.5t94.5 9q121 0 173 -40t52 -137h-41q-1 77 -41.5 106.5t-151.5 29.5q-60 0 -98.5 -13.5
t-59.5 -31t-31 -62t-11.5 -77t-1.5 -105.5v-11q0 -142 11 -187q18 -77 89 -99q40 -13 102 -13q111 0 151.5 29.5t41.5 106.5zM486 862l-133 -129h-41l-132 129h51l101 -100l102 100h52z" />
    <glyph glyph-name="ccaron" unicode="&#x10d;" horiz-adv-x="515" 
d="M417 131h40q0 -138 -188 -138q-53 0 -90 10.5t-59 28.5t-34 51t-16 68t-4 88t4 88t16 68t34 51t59 29t90 11q188 0 188 -139h-40q0 98 -147 98q-45 0 -75.5 -9.5t-47.5 -23.5t-25.5 -43t-10.5 -55.5t-2 -73.5t2 -73.5t10.5 -55.5t25.5 -43.5t47.5 -24t75.5 -9.5
q30 0 53 3.5t46 13t35.5 30t12.5 50.5zM423 667l-133 -129h-41l-132 129h51l101 -100l102 100h52z" />
    <glyph glyph-name="Dcaron" unicode="&#x10e;" horiz-adv-x="660" 
d="M98 667h226q92 0 140 -18t76 -64q22 -36 30 -88.5t8 -162.5t-8 -163t-30 -89q-28 -46 -76 -64t-140 -18h-226v667zM141 40h177q81 0 120.5 13t60.5 45q19 29 27 79.5t8 156.5t-8 156.5t-27 79.5q-21 32 -60.5 45t-120.5 13h-177v-588zM477 862l-133 -129h-41l-132 129h51
l101 -100l102 100h52z" />
    <glyph glyph-name="dcaron" unicode="&#x10f;" horiz-adv-x="605" 
d="M468 0h-41v72q-46 -79 -169 -79q-52 0 -88 12t-56 31t-31 53t-14 66.5t-3 83.5q0 49 3 81.5t14 67t31.5 54t56.5 32t87 12.5q121 0 167 -77v288h43v-697zM426 238q0 118 -38 162t-135 44q-40 0 -67.5 -11t-42.5 -26.5t-23 -45.5t-9.5 -55t-1.5 -68q0 -42 1.5 -66.5
t9 -54.5t22.5 -45.5t42.5 -26.5t68.5 -11q98 0 135.5 43.5t37.5 160.5zM605 697v-33q0 -35 -6.5 -53t-29.5 -39l-32 -30l-29 29l34 31q14 12 17.5 23.5t3.5 37.5v34h42z" />
    <glyph glyph-name="Dcroat" unicode="&#x110;" horiz-adv-x="678" 
d="M116 667h226q92 0 140 -18t76 -64q22 -36 30 -88.5t8 -162.5t-8 -163t-30 -89q-28 -46 -76 -64t-140 -18h-226v316h-87v40h87v311zM159 40h177q81 0 120.5 13t60.5 45q19 29 27 79.5t8 156.5t-8 156.5t-27 79.5q-21 32 -60.5 45t-120.5 13h-177v-272h189v-40h-189v-276z
" />
    <glyph glyph-name="dcroat" unicode="&#x111;" horiz-adv-x="552" 
d="M468 0h-41v72q-46 -79 -169 -79q-52 0 -88 12t-56 31t-31 53t-14 66.5t-3 83.5q0 49 3 81.5t14 67t31.5 54t56.5 32t87 12.5q121 0 167 -77v140h-169v36h169v112h43v-112h78v-36h-78v-549zM426 238q0 118 -38 162t-135 44q-40 0 -67.5 -11t-42.5 -26.5t-23 -45.5
t-9.5 -55t-1.5 -68q0 -42 1.5 -66.5t9 -54.5t22.5 -45.5t42.5 -26.5t68.5 -11q98 0 135.5 43.5t37.5 160.5z" />
    <glyph glyph-name="Emacron" unicode="&#x112;" horiz-adv-x="583" 
d="M499 0h-401v667h401v-40h-356v-264h346v-40h-346v-283h356v-40zM459 807h-320v38h320v-38z" />
    <glyph glyph-name="emacron" unicode="&#x113;" horiz-adv-x="530" 
d="M464 235h-355q0 -45 2.5 -72t11 -55t25.5 -42t47 -23t74 -9q147 0 147 97h40q0 -138 -188 -138q-66 0 -106.5 14.5t-61.5 48.5t-27.5 74.5t-6.5 107.5q0 66 6.5 106.5t26.5 75.5t60.5 50.5t105.5 15.5q53 0 89.5 -11.5t58 -30.5t33 -53t15 -68.5t3.5 -87.5zM109 274h313
q0 93 -33 132.5t-124 39.5q-89 0 -122.5 -40t-33.5 -132zM425 617h-320v38h320v-38z" />
    <glyph glyph-name="Ebreve" unicode="&#x114;" horiz-adv-x="583" 
d="M499 0h-401v667h401v-40h-356v-264h346v-40h-346v-283h356v-40zM397 867h40q0 -73 -31 -103q-29 -28 -106 -28q-73 0 -106 28q-31 27 -31 103h41q0 -60 19 -76q20 -17 77 -17t77 17t20 76z" />
    <glyph glyph-name="ebreve" unicode="&#x115;" horiz-adv-x="530" 
d="M464 235h-355q0 -45 2.5 -72t11 -55t25.5 -42t47 -23t74 -9q147 0 147 97h40q0 -138 -188 -138q-66 0 -106.5 14.5t-61.5 48.5t-27.5 74.5t-6.5 107.5q0 66 6.5 106.5t26.5 75.5t60.5 50.5t105.5 15.5q53 0 89.5 -11.5t58 -30.5t33 -53t15 -68.5t3.5 -87.5zM109 274h313
q0 93 -33 132.5t-124 39.5q-89 0 -122.5 -40t-33.5 -132zM362 667h40q0 -73 -31 -103q-29 -28 -106 -28q-73 0 -106 28q-31 27 -31 103h41q0 -60 19 -76q20 -17 77 -17t77 17t20 76z" />
    <glyph glyph-name="Edotaccent" unicode="&#x116;" horiz-adv-x="583" 
d="M499 0h-401v667h401v-40h-356v-264h346v-40h-346v-283h356v-40zM332 828q0 -33 -33 -33q-32 0 -32 33q0 31 32 31q33 0 33 -31z" />
    <glyph glyph-name="edotaccent" unicode="&#x117;" horiz-adv-x="530" 
d="M464 235h-355q0 -45 2.5 -72t11 -55t25.5 -42t47 -23t74 -9q147 0 147 97h40q0 -138 -188 -138q-66 0 -106.5 14.5t-61.5 48.5t-27.5 74.5t-6.5 107.5q0 66 6.5 106.5t26.5 75.5t60.5 50.5t105.5 15.5q53 0 89.5 -11.5t58 -30.5t33 -53t15 -68.5t3.5 -87.5zM109 274h313
q0 93 -33 132.5t-124 39.5q-89 0 -122.5 -40t-33.5 -132zM298 636q0 -33 -33 -33q-32 0 -32 33q0 31 32 31q33 0 33 -31z" />
    <glyph glyph-name="Eogonek" unicode="&#x118;" horiz-adv-x="583" 
d="M499 40v-40q-49 -19 -70 -43.5t-21 -59.5q0 -60 73 -60q10 0 30 2v-31q-19 -3 -38 -3q-103 0 -103 90q0 24 6.5 43.5t16 30.5t19.5 18.5t16 10.5l7 2h-337v667h401v-40h-356v-264h346v-40h-346v-283h356z" />
    <glyph glyph-name="eogonek" unicode="&#x119;" horiz-adv-x="530" 
d="M464 235h-355q0 -45 2.5 -72t11 -55t25.5 -42t47 -23t74 -9q147 0 147 97h40q0 -45 -19 -74t-46 -43t-54 -26.5t-46 -34.5t-19 -56q0 -61 75 -61q10 0 30 2v-30q-19 -3 -38 -3q-103 0 -103 90q0 68 54 99l-22 -1q-66 0 -106.5 14.5t-61.5 48.5t-27.5 74.5t-6.5 107.5
q0 66 6.5 106.5t26.5 75.5t60.5 50.5t105.5 15.5q53 0 89.5 -11.5t58 -30.5t33 -53t15 -68.5t3.5 -87.5zM109 274h313q0 93 -33 132.5t-124 39.5q-89 0 -122.5 -40t-33.5 -132z" />
    <glyph glyph-name="Ecaron" unicode="&#x11a;" horiz-adv-x="583" 
d="M499 0h-401v667h401v-40h-356v-264h346v-40h-346v-283h356v-40zM453 862l-133 -129h-41l-132 129h51l101 -100l102 100h52z" />
    <glyph glyph-name="ecaron" unicode="&#x11b;" horiz-adv-x="530" 
d="M464 235h-355q0 -45 2.5 -72t11 -55t25.5 -42t47 -23t74 -9q147 0 147 97h40q0 -138 -188 -138q-66 0 -106.5 14.5t-61.5 48.5t-27.5 74.5t-6.5 107.5q0 66 6.5 106.5t26.5 75.5t60.5 50.5t105.5 15.5q53 0 89.5 -11.5t58 -30.5t33 -53t15 -68.5t3.5 -87.5zM109 274h313
q0 93 -33 132.5t-124 39.5q-89 0 -122.5 -40t-33.5 -132zM418 667l-133 -129h-41l-132 129h51l101 -100l102 100h52z" />
    <glyph glyph-name="Gcircumflex" unicode="&#x11c;" horiz-adv-x="659" 
d="M485 731h-51l-101 100l-102 -100h-52l133 129h41zM573 363v-147q0 -59 -15.5 -101.5t-38 -65.5t-58 -36.5t-66 -17t-70.5 -3.5q-71 0 -118.5 17.5t-72 39.5t-36.5 73t-14 86.5t-2 112.5v12q0 152 14 206q23 88 107 117q52 18 136 18q122 0 178 -40.5t56 -136.5h-42
q-1 76 -45.5 106t-155.5 30q-60 0 -99.5 -13.5t-60.5 -30.5t-31 -60.5t-11.5 -75t-1.5 -102.5v-18q0 -141 7 -179q15 -79 80 -104q42 -16 114 -16q130 0 174 64q19 28 24 68t5 120v37h-202v40h245z" />
    <glyph glyph-name="gcircumflex" unicode="&#x11d;" horiz-adv-x="551" 
d="M467 478v-435q0 -102 -21 -148q-42 -89 -184 -89q-184 0 -185 138h41q0 -98 141 -98q117 0 148 66q6 13 10 26.5t5.5 31t2 27t0 32t-0.5 28.5v20q-46 -78 -167 -78q-52 0 -88 12t-56 30.5t-30.5 52.5t-13.5 66.5t-3 83.5q0 48 2.5 78t13 65t30 54t56 32t88.5 13
q124 0 170 -78v70h41zM425 243q0 115 -38 158.5t-135 43.5q-41 0 -68.5 -11t-42 -26t-22 -45t-9 -53.5t-1.5 -66.5q0 -35 1 -56t5 -47.5t13.5 -41.5t25 -29.5t40 -21t58.5 -6.5q97 0 135 43t38 159zM421 538h-51l-101 100l-102 -100h-52l133 129h41z" />
    <glyph glyph-name="Gbreve" unicode="&#x11e;" horiz-adv-x="659" 
d="M428 867h40q0 -73 -31 -103q-29 -28 -106 -28q-73 0 -106 28q-31 27 -31 103h41q0 -60 19 -76q20 -17 77 -17t77 17t20 76zM573 363v-147q0 -59 -15.5 -101.5t-38 -65.5t-58 -36.5t-66 -17t-70.5 -3.5q-71 0 -118.5 17.5t-72 39.5t-36.5 73t-14 86.5t-2 112.5v12
q0 152 14 206q23 88 107 117q52 18 136 18q122 0 178 -40.5t56 -136.5h-42q-1 76 -45.5 106t-155.5 30q-60 0 -99.5 -13.5t-60.5 -30.5t-31 -60.5t-11.5 -75t-1.5 -102.5v-18q0 -141 7 -179q15 -79 80 -104q42 -16 114 -16q130 0 174 64q19 28 24 68t5 120v37h-202v40h245z
" />
    <glyph glyph-name="gbreve" unicode="&#x11f;" horiz-adv-x="551" 
d="M467 478v-435q0 -102 -21 -148q-42 -89 -184 -89q-184 0 -185 138h41q0 -98 141 -98q117 0 148 66q6 13 10 26.5t5.5 31t2 27t0 32t-0.5 28.5v20q-46 -78 -167 -78q-52 0 -88 12t-56 30.5t-30.5 52.5t-13.5 66.5t-3 83.5q0 48 2.5 78t13 65t30 54t56 32t88.5 13
q124 0 170 -78v70h41zM425 243q0 115 -38 158.5t-135 43.5q-41 0 -68.5 -11t-42 -26t-22 -45t-9 -53.5t-1.5 -66.5q0 -35 1 -56t5 -47.5t13.5 -41.5t25 -29.5t40 -21t58.5 -6.5q97 0 135 43t38 159zM364 667h40q0 -73 -31 -103q-29 -28 -106 -28q-73 0 -106 28
q-31 27 -31 103h41q0 -60 19 -76q20 -17 77 -17t77 17t20 76z" />
    <glyph glyph-name="Gdotaccent" unicode="&#x120;" horiz-adv-x="659" 
d="M364 828q0 -33 -33 -33q-32 0 -32 33q0 31 32 31q33 0 33 -31zM573 363v-147q0 -59 -15.5 -101.5t-38 -65.5t-58 -36.5t-66 -17t-70.5 -3.5q-71 0 -118.5 17.5t-72 39.5t-36.5 73t-14 86.5t-2 112.5v12q0 152 14 206q23 88 107 117q52 18 136 18q122 0 178 -40.5
t56 -136.5h-42q-1 76 -45.5 106t-155.5 30q-60 0 -99.5 -13.5t-60.5 -30.5t-31 -60.5t-11.5 -75t-1.5 -102.5v-18q0 -141 7 -179q15 -79 80 -104q42 -16 114 -16q130 0 174 64q19 28 24 68t5 120v37h-202v40h245z" />
    <glyph glyph-name="gdotaccent" unicode="&#x121;" horiz-adv-x="551" 
d="M467 478v-435q0 -102 -21 -148q-42 -89 -184 -89q-184 0 -185 138h41q0 -98 141 -98q117 0 148 66q6 13 10 26.5t5.5 31t2 27t0 32t-0.5 28.5v20q-46 -78 -167 -78q-52 0 -88 12t-56 30.5t-30.5 52.5t-13.5 66.5t-3 83.5q0 48 2.5 78t13 65t30 54t56 32t88.5 13
q124 0 170 -78v70h41zM425 243q0 115 -38 158.5t-135 43.5q-41 0 -68.5 -11t-42 -26t-22 -45t-9 -53.5t-1.5 -66.5q0 -35 1 -56t5 -47.5t13.5 -41.5t25 -29.5t40 -21t58.5 -6.5q97 0 135 43t38 159zM301 636q0 -33 -33 -33q-32 0 -32 33q0 31 32 31q33 0 33 -31z" />
    <glyph glyph-name="Gcommaaccent" unicode="&#x122;" horiz-adv-x="659" 
d="M349 -44v-33q0 -35 -6.5 -53t-29.5 -39l-32 -30l-29 29l34 31q14 12 17.5 23.5t3.5 37.5v34h42zM573 363v-147q0 -59 -15.5 -101.5t-38 -65.5t-58 -36.5t-66 -17t-70.5 -3.5q-71 0 -118.5 17.5t-72 39.5t-36.5 73t-14 86.5t-2 112.5v12q0 152 14 206q23 88 107 117
q52 18 136 18q122 0 178 -40.5t56 -136.5h-42q-1 76 -45.5 106t-155.5 30q-60 0 -99.5 -13.5t-60.5 -30.5t-31 -60.5t-11.5 -75t-1.5 -102.5v-18q0 -141 7 -179q15 -79 80 -104q42 -16 114 -16q130 0 174 64q19 28 24 68t5 120v37h-202v40h245z" />
    <glyph glyph-name="gcommaaccent" unicode="&#x123;" horiz-adv-x="551" 
d="M467 478v-435q0 -102 -21 -148q-42 -89 -184 -89q-184 0 -185 138h41q0 -98 141 -98q117 0 148 66q6 13 10 26.5t5.5 31t2 27t0 32t-0.5 28.5v20q-46 -78 -167 -78q-52 0 -88 12t-56 30.5t-30.5 52.5t-13.5 66.5t-3 83.5q0 48 2.5 78t13 65t30 54t56 32t88.5 13
q124 0 170 -78v70h41zM425 243q0 115 -38 158.5t-135 43.5q-41 0 -68.5 -11t-42 -26t-22 -45t-9 -53.5t-1.5 -66.5q0 -35 1 -56t5 -47.5t13.5 -41.5t25 -29.5t40 -21t58.5 -6.5q97 0 135 43t38 159zM233 541v33q0 35 6.5 53t29.5 39l32 30l29 -29l-34 -31
q-14 -12 -17.5 -23.5t-3.5 -37.5v-34h-42z" />
    <glyph glyph-name="Hcircumflex" unicode="&#x124;" horiz-adv-x="653" 
d="M555 0h-44v323h-369v-323h-44v667h44v-304h369v304h44v-667zM479 731h-51l-101 100l-102 -100h-52l133 129h41z" />
    <glyph glyph-name="hcircumflex" unicode="&#x125;" horiz-adv-x="536" 
d="M258 757h-51l-101 100l-102 -100h-52l133 129h41zM460 0h-43v247q0 60 -1 82.5t-8 47.5t-22 39q-30 29 -101 29q-33 0 -58.5 -7.5t-42 -17t-28 -29.5t-17.5 -34.5t-8.5 -42.5t-3 -43t-0.5 -46v-13v-212h-43v697h43v-289q43 78 159 78q93 0 134 -41q27 -28 33.5 -64
t6.5 -109v-17v-255z" />
    <glyph glyph-name="Hbar" unicode="&#x126;" horiz-adv-x="653" 
d="M555 0h-44v323h-369v-323h-44v497h-82v40h82v130h44v-130h369v130h44v-130h82v-40h-82v-497zM142 363h369v134h-369v-134z" />
    <glyph glyph-name="hbar" unicode="&#x127;" horiz-adv-x="536" 
d="M296 549h-169v-141q43 78 159 78q93 0 134 -41q27 -28 33.5 -64t6.5 -109v-17v-255h-43v247q0 60 -1 82.5t-8 47.5t-22 39q-30 29 -101 29q-33 0 -58.5 -7.5t-42 -17t-28 -29.5t-17.5 -34.5t-8.5 -42.5t-3 -43t-0.5 -46v-13v-212h-43v549h-78v36h78v112h43v-112h169v-36z
" />
    <glyph glyph-name="Itilde" unicode="&#x128;" horiz-adv-x="240" 
d="M142 0h-44v667h44v-667zM306 826l-53 -29q-32 -18 -67 -18q-29 0 -55 14q-4 2 -17.5 10t-19.5 11t-16.5 6.5t-20.5 3.5q-18 0 -37 -11l-65 -36l-20 31q6 4 23 14t26 15t23.5 11.5t27.5 9.5t26 3q29 0 55 -15q2 -1 14 -8t16 -9t13.5 -6t16.5 -5.5t15 -1.5q17 0 36 10
l61 32z" />
    <glyph glyph-name="itilde" unicode="&#x129;" horiz-adv-x="211" 
d="M127 0h-43v478h43v-478zM291 635l-53 -29q-32 -18 -67 -18q-29 0 -55 14q-4 2 -17.5 10t-19.5 11t-16.5 6.5t-20.5 3.5q-18 0 -37 -11l-65 -36l-20 31q6 4 23 14t26 15t23.5 11.5t27.5 9.5t26 3q29 0 55 -15q2 -1 14 -8t16 -9t13.5 -6t16.5 -5.5t15 -1.5q17 0 36 10
l61 32z" />
    <glyph glyph-name="Imacron" unicode="&#x12a;" horiz-adv-x="240" 
d="M142 0h-44v667h44v-667zM280 807h-320v38h320v-38z" />
    <glyph glyph-name="imacron" unicode="&#x12b;" horiz-adv-x="211" 
d="M127 0h-43v478h43v-478zM266 617h-320v38h320v-38z" />
    <glyph glyph-name="Ibreve" unicode="&#x12c;" horiz-adv-x="240" 
d="M142 0h-44v667h44v-667zM217 867h40q0 -73 -31 -103q-29 -28 -106 -28q-73 0 -106 28q-31 27 -31 103h41q0 -60 19 -76q20 -17 77 -17t77 17t20 76z" />
    <glyph glyph-name="ibreve" unicode="&#x12d;" horiz-adv-x="211" 
d="M127 0h-43v478h43v-478zM203 667h40q0 -73 -31 -103q-29 -28 -106 -28q-73 0 -106 28q-31 27 -31 103h41q0 -60 19 -76q20 -17 77 -17t77 17t20 76z" />
    <glyph glyph-name="Iogonek" unicode="&#x12e;" horiz-adv-x="240" 
d="M142 667v-667q-49 -19 -70 -43.5t-21 -59.5q0 -60 73 -60q10 0 30 2v-31q-20 -3 -38 -3q-103 0 -103 90q0 79 85 120v652h44z" />
    <glyph glyph-name="iogonek" unicode="&#x12f;" horiz-adv-x="211" 
d="M127 478v-478q-93 -33 -93 -103q0 -61 75 -61q10 0 30 2v-30q-19 -3 -38 -3q-103 0 -103 90q0 80 86 119v464h43zM138 643q0 -33 -32 -33t-32 33q0 31 32 31t32 -31z" />
    <glyph glyph-name="Idotaccent" unicode="&#x130;" horiz-adv-x="240" 
d="M142 0h-44v667h44v-667zM153 828q0 -33 -33 -33q-32 0 -32 33q0 31 32 31q33 0 33 -31z" />
    <glyph glyph-name="dotlessi" unicode="&#x131;" horiz-adv-x="211" 
d="M127 0h-43v478h43v-478z" />
    <glyph glyph-name="Jcircumflex" unicode="&#x134;" horiz-adv-x="526" 
d="M564 731h-51l-101 100l-102 -100h-52l133 129h41zM434 667v-461q0 -111 -41.5 -162.5t-153.5 -51.5q-101 0 -149 40t-48 138h41q0 -79 36.5 -107.5t119.5 -28.5q91 0 121 39t30 131v463h44z" />
    <glyph glyph-name="jcircumflex" unicode="&#x135;" horiz-adv-x="211" 
d="M258 538h-51l-101 100l-102 -100h-52l133 129h41zM-39 -190v40h15q59 0 83.5 20.5t24.5 78.5v529h43v-525q0 -77 -33.5 -110t-113.5 -33h-19z" />
    <glyph glyph-name="Kcommaaccent" unicode="&#x136;" horiz-adv-x="572" 
d="M548 0h-65l-341 314v-314h-44v667h43v-315l345 315h61l-368 -332zM322 -44v-33q0 -35 -6.5 -53t-29.5 -39l-32 -30l-29 29l34 31q14 12 17.5 23.5t3.5 37.5v34h42z" />
    <glyph glyph-name="kcommaaccent" unicode="&#x137;" horiz-adv-x="464" 
d="M445 0h-60l-258 242v-242h-43v697h43v-425l255 206h60l-274 -221zM286 -44v-33q0 -35 -6.5 -53t-29.5 -39l-32 -30l-29 29l34 31q14 12 17.5 23.5t3.5 37.5v34h42z" />
    <glyph glyph-name="Lacute" unicode="&#x139;" horiz-adv-x="509" 
d="M494 0h-396v667h44v-627h352v-40zM280 860l-133 -129h-51l130 129h54z" />
    <glyph glyph-name="lacute" unicode="&#x13a;" horiz-adv-x="278" 
d="M268 862l-133 -129h-51l130 129h54zM187 34v-38h-16q-57 0 -72 28.5t-15 101.5v571h43v-564q0 -64 8.5 -81.5t44.5 -17.5h7z" />
    <glyph glyph-name="Lcommaaccent" unicode="&#x13b;" horiz-adv-x="509" 
d="M494 0h-396v667h44v-627h352v-40zM317 -44v-33q0 -35 -6.5 -53t-29.5 -39l-32 -30l-29 29l34 31q14 12 17.5 23.5t3.5 37.5v34h42z" />
    <glyph glyph-name="lcommaaccent" unicode="&#x13c;" horiz-adv-x="211" 
d="M148 -44v-33q0 -35 -6.5 -53t-29.5 -39l-32 -30l-29 29l34 31q14 12 17.5 23.5t3.5 37.5v34h42zM187 34v-38h-16q-57 0 -72 28.5t-15 101.5v571h43v-564q0 -64 8.5 -81.5t44.5 -17.5h7z" />
    <glyph glyph-name="Lcaron" unicode="&#x13d;" horiz-adv-x="509" 
d="M494 0h-396v667h44v-627h352v-40zM307 667v-33q0 -35 -6.5 -53t-29.5 -39l-32 -30l-29 29l34 31q14 12 17.5 23.5t3.5 37.5v34h42z" />
    <glyph glyph-name="lcaron" unicode="&#x13e;" horiz-adv-x="265" 
d="M265 697v-33q0 -35 -6.5 -53t-29.5 -39l-32 -30l-29 29l34 31q14 12 17.5 23.5t3.5 37.5v34h42zM187 34v-38h-16q-57 0 -72 28.5t-15 101.5v571h43v-564q0 -64 8.5 -81.5t44.5 -17.5h7z" />
    <glyph glyph-name="Ldot" unicode="&#x13f;" horiz-adv-x="509" 
d="M494 0h-396v667h44v-627h352v-40zM407 343q0 -33 -33 -33q-32 0 -32 33q0 31 32 31q33 0 33 -31z" />
    <glyph glyph-name="ldot" unicode="&#x140;" horiz-adv-x="276" 
d="M276 343q0 -33 -33 -33q-32 0 -32 33q0 31 32 31q33 0 33 -31zM187 34v-38h-16q-57 0 -72 28.5t-15 101.5v571h43v-564q0 -64 8.5 -81.5t44.5 -17.5h7z" />
    <glyph glyph-name="Lslash" unicode="&#x141;" horiz-adv-x="526" 
d="M511 0h-396v300l-65 -66l-27 27l92 94v312h43v-276l88 88l27 -27l-115 -116v-296h353v-40z" />
    <glyph glyph-name="lslash" unicode="&#x142;" horiz-adv-x="211" 
d="M187 34v-38h-9q-59 0 -76.5 25.5t-17.5 101.5v182l-68 -71l-27 26l95 100v337h43v-300l69 71l26 -26l-95 -100v-209q0 -64 8.5 -81.5t44.5 -17.5h7z" />
    <glyph glyph-name="Nacute" unicode="&#x143;" horiz-adv-x="651" 
d="M553 0h-56l-356 606v-606h-43v667h54l358 -605v605h43v-667zM417 860l-133 -129h-51l130 129h54z" />
    <glyph glyph-name="nacute" unicode="&#x144;" horiz-adv-x="536" 
d="M460 0h-43v247q0 60 -1 82.5t-8 47.5t-22 39q-30 29 -101 29q-33 0 -58.5 -7.5t-42 -17t-28 -29.5t-17.5 -34.5t-8.5 -42.5t-3 -43t-0.5 -46v-13v-212h-43v478h41v-72q43 80 161 80q93 0 134 -41q19 -19 28 -47t10.5 -51.5t1.5 -74.5v-17v-255zM363 667l-133 -129h-51
l130 129h54z" />
    <glyph glyph-name="Ncommaaccent" unicode="&#x145;" horiz-adv-x="651" 
d="M553 0h-56l-356 606v-606h-43v667h54l358 -605v605h43v-667zM347 -44v-33q0 -35 -6.5 -53t-29.5 -39l-32 -30l-29 29l34 31q14 12 17.5 23.5t3.5 37.5v34h42z" />
    <glyph glyph-name="ncommaaccent" unicode="&#x146;" horiz-adv-x="536" 
d="M460 0h-43v247q0 60 -1 82.5t-8 47.5t-22 39q-30 29 -101 29q-33 0 -58.5 -7.5t-42 -17t-28 -29.5t-17.5 -34.5t-8.5 -42.5t-3 -43t-0.5 -46v-13v-212h-43v478h41v-72q43 80 161 80q93 0 134 -41q19 -19 28 -47t10.5 -51.5t1.5 -74.5v-17v-255zM293 -44v-33
q0 -35 -6.5 -53t-29.5 -39l-32 -30l-29 29l34 31q14 12 17.5 23.5t3.5 37.5v34h42z" />
    <glyph glyph-name="Ncaron" unicode="&#x147;" horiz-adv-x="651" 
d="M553 0h-56l-356 606v-606h-43v667h54l358 -605v605h43v-667zM478 862l-133 -129h-41l-132 129h51l101 -100l102 100h52z" />
    <glyph glyph-name="ncaron" unicode="&#x148;" horiz-adv-x="536" 
d="M460 0h-43v247q0 60 -1 82.5t-8 47.5t-22 39q-30 29 -101 29q-33 0 -58.5 -7.5t-42 -17t-28 -29.5t-17.5 -34.5t-8.5 -42.5t-3 -43t-0.5 -46v-13v-212h-43v478h41v-72q43 80 161 80q93 0 134 -41q19 -19 28 -47t10.5 -51.5t1.5 -74.5v-17v-255zM425 667l-133 -129h-41
l-132 129h51l101 -100l102 100h52z" />
    <glyph glyph-name="Eng" unicode="&#x14a;" horiz-adv-x="651" 
d="M322 -191v39q29 -2 46 -2q142 0 142 124v30l-369 606v-606h-43v667h54l358 -584v584h43v-698q0 -84 -50.5 -123.5t-132.5 -39.5q-24 0 -48 3z" />
    <glyph glyph-name="eng" unicode="&#x14b;" horiz-adv-x="536" 
d="M460 0v-51q0 -143 -162 -143q-18 0 -38 3v38q20 -2 37 -2q64 0 98 34q22 22 22 81v40v247q0 60 -1 82.5t-8 47.5t-22 39q-30 29 -101 29q-33 0 -58.5 -7.5t-42 -17t-28 -29.5t-17.5 -34.5t-8.5 -42.5t-3 -43t-0.5 -46v-13v-212h-43v478h41v-72q43 80 161 80q93 0 134 -41
q19 -19 28 -47t10.5 -51.5t1.5 -74.5v-17v-255z" />
    <glyph glyph-name="Omacron" unicode="&#x14c;" horiz-adv-x="665" 
d="M582 334q0 -146 -10 -195q-21 -96 -106 -128q-52 -19 -134 -19q-73 0 -122 17.5t-74.5 39t-37.5 72t-14 85.5t-2 110v18q0 145 10 194q21 95 105 127q52 19 135 19q53 0 93 -9t66.5 -20t44 -38t27 -46.5t14 -61.5t5 -67.5t0.5 -79.5v-18zM538 333v20q0 69 -1.5 100.5
t-11.5 74.5t-31 60.5t-61 31t-101 13.5t-101 -13.5t-61 -31t-31 -60.5t-11.5 -74t-1.5 -101v-20v-20v-58t2 -50t5.5 -45.5t10.5 -37t17 -32.5t25.5 -23.5t36 -19t48 -9.5t61.5 -4t61.5 4t48 9.5t36 19t25.5 23.5t17 33t10.5 36.5t5.5 45.5t2 49.5v58.5v20zM492 807h-320v38
h320v-38z" />
    <glyph glyph-name="omacron" unicode="&#x14d;" horiz-adv-x="542" 
d="M476 239q0 -63 -5.5 -100.5t-25 -74.5t-62.5 -54t-112 -17q-56 0 -95 12.5t-60.5 32t-32.5 54t-14 66t-3 81.5t3 81.5t14 66.5t32.5 54t60.5 32t95 13t94.5 -13t60 -32t33 -54t14.5 -66.5t3 -81.5zM433 239q0 47 -2 74t-11 56t-26 43t-47.5 23.5t-75.5 9.5t-75.5 -9.5
t-47.5 -23.5t-26 -43t-11 -56t-2 -74t2 -73.5t11 -55.5t26 -43t47.5 -23.5t75.5 -9.5q56 0 89.5 12t49 42t19.5 61t4 90zM431 617h-320v38h320v-38z" />
    <glyph glyph-name="Obreve" unicode="&#x14e;" horiz-adv-x="665" 
d="M582 334q0 -146 -10 -195q-21 -96 -106 -128q-52 -19 -134 -19q-73 0 -122 17.5t-74.5 39t-37.5 72t-14 85.5t-2 110v18q0 145 10 194q21 95 105 127q52 19 135 19q53 0 93 -9t66.5 -20t44 -38t27 -46.5t14 -61.5t5 -67.5t0.5 -79.5v-18zM538 333v20q0 69 -1.5 100.5
t-11.5 74.5t-31 60.5t-61 31t-101 13.5t-101 -13.5t-61 -31t-31 -60.5t-11.5 -74t-1.5 -101v-20v-20v-58t2 -50t5.5 -45.5t10.5 -37t17 -32.5t25.5 -23.5t36 -19t48 -9.5t61.5 -4t61.5 4t48 9.5t36 19t25.5 23.5t17 33t10.5 36.5t5.5 45.5t2 49.5v58.5v20zM429 867h40
q0 -73 -31 -103q-29 -28 -106 -28q-73 0 -106 28q-31 27 -31 103h41q0 -60 19 -76q20 -17 77 -17t77 17t20 76z" />
    <glyph glyph-name="obreve" unicode="&#x14f;" horiz-adv-x="542" 
d="M476 239q0 -63 -5.5 -100.5t-25 -74.5t-62.5 -54t-112 -17q-56 0 -95 12.5t-60.5 32t-32.5 54t-14 66t-3 81.5t3 81.5t14 66.5t32.5 54t60.5 32t95 13t94.5 -13t60 -32t33 -54t14.5 -66.5t3 -81.5zM433 239q0 47 -2 74t-11 56t-26 43t-47.5 23.5t-75.5 9.5t-75.5 -9.5
t-47.5 -23.5t-26 -43t-11 -56t-2 -74t2 -73.5t11 -55.5t26 -43t47.5 -23.5t75.5 -9.5q56 0 89.5 12t49 42t19.5 61t4 90zM368 667h40q0 -73 -31 -103q-29 -28 -106 -28q-73 0 -106 28q-31 27 -31 103h41q0 -60 19 -76q20 -17 77 -17t77 17t20 76z" />
    <glyph glyph-name="Ohungarumlaut" unicode="&#x150;" horiz-adv-x="665" 
d="M582 334q0 -146 -10 -195q-21 -96 -106 -128q-52 -19 -134 -19q-73 0 -122 17.5t-74.5 39t-37.5 72t-14 85.5t-2 110v18q0 145 10 194q21 95 105 127q52 19 135 19q53 0 93 -9t66.5 -20t44 -38t27 -46.5t14 -61.5t5 -67.5t0.5 -79.5v-18zM538 333v20q0 69 -1.5 100.5
t-11.5 74.5t-31 60.5t-61 31t-101 13.5t-101 -13.5t-61 -31t-31 -60.5t-11.5 -74t-1.5 -101v-20v-20v-58t2 -50t5.5 -45.5t10.5 -37t17 -32.5t25.5 -23.5t36 -19t48 -9.5t61.5 -4t61.5 4t48 9.5t36 19t25.5 23.5t17 33t10.5 36.5t5.5 45.5t2 49.5v58.5v20zM543 862
l-126 -126h-53l127 126h52zM374 862l-126 -126h-53l127 126h52z" />
    <glyph glyph-name="ohungarumlaut" unicode="&#x151;" horiz-adv-x="542" 
d="M476 239q0 -63 -5.5 -100.5t-25 -74.5t-62.5 -54t-112 -17q-56 0 -95 12.5t-60.5 32t-32.5 54t-14 66t-3 81.5t3 81.5t14 66.5t32.5 54t60.5 32t95 13t94.5 -13t60 -32t33 -54t14.5 -66.5t3 -81.5zM433 239q0 47 -2 74t-11 56t-26 43t-47.5 23.5t-75.5 9.5t-75.5 -9.5
t-47.5 -23.5t-26 -43t-11 -56t-2 -74t2 -73.5t11 -55.5t26 -43t47.5 -23.5t75.5 -9.5q56 0 89.5 12t49 42t19.5 61t4 90zM482 667l-128 -126h-53l129 126h52zM314 667l-128 -126h-53l129 126h52z" />
    <glyph glyph-name="OE" unicode="&#x152;" horiz-adv-x="916" 
d="M832 0h-496q-91 0 -139.5 18t-76.5 64q-22 36 -30 88.5t-8 163.5q0 110 8 163t30 88q28 46 76.5 64t139.5 18h496v-40h-326v-264h316v-40h-316v-283h326v-40zM463 40v587h-122q-81 0 -120.5 -13t-60.5 -45q-19 -29 -26.5 -78.5t-7.5 -156.5t8 -157t27 -79q21 -32 60 -45
t121 -13h121z" />
    <glyph glyph-name="oe" unicode="&#x153;" horiz-adv-x="895" 
d="M829 235h-355q0 -57 4 -88.5t19.5 -60.5t48.5 -41t88 -12q147 0 147 98h40q0 -138 -188 -138q-152 0 -180 97q-15 -52 -67 -74.5t-115 -22.5q-66 0 -107.5 15t-62.5 49t-28 75t-7 107q0 50 3 81.5t14.5 66.5t33 54t60 32t94.5 13q151 0 182 -97q29 97 177 97
q53 0 90 -11.5t58.5 -30.5t32.5 -53t14.5 -68.5t3.5 -87.5zM474 274h313q0 93 -33 132.5t-124 39.5q-89 0 -122.5 -40t-33.5 -132zM433 239q0 47 -2 74t-11 56t-26.5 43.5t-47.5 23.5t-75 9t-75.5 -9.5t-47.5 -23.5t-26 -43t-11 -56t-2 -74t2 -74t11 -56t26 -43t47.5 -23.5
t75.5 -9.5t75 9.5t47.5 24t26 43t11 56t2.5 73.5z" />
    <glyph glyph-name="Racute" unicode="&#x154;" horiz-adv-x="644" 
d="M404 860l-133 -129h-51l130 129h54zM142 358h189q36 0 55 1t43.5 4.5t37 12t25 23t17 37t4.5 54.5q0 23 -3 41.5t-7 32t-14.5 24t-17 17.5t-23 11.5t-25 7t-30.5 3.5t-32 1h-36h-16h-167v-270zM530 0l-152 232q-41 63 -57 74t-68 11h-111v-317h-44v667h215q112 0 149 -11
q74 -21 89 -108q5 -27 5 -61q0 -88 -40.5 -128.5t-140.5 -41.5l209 -317h-54z" />
    <glyph glyph-name="racute" unicode="&#x155;" horiz-adv-x="433" 
d="M421 349h-40q0 54 -28 75t-84 21q-26 0 -47 -4.5t-35.5 -16t-25 -22t-17 -30.5t-10.5 -33t-5.5 -39t-1.5 -38v-39v-6v-5v-5v-207h-43v478h41v-70q42 78 148 78q148 0 148 -137zM343 667l-133 -129h-51l130 129h54z" />
    <glyph glyph-name="Rcommaaccent" unicode="&#x156;" horiz-adv-x="644" 
d="M338 -44v-33q0 -35 -6.5 -53t-29.5 -39l-32 -30l-29 29l34 31q14 12 17.5 23.5t3.5 37.5v34h42zM142 358h189q36 0 55 1t43.5 4.5t37 12t25 23t17 37t4.5 54.5q0 23 -3 41.5t-7 32t-14.5 24t-17 17.5t-23 11.5t-25 7t-30.5 3.5t-32 1h-36h-16h-167v-270zM530 0l-152 232
q-41 63 -57 74t-68 11h-111v-317h-44v667h215q112 0 149 -11q74 -21 89 -108q5 -27 5 -61q0 -88 -40.5 -128.5t-140.5 -41.5l209 -317h-54z" />
    <glyph glyph-name="rcommaaccent" unicode="&#x157;" horiz-adv-x="433" 
d="M421 349h-40q0 54 -28 75t-84 21q-26 0 -47 -4.5t-35.5 -16t-25 -22t-17 -30.5t-10.5 -33t-5.5 -39t-1.5 -38v-39v-6v-5v-5v-207h-43v478h41v-70q42 78 148 78q148 0 148 -137zM126 -44v-33q0 -35 -6.5 -53t-29.5 -39l-32 -30l-29 29l34 31q14 12 17.5 23.5t3.5 37.5v34
h42z" />
    <glyph glyph-name="Rcaron" unicode="&#x158;" horiz-adv-x="644" 
d="M455 862l-133 -129h-41l-132 129h51l101 -100l102 100h52zM142 358h189q36 0 55 1t43.5 4.5t37 12t25 23t17 37t4.5 54.5q0 23 -3 41.5t-7 32t-14.5 24t-17 17.5t-23 11.5t-25 7t-30.5 3.5t-32 1h-36h-16h-167v-270zM530 0l-152 232q-41 63 -57 74t-68 11h-111v-317h-44
v667h215q112 0 149 -11q74 -21 89 -108q5 -27 5 -61q0 -88 -40.5 -128.5t-140.5 -41.5l209 -317h-54z" />
    <glyph glyph-name="rcaron" unicode="&#x159;" horiz-adv-x="433" 
d="M421 349h-40q0 54 -28 75t-84 21q-26 0 -47 -4.5t-35.5 -16t-25 -22t-17 -30.5t-10.5 -33t-5.5 -39t-1.5 -38v-39v-6v-5v-5v-207h-43v478h41v-70q42 78 148 78q148 0 148 -137zM406 667l-133 -129h-41l-132 129h51l101 -100l102 100h52z" />
    <glyph glyph-name="Sacute" unicode="&#x15a;" horiz-adv-x="636" 
d="M414 860l-133 -129h-51l130 129h54zM560 497h-41q0 38 -12 64t-28.5 40t-46.5 21.5t-54 9t-63 1.5q-51 0 -81 -4t-60 -17.5t-43.5 -43.5t-13.5 -79q0 -20 3.5 -36.5t7 -28.5t13.5 -22l16 -16t21.5 -10.5t23 -7t27.5 -4t27.5 -1.5t32 -0.5t31.5 -0.5q29 0 40 -0.5t37 -1.5
t36 -3.5t31 -6.5t30 -10.5t23.5 -15.5t21 -21.5t14 -28t10.5 -36.5t3 -46q0 -114 -63 -157t-184 -43q-45 0 -77.5 3.5t-66 14t-54.5 29.5t-34 52t-13 79h42q0 -38 12 -64t28.5 -40t46.5 -21.5t54 -9t64 -1.5q101 0 151 31t50 124q0 38 -9 63.5t-23.5 39t-39 20t-48.5 8
t-60 1.5h-23h-13q-113 2 -154 18q-78 32 -78 149q0 59 17 97.5t52 57t74.5 25t99.5 6.5q57 0 95.5 -6t75 -23.5t54.5 -54.5t18 -93z" />
    <glyph glyph-name="sacute" unicode="&#x15b;" horiz-adv-x="501" 
d="M440 349h-41q0 52 -29.5 74.5t-106.5 22.5q-83 0 -117.5 -20.5t-35.5 -69.5q-1 -52 18 -67.5t76 -21.5q23 -2 62 -4t58.5 -4t46 -9t39 -19.5t22 -36.5t9.5 -59q0 -77 -47.5 -110t-148.5 -32t-143 31t-42 107h40q0 -56 30.5 -77t113.5 -21t118.5 22.5t35.5 77.5
q0 47 -19 64t-79 22q-22 2 -62 4t-58.5 3.5t-44.5 8.5t-38 19.5t-21 36t-9 57.5q0 77 46 108t149 30q107 0 147 -41q31 -33 31 -96zM342 667l-133 -129h-51l130 129h54z" />
    <glyph glyph-name="Scircumflex" unicode="&#x15c;" horiz-adv-x="636" 
d="M475 731h-51l-101 100l-102 -100h-52l133 129h41zM560 497h-41q0 38 -12 64t-28.5 40t-46.5 21.5t-54 9t-63 1.5q-51 0 -81 -4t-60 -17.5t-43.5 -43.5t-13.5 -79q0 -20 3.5 -36.5t7 -28.5t13.5 -22l16 -16t21.5 -10.5t23 -7t27.5 -4t27.5 -1.5t32 -0.5t31.5 -0.5
q29 0 40 -0.5t37 -1.5t36 -3.5t31 -6.5t30 -10.5t23.5 -15.5t21 -21.5t14 -28t10.5 -36.5t3 -46q0 -114 -63 -157t-184 -43q-45 0 -77.5 3.5t-66 14t-54.5 29.5t-34 52t-13 79h42q0 -38 12 -64t28.5 -40t46.5 -21.5t54 -9t64 -1.5q101 0 151 31t50 124q0 38 -9 63.5
t-23.5 39t-39 20t-48.5 8t-60 1.5h-23h-13q-113 2 -154 18q-78 32 -78 149q0 59 17 97.5t52 57t74.5 25t99.5 6.5q57 0 95.5 -6t75 -23.5t54.5 -54.5t18 -93z" />
    <glyph glyph-name="scircumflex" unicode="&#x15d;" horiz-adv-x="501" 
d="M440 349h-41q0 52 -29.5 74.5t-106.5 22.5q-83 0 -117.5 -20.5t-35.5 -69.5q-1 -52 18 -67.5t76 -21.5q23 -2 62 -4t58.5 -4t46 -9t39 -19.5t22 -36.5t9.5 -59q0 -77 -47.5 -110t-148.5 -32t-143 31t-42 107h40q0 -56 30.5 -77t113.5 -21t118.5 22.5t35.5 77.5
q0 47 -19 64t-79 22q-22 2 -62 4t-58.5 3.5t-44.5 8.5t-38 19.5t-21 36t-9 57.5q0 77 46 108t149 30q107 0 147 -41q31 -33 31 -96zM408 538h-51l-101 100l-102 -100h-52l133 129h41z" />
    <glyph glyph-name="Scedilla" unicode="&#x15e;" horiz-adv-x="636" 
d="M560 497h-41q0 38 -12 64t-28.5 40t-46.5 21.5t-54 9t-63 1.5q-51 0 -81 -4t-60 -17.5t-43.5 -43.5t-13.5 -79q0 -20 3.5 -36.5t7 -28.5t13.5 -22l16 -16t21.5 -10.5t23 -7t27.5 -4t27.5 -1.5t32 -0.5t31.5 -0.5q29 0 40 -0.5t37 -1.5t36 -3.5t31 -6.5t30 -10.5
t23.5 -15.5t21 -21.5t14 -28t10.5 -36.5t3 -46q0 -110 -59.5 -154t-171.5 -46v-39q65 0 65 -67q0 -38 -17.5 -55.5t-58.5 -17.5t-58.5 14t-17.5 47h33q0 -19 9.5 -25.5t33.5 -6.5q25 0 33 9t8 33q0 7 -1 13t-3.5 10.5t-4 7.5t-6.5 5t-7 3t-9.5 1.5t-10 1t-11.5 0.5h-12v66
q-52 1 -89 8t-70 25t-50 54t-17 91h42q0 -38 12 -64t28.5 -40t46.5 -21.5t54 -9t64 -1.5q101 0 151 31t50 124q0 38 -9 63.5t-23.5 39t-39 20t-48.5 8t-60 1.5h-23h-13q-113 2 -154 18q-78 32 -78 149q0 59 17 97.5t52 57t74.5 25t99.5 6.5q57 0 95.5 -6t75 -23.5
t54.5 -54.5t18 -93z" />
    <glyph glyph-name="scedilla" unicode="&#x15f;" horiz-adv-x="501" 
d="M262 -7v-40q65 0 65 -67q0 -38 -17.5 -55.5t-58.5 -17.5t-58.5 14t-17.5 47h33q0 -19 9.5 -25.5t33.5 -6.5q26 0 33.5 10t7.5 33q0 9 -1.5 16t-6 11.5t-7.5 7t-11.5 4t-11.5 2t-14 0.5h-13v67q-90 3 -128.5 34t-38.5 104h40q0 -56 30.5 -77t113.5 -21t118.5 22.5
t35.5 77.5q0 47 -19 64t-79 22q-22 2 -62 4t-58.5 3.5t-44.5 8.5t-38 19.5t-21 36t-9 57.5q0 77 46 108t149 30q107 0 147 -41q31 -33 31 -96h-41q0 52 -29.5 74.5t-106.5 22.5q-83 0 -117.5 -20.5t-35.5 -69.5q-1 -52 18 -67.5t76 -21.5q23 -2 62 -4t58.5 -4t46 -9
t39 -19.5t22 -36.5t9.5 -59q0 -74 -43.5 -107t-135.5 -35z" />
    <glyph glyph-name="Scaron" unicode="&#x160;" horiz-adv-x="636" 
d="M475 862l-133 -129h-41l-132 129h51l101 -100l102 100h52zM560 497h-41q0 38 -12 64t-28.5 40t-46.5 21.5t-54 9t-63 1.5q-51 0 -81 -4t-60 -17.5t-43.5 -43.5t-13.5 -79q0 -20 3.5 -36.5t7 -28.5t13.5 -22l16 -16t21.5 -10.5t23 -7t27.5 -4t27.5 -1.5t32 -0.5t31.5 -0.5
q29 0 40 -0.5t37 -1.5t36 -3.5t31 -6.5t30 -10.5t23.5 -15.5t21 -21.5t14 -28t10.5 -36.5t3 -46q0 -114 -63 -157t-184 -43q-45 0 -77.5 3.5t-66 14t-54.5 29.5t-34 52t-13 79h42q0 -38 12 -64t28.5 -40t46.5 -21.5t54 -9t64 -1.5q101 0 151 31t50 124q0 38 -9 63.5
t-23.5 39t-39 20t-48.5 8t-60 1.5h-23h-13q-113 2 -154 18q-78 32 -78 149q0 59 17 97.5t52 57t74.5 25t99.5 6.5q57 0 95.5 -6t75 -23.5t54.5 -54.5t18 -93z" />
    <glyph glyph-name="scaron" unicode="&#x161;" horiz-adv-x="501" 
d="M440 349h-41q0 52 -29.5 74.5t-106.5 22.5q-83 0 -117.5 -20.5t-35.5 -69.5q-1 -52 18 -67.5t76 -21.5q23 -2 62 -4t58.5 -4t46 -9t39 -19.5t22 -36.5t9.5 -59q0 -77 -47.5 -110t-148.5 -32t-143 31t-42 107h40q0 -56 30.5 -77t113.5 -21t118.5 22.5t35.5 77.5
q0 47 -19 64t-79 22q-22 2 -62 4t-58.5 3.5t-44.5 8.5t-38 19.5t-21 36t-9 57.5q0 77 46 108t149 30q107 0 147 -41q31 -33 31 -96zM409 667l-133 -129h-41l-132 129h51l101 -100l102 100h52z" />
    <glyph glyph-name="Tcommaaccent" unicode="&#x162;" horiz-adv-x="536" 
d="M506 627h-216v-627h-44v627h-216v40h476v-40zM289 -44v-33q0 -35 -6.5 -53t-29.5 -39l-32 -30l-29 29l34 31q14 12 17.5 23.5t3.5 37.5v34h42z" />
    <glyph glyph-name="tcommaaccent" unicode="&#x163;" horiz-adv-x="284" 
d="M211 -44v-33q0 -35 -6.5 -53t-29.5 -39l-32 -30l-29 29l34 31q14 12 17.5 23.5t3.5 37.5v34h42zM274 36v-40h-9q-82 0 -119.5 32t-37.5 105v306h-80v39h80v189h43v-189h123v-39h-123v-306q0 -57 27.5 -77t88.5 -20h7z" />
    <glyph glyph-name="Tcaron" unicode="&#x164;" horiz-adv-x="536" 
d="M506 627h-216v-627h-44v627h-216v40h476v-40zM421 862l-133 -129h-41l-132 129h51l101 -100l102 100h52z" />
    <glyph glyph-name="tcaron" unicode="&#x165;" horiz-adv-x="373" 
d="M379 697v-33q0 -35 -6.5 -53t-29.5 -39l-32 -30l-29 29l34 31q14 12 17.5 23.5t3.5 37.5v34h42zM274 36v-40h-9q-82 0 -119.5 32t-37.5 105v306h-80v39h80v189h43v-189h123v-39h-123v-306q0 -57 27.5 -77t88.5 -20h7z" />
    <glyph glyph-name="Tbar" unicode="&#x166;" horiz-adv-x="536" 
d="M412 323h-122v-323h-44v323h-122v40h122v264h-216v40h476v-40h-216v-264h122v-40z" />
    <glyph glyph-name="tbar" unicode="&#x167;" horiz-adv-x="284" 
d="M28 235v39h80v165h-80v39h80v189h43v-189h123v-39h-123v-165h123v-39h-123v-102q0 -57 27.5 -77t88.5 -20h7v-40h-9q-82 0 -119.5 32t-37.5 105v102h-80z" />
    <glyph glyph-name="Utilde" unicode="&#x168;" horiz-adv-x="649" 
d="M557 667v-331v-64q0 -144 -31 -193q-55 -87 -202 -87q-174 0 -217 112q-16 40 -16 159q0 15 0.5 40t0.5 33v331h44v-331q0 -18 -0.5 -47.5t-0.5 -40.5q0 -110 19 -144q39 -70 170 -70q128 0 167 70q11 20 16 54.5t5.5 64t0.5 113.5v331h44zM510 826l-53 -29
q-33 -18 -67 -18q-29 0 -55 14q-6 3 -18.5 10t-19.5 10.5t-17.5 6.5t-19.5 3q-17 0 -36 -10l-65 -36l-20 31q6 4 23 14t26 15t23.5 11.5t27.5 9.5t26 3q28 0 55 -15q51 -30 74 -30q17 0 37 10l61 32z" />
    <glyph glyph-name="utilde" unicode="&#x169;" horiz-adv-x="536" 
d="M452 0h-41v72q-44 -80 -161 -80q-93 0 -134 41q-19 19 -28 47t-10.5 51.5t-1.5 74.5v17v255h43v-247q0 -60 1 -82.5t8 -47.5t22 -39q30 -29 101 -29q33 0 58.5 7.5t42 17t28 29.5t17.5 34.5t8.5 42.5t3 43t0.5 46v13v212h43v-478zM453 635l-53 -29q-32 -18 -67 -18
q-29 0 -55 14q-4 2 -17.5 10t-19.5 11t-16.5 6.5t-20.5 3.5q-18 0 -37 -11l-65 -36l-20 31q6 4 23 14t26 15t23.5 11.5t27.5 9.5t26 3q29 0 55 -15q2 -1 14 -8t16 -9t13.5 -6t16.5 -5.5t15 -1.5q17 0 36 10l61 32z" />
    <glyph glyph-name="Umacron" unicode="&#x16a;" horiz-adv-x="649" 
d="M557 667v-331v-64q0 -144 -31 -193q-55 -87 -202 -87q-174 0 -217 112q-16 40 -16 159q0 15 0.5 40t0.5 33v331h44v-331q0 -18 -0.5 -47.5t-0.5 -40.5q0 -110 19 -144q39 -70 170 -70q128 0 167 70q11 20 16 54.5t5.5 64t0.5 113.5v331h44zM484 807h-320v38h320v-38z" />
    <glyph glyph-name="umacron" unicode="&#x16b;" horiz-adv-x="536" 
d="M452 0h-41v72q-44 -80 -161 -80q-93 0 -134 41q-19 19 -28 47t-10.5 51.5t-1.5 74.5v17v255h43v-247q0 -60 1 -82.5t8 -47.5t22 -39q30 -29 101 -29q33 0 58.5 7.5t42 17t28 29.5t17.5 34.5t8.5 42.5t3 43t0.5 46v13v212h43v-478zM428 617h-320v38h320v-38z" />
    <glyph glyph-name="Ubreve" unicode="&#x16c;" horiz-adv-x="649" 
d="M557 667v-331v-64q0 -144 -31 -193q-55 -87 -202 -87q-174 0 -217 112q-16 40 -16 159q0 15 0.5 40t0.5 33v331h44v-331q0 -18 -0.5 -47.5t-0.5 -40.5q0 -110 19 -144q39 -70 170 -70q128 0 167 70q11 20 16 54.5t5.5 64t0.5 113.5v331h44zM421 867h40q0 -73 -31 -103
q-29 -28 -106 -28q-73 0 -106 28q-31 27 -31 103h41q0 -60 19 -76q20 -17 77 -17t77 17t20 76z" />
    <glyph glyph-name="ubreve" unicode="&#x16d;" horiz-adv-x="536" 
d="M452 0h-41v72q-44 -80 -161 -80q-93 0 -134 41q-19 19 -28 47t-10.5 51.5t-1.5 74.5v17v255h43v-247q0 -60 1 -82.5t8 -47.5t22 -39q30 -29 101 -29q33 0 58.5 7.5t42 17t28 29.5t17.5 34.5t8.5 42.5t3 43t0.5 46v13v212h43v-478zM365 667h40q0 -73 -31 -103
q-29 -28 -106 -28q-73 0 -106 28q-31 27 -31 103h41q0 -60 19 -76q20 -17 77 -17t77 17t20 76z" />
    <glyph glyph-name="Uring" unicode="&#x16e;" horiz-adv-x="649" 
d="M557 667v-331v-64q0 -144 -31 -193q-55 -87 -202 -87q-174 0 -217 112q-16 40 -16 159q0 15 0.5 40t0.5 33v331h44v-331q0 -18 -0.5 -47.5t-0.5 -40.5q0 -110 19 -144q39 -70 170 -70q128 0 167 70q11 20 16 54.5t5.5 64t0.5 113.5v331h44zM325 685q-62 0 -87.5 25
t-25.5 86q0 63 24 86.5t87 23.5q62 0 87.5 -25t25.5 -86q0 -63 -24 -86.5t-87 -23.5zM325 719q46 0 59.5 15.5t13.5 61.5q0 44 -15 60t-60 16q-46 0 -59.5 -15.5t-13.5 -61.5q0 -44 15 -60t60 -16z" />
    <glyph glyph-name="uring" unicode="&#x16f;" horiz-adv-x="536" 
d="M452 0h-41v72q-44 -80 -161 -80q-93 0 -134 41q-19 19 -28 47t-10.5 51.5t-1.5 74.5v17v255h43v-247q0 -60 1 -82.5t8 -47.5t22 -39q30 -29 101 -29q33 0 58.5 7.5t42 17t28 29.5t17.5 34.5t8.5 42.5t3 43t0.5 46v13v212h43v-478zM371 625q0 -65 -24 -89q-23 -23 -82 -23
q-60 0 -83 23q-24 24 -24 89q0 60 24 84t83 24q58 0 82 -24t24 -84zM336 624q0 48 -13 61q-13 15 -58 15t-59 -15q-13 -13 -13 -61q0 -49 13 -63q14 -16 59 -16q44 0 58 16q13 14 13 63z" />
    <glyph glyph-name="Uhungarumlaut" unicode="&#x170;" horiz-adv-x="649" 
d="M557 667v-331v-64q0 -144 -31 -193q-55 -87 -202 -87q-174 0 -217 112q-16 40 -16 159q0 15 0.5 40t0.5 33v331h44v-331q0 -18 -0.5 -47.5t-0.5 -40.5q0 -110 19 -144q39 -70 170 -70q128 0 167 70q11 20 16 54.5t5.5 64t0.5 113.5v331h44zM540 862l-126 -126h-53
l127 126h52zM371 862l-126 -126h-53l127 126h52z" />
    <glyph glyph-name="uhungarumlaut" unicode="&#x171;" horiz-adv-x="536" 
d="M452 0h-41v72q-44 -80 -161 -80q-93 0 -134 41q-19 19 -28 47t-10.5 51.5t-1.5 74.5v17v255h43v-247q0 -60 1 -82.5t8 -47.5t22 -39q30 -29 101 -29q33 0 58.5 7.5t42 17t28 29.5t17.5 34.5t8.5 42.5t3 43t0.5 46v13v212h43v-478zM475 667l-128 -126h-53l129 126h52z
M307 667l-128 -126h-53l129 126h52z" />
    <glyph glyph-name="Uogonek" unicode="&#x172;" horiz-adv-x="649" 
d="M436 -161v-31q-19 -3 -38 -3q-103 0 -103 90q0 69 54 98q-6 -1 -25 -1q-174 0 -217 112q-16 40 -16 159q0 15 0.5 40t0.5 33v331h44v-331q0 -18 -0.5 -47.5t-0.5 -40.5q0 -110 19 -144q39 -70 170 -70q128 0 167 70q11 20 16 54.5t5.5 64t0.5 113.5v331h44v-331v-64
q0 -142 -31 -193q-19 -32 -54.5 -54t-64.5 -32.5t-51.5 -34.5t-22.5 -61q0 -60 73 -60q10 0 30 2z" />
    <glyph glyph-name="uogonek" unicode="&#x173;" horiz-adv-x="536" 
d="M452 478v-478q-93 -33 -93 -103q0 -61 75 -61q10 0 30 2v-30q-20 -3 -38 -3q-103 0 -103 90q0 82 88 119v58q-44 -80 -161 -80q-93 0 -134 41q-19 19 -28 47t-10.5 51.5t-1.5 74.5v17v255h43v-247q0 -60 1 -82.5t8 -47.5t22 -39q30 -29 101 -29q33 0 58.5 7.5t42 17
t28 29.5t17.5 34.5t8.5 42.5t3 43t0.5 46v13v212h43z" />
    <glyph glyph-name="Wcircumflex" unicode="&#x174;" horiz-adv-x="872" 
d="M822 667l-166 -667h-53l-167 609l-168 -609h-54l-164 667h45l148 -605l167 605h53l167 -605l149 605h43zM591 731h-51l-101 100l-102 -100h-52l133 129h41z" />
    <glyph glyph-name="wcircumflex" unicode="&#x175;" horiz-adv-x="693" 
d="M664 478l-142 -478h-50l-125 425l-126 -425h-50l-142 478h45l123 -423l126 423h48l127 -423l122 423h44zM499 538h-51l-101 100l-102 -100h-52l133 129h41z" />
    <glyph glyph-name="Ycircumflex" unicode="&#x176;" horiz-adv-x="521" 
d="M510 667l-229 -373v-294h-43v294l-227 373h49l202 -331l200 331h48zM415 731h-51l-101 100l-102 -100h-52l133 129h41z" />
    <glyph glyph-name="ycircumflex" unicode="&#x177;" horiz-adv-x="536" 
d="M416 538h-51l-101 100l-102 -100h-52l133 129h41zM80 -56h41q0 -50 31.5 -74t100.5 -24q107 0 139 66q9 18 13 42.5t4.5 46t0.5 67.5q-45 -76 -160 -76q-93 0 -134 41q-19 19 -28 47t-10.5 51.5t-1.5 74.5v17v255h43v-247q0 -60 1 -82.5t8 -47.5t22 -39q30 -29 101 -29
q33 0 58.5 7.5t42 17t28 29.5t17.5 34.5t8.5 42.5t3 43t0.5 46v13v212h43v-435q0 -102 -21 -148q-42 -89 -175 -89q-176 0 -176 138z" />
    <glyph glyph-name="Ydieresis" unicode="&#x178;" horiz-adv-x="521" 
d="M510 667l-229 -373v-294h-43v294l-227 373h49l202 -331l200 331h48zM400 825q0 -33 -33 -33q-32 0 -32 33q0 31 32 31q33 0 33 -31zM186 825q0 -33 -33 -33q-32 0 -32 33q0 31 32 31q33 0 33 -31z" />
    <glyph glyph-name="Zacute" unicode="&#x179;" horiz-adv-x="598" 
d="M527 0h-456v41l406 586h-406v40h456v-41l-407 -586h407v-40zM391 860l-133 -129h-51l130 129h54z" />
    <glyph glyph-name="zacute" unicode="&#x17a;" horiz-adv-x="474" 
d="M420 0h-366v38l312 401h-312v39h366v-36l-311 -401h311v-41zM329 667l-133 -129h-51l130 129h54z" />
    <glyph glyph-name="Zdotaccent" unicode="&#x17b;" horiz-adv-x="598" 
d="M527 0h-456v41l406 586h-406v40h456v-41l-407 -586h407v-40zM332 828q0 -33 -33 -33q-32 0 -32 33q0 31 32 31q33 0 33 -31z" />
    <glyph glyph-name="zdotaccent" unicode="&#x17c;" horiz-adv-x="474" 
d="M420 0h-366v38l312 401h-312v39h366v-36l-311 -401h311v-41zM270 636q0 -33 -33 -33q-32 0 -32 33q0 31 32 31q33 0 33 -31z" />
    <glyph glyph-name="Zcaron" unicode="&#x17d;" horiz-adv-x="598" 
d="M527 0h-456v41l406 586h-406v40h456v-41l-407 -586h407v-40zM452 862l-133 -129h-41l-132 129h51l101 -100l102 100h52z" />
    <glyph glyph-name="zcaron" unicode="&#x17e;" horiz-adv-x="474" 
d="M420 0h-366v38l312 401h-312v39h366v-36l-311 -401h311v-41zM393 667l-133 -129h-41l-132 129h51l101 -100l102 100h52z" />
    <glyph glyph-name="uni018F" unicode="&#x18f;" horiz-adv-x="665" 
d="M134 510l-44 8q10 52 33.5 84.5t75 52t133.5 19.5q53 0 93 -9t66.5 -20t44 -38t27 -46.5t14 -61.5t5 -67.5t0.5 -79.5v-18q0 -146 -10 -195q-21 -96 -106 -128q-52 -19 -134 -19q-73 0 -122 17.5t-74.5 39t-37.5 72t-14 85.5t-2 110v18v29h44h412q0 46 -1 70.5t-4.5 58.5
t-11.5 51t-23 37.5t-37 30t-54 16t-75 6.5q-97 0 -141 -30t-57 -93zM538 323h-412v-10q0 -85 3.5 -122.5t22 -81.5t62 -59.5t118.5 -15.5t118.5 15.5t62 59.5t22 81.5t3.5 122.5v10z" />
    <glyph glyph-name="florin" unicode="&#x192;" horiz-adv-x="562" 
d="M513 533h-42q0 32 -10 53.5t-31 31t-43 13t-54 3.5q-99 0 -136 -40q-25 -26 -25 -99v-31v-110h295v-39h-295v-506h-43v506h-56v39h56v107v29q0 98 38 135q51 49 156 49q33 0 55.5 -2t50.5 -9.5t44.5 -22t28 -42t11.5 -65.5z" />
    <glyph glyph-name="uni01DD" unicode="&#x1dd;" horiz-adv-x="530" 
d="M66 244h355q0 45 -2.5 72t-11 55t-25.5 42t-47 23t-74 9q-147 0 -147 -97h-40q0 138 188 138q66 0 106.5 -14.5t61.5 -48.5t27.5 -74.5t6.5 -107.5q0 -66 -6.5 -106.5t-26.5 -75.5t-60.5 -50.5t-105.5 -15.5q-53 0 -89.5 11.5t-58 30.5t-33 53t-15 68.5t-3.5 87.5z
M421 205h-313q0 -93 33 -132.5t124 -39.5q89 0 122.5 40t33.5 132z" />
    <glyph glyph-name="Aringacute" unicode="&#x1fa;" horiz-adv-x="607" 
d="M582 0h-47l-78 204h-308l-77 -204h-45l237 622q-39 7 -55.5 32.5t-16.5 75.5q0 63 24 86.5t87 23.5q62 0 87.5 -25t25.5 -86q0 -53 -16 -77t-56 -31zM442 242l-138 373l-140 -373h278zM305 653q46 0 59.5 15.5t13.5 61.5q0 44 -15 60t-60 16q-46 0 -59.5 -15.5
t-13.5 -61.5q0 -44 15 -60t60 -16zM395 1021l-133 -129h-51l130 129h54z" />
    <glyph glyph-name="aringacute" unicode="&#x1fb;" horiz-adv-x="531" 
d="M455 0h-40v75q-40 -82 -178 -82q-93 0 -136 33.5t-43 108.5q0 88 45 118t139 30h170q-1 81 -6 100q-13 46 -76 57q-28 5 -67 5q-44 0 -73 -5t-54 -28t-25 -65h-40q0 109 115 132q-29 15 -29 79q0 60 25.5 83.5t85.5 23.5q61 0 87 -23.5t26 -83.5q0 -63 -30 -79
q35 -8 57 -22.5t31.5 -38t12.5 -45t3 -55.5v-40v-278zM343 556q0 45 -15 61.5t-60 16.5t-59.5 -16t-14.5 -62q0 -45 15 -59t60 -14t59.5 14.5t14.5 58.5zM412 244h-174q-71 0 -104 -21t-33 -87q0 -56 30 -80t103 -24q56 0 92 12t54.5 38.5t25 58t6.5 79.5v24zM357 846
l-133 -129h-51l130 129h54z" />
    <glyph glyph-name="AEacute" unicode="&#x1fc;" horiz-adv-x="901" 
d="M817 0h-365v206h-266l-135 -206h-49l440 667h375v-40h-322v-264h312v-40h-312v-283h322v-40zM452 245v368l-241 -368h241zM621 860l-133 -129h-51l130 129h54z" />
    <glyph glyph-name="aeacute" unicode="&#x1fd;" horiz-adv-x="877" 
d="M811 241h-355q0 -47 2 -74t11 -56t26 -43.5t47 -24t75 -9.5q147 0 147 97h40q0 -138 -188 -138q-158 0 -183 103q-18 -55 -73 -79t-122 -24q-94 0 -137 32t-43 107q0 87 46 118t139 31h171q0 33 -0.5 45t-2.5 35.5t-7.5 31.5t-16 21.5t-27 18t-40.5 8.5t-57 4
q-44 0 -73 -5t-54 -28t-25 -65h-40q0 42 16.5 71t46.5 43t62.5 19.5t74.5 5.5q144 0 171 -81q37 81 171 81q115 0 156.5 -50.5t41.5 -170.5v-24zM457 281h312q0 93 -32.5 129t-123.5 36q-89 0 -122.5 -37.5t-33.5 -127.5zM414 242h-175q-70 0 -104 -22t-34 -87q0 -55 30 -78
t104 -23q49 0 82.5 10t52.5 26t29 45.5t12.5 56.5t2.5 72zM552 667l-133 -129h-51l130 129h54z" />
    <glyph glyph-name="Oslashacute" unicode="&#x1fe;" horiz-adv-x="664" 
d="M418 860l-133 -129h-51l130 129h54zM458 795l-29 -130q82 -15 120 -75q33 -53 33 -204v-56q-2 -115 -9.5 -170.5t-31.5 -91.5q-53 -78 -213 -77q-18 0 -54 4l-30 -136l-39 8l30 134q-85 16 -121 75q-19 31 -26 76t-7 123q0 39 1 61q2 118 9 173t31 90q53 76 214 75
q26 0 53 -3l30 133zM419 624l-136 -590q15 -1 45 -1q132 -1 174 58q20 28 27.5 72.5t8.5 165.5v52q0 89 -6 126.5t-23 62.5q-30 44 -90 54zM244 41l136 590q-30 2 -44 2q-134 1 -176 -59q-20 -28 -27.5 -73.5t-8.5 -166.5v-48q0 -90 6.5 -127.5t23.5 -63.5q30 -44 90 -54z
" />
    <glyph glyph-name="oslashacute" unicode="&#x1ff;" horiz-adv-x="542" 
d="M358 667l-133 -129h-51l130 129h54zM403 559l-31 -88q34 -12 56 -34t32 -53t13 -59t3 -67v-21q-1 -67 -8.5 -108t-29 -74.5t-63.5 -48t-108 -13.5q-28 0 -60 5l-33 -93l-38 13l32 90q-34 12 -55.5 33t-31 51t-12.5 56.5t-3 64.5v28q0 50 3 81t15 66t33.5 54.5t60.5 32
t95 11.5q30 0 60 -5l32 91zM358 432l-138 -395q28 -4 47 -4q45 -1 75.5 8t48.5 23.5t27 43.5t11.5 56t3.5 74q1 10 1 32q0 62 -15 104.5t-61 57.5zM182 47l137 395q-21 3 -46 3q-45 0 -75 -9t-47.5 -23.5t-26.5 -43t-11.5 -55.5t-2.5 -74q-1 -14 -1 -44q0 -57 14.5 -95.5
t58.5 -53.5z" />
    <glyph glyph-name="Scommaaccent" unicode="&#x218;" horiz-adv-x="636" 
d="M338 -44v-33q0 -35 -6.5 -53t-29.5 -39l-32 -30l-29 29l34 31q14 12 17.5 23.5t3.5 37.5v34h42zM560 497h-41q0 38 -12 64t-28.5 40t-46.5 21.5t-54 9t-63 1.5q-51 0 -81 -4t-60 -17.5t-43.5 -43.5t-13.5 -79q0 -20 3.5 -36.5t7 -28.5t13.5 -22l16 -16t21.5 -10.5t23 -7
t27.5 -4t27.5 -1.5t32 -0.5t31.5 -0.5q29 0 40 -0.5t37 -1.5t36 -3.5t31 -6.5t30 -10.5t23.5 -15.5t21 -21.5t14 -28t10.5 -36.5t3 -46q0 -114 -63 -157t-184 -43q-45 0 -77.5 3.5t-66 14t-54.5 29.5t-34 52t-13 79h42q0 -38 12 -64t28.5 -40t46.5 -21.5t54 -9t64 -1.5
q101 0 151 31t50 124q0 38 -9 63.5t-23.5 39t-39 20t-48.5 8t-60 1.5h-23h-13q-113 2 -154 18q-78 32 -78 149q0 59 17 97.5t52 57t74.5 25t99.5 6.5q57 0 95.5 -6t75 -23.5t54.5 -54.5t18 -93z" />
    <glyph glyph-name="scommaaccent" unicode="&#x219;" horiz-adv-x="501" 
d="M440 349h-41q0 52 -29.5 74.5t-106.5 22.5q-83 0 -117.5 -20.5t-35.5 -69.5q-1 -52 18 -67.5t76 -21.5q23 -2 62 -4t58.5 -4t46 -9t39 -19.5t22 -36.5t9.5 -59q0 -77 -47.5 -110t-148.5 -32t-143 31t-42 107h40q0 -56 30.5 -77t113.5 -21t118.5 22.5t35.5 77.5
q0 47 -19 64t-79 22q-22 2 -62 4t-58.5 3.5t-44.5 8.5t-38 19.5t-21 36t-9 57.5q0 77 46 108t149 30q107 0 147 -41q31 -33 31 -96zM264 -44v-33q0 -35 -6.5 -53t-29.5 -39l-32 -30l-29 29l34 31q14 12 17.5 23.5t3.5 37.5v34h42z" />
    <glyph glyph-name="uni021A" unicode="&#x21a;" horiz-adv-x="536" 
d="M506 627h-216v-627h-44v627h-216v40h476v-40zM289 -44v-33q0 -35 -6.5 -53t-29.5 -39l-32 -30l-29 29l34 31q14 12 17.5 23.5t3.5 37.5v34h42z" />
    <glyph glyph-name="uni021B" unicode="&#x21b;" horiz-adv-x="284" 
d="M211 -44v-33q0 -35 -6.5 -53t-29.5 -39l-32 -30l-29 29l34 31q14 12 17.5 23.5t3.5 37.5v34h42zM274 36v-40h-9q-82 0 -119.5 32t-37.5 105v306h-80v39h80v189h43v-189h123v-39h-123v-306q0 -57 27.5 -77t88.5 -20h7z" />
    <glyph glyph-name="uni0259" unicode="&#x259;" horiz-adv-x="530" 
d="M66 244h355q0 45 -2.5 72t-11 55t-25.5 42t-47 23t-74 9q-147 0 -147 -97h-40q0 138 188 138q66 0 106.5 -14.5t61.5 -48.5t27.5 -74.5t6.5 -107.5q0 -66 -6.5 -106.5t-26.5 -75.5t-60.5 -50.5t-105.5 -15.5q-53 0 -89.5 11.5t-58 30.5t-33 53t-15 68.5t-3.5 87.5z
M421 205h-313q0 -93 33 -132.5t124 -39.5q89 0 122.5 40t33.5 132z" />
    <glyph glyph-name="circumflex" unicode="&#x2c6;" horiz-adv-x="415" 
d="M361 538h-51l-101 100l-102 -100h-52l133 129h41z" />
    <glyph glyph-name="caron" unicode="&#x2c7;" horiz-adv-x="415" 
d="M361 667l-133 -129h-41l-132 129h51l101 -100l102 100h52z" />
    <glyph glyph-name="uni02C9" unicode="&#x2c9;" horiz-adv-x="415" 
d="M368 617h-320v38h320v-38z" />
    <glyph glyph-name="breve" unicode="&#x2d8;" horiz-adv-x="415" 
d="M305 667h40q0 -73 -31 -103q-29 -28 -106 -28q-73 0 -106 28q-31 27 -31 103h41q0 -60 19 -76q20 -17 77 -17t77 17t20 76z" />
    <glyph glyph-name="dotaccent" unicode="&#x2d9;" horiz-adv-x="415" 
d="M240 636q0 -33 -33 -33q-32 0 -32 33q0 31 32 31q33 0 33 -31z" />
    <glyph glyph-name="ring" unicode="&#x2da;" horiz-adv-x="415" 
d="M314 625q0 -65 -24 -89q-23 -23 -82 -23q-60 0 -83 23q-24 24 -24 89q0 60 24 84t83 24q58 0 82 -24t24 -84zM279 624q0 48 -13 61q-14 15 -58 15q-46 0 -59 -15q-13 -13 -13 -61q0 -49 13 -63q14 -16 59 -16q44 0 58 16q13 14 13 63z" />
    <glyph glyph-name="ogonek" unicode="&#x2db;" horiz-adv-x="410" 
d="M205 10l51 -10q-93 -33 -93 -103q0 -61 75 -61q10 0 30 2v-30q-20 -3 -38 -3q-103 0 -103 90q0 77 78 115z" />
    <glyph glyph-name="tilde" unicode="&#x2dc;" horiz-adv-x="415" 
d="M392 635l-53 -29q-32 -18 -67 -18q-29 0 -55 14q-4 2 -17.5 10t-19.5 11t-16.5 6.5t-20.5 3.5q-18 0 -37 -11l-65 -36l-20 31q6 4 23 14t26 15t23.5 11.5t27.5 9.5t26 3q29 0 55 -15q2 -1 14 -8t16 -9t13.5 -6t16.5 -5.5t15 -1.5q17 0 36 10l61 32z" />
    <glyph glyph-name="hungarumlaut" unicode="&#x2dd;" horiz-adv-x="415" 
d="M385 667l-128 -126h-53l129 126h52zM217 667l-128 -126h-53l129 126h52z" />
    <glyph glyph-name="uni037E" unicode="&#x37e;" horiz-adv-x="208" 
d="M139 452q0 -34 -35 -34q-34 0 -34 34t34 34q35 0 35 -34zM126 60v-75q0 -45 -8 -69.5t-34 -46.5l-25 -22l-27 27l19 18q22 21 27.5 39t5.5 54v75h42z" />
    <glyph glyph-name="tonos" unicode="&#x384;" horiz-adv-x="604" 
d="M322 541h-41v176h41v-176z" />
    <glyph glyph-name="dieresistonos" unicode="&#x385;" horiz-adv-x="604" 
d="M466 629q0 -40 -40 -40t-40 40t40 40t40 -40zM217 629q0 -40 -40 -40t-40 40t40 40t40 -40zM322 541h-41v176h41v-176z" />
    <glyph glyph-name="Alphatonos" unicode="&#x386;" horiz-adv-x="607" 
d="M581 0h-47l-78 204h-308l-77 -204h-45l254 667h46zM441 242l-138 373l-140 -373h278zM178 541h-41v176h41v-176z" />
    <glyph glyph-name="uni0387" unicode="&#x387;" horiz-adv-x="209" 
d="M139 335q0 -34 -35 -34q-34 0 -34 34t34 34q35 0 35 -34z" />
    <glyph glyph-name="Epsilontonos" unicode="&#x388;" horiz-adv-x="599" 
d="M515 0h-401v667h401v-40h-356v-264h346v-40h-346v-283h356v-40zM61 541h-41v176h41v-176z" />
    <glyph glyph-name="Etatonos" unicode="&#x389;" horiz-adv-x="669" 
d="M571 0h-44v323h-369v-323h-44v667h44v-304h369v304h44v-667zM61 541h-41v176h41v-176z" />
    <glyph glyph-name="Iotatonos" unicode="&#x38a;" horiz-adv-x="256" 
d="M158 0h-44v667h44v-667zM61 541h-41v176h41v-176z" />
    <glyph glyph-name="Omicrontonos" unicode="&#x38c;" horiz-adv-x="675" 
d="M593 334q0 -146 -10 -195q-21 -96 -106 -128q-52 -19 -134 -19q-73 0 -122 17.5t-74.5 39t-37.5 72t-14 85.5t-2 110v18q0 145 10 194q21 95 105 127q52 19 135 19q73 0 122 -17t74.5 -38.5t37.5 -71.5t14 -85t2 -110v-18zM549 333v20q0 69 -1.5 100.5t-11.5 74.5
t-31 60.5t-61 31t-101 13.5t-101 -13.5t-61 -31t-31 -60.5t-11.5 -74t-1.5 -101v-20v-20v-58t2 -50t5.5 -45.5t10.5 -37t17 -32.5t25.5 -23.5t36 -19t48 -9.5t61.5 -4t61.5 4t48 9.5t36 19t25.5 23.5t17 33t10.5 36.5t5.5 45.5t2 49.5v58.5v20zM61 541h-41v176h41v-176z" />
    <glyph glyph-name="Upsilontonos" unicode="&#x38e;" horiz-adv-x="598" 
d="M587 667l-229 -373v-294h-43v294l-227 373h49l202 -331l200 331h48zM61 541h-41v176h41v-176z" />
    <glyph glyph-name="Omegatonos" unicode="&#x38f;" horiz-adv-x="678" 
d="M596 0h-191v40q80 10 113 57q20 29 26.5 74t6.5 165v20v57.5t-2 50t-5.5 45.5t-10.5 36.5t-17 32.5t-25.5 23t-36 18.5t-48 9.5t-61.5 4q-61 0 -100.5 -13.5t-61 -30t-31.5 -59.5t-11.5 -73.5t-1.5 -100.5v-20q0 -119 7 -164.5t27 -74.5q33 -47 113 -57v-40h-191v40h86
q-59 32 -72.5 90t-13.5 184v23q0 145 10 193q21 94 103 125q53 19 137 19q53 0 92.5 -8.5t66.5 -20t44.5 -37.5t27 -45.5t14 -61t5 -67t0.5 -79.5v-18q0 -143 -8 -185q-15 -79 -77 -112h86v-40zM61 541h-41v176h41v-176z" />
    <glyph glyph-name="iotadieresistonos" unicode="&#x390;" horiz-adv-x="226" 
d="M126 541h-41v176h41v-176zM250 629q0 -33 -33 -33q-32 0 -32 33q0 31 32 31q33 0 33 -31zM26 629q0 -33 -33 -33q-32 0 -32 33q0 31 32 31q33 0 33 -31zM183 0h-10q-48 0 -69 22q-20 21 -20 71v385h43v-383q0 -33 10 -44t40 -11h6v-40z" />
    <glyph glyph-name="Alpha" unicode="&#x391;" horiz-adv-x="607" 
d="M581 0h-47l-78 204h-308l-77 -204h-45l254 667h46zM441 242l-138 373l-140 -373h278z" />
    <glyph glyph-name="Beta" unicode="&#x392;" horiz-adv-x="646" 
d="M98 667h217h14h41.5t37.5 -1.5t36 -4.5t30.5 -8.5t28.5 -14t22 -21.5t17.5 -30t9.5 -39.5t4 -50.5q0 -129 -84 -154q52 -14 71 -55.5t19 -104.5q0 -34 -4 -60.5t-14 -45t-20 -32t-29.5 -22t-34 -13.5t-42 -7t-45.5 -2.5t-52 -0.5h-223v667zM141 361h174h7q44 0 65 1
t50.5 8t42.5 21t23 41t10 68q0 43 -10.5 70t-34 39t-47.5 15.5t-64 3.5h-49h-167v-267zM141 40h173h18q32 0 47.5 0.5t39.5 2.5t35.5 7.5t26.5 15.5t21 25t11 37t5 52t-5 53t-11 38t-21.5 25.5t-26.5 15.5t-36.5 7.5t-41 3t-50.5 0.5h-3.5h-4h-4.5h-173v-283z" />
    <glyph glyph-name="Gamma" unicode="&#x393;" horiz-adv-x="509" 
d="M98 667h396v-40h-352v-627h-44v667z" />
    <glyph glyph-name="uni0394" unicode="&#x394;" horiz-adv-x="607" 
d="M86 40h433l-216 575zM26 0l254 667h46l255 -667h-555z" />
    <glyph glyph-name="Epsilon" unicode="&#x395;" horiz-adv-x="583" 
d="M499 0h-401v667h401v-40h-356v-264h346v-40h-346v-283h356v-40z" />
    <glyph glyph-name="Zeta" unicode="&#x396;" horiz-adv-x="598" 
d="M527 0h-456v41l406 586h-406v40h456v-41l-407 -586h407v-40z" />
    <glyph glyph-name="Eta" unicode="&#x397;" horiz-adv-x="653" 
d="M555 0h-44v323h-369v-323h-44v667h44v-304h369v304h44v-667z" />
    <glyph glyph-name="Theta" unicode="&#x398;" horiz-adv-x="665" 
d="M582 334q0 -146 -10 -195q-21 -96 -106 -128q-52 -19 -134 -19q-73 0 -122 17.5t-74.5 39t-37.5 72t-14 85.5t-2 110v18q0 145 10 194q21 95 105 127q52 19 135 19q73 0 122 -17t74.5 -38.5t37.5 -71.5t14 -85t2 -110v-18zM538 333v20q0 69 -1.5 100.5t-11.5 74.5
t-31 60.5t-61 31t-101 13.5t-101 -13.5t-61 -31t-31 -60.5t-11.5 -74t-1.5 -101v-20v-20v-58t2 -50t5.5 -45.5t10.5 -37t17 -32.5t25.5 -23.5t36 -19t48 -9.5t61.5 -4t61.5 4t48 9.5t36 19t25.5 23.5t17 33t10.5 36.5t5.5 45.5t2 49.5v58.5v20zM453 363v-40h-241v40h241z
" />
    <glyph glyph-name="Iota" unicode="&#x399;" horiz-adv-x="240" 
d="M142 0h-44v667h44v-667z" />
    <glyph glyph-name="Kappa" unicode="&#x39a;" horiz-adv-x="572" 
d="M548 0h-65l-341 314v-314h-44v667h43v-315l345 315h61l-368 -332z" />
    <glyph glyph-name="Lambda" unicode="&#x39b;" horiz-adv-x="607" 
d="M581 0h-47l-231 615l-232 -615h-45l254 667h46z" />
    <glyph glyph-name="Mu" unicode="&#x39c;" horiz-adv-x="819" 
d="M721 0h-43v605l-246 -605h-47l-245 605v-605h-42v667h59l253 -620l251 620h60v-667z" />
    <glyph glyph-name="Nu" unicode="&#x39d;" horiz-adv-x="651" 
d="M553 0h-56l-356 606v-606h-43v667h54l358 -605v605h43v-667z" />
    <glyph glyph-name="Xi" unicode="&#x39e;" horiz-adv-x="569" 
d="M84 667h401v-40h-401v40zM485 40v-40h-401v40h401zM475 363v-40h-381v40h381z" />
    <glyph glyph-name="Omicron" unicode="&#x39f;" horiz-adv-x="665" 
d="M582 334q0 -146 -10 -195q-21 -96 -106 -128q-52 -19 -134 -19q-73 0 -122 17.5t-74.5 39t-37.5 72t-14 85.5t-2 110v18q0 145 10 194q21 95 105 127q52 19 135 19q73 0 122 -17t74.5 -38.5t37.5 -71.5t14 -85t2 -110v-18zM538 333v20q0 69 -1.5 100.5t-11.5 74.5
t-31 60.5t-61 31t-101 13.5t-101 -13.5t-61 -31t-31 -60.5t-11.5 -74t-1.5 -101v-20v-20v-58t2 -50t5.5 -45.5t10.5 -37t17 -32.5t25.5 -23.5t36 -19t48 -9.5t61.5 -4t61.5 4t48 9.5t36 19t25.5 23.5t17 33t10.5 36.5t5.5 45.5t2 49.5v58.5v20z" />
    <glyph glyph-name="Pi" unicode="&#x3a0;" horiz-adv-x="653" 
d="M555 0h-44v627h-369v-627h-44v667h457v-667z" />
    <glyph glyph-name="Rho" unicode="&#x3a1;" horiz-adv-x="602" 
d="M98 667h215q41 0 60.5 -0.5t51 -3.5t46.5 -10t34.5 -19.5t28.5 -31.5t15.5 -47.5t6.5 -66.5q0 -29 -4 -52.5t-9.5 -41.5t-17.5 -31t-22 -22.5t-29 -15.5t-33 -9t-39.5 -4.5t-42 -2t-46.5 -0.5h-171v-309h-44v667zM142 349h167h16q32 0 47 0.5t39.5 3t35.5 7.5t26.5 15
t22 25t11.5 37t5 52q0 41 -10 68t-22.5 41t-42 21t-50 8t-64.5 1h-14h-167v-279z" />
    <glyph glyph-name="Sigma" unicode="&#x3a3;" horiz-adv-x="598" 
d="M527 0h-456v40l261 303l-261 284v40h456v-40h-401l260 -283l-262 -304h403v-40z" />
    <glyph glyph-name="Tau" unicode="&#x3a4;" horiz-adv-x="536" 
d="M506 627h-216v-627h-44v627h-216v40h476v-40z" />
    <glyph glyph-name="Upsilon" unicode="&#x3a5;" horiz-adv-x="521" 
d="M510 667l-229 -373v-294h-43v294l-227 373h49l202 -331l200 331h48z" />
    <glyph glyph-name="Phi" unicode="&#x3a6;" horiz-adv-x="739" 
d="M391 681v-76q81 -2 130 -14t80 -39q33 -28 48 -78.5t15 -142.5q0 -91 -15 -139t-48 -78q-31 -27 -80 -39t-130 -14v-75h-43v75q-81 2 -130 14t-80 39q-33 30 -48 78t-15 139q0 92 15 142.5t48 78.5q31 27 80 39t130 14v76h43zM391 564v-462q133 0 178 39q27 24 39 67
t12 125t-12 125t-39 67q-45 39 -178 39zM348 102v462q-133 0 -178 -39q-27 -24 -39 -67t-12 -125t12 -125t39 -67q45 -39 178 -39z" />
    <glyph glyph-name="Chi" unicode="&#x3a7;" horiz-adv-x="550" 
d="M513 0h-51l-189 302l-186 -302h-50l211 337l-208 330h50l186 -297l183 297h51l-209 -330z" />
    <glyph glyph-name="Psi" unicode="&#x3a8;" horiz-adv-x="798" 
d="M713 667v-148q0 -112 -4 -160q-6 -75 -30 -121q-26 -50 -86 -75.5t-172 -25.5v-137h-44v137q-112 0 -172 25.5t-86 75.5q-24 46 -30 121q-4 48 -4 160v148h44v-147q0 -135 8 -186.5t31 -84.5q26 -37 73.5 -54t135.5 -17v489h44v-489q88 0 135.5 17t73.5 54q23 33 31 84.5
t8 186.5v147h44z" />
    <glyph glyph-name="uni03A9" unicode="&#x3a9;" horiz-adv-x="666" 
d="M584 0h-191v40q80 10 113 57q20 29 26.5 74t6.5 165v20v57.5t-2 50t-5.5 45.5t-10.5 36.5t-17 32.5t-25.5 23t-36 18.5t-48 9.5t-61.5 4q-61 0 -100.5 -13.5t-61 -30t-31.5 -59.5t-11.5 -73.5t-1.5 -100.5v-20q0 -119 7 -164.5t27 -74.5q33 -47 113 -57v-40h-191v40h86
q-59 32 -72.5 90t-13.5 184v23q0 145 10 193q21 94 103 125q53 19 137 19q53 0 92.5 -8.5t66.5 -20t44.5 -37.5t27 -45.5t14 -61t5 -67t0.5 -79.5v-18q0 -143 -8 -185q-15 -79 -77 -112h86v-40z" />
    <glyph glyph-name="Iotadieresis" unicode="&#x3aa;" horiz-adv-x="240" 
d="M259 829q0 -33 -33 -33q-32 0 -32 33q0 31 32 31q33 0 33 -31zM45 829q0 -33 -33 -33q-32 0 -32 33q0 31 32 31q33 0 33 -31zM142 0h-44v667h44v-667z" />
    <glyph glyph-name="Upsilondieresis" unicode="&#x3ab;" horiz-adv-x="521" 
d="M400 825q0 -33 -33 -33q-32 0 -32 33q0 31 32 31q33 0 33 -31zM186 825q0 -33 -33 -33q-32 0 -32 33q0 31 32 31q33 0 33 -31zM510 667l-229 -373v-294h-43v294l-227 373h49l202 -331l200 331h48z" />
    <glyph glyph-name="alphatonos" unicode="&#x3ac;" horiz-adv-x="573" 
d="M510 0h-42l-24 150q-31 -94 -55 -119q-39 -39 -130 -39q-52 0 -88.5 13.5t-56.5 33t-30.5 55t-13 65.5t-2.5 78t2.5 79t13 66.5t30.5 56t56.5 34t88.5 13.5q90 0 130 -40q24 -25 55 -119l24 151h42l-40 -238zM428 239q-19 78 -41 130q-19 45 -50 60.5t-82 15.5
q-89 0 -116.5 -49t-27.5 -157t27.5 -157t116.5 -49q52 0 82.5 15.5t49.5 59.5q10 23 20 56t15 54zM306 541h-41v176h41v-176z" />
    <glyph glyph-name="epsilontonos" unicode="&#x3ad;" horiz-adv-x="517" 
d="M419 131h40q0 -78 -51.5 -108t-139.5 -30q-106 0 -154 30t-48 110q0 47 13 75.5t55 41.5q-62 26 -62 108q0 71 44 99.5t152 28.5q191 0 191 -139h-40q0 98 -151 98q-85 0 -119 -20.5t-34 -68.5q0 -55 34.5 -72.5t112.5 -17.5h37v-38h-37q-93 0 -123.5 -18t-30.5 -79
q0 -57 37 -77t122 -20q31 0 53.5 3t47 12t38 29.5t13.5 52.5zM284 541h-41v176h41v-176z" />
    <glyph glyph-name="etatonos" unicode="&#x3ae;" horiz-adv-x="536" 
d="M28 479h10q48 0 69 -22q16 -17 19 -46q49 75 160 75q93 0 134 -41q19 -19 28 -47t10.5 -51.5t1.5 -74.5v-17v-446h-43v438q0 60 -1 82.5t-8 47.5t-22 39q-30 29 -101 29q-107 0 -139 -70q-14 -29 -17 -72q-2 -26 -2 -84v-219h-43v384q0 33 -10 44t-40 11h-6v40zM292 541
h-41v176h41v-176z" />
    <glyph glyph-name="iotatonos" unicode="&#x3af;" horiz-adv-x="226" 
d="M126 541h-41v176h41v-176zM183 0h-10q-48 0 -69 22q-20 21 -20 71v385h43v-383q0 -33 10 -44t40 -11h6v-40z" />
    <glyph glyph-name="upsilondieresistonos" unicode="&#x3b0;" horiz-adv-x="528" 
d="M452 478v-205q0 -70 -2 -124q-1 -39 -11 -64q-34 -92 -175 -92t-175 92q-10 25 -11 64q-2 54 -2 124v205h43v-205q0 -83 1 -113q2 -48 14 -71q30 -55 130 -55q99 0 130 55q12 23 14 71q1 30 1 113v205h43zM285 541h-41v176h41v-176zM409 629q0 -33 -33 -33q-32 0 -32 33
q0 31 32 31q33 0 33 -31zM185 629q0 -33 -33 -33q-32 0 -32 33q0 31 32 31q33 0 33 -31z" />
    <glyph glyph-name="alpha" unicode="&#x3b1;" horiz-adv-x="573" 
d="M510 0h-42l-24 150q-31 -94 -55 -119q-39 -39 -130 -39q-52 0 -88.5 13.5t-56.5 33t-30.5 55t-13 65.5t-2.5 78t2.5 79t13 66.5t30.5 56t56.5 34t88.5 13.5q90 0 130 -40q24 -25 55 -119l24 151h42l-40 -238zM428 239q-19 78 -41 130q-19 45 -50 60.5t-82 15.5
q-89 0 -116.5 -49t-27.5 -157t27.5 -157t116.5 -49q52 0 82.5 15.5t49.5 59.5q10 23 20 56t15 54z" />
    <glyph glyph-name="beta" unicode="&#x3b2;" horiz-adv-x="555" 
d="M85 -191v680v10q0 93 21 132q39 73 171 73q98 0 146 -39.5t48 -132.5q0 -65 -18.5 -102.5t-70.5 -56.5q58 -17 81.5 -62t23.5 -121q0 -101 -46 -147q-50 -50 -154 -50q-55 0 -91.5 12.5t-67.5 56.5v-253h-43zM128 492v-262q0 -58 5 -86q20 -110 154 -110q76 0 116.5 34
t40.5 117q0 97 -34 131q-36 36 -136 36h-53v39h53q91 0 125 34q29 29 29 104t-32.5 104.5t-118.5 29.5q-50 0 -80.5 -10.5t-45 -35.5t-19 -52t-4.5 -73z" />
    <glyph glyph-name="gamma" unicode="&#x3b3;" horiz-adv-x="468" 
d="M266 -191h-43v191l-143 387q-10 27 -24 39t-37 12h-1v40h6q66 0 89 -60l133 -363l150 423h45l-175 -478v-191z" />
    <glyph glyph-name="delta" unicode="&#x3b4;" horiz-adv-x="542" 
d="M338 659h-98q-48 0 -48 -39q0 -5 1 -9t3.5 -8t5.5 -7.5t9.5 -8.5t12 -9t16 -11t19.5 -12.5t25 -16t29 -18.5q3 -2 25.5 -16.5t32.5 -21t27.5 -19.5t29 -25t18.5 -23q30 -46 30 -176q0 -63 -5.5 -100.5t-25 -74.5t-62.5 -54t-112 -17q-56 0 -95 12.5t-60.5 32t-32.5 54
t-14 66t-3 81.5t3 81.5t14 66.5t32.5 54t60.5 32t95 13q3 0 10 -0.5t9 -0.5l-84 53q-16 10 -26 18.5t-19.5 25.5t-9.5 38q0 35 18 53q24 24 78 24h91v-38zM433 239q0 47 -2 74t-11 56t-26 43t-47.5 23.5t-75.5 9.5t-75.5 -9.5t-47.5 -23.5t-26 -43t-11 -56t-2 -74t2 -73.5
t11 -55.5t26 -43t47.5 -23.5t75.5 -9.5q56 0 89.5 12t49 42t19.5 61t4 90z" />
    <glyph glyph-name="epsilon" unicode="&#x3b5;" horiz-adv-x="517" 
d="M419 131h40q0 -78 -51.5 -108t-139.5 -30q-106 0 -154 30t-48 110q0 47 13 75.5t55 41.5q-62 26 -62 108q0 71 44 99.5t152 28.5q191 0 191 -139h-40q0 98 -151 98q-85 0 -119 -20.5t-34 -68.5q0 -55 34.5 -72.5t112.5 -17.5h37v-38h-37q-93 0 -123.5 -18t-30.5 -79
q0 -57 37 -77t122 -20q31 0 53.5 3t47 12t38 29.5t13.5 52.5z" />
    <glyph glyph-name="zeta" unicode="&#x3b6;" horiz-adv-x="555" 
d="M438 697v-37q-44 -42 -57 -54.5t-58 -58t-64 -69t-52.5 -68t-48.5 -76.5t-28 -72.5t-13 -77.5q0 -51 13 -81.5t42.5 -43.5t55 -16t74.5 -3q31 0 46 -0.5t40 -5.5t37.5 -14t22.5 -28t10 -46q0 -69 -51 -137h-49q58 76 58 134q0 20 -8 33t-26 17.5t-30.5 5.5t-37.5 1h-9
q-48 0 -76.5 2t-61.5 12t-50.5 29t-29.5 54t-12 86q0 55 20.5 112.5t47.5 101.5t75 98t79.5 85t84.5 79h-248v38h304z" />
    <glyph glyph-name="eta" unicode="&#x3b7;" horiz-adv-x="536" 
d="M28 479h10q48 0 69 -22q16 -17 19 -46q49 75 160 75q93 0 134 -41q19 -19 28 -47t10.5 -51.5t1.5 -74.5v-17v-446h-43v438q0 60 -1 82.5t-8 47.5t-22 39q-30 29 -101 29q-107 0 -139 -70q-14 -29 -17 -72q-2 -26 -2 -84v-219h-43v384q0 33 -10 44t-40 11h-6v40z" />
    <glyph glyph-name="theta" unicode="&#x3b8;" horiz-adv-x="539" 
d="M473 333q0 -185 -16 -231q-36 -109 -188 -109q-151 0 -187 109q-16 46 -16 231q0 126 4.5 174t19.5 79q43 88 179 88t179 -88q15 -31 20 -80t5 -173zM109 363h321q-1 145 -14 186q-14 44 -48 64.5t-99 20.5t-98.5 -20.5t-47.5 -64.5q-13 -41 -14 -186zM430 323h-321
q0 -180 19 -222q15 -35 48 -51.5t93 -16.5t93 16.5t48 51.5q20 44 20 222z" />
    <glyph glyph-name="iota" unicode="&#x3b9;" horiz-adv-x="226" 
d="M183 0h-10q-48 0 -69 22q-20 21 -20 71v385h43v-383q0 -33 10 -44t40 -11h6v-40z" />
    <glyph glyph-name="kappa" unicode="&#x3ba;" horiz-adv-x="463" 
d="M444 0h-61l-257 232v-232h-43v478h43v-216l256 216h59l-274 -231z" />
    <glyph glyph-name="lambda" unicode="&#x3bb;" horiz-adv-x="473" 
d="M455 0h-8q-66 0 -89 60l-129 355l-152 -415h-44l176 472l-49 133q-10 28 -23 40t-36 12h-1v40h7q63 0 86 -60l200 -546q10 -27 24 -39t37 -12h1v-40z" />
    <glyph glyph-name="uni03BC" unicode="&#x3bc;" horiz-adv-x="539" 
d="M456 0h-42v73q-42 -80 -160 -80q-92 0 -128 46v-230h-43v669h43v-246v-52q0 -39 3.5 -61.5t16 -44t39.5 -31t71 -9.5t74.5 13t46.5 31t24.5 53t10 62t1.5 74v211h43v-478z" />
    <glyph glyph-name="nu" unicode="&#x3bd;" horiz-adv-x="457" 
d="M436 478l-183 -478h-48l-184 478h45l164 -429l161 429h45z" />
    <glyph glyph-name="xi" unicode="&#x3be;" horiz-adv-x="527" 
d="M421 -191h-49q58 76 58 134q0 17 -5.5 28t-12.5 17t-22 8.5t-24 3t-28 0.5h-9q-37 0 -56.5 0.5t-49.5 4t-46 10.5t-35.5 20.5t-29 33t-16.5 49t-7 67.5q0 67 19.5 111t73.5 61q-40 20 -58 57q-18 39 -18 97q0 108 78 148h-86v38h332v-39h-81q-34 0 -53 -1t-51 -8.5
t-50 -22t-32 -43.5t-14 -71q0 -73 26 -101.5t91 -33.5q12 -1 40 -1h32h81v-39h-83q-55 0 -81 -2q-70 -6 -96.5 -41t-26.5 -112q0 -39 9 -66.5t21.5 -42t36.5 -22.5t44 -9.5t53 -1.5h34q29 0 42.5 -0.5t36.5 -5.5t34 -14t20 -28t9 -46q0 -69 -51 -137z" />
    <glyph glyph-name="omicron" unicode="&#x3bf;" horiz-adv-x="542" 
d="M476 239q0 -63 -5.5 -100.5t-25 -74.5t-62.5 -54t-112 -17q-56 0 -95 12.5t-60.5 32t-32.5 54t-14 66t-3 81.5t3 81.5t14 66.5t32.5 54t60.5 32t95 13t94.5 -13t60 -32t33 -54t14.5 -66.5t3 -81.5zM433 239q0 47 -2 74t-11 56t-26 43t-47.5 23.5t-75.5 9.5t-75.5 -9.5
t-47.5 -23.5t-26 -43t-11 -56t-2 -74t2 -73.5t11 -55.5t26 -43t47.5 -23.5t75.5 -9.5q56 0 89.5 12t49 42t19.5 61t4 90z" />
    <glyph glyph-name="pi" unicode="&#x3c0;" horiz-adv-x="639" 
d="M546 0h-10q-48 0 -69 22q-20 21 -20 71v346h-266v-439h-43v439h-56v39h457v-39h-49v-344q0 -33 10 -44t40 -11h6v-40z" />
    <glyph glyph-name="rho" unicode="&#x3c1;" horiz-adv-x="544" 
d="M76 -193v444q0 76 9.5 117.5t34.5 67.5q49 50 157 50t157 -50q7 -8 13.5 -16.5t10.5 -20t7.5 -20t5.5 -23t3.5 -22t2 -24.5t1 -22t0.5 -23v-20v-22q0 -58 -6.5 -95.5t-25.5 -71t-58.5 -49.5t-101.5 -16q-121 0 -167 77v-261h-43zM436 245q0 39 -1 61.5t-6 49t-15.5 40
t-27.5 26t-44 17.5t-64 5q-46 0 -76 -9.5t-47 -23t-25 -43t-9.5 -54t-1.5 -71.5q0 -120 37.5 -164.5t135.5 -44.5q30 0 53 6t38 15t25.5 26.5t15.5 32t8 40t3.5 43t0.5 48.5z" />
    <glyph glyph-name="uni03C2" unicode="&#x3c2;" horiz-adv-x="516" 
d="M457 347h-40q0 98 -147 98q-55 0 -88.5 -11.5t-49 -40.5t-19.5 -59.5t-4 -87.5q0 -68 6 -104.5t27.5 -61.5t57.5 -32.5t102 -7.5q31 0 46 -0.5t40 -5.5t37.5 -14t22.5 -28t10 -46q0 -69 -51 -137h-49q58 76 58 134q0 20 -8 33t-26 17.5t-30.5 5.5t-37.5 1h-9q-47 0 -70 1
t-61.5 12t-60.5 33q-47 48 -47 198q0 65 7 105.5t28 74t62 48t106 14.5q188 0 188 -139z" />
    <glyph glyph-name="sigma" unicode="&#x3c3;" horiz-adv-x="542" 
d="M510 439h-101q41 -22 54 -70.5t13 -134.5q0 -49 -3 -80t-14.5 -65t-33 -53t-60 -31.5t-94.5 -12.5q-47 0 -81.5 7.5t-57 24.5t-36 35.5t-20 49.5t-8.5 57.5t-2 67.5q0 74 9 120t39 76q28 28 68.5 38t108.5 10h219v-39zM433 234q0 57 -4 88t-19.5 61t-49 42t-89.5 12
t-89.5 -12t-49 -42t-19.5 -61t-4 -88q0 -46 2 -72t11 -54.5t26 -42.5t47.5 -23t75.5 -9t75.5 9t47.5 23t26 42.5t11 54.5t2 72z" />
    <glyph glyph-name="tau" unicode="&#x3c4;" horiz-adv-x="445" 
d="M291 0h-10q-48 0 -69 22q-20 21 -20 71v346h-166v39h389v-39h-180v-344q0 -33 10 -44t40 -11h6v-40z" />
    <glyph glyph-name="upsilon" unicode="&#x3c5;" horiz-adv-x="528" 
d="M452 478v-205q0 -70 -2 -124q-1 -39 -11 -64q-34 -92 -175 -92t-175 92q-10 25 -11 64q-2 54 -2 124v205h43v-205q0 -83 1 -113q2 -48 14 -71q30 -55 130 -55q99 0 130 55q12 23 14 71q1 30 1 113v205h43z" />
    <glyph glyph-name="phi" unicode="&#x3c6;" horiz-adv-x="669" 
d="M312 41v445q89 0 123 -5q72 -10 112 -44q31 -26 43.5 -68.5t12.5 -125.5q0 -82 -12.5 -124.5t-43.5 -68.5q-53 -46 -191 -50v-191h-44v191q-137 4 -190 50q-30 26 -43 69t-13 125t13 124.5t43 68.5q42 36 120 45v-41q-58 -9 -87 -33q-25 -21 -35.5 -57.5t-10.5 -108.5
q0 -71 10.5 -106.5t35.5 -56.5q45 -38 157 -38zM356 445v-404q112 0 157 38q25 21 36 58t11 108t-11 106.5t-36 56.5q-43 37 -157 37z" />
    <glyph glyph-name="chi" unicode="&#x3c7;" horiz-adv-x="479" 
d="M455 -193h-6q-57 0 -83 51l-132 259l-157 -308h-48l179 343l-125 241q-9 17 -14 25t-16.5 14t-28.5 6v40h6q57 0 83 -51l122 -239l148 290h48l-170 -325l135 -261q9 -17 14 -25t16.5 -14t28.5 -6v-40z" />
    <glyph glyph-name="psi" unicode="&#x3c8;" horiz-adv-x="679" 
d="M603 478v-226q0 -78 -9 -118t-39 -70q-35 -35 -90.5 -49.5t-103.5 -14.5v-191h-43v191q-48 0 -103.5 14.5t-90.5 49.5q-30 30 -39 70t-9 118v226h43v-227q0 -66 7 -100.5t30 -57.5q50 -52 162 -52v437h43v-437q112 0 162 52q23 23 30 57.5t7 100.5v227h43z" />
    <glyph glyph-name="omega" unicode="&#x3c9;" horiz-adv-x="698" 
d="M456 445v41q83 -9 119 -46q57 -60 57 -191q0 -41 -2.5 -71.5t-13 -67.5t-29 -61t-52 -40.5t-80.5 -16.5q-81 0 -106 48q-25 -48 -106 -48q-47 0 -80.5 16.5t-52 40.5t-29 61t-13 67.5t-2.5 71.5q0 131 57 191q36 37 119 46v-41q-70 -9 -101.5 -51t-31.5 -145
q0 -107 29 -162t108 -55q23 0 38.5 6.5t24 16t12.5 29t5 36.5t1 48v98h44v-98q0 -31 1 -48t5 -36.5t12.5 -29t24 -16t38.5 -6.5q79 0 108 55t29 162q0 103 -31.5 145t-101.5 51z" />
    <glyph glyph-name="iotadieresis" unicode="&#x3ca;" horiz-adv-x="226" 
d="M245 629q0 -33 -33 -33q-32 0 -32 33q0 31 32 31q33 0 33 -31zM31 629q0 -33 -33 -33q-32 0 -32 33q0 31 32 31q33 0 33 -31zM183 0h-10q-48 0 -69 22q-20 21 -20 71v385h43v-383q0 -33 10 -44t40 -11h6v-40z" />
    <glyph glyph-name="upsilondieresis" unicode="&#x3cb;" horiz-adv-x="528" 
d="M452 478v-205q0 -70 -2 -124q-1 -39 -11 -64q-34 -92 -175 -92t-175 92q-10 25 -11 64q-2 54 -2 124v205h43v-205q0 -83 1 -113q2 -48 14 -71q30 -55 130 -55q99 0 130 55q12 23 14 71q1 30 1 113v205h43zM404 629q0 -33 -33 -33q-32 0 -32 33q0 31 32 31q33 0 33 -31z
M190 629q0 -33 -33 -33q-32 0 -32 33q0 31 32 31q33 0 33 -31z" />
    <glyph glyph-name="omicrontonos" unicode="&#x3cc;" horiz-adv-x="542" 
d="M476 239q0 -63 -5.5 -100.5t-25 -74.5t-62.5 -54t-112 -17q-56 0 -95 12.5t-60.5 32t-32.5 54t-14 66t-3 81.5t3 81.5t14 66.5t32.5 54t60.5 32t95 13t94.5 -13t60 -32t33 -54t14.5 -66.5t3 -81.5zM433 239q0 47 -2 74t-11 56t-26 43t-47.5 23.5t-75.5 9.5t-75.5 -9.5
t-47.5 -23.5t-26 -43t-11 -56t-2 -74t2 -73.5t11 -55.5t26 -43t47.5 -23.5t75.5 -9.5q56 0 89.5 12t49 42t19.5 61t4 90zM292 541h-41v176h41v-176z" />
    <glyph glyph-name="upsilontonos" unicode="&#x3cd;" horiz-adv-x="528" 
d="M452 478v-205q0 -70 -2 -124q-1 -39 -11 -64q-34 -92 -175 -92t-175 92q-10 25 -11 64q-2 54 -2 124v205h43v-205q0 -83 1 -113q2 -48 14 -71q30 -55 130 -55q99 0 130 55q12 23 14 71q1 30 1 113v205h43zM284 541h-41v176h41v-176z" />
    <glyph glyph-name="omegatonos" unicode="&#x3ce;" horiz-adv-x="698" 
d="M456 445v41q83 -9 119 -46q57 -60 57 -191q0 -41 -2.5 -71.5t-13 -67.5t-29 -61t-52 -40.5t-80.5 -16.5q-81 0 -106 48q-25 -48 -106 -48q-47 0 -80.5 16.5t-52 40.5t-29 61t-13 67.5t-2.5 71.5q0 131 57 191q36 37 119 46v-41q-70 -9 -101.5 -51t-31.5 -145
q0 -107 29 -162t108 -55q23 0 38.5 6.5t24 16t12.5 29t5 36.5t1 48v98h44v-98q0 -31 1 -48t5 -36.5t12.5 -29t24 -16t38.5 -6.5q79 0 108 55t29 162q0 103 -31.5 145t-101.5 51zM370 541h-41v176h41v-176z" />
    <glyph glyph-name="uni0400" unicode="&#x400;" horiz-adv-x="583" 
d="M499 0h-401v667h401v-40h-356v-264h346v-40h-346v-283h356v-40zM374 731h-51l-133 129h54z" />
    <glyph glyph-name="afii10023" unicode="&#x401;" horiz-adv-x="583" 
d="M438 829q0 -33 -33 -33q-32 0 -32 33q0 31 32 31q33 0 33 -31zM224 829q0 -33 -33 -33q-32 0 -32 33q0 31 32 31q33 0 33 -31zM499 0h-401v667h401v-40h-356v-264h346v-40h-346v-283h356v-40z" />
    <glyph glyph-name="afii10051" unicode="&#x402;" horiz-adv-x="699" 
d="M255 627v-268q69 37 169 37q106 0 155 -51q45 -45 45 -191q0 -62 -1.5 -100t-6 -79t-14 -64t-24.5 -45t-38.5 -32.5t-55.5 -17t-75 -6.5v41q26 0 46 2t36.5 8.5t29 12t22 19.5t15.5 24.5t10.5 33t6.5 38t3.5 47.5t1.5 54v64q0 41 -1.5 64.5t-10.5 53t-26 46.5
q-37 37 -118 37q-97 0 -169 -42v-313h-44v627h-179v40h442v-40h-219z" />
    <glyph glyph-name="afii10052" unicode="&#x403;" horiz-adv-x="509" 
d="M384 862l-126 -126h-52l126 126h52zM494 627h-352v-627h-44v667h396v-40z" />
    <glyph glyph-name="afii10053" unicode="&#x404;" horiz-adv-x="635" 
d="M521 170h41q0 -97 -52 -137.5t-173 -40.5q-54 0 -94.5 9t-67.5 20.5t-45 38.5t-27.5 47.5t-14.5 65.5t-5.5 73t-0.5 87t0.5 87t5.5 73t14.5 65.5t27.5 47.5t45 38.5t67.5 20.5t94.5 9q121 0 173 -40t52 -137h-41q-1 77 -41.5 106.5t-151.5 29.5q-36 0 -64.5 -4
t-49.5 -13.5t-35.5 -20.5t-24.5 -31t-15.5 -37t-8.5 -47t-3.5 -54t-0.5 -63h269v-40h-269q0 -140 13 -185q21 -73 94 -93q38 -11 95 -11q111 0 151.5 29.5t41.5 106.5z" />
    <glyph glyph-name="afii10054" unicode="&#x405;" horiz-adv-x="640" 
d="M560 497h-41q0 38 -12 64t-28.5 40t-46.5 21.5t-54 9t-63 1.5q-51 0 -81 -4t-60 -17.5t-43.5 -43.5t-13.5 -79q0 -20 3.5 -36.5t7 -28.5t13.5 -22l16 -16t21.5 -10.5t23 -7t27.5 -4t27.5 -1.5t32 -0.5t31.5 -0.5q29 0 40 -0.5t37 -1.5t36 -3.5t31 -6.5t30 -10.5
t23.5 -15.5t21 -21.5t14 -28t10.5 -36.5t3 -46q0 -114 -63 -157t-184 -43q-45 0 -77.5 3.5t-66 14t-54.5 29.5t-34 52t-13 79h42q0 -38 12 -64t28.5 -40t46.5 -21.5t54 -9t64 -1.5q101 0 151 31t50 124q0 38 -9 63.5t-23.5 39t-39 20t-48.5 8t-60 1.5h-23h-13
q-113 2 -154 18q-78 32 -78 149q0 59 17 97.5t52 57t74.5 25t99.5 6.5q57 0 95.5 -6t75 -23.5t54.5 -54.5t18 -93z" />
    <glyph glyph-name="afii10055" unicode="&#x406;" horiz-adv-x="240" 
d="M142 0h-44v667h44v-667z" />
    <glyph glyph-name="afii10056" unicode="&#x407;" horiz-adv-x="240" 
d="M259 829q0 -33 -33 -33q-32 0 -32 33q0 31 32 31q33 0 33 -31zM45 829q0 -33 -33 -33q-32 0 -32 33q0 31 32 31q33 0 33 -31zM142 0h-44v667h44v-667z" />
    <glyph glyph-name="afii10057" unicode="&#x408;" horiz-adv-x="526" 
d="M434 667v-461q0 -111 -41.5 -162.5t-153.5 -51.5q-101 0 -149 40t-48 138h41q0 -79 36.5 -107.5t119.5 -28.5q91 0 121 39t30 131v463h44z" />
    <glyph glyph-name="afii10058" unicode="&#x409;" horiz-adv-x="994" 
d="M528 363h212q57 0 91.5 -6t63 -24.5t41 -54.5t12.5 -95q0 -34 -4 -60.5t-14 -45t-20 -32t-29.5 -22t-34 -13.5t-42 -7t-45.5 -2.5t-52 -0.5h-223v627h-213l-106 -481q-17 -82 -53 -118q-35 -35 -100 -36v40q43 2 65 24q29 29 44 96l114 515h293v-304zM528 40h172h16
q33 0 48 0.5t39.5 3t36 7.5t26.5 15t21.5 25t11.5 37.5t5 52.5q0 49 -9 77.5t-33 42.5t-52 18t-80 4h-202v-283z" />
    <glyph glyph-name="afii10059" unicode="&#x40a;" horiz-adv-x="1021" 
d="M555 363h212q57 0 91.5 -6t63 -24.5t41 -54.5t12.5 -95q0 -34 -4 -60.5t-14 -45t-20 -32t-29.5 -22t-34 -13.5t-42 -7t-45.5 -2.5t-52 -0.5h-223v323h-369v-323h-44v667h44v-304h369v304h44v-304zM555 40h172h16q33 0 48 0.5t39.5 3t36 7.5t26.5 15t21.5 25t11.5 37.5
t5 52.5q0 49 -9 77.5t-33 42.5t-52 18t-80 4h-202v-283z" />
    <glyph glyph-name="afii10060" unicode="&#x40b;" horiz-adv-x="702" 
d="M625 0h-44v163q0 47 -4 76t-19 58.5t-48 43.5t-86 14q-97 0 -169 -42v-313h-44v627h-179v40h442v-40h-219v-268q69 37 169 37q104 0 151 -47q30 -30 40 -74.5t10 -113.5v-161z" />
    <glyph glyph-name="afii10061" unicode="&#x40c;" horiz-adv-x="572" 
d="M411 862l-126 -126h-52l126 126h52zM548 0h-65l-341 314v-314h-44v667h43v-315l345 315h61l-368 -332z" />
    <glyph glyph-name="uni040D" unicode="&#x40d;" horiz-adv-x="651" 
d="M553 0h-43v606l-356 -606h-56v667h43v-605l358 605h54v-667zM417 731h-51l-133 129h54z" />
    <glyph glyph-name="afii10062" unicode="&#x40e;" horiz-adv-x="540" 
d="M371 863h41q0 -71 -32 -98.5t-105 -27.5t-105 27.5t-32 98.5h41q1 -23 4 -34.5t11.5 -26t28.5 -21t52 -6.5t51.5 6.5t28.5 20.5t12 26.5t4 34.5zM528 667l-332 -667h-49l105 207l-234 460h51l207 -411l202 411h50z" />
    <glyph glyph-name="afii10145" unicode="&#x40f;" horiz-adv-x="653" 
d="M555 0h-208v-117h-43v117h-206v667h44v-627h369v627h44v-667z" />
    <glyph glyph-name="afii10017" unicode="&#x410;" horiz-adv-x="607" 
d="M581 0h-47l-78 204h-308l-77 -204h-45l254 667h46zM441 242l-138 373l-140 -373h278z" />
    <glyph glyph-name="afii10018" unicode="&#x411;" horiz-adv-x="612" 
d="M142 363h212q57 0 91.5 -6t63 -24.5t41 -54.5t12.5 -95q0 -34 -4 -60.5t-14 -45t-20 -32t-29.5 -22t-34 -13.5t-42 -7t-45.5 -2.5t-52 -0.5h-223v667h402v-39h-358v-265zM142 40h172h16q33 0 48 0.5t39.5 3t36 7.5t26.5 15t21.5 25t11.5 37.5t5 52.5q0 49 -9 77.5
t-33 42.5t-52 18t-80 4h-202v-283z" />
    <glyph glyph-name="afii10019" unicode="&#x412;" horiz-adv-x="646" 
d="M98 667h217h14h41.5t37.5 -1.5t36 -4.5t30.5 -8.5t28.5 -14t22 -21.5t17.5 -30t9.5 -39.5t4 -50.5q0 -129 -84 -154q90 -24 90 -160q0 -34 -4 -60.5t-14 -45t-20 -32t-29.5 -22t-34 -13.5t-42 -7t-45.5 -2.5t-52 -0.5h-223v667zM141 361h174h7q44 0 65 1t50.5 8t42.5 21
t23 41t10 68q0 43 -10.5 70t-34 39t-47.5 15.5t-64 3.5h-49h-167v-267zM141 40h173h18q32 0 47.5 0.5t39.5 2.5t35.5 7.5t26.5 15.5t21 25t11 37t5 52t-5 53t-11 38t-21.5 25.5t-26.5 15.5t-36.5 7.5t-41 3t-50.5 0.5h-3.5h-4h-4.5h-173v-283z" />
    <glyph glyph-name="afii10020" unicode="&#x413;" horiz-adv-x="509" 
d="M494 627h-352v-627h-44v667h396v-40z" />
    <glyph glyph-name="afii10021" unicode="&#x414;" horiz-adv-x="632" 
d="M569 -117h-43v119h-471v-119h-43v159q45 0 67 25t34 76l124 524h291v-625h41v-159zM484 42v585h-211l-115 -484q-21 -83 -49 -101h375z" />
    <glyph glyph-name="afii10022" unicode="&#x415;" horiz-adv-x="583" 
d="M499 0h-401v667h401v-40h-356v-264h346v-40h-346v-283h356v-40z" />
    <glyph glyph-name="afii10024" unicode="&#x416;" horiz-adv-x="826" 
d="M802 0h-60l-307 314v-314h-44v314l-306 -314h-61l330 335l-329 332h56l310 -315v315h44v-315l308 315h58l-330 -332z" />
    <glyph glyph-name="afii10025" unicode="&#x417;" horiz-adv-x="637" 
d="M114 497h-41q0 46 12 78.5t31.5 51.5t51 29.5t63 14t76.5 3.5q130 0 184 -39t54 -132q0 -120 -94 -156q63 -18 82.5 -58t19.5 -106q0 -103 -59.5 -147t-186.5 -44q-44 0 -76 3.5t-63.5 14.5t-51 30t-31.5 51.5t-12 78.5h41q0 -77 41.5 -106.5t151.5 -29.5q104 0 152.5 31
t48.5 115q0 91 -40 118.5t-157 27.5h-71v40h71q98 0 143.5 26.5t45.5 108.5q0 78 -40 105t-153 27q-110 0 -151.5 -29.5t-41.5 -106.5z" />
    <glyph glyph-name="afii10026" unicode="&#x418;" horiz-adv-x="651" 
d="M553 0h-43v606l-356 -606h-56v667h43v-605l358 605h54v-667z" />
    <glyph glyph-name="afii10027" unicode="&#x419;" horiz-adv-x="651" 
d="M422 863h41q0 -71 -32 -98.5t-105 -27.5t-105 27.5t-32 98.5h41q1 -23 4 -34.5t11.5 -26t28.5 -21t52 -6.5t51.5 6.5t28.5 20.5t12 26.5t4 34.5zM553 0h-43v606l-356 -606h-56v667h43v-605l358 605h54v-667z" />
    <glyph glyph-name="afii10028" unicode="&#x41a;" horiz-adv-x="572" 
d="M548 0h-65l-341 314v-314h-44v667h43v-315l345 315h61l-368 -332z" />
    <glyph glyph-name="afii10029" unicode="&#x41b;" horiz-adv-x="626" 
d="M528 0h-44v627h-213l-106 -481q-17 -82 -53 -118q-35 -35 -100 -36v40q43 2 65 24q29 29 44 96l114 515h293v-667z" />
    <glyph glyph-name="afii10030" unicode="&#x41c;" horiz-adv-x="819" 
d="M721 0h-43v605l-246 -605h-47l-245 605v-605h-42v667h59l253 -620l251 620h60v-667z" />
    <glyph glyph-name="afii10031" unicode="&#x41d;" horiz-adv-x="653" 
d="M555 0h-44v323h-369v-323h-44v667h44v-304h369v304h44v-667z" />
    <glyph glyph-name="afii10032" unicode="&#x41e;" horiz-adv-x="664" 
d="M582 334q0 -146 -10 -195q-21 -96 -106 -128q-52 -19 -134 -19q-73 0 -122 17.5t-74.5 39t-37.5 72t-14 85.5t-2 110v18q0 145 10 194q21 95 105 127q52 19 135 19q73 0 122 -17t74.5 -38.5t37.5 -71.5t14 -85t2 -110v-18zM538 333v20q0 69 -1.5 100.5t-11.5 74.5
t-31 60.5t-61 31t-101 13.5t-101 -13.5t-61 -31t-31 -60.5t-11.5 -74t-1.5 -101v-20v-20v-58t2 -50t5.5 -45.5t10.5 -37t17 -32.5t25.5 -23.5t36 -19t48 -9.5t61.5 -4t61.5 4t48 9.5t36 19t25.5 23.5t17 33t10.5 36.5t5.5 45.5t2 49.5v58.5v20z" />
    <glyph glyph-name="afii10033" unicode="&#x41f;" horiz-adv-x="653" 
d="M555 0h-44v627h-369v-627h-44v667h457v-667z" />
    <glyph glyph-name="afii10034" unicode="&#x420;" horiz-adv-x="602" 
d="M98 667h215q41 0 60.5 -0.5t51 -3.5t46.5 -10t34.5 -19.5t28.5 -31.5t15.5 -47.5t6.5 -66.5q0 -29 -4 -52.5t-9.5 -41.5t-17.5 -31t-22 -22.5t-29 -15.5t-33 -9t-39.5 -4.5t-42 -2t-46.5 -0.5h-171v-309h-44v667zM142 349h167h16q32 0 47 0.5t39.5 3t35.5 7.5t26.5 15
t22 25t11.5 37t5 52q0 41 -10 68t-22.5 41t-42 21t-50 8t-64.5 1h-14h-167v-279z" />
    <glyph glyph-name="afii10035" unicode="&#x421;" horiz-adv-x="635" 
d="M521 170h41q0 -97 -52 -137.5t-173 -40.5q-54 0 -94.5 9t-67.5 20.5t-45 38.5t-27.5 47.5t-14.5 65.5t-5.5 73t-0.5 87t0.5 87t5.5 73t14.5 65.5t27.5 47.5t45 38.5t67.5 20.5t94.5 9q121 0 173 -40t52 -137h-41q-1 77 -41.5 106.5t-151.5 29.5q-60 0 -98.5 -13.5
t-59.5 -31t-31 -62t-11.5 -77t-1.5 -105.5v-11q0 -142 11 -187q18 -77 89 -99q40 -13 102 -13q111 0 151.5 29.5t41.5 106.5z" />
    <glyph glyph-name="afii10036" unicode="&#x422;" horiz-adv-x="536" 
d="M506 627h-216v-627h-44v627h-216v40h476v-40z" />
    <glyph glyph-name="afii10037" unicode="&#x423;" horiz-adv-x="540" 
d="M528 667l-332 -667h-49l105 207l-234 460h51l207 -411l202 411h50z" />
    <glyph glyph-name="afii10038" unicode="&#x424;" horiz-adv-x="794" 
d="M419 667v-54q92 -2 144.5 -12.5t85.5 -37.5q37 -30 53 -80t16 -145t-16 -145.5t-53 -80.5q-34 -28 -87 -39.5t-143 -13.5v-59h-44v59q-90 2 -143 13.5t-87 39.5q-37 30 -53 80.5t-16 145.5t16 145t53 80q33 27 85.5 37.5t144.5 12.5v54h44zM419 572v-472q149 2 197 38
q30 24 44 68.5t14 129.5t-14 129.5t-44 68.5q-48 36 -197 38zM375 100v472q-149 -2 -197 -38q-30 -24 -44 -68.5t-14 -129.5t14 -129.5t44 -68.5q48 -36 197 -38z" />
    <glyph glyph-name="afii10039" unicode="&#x425;" horiz-adv-x="550" 
d="M513 0h-51l-189 302l-186 -302h-50l211 337l-208 330h50l186 -297l183 297h51l-209 -330z" />
    <glyph glyph-name="afii10040" unicode="&#x426;" horiz-adv-x="658" 
d="M596 -117h-43v117h-455v667h44v-627h369v627h44v-627h41v-157z" />
    <glyph glyph-name="afii10041" unicode="&#x427;" horiz-adv-x="607" 
d="M509 0h-44v306q-76 -38 -181 -38q-113 0 -163 51q-23 23 -34 58.5t-13 65.5t-2 86v138h44v-144q0 -48 1.5 -73t11 -54t27.5 -47q38 -39 128 -39q70 0 125 17q21 7 56 24v316h44v-667z" />
    <glyph glyph-name="afii10042" unicode="&#x428;" horiz-adv-x="881" 
d="M783 0h-685v667h44v-627h276v627h44v-627h277v627h44v-667z" />
    <glyph glyph-name="afii10043" unicode="&#x429;" horiz-adv-x="886" 
d="M824 -117h-43v117h-683v667h44v-627h276v627h44v-627h277v627h44v-627h41v-157z" />
    <glyph glyph-name="afii10044" unicode="&#x42a;" horiz-adv-x="699" 
d="M233 363h212q57 0 91.5 -6t63 -24.5t41 -54.5t12.5 -95q0 -34 -4 -60.5t-14 -45t-20 -32t-29.5 -22t-34 -13.5t-42 -7t-45.5 -2.5t-52 -0.5h-223v627h-178v40h222v-304zM233 40h172h16q33 0 48 0.5t39.5 3t36 7.5t26.5 15t21.5 25t11.5 37.5t5 52.5q0 49 -9 77.5
t-33 42.5t-52 18t-80 4h-202v-283z" />
    <glyph glyph-name="afii10045" unicode="&#x42b;" horiz-adv-x="806" 
d="M708 0h-44v667h44v-667zM142 363h212q57 0 91.5 -6t63 -24.5t41 -54.5t12.5 -95q0 -34 -4 -60.5t-14 -45t-20 -32t-29.5 -22t-34 -13.5t-42 -7t-45.5 -2.5t-52 -0.5h-223v667h44v-304zM142 40h172h16q33 0 48 0.5t39.5 3t36 7.5t26.5 15t21.5 25t11.5 37.5t5 52.5
q0 49 -9 77.5t-33 42.5t-52 18t-80 4h-202v-283z" />
    <glyph glyph-name="afii10046" unicode="&#x42c;" horiz-adv-x="608" 
d="M142 363h212q57 0 91.5 -6t63 -24.5t41 -54.5t12.5 -95q0 -34 -4 -60.5t-14 -45t-20 -32t-29.5 -22t-34 -13.5t-42 -7t-45.5 -2.5t-52 -0.5h-223v667h44v-304zM142 40h172h16q33 0 48 0.5t39.5 3t36 7.5t26.5 15t21.5 25t11.5 37.5t5 52.5q0 49 -9 77.5t-33 42.5t-52 18
t-80 4h-202v-283z" />
    <glyph glyph-name="afii10047" unicode="&#x42d;" horiz-adv-x="636" 
d="M115 497h-41q0 97 52 137t173 40q54 0 94.5 -9t67.5 -20.5t45 -38.5t27.5 -47.5t14.5 -65.5t5.5 -73t0.5 -87t-0.5 -87t-5.5 -73t-14.5 -65.5t-27.5 -47.5t-45 -38.5t-67.5 -20.5t-94.5 -9q-121 0 -173 40.5t-52 137.5h41q1 -77 41.5 -106.5t151.5 -29.5q60 0 98.5 13.5
t59.5 31t31 61.5t11.5 76t1.5 103v6h-269v40h269q0 45 -1 71t-5 59t-12 50.5t-22.5 37t-36 29t-53 15.5t-72.5 6q-111 0 -151.5 -29.5t-41.5 -106.5z" />
    <glyph glyph-name="afii10048" unicode="&#x42e;" horiz-adv-x="891" 
d="M142 363h167q0 35 0.5 54.5t2 49t5 46.5t9.5 40t15.5 36t23 29t32 24.5t42 16.5t53.5 11.5t67 3.5q73 0 122 -17t74.5 -38.5t37.5 -71.5t14 -85t2 -110v-18q0 -146 -10 -195q-21 -96 -106 -128q-53 -19 -134 -19q-53 0 -92.5 9t-66.5 20.5t-44.5 38t-27 46.5t-14 62
t-5 68t-0.5 80v7h-167v-323h-44v667h44v-304zM765 333v20q0 69 -1.5 100.5t-11.5 74.5t-31 60.5t-61 31t-101 13.5t-101 -13.5t-61 -31t-31 -60.5t-11.5 -74t-1.5 -101v-20v-20v-58t2 -50t5.5 -45.5t10.5 -37t17 -32.5t25.5 -23.5t36 -19t48 -9.5t61.5 -4t61.5 4t48 9.5
t36 19t25.5 23.5t17 33t10.5 36.5t5.5 45.5t2 49.5v58.5v20z" />
    <glyph glyph-name="afii10049" unicode="&#x42f;" horiz-adv-x="644" 
d="M512 628h-167q-101 0 -131 -9q-63 -18 -71 -97q-2 -15 -2 -32q0 -32 4.5 -54.5t17 -37t25 -23t37 -12t43.5 -4.5t55 -1h189v270zM276 232l-152 -232h-54l209 317q-100 1 -140.5 41.5t-40.5 128.5q0 27 2.5 49t9 39t12.5 30.5t19 23t21.5 16t27 11t29.5 7t34.5 3.5t35.5 1
h39h7h6h215v-667h-44v317h-111q-52 0 -68 -11t-57 -74z" />
    <glyph glyph-name="afii10065" unicode="&#x430;" horiz-adv-x="531" 
d="M455 0h-40v75q-40 -82 -178 -82q-93 0 -136 33.5t-43 108.5q0 88 45 118t139 30h170q-1 81 -6 100q-13 46 -76 57q-28 5 -67 5q-44 0 -73 -5t-54 -28t-25 -65h-40q0 42 16.5 71t46.5 43t62.5 19.5t74.5 5.5q62 0 101 -12t56 -38t22 -51t5 -67v-40v-278zM412 244h-174
q-71 0 -104 -21t-33 -87q0 -56 30 -80t103 -24q56 0 92 12t54.5 38.5t25 58t6.5 79.5v24z" />
    <glyph glyph-name="afii10066" unicode="&#x431;" horiz-adv-x="550" 
d="M125 442v-33q46 77 167 77q51 0 87 -12.5t56.5 -31.5t31.5 -53.5t14 -67.5t3 -83q0 -65 -6 -104t-25.5 -74.5t-60 -51t-105.5 -15.5q-113 0 -159 46q-30 30 -38 72.5t-8 121.5v210q0 101 49 151q29 29 69.5 42t73.5 13t66 5t48 20q10 10 10 25h43q-1 -33 -20 -52
q-22 -22 -57.5 -30t-68 -8t-70 -10t-62.5 -35q-38 -38 -38 -122zM441 239q0 42 -1.5 67t-9.5 55t-23 45.5t-42.5 26.5t-67.5 11q-98 0 -135.5 -44.5t-37.5 -164.5q0 -59 4.5 -91t20.5 -60t50 -39t91 -11q43 0 72 10.5t44.5 25.5t23.5 45t9.5 54.5t1.5 69.5z" />
    <glyph glyph-name="afii10067" unicode="&#x432;" horiz-adv-x="534" 
d="M84 478h197q91 0 117 -9q61 -22 62 -111q0 -91 -53 -111q58 -24 58 -113q0 -71 -30 -101q-23 -23 -61 -29q-25 -4 -88 -4h-202v478zM127 265h154h14q30 0 43 0.5t32 4.5t27 13t14.5 26t6.5 43q0 31 -6.5 49.5t-24.5 26.5t-35 10t-51 2h-174v-175zM127 38h153h25
q59 0 80 10q37 17 37 84q0 60 -26 77.5t-80 17.5h-36h-153v-189z" />
    <glyph glyph-name="afii10068" unicode="&#x433;" horiz-adv-x="423" 
d="M411 439h-284v-439h-43v478h327v-39z" />
    <glyph glyph-name="afii10069" unicode="&#x434;" horiz-adv-x="520" 
d="M472 -117h-39v117h-378v-117h-43v155q36 0 54.5 20.5t27.5 59.5l81 360h261v-439h36v-156zM392 39v401h-182l-71 -319q-15 -63 -39 -82h292z" />
    <glyph glyph-name="afii10070" unicode="&#x435;" horiz-adv-x="530" 
d="M464 235h-355q0 -45 2.5 -72t11 -55t25.5 -42t47 -23t74 -9q147 0 147 97h40q0 -138 -188 -138q-66 0 -106.5 14.5t-61.5 48.5t-27.5 74.5t-6.5 107.5q0 66 6.5 106.5t26.5 75.5t60.5 50.5t105.5 15.5q53 0 89.5 -11.5t58 -30.5t33 -53t15 -68.5t3.5 -87.5zM109 274h313
q0 93 -33 132.5t-124 39.5q-89 0 -122.5 -40t-33.5 -132z" />
    <glyph glyph-name="afii10072" unicode="&#x436;" horiz-adv-x="653" 
d="M634 0h-57l-229 232v-232h-43v232l-229 -232h-57l247 247l-244 231h55l228 -216v216h43v-216l228 216h55l-244 -231z" />
    <glyph glyph-name="afii10073" unicode="&#x437;" horiz-adv-x="521" 
d="M98 347h-40q0 139 192 139q107 0 153 -29t46 -98q0 -84 -63 -110q42 -13 55.5 -41.5t13.5 -73.5q0 -75 -50 -108t-155 -33q-32 0 -57.5 3t-51.5 12t-43.5 24t-28.5 40t-11 59h40q0 -31 13 -51.5t36.5 -29.5t47 -12.5t54.5 -3.5q87 0 126 20.5t39 77.5q0 63 -30 79
t-128 16h-38v38h38q82 0 116.5 17t34.5 75q0 51 -34 69.5t-124 18.5q-151 0 -151 -98z" />
    <glyph glyph-name="afii10074" unicode="&#x438;" horiz-adv-x="544" 
d="M460 0h-43v415l-278 -415h-55v478h43v-421l279 421h54v-478z" />
    <glyph glyph-name="afii10075" unicode="&#x439;" horiz-adv-x="544" 
d="M368 667h41q0 -71 -32 -98t-105 -27t-105 27t-32 98h41q1 -22 4 -34t11.5 -26t28.5 -20.5t52 -6.5t51.5 6.5t28.5 20.5t12 26t4 34zM460 0h-43v415l-278 -415h-55v478h43v-421l279 421h54v-478z" />
    <glyph glyph-name="afii10076" unicode="&#x43a;" horiz-adv-x="463" 
d="M444 0h-61l-257 232v-232h-43v478h43v-216l256 216h59l-274 -231z" />
    <glyph glyph-name="afii10077" unicode="&#x43b;" horiz-adv-x="521" 
d="M437 0h-43v439h-183l-73 -321q-7 -32 -12 -47t-18.5 -37t-37 -31.5t-58.5 -9.5v39q38 0 55 22.5t28 71.5l81 352h261v-478z" />
    <glyph glyph-name="afii10078" unicode="&#x43c;" horiz-adv-x="665" 
d="M581 0h-42v407l-185 -407h-44l-184 406v-406h-42v478h54l195 -428l196 428h52v-478z" />
    <glyph glyph-name="afii10079" unicode="&#x43d;" horiz-adv-x="544" 
d="M460 0h-43v227h-290v-227h-43v478h43v-212h290v212h43v-478z" />
    <glyph glyph-name="afii10080" unicode="&#x43e;" horiz-adv-x="542" 
d="M476 239q0 -63 -5.5 -100.5t-25 -74.5t-62.5 -54t-112 -17q-56 0 -95 12.5t-60.5 32t-32.5 54t-14 66t-3 81.5t3 81.5t14 66.5t32.5 54t60.5 32t95 13t94.5 -13t60 -32t33 -54t14.5 -66.5t3 -81.5zM433 239q0 47 -2 74t-11 56t-26 43t-47.5 23.5t-75.5 9.5t-75.5 -9.5
t-47.5 -23.5t-26 -43t-11 -56t-2 -74t2 -73.5t11 -55.5t26 -43t47.5 -23.5t75.5 -9.5q56 0 89.5 12t49 42t19.5 61t4 90z" />
    <glyph glyph-name="afii10081" unicode="&#x43f;" horiz-adv-x="544" 
d="M460 0h-43v439h-290v-439h-43v478h376v-478z" />
    <glyph glyph-name="afii10082" unicode="&#x440;" horiz-adv-x="552" 
d="M125 478v-72q46 80 169 80q64 0 103.5 -16.5t58.5 -53t24.5 -75t5.5 -102.5q0 -51 -3 -83.5t-14 -66.5t-31.5 -53t-56 -31t-87.5 -12q-121 0 -167 77v-261h-43v669h41zM443 240q0 35 -1 55.5t-5.5 47.5t-13.5 42.5t-24.5 30.5t-40.5 21.5t-59 6.5q-98 0 -135.5 -43.5
t-37.5 -160.5q0 -118 38 -162t135 -44q40 0 68 11.5t43 27t22.5 46t9 55t1.5 66.5z" />
    <glyph glyph-name="afii10083" unicode="&#x441;" horiz-adv-x="515" 
d="M417 131h40q0 -138 -188 -138q-53 0 -90 10.5t-59 28.5t-34 51t-16 68t-4 88t4 88t16 68t34 51t59 29t90 11q188 0 188 -139h-40q0 98 -147 98q-45 0 -75.5 -9.5t-47.5 -23.5t-25.5 -43t-10.5 -55.5t-2 -73.5t2 -73.5t10.5 -55.5t25.5 -43.5t47.5 -24t75.5 -9.5
q30 0 53 3.5t46 13t35.5 30t12.5 50.5z" />
    <glyph glyph-name="afii10084" unicode="&#x442;" horiz-adv-x="445" 
d="M419 439h-175v-439h-43v439h-175v39h393v-39z" />
    <glyph glyph-name="afii10085" unicode="&#x443;" horiz-adv-x="455" 
d="M428 478l-246 -669h-44l72 192l-177 477h45l155 -423l150 423h45z" />
    <glyph glyph-name="afii10086" unicode="&#x444;" horiz-adv-x="815" 
d="M429 697v-281q1 1 4.5 7.5t8 12t12 13.5t18.5 14.5t25.5 12t35.5 9t45 3.5q45 0 77 -12t50 -31.5t28 -53.5t13 -68t3 -84q0 -64 -5.5 -103.5t-22 -75t-52 -52t-91.5 -16.5q-24 0 -45 3.5t-35.5 9t-25.5 12t-18.5 14.5t-12 13.5t-8 12t-4.5 7.5v-255h-43v255
q-1 -1 -4.5 -7.5t-8 -12t-12 -13.5t-18.5 -14.5t-25.5 -12t-35.5 -9t-45 -3.5q-56 0 -91.5 16.5t-52 52t-22 75t-5.5 103.5q0 50 3 84t13 68t28 53.5t50 31.5t77 12q24 0 45 -3.5t35.5 -9t25.5 -12t18.5 -14.5t12 -13.5t8 -12t4.5 -7.5v281h43zM706 240q0 109 -24 158
t-102 49q-85 0 -118.5 -44.5t-33.5 -162.5t33.5 -162.5t118.5 -44.5q78 0 102 49t24 158zM387 240q0 118 -33.5 162.5t-118.5 44.5q-78 0 -102 -49t-24 -158t24 -158t102 -49q85 0 118.5 44.5t33.5 162.5z" />
    <glyph glyph-name="afii10087" unicode="&#x445;" horiz-adv-x="457" 
d="M428 0h-52l-148 208l-148 -208h-51l174 242l-170 236h52l144 -203l146 203h50l-171 -235z" />
    <glyph glyph-name="afii10088" unicode="&#x446;" horiz-adv-x="544" 
d="M496 -117h-39v117h-373v478h43v-439h290v439h43v-439h36v-156z" />
    <glyph glyph-name="afii10089" unicode="&#x447;" horiz-adv-x="538" 
d="M442 0h-43v210q-60 -29 -150 -29q-98 0 -141 44q-29 29 -37 78q-5 31 -5 104v71h43v-77q0 -59 6 -91.5t28 -54.5q32 -33 106 -33q91 0 150 32v224h43v-478z" />
    <glyph glyph-name="afii10090" unicode="&#x448;" horiz-adv-x="755" 
d="M671 0h-587v478h43v-439h229v439h43v-439h229v439h43v-478z" />
    <glyph glyph-name="afii10091" unicode="&#x449;" horiz-adv-x="755" 
d="M707 -117h-39v117h-584v478h43v-439h229v439h43v-439h229v439h43v-439h36v-156z" />
    <glyph glyph-name="afii10092" unicode="&#x44a;" horiz-adv-x="539" 
d="M156 266h180q49 0 77 -5.5t46 -23.5q30 -29 30 -104q0 -38 -8 -63.5t-20 -39t-37.5 -20.5t-47 -8.5t-62.5 -1.5h-201v439h-101v39h144v-212zM156 37h156q74 0 96 10q38 18 38 86q0 63 -25 78.5t-92 15.5h-173v-190z" />
    <glyph glyph-name="afii10093" unicode="&#x44b;" horiz-adv-x="662" 
d="M578 0h-43v478h43v-478zM127 266h180q49 0 77 -5.5t46 -23.5q30 -29 30 -104q0 -38 -8 -63.5t-20 -39t-37.5 -20.5t-47 -8.5t-62.5 -1.5h-201v478h43v-212zM127 37h156q74 0 96 10q38 18 38 86q0 63 -25 78.5t-92 15.5h-173v-190z" />
    <glyph glyph-name="afii10094" unicode="&#x44c;" horiz-adv-x="510" 
d="M127 266h180q49 0 77 -5.5t46 -23.5q30 -29 30 -104q0 -38 -8 -63.5t-20 -39t-37.5 -20.5t-47 -8.5t-62.5 -1.5h-201v478h43v-212zM127 37h156q74 0 96 10q38 18 38 86q0 63 -25 78.5t-92 15.5h-173v-190z" />
    <glyph glyph-name="afii10095" unicode="&#x44d;" horiz-adv-x="515" 
d="M98 347h-40q0 139 188 139q53 0 90 -11t59 -29t34 -51t16 -68t4 -88t-4 -88t-16 -68t-34 -51t-59 -28.5t-90 -10.5q-188 0 -188 138h40q0 -30 12.5 -50.5t35.5 -30t46 -13t53 -3.5q44 0 73.5 8.5t46.5 22.5t26.5 40.5t12 52.5t2.5 69h-194v39h194q-1 49 -6 78t-21.5 54.5
t-48.5 36t-85 10.5q-147 0 -147 -98z" />
    <glyph glyph-name="afii10096" unicode="&#x44e;" horiz-adv-x="738" 
d="M127 266h135q1 55 8 90t27.5 67.5t62.5 47.5t107 15q56 0 94.5 -13t60 -32t33 -54t14.5 -66.5t3 -81.5t-3 -81.5t-14.5 -66t-33 -54t-60.5 -32t-95 -12.5q-55 0 -93 12t-59.5 30t-33 51t-15 63.5t-3.5 77.5h-135v-227h-43v478h43v-212zM629 239q0 47 -2 74t-11 56t-26 43
t-47.5 23.5t-75.5 9.5t-75.5 -9.5t-47.5 -23.5t-26 -43t-11 -56t-2 -74t2 -73.5t11 -55.5t26 -43t47.5 -23.5t75.5 -9.5q56 0 89.5 12t49 42t19.5 61t4 90z" />
    <glyph glyph-name="afii10097" unicode="&#x44f;" horiz-adv-x="534" 
d="M450 0h-43v219h-106q-56 0 -72 -10.5t-55 -71.5l-88 -137h-42l142 221q-56 4 -84 33t-28 87q0 82 36.5 109.5t117.5 27.5h17h205v-478zM407 258v181h-162q-34 0 -51.5 -2t-38.5 -10t-30 -28.5t-9 -53.5q0 -30 7 -48.5t23 -26.5t31 -10t42 -2h188z" />
    <glyph glyph-name="uni0450" unicode="&#x450;" horiz-adv-x="530" 
d="M464 235h-355q0 -45 2.5 -72t11 -55t25.5 -42t47 -23t74 -9q147 0 147 97h40q0 -138 -188 -138q-66 0 -106.5 14.5t-61.5 48.5t-27.5 74.5t-6.5 107.5q0 66 6.5 106.5t26.5 75.5t60.5 50.5t105.5 15.5q53 0 89.5 -11.5t58 -30.5t33 -53t15 -68.5t3.5 -87.5zM109 274h313
q0 93 -33 132.5t-124 39.5q-89 0 -122.5 -40t-33.5 -132zM352 538h-51l-133 129h54z" />
    <glyph glyph-name="afii10071" unicode="&#x451;" horiz-adv-x="530" 
d="M405 636q0 -33 -33 -33q-32 0 -32 33q0 31 32 31q33 0 33 -31zM191 636q0 -33 -33 -33q-32 0 -32 33q0 31 32 31q33 0 33 -31zM464 235h-355q0 -45 2.5 -72t11 -55t25.5 -42t47 -23t74 -9q147 0 147 97h40q0 -138 -188 -138q-66 0 -106.5 14.5t-61.5 48.5t-27.5 74.5
t-6.5 107.5q0 66 6.5 106.5t26.5 75.5t60.5 50.5t105.5 15.5q53 0 89.5 -11.5t58 -30.5t33 -53t15 -68.5t3.5 -87.5zM109 274h313q0 93 -33 132.5t-124 39.5q-89 0 -122.5 -40t-33.5 -132z" />
    <glyph glyph-name="afii10099" unicode="&#x452;" horiz-adv-x="553" 
d="M477 255v-155q0 -64 -3 -103.5t-14 -79t-32.5 -60.5t-58 -34t-90.5 -13v40q36 0 61 5.5t42.5 20t27.5 32t15.5 49t7 62.5t1.5 81v147q0 60 -1 82.5t-8 47.5t-22 39q-30 29 -101 29q-33 0 -58.5 -7.5t-42 -17t-28 -29.5t-17.5 -34.5t-8.5 -42.5t-3 -43t-0.5 -46v-13v-212
h-43v550h-75v39h75v108h43v-108h172v-39h-172v-142q43 78 159 78q93 0 134 -41q27 -28 33.5 -64t6.5 -109v-17z" />
    <glyph glyph-name="afii10100" unicode="&#x453;" horiz-adv-x="423" 
d="M336 667l-126 -126h-52l126 126h52zM411 439h-284v-439h-43v478h327v-39z" />
    <glyph glyph-name="afii10101" unicode="&#x454;" horiz-adv-x="515" 
d="M417 131h40q0 -138 -188 -138q-53 0 -90 10.5t-59 28.5t-34 51t-16 68t-4 88t4 88t16 68t34 51t59 29t90 11q188 0 188 -139h-40q0 98 -147 98q-53 0 -85 -10.5t-48.5 -36t-21.5 -54.5t-6 -78h189v-39h-189q0 -43 2.5 -69t12 -52.5t26.5 -40.5t46.5 -22.5t73.5 -8.5
q30 0 53 3.5t46 13t35.5 30t12.5 50.5z" />
    <glyph glyph-name="afii10102" unicode="&#x455;" horiz-adv-x="501" 
d="M440 349h-41q0 52 -29.5 74.5t-106.5 22.5q-83 0 -117.5 -20.5t-35.5 -69.5q-1 -52 18 -67.5t76 -21.5q23 -2 62 -4t58.5 -4t46 -9t39 -19.5t22 -36.5t9.5 -59q0 -77 -47.5 -110t-148.5 -32t-143 31t-42 107h40q0 -56 30.5 -77t113.5 -21t118.5 22.5t35.5 77.5
q0 47 -19 64t-79 22q-22 2 -62 4t-58.5 3.5t-44.5 8.5t-38 19.5t-21 36t-9 57.5q0 77 46 108t149 30q107 0 147 -41q31 -33 31 -96z" />
    <glyph glyph-name="afii10103" unicode="&#x456;" horiz-adv-x="211" 
d="M138 643q0 -33 -32 -33t-32 33q0 31 32 31t32 -31zM127 0h-43v478h43v-478z" />
    <glyph glyph-name="afii10104" unicode="&#x457;" horiz-adv-x="211" 
d="M245 636q0 -33 -33 -33q-32 0 -32 33q0 31 32 31q33 0 33 -31zM31 636q0 -33 -33 -33q-32 0 -32 33q0 31 32 31q33 0 33 -31zM127 0h-43v478h43v-478z" />
    <glyph glyph-name="afii10105" unicode="&#x458;" horiz-adv-x="211" 
d="M138 643q0 -33 -32 -33t-32 33q0 31 32 31t32 -31zM-39 -190v40h15q59 0 83.5 20.5t24.5 78.5v529h43v-525q0 -77 -33.5 -110t-113.5 -33h-19z" />
    <glyph glyph-name="afii10106" unicode="&#x459;" horiz-adv-x="820" 
d="M437 266h180q49 0 77 -5.5t46 -23.5q30 -29 30 -104q0 -38 -8 -63.5t-20 -39t-37.5 -20.5t-47 -8.5t-62.5 -1.5h-201v439h-183l-73 -321q-7 -32 -12 -47t-18.5 -37t-37 -31.5t-58.5 -9.5v39q38 0 55 22.5t28 71.5l81 352h261v-212zM437 37h156q74 0 96 10q38 19 38 86
q0 63 -25 78.5t-92 15.5h-173v-190z" />
    <glyph glyph-name="afii10107" unicode="&#x45a;" horiz-adv-x="843" 
d="M460 266h180q49 0 77 -5.5t46 -23.5q30 -29 30 -104q0 -38 -8 -63.5t-20 -39t-37.5 -20.5t-47 -8.5t-62.5 -1.5h-201v227h-290v-227h-43v478h43v-212h290v212h43v-212zM460 37h156q74 0 96 10q38 19 38 86q0 63 -25 78.5t-92 15.5h-173v-190z" />
    <glyph glyph-name="afii10108" unicode="&#x45b;" horiz-adv-x="553" 
d="M477 0h-43v247q0 60 -1 82.5t-8 47.5t-22 39q-30 29 -101 29q-33 0 -58.5 -7.5t-42 -17t-28 -29.5t-17.5 -34.5t-8.5 -42.5t-3 -43t-0.5 -46v-13v-212h-43v550h-75v39h75v108h43v-108h172v-39h-172v-142q43 78 159 78q93 0 134 -41q27 -28 33.5 -64t6.5 -109v-17v-255z
" />
    <glyph glyph-name="afii10109" unicode="&#x45c;" horiz-adv-x="463" 
d="M351 667l-126 -126h-52l126 126h52zM444 0h-61l-257 232v-232h-43v478h43v-216l256 216h59l-274 -231z" />
    <glyph glyph-name="uni045D" unicode="&#x45d;" horiz-adv-x="544" 
d="M460 0h-43v415l-278 -415h-55v478h43v-421l279 421h54v-478zM364 538h-51l-133 129h54z" />
    <glyph glyph-name="afii10110" unicode="&#x45e;" horiz-adv-x="455" 
d="M326 667h41q0 -71 -32 -98t-105 -27t-105 27t-32 98h41q1 -22 4 -34t11.5 -26t28.5 -20.5t52 -6.5t51.5 6.5t28.5 20.5t12 26t4 34zM428 478l-246 -669h-44l72 192l-177 477h45l155 -423l150 423h45z" />
    <glyph glyph-name="afii10193" unicode="&#x45f;" horiz-adv-x="544" 
d="M460 0h-168v-117h-39v117h-169v478h43v-439h290v439h43v-478z" />
    <glyph glyph-name="uni0462" unicode="&#x462;" horiz-adv-x="700" 
d="M11 497v40h179v130h44v-130h219v-40h-219v-134h212q57 0 91.5 -6t63 -24.5t41 -54.5t12.5 -95q0 -34 -4 -60.5t-14 -45t-20 -32t-29.5 -22t-34 -13.5t-42 -7t-45.5 -2.5t-52 -0.5h-223v497h-179zM234 40h172h16q33 0 48 0.5t39.5 3t36 7.5t26.5 15t21.5 25t11.5 37.5
t5 52.5q0 49 -9 77.5t-33 42.5t-52 18t-80 4h-202v-283z" />
    <glyph glyph-name="uni0463" unicode="&#x463;" horiz-adv-x="539" 
d="M12 439v39h101v189h43v-189h221v-39h-221v-173h180q49 0 77 -5.5t46 -23.5q30 -29 30 -104q0 -38 -8 -63.5t-20 -39t-37.5 -20.5t-47 -8.5t-62.5 -1.5h-201v439h-101zM156 37h156q74 0 96 10q38 18 38 86q0 63 -25 78.5t-92 15.5h-173v-190z" />
    <glyph glyph-name="uni0472" unicode="&#x472;" horiz-adv-x="665" 
d="M582 334q0 -146 -10 -195q-21 -96 -106 -128q-52 -19 -134 -19q-73 0 -122 17.5t-74.5 39t-37.5 72t-14 85.5t-2 110v18q0 145 10 194q21 95 105 127q52 19 135 19q53 0 93 -9t66.5 -20t44 -38t27 -46.5t14 -61.5t5 -67.5t0.5 -79.5v-18zM538 323h-412v-10
q0 -85 3.5 -122.5t22 -81.5t62 -59.5t118.5 -15.5t118.5 15.5t62 59.5t22 81.5t3.5 122.5v10zM126 363h412q0 46 -1 70.5t-4.5 58.5t-11.5 51t-23 37.5t-37 30t-54 16t-75 6.5t-75 -6.5t-54 -16t-37 -30t-23 -37.5t-11.5 -51t-4.5 -58.5t-1 -70.5z" />
    <glyph glyph-name="uni0473" unicode="&#x473;" horiz-adv-x="542" 
d="M476 239q0 -63 -5.5 -100.5t-25 -74.5t-62.5 -54t-112 -17q-56 0 -95 12.5t-60.5 32t-32.5 54t-14 66t-3 81.5t3 81.5t14 66.5t32.5 54t60.5 32t95 13t94.5 -13t60 -32t33 -54t14.5 -66.5t3 -81.5zM433 227h-324q0 -54 4.5 -84.5t20.5 -58t49 -39t88 -11.5q54 0 87 11.5
t49 39t21 58t5 84.5zM109 266h324q-1 49 -6.5 78t-22 54t-49 36t-84.5 11q-53 0 -85.5 -11t-48.5 -36t-21.5 -54t-6.5 -78z" />
    <glyph glyph-name="uni0474" unicode="&#x474;" horiz-adv-x="595" 
d="M302 0h-46l-244 667h46l223 -612l169 464q34 93 57.5 124t75.5 32v-39q-33 -1 -48 -23.5t-43 -99.5z" />
    <glyph glyph-name="uni0475" unicode="&#x475;" horiz-adv-x="482" 
d="M253 0h-48l-184 478h45l164 -429l116 309q30 81 50 104t65 23v-39q-27 -2 -38.5 -17.5t-36.5 -81.5z" />
    <glyph glyph-name="afii10050" unicode="&#x490;" horiz-adv-x="509" 
d="M494 627h-352v-627h-44v667h356v82h40v-122z" />
    <glyph glyph-name="afii10098" unicode="&#x491;" horiz-adv-x="421" 
d="M411 439h-284v-439h-43v478h289v76h38v-115z" />
    <glyph glyph-name="uni0492" unicode="&#x492;" horiz-adv-x="558" 
d="M142 323v-323h-44v323h-98v40h98v304h396v-40h-352v-264h221v-40h-221z" />
    <glyph glyph-name="uni0493" unicode="&#x493;" horiz-adv-x="423" 
d="M84 266v212h327v-39h-284v-173h205v-39h-205v-227h-43v227h-56v39h56z" />
    <glyph glyph-name="uni049A" unicode="&#x49a;" horiz-adv-x="592" 
d="M548 39v-156h-39v117h-26l-341 314v-314h-44v667h43v-315l345 315h61l-368 -332l326 -296h43z" />
    <glyph glyph-name="uni049B" unicode="&#x49b;" horiz-adv-x="474" 
d="M444 39v-156h-39v117h-22l-257 232v-232h-43v478h43v-216l256 216h59l-274 -231l234 -208h43z" />
    <glyph glyph-name="uni04A2" unicode="&#x4a2;" horiz-adv-x="687" 
d="M555 39h38v-156h-39v117h-43v323h-369v-323h-44v667h44v-304h369v304h44v-628z" />
    <glyph glyph-name="uni04A3" unicode="&#x4a3;" horiz-adv-x="555" 
d="M460 39h38v-156h-39v117h-42v227h-290v-227h-43v478h43v-212h290v212h43v-439z" />
    <glyph glyph-name="uni04AE" unicode="&#x4ae;" horiz-adv-x="521" 
d="M510 667l-229 -373v-294h-43v294l-227 373h49l202 -331l200 331h48z" />
    <glyph glyph-name="uni04AF" unicode="&#x4af;" horiz-adv-x="446" 
d="M245 0v-191h-44l1 192l-175 477h45l150 -423l1 -2l1 2l150 423h45l-174 -477v-1z" />
    <glyph glyph-name="uni04B0" unicode="&#x4b0;" horiz-adv-x="521" 
d="M238 222v72l-227 373h49l202 -331l200 331h48l-229 -373v-72h157v-39h-157v-183h-43v183h-160v39h160z" />
    <glyph glyph-name="uni04B1" unicode="&#x4b1;" horiz-adv-x="446" 
d="M245 -80v-111h-44v111h-157v39h157v42l-174 477h45l150 -423l1 -3l1 3l150 423h45l-175 -477l1 -1v-41h159v-39h-159z" />
    <glyph glyph-name="uni04B8" unicode="&#x4b8;" horiz-adv-x="607" 
d="M311 477v-166q52 2 98 16q21 7 56 24v316h44v-667h-44v306q-68 -34 -154 -37v-173h-44v172q-99 3 -146 51q-23 23 -34 58.5t-13 65.5t-2 86v138h44v-144q0 -48 1.5 -73t11 -54t27.5 -47q35 -36 111 -39v167h44z" />
    <glyph glyph-name="uni04BA" unicode="&#x4ba;" horiz-adv-x="607" 
d="M98 667h44v-306q76 38 181 38q113 0 163 -51q23 -23 34 -58.5t13 -65.5t2 -86v-138h-44v144q0 48 -1.5 73t-11 54t-27.5 47q-38 39 -128 39q-70 0 -125 -17q-21 -7 -56 -24v-316h-44v667z" />
    <glyph glyph-name="uni04BB" unicode="&#x4bb;" horiz-adv-x="536" 
d="M460 0h-43v247q0 60 -1 82.5t-8 47.5t-22 39q-30 29 -101 29q-33 0 -58.5 -7.5t-42 -17t-28 -29.5t-17.5 -34.5t-8.5 -42.5t-3 -43t-0.5 -46v-13v-212h-43v697h43v-289q43 78 159 78q93 0 134 -41q27 -28 33.5 -64t6.5 -109v-17v-255z" />
    <glyph glyph-name="uni04C0" unicode="&#x4c0;" horiz-adv-x="240" 
d="M142 0h-44v667h44v-667z" />
    <glyph glyph-name="uni04CF" unicode="&#x4cf;" horiz-adv-x="240" 
d="M142 0h-44v667h44v-667z" />
    <glyph glyph-name="uni04D8" unicode="&#x4d8;" horiz-adv-x="665" 
d="M134 510l-44 8q10 52 33.5 84.5t75 52t133.5 19.5q53 0 93 -9t66.5 -20t44 -38t27 -46.5t14 -61.5t5 -67.5t0.5 -79.5v-18q0 -146 -10 -195q-21 -96 -106 -128q-52 -19 -134 -19q-73 0 -122 17.5t-74.5 39t-37.5 72t-14 85.5t-2 110v18v29h44h412q0 46 -1 70.5t-4.5 58.5
t-11.5 51t-23 37.5t-37 30t-54 16t-75 6.5q-97 0 -141 -30t-57 -93zM538 323h-412v-10q0 -85 3.5 -122.5t22 -81.5t62 -59.5t118.5 -15.5t118.5 15.5t62 59.5t22 81.5t3.5 122.5v10z" />
    <glyph glyph-name="afii10846" unicode="&#x4d9;" horiz-adv-x="530" 
d="M66 244h355q0 45 -2.5 72t-11 55t-25.5 42t-47 23t-74 9q-147 0 -147 -97h-40q0 138 188 138q66 0 106.5 -14.5t61.5 -48.5t27.5 -74.5t6.5 -107.5q0 -66 -6.5 -106.5t-26.5 -75.5t-60.5 -50.5t-105.5 -15.5q-53 0 -89.5 11.5t-58 30.5t-33 53t-15 68.5t-3.5 87.5z
M421 205h-313q0 -93 33 -132.5t124 -39.5q89 0 122.5 40t33.5 132z" />
    <glyph glyph-name="uni04E8" unicode="&#x4e8;" horiz-adv-x="664" 
d="M582 334q0 -146 -10 -195q-21 -96 -106 -128q-52 -19 -134 -19q-73 0 -122 17.5t-74.5 39t-37.5 72t-14 85.5t-2 110v18q0 145 10 194q21 95 105 127q52 19 135 19q73 0 122 -17t74.5 -38.5t37.5 -71.5t14 -85t2 -110v-18zM538 323h-412v-10v-53t1.5 -45.5t4 -42
t7.5 -35.5t12.5 -32t18.5 -24.5t26.5 -21t35 -13.5t44.5 -9.5t56 -2.5t56 2.5t44.5 9.5t35 13.5t26.5 21t18.5 24.5t12.5 32t7.5 35t4 42.5t1.5 46v52.5v3v3v4zM126 363h412q0 36 -0.5 56t-2 48.5t-5.5 43.5t-11 36t-17.5 31.5t-26 23t-36 18t-47 9.5t-60.5 4t-60.5 -4
t-47 -9.5t-36 -18t-26 -23t-17.5 -31.5t-11 -36t-5.5 -43.5t-2 -48.5t-0.5 -56z" />
    <glyph glyph-name="uni04E9" unicode="&#x4e9;" horiz-adv-x="542" 
d="M476 239q0 -63 -5.5 -100.5t-25 -74.5t-62.5 -54t-112 -17q-56 0 -95 12.5t-60.5 32t-32.5 54t-14 66t-3 81.5t3 81.5t14 66.5t32.5 54t60.5 32t95 13t94.5 -13t60 -32t33 -54t14.5 -66.5t3 -81.5zM433 219h-324q0 -51 5.5 -81t21.5 -56t49 -37t86 -11t86 11t49 37
t21.5 56t5.5 81zM109 259h324q0 51 -5.5 81t-21.5 56.5t-49 37.5t-86 11t-86 -11t-49 -37.5t-21.5 -56.5t-5.5 -81z" />
    <glyph glyph-name="Wgrave" unicode="&#x1e80;" horiz-adv-x="872" 
d="M822 667l-166 -667h-53l-167 609l-168 -609h-54l-164 667h45l148 -605l167 605h53l167 -605l149 605h43zM504 731h-51l-133 129h54z" />
    <glyph glyph-name="wgrave" unicode="&#x1e81;" horiz-adv-x="693" 
d="M664 478l-142 -478h-50l-125 425l-126 -425h-50l-142 478h45l123 -423l126 423h48l127 -423l122 423h44zM416 538h-51l-133 129h54z" />
    <glyph glyph-name="Wacute" unicode="&#x1e82;" horiz-adv-x="872" 
d="M822 667l-166 -667h-53l-167 609l-168 -609h-54l-164 667h45l148 -605l167 605h53l167 -605l149 605h43zM564 860l-133 -129h-51l130 129h54z" />
    <glyph glyph-name="wacute" unicode="&#x1e83;" horiz-adv-x="693" 
d="M664 478l-142 -478h-50l-125 425l-126 -425h-50l-142 478h45l123 -423l126 423h48l127 -423l122 423h44zM463 667l-133 -129h-51l130 129h54z" />
    <glyph glyph-name="Wdieresis" unicode="&#x1e84;" horiz-adv-x="872" 
d="M822 667l-166 -667h-53l-167 609l-168 -609h-54l-164 667h45l148 -605l167 605h53l167 -605l149 605h43zM575 828q0 -33 -33 -33q-32 0 -32 33q0 31 32 31q33 0 33 -31zM361 828q0 -33 -33 -33q-32 0 -32 33q0 31 32 31q33 0 33 -31z" />
    <glyph glyph-name="wdieresis" unicode="&#x1e85;" horiz-adv-x="693" 
d="M664 478l-142 -478h-50l-125 425l-126 -425h-50l-142 478h45l123 -423l126 423h48l127 -423l122 423h44zM486 636q0 -33 -33 -33q-32 0 -32 33q0 31 32 31q33 0 33 -31zM272 636q0 -33 -33 -33q-32 0 -32 33q0 31 32 31q33 0 33 -31z" />
    <glyph glyph-name="Ygrave" unicode="&#x1ef2;" horiz-adv-x="521" 
d="M510 667l-229 -373v-294h-43v294l-227 373h49l202 -331l200 331h48zM348 731h-51l-133 129h54z" />
    <glyph glyph-name="ygrave" unicode="&#x1ef3;" horiz-adv-x="536" 
d="M359 538h-51l-133 129h54zM80 -56h41q0 -50 31.5 -74t100.5 -24q107 0 139 66q9 18 13 42.5t4.5 46t0.5 67.5q-45 -76 -160 -76q-93 0 -134 41q-19 19 -28 47t-10.5 51.5t-1.5 74.5v17v255h43v-247q0 -60 1 -82.5t8 -47.5t22 -39q30 -29 101 -29q33 0 58.5 7.5t42 17
t28 29.5t17.5 34.5t8.5 42.5t3 43t0.5 46v13v212h43v-435q0 -102 -21 -148q-42 -89 -175 -89q-176 0 -176 138z" />
    <glyph glyph-name="uni2011" unicode="&#x2011;" horiz-adv-x="480" 
d="M386 220h-292v40h292v-40z" />
    <glyph glyph-name="figuredash" unicode="&#x2012;" horiz-adv-x="563" 
d="M520 220h-477v40h477v-40z" />
    <glyph glyph-name="endash" unicode="&#x2013;" horiz-adv-x="563" 
d="M520 220h-477v40h477v-40z" />
    <glyph glyph-name="emdash" unicode="&#x2014;" horiz-adv-x="1000" 
d="M900 220h-800v40h800v-40z" />
    <glyph glyph-name="afii00208" unicode="&#x2015;" horiz-adv-x="1000" 
d="M900 220h-800v40h800v-40z" />
    <glyph glyph-name="quoteleft" unicode="&#x2018;" horiz-adv-x="208" 
d="M176 649l-19 -18q-22 -21 -27.5 -39t-5.5 -54v-75h-42v75q0 45 8 69.5t34 46.5l25 22z" />
    <glyph glyph-name="quoteright" unicode="&#x2019;" horiz-adv-x="208" 
d="M126 667v-75q0 -45 -8 -69.5t-34 -46.5l-25 -22l-27 27l19 18q22 21 27.5 39t5.5 54v75h42z" />
    <glyph glyph-name="quotesinglbase" unicode="&#x201a;" horiz-adv-x="208" 
d="M126 60v-75q0 -45 -8 -69.5t-34 -46.5l-25 -22l-27 27q4 3 19 18q22 22 27.5 39.5t5.5 53.5v75h42z" />
    <glyph glyph-name="quotedblleft" unicode="&#x201c;" horiz-adv-x="370" 
d="M338 649l-19 -18q-22 -21 -27.5 -39t-5.5 -54v-75h-42v75q0 45 8 69.5t34 46.5l25 22zM176 649l-19 -18q-22 -21 -27.5 -39t-5.5 -54v-75h-42v75q0 45 8 69.5t34 46.5l25 22z" />
    <glyph glyph-name="quotedblright" unicode="&#x201d;" horiz-adv-x="370" 
d="M288 667v-75q0 -45 -8 -69.5t-34 -46.5l-25 -22l-27 27l19 18q22 21 27.5 39t5.5 54v75h42zM126 667v-75q0 -45 -8 -69.5t-34 -46.5l-25 -22l-27 27l19 18q22 21 27.5 39t5.5 54v75h42z" />
    <glyph glyph-name="quotedblbase" unicode="&#x201e;" horiz-adv-x="370" 
d="M288 60v-75q0 -45 -8 -69.5t-34 -46.5l-25 -22l-27 27l19 18q22 21 27.5 39t5.5 54v75h42zM126 60v-75q0 -45 -8 -69.5t-34 -46.5l-25 -22l-27 27l19 18q22 21 27.5 39t5.5 54v75h42z" />
    <glyph glyph-name="dagger" unicode="&#x2020;" horiz-adv-x="563" 
d="M453 439h-151v-530h-41v530h-151v39h151v189h41v-189h151v-39z" />
    <glyph glyph-name="daggerdbl" unicode="&#x2021;" horiz-adv-x="563" 
d="M453 204h-151v-295h-41v295h-151v39h151v196h-151v39h151v189h41v-189h151v-39h-151v-196h151v-39z" />
    <glyph glyph-name="bullet" unicode="&#x2022;" horiz-adv-x="500" 
d="M335 334q0 -44 -20 -63.5t-65 -19.5t-65 19.5t-20 63.5t20 64t65 20t65 -20t20 -64z" />
    <glyph glyph-name="ellipsis" unicode="&#x2026;" horiz-adv-x="1002" 
d="M870 27q0 -34 -35 -34t-35 34t34 34q36 0 36 -34zM535 27h1q0 -34 -35 -34t-35 34t34 34q35 0 35 -34zM201 27h1q0 -34 -35 -34t-35 34t34 34q35 0 35 -34z" />
    <glyph glyph-name="perthousand" unicode="&#x2030;" horiz-adv-x="1141" 
d="M307 467q0 -109 -10 -138q-23 -68 -115 -68t-115 68q-10 29 -10 138q0 75 2.5 103.5t11.5 46.5q27 56 111 56q83 0 110 -56q15 -30 15 -150zM270 467q0 99 -8 124q-13 45 -80 45t-80 -45q-8 -25 -8 -124q0 -112 11 -135q15 -36 77 -36t77 36q11 26 11 135zM766 200
q0 -109 -10 -138q-23 -68 -115 -68t-115 68q-10 29 -10 138q0 75 2.5 103.5t11.5 46.5q27 56 111 56q83 0 110 -56q15 -30 15 -150zM729 200q0 99 -8 124q-13 45 -80 45t-80 -45q-8 -25 -8 -124q0 -112 11 -135q15 -36 77 -36t77 36q11 26 11 135zM1083 200q0 -109 -10 -138
q-23 -68 -115 -68t-115 68q-10 29 -10 138q0 75 2.5 103.5t11.5 46.5q27 56 111 56q83 0 110 -56q15 -30 15 -150zM1046 200q0 99 -8 124q-13 45 -80 45t-80 -45q-8 -25 -8 -124q0 -112 11 -135q15 -36 77 -36t77 36q11 26 11 135zM599 667l-338 -667h-39l336 667h41z" />
    <glyph glyph-name="guilsinglleft" unicode="&#x2039;" horiz-adv-x="258" 
d="M179 433l28 -29l-18.5 -18.5t-22 -23t-20 -22.5t-21 -26t-15.5 -24.5t-12.5 -27t-3.5 -24.5t3.5 -25t12 -27t14.5 -24t20.5 -25.5t20 -21l22 -22l18.5 -18.5l-28 -28l-16.5 16.5l-19 19t-18 18.5t-18.5 21t-16 21t-15 23t-10.5 22.5t-8 24.5t-2.5 24q0 13 4 27.5
t8.5 26.5t15.5 28t17 25t21 25.5l20 22t21.5 22.5t18.5 19z" />
    <glyph glyph-name="guilsinglright" unicode="&#x203a;" horiz-adv-x="258" 
d="M51 404l28 29q2 -2 18.5 -19t21.5 -22.5l20 -22t21 -25.5t17 -25t15.5 -28t8.5 -26.5t4 -27.5q0 -12 -2.5 -24t-8 -24.5t-10.5 -22.5t-15 -23t-16 -21t-18.5 -21t-18 -18.5l-19 -19l-16.5 -16.5l-28 28l18.5 18.5l22 22t20 21t20.5 25.5t14.5 24t12 27t3.5 25t-3.5 24.5
t-12.5 27t-15.5 24.5t-21 26t-20 22.5t-22 23z" />
    <glyph glyph-name="fraction" unicode="&#x2044;" horiz-adv-x="94" 
d="M236 667l-338 -667h-39l336 667h41z" />
    <glyph glyph-name="zerosuperior" unicode="&#x2070;" 
d="M307 467q0 -48 -1.5 -73t-7.5 -55t-19 -44t-37 -24t-60 -10t-60 10t-37 24t-19 44t-7.5 55t-1.5 73t1.5 73t7.5 55t19 44t37 24t60 10t60 -10t37 -24t19 -44t7.5 -55t1.5 -73zM270 467q0 104 -14.5 137.5t-73.5 33.5t-73.5 -33.5t-14.5 -137.5q0 -105 14.5 -138t73.5 -33
t73.5 33t14.5 138z" />
    <glyph glyph-name="foursuperior" unicode="&#x2074;" 
d="M316 379h-62v-112h-37v112h-180v33l182 255h35v-256h62v-32zM217 411v198l-138 -198h138z" />
    <glyph glyph-name="fivesuperior" unicode="&#x2075;" 
d="M103 634v-145q26 31 85 31q67 0 93.5 -32t26.5 -100q0 -69 -28.5 -98t-99.5 -29q-61 0 -90 21.5t-30 72.5h35q0 -34 19.5 -46.5t65.5 -12.5q51 0 71 19t20 71q0 54 -16.5 77t-67.5 23q-83 0 -86 -52h-34v233h228v-33h-192z" />
    <glyph glyph-name="sixsuperior" unicode="&#x2076;" 
d="M299 578h-36q0 60 -77 60q-59 0 -75 -29.5t-18 -123.5q30 38 93 38q64 0 91.5 -31t27.5 -102q0 -67 -29 -98t-93 -31q-35 0 -59.5 10.5t-37.5 26t-20 43.5t-8.5 51t-1.5 61q0 51 1.5 78t8 59t20 47t38.5 25.5t62 10.5q113 0 113 -95zM269 390q0 55 -18 76.5t-62 21.5
q-93 0 -93 -95q0 -51 21 -74t66 -23q47 0 66.5 21t19.5 73z" />
    <glyph glyph-name="sevensuperior" unicode="&#x2077;" 
d="M311 637l-173 -370h-41l172 366h-203v34h245v-30z" />
    <glyph glyph-name="eightsuperior" unicode="&#x2078;" 
d="M308 378q0 -65 -30 -91t-96 -26t-95.5 26t-29.5 91q0 77 48 97q-27 11 -35.5 32t-8.5 60q0 58 27.5 82t93.5 24t94 -24t28 -82q0 -70 -43 -91q26 -10 36.5 -33t10.5 -65zM271 376q0 49 -20 65.5t-69 16.5q-50 0 -69 -16t-19 -65t19 -65t69 -16q49 0 69 16t20 64zM267 565
q0 41 -18 56.5t-67 15.5t-67 -15t-18 -55q0 -45 19.5 -60.5t65.5 -15.5q47 0 66 15t19 59z" />
    <glyph glyph-name="ninesuperior" unicode="&#x2079;" 
d="M66 356h36q0 -60 77 -60q60 0 76.5 30t16.5 123q-30 -38 -93 -38q-64 0 -91.5 31t-27.5 102q0 67 29 98t93 31q35 0 59.5 -10.5t37.5 -25.5t20 -43t8.5 -51t1.5 -61q0 -54 -1.5 -82t-8 -59.5t-20.5 -46t-38.5 -24t-61.5 -9.5q-113 0 -113 95zM96 544q0 -55 18 -76.5
t62 -21.5q93 0 93 95q0 51 -21 74t-66 23q-47 0 -66.5 -21t-19.5 -73z" />
    <glyph glyph-name="parenleftsuperior" unicode="&#x207d;" horiz-adv-x="200" 
d="M200 218v-36q-50 1 -77.5 16t-37.5 49q-17 61 -17 210q0 152 17 215q23 64 115 65v-36q-38 -1 -53.5 -8.5t-22.5 -24.5q-18 -45 -18 -210q0 -154 18 -208q7 -16 22.5 -23.5t53.5 -8.5z" />
    <glyph glyph-name="parenrightsuperior" unicode="&#x207e;" horiz-adv-x="200" 
d="M0 701v36q92 -1 115 -65q17 -63 17 -215q0 -149 -17 -210q-10 -34 -37.5 -49t-77.5 -16v36q38 1 53.5 8.5t22.5 23.5q18 54 18 208q0 165 -18 210q-7 17 -22.5 24.5t-53.5 8.5z" />
    <glyph glyph-name="zeroinferior" unicode="&#x2080;" 
d="M307 200q0 -48 -1.5 -73t-7.5 -55t-19 -44t-37 -24t-60 -10t-60 10t-37 24t-19 44t-7.5 55t-1.5 73t1.5 73t7.5 55t19 44t37 24t60 10t60 -10t37 -24t19 -44t7.5 -55t1.5 -73zM270 200q0 104 -14.5 137.5t-73.5 33.5t-73.5 -33.5t-14.5 -137.5q0 -105 14.5 -138t73.5 -33
t73.5 33t14.5 138z" />
    <glyph glyph-name="oneinferior" unicode="&#x2081;" 
d="M210 0h-38v349l-69 -63l-25 24l98 90h34v-400z" />
    <glyph glyph-name="twoinferior" unicode="&#x2082;" 
d="M92 314h-38q0 51 32 71.5t95 20.5q65 0 96 -25t31 -88q0 -27 -7.5 -47t-15.5 -31t-30.5 -21.5t-34 -14t-44.5 -12.5q-50 -13 -66.5 -28t-16.5 -59v-45h214v-35h-252v90q0 15 1.5 27t7 21.5t9.5 16.5t14 13.5t14.5 10.5t19 8.5t19.5 6t22.5 6.5t21.5 6q23 7 35 11.5t26 14
t20 24.5t6 37q0 44 -20.5 61t-68.5 17q-47 0 -68.5 -12t-21.5 -45z" />
    <glyph glyph-name="threeinferior" unicode="&#x2083;" 
d="M94 312h-37q0 51 32 72.5t95 21.5q67 0 96.5 -24t29.5 -82q0 -36 -9 -57t-37 -32q50 -18 50 -102q0 -65 -32.5 -90t-99.5 -25q-64 0 -96 21t-32 73h38q1 -33 21.5 -46t68.5 -13q54 0 74.5 14t20.5 65q0 52 -20.5 69t-72.5 17h-64v34h64q47 0 68 13t21 57q0 43 -18 58
t-71 15q-48 0 -69 -13t-21 -46z" />
    <glyph glyph-name="fourinferior" unicode="&#x2084;" 
d="M316 112h-62v-112h-37v112h-180v33l182 255h35v-256h62v-32zM217 144v198l-138 -198h138z" />
    <glyph glyph-name="fiveinferior" unicode="&#x2085;" 
d="M103 367v-145q26 31 85 31q67 0 93.5 -32t26.5 -100q0 -69 -28.5 -98t-99.5 -29q-61 0 -90 21.5t-30 72.5h35q0 -34 19.5 -46.5t65.5 -12.5q51 0 71 19t20 71q0 54 -16.5 77t-67.5 23q-83 0 -86 -52h-34v233h228v-33h-192z" />
    <glyph glyph-name="sixinferior" unicode="&#x2086;" 
d="M299 311h-36q0 60 -77 60q-59 0 -75 -29.5t-18 -123.5q30 38 93 38q64 0 91.5 -31t27.5 -102q0 -67 -29 -98t-93 -31q-35 0 -59.5 10.5t-37.5 26t-20 43.5t-8.5 51t-1.5 61q0 51 1.5 78t8 59t20 47t38.5 25.5t62 10.5q113 0 113 -95zM269 123q0 55 -18 76.5t-62 21.5
q-93 0 -93 -95q0 -51 21 -74t66 -23q47 0 66.5 21t19.5 73z" />
    <glyph glyph-name="seveninferior" unicode="&#x2087;" 
d="M311 370l-173 -370h-41l172 366h-203v34h245v-30z" />
    <glyph glyph-name="eightinferior" unicode="&#x2088;" 
d="M308 111q0 -65 -30 -91t-96 -26t-95.5 26t-29.5 91q0 77 48 97q-27 11 -35.5 32t-8.5 60q0 58 27.5 82t93.5 24t94 -24t28 -82q0 -70 -43 -91q26 -10 36.5 -33t10.5 -65zM271 109q0 49 -20 65.5t-69 16.5q-50 0 -69 -16t-19 -65t19 -65t69 -16q49 0 69 16t20 64zM267 298
q0 41 -18 56.5t-67 15.5t-67 -15t-18 -55q0 -45 19.5 -60.5t65.5 -15.5q47 0 66 15t19 59z" />
    <glyph glyph-name="nineinferior" unicode="&#x2089;" 
d="M66 89h36q0 -60 77 -60q60 0 76.5 30t16.5 123q-30 -38 -93 -38q-64 0 -91.5 31t-27.5 102q0 67 29 98t93 31q35 0 59.5 -10.5t37.5 -25.5t20 -43t8.5 -51t1.5 -61q0 -54 -1.5 -82t-8 -59.5t-20.5 -46t-38.5 -24t-61.5 -9.5q-113 0 -113 95zM96 277q0 -55 18 -76.5
t62 -21.5q93 0 93 95q0 51 -21 74t-66 23q-47 0 -66.5 -21t-19.5 -73z" />
    <glyph glyph-name="parenleftinferior" unicode="&#x208d;" horiz-adv-x="200" 
d="M200 -49v-36q-50 1 -77.5 16t-37.5 49q-17 61 -17 210q0 152 17 215q23 64 115 65v-36q-38 -1 -53.5 -8.5t-22.5 -24.5q-18 -45 -18 -210q0 -154 18 -208q7 -16 22.5 -23.5t53.5 -8.5z" />
    <glyph glyph-name="parenrightinferior" unicode="&#x208e;" horiz-adv-x="200" 
d="M0 434v36q92 -1 115 -65q17 -63 17 -215q0 -149 -17 -210q-10 -34 -37.5 -49t-77.5 -16v36q38 1 53.5 8.5t22.5 23.5q18 54 18 208q0 165 -18 210q-7 17 -22.5 24.5t-53.5 8.5z" />
    <glyph glyph-name="franc" unicode="&#x20a3;" horiz-adv-x="922" 
d="M494 627h-352v-264h343v-40h-343v-323h-44v667h396v-40zM910 234h-40q0 54 -28 75t-84 21q-26 0 -47 -4.5t-35.5 -16t-25 -22t-17 -30.5t-10.5 -33t-5.5 -39t-1.5 -38v-39v-16v-92h-43v363h41v-70q42 78 148 78q148 0 148 -137z" />
    <glyph glyph-name="lira" unicode="&#x20a4;" horiz-adv-x="562" 
d="M64 204v39h56v72h-56v39h56v107v29q0 98 38 135q51 49 156 49q33 0 55.5 -2t50.5 -9.5t44.5 -22t28 -42t11.5 -65.5h-42q0 32 -10 53.5t-31 31t-43 13t-54 3.5q-99 0 -136 -40q-25 -26 -25 -99v-31v-110h295v-39h-295v-72h295v-39h-295v-164h350v-40h-449v40h56v164h-56z
" />
    <glyph glyph-name="peseta" unicode="&#x20a7;" horiz-adv-x="1540" 
d="M98 667h215q41 0 60.5 -0.5t51 -3.5t46.5 -10t34.5 -19.5t28.5 -31.5t15.5 -47.5t6.5 -66.5q0 -29 -4 -52.5t-9.5 -41.5t-17.5 -31t-22 -22.5t-29 -15.5t-33 -9t-39.5 -4.5t-42 -2t-46.5 -0.5h-171v-309h-44v667zM142 349h167h16q32 0 47 0.5t39.5 3t35.5 7.5t26.5 15
t22 25t11.5 37t5 52q0 41 -10 68t-22.5 41t-42 21t-50 8t-64.5 1h-14h-167v-279zM974 131h40q0 -138 -154 -138q-76 0 -113 32t-37 106v308h-82v39h82v189h43v-189h221v-39h-221v-308q0 -56 25.5 -77t83.5 -21t85 22.5t27 75.5zM1479 349h-41q0 52 -29.5 74.5t-106.5 22.5
q-83 0 -117.5 -20.5t-35.5 -69.5q-1 -52 18 -67.5t76 -21.5q23 -2 62 -4t58.5 -4t46 -9t39 -19.5t22 -36.5t9.5 -59q0 -77 -47.5 -110t-148.5 -32t-143 31t-42 107h40q0 -56 30.5 -77t113.5 -21t118.5 22.5t35.5 77.5q0 47 -19 64t-79 22q-22 2 -62 4t-58.5 3.5t-44.5 8.5
t-38 19.5t-21 36t-9 57.5q0 77 46 108t149 30q107 0 147 -41q31 -33 31 -96z" />
    <glyph glyph-name="Euro" unicode="&#x20ac;" horiz-adv-x="562" 
d="M460 135h42q0 -80 -50 -111t-138 -31q-47 0 -81.5 8.5t-56 27.5t-35 40t-19.5 55t-8 62.5t-2 72.5h-52v39h52v72h-52v39h52q0 45 2 73.5t8 62.5t19.5 54.5t35.5 39t56.5 27t80.5 8.5q41 0 72.5 -6t59 -21t42 -43.5t14.5 -70.5h-42q0 59 -39.5 80t-106.5 21
q-33 0 -58.5 -6.5t-42.5 -15.5t-28.5 -28t-17 -33.5t-8.5 -43t-3.5 -46t-0.5 -52.5h182v-39h-182v-72h182v-39h-182v-7q0 -108 15 -146q31 -72 144 -72q67 0 106.5 21t39.5 80z" />
    <glyph glyph-name="afii61289" unicode="&#x2113;" horiz-adv-x="500" 
d="M249 269q-33 -171 -33 -208q0 -25 18 -25q26 0 51 54q8 18 19 18q13 0 13 -15q0 -23 -26 -60q-37 -47 -76 -47q-31 0 -49 23.5t-18 64.5q0 36 10 127q-41 -38 -49 -38q-5 0 -9.5 5t-4.5 11q0 10 20 27q23 20 50 52q41 216 89 318t108 102q29 0 46 -22t17 -59
q0 -87 -64 -192q-36 -58 -112 -136zM260 333q125 140 125 260q0 44 -23 44q-11 0 -22.5 -12.5t-18.5 -31.5q-31 -86 -61 -260z" />
    <glyph glyph-name="afii61352" unicode="&#x2116;" horiz-adv-x="1030" 
d="M964 319q0 -92 -27.5 -131t-121.5 -39t-121.5 39t-27.5 131q0 46 4.5 72.5t19 50t45 33.5t80.5 10t80.5 -10t45 -33.5t19 -50t4.5 -72.5zM954 0h-278v39h278v-39zM553 0h-56l-356 606v-606h-43v667h54l358 -605v605h43v-667zM923 319q0 75 -18.5 101t-89.5 26t-89.5 -26
t-18.5 -101q0 -76 18.5 -103.5t89.5 -27.5t89.5 27.5t18.5 103.5z" />
    <glyph glyph-name="uni211E" unicode="&#x211e;" horiz-adv-x="564" 
d="M256 237q-41 56 -57.5 68.5t-51.5 12.5q-38 0 -53 -14.5t-15 -66.5q0 -27 4.5 -43.5t15 -24t21 -9.5t27.5 -2q23 0 42.5 11.5t31.5 24.5t35 43zM416 125q-40 0 -69 19t-67 67q-36 -47 -64.5 -66.5t-68.5 -19.5q-49 0 -76.5 23.5t-27.5 88.5q0 64 27 89t76 25
q45 0 71.5 -17.5t62.5 -71.5q40 56 66 72.5t71 16.5q49 0 76 -25t27 -89q0 -65 -27.5 -88.5t-76.5 -23.5zM305 237q5 -5 14.5 -16.5t13 -15.5t11 -12.5t11.5 -11t10.5 -8t11 -7t11.5 -4.5t13.5 -3.5t14.5 -0.5q17 0 27.5 2t21 9.5t15 24t4.5 43.5q0 52 -15 66.5t-53 14.5
q-36 0 -53 -12.5t-58 -68.5z" />
    <glyph glyph-name="trademark" unicode="&#x2122;" horiz-adv-x="848" 
d="M758 233h-36v379l-138 -379h-46l-136 379v-379h-37v434h54l142 -393l144 393h53v-434zM324 633h-134v-400h-39v400h-135v34h308v-34z" />
    <glyph glyph-name="uni2126" unicode="&#x2126;" horiz-adv-x="666" 
d="M584 0h-191v40q80 10 113 57q20 29 26.5 74t6.5 165v20v57.5t-2 50t-5.5 45.5t-10.5 36.5t-17 32.5t-25.5 23t-36 18.5t-48 9.5t-61.5 4q-61 0 -100.5 -13.5t-61 -30t-31.5 -59.5t-11.5 -73.5t-1.5 -100.5v-20q0 -119 7 -164.5t27 -74.5q33 -47 113 -57v-40h-191v40h86
q-59 32 -72.5 90t-13.5 184v23q0 145 10 193q21 94 103 125q53 19 137 19q53 0 92.5 -8.5t66.5 -20t44.5 -37.5t27 -45.5t14 -61t5 -67t0.5 -79.5v-18q0 -143 -8 -185q-15 -79 -77 -112h86v-40z" />
    <glyph glyph-name="estimated" unicode="&#x212e;" horiz-adv-x="798" 
d="M769 311h-599q-6 0 -6 -4v-181q0 -10 9 -21q93 -98 227 -98q70 0 131.5 29.5t106.5 80.5h54q-51 -60 -128.5 -95t-164.5 -35q-153 0 -261.5 97.5t-108.5 235.5q0 137 108.5 234.5t261.5 97.5t261.5 -97.5t108.5 -234.5v-9zM634 335v181q0 12 -10 22q-92 94 -224 94
t-226 -97q-10 -10 -10 -23v-177q0 -5 6 -5h459q5 0 5 5z" />
    <glyph glyph-name="onethird" unicode="&#x2153;" horiz-adv-x="824" 
d="M553 312h-37q0 51 32 72.5t95 21.5q67 0 96.5 -24t29.5 -82q0 -36 -9 -57t-37 -32q50 -18 50 -102q0 -65 -32.5 -90t-99.5 -25q-64 0 -96 21t-32 73h38q1 -33 21.5 -46t68.5 -13q54 0 74.5 14t20.5 65q0 52 -20.5 69t-72.5 17h-64v34h64q47 0 68 13t21 57q0 43 -18 58
t-71 15q-48 0 -69 -13t-21 -46zM599 667l-338 -667h-39l336 667h41zM210 267h-38v349l-69 -63l-25 24l98 90h34v-400z" />
    <glyph glyph-name="twothirds" unicode="&#x2154;" horiz-adv-x="824" 
d="M593 667l-338 -667h-39l336 667h41zM553 312h-37q0 51 32 72.5t95 21.5q67 0 96.5 -24t29.5 -82q0 -36 -9 -57t-37 -32q50 -18 50 -102q0 -65 -32.5 -90t-99.5 -25q-64 0 -96 21t-32 73h38q1 -33 21.5 -46t68.5 -13q54 0 74.5 14t20.5 65q0 52 -20.5 69t-72.5 17h-64v34
h64q47 0 68 13t21 57q0 43 -18 58t-71 15q-48 0 -69 -13t-21 -46zM92 581h-38q0 51 32 71.5t95 20.5q65 0 96 -25t31 -88q0 -27 -7.5 -47t-15.5 -31t-30.5 -21.5t-34 -14t-44.5 -12.5q-50 -13 -66.5 -28t-16.5 -59v-45h214v-35h-252v90q0 15 1.5 27t7 21.5t9.5 16.5t14 13.5
t14.5 10.5t19 8.5t19.5 6t22.5 6.5t21.5 6q23 7 35 11.5t26 14t20 24.5t6 37q0 44 -20.5 61t-68.5 17q-47 0 -68.5 -12t-21.5 -45z" />
    <glyph glyph-name="oneeighth" unicode="&#x215b;" horiz-adv-x="824" 
d="M767 111q0 -65 -30 -91t-96 -26t-95.5 26t-29.5 91q0 77 48 97q-27 11 -35.5 32t-8.5 60q0 58 27.5 82t93.5 24t94 -24t28 -82q0 -70 -43 -91q26 -10 36.5 -33t10.5 -65zM730 109q0 49 -20 65.5t-69 16.5q-50 0 -69 -16t-19 -65t19 -65t69 -16q49 0 69 16t20 64zM726 298
q0 41 -18 56.5t-67 15.5t-67 -15t-18 -55q0 -45 19.5 -60.5t65.5 -15.5q47 0 66 15t19 59zM599 667l-338 -667h-39l336 667h41zM210 267h-38v349l-69 -63l-25 24l98 90h34v-400z" />
    <glyph glyph-name="threeeighths" unicode="&#x215c;" horiz-adv-x="824" 
d="M767 111q0 -65 -30 -91t-96 -26t-95.5 26t-29.5 91q0 77 48 97q-27 11 -35.5 32t-8.5 60q0 58 27.5 82t93.5 24t94 -24t28 -82q0 -70 -43 -91q26 -10 36.5 -33t10.5 -65zM730 109q0 49 -20 65.5t-69 16.5q-50 0 -69 -16t-19 -65t19 -65t69 -16q49 0 69 16t20 64zM726 298
q0 41 -18 56.5t-67 15.5t-67 -15t-18 -55q0 -45 19.5 -60.5t65.5 -15.5q47 0 66 15t19 59zM94 579h-37q0 51 32 72.5t95 21.5q67 0 96.5 -24t29.5 -82q0 -36 -9 -57t-37 -32q50 -18 50 -102q0 -65 -32.5 -90t-99.5 -25q-64 0 -96 21t-32 73h38q1 -33 21.5 -46t68.5 -13
q54 0 74.5 14t20.5 65q0 52 -20.5 69t-72.5 17h-64v34h64q47 0 68 13t21 57q0 43 -18 58t-71 15q-48 0 -69 -13t-21 -46zM599 667l-338 -667h-39l336 667h41z" />
    <glyph glyph-name="fiveeighths" unicode="&#x215d;" horiz-adv-x="824" 
d="M767 111q0 -65 -30 -91t-96 -26t-95.5 26t-29.5 91q0 77 48 97q-27 11 -35.5 32t-8.5 60q0 58 27.5 82t93.5 24t94 -24t28 -82q0 -70 -43 -91q26 -10 36.5 -33t10.5 -65zM730 109q0 49 -20 65.5t-69 16.5q-50 0 -69 -16t-19 -65t19 -65t69 -16q49 0 69 16t20 64zM726 298
q0 41 -18 56.5t-67 15.5t-67 -15t-18 -55q0 -45 19.5 -60.5t65.5 -15.5q47 0 66 15t19 59zM103 634v-145q26 31 85 31q67 0 93.5 -32t26.5 -100q0 -69 -28.5 -98t-99.5 -29q-61 0 -90 21.5t-30 72.5h35q0 -34 19.5 -46.5t65.5 -12.5q51 0 71 19t20 71q0 54 -16.5 77
t-67.5 23q-83 0 -86 -52h-34v233h228v-33h-192zM599 667l-338 -667h-39l336 667h41z" />
    <glyph glyph-name="seveneighths" unicode="&#x215e;" horiz-adv-x="824" 
d="M311 637l-173 -370h-41l172 366h-203v34h245v-30zM767 111q0 -65 -30 -91t-96 -26t-95.5 26t-29.5 91q0 77 48 97q-27 11 -35.5 32t-8.5 60q0 58 27.5 82t93.5 24t94 -24t28 -82q0 -70 -43 -91q26 -10 36.5 -33t10.5 -65zM730 109q0 49 -20 65.5t-69 16.5q-50 0 -69 -16
t-19 -65t19 -65t69 -16q49 0 69 16t20 64zM726 298q0 41 -18 56.5t-67 15.5t-67 -15t-18 -55q0 -45 19.5 -60.5t65.5 -15.5q47 0 66 15t19 59zM599 667l-338 -667h-39l336 667h41z" />
    <glyph glyph-name="arrowleft" unicode="&#x2190;" horiz-adv-x="720" 
d="M685 306h-575l280 -278l-28 -28l-326 326l326 325l28 -28l-280 -277h575v-40z" />
    <glyph glyph-name="arrowup" unicode="&#x2191;" horiz-adv-x="721" 
d="M686 323l-28 -28l-277 280v-575h-40v575l-278 -280l-28 28l325 326z" />
    <glyph glyph-name="arrowright" unicode="&#x2192;" horiz-adv-x="720" 
d="M685 326l-326 -326l-28 28l280 278h-575v40h575l-280 277l28 28z" />
    <glyph glyph-name="arrowdown" unicode="&#x2193;" horiz-adv-x="720" 
d="M686 326l-325 -326l-326 326l28 28l278 -280v575h40v-575l277 280z" />
    <glyph glyph-name="uni2196" unicode="&#x2196;" horiz-adv-x="721" 
d="M597 223l-28 -28l-407 407l1 -395h-39v460h460v-38l-394 1z" />
    <glyph glyph-name="uni2197" unicode="&#x2197;" horiz-adv-x="721" 
d="M597 667l-1 -460h-35l-3 10l1 385l-407 -407l-28 28l407 407l-394 -1v38h460z" />
    <glyph glyph-name="uni2198" unicode="&#x2198;" horiz-adv-x="720" 
d="M596 0h-460v39l395 -1l-407 407l28 28l407 -407l-1 395h38v-461z" />
    <glyph glyph-name="uni2199" unicode="&#x2199;" horiz-adv-x="720" 
d="M596 444l-407 -407l394 2v-39h-459v461h38l-1 -395l406 407z" />
    <glyph glyph-name="partialdiff" unicode="&#x2202;" horiz-adv-x="553" 
d="M155 706l231 -234q54 -55 70.5 -99t17.5 -134q0 -66 -7 -107t-28 -75t-62 -49t-107 -15q-53 0 -90 10.5t-59.5 29t-34.5 51t-16 67.5t-4 88q0 48 3 81t14 67t31.5 54t55.5 32.5t85 12.5q43 0 73 -8l-202 202zM431 239q0 114 -39.5 159.5t-135.5 46.5q-41 0 -69 -10.5
t-43.5 -27t-23.5 -46t-10 -55t-2 -67.5q0 -47 2 -74t10.5 -56t26 -43t47.5 -23.5t76 -9.5q56 0 89 12t48.5 42t19.5 61.5t4 90.5z" />
    <glyph glyph-name="Delta" unicode="&#x2206;" horiz-adv-x="607" 
d="M86 40h433l-216 575zM26 0l254 667h46l255 -667h-555z" />
    <glyph glyph-name="product" unicode="&#x220f;" horiz-adv-x="649" 
d="M552 0h-44v627h-369v-627h-44v627h-81v40h620v-40h-82v-627z" />
    <glyph glyph-name="summation" unicode="&#x2211;" horiz-adv-x="517" 
d="M492 0h-456v40l261 303l-261 284v40h456v-40h-401l260 -283l-262 -304h403v-40z" />
    <glyph glyph-name="minus" unicode="&#x2212;" horiz-adv-x="563" 
d="M520 220h-477v40h477v-40z" />
    <glyph glyph-name="uni2215" unicode="&#x2215;" horiz-adv-x="94" 
d="M236 667l-338 -667h-39l336 667h41z" />
    <glyph glyph-name="radical" unicode="&#x221a;" horiz-adv-x="721" 
d="M717 827v-37h-237l-218 -790h-66l-90 325h-102v37h135l90 -330l217 795h271z" />
    <glyph glyph-name="infinity" unicode="&#x221e;" horiz-adv-x="564" 
d="M256 237q-41 56 -57.5 68.5t-51.5 12.5q-38 0 -53 -14.5t-15 -66.5q0 -27 4.5 -43.5t15 -24t21 -9.5t27.5 -2q23 0 42.5 11.5t31.5 24.5t35 43zM416 125q-40 0 -69 19t-67 67q-36 -47 -64.5 -66.5t-68.5 -19.5q-49 0 -76.5 23.5t-27.5 88.5q0 64 27 89t76 25
q45 0 71.5 -17.5t62.5 -71.5q40 56 66 72.5t71 16.5q49 0 76 -25t27 -89q0 -65 -27.5 -88.5t-76.5 -23.5zM305 237q5 -5 14.5 -16.5t13 -15.5t11 -12.5t11.5 -11t10.5 -8t11 -7t11.5 -4.5t13.5 -3.5t14.5 -0.5q17 0 27.5 2t21 9.5t15 24t4.5 43.5q0 52 -15 66.5t-53 14.5
q-36 0 -53 -12.5t-58 -68.5z" />
    <glyph glyph-name="integral" unicode="&#x222b;" horiz-adv-x="414" 
d="M-195 -83h41q0 -70 116 -70q60 0 89.5 20t29.5 76v624q0 66 34 99q39 38 126 38q70 0 114.5 -26t44.5 -85h-41q0 70 -116 70q-60 0 -89.5 -20t-29.5 -76v-624q0 -66 -34 -99q-39 -38 -126 -38q-70 0 -114.5 26t-44.5 85z" />
    <glyph glyph-name="approxequal" unicode="&#x2248;" horiz-adv-x="562" 
d="M527 358l-79 -50q-34 -22 -79 -22q-42 0 -74 20q-14 9 -54 32q-23 14 -49 14q-28 0 -54 -16l-79 -48l-24 33l79 49q34 22 80 22q42 0 73 -19q4 -3 24 -15t28.5 -16.5t24.5 -10t30 -5.5q24 0 50 16l81 50zM527 164l-79 -50q-34 -22 -79 -22q-44 0 -74 20q-11 7 -30.5 18
t-23.5 13q-23 14 -49 14q-27 0 -54 -15l-79 -48l-24 33l79 49q34 22 80 22q42 0 73 -19q5 -3 19.5 -12t22 -13t20 -10t23.5 -8.5t22 -2.5q25 0 50 15l81 50z" />
    <glyph glyph-name="notequal" unicode="&#x2260;" horiz-adv-x="562" 
d="M524 124h-333l-126 -124l-26 28l97 96h-98v40h139l156 153h-295v40h336l124 121l26 -28l-95 -93h95v-40h-136l-155 -153h291v-40z" />
    <glyph glyph-name="lessequal" unicode="&#x2264;" horiz-adv-x="562" 
d="M524 131l-16 -38l-466 193v40l466 191l16 -38l-430 -172zM525 0h-488v39h488v-39z" />
    <glyph glyph-name="greaterequal" unicode="&#x2265;" horiz-adv-x="562" 
d="M520 286l-465 -193l-17 38l431 176l-431 172l17 38l465 -191v-40zM525 0h-488v39h488v-39z" />
    <glyph glyph-name="dotmath" unicode="&#x22c5;" horiz-adv-x="209" 
d="M139 335q0 -34 -35 -34q-34 0 -34 34t34 34q35 0 35 -34z" />
    <glyph glyph-name="lozenge" unicode="&#x25ca;" horiz-adv-x="632" 
d="M290 667h50l250 -333l-250 -334h-50l-245 334zM315 631l-218 -297l218 -298l223 298z" />
    <glyph glyph-name="commaaccent" unicode="&#xf6c3;" horiz-adv-x="410" 
d="M229 -44v-33q0 -35 -6.5 -53t-29.5 -39l-32 -30l-29 29l34 31q14 12 17.5 23.5t3.5 37.5v34h42z" />
    <glyph glyph-name="Acute" unicode="&#xf6c9;" horiz-adv-x="402" 
d="M293 860l-133 -129h-51l130 129h54z" />
    <glyph glyph-name="Caron" unicode="&#xf6ca;" horiz-adv-x="415" 
d="M361 862l-133 -129h-41l-132 129h51l101 -100l102 100h52z" />
    <glyph glyph-name="Dieresis" unicode="&#xf6cb;" horiz-adv-x="416" 
d="M348 828q0 -33 -33 -33q-32 0 -32 33q0 31 32 31q33 0 33 -31zM134 828q0 -33 -33 -33q-32 0 -32 33q0 31 32 31q33 0 33 -31z" />
    <glyph glyph-name="Grave" unicode="&#xf6ce;" horiz-adv-x="402" 
d="M293 731h-51l-133 129h54z" />
    <glyph glyph-name="Hungarumlaut" unicode="&#xf6cf;" horiz-adv-x="415" 
d="M408 862l-126 -126h-53l127 126h52zM239 862l-126 -126h-53l127 126h52z" />
    <glyph glyph-name="Macron" unicode="&#xf6d0;" horiz-adv-x="415" 
d="M368 807h-320v38h320v-38z" />
    <glyph glyph-name="zerooldstyle" unicode="&#xf730;" horiz-adv-x="561" 
d="M484 333q0 -185 -16 -231q-36 -109 -188 -109q-151 0 -187 109q-16 46 -16 231q0 126 4.5 174t19.5 79q43 88 179 88t179 -88q15 -31 20 -80t5 -173zM441 333q0 171 -14 216q-14 44 -48 64.5t-99 20.5t-98.5 -20.5t-47.5 -64.5q-14 -45 -14 -216q0 -189 19 -232
q15 -35 48 -51.5t93 -16.5t93 16.5t48 51.5q20 45 20 232z" />
    <glyph glyph-name="oneoldstyle" unicode="&#xf731;" horiz-adv-x="448" 
d="M264 0h-43v614l-138 -124l-28 28l168 149h41v-667z" />
    <glyph glyph-name="twooldstyle" unicode="&#xf732;" horiz-adv-x="550" 
d="M127 533h-42q0 77 48 109t147 32q101 0 149 -39q51 -41 51 -146q0 -90 -48 -137q-22 -21 -62.5 -38t-90.5 -32.5t-66 -22.5q-53 -22 -69 -49t-16 -83v-87h350v-40h-393v146q0 61 29.5 95.5t87.5 56.5q15 6 65.5 21.5t84.5 31t51 33.5q34 35 34 105q0 56 -16 88
q-29 57 -139 57q-81 0 -118 -22.5t-37 -78.5z" />
    <glyph glyph-name="threeoldstyle" unicode="&#xf733;" horiz-adv-x="551" 
d="M114 533h-42q0 77 49 109t149 32q108 0 153 -38.5t45 -132.5q0 -62 -19.5 -101t-72.5 -55q55 -14 76.5 -54t21.5 -111q0 -105 -49.5 -147t-156.5 -42q-96 0 -146 31.5t-50 110.5h42q0 -55 36.5 -78.5t117.5 -23.5q89 0 126 30t37 116q0 93 -39 122q-34 25 -122 25h-94v41
h94q85 0 120 26.5t35 107.5q0 77 -32.5 105t-122.5 28q-82 0 -119 -23t-37 -78z" />
    <glyph glyph-name="fouroldstyle" unicode="&#xf734;" horiz-adv-x="552" 
d="M494 199h-98v-199h-43v199h-299v39l297 429h45v-428h98v-40zM353 239v361l-249 -361h249z" />
    <glyph glyph-name="fiveoldstyle" unicode="&#xf735;" horiz-adv-x="562" 
d="M138 627v-261q40 52 153 52q108 0 150 -52.5t42 -162.5q0 -113 -46.5 -161.5t-159.5 -48.5q-97 0 -144 32.5t-47 109.5h41q0 -56 34.5 -78.5t115.5 -22.5q92 0 127.5 35.5t35.5 129.5q0 96 -29.5 137t-121.5 41q-148 0 -152 -88h-40v378h364v-40h-323z" />
    <glyph glyph-name="sixoldstyle" unicode="&#xf736;" horiz-adv-x="559" 
d="M472 533h-42q0 101 -142 101q-67 0 -102 -20t-49 -65q-16 -53 -16 -218q48 87 167 87q105 0 149.5 -49t44.5 -165q0 -110 -47.5 -160.5t-150.5 -50.5q-146 0 -186 109q-21 58 -21 203q0 165 13 236q12 69 60.5 101t136.5 32q185 0 185 -141zM440 203q0 98 -32.5 136
t-114.5 38q-168 0 -168 -169q0 -92 38 -133t120 -41q85 0 121 38t36 131z" />
    <glyph glyph-name="sevenoldstyle" unicode="&#xf737;" horiz-adv-x="455" 
d="M427 628l-291 -628h-47l292 627h-352v40h398v-39z" />
    <glyph glyph-name="eightoldstyle" unicode="&#xf738;" horiz-adv-x="562" 
d="M485 181q0 -105 -48.5 -146.5t-155.5 -41.5t-155.5 41.5t-48.5 146.5q0 75 24.5 114t78.5 52q-58 15 -77.5 51.5t-19.5 104.5q0 94 45 132.5t153 38.5t153 -38.5t45 -132.5q0 -66 -19.5 -103.5t-76.5 -52.5q54 -13 78 -52t24 -114zM436 501q0 77 -32.5 105t-122.5 28
t-122.5 -28t-32.5 -103q0 -82 35 -109.5t120 -27.5q86 0 120.5 26.5t34.5 108.5zM442 178q0 88 -36 118t-125 30q-92 0 -126.5 -28.5t-34.5 -118.5q0 -88 34.5 -116.5t126.5 -28.5q90 0 125.5 28.5t35.5 115.5z" />
    <glyph glyph-name="nineoldstyle" unicode="&#xf739;" horiz-adv-x="557" 
d="M85 134h42q0 -101 142 -101q67 0 102 20t49 65q16 53 16 218q-48 -87 -167 -87q-105 0 -149.5 49t-44.5 165q0 110 47.5 160.5t150.5 50.5q146 0 186 -109q21 -59 21 -203q0 -165 -13 -236q-12 -69 -60.5 -101t-136.5 -32q-185 0 -185 141zM432 459q0 92 -38 133t-120 41
q-85 0 -121 -38t-36 -131q0 -98 32.5 -136t114.5 -38q168 0 168 169z" />
    <glyph glyph-name="one.fitted" horiz-adv-x="550" 
d="M311 0h-43v614l-138 -124l-28 28l168 149h41v-667z" />
    <glyph glyph-name="two.fitted" horiz-adv-x="550" 
d="M124 533h-42q0 77 48 109t147 32q101 0 149 -39q51 -41 51 -146q0 -90 -48 -137q-22 -21 -62.5 -38t-90.5 -32.5t-66 -22.5q-53 -22 -69 -49t-16 -83v-87h350v-40h-393v146q0 61 29.5 95.5t87.5 56.5q15 6 65.5 21.5t84.5 31t51 33.5q34 35 34 105q0 56 -16 88
q-28 57 -139 57q-81 0 -118 -22.5t-37 -78.5z" />
    <glyph glyph-name="three.fitted" horiz-adv-x="550" 
d="M108 533h-42q0 77 49 109t149 32q108 0 153 -38.5t45 -132.5q0 -62 -19.5 -101t-72.5 -55q55 -14 76.5 -54t21.5 -111q0 -105 -49.5 -147t-156.5 -42q-96 0 -146 31.5t-50 110.5h42q0 -55 36.5 -78.5t117.5 -23.5q89 0 126 30t37 116q0 93 -39 122q-34 25 -122 25h-94v41
h94q85 0 120 26.5t35 107.5q0 77 -32.5 105t-122.5 28q-82 0 -119 -23t-37 -78z" />
    <glyph glyph-name="four.fitted" horiz-adv-x="550" 
d="M492 199h-98v-199h-43v199h-299v39l297 429h45v-428h98v-40zM351 239v361l-249 -361h249z" />
    <glyph glyph-name="five.fitted" horiz-adv-x="550" 
d="M136 627v-261q40 52 153 52q108 0 150 -52.5t42 -162.5q0 -113 -46.5 -161.5t-159.5 -48.5q-97 0 -144 32.5t-47 109.5h41q0 -56 34.5 -78.5t115.5 -22.5q92 0 127.5 35.5t35.5 129.5q0 96 -29.5 137t-121.5 41q-148 0 -152 -88h-40v378h364v-40h-323z" />
    <glyph glyph-name="six.fitted" horiz-adv-x="550" 
d="M468 533h-42q0 101 -142 101q-67 0 -102 -20t-49 -65q-16 -53 -16 -218q48 87 167 87q105 0 149.5 -49t44.5 -165q0 -110 -47.5 -160.5t-150.5 -50.5q-146 0 -186 109q-21 58 -21 203q0 165 13 236q12 69 60.5 101t136.5 32q185 0 185 -141zM436 203q0 98 -32.5 136
t-114.5 38q-168 0 -168 -169q0 -92 38 -133t120 -41q85 0 121 38t36 131z" />
    <glyph glyph-name="seven.fitted" horiz-adv-x="550" 
d="M482 628l-291 -628h-47l292 627h-352v40h398v-39z" />
    </font>
</defs>
</svg>
