<?xml version="1.0" standalone="no"?>
<!DOCTYPE svg PUBLIC "-//W3C//DTD SVG 1.1//EN" "http://www.w3.org/Graphics/SVG/1.1/DTD/svg11.dtd" >
<svg xmlns="http://www.w3.org/2000/svg" xmlns:xlink="http://www.w3.org/1999/xlink" version="1.1">
<metadata>
Created by FontForge 20150102 at Wed Feb  4 22:04:52 2015
 By uniteet7
Converted by ALLTYPE
</metadata>
<defs>
<font id="EurostileRoman" horiz-adv-x="278" >
  <font-face 
    font-family="EurostileRoman"
    font-weight="500"
    font-stretch="normal"
    units-per-em="1000"
    panose-1="0 0 0 0 0 0 0 0 0 0"
    ascent="800"
    descent="-200"
    x-height="467"
    cap-height="667"
    bbox="-59 -211 1130 855"
    underline-thickness="50"
    underline-position="-55"
    unicode-range="U+0020-F002"
  />
<missing-glyph 
 />
    <glyph glyph-name=".notdef" 
 />
    <glyph glyph-name=".null" horiz-adv-x="0" 
 />
    <glyph glyph-name="nonmarkingreturn" horiz-adv-x="333" 
 />
    <glyph glyph-name="space" unicode=" " 
 />
    <glyph glyph-name="space" unicode="&#xa0;" 
 />
    <glyph glyph-name="exclam" unicode="!" horiz-adv-x="240" 
d="M161 91v-91h-79v91h79v0zM160 667l-10 -483h-64l-8 483h82v0z" />
    <glyph glyph-name="quotedbl" unicode="&#x22;" horiz-adv-x="329" 
d="M119 400h-58l-12 267h83l-13 -267v0zM268 400h-59l-12 267h83l-12 -267v0z" />
    <glyph glyph-name="numbersign" unicode="#" horiz-adv-x="605" 
d="M387 232l-28 -199h-41l28 199h-118l-28 -199h-42l28 199h-124l6 40h124l16 112h-125l6 41h124l26 183h42l-26 -183h118l25 183h42l-26 -183h128l-6 -41h-127l-16 -112h127l-5 -40h-128v0zM367 384h-118l-15 -112h117l16 112v0z" />
    <glyph glyph-name="dollar" unicode="$" horiz-adv-x="613" 
d="M336 602v-231q56 -2 101.5 -8.5t79.5 -19.5q35 -13 52 -52t17 -105q0 -61 -15 -99.5t-44 -54.5q-30 -16 -72 -24t-98 -8h-2.5h-3.5h-2h-2h-2.5h-3.5h-1.5h-0.5h-1.5h-1.5v-75h-56v75q-57 0 -102.5 5t-80.5 16q-34 11 -51.5 51.5t-18.5 110.5v25h74q0 -52 7 -83t22 -42
t46.5 -17t79.5 -7l24 2v246q-49 -2 -92 4t-81 18q-37 12 -55.5 48.5t-18.5 97.5q0 62 15 101t45 55q30 17 71.5 25.5t94.5 8.5l21 2v62h56v-62q56 -2 99.5 -9t74.5 -21q30 -13 45.5 -53t15.5 -106l-73 2q0 34 -4.5 57.5t-12.5 36.5q-9 13 -32 19.5t-61 6.5l-52 2v0zM336 61
q3 -2 6 -2.5t6 -0.5h6.5h7.5q35 0 63 5t47 15q20 11 30 35.5t10 63.5q0 45 -9.5 72t-29.5 36q-19 9 -49 13.5t-71 5.5l-17 2v-245v0zM280 603h-33q-32 -2 -57.5 -5.5t-44.5 -10.5t-28 -30.5t-9 -62.5q0 -43 8.5 -69t25.5 -36t43.5 -15t62.5 -5l32 2v232v0z" />
    <glyph glyph-name="percent" unicode="%" horiz-adv-x="786" 
d="M486 171q0 37 4.5 67t14.5 52q9 22 36 33t70 11q41 0 72 -5t52 -14q20 -9 30.5 -36.5t10.5 -74.5v-10.5v-10.5v-10t1 -10v-10.5v-10.5v-10v-10v-1.5v-0.5v-1.5v-1.5v-2v-2q-1 -11 -2 -21.5t-3 -21.5q-1 -10 -5 -19t-9 -17q-7 -11 -16.5 -18.5t-20.5 -10.5q-6 -2 -12 -3.5
t-11 -1.5q-6 0 -12 -1t-12 -1h-4.5t-4.5 -1h-4.5h-4.5h-8.5h-8.5q-40 0 -69.5 5t-47.5 16t-27 40t-9 77v36v0zM530 169v-62q2 -28 8 -43.5t17 -20.5q11 -4 27 -6.5t35 -2.5h2h2h1h2h4h4q24 0 42.5 2.5t31.5 7.5t19.5 21.5t6.5 44.5v112q0 26 -5 42t-15 22q-10 5 -24.5 8
t-33.5 3l-49 2q-1 -2 -2.5 -2h-3.5h-2h-1h-2h-2q-7 -1 -13.5 -1.5t-12.5 -2.5q-7 -1 -12 -4t-8 -7q-4 -5 -7.5 -12t-5.5 -16q-1 -4 -1.5 -8.5t-1.5 -8.5q0 -5 -0.5 -9t-0.5 -9v-2.5v-3.5v-1.5v-0.5v-1.5v-1.5v-6v-6v-5.5t1 -4.5v-5.5v-4.5v-5v-4v2v0zM650 667l-452 -667h-46
l450 667h48v0zM27 504q0 37 4.5 67t13.5 52t36 33t71 11l51 2q32 -2 54.5 -9.5t34.5 -21.5t18.5 -38t6.5 -58v-6v-5v-2.5v-2.5v-3v-3q-1 -3 -1 -5.5v-4.5v-5.5v-4.5v-2.5v-2.5v-3v-3v-2.5v-2.5q0 -2 0.5 -3t0.5 -3v-2.5v-2.5v-3v-3v-6v-6q0 -36 -7 -60.5t-21 -38.5
q-13 -13 -39.5 -20t-64.5 -7q-43 0 -73.5 6t-48.5 18t-27 40.5t-9 74.5v36v0zM70 502l1 -62q0 -28 6 -43t18 -20q12 -4 28.5 -7t38.5 -3h2.5h2.5h3.5h2.5q24 0 42.5 2.5t31.5 7.5t19.5 21.5t6.5 44.5v112q0 26 -5 42t-15 22q-10 5 -24.5 8t-34.5 3l-49 2l-1.5 -1.5
l-0.5 -0.5h-1.5h-1.5h-1.5h-0.5h-1.5h-1.5q-7 -1 -14 -1.5t-13 -2.5q-7 -1 -12 -4t-9 -7q-4 -5 -7.5 -11.5t-5.5 -14.5t-3.5 -16.5t-1.5 -16.5v-4.5v-4.5v-4v-4v-6v-5v-5.5t1 -4.5v-5.5v-4.5v-4v-4v2v0z" />
    <glyph glyph-name="ampersand" unicode="&#x26;" horiz-adv-x="700" 
d="M515 294h74v-9v-8v-7.5t1 -6.5v-7.5v-7.5v-7.5v-6.5v-6v-5q-1 -3 -1 -5.5v-5.5v-6v-5q-1 -3 -1 -5.5v-5.5q-1 -6 -1.5 -11.5t-1.5 -10.5q-1 -6 -1.5 -11.5t-1.5 -10.5l117 -94l-42 -52l-98 81q-13 -29 -32 -46.5t-44 -25.5q-25 -7 -51 -10.5t-53 -4.5h-10h-10h-8.5h-9.5
q-67 0 -119 6.5t-90 19.5q-37 14 -56 61.5t-19 128.5v9.5v8.5v4.5v5.5q0 2 0.5 4.5t0.5 4.5q1 12 3 24t6 24q3 12 9 22.5t14 20.5q8 9 16.5 15t18.5 10q11 3 21.5 6t20.5 6v0h1v0v0v0h1v0v0q3 1 6 1.5t6 1.5q3 0 6 1l6 2q-3 2 -5.5 4t-5.5 5q-2 2 -4.5 4t-4.5 4l-4 4t-4 5
q-2 2 -3.5 4t-3.5 4q-7 8 -12.5 17.5t-7.5 19.5q-3 10 -4 23.5t-1 29.5q0 52 13.5 84t41.5 44t64 18.5t79 6.5q48 0 84.5 -7t60.5 -21q24 -13 36.5 -47t12.5 -87v-8.5v-9.5v-4.5v-4.5q-1 -2 -1 -4.5v-4.5l-73 2q-1 1 -1 4v6v6v6q-1 41 -7.5 64.5t-18.5 30.5t-38 10.5
t-65 3.5q-22 0 -42 -2.5t-37 -7.5t-25.5 -21.5t-8.5 -44.5q0 -14 1.5 -25.5t4.5 -20.5t9 -17.5t13 -16.5q1 -1 2.5 -3t2.5 -3l3.5 -3.5l3.5 -3.5q2 -1 3.5 -3t3.5 -3q2 -2 4.5 -3.5t4.5 -3.5l250 -207v3.5t1 5.5v6v6v6t1 6v6v6v4.5v5.5v6v6q-1 2 -1 4.5v5.5v3v3v2.5v2.5v2v0
zM240 342q-4 -2 -8.5 -3.5t-9.5 -3.5q-4 -1 -8.5 -2t-7.5 -2q-21 -6 -35.5 -13.5t-22.5 -18.5q-8 -10 -12 -32.5t-4 -55.5q0 -47 6 -78.5t18 -46.5t42.5 -22.5t79.5 -7.5l65 2q6 -2 12 -2h13t13.5 0.5t13.5 1.5q17 2 33.5 5.5t31.5 10.5t25.5 19.5t14.5 31.5l-260 217v0z
" />
    <glyph glyph-name="quotesingle" unicode="'" horiz-adv-x="183" 
d="M121 400h-60l-12 267h85l-13 -267v0z" />
    <glyph glyph-name="parenleft" unicode="(" horiz-adv-x="277" 
d="M229 673v-63q-37 -2 -58.5 -11t-27.5 -26t-9.5 -39.5t-3.5 -49.5v-2.5v-3.5v-1.5v-0.5v-1.5v-1.5v-2.5v-2.5v-3v-3v-2.5v-2.5v-3v-3v-95l2 -271v-4.5v-3.5v-2v-1v-2v-2q0 -23 3 -43t9 -36q5 -17 23 -26t48 -9l14 1v-63h-2.5h-3.5h-2t-2 -1h-2.5h-3.5h-1.5h-0.5h-1.5h-1.5
q-53 0 -85.5 16.5t-43.5 48.5q-12 32 -18 70t-7 82q-1 9 -1.5 18t-0.5 18v9.5v9.5v9v9v18v18v9.5v9.5v9v9v168q0 53 6 98t19 79q12 35 50 52.5t102 17.5v2v0z" />
    <glyph glyph-name="parenright" unicode=")" horiz-adv-x="277" 
d="M50 -107v63q23 0 40 3.5t28 11.5q11 7 18 22t9 39v4.5t1 5.5v4.5v5.5q0 5 0.5 10t1.5 10v9.5v9.5v10v10v12t1 12v12v12v24v25l-3 273q0 25 -3 47t-8 41q-5 20 -23 29.5t-49 9.5l-13 1v63l1.5 -1.5t1.5 -0.5h0.5h1.5h3.5t2.5 1h2h2h3.5h2.5q53 0 85 -15.5t42 -47.5
q11 -31 17.5 -69t9.5 -82v-1.5v-1.5v-1.5v-0.5v-16t1 -15v-15.5v-15.5v-14.5t1 -15.5v-14.5v-15.5v-31.5v-30.5v-15v-15v-15.5v-15.5v-65v-3v-1v0v0v-1v0q0 -46 -5 -88t-16 -79q-10 -38 -44.5 -57.5t-93.5 -19.5h-18v0z" />
    <glyph glyph-name="asterisk" unicode="*" horiz-adv-x="613" 
d="M485 523l-137 -49l82 -117l-39 -29l-83 121l-89 -121l-39 29l85 117l-136 52l17 47l137 -50v144h49v-144l136 51l17 -51v0z" />
    <glyph glyph-name="plus" unicode="+" horiz-adv-x="500" 
d="M23 361h205v193h43v-193h206v-41h-206v-193h-43v193h-205v41v0z" />
    <glyph glyph-name="comma" unicode="," horiz-adv-x="202" 
d="M142 91v-98q0 -20 -3.5 -36.5t-9.5 -29.5q-6 -12 -20 -18.5t-36 -6.5h-2.5h-3.5h-2h-2t-1.5 0.5l-0.5 0.5h-1.5h-1.5h-1.5h-0.5h-1.5h-1.5v37q13 1 22 4t13 8q5 5 7 14t2 22v2.5v3.5v1.5v1.5q-1 1 -1 1.5v1.5h-33v91h79v0z" />
    <glyph glyph-name="hyphen" unicode="-" horiz-adv-x="232" 
d="M20 276h192v-65h-192v65v0z" />
    <glyph glyph-name="period" unicode="." horiz-adv-x="199" 
d="M139 91v-91h-79v91h79v0z" />
    <glyph glyph-name="slash" unicode="/" horiz-adv-x="646" 
d="M577 667l-516 -765h-54l514 765h56v0z" />
    <glyph glyph-name="zero" unicode="0" horiz-adv-x="613" 
d="M23 342v35.5v37.5q0 18 1 36.5t2 37.5q2 26 9.5 50.5t20.5 46.5q14 23 32.5 39.5t43.5 26.5q11 5 23 8t24 4q12 2 24.5 2.5t25.5 1.5h4.5h5.5h4.5h4.5h4.5t5.5 1h4.5h5.5h9.5h8.5h10h10q75 0 129 -9t85 -27q32 -18 49.5 -69t20.5 -134v-12v-12v-6v-5q0 -3 0.5 -6t0.5 -6
v-12v-12v-12v-12v-17.5v-16.5q-1 -9 -1 -17.5v-16.5v-17.5v-16.5q-1 -9 -1 -17.5v-17.5q-1 -47 -13 -83.5t-34 -62.5q-22 -25 -57.5 -39t-84.5 -16q-10 -1 -19.5 -1.5t-19.5 -0.5h-19.5h-19.5h-53q-49 0 -90 7t-75 23t-53 52t-24 93q-1 15 -2.5 30t-1.5 30v30v31v51v0z
M99 337l1 -125q1 -31 6.5 -56.5t15.5 -47.5q11 -22 33 -33t56 -13h6.5h7.5q3 -1 6.5 -1h7.5h7.5h7.5q3 -1 6.5 -1h7.5h2h2h1h2h4h4q8 -1 17 -1.5t18 -0.5h18h18q40 0 70 7t50 20q20 14 30 47.5t10 86.5v118v108q0 49 -9 82t-26 48t-51 23t-84 8l-74 2q-36 -2 -66 -7t-53 -14
q-24 -9 -36 -37.5t-14 -75.5q0 -4 -0.5 -8.5t-0.5 -8.5q-1 -5 -1 -9v-9v-17.5v-16.5v-18v-18v-17.5v-16.5v2v0z" />
    <glyph glyph-name="one" unicode="1" horiz-adv-x="613" 
d="M393 667v-667h-70v610l-171 -188l-47 44l184 201h104v0z" />
    <glyph glyph-name="two" unicode="2" horiz-adv-x="613" 
d="M534 62v-62h-480v124q0 59 15 96.5t45 51.5t70 23.5t89 14.5h2h2h1h2h2t2 1h2h2q5 0 10.5 0.5t9.5 1.5h4.5t5.5 1q2 0 4.5 0.5t4.5 0.5q36 3 62 10.5t41 18.5t23 40t8 75q0 50 -8 80.5t-24 42.5q-16 11 -48 17t-80 6h-13.5h-13.5h-6.5h-6.5q-4 -1 -7 -1h-6
q-7 -1 -14 -1.5t-14 -0.5q-7 -1 -13.5 -1.5t-12.5 -2.5q-24 -5 -38.5 -16.5t-19.5 -29.5t-7.5 -37.5t-2.5 -39.5v-1.5v-0.5v-1.5v-1.5v-1.5v-0.5v-1.5v-1.5l1 -27h-73q0 44 4.5 82t14.5 69q10 30 41.5 48.5t83.5 25.5q13 2 25.5 2.5t25.5 1.5t26 1.5t26 0.5q62 0 106.5 -9.5
t72.5 -27.5q28 -19 42 -62t14 -111v-6v-5v-6v-6v-6v-6q-1 -3 -1 -6v-6q-1 -16 -4 -32t-8 -31q-4 -16 -13 -29.5t-22 -24.5q-15 -13 -32 -21t-36 -13q-19 -4 -38.5 -7t-39.5 -5q-2 0 -4.5 -0.5t-4.5 -0.5q-3 -1 -5.5 -1h-4.5h-8.5h-9.5q-36 -2 -67 -8t-58 -15t-40 -36.5
t-13 -72.5v-7.5v-6.5v-7t1 -6v-7.5v-6.5v-4t1 -3v-3.5v-3.5l405 2v0z" />
    <glyph glyph-name="three" unicode="3" horiz-adv-x="613" 
d="M244 309v64q5 -2 10.5 -2h10.5h10.5t11.5 1h10.5h10.5h10.5h11.5q41 0 67 5.5t38 15.5t18 35.5t6 65.5q0 28 -4 48.5t-12 33.5q-7 14 -26 21.5t-48 8.5h-14h-14h-6.5t-6.5 1h-7.5h-6.5h-14h-14h-13.5h-13.5h-7.5h-6.5h-3h-3q-2 -1 -3.5 -1h-3.5q-12 -1 -22.5 -2.5
t-21.5 -4.5q-10 -3 -19 -7.5t-15 -10.5q-5 -6 -8.5 -13t-5.5 -15l-2 -8t-2 -7q0 -4 -0.5 -8t-0.5 -8v-2v-1v-2v-2v-2v-1v-2v-2v-6v-6v-6v-6q-1 -3 -1 -6v-6v-6v-6l-70 2q0 58 10 99t30 64t59.5 34.5t99.5 11.5l32 2q53 -2 96 -7.5t77 -16.5q35 -10 52 -47t17 -100v-11.5
v-10.5v-6v-5q-1 -3 -1 -6v-6q-1 -10 -3 -20.5t-5 -21.5q-3 -10 -7.5 -19.5t-10.5 -17.5q-7 -10 -16 -16.5t-20 -9.5q-10 -4 -21 -6.5t-22 -4.5h-0.5h-0.5q-1 -1 -1.5 -1h-0.5h-2h-2q37 -5 61.5 -15.5t37.5 -26.5t19.5 -42.5t6.5 -63.5q0 -34 -5 -64.5t-14 -59.5
q-9 -28 -34.5 -45.5t-66.5 -22.5q-16 -1 -32.5 -2t-33.5 -2q-16 -1 -32.5 -1.5t-33.5 -0.5q-54 0 -98 6t-79 19q-34 13 -51.5 52t-17.5 104v10v10v10t1 10l73 2v-39q0 -31 4 -53t13 -36q8 -15 28.5 -22.5t53.5 -8.5h6.5h7.5q3 -1 6.5 -1h6.5h13h14h6h7q3 -1 6.5 -1h6.5h13.5
h13.5q44 0 73 6t42 18t19.5 39.5t6.5 70.5q0 40 -8 64.5t-23 33.5q-16 9 -42 14t-63 5l-92 2v0z" />
    <glyph glyph-name="four" unicode="4" horiz-adv-x="613" 
d="M474 667v-450h100v-63h-100v-154h-71v154h-377v88l336 425h112v0zM403 217v401l-314 -401h314v0z" />
    <glyph glyph-name="five" unicode="5" horiz-adv-x="613" 
d="M525 667v-65h-378v-201q11 13 24.5 22.5t29.5 15.5q17 5 33.5 9t34.5 5h6.5t7.5 1h6.5h6.5h12.5h13.5q59 0 103 -11t72 -32q28 -22 42 -64t14 -105q0 -76 -11 -127t-32 -75q-22 -25 -72 -36.5t-128 -11.5q-60 0 -106 6.5t-78 21.5t-48 57t-16 112l74 2q0 -44 7 -71.5
t20 -39.5q14 -12 41.5 -18t67.5 -6l30 2q47 -2 80.5 3.5t53.5 15.5q20 11 30 41.5t10 81.5q0 50 -5 85.5t-15 57.5q-10 23 -43.5 34t-90.5 11l-37 2q-3 -1 -6 -1.5t-5 -0.5h-6h-6h-6h-5q-3 -1 -6 -1h-6q-4 -1 -8 -1.5t-8 -0.5q-4 -1 -7.5 -1.5t-7.5 -1.5q-7 -1 -14.5 -4
t-14.5 -6q-7 -4 -12 -8.5t-9 -10.5t-6.5 -12.5t-4.5 -13.5l-71 2v338h449v0z" />
    <glyph glyph-name="six" unicode="6" horiz-adv-x="613" 
d="M532 499h-73q0 17 -2.5 34t-7.5 33t-18.5 25.5t-36.5 12.5q-11 2 -22 2.5t-22 0.5h-10.5t-10.5 1h-10.5h-10.5l-24 2q-3 -1 -6 -1.5t-5 -0.5q-3 -1 -6 -1h-6h-6h-5q-3 -1 -6 -1h-6q-15 -1 -28.5 -3.5t-26.5 -6.5t-22.5 -11t-15.5 -17q-3 -6 -5 -12l-4 -12
q-1 -7 -2.5 -13.5t-1.5 -12.5q-1 -4 -1 -8.5v-8.5v-8v-8v-134q5 7 11 13t13 12q6 6 14 10.5t18 7.5l22 6t23 4q11 2 23 2.5t24 0.5h5.5t5.5 1h6h6h6h6h5h6q60 0 103.5 -9t69.5 -27t39 -59.5t13 -106.5v-6v-6v-2.5v-2.5v-3v-3q-1 -33 -7.5 -63.5t-18.5 -58.5t-38 -43.5
t-67 -17.5q-14 -2 -28.5 -3t-28.5 -1h-14.5t-14.5 -1h-15h-14q-68 0 -116.5 10t-77.5 32t-43.5 69t-14.5 120l2 123v16v18v18.5v19.5q0 5 -0.5 9.5t-0.5 9.5v9v9v9.5v9.5v9v9q0 31 7 58t21 50t37.5 37.5t56.5 20.5q4 1 8 1.5t9 1.5q4 0 8 0.5t8 1.5q8 1 16.5 1.5t17.5 1.5
h16h17h8t9 1h8h8q42 0 81 -5t74 -16q35 -10 52.5 -42.5t17.5 -87.5v-2.5v-3.5v-1.5v-0.5v-1.5v-1.5v-1.5v-1.5q-1 -1 -1 -1.5v-1.5v-1.5v-0.5v-1.5v-1.5v2v0zM131 231q0 -53 6 -88t18 -52q12 -18 45.5 -26.5t88.5 -8.5l33 2q3 -1 6 -1h7q36 0 62.5 4.5t42.5 13.5q17 9 26 36
t9 71q0 50 -5 83t-16 48q-10 15 -43.5 23t-89.5 8l-25 2q-6 -2 -12.5 -2.5t-13.5 -0.5h-7.5h-6.5q-4 -1 -7.5 -1h-6.5q-13 -1 -25 -3t-23 -5q-12 -3 -21 -7t-17 -10q-7 -6 -12 -13t-7 -15q-3 -8 -4.5 -16.5t-1.5 -16.5v-5.5v-4.5v-5.5v-4.5v-5v0z" />
    <glyph glyph-name="seven" unicode="7" horiz-adv-x="613" 
d="M534 667v-95l-323 -572h-89l350 604h-424v63h486v0z" />
    <glyph glyph-name="eight" unicode="8" horiz-adv-x="613" 
d="M434 347q37 -9 60.5 -21.5t33.5 -29.5q10 -16 15 -43t5 -64q0 -34 -4 -63t-12 -55q-7 -25 -30.5 -42.5t-61.5 -26.5q-4 -1 -8.5 -1.5t-8.5 -0.5q-5 0 -9 -0.5t-9 -1.5q-9 -1 -18 -1.5t-18 -1.5h-8.5t-9.5 -1h-8.5h-9.5h-18h-17q-67 0 -114 6.5t-76 21.5q-28 14 -42.5 57
t-14.5 114q0 37 5.5 63.5t15.5 42.5q11 16 34.5 27.5t59.5 18.5q-35 7 -57.5 19t-31.5 28q-9 17 -13.5 42t-4.5 58q0 59 12.5 96.5t37.5 52.5t65 22.5t95 7.5l60 2q53 -2 92.5 -9.5t66.5 -21.5q26 -15 39.5 -52t13.5 -96q0 -34 -4.5 -59t-13.5 -42q-9 -16 -31.5 -28
t-57.5 -20v2v0zM126 189q0 -35 4 -59t12 -39t31 -23t60 -8h6h6q3 -1 6 -1h6h12.5h13.5q3 0 6 -0.5t7 -0.5h6h6h6h7h6h6q40 0 67.5 5.5t43.5 16.5q15 11 23 37t8 67q0 27 -4 48.5t-12 37.5q-7 16 -26.5 25.5t-50.5 12.5q-5 0 -10.5 0.5t-10.5 0.5q-6 1 -11.5 1h-10.5h-10.5
h-10.5h-11.5h-10.5l-38 2q-31 -2 -55 -6t-42 -12t-26.5 -30.5t-8.5 -59.5v-15v0zM135 500v-21v-7v-6v-6t1 -5q0 -10 2 -19.5t5 -18.5t9 -15t14 -11q7 -4 15 -6.5t17 -4.5q9 -1 18 -2.5t19 -2.5q3 0 6 -0.5t7 -0.5h6h6h12h12l47 2q2 -1 3 -1h3h2.5h2.5q29 0 50.5 4t37.5 12
q17 8 26 30t9 58v29v5v7v3.5v3.5q-1 2 -1 4v4q-1 8 -2.5 15.5t-3.5 14.5q-3 8 -7 14t-10 10t-13.5 7t-18.5 5q-10 2 -21.5 3.5t-22.5 2.5h-7.5t-6.5 1h-7.5h-6.5h-13h-11l-29 2q-6 -2 -12.5 -2.5t-14.5 -0.5h-7.5h-6.5q-4 -1 -7.5 -1h-7.5q-10 -1 -20.5 -2.5t-20.5 -3.5
t-18 -5t-14 -8t-10 -11t-6 -14q-2 -7 -3 -14.5t-1 -15.5v-2v-2v-1.5v-1.5v-25v0z" />
    <glyph glyph-name="nine" unicode="9" horiz-adv-x="613" 
d="M51 170h71v-3.5v-2.5v-2v-2q-1 -1 -1 -2v-2v-2v-2q0 -26 5.5 -44t16.5 -29q11 -10 30 -15.5t44 -6.5h6h7q3 -1 6 -1h6h12.5h13.5h12h12h12.5h13.5q44 0 74.5 5.5t46.5 16.5q17 11 25 39t8 74v127q-4 -8 -8 -14.5t-9 -11.5q-4 -5 -10 -9t-13 -6l-10 -4l-10 -4
q-6 -1 -11 -2.5t-10 -2.5t-10.5 -2t-10.5 -2q-6 0 -11.5 -0.5t-10.5 -0.5q-7 -1 -14.5 -1.5t-15.5 -0.5h-14.5h-15.5q-60 0 -104 8t-73 24q-28 16 -42 57.5t-14 108.5q0 68 13 112.5t39 64.5t71 30t109 10q66 0 115 -9.5t80 -27.5q32 -19 48 -65.5t17 -120.5l2 -117v-129
q0 -65 -12.5 -107.5t-38.5 -63.5q-25 -21 -70 -30.5t-109 -9.5h-44q-45 0 -84.5 5t-73.5 15q-34 11 -50.5 44.5t-16.5 91.5v1.5v1.5v0.5v1.5v1.5v1.5l0.5 0.5t0.5 1.5v2v2v3.5v2.5v2v0zM129 467q0 -46 6 -75t19 -43q12 -13 42 -20t76 -7l23 2q7 -2 14.5 -2h14.5h15.5t14.5 1
q7 0 14.5 1t14.5 2q4 0 7.5 0.5t7.5 1.5q3 1 6.5 1.5t7.5 1.5q22 5 35 15t17 24q5 14 7 30t2 35q0 50 -6.5 84t-18.5 52t-45 27t-86 9l-26 2q-48 -2 -80 -7t-49 -16q-16 -10 -24.5 -40.5t-8.5 -80.5v2v0z" />
    <glyph glyph-name="colon" unicode=":" horiz-adv-x="199" 
d="M139 91v-91h-79v91h79v0zM139 467v-91h-79v91h79v0z" />
    <glyph glyph-name="semicolon" unicode=";" horiz-adv-x="182" 
d="M122 91v-98q0 -20 -3.5 -36.5t-9.5 -29.5q-6 -12 -20 -18.5t-36 -6.5h-2.5h-3.5h-2h-2t-1.5 0.5l-0.5 0.5h-1.5h-1.5h-1.5h-0.5h-1.5h-1.5v37q13 1 22 4t13 8q5 5 7 14t2 22v2.5v3.5v1.5v1.5q-1 1 -1 1.5v1.5h-33v91h79v0zM117 467v-91h-79v91h79v0z" />
    <glyph glyph-name="less" unicode="&#x3c;" horiz-adv-x="500" 
d="M466 573v-78l-350 -160l350 -161v-77l-433 204v68l433 204v0z" />
    <glyph glyph-name="equal" unicode="=" horiz-adv-x="500" 
d="M23 291h454v-41h-454v41v0zM23 432h454v-41h-454v41v0z" />
    <glyph glyph-name="greater" unicode="&#x3e;" horiz-adv-x="500" 
d="M34 97v77l350 161l-350 161v77l433 -205v-67l-433 -204v0z" />
    <glyph glyph-name="question" unicode="?" horiz-adv-x="520" 
d="M269 91v-91h-79v91h79v0zM268 192h-73q0 31 3 54.5t10 38.5t22.5 28t40.5 25q3 1 6 2.5t7 2.5q3 2 6.5 3.5t7.5 2.5q6 2 11.5 4t10.5 4t9.5 4t8.5 4q19 8 31.5 18t18.5 22t9.5 31t3.5 46q0 45 -7.5 72t-22.5 36q-15 8 -43.5 12.5t-70.5 4.5h-5.5h-5.5q-2 -1 -5 -1h-6h-6
h-5q-3 -1 -5.5 -1h-5.5q-10 -1 -19 -2.5t-18 -3.5q-9 -3 -16 -6.5t-12 -8.5q-7 -6 -11.5 -13.5t-6.5 -16.5t-3.5 -18t-1.5 -18v-4.5v-4.5v-4v-4v-43h-70q0 61 9 103.5t28 64.5q18 23 59 34t104 11q53 0 93 -7.5t68 -22.5q27 -15 41 -52.5t14 -98.5q0 -58 -9 -95.5t-26 -52.5
q-18 -15 -37.5 -25.5t-40.5 -16.5l-1.5 -1.5t-1.5 -0.5h-1.5h-0.5q-10 -3 -19 -6t-18 -7t-17 -9.5t-16 -13.5q-4 -4 -6.5 -8.5t-4.5 -9.5q-1 -5 -2.5 -10.5t-1.5 -10.5v-4v-4v-4v-4v-15v0z" />
    <glyph glyph-name="at" unicode="@" horiz-adv-x="629" 
d="M411 471h48v-228v-3v-2v-1.5v-1.5v-4v-4v-2t1 -2v-2v-2q0 -9 2 -17.5t6 -16.5q3 -7 10.5 -11t19.5 -4q11 0 18.5 2.5t11.5 8.5q4 5 7 13t5 18q2 8 2.5 16t1.5 16t1.5 16t1.5 16v8t1 8v8v8v8t1 8v8v8q0 60 -6.5 100.5t-18.5 61.5t-51 32t-105 11l-64 2q-6 -2 -11.5 -2
h-10.5h-6h-5q-3 -1 -5.5 -1h-5.5q-11 0 -22 -0.5t-22 -1.5t-22 -2.5t-22 -3.5q-19 -4 -32 -10.5t-21 -16.5t-14 -23.5t-9 -30.5q-2 -11 -3.5 -22t-3.5 -22q-1 -11 -2.5 -22.5t-1.5 -22.5v-7.5v-6.5q-1 -4 -1 -7.5v-7.5v-14.5v-15.5v-20v-23q0 -13 1 -25.5t2 -25.5
q1 -15 2.5 -30t4.5 -29t7 -25.5t9 -20.5q6 -12 15 -20.5t20 -13.5q11 -6 22.5 -10t23.5 -6h0.5h1.5q0 -1 0.5 -1h0.5h1.5h1.5l14 -2l14 -2t14 -1.5t14 -0.5h6.5h7.5q3 -1 6.5 -1h7.5h14h14l46 2q4 -2 8 -2h8h8.5h8.5h10.5t11.5 1q5 0 10.5 0.5t10.5 1.5q11 2 20 3.5t17 4.5
q5 1 8.5 3t6.5 5t6 6.5t5 7.5l34 -22q-4 -8 -9.5 -15t-11.5 -12q-7 -5 -14.5 -9t-15.5 -6q-10 -3 -20.5 -5t-21.5 -3t-22.5 -2t-22.5 -1h-2.5h-2.5h-3h-3h-2.5h-2.5h-3h-3q-91 0 -154.5 10t-99.5 29q-36 20 -54 80t-18 161v16v18v20q0 11 0.5 22t1.5 22q1 13 2.5 25.5
t3.5 25.5t4.5 25t6.5 23q6 21 16 37t23 26q14 11 31 18t38 11q11 2 22 3.5t23 2.5q11 2 23 2.5t24 1.5h8t9 1h8.5h8.5h9h9h8.5h8.5h17h19h9.5h9.5q4 -1 9 -1h10q6 -1 12 -1.5t12 -0.5q5 -1 11 -1.5t12 -1.5q12 -1 23 -3.5t21 -5.5q19 -6 33 -15t24 -21q9 -12 16.5 -27.5
t11.5 -34.5q3 -16 5 -32.5t3 -33.5q1 -16 1.5 -32.5t0.5 -33.5v-16t-1 -16q0 -9 -0.5 -17t-1.5 -16q-1 -16 -3 -32l-4 -32q-3 -19 -9 -34.5t-14 -26.5q-8 -10 -22 -15.5t-34 -5.5h-2h-2h-1.5h-1.5q-13 0 -24.5 3.5t-22.5 10.5q-11 6 -18 16.5t-9 23.5q-7 -15 -17 -25.5
t-24 -16.5q-13 -6 -27.5 -9.5t-29.5 -4.5q-3 -1 -6 -1h-6h-5.5h-4.5q-44 0 -71 12.5t-37 37.5t-15 56t-5 68q0 39 5.5 70t17.5 53q12 23 40 34t72 11q15 0 30 -2t29 -7q14 -4 25.5 -13.5t19.5 -23.5v46v0zM410 331q0 25 -5 44t-14 31q-10 12 -28.5 18.5t-45.5 6.5h-6h-6
h-2.5h-3.5q-1 -1 -2.5 -1h-3.5q-9 -1 -17 -2.5t-16 -4.5t-14 -9t-10 -14q-3 -6 -5 -12.5t-4 -14.5q-1 -7 -2 -14.5t-1 -15.5v-7v-6v-6v-6v-21v-13v-12v-6t1 -6q0 -4 0.5 -7t0.5 -6q1 -8 2.5 -16t3.5 -16q2 -7 5.5 -14t7.5 -12q5 -6 10 -9t12 -5q6 -1 13 -2.5t14 -1.5h1.5
h1.5h0.5h1.5h3.5h2.5q35 0 57 7t30 20q8 14 12 35.5t5 52.5l1 45v0z" />
    <glyph glyph-name="A" unicode="A" horiz-adv-x="609" 
d="M473 141h-337l-51 -141h-80l243 667h107l249 -667h-79l-52 141v0zM451 202l-148 410l-147 -410h295v0z" />
    <glyph glyph-name="B" unicode="B" horiz-adv-x="616" 
d="M63 0v667h321q44 -2 76.5 -11t53.5 -26q21 -18 31.5 -50.5t10.5 -79.5q0 -28 -3.5 -52t-11.5 -43q-7 -19 -24.5 -33t-46.5 -24q33 -9 54.5 -23t31.5 -33t15 -44.5t5 -57.5q0 -45 -9 -80t-27 -61q-18 -25 -52.5 -37t-84.5 -12h-340v0zM138 64h206q43 -2 73 2.5t47 13.5
t25.5 36t8.5 70q0 26 -4.5 47.5t-12.5 38.5t-27.5 26t-51.5 9l-24 2h-240v-245v0zM138 376h211q2 -1 4.5 -1h3.5q34 0 57.5 6t36.5 17q14 12 21 36t7 60q0 30 -5.5 51t-16.5 32q-10 11 -30.5 16.5t-50.5 5.5l-238 2v-225v0z" />
    <glyph glyph-name="C" unicode="C" horiz-adv-x="591" 
d="M494 226h74v-9v-8v-4t1 -4v-3.5v-3.5v-8v-8v-4t1 -3v-4v-4q0 -37 -9 -66t-26 -50q-17 -22 -45 -34t-67 -14q-13 -1 -26.5 -1.5t-27.5 -0.5h-13.5t-13.5 -1h-13.5h-13.5h-93q-69 4 -109 28t-52 69t-18.5 94.5t-6.5 102.5v2v2v1v2v4v4v3.5v3.5v3v3v6.5v7.5v106q0 46 8.5 84
t24.5 68q17 30 51 47.5t86 23.5q8 1 16 1.5t16 1.5t16.5 1.5t16.5 1.5h8t8 1h8h8h16.5h16.5q67 0 111 -9.5t65 -28.5t33 -62.5t16 -111.5l-74 2q0 36 -4.5 63t-13.5 45q-9 17 -34.5 26t-66.5 9h-18h-17q-9 -1 -18 -1h-18q-18 -1 -35.5 -1.5t-34.5 -2.5q-37 -3 -60.5 -14
t-33.5 -31q-10 -19 -14.5 -47t-4.5 -63v-10l1 -107v-35v-9.5v-8.5v-9v-9v-8.5t1 -8.5q0 -5 0.5 -9t0.5 -9q1 -16 2.5 -32t4.5 -31q2 -15 6.5 -28t10.5 -24q6 -10 15 -17.5t22 -12.5q12 -4 25.5 -7t27.5 -4q5 -1 10.5 -1.5t11.5 -0.5h10.5h10.5h31.5h31.5t31.5 1.5t31.5 2.5
q22 2 39 7t29 14q12 8 19 24t8 40v9.5v8.5v10v10q-1 5 -1 9.5v8.5v4.5v5.5v4.5v4.5v2v0z" />
    <glyph glyph-name="D" unicode="D" horiz-adv-x="652" 
d="M63 0v667h308q75 -2 124 -20.5t73 -54.5q23 -36 35 -89t12 -123v-62q0 -64 -8.5 -119.5t-25.5 -103.5t-65 -71.5t-126 -23.5h-327v0zM137 65h218q6 -2 12 -2h13t14 0.5t14 1.5q14 1 26.5 3.5t25.5 6.5q13 5 23.5 12.5t18.5 17.5q9 11 15.5 25t10.5 30t6.5 32.5t3.5 34.5
v8t1 8v7v8v8t1 8v7v8v35v18.5v19.5q-1 10 -1 19.5v19.5t-0.5 20t-1.5 20q-1 9 -2 19l-2 20q-5 38 -18.5 62.5t-35.5 34.5q-22 11 -49.5 16t-59.5 5l-233 2v-535v0z" />
    <glyph glyph-name="E" unicode="E" horiz-adv-x="498" 
d="M110 600v-226h340v-63h-340v-247h355v-64h-428v667h428v-67h-355v0z" />
    <glyph glyph-name="F" unicode="F" horiz-adv-x="488" 
d="M139 600v-232h324v-63h-324v-305h-76v667h408v-67h-332v0z" />
    <glyph glyph-name="G" unicode="G" horiz-adv-x="619" 
d="M306 331h286q1 -11 1.5 -20t0.5 -18v-18v-18v-46q0 -40 -5.5 -74.5t-16.5 -66.5q-11 -31 -40 -48.5t-76 -21.5q-17 -2 -34 -3l-34 -2h-17.5t-16.5 -1h-17.5h-17.5q-80 0 -135 11t-84 35t-43.5 74.5t-14.5 127.5v22.5v23.5v22.5t1 23.5v22v23v22.5v23.5q0 65 12 112.5
t37 75.5q25 29 70.5 43t112.5 14h20h20h10h10q5 -1 10 -1h10h10h10q5 -1 10 -1h10h20h20q43 -1 73 -13t48 -34t27 -53.5t9 -72.5v-23h-74q0 28 -4 51.5t-12 40.5q-7 17 -28 26.5t-55 10.5q-17 1 -34.5 1.5t-34.5 0.5h-17.5t-16.5 1h-17.5h-17.5q-53 0 -86 -8t-47 -25
q-13 -16 -20 -53.5t-8 -96.5l-1 -85l1 -95q0 -32 3 -60t10 -54q6 -25 27.5 -41t58.5 -21q6 -1 12.5 -2t13.5 -1q7 -1 13.5 -1h13.5q6 -1 12.5 -1h13.5h13.5h13.5l39 2q48 -2 79 4t46 19q14 13 21.5 43t7.5 77v61h-212v65v0z" />
    <glyph glyph-name="H" unicode="H" horiz-adv-x="667" 
d="M604 667v-667h-76v308h-390v-308h-74v667h74v-295h390v295h76v0z" />
    <glyph glyph-name="I" unicode="I" horiz-adv-x="203" 
d="M139 667v-667h-76v667h76v0z" />
    <glyph glyph-name="J" unicode="J" horiz-adv-x="502" 
d="M438 667v-484q0 -52 -11 -88.5t-32 -57.5q-21 -22 -58 -32t-90 -10q-50 0 -90.5 5.5t-70.5 18.5q-30 12 -45 48t-15 95v19.5v19.5v20t1 20l74 2v-57q0 -37 4.5 -61.5t13.5 -38.5q9 -13 32.5 -20t60.5 -7q43 0 73 5.5t46 16.5q17 11 25 39t8 73v474h74v0z" />
    <glyph glyph-name="K" unicode="K" horiz-adv-x="603" 
d="M139 667v-291h66l272 291h99l-305 -323l341 -344h-102l-305 309h-66v-309h-76v667h76v0z" />
    <glyph glyph-name="L" unicode="L" horiz-adv-x="485" 
d="M143 667v-598h339v-69h-418v667h79v0z" />
    <glyph glyph-name="M" unicode="M" horiz-adv-x="858" 
d="M795 667v-667h-76v613l-252 -613h-76l-254 607v-607h-73v667h129l235 -571l236 571h131v0z" />
    <glyph glyph-name="N" unicode="N" horiz-adv-x="696" 
d="M633 667v-667h-122l-375 603v-603h-73v667h122l375 -609v609h73v0z" />
    <glyph glyph-name="O" unicode="O" horiz-adv-x="596" 
d="M37 322v39q0 67 7 122.5t20 99.5q14 44 61.5 66.5t128.5 22.5l33 2q68 -2 119 -10.5t85 -25.5q35 -17 52 -65t17 -126v-30v-29v-30v-30q0 -30 -0.5 -59.5t-1.5 -58.5q-1 -61 -14 -104t-37 -67t-67 -35.5t-106 -11.5h-4h-4h-2h-1h-2h-2h-4h-4h-2h-1h-2h-2q-4 1 -8 1h-7
h-7.5h-6.5q-57 0 -100 8t-72 26q-29 17 -45.5 57.5t-19.5 104.5q-1 17 -1 33.5v32.5v16v17v16v16v2v0zM113 325l1 -107q1 -50 8.5 -82.5t21.5 -48.5t46.5 -24t83.5 -8q56 0 96 5.5t64 17.5q23 12 36 48.5t14 97.5v27.5v26.5v14t1 14v14v14v14v14v13v14v14v14v13v14
q0 62 -11 98t-33 46q-22 11 -59.5 16t-90.5 5l-25 2q-44 -2 -74 -8.5t-45 -20.5q-15 -13 -23 -47.5t-9 -88.5l-2 -121v0z" />
    <glyph glyph-name="P" unicode="P" horiz-adv-x="588" 
d="M63 0v667h277h34q5 -2 10 -2h10h4.5h5.5q2 -1 5 -1h6q12 -1 24 -3.5t24 -5.5t22.5 -9t20.5 -14q14 -13 24 -28.5t16 -32.5q5 -18 9 -36t5 -37v-10.5v-10.5v-5.5t1 -4.5v-5.5v-4.5v-6v-6q-1 -4 -1 -7v-6v-6v-6q-1 -4 -1 -7v-6q-1 -14 -4 -27.5t-8 -27.5
q-4 -13 -11.5 -24.5t-17.5 -21.5q-16 -16 -34.5 -26t-38.5 -13t-40.5 -5t-41.5 -2h-1.5h-0.5v0v0h-1v0h-4h-4q-2 -1 -4 -1h-4h-7.5h-7.5l-193 2v-261h-73v0zM136 326h178q44 -2 76.5 3t52.5 15t30 38.5t10 76.5q0 35 -4.5 61.5t-13.5 44.5q-9 17 -32 26t-61 9h-4.5h-4.5h-4
h-4q-2 -1 -4.5 -1h-4.5h-4h-4l-202 2v-275v0z" />
    <glyph glyph-name="Q" unicode="Q" horiz-adv-x="655" 
d="M647 81l-31 -51l-50 34q-16 -22 -36.5 -35.5t-43.5 -19.5t-47 -9t-49 -4h-6t-5 -1h-6h-6h-12h-12q-67 0 -120 6.5t-94 20.5q-40 14 -62.5 61.5t-26.5 127.5q-1 16 -1.5 31.5t-0.5 31.5v32v32q0 98 11.5 164t33.5 100q23 33 85 50t164 17l17 2q6 -2 13 -2h14h6.5h7.5
q3 -1 6.5 -1h7.5q6 0 12 -0.5t12 -1.5q5 -1 11 -1.5t12 -1.5q12 -1 23 -4t21 -6q26 -9 45 -25.5t31 -39.5t19.5 -47.5t10.5 -50.5q1 -7 1.5 -13.5t0.5 -12.5v-6t1 -6v-6v-6v-105l1 -94v-9.5v-8.5v-7.5v-7.5q-1 -12 -1.5 -23.5t-2.5 -22.5q-1 -12 -4 -23l-6 -22l56 -36v0z
M332 290l192 -127q0 2 0.5 5t1.5 6v3.5t1 3.5v3v4v3.5t1 2.5v3.5v2.5v6.5v7.5v10.5v11.5v10.5v10.5v22t1 22v10.5v11.5v10.5v10.5v22v22v12v12q-1 6 -1 12v12v12t-1 12q0 5 -0.5 11t-0.5 12q-4 42 -16 67.5t-31 34.5t-44 14t-56 5l-75 2q-49 -2 -85.5 -7.5t-59.5 -16.5
t-34.5 -47t-11.5 -97v-25.5v-25.5v-25.5t1 -24.5l1 -104q0 -64 11 -101.5t33 -49.5t61 -18t96 -6h6h6h6.5h7.5q2 0 3.5 -0.5t3.5 -0.5h3h3h6.5h7.5h10h11q5 0 10.5 0.5t11.5 1.5q13 1 25.5 4t25.5 7q12 5 22.5 13t19.5 18l-208 137l35 52v0z" />
    <glyph glyph-name="R" unicode="R" horiz-adv-x="623" 
d="M63 0v667h316q52 -2 89.5 -13t60.5 -32q23 -22 35 -59.5t12 -90.5q0 -34 -3.5 -62.5t-11.5 -51.5q-7 -23 -32.5 -38.5t-69.5 -23.5q29 -2 49.5 -12t33.5 -27q12 -17 18.5 -39.5t6.5 -49.5v-168h-77v153q0 31 -8 53.5t-23 35.5q-15 12 -39 18.5t-56 6.5l-227 2v-269h-74v0
zM137 331h217q2 -1 4.5 -1h4.5q34 0 59.5 6t41.5 17q17 12 25.5 37.5t8.5 63.5q0 36 -4.5 63t-13.5 45t-34 27.5t-66 9.5l-243 2v-270v0z" />
    <glyph glyph-name="S" unicode="S" horiz-adv-x="560" 
d="M520 484h-73q-2 35 -9 59.5t-19 36.5t-37.5 18.5t-63.5 6.5l-36 2q-7 -2 -14.5 -2.5t-15.5 -0.5h-8h-9q-4 -1 -8 -1h-9q-10 -1 -20.5 -2.5t-20.5 -3.5t-18.5 -5t-14.5 -7q-8 -5 -14 -12t-10 -15q-2 -4 -3.5 -8.5t-2.5 -8.5q-1 -5 -2 -9t-1 -9q-1 -4 -1.5 -8t-0.5 -8v-8
v-7q0 -28 4 -49t13 -35t29.5 -22t52.5 -10q5 -1 10.5 -1.5t11.5 -0.5q5 -1 10.5 -1h10.5h21.5h20.5q50 -1 92 -7.5t77 -18.5t53 -50.5t18 -103.5q0 -38 -6 -71t-17 -60t-39.5 -42.5t-73.5 -19.5h-8t-8 -1h-8h-8q-8 0 -15.5 -0.5t-15.5 -1.5h-8t-8 -1h-8h-8h-16h-16
q-52 0 -95 6t-77 19q-34 14 -51 52t-17 101v4v4v4t1 4v4v4v2t1 2v2v2l72 2q0 -47 6 -77t19 -44t42.5 -21t75.5 -7l63 2q3 -1 6 -1h7q36 0 61.5 4.5t40.5 14.5q16 11 24 37t8 69q0 33 -5 55.5t-15 33.5t-31 17.5t-53 7.5h-7.5t-7.5 1h-7.5h-7.5h-7.5t-7.5 1h-7.5h-7.5
q-52 2 -98 9t-84 20q-39 12 -58 51.5t-19 106.5q0 60 15.5 98t46.5 53t72.5 22.5t93.5 7.5l18 2q52 -2 95 -8.5t77 -18.5t51 -50t17 -102v-8v0z" />
    <glyph glyph-name="T" unicode="T" horiz-adv-x="515" 
d="M297 596v-596h-77v596h-217v71h508v-71h-214v0z" />
    <glyph glyph-name="U" unicode="U" horiz-adv-x="655" 
d="M517 667h75v-467q0 -53 -9.5 -91t-29.5 -62q-19 -24 -57 -36t-94 -14h-10t-9 -1h-9.5h-9.5h-9t-9 -1h-9.5h-9.5q-61 0 -109.5 6.5t-83.5 21.5t-52.5 58.5t-17.5 116.5v469h76v-467q0 -44 7.5 -72.5t22.5 -42.5q15 -13 44 -19.5t71 -6.5l73 2q44 -2 75 4t49 18
q17 12 26 40.5t9 74.5v469v0z" />
    <glyph glyph-name="V" unicode="V" horiz-adv-x="572" 
d="M496 667h81l-236 -667h-108l-238 667h80l213 -607l208 607v0z" />
    <glyph glyph-name="W" unicode="W" horiz-adv-x="998" 
d="M996 667l-210 -667h-114l-175 600l-179 -600h-112l-205 667h77l183 -609l180 609h111l179 -609l187 609h78v0z" />
    <glyph glyph-name="X" unicode="X" horiz-adv-x="581" 
d="M569 667l-212 -322l229 -345h-89l-203 306l-207 -306h-92l238 345l-219 322h91l189 -285l187 285h88v0z" />
    <glyph glyph-name="Y" unicode="Y" horiz-adv-x="562" 
d="M567 667l-252 -388v-279h-75v279l-245 388h87l198 -312l198 312h89v0z" />
    <glyph glyph-name="Z" unicode="Z" horiz-adv-x="567" 
d="M535 667v-71l-420 -530h429v-66h-520v66l418 530h-406v71h499v0z" />
    <glyph glyph-name="bracketleft" unicode="[" horiz-adv-x="277" 
d="M55 667h170v-57h-96v-653h96v-57h-170v767v0z" />
    <glyph glyph-name="backslash" unicode="\" horiz-adv-x="646" 
d="M70 667h56l514 -765h-54l-516 765v0z" />
    <glyph glyph-name="bracketright" unicode="]" horiz-adv-x="277" 
d="M222 -100h-170v57h96v652h-96v58h170v-767v0z" />
    <glyph glyph-name="asciicircum" unicode="^" horiz-adv-x="500" 
d="M105 374h-73l174 294h89l174 -294h-74l-145 241l-145 -241v0z" />
    <glyph glyph-name="underscore" unicode="_" horiz-adv-x="500" 
d="M0 -72h500v-51h-500v51v0z" />
    <glyph glyph-name="grave" unicode="`" horiz-adv-x="500" 
d="M202 660l132 -100l-23 -36l-144 88l35 48v0z" />
    <glyph glyph-name="a" unicode="a" horiz-adv-x="507" 
d="M131 332h-72q0 47 13 75.5t40 38.5q26 10 59 15t73 5q48 0 85.5 -6.5t63.5 -20.5q26 -13 39.5 -47.5t13.5 -89.5v-302h-65l3 48q-15 -20 -33 -32t-38 -16t-41.5 -6t-44.5 -2q-43 0 -77 5.5t-58 18.5q-25 13 -37 43.5t-12 78.5q0 47 13 76t38 41q26 12 58.5 18t72.5 6h5.5
h5.5q3 -1 6 -1h6h6h6q3 -1 6 -1h6q5 0 9 -0.5t9 -1.5q4 -1 8.5 -1.5t8.5 -1.5q9 -1 17.5 -3.5t16.5 -5.5q5 -2 10 -5t9 -8q4 -4 7.5 -9t6.5 -10v58q0 41 -6 68t-18 37q-12 11 -39.5 16t-70.5 5h-4.5h-4.5q-2 -1 -4.5 -1h-5.5h-6h-5q-3 -1 -5.5 -1h-4.5q-7 -1 -14.5 -2
t-13.5 -3q-7 -2 -12 -5l-10 -6q-5 -4 -8.5 -8.5t-5.5 -9.5t-3.5 -10.5t-1.5 -11.5q0 -1 -0.5 -2l-0.5 -1v-2v-2v-2.5v-3.5v-2v-1v-2v-2v-2v-1q0 -1 0.5 -2t0.5 -2v2v0zM115 148q0 -32 6 -52.5t19 -30.5q12 -10 33 -14.5t50 -4.5h10h11h10.5t11.5 1q21 1 40 5.5t37 12.5
q17 8 26 25.5t9 43.5q0 32 -9.5 51t-28.5 26t-42 10.5t-49 3.5l-17 2q-2 -1 -4.5 -1.5t-4.5 -0.5h-5.5h-4.5h-5.5h-4.5q-3 -1 -5.5 -1h-4.5q-9 -1 -17.5 -3t-16.5 -4t-15 -5.5t-12 -8.5q-4 -3 -7 -7t-5 -9q-1 -5 -2.5 -10.5t-1.5 -10.5q-1 -3 -1 -5.5v-4.5v-5.5v-4.5v2v0z
" />
    <glyph glyph-name="b" unicode="b" horiz-adv-x="511" 
d="M60 0v667h69v-259q8 16 20.5 27.5t28.5 18.5q17 7 34 11.5t35 5.5h3.5t2.5 1h3.5h2.5h6h6q62 0 102 -15t57 -45t25.5 -73t8.5 -99q0 -54 -7.5 -98t-21.5 -79q-15 -34 -55 -50.5t-106 -16.5h-2h-2h-1.5h-1.5q-21 1 -40.5 3.5t-39.5 8.5q-19 6 -34.5 18.5t-27.5 30.5l4 -57
h-69v0zM131 247v-26q0 -44 5 -76t15 -53q11 -21 40 -31t77 -10q29 0 50 4.5t34 14.5q14 9 22 28.5t12 49.5q2 11 2.5 22.5t1.5 22.5v11.5t1 11.5v11v12q0 42 -4.5 75t-12.5 56t-36.5 34.5t-78.5 11.5q-45 0 -72.5 -11t-36.5 -34q-10 -22 -14.5 -53.5t-4.5 -72.5v2v0z" />
    <glyph glyph-name="c" unicode="c" horiz-adv-x="485" 
d="M384 169h69q0 -56 -11 -91t-34 -52q-22 -16 -60 -23.5t-91 -7.5q-74 0 -118.5 14.5t-59.5 44.5t-22 78t-7 114q0 59 10 102t31 69q20 26 61.5 39.5t103.5 13.5q38 0 71.5 -6.5t61.5 -18.5t42 -41t14 -76v-2v-2v-2v-1q-1 -1 -1 -2v-2v-2v-2l-68 2q0 30 -6.5 50t-19.5 30
q-13 9 -34.5 14t-51.5 5q-46 0 -75.5 -7.5t-41.5 -22.5t-18 -47t-6 -82v-45q0 -41 4.5 -71t13.5 -50q9 -19 36 -29t73 -10q39 0 65.5 4.5t40.5 13.5t21 34t7 65v2v0z" />
    <glyph glyph-name="d" unicode="d" horiz-adv-x="510" 
d="M450 667v-667h-69l4 60q-13 -22 -29.5 -36t-36.5 -20q-19 -4 -41 -7.5t-45 -3.5q-64 0 -103 16t-54 50t-22 79t-7 100q0 50 7.5 91.5t22.5 74.5t51.5 49.5t94.5 16.5h10.5h11.5h5.5h5.5q3 -1 6 -1h6q17 -1 33.5 -5.5t32.5 -10.5t28 -18t19 -29v261h69v0zM119 241v-15v-13
v-6v-6q0 -4 0.5 -7t0.5 -6q0 -9 1 -18t2 -17q1 -9 2.5 -17t3.5 -16q5 -23 16 -38t27 -21q16 -7 34.5 -10t39.5 -3q48 0 77 11.5t39 33.5q9 23 14 55.5t5 74.5t-4.5 76t-12.5 61q-9 27 -39 40.5t-81 13.5q-47 0 -74.5 -12t-35.5 -35q-7 -23 -11 -55t-4 -73v2v0z" />
    <glyph glyph-name="e" unicode="e" horiz-adv-x="502" 
d="M384 142h72q0 -53 -14 -84.5t-41 -42.5q-28 -11 -64 -16t-80 -5q-66 0 -108 12t-62 37q-19 25 -29 69t-10 108q0 61 7.5 107.5t22.5 79.5q15 32 57 48.5t112 16.5q65 0 107.5 -11t61.5 -33q20 -22 29.5 -65.5t10.5 -108.5v-33h-336q0 -41 4 -72.5t12 -54.5
q8 -24 36 -35.5t75 -11.5l19 2q5 -2 10 -2h11t12 0.5t13 1.5q4 0 7.5 0.5t7.5 0.5q3 1 6.5 2t7.5 2q7 2 13 4.5t11 6.5q5 3 8.5 7.5t4.5 10.5q2 6 3 12l2 12v2t1 2v2.5v2.5v4.5v4.5v17v0zM386 275q0 42 -5 70.5t-16 43.5q-10 14 -38 21.5t-74 7.5q-40 0 -67 -7.5t-40 -22.5
t-19 -44t-6 -71l265 2v0z" />
    <glyph glyph-name="f" unicode="f" horiz-adv-x="269" 
d="M272 467v-57h-123v-410h-71v410h-71v57h71v69q0 39 9 66t28 42q18 14 46.5 21.5t66.5 7.5h3h3q1 -1 2.5 -1h2.5h3h3h2.5h2.5h2h3q1 -1 2.5 -1h2.5h6h6v-56q-3 -1 -6.5 -1t-6.5 1h-7h-6h-6h-6h-7h-6q-21 0 -35 -5t-22 -14q-7 -9 -11 -23t-4 -33v-73h123v0z" />
    <glyph glyph-name="g" unicode="g" horiz-adv-x="509" 
d="M452 466v-496q0 -54 -12.5 -90t-38.5 -53q-25 -17 -63.5 -26t-89.5 -9q-45 0 -79.5 6.5t-57.5 19.5t-34.5 45t-11.5 82h65q2 -32 8.5 -52t18.5 -28t32.5 -12t50.5 -4q35 0 61.5 4.5t45.5 13.5t28.5 33.5t9.5 63.5v93q-10 -20 -23.5 -32.5t-31.5 -18.5t-36 -8.5t-37 -3.5
h-3t-3 -1h-3.5h-3.5h-7h-6q-57 0 -94 14.5t-54 44.5t-25.5 70t-8.5 90q0 56 7 101.5t20 82.5q14 37 54 55.5t107 18.5q23 0 45 -3.5t41 -9.5q20 -6 36 -19.5t29 -33.5l-3 62h67v0zM122 234v-17q0 -41 4 -72t13 -53q8 -22 36 -32.5t75 -10.5q27 0 49.5 5.5t39.5 15.5
q17 11 26.5 31t12.5 50q1 10 1.5 20t1.5 20v10t1 11v10v10q0 41 -4.5 73.5t-12.5 57.5q-9 24 -37.5 36.5t-77.5 12.5q-39 0 -65 -7.5t-38 -22.5q-13 -15 -19 -43t-6 -69v-36v0z" />
    <glyph glyph-name="h" unicode="h" horiz-adv-x="513" 
d="M129 667v-253q11 20 27 33t36 17q20 5 41.5 7.5t43.5 2.5q49 0 83.5 -9t53.5 -27q20 -18 29.5 -52.5t9.5 -84.5v-301h-71v303q0 -1 0 -0.5v1.5v2v2v1v2v0.5t1 1.5v0.5v0.5q0 32 -6.5 53t-19.5 31t-34.5 15t-51.5 5q-44 0 -72.5 -9t-42.5 -26q-13 -18 -20 -47.5t-7 -70.5
v-265h-69v667h69v0z" />
    <glyph glyph-name="i" unicode="i" horiz-adv-x="191" 
d="M131 467v-467h-71v467h71v0zM131 667v-77h-71v77h71v0z" />
    <glyph glyph-name="j" unicode="j" horiz-adv-x="186" 
d="M124 467v-510q0 -27 -4.5 -51t-13.5 -45t-30 -31.5t-53 -10.5h-4h-4q-2 1 -4 1h-4t-4 0.5t-3 0.5q-2 1 -4 1.5t-4 0.5l-2 50h3h1h1.5h0.5h1.5h0.5h0.5t0.5 -1h1v0q19 0 31.5 6.5t16.5 18.5q4 13 6 28t2 32v510h68v0zM126 667v-77h-71v77h71v0z" />
    <glyph glyph-name="k" unicode="k" horiz-adv-x="433" 
d="M131 667v-388h28l168 188h86l-199 -215l235 -252h-92l-198 225h-28v-225h-71v667h71v0z" />
    <glyph glyph-name="l" unicode="l" horiz-adv-x="191" 
d="M131 667v-667h-71v667h71v0z" />
    <glyph glyph-name="m" unicode="m" horiz-adv-x="817" 
d="M60 467h67v-70q11 20 27.5 35t37.5 23t43 12.5t45 4.5h4h4q1 -1 3 -1h4h8h8q19 -2 37 -7.5t34 -13.5q17 -8 28.5 -21.5t18.5 -33.5q13 22 30 37t38 24q21 8 43.5 12.5t47.5 4.5q46 0 78.5 -9.5t51.5 -28.5q20 -19 29.5 -51.5t9.5 -77.5v-306h-73v314q0 28 -5.5 48.5
t-16.5 30.5q-10 11 -31 16.5t-51 5.5h-5.5h-5.5q-2 -1 -5 -1h-6t-6 -0.5t-5 -0.5q-3 -1 -6 -1.5t-6 -0.5q-13 -2 -25 -6t-23 -10q-12 -6 -20 -14.5t-13 -19.5q-3 -7 -5 -13.5t-3 -14.5q-1 -7 -2 -14.5t-1 -14.5v-5.5v-4.5v-5.5v-4.5v-11v-273h-71v308q-1 31 -7 52.5
t-15 31.5q-10 11 -31.5 16.5t-55.5 5.5q-39 0 -66 -9.5t-41 -28.5q-15 -19 -22 -46.5t-7 -63.5v-266h-67v467v0z" />
    <glyph glyph-name="n" unicode="n" horiz-adv-x="515" 
d="M60 467h65v-60q14 20 31 33.5t38 20.5t43.5 10.5t46.5 3.5q47 0 80.5 -9.5t52.5 -27.5t28.5 -51t9.5 -80v-307h-71v303q0 34 -5.5 56.5t-16.5 34.5q-11 11 -34.5 17t-58.5 6q-34 0 -59.5 -8t-43.5 -23q-18 -16 -27 -41.5t-9 -60.5v-284h-70v467v0z" />
    <glyph glyph-name="o" unicode="o" horiz-adv-x="507" 
d="M54 246q0 58 8.5 101t26.5 71q18 27 59 41t105 14q67 0 110.5 -12t63.5 -35t30 -67.5t10 -110.5q0 -58 -6.5 -104.5t-18.5 -81.5q-12 -36 -54 -53t-114 -17q-63 0 -106 9.5t-67 28.5q-24 20 -35.5 62t-11.5 108v46v0zM126 247v-39v-7v-5v-6v-6v-11.5t1 -10.5
q1 -15 3 -28.5t5 -26.5t7.5 -23t11.5 -17q5 -5 12 -8.5t15 -5.5t16.5 -3.5t17.5 -1.5h2h2h1h2h4h4l32 2q1 -1 2.5 -1h2.5h2.5h2.5q26 0 47 4t36 12q17 8 26 29t11 54v6.5t1 7.5v6.5v6.5v6t1 7v6.5v7.5v6t1 7v6.5v6.5v13.5v13.5q0 43 -4 73.5t-12 49.5q-8 18 -33.5 27.5
t-68.5 9.5l-15 2q-46 -2 -74.5 -9t-39.5 -21t-16.5 -45.5t-5.5 -81.5v-13v0z" />
    <glyph glyph-name="p" unicode="p" horiz-adv-x="510" 
d="M60 466h69l-3 -59q14 19 30 31.5t35 19.5q19 6 40 9.5t44 3.5q63 0 102 -16t55 -48q15 -31 23 -74.5t8 -98.5q0 -54 -7.5 -97.5t-21.5 -77.5t-51.5 -50t-99.5 -16h-2.5h-3.5h-2.5h-3.5q-21 1 -41 4t-39 7q-19 6 -34.5 18t-27.5 31v-254h-69v667v0zM131 249v-35
q0 -38 5 -68t15 -53q11 -22 38 -33t70 -11q47 0 75.5 10.5t37.5 31.5t13.5 52.5t4.5 71.5v30q0 40 -4.5 71t-12.5 53t-36 33t-75 11q-46 0 -74 -10t-38 -30q-10 -19 -14.5 -50.5t-4.5 -75.5v2v0z" />
    <glyph glyph-name="q" unicode="q" horiz-adv-x="511" 
d="M454 466v-666h-70v253q-8 -17 -20 -28t-27 -17t-30.5 -9.5t-32.5 -4.5h-4.5t-4.5 -1h-4.5h-4.5h-4.5t-4.5 -1h-4.5h-4.5q-63 0 -102.5 15.5t-55.5 47.5t-23.5 76t-7.5 99q0 53 7.5 95.5t23.5 76.5q15 33 53.5 50t99.5 17q23 0 45 -3t41 -8q20 -5 37 -18t31 -33l-3 59h70
v0zM122 244v-36q0 -41 5.5 -71.5t15.5 -50.5q11 -19 38.5 -29t73.5 -10q45 0 72.5 12t36.5 36t13.5 55.5t4.5 68.5v11q0 46 -4.5 80.5t-13.5 56.5q-9 23 -39 34.5t-81 11.5q-43 0 -69.5 -12t-35.5 -36t-13 -54.5t-4 -68.5v2v0z" />
    <glyph glyph-name="r" unicode="r" horiz-adv-x="393" 
d="M60 467h68l-3 -54q11 16 24.5 28.5t29.5 19.5q17 8 35.5 11.5t38.5 3.5q35 0 61 -8.5t42 -25.5q17 -17 25 -43t8 -61v-7.5v-6.5v-3v-4q-1 -1 -1 -3v-4l-68 2v2.5t1 3.5v4.5v4.5v9.5v8.5q0 21 -5 36t-16 22q-10 8 -25.5 11.5t-35.5 3.5q-27 0 -47.5 -6.5t-34.5 -20.5
q-13 -13 -20 -34t-7 -48v-23v-286h-70v467v0z" />
    <glyph glyph-name="s" unicode="s" horiz-adv-x="477" 
d="M426 346h-70q0 17 -3 30.5t-9 21.5t-19 12.5t-33 5.5h-10t-9 1h-10h-10h-19.5h-19.5h-7.5h-7.5h-4h-3q-2 -1 -4 -1h-4q-7 -1 -14.5 -1.5t-14.5 -2.5q-7 -1 -13.5 -4t-11.5 -7q-4 -4 -7 -8t-5 -9q-1 -5 -2.5 -10.5t-1.5 -10.5v-4v-4v-4v-4q0 -22 3 -36.5t10 -22.5
q7 -7 21 -11.5t36 -5.5q6 -1 12.5 -1h13.5h13.5h13.5q38 -1 73.5 -5.5t66.5 -13.5q32 -9 47.5 -38t15.5 -77q0 -51 -14 -81.5t-41 -41.5q-28 -10 -63 -15t-79 -5h-4h-4h-4h-4q-36 1 -68.5 5.5t-61.5 14.5t-43.5 37t-14.5 70v3.5v2.5v2v2l0.5 1t0.5 2v3.5v2.5v2t1 2v1v2l70 2
q0 -34 6 -55t18 -30t33.5 -13.5t52.5 -4.5l17 2q5 -2 10.5 -2h11.5t12 0.5t13 1.5q8 0 16.5 1.5t17.5 3.5q8 2 15 5t13 7q5 3 8.5 8t5.5 11t3.5 12t2.5 13v3.5t1 2.5v3.5v2.5v6v6q0 27 -7.5 43.5t-21.5 20.5q-14 5 -31.5 7t-38.5 2h-1.5h-0.5h-1.5h-0.5h-3t-3 1h-3.5h-3.5
h-3h-3h-3.5h-3.5h-5.5h-4.5h-2.5t-2.5 1h-3h-2q-36 2 -67 6.5t-57 13.5q-25 9 -38 35.5t-13 70.5v9.5v8.5q0 5 0.5 10t1.5 10q1 10 3 19.5t6 18.5q3 9 9 17t14 14t18 11t22 9q11 3 23 6t25 4q8 1 16.5 1.5t16.5 0.5h8t8 1h7.5h7.5h12.5h13.5h6.5h7.5q3 -1 6.5 -1h7.5
q27 -1 51.5 -7t46.5 -17q23 -10 34 -32t11 -55v-1.5v-0.5v-1.5v-1.5v-2v-2q-1 -1 -1 -2v-2v-2v-2v2v0z" />
    <glyph glyph-name="t" unicode="t" horiz-adv-x="325" 
d="M307 467v-57h-180v-286q0 -22 3 -36.5t9 -22.5t19.5 -12t34.5 -4q23 0 37.5 5.5t18.5 17.5q5 11 7.5 26t2.5 34v33h66q0 -38 -5.5 -69t-16.5 -55q-11 -25 -39 -36.5t-72 -11.5q-39 0 -66 6.5t-41 20.5q-15 14 -22 39.5t-7 62.5v288h-61v57h61v112h71v-112h180v0z" />
    <glyph glyph-name="u" unicode="u" horiz-adv-x="507" 
d="M447 467v-467h-65v62q-15 -24 -32 -38.5t-37 -20.5q-19 -4 -42 -7t-49 -3q-42 0 -72.5 9.5t-50.5 28.5q-19 20 -29 50.5t-10 72.5v313h71v-311q0 -32 5.5 -53t15.5 -32q11 -11 32 -16.5t53 -5.5q41 0 69 7.5t42 23.5q14 15 21 42.5t7 67.5v277h71v0z" />
    <glyph glyph-name="v" unicode="v" horiz-adv-x="402" 
d="M405 467l-156 -467h-98l-155 467h71l134 -414l128 414h76v0z" />
    <glyph glyph-name="w" unicode="w" horiz-adv-x="670" 
d="M667 467l-131 -467h-101l-101 417l-101 -417h-103l-127 467h72l107 -420l103 420h100l102 -420l107 420h73v0z" />
    <glyph glyph-name="x" unicode="x" horiz-adv-x="404" 
d="M390 467l-149 -224l167 -243h-85l-121 188l-121 -188h-84l169 243l-151 224h79l108 -171l106 171h82v0z" />
    <glyph glyph-name="y" unicode="y" horiz-adv-x="389" 
d="M392 467l-132 -494q-1 -3 -2 -6.5t-2 -7.5q-1 -3 -1.5 -6.5t-1.5 -7.5q-9 -29 -21 -56t-29 -51q-16 -24 -41.5 -36.5t-60.5 -12.5h-4t-4 1q-3 0 -5 0.5t-4 0.5q-4 1 -8 1.5t-8 1.5v57h1.5t1.5 -1h1.5h1.5h2t2 -1h1h2h1.5t1.5 -1h1.5h1.5h2h2h1h2q18 0 31.5 7.5t22.5 21.5
t16.5 29.5t11.5 32.5q2 9 4.5 17t3.5 16q1 4 2 7.5t2 7.5q0 3 1 6.5t2 6.5h-25l-169 467h71l146 -416l106 416h72v0z" />
    <glyph glyph-name="z" unicode="z" horiz-adv-x="403" 
d="M44 467h337v-65l-279 -344h279v-58h-360v65l278 347h-255v55v0z" />
    <glyph glyph-name="braceleft" unicode="{" horiz-adv-x="500" 
d="M216 246q17 -11 28.5 -23.5t16.5 -27.5t7.5 -32t2.5 -35v-153q0 -28 5 -47t15 -29t28.5 -15t46.5 -6v-65q-43 0 -75.5 6t-53.5 18t-31.5 43.5t-10.5 81.5v160q0 16 -3 30.5t-8 27.5q-5 12 -17 21t-30 15v61q17 4 28.5 12t17.5 20t9 27t3 31v177q0 40 10.5 67.5t31.5 40.5
t49.5 19.5t65.5 6.5h3.5h2.5h2h2q1 -1 2 -1h2v-66q-25 -2 -43.5 -7.5t-29.5 -14.5q-11 -10 -16.5 -28t-5.5 -45v-158q0 -20 -2.5 -37t-7.5 -31q-4 -13 -15.5 -25t-29.5 -21v2v0z" />
    <glyph glyph-name="bar" unicode="|" horiz-adv-x="500" 
d="M211 666h78v-833h-78v833v0z" />
    <glyph glyph-name="braceright" unicode="}" horiz-adv-x="500" 
d="M284 247q-17 8 -28 20t-16 27t-7.5 31.5t-2.5 35.5v157q0 26 -5 45t-16 29q-10 10 -29 15t-45 6v67q43 -2 75 -7.5t53 -16.5t32 -42.5t11 -84.5v-158q0 -19 2.5 -34.5t7.5 -27.5q5 -13 17 -22t31 -14v-57q-18 -7 -29.5 -16t-17.5 -21t-8.5 -26t-2.5 -31v-173
q0 -41 -10.5 -68.5t-30.5 -40.5q-20 -14 -49 -20.5t-67 -6.5h-2h-2h-1.5h-1.5h-1.5h-0.5q-1 1 -1.5 1h-0.5h-1.5h-1.5v68q26 1 44 6t29 14q11 10 16.5 28t5.5 45v160q0 17 2.5 33.5t6.5 29.5q5 14 16 25.5t29 21.5v2v0z" />
    <glyph glyph-name="asciitilde" unicode="~" horiz-adv-x="500" 
d="M52 261l-42 33q10 19 23.5 38t29.5 37q17 17 37.5 26t45.5 9q14 0 28 -3t27 -9t25.5 -12t25.5 -12v-1h1v0h1v-1v0q12 -7 24.5 -13t25.5 -11q12 -6 25.5 -8.5t27.5 -2.5t25.5 4.5t21.5 13.5t18.5 19.5t15.5 22.5q1 1 1.5 2t1.5 2l0.5 1t1.5 2l2 4l2 4l42 -31l-1.5 -3
t-0.5 -2v-0.5v-0.5q-1 -1 -1 -1.5v-0.5q-10 -19 -23.5 -37.5t-30.5 -35.5q-17 -16 -37.5 -24.5t-43.5 -8.5q-15 0 -28.5 2.5t-26.5 8.5l-26 12t-26 13q-11 6 -22.5 12t-22.5 11q-12 5 -24 9t-25 5q-19 0 -33.5 -6t-25.5 -17t-21 -24t-18 -28v2v0z" />
    <glyph glyph-name="exclamdown" unicode="&#xa1;" horiz-adv-x="240" 
d="M80 -200l10 483h64l8 -483h-82v0zM79 376v91h79v-91h-79v0z" />
    <glyph glyph-name="cent" unicode="&#xa2;" horiz-adv-x="613" 
d="M325 491v-367q35 0 56.5 7t30.5 20t13.5 35.5t4.5 54.5l68 2q0 -47 -9.5 -81t-28.5 -55t-52.5 -31t-82.5 -10v-69h-57v71q-61 0 -98.5 17t-51.5 51q-13 34 -20 76.5t-7 94.5q0 49 7.5 91t23.5 76q15 35 51.5 52.5t94.5 17.5v67h57v-65q42 -2 73.5 -11.5t50.5 -26.5
q20 -18 30 -48t10 -73l-68 2q-1 26 -5.5 45.5t-12.5 30.5q-7 11 -26.5 17t-51.5 7v2v0zM268 492q-37 -5 -58.5 -16t-29.5 -30q-7 -19 -11 -46t-4 -62v-31v-12.5v-10.5v-10.5t1 -10.5q0 -10 1 -20.5t2 -21.5q2 -10 3.5 -20t4.5 -19q5 -19 13.5 -30.5t19.5 -16.5t25.5 -8
t32.5 -4v369v0z" />
    <glyph glyph-name="sterling" unicode="&#xa3;" horiz-adv-x="613" 
d="M392 323v-63h-189v-22.5v-21.5v-20.5t1 -21.5q0 -20 -2.5 -36.5t-7.5 -29.5t-15.5 -25.5t-25.5 -23.5l-1.5 -1.5t-1.5 -0.5l-1.5 -1.5l-0.5 -0.5l432 7v-62h-517v57q12 1 22 6.5t17 12.5q8 8 13 17.5t8 22.5q2 7 2.5 14t1.5 14q0 8 0.5 15.5t1.5 14.5v6.5v7.5v7.5v7.5v57
h-83v63h83v102v2.5v2.5v2v2v1v2t-0.5 2t-0.5 2v1v2v2v2v1v2q0 65 10.5 108t31.5 65q21 23 64 34t107 11q48 0 88.5 -7t73.5 -21q32 -14 48.5 -50t16.5 -94v-4v-4v-4v-4v-2v-2q-1 -1 -1 -2v-2v-4v-4l-72 2q0 37 -5.5 64t-16.5 43t-37.5 24t-68.5 8l-26 2q-6 -2 -12 -2h-12
q-7 0 -13.5 -0.5t-12.5 -1.5q-10 -1 -19 -3l-18 -4q-9 -3 -16 -6.5t-12 -8.5q-6 -6 -10 -12.5t-6 -14.5t-3.5 -16.5t-2.5 -16.5v-4v-3q-1 -2 -1 -3.5v-3.5v-6v-6v-2v-2v-1.5v-1.5v-1.5v-0.5v-1.5v-1.5v-2v-2v-22v-135h189v0z" />
    <glyph glyph-name="currency" unicode="&#xa4;" horiz-adv-x="687" 
d="M68 109l91 93q-11 13 -20 29.5t-15 34.5q-7 18 -10 36.5t-3 37.5q0 20 3.5 38t10.5 35t16 33.5t20 32.5l-95 96l42 42l94 -94q4 1 8 3l8 4t8 4.5t8 4.5q13 7 26 12.5t26 9.5q14 5 28.5 7t30.5 2q20 0 38 -3.5t35 -10.5t33 -15.5t32 -19.5l95 95l42 -41l-94 -93
q11 -17 20 -34t16 -35t10.5 -36t3.5 -38q0 -19 -3.5 -37.5t-10.5 -35.5t-15 -33.5t-19 -32.5l93 -91l-41 -42l-94 93q-16 -14 -32.5 -23.5t-34.5 -15.5q-18 -7 -37 -10t-39 -3q-19 0 -37.5 4t-36.5 11q-18 8 -34.5 16.5t-32.5 18.5l-92 -91l-42 42v0zM344 507
q-34 -2 -63 -14.5t-53 -36.5q-24 -25 -36 -54t-12 -62q0 -34 12 -63t36 -53t53 -36t63 -12q33 0 62 12t53 36t36 53t12 63q0 33 -12 62t-36 54q-24 24 -52.5 36.5t-62.5 12.5v2v0z" />
    <glyph glyph-name="yen" unicode="&#xa5;" horiz-adv-x="613" 
d="M449 455h91v-62h-129l-61 -99h190v-62h-199v-232h-75v232h-193v62h184l-59 99h-125v62h88l-127 212h87l185 -312l184 312h89l-130 -212v0z" />
    <glyph glyph-name="brokenbar" unicode="&#xa6;" 
 />
    <glyph glyph-name="section" unicode="&#xa7;" horiz-adv-x="613" 
d="M523 497h-66q0 37 -6.5 60.5t-19.5 33.5q-13 9 -38.5 14t-63.5 5l-48 2q-3 -2 -5.5 -2h-4.5h-5.5h-4.5q-8 -1 -15.5 -1.5t-15.5 -1.5q-7 -1 -14.5 -3t-13.5 -4q-9 -4 -15.5 -9.5t-9.5 -13.5q-4 -7 -6 -15.5t-2 -16.5q-1 -3 -1 -6v-6v-6v-6q0 -24 2.5 -40t7.5 -24
t15.5 -14.5t26.5 -11.5q2 -1 4 -1.5t4 -0.5q2 -1 4.5 -1.5t4.5 -1.5q5 -1 10 -2.5t11 -3.5l149 -43q2 -2 4 -3t5 -2q2 0 4 -1t4 -1q2 -1 4 -1.5t4 -0.5q2 -1 4 -1.5t4 -1.5q26 -7 44.5 -17.5t29.5 -22.5q11 -13 17 -36t6 -58q0 -20 -3.5 -38t-9.5 -33q-7 -15 -19.5 -27
t-32.5 -20q23 -10 37 -23.5t19 -30.5t7.5 -36.5t2.5 -41.5q0 -51 -12 -85t-35 -52q-23 -17 -59 -26t-86 -9h-41q-55 0 -97.5 7t-71.5 21q-29 13 -43.5 52.5t-14.5 104.5h68v-28v-2v-2v-1v-2v-4v-4q0 -8 1.5 -15.5t3.5 -14.5t5.5 -13t9.5 -11q5 -5 13 -8.5t18 -5.5
q11 -2 21.5 -4t21.5 -3h7.5t7.5 -1h6.5h7.5h6.5t6.5 -1h7h6h9h4h4h4h5q2 1 4 1h4h4h4q26 1 48.5 4.5t43.5 9.5q20 7 30.5 27t10.5 53q0 24 -3 40.5t-9 25.5t-17.5 16t-29.5 13q-3 1 -6.5 2t-7.5 2q-2 1 -4 1.5t-4 1.5q-3 0 -5 0.5t-4 1.5l-205 56q-32 7 -52.5 19t-29.5 28
q-9 15 -13.5 39t-4.5 56q0 23 3.5 42t10.5 34q8 15 23 25.5t39 15.5q-16 11 -26.5 25t-15.5 30q-4 17 -6.5 34t-2.5 36q0 53 11.5 86t34.5 46q23 14 58 20.5t81 6.5l25 2q56 -2 96.5 -8.5t65.5 -19.5q26 -13 38.5 -50.5t12.5 -100.5v2v0zM214 189l151 -42q1 -2 2 -2.5
t2 -0.5q1 -1 2 -1h2q5 -1 9.5 -2.5t9.5 -2.5t10 -1.5t10 -0.5q19 0 31 7t18 21t9 30t4 34v2v2v3.5v2.5q0 18 -6 30t-18 19t-25.5 12.5t-27.5 9.5v0v1h-1v0v0v0h-1v0h-1.5h-0.5v0v1h-1v0l-144 44q-4 0 -7.5 1t-7.5 2t-7.5 2t-6.5 2h-2.5t-2.5 1h-3h-2h-2.5t-2.5 1h-3h-2
q-17 0 -28.5 -6.5t-17.5 -20.5q-6 -13 -9 -27.5t-3 -29.5v-1.5v-0.5v0v0v-1v0q0 -22 3 -36.5t9 -22.5t18 -15t29 -12q2 -1 3.5 -1.5t2.5 -0.5q2 -1 4 -1.5t4 -0.5v2v0z" />
    <glyph glyph-name="dieresis" unicode="&#xa8;" horiz-adv-x="500" 
d="M200 580v-66h-78v66h78v0zM378 580v-66h-79v66h79v0z" />
    <glyph glyph-name="copyright" unicode="&#xa9;" horiz-adv-x="783" 
d="M392 678q71 -2 131.5 -27.5t111.5 -76.5q50 -51 75.5 -111.5t25.5 -131.5t-25.5 -132t-75.5 -111q-51 -51 -111.5 -75.5t-131.5 -24.5t-132 24.5t-112 75.5q-51 50 -76 111t-25 132t25 132t76 112q51 50 112 75.5t132 25.5v2v0zM392 639q-63 -2 -117 -25t-98 -68t-66 -99
t-22 -116q0 -63 22 -117t66 -99q44 -46 98 -68.5t117 -22.5t116.5 22.5t97.5 68.5t66 100t22 116t-22 116t-66 99t-97.5 68t-116.5 23v2v0zM576 296q-3 -39 -17 -69.5t-40 -53.5q-25 -22 -56.5 -33.5t-68.5 -11.5q-44 0 -79 14.5t-61 44.5q-25 29 -38 65t-13 78t13 78.5
t38 67.5q26 30 61 45.5t80 15.5h1.5h1.5h1.5h1.5q30 -1 58 -10.5t53 -27.5q26 -18 40 -43t18 -57l-41 2q-5 22 -17.5 39.5t-32.5 29.5q-19 11 -40.5 17t-44.5 6q-34 0 -60.5 -12.5t-44.5 -37.5t-26.5 -53t-8.5 -60q0 -31 9 -59t27 -52t44 -35.5t60 -11.5q29 0 52.5 8
t42.5 24q20 17 31 39.5t15 50.5l41 2v0z" />
    <glyph glyph-name="ordfeminine" unicode="&#xaa;" horiz-adv-x="613" 
d="M147 320h319v-39h-319v39v0zM235 583h-50v-1v0q-1 0 -1 0.5v0.5v1.5v1.5v0.5v1.5v1.5v1.5q0 28 9 44.5t28 21.5q18 5 39 8t43 3q29 0 52.5 -3.5t41.5 -11.5q17 -7 26 -29t9 -57v-183h-47l2 23q-1 -3 -2.5 -4.5l-3.5 -3.5q-1 -1 -2.5 -2t-3.5 -2q-10 -7 -19.5 -10.5
t-19.5 -5.5q-10 -1 -21 -1.5t-23 -0.5q-26 0 -47 4t-38 12q-16 8 -24.5 26.5t-8.5 48.5q0 29 8.5 47t25.5 25q17 8 37.5 11.5t45.5 3.5h1.5h1.5h0.5h1.5h3.5h2.5q5 0 10 -0.5t11 -0.5q5 -1 10 -1.5t10 -1.5q11 -1 20 -5.5t18 -12.5v27q0 24 -3.5 39t-11.5 21q-7 6 -23.5 9
t-42.5 3h-1.5h-1.5h-1.5h-0.5q-12 0 -22.5 -1.5t-19.5 -4.5q-10 -3 -14.5 -11.5t-4.5 -22.5v-1.5v-1.5v-1.5v-0.5v-2v-1v-0.5t1 -0.5v-1.5v-0.5v2v0zM225 475q0 -23 4.5 -36t13.5 -16q9 -4 23.5 -5.5t33.5 -1.5h4.5h4.5h4.5h5.5q12 1 23 4t21 7q10 5 15 14.5t5 24.5
q0 19 -6 30t-17 15q-12 3 -25.5 5t-29.5 2l-13 2q-23 -2 -37.5 -4.5t-19.5 -7.5t-7.5 -14t-2.5 -21v2v0z" />
    <glyph glyph-name="guillemotleft" unicode="&#xab;" horiz-adv-x="447" 
d="M170 511l51 -31l-105 -223l117 -225l-49 -32l-134 257l120 254v0zM334 511l51 -31l-105 -223l117 -225l-49 -32l-134 257l120 254v0z" />
    <glyph glyph-name="logicalnot" unicode="&#xac;" 
 />
    <glyph glyph-name="sfthyphen" unicode="&#xad;" 
 />
    <glyph glyph-name="registered" unicode="&#xae;" horiz-adv-x="783" 
d="M392 678q71 -2 131.5 -27.5t111.5 -76.5q50 -51 75.5 -111.5t25.5 -131.5t-25.5 -132t-75.5 -111q-51 -51 -111.5 -75.5t-131.5 -24.5t-132 24.5t-112 75.5q-51 50 -76 111t-25 132t25 132t76 112q51 50 112 75.5t132 25.5v2v0zM392 639q-63 -2 -117 -25t-98 -68t-66 -99
t-22 -116q0 -63 22 -117t66 -99q44 -46 98 -68.5t117 -22.5t116.5 22.5t97.5 68.5t66 100t22 116t-22 116t-66 99t-97.5 68t-116.5 23v2v0zM244 527h165q2 -2 3.5 -2h2.5h2h2h1h2q23 -1 45 -8t41 -18q20 -11 30 -30.5t10 -48.5q0 -19 -5 -34.5t-14 -27.5q-10 -12 -23 -21.5
t-30 -15.5q23 -7 37 -19t18 -27q5 -15 7.5 -33t3.5 -38v-2v-2v-2v-2v-1.5v-1.5v-2v-1v-2v-2v-1.5t1 -1.5q0 -7 0.5 -14t1.5 -13q1 -7 3 -13t5 -11l-49 2q-1 1 -2.5 4t-2.5 6t-1.5 6.5t-0.5 7.5q-1 2 -1.5 4t-0.5 4v4.5v4.5v6v6v3.5v2.5q-1 2 -1 3.5v2.5q-1 26 -4.5 45.5
t-10.5 32.5q-7 14 -29 20.5t-60 6.5l-96 2v-172h-50v393v0zM294 493v-154h98q1 -1 2 -1h2h1h2q18 0 34.5 3.5t31.5 10.5q17 8 25 24t8 41q0 22 -7.5 37t-22.5 22q-15 8 -32 11.5t-36 3.5l-106 2v0z" />
    <glyph glyph-name="overstore" unicode="&#xaf;" 
 />
    <glyph glyph-name="degree004" unicode="&#xb0;" 
 />
    <glyph glyph-name="plusminus" unicode="&#xb1;" horiz-adv-x="500" 
d="M23 98h454v-42h-454v42v0zM23 374h205v192h43v-192h206v-42h-206v-190h-43v190h-205v42v0z" />
    <glyph glyph-name="twosuperior" unicode="&#xb2;" 
 />
    <glyph glyph-name="threesuperior" unicode="&#xb3;" 
 />
    <glyph glyph-name="acute" unicode="&#xb4;" horiz-adv-x="500" 
d="M299 660l35 -48l-143 -88l-24 36l132 100v0z" />
    <glyph glyph-name="mu" unicode="&#xb5;" horiz-adv-x="535" 
d="M62 -166v644h72v-270q0 -18 1 -34.5t4 -32.5q2 -16 9 -30t19 -26q9 -10 20 -18t24 -13q12 -6 25.5 -8.5t27.5 -2.5q30 0 53.5 11.5t39.5 33.5q17 23 27 47.5t14 51.5v3.5t1 3.5v3v4v3.5t1 3.5v3v4v263h72v-478h-72v93q-9 -24 -22 -43t-31 -34q-18 -14 -39 -21t-46 -7
q-22 0 -41 4.5t-34 12.5q-15 9 -28.5 22.5t-24.5 31.5v-225h-72v0z" />
    <glyph glyph-name="paragraph" unicode="&#xb6;" horiz-adv-x="613" 
d="M557 -187h-67v791h-79v-791h-67v448h-106q-2 -1 -4.5 -1h-4.5h-5.5h-4.5h-4.5h-4.5h-5.5h-4.5h-7.5h-6.5h-3h-3h-3.5h-3.5q-18 0 -34.5 2.5t-33.5 6.5q-16 5 -30.5 14t-26.5 23q-11 13 -18.5 27.5t-12.5 30.5q-4 16 -7 32.5t-3 32.5q-1 3 -1 6.5v7.5v6.5v7.5q0 54 9 93
t28 64t56.5 37.5t93.5 12.5l33 2h331v-853v0zM344 322v282l-122 3q-1 -1 -2 -1.5l-1 -0.5h-2h-2h-2t-1 1h-2h-2h-4h-4h-2.5h-3.5h-8.5h-9.5h-4.5h-4.5q-2 -1 -4.5 -1h-4.5q-7 -1 -14.5 -2.5t-14.5 -3.5t-13 -5.5t-11 -8.5q-7 -7 -11.5 -15t-7.5 -18t-5 -19.5t-3 -20.5
q-1 -6 -1 -11.5v-10.5v-10v-10q0 -43 6 -71.5t19 -43.5q12 -15 41 -23t75 -8h16h16q7 -1 15 -1h16q16 -1 31.5 -1.5t31.5 -1.5v2v0z" />
    <glyph glyph-name="glyph120" unicode="&#xb7;" 
 />
    <glyph glyph-name="cedilla" unicode="&#xb8;" horiz-adv-x="500" 
d="M257 -35l55 -31l-79 -109l-44 23l68 117v0z" />
    <glyph glyph-name="onesuperior" unicode="&#xb9;" 
 />
    <glyph glyph-name="ordmasculine" unicode="&#xba;" horiz-adv-x="613" 
d="M147 320h319v-39h-319v39v0zM175 534q0 40 6 67t19 42q12 14 39 21.5t68 7.5t67 -7.5t39 -22.5q12 -15 18.5 -43t6.5 -70v-14q0 -37 -5 -62.5t-14 -42.5q-10 -16 -36 -24.5t-70 -8.5q-37 0 -63 7t-43 20q-16 14 -24 39.5t-8 63.5v27v0zM225 534v-28v-7v-5v-5.5v-4.5
q0 -9 1.5 -17t2.5 -16q2 -7 5.5 -13t7.5 -10t8.5 -6t10.5 -3q5 -1 11 -1.5t12 -0.5q34 0 55.5 4t30.5 11q9 8 13.5 26.5t4.5 48.5v39q0 19 -2.5 35t-7.5 28q-5 11 -19.5 17t-37.5 6l-22 2q-1 -1 -2.5 -1.5t-2.5 -0.5h-3h-3h-2.5h-2.5q-2 -1 -3 -1h-3q-5 -1 -9.5 -1.5
t-9.5 -1.5q-4 -1 -8 -3t-7 -4q-4 -4 -7 -9t-5 -11q-2 -7 -3.5 -13.5t-1.5 -14.5q-1 -4 -1 -7.5v-6.5v-7v-6v-12v0z" />
    <glyph glyph-name="guillemotright" unicode="&#xbb;" horiz-adv-x="447" 
d="M113 511l120 -254l-135 -257l-48 32l116 225l-105 223l52 31v0zM277 511l120 -254l-135 -257l-48 32l116 225l-105 223l52 31v0z" />
    <glyph glyph-name="onequarter" unicode="&#xbc;" 
 />
    <glyph glyph-name="onehalf" unicode="&#xbd;" 
 />
    <glyph glyph-name="threequarters" unicode="&#xbe;" 
 />
    <glyph glyph-name="questiondown" unicode="&#xbf;" horiz-adv-x="519" 
d="M253 274h73q0 -34 -3.5 -58.5t-10.5 -39.5t-24 -28.5t-46 -25.5q-2 -1 -4.5 -2t-4.5 -2q-3 -1 -5.5 -2t-4.5 -2q-6 -3 -12 -5t-11 -4q-6 -2 -10.5 -4t-9.5 -4q-17 -8 -29 -18t-18 -21q-7 -11 -10 -30t-3 -45q0 -44 6.5 -70.5t19.5 -35.5q14 -9 41 -14t69 -5q32 0 57.5 4
t44.5 12q19 7 28.5 29.5t9.5 60.5v45h70q0 -60 -8.5 -102t-25.5 -66t-58.5 -36t-107.5 -12q-53 0 -93.5 7.5t-67.5 22.5q-28 15 -41.5 53t-13.5 99q0 28 4 56t11 53q8 26 27.5 44.5t52.5 30.5q2 1 4.5 1.5t5.5 1.5q2 1 4.5 2t5.5 2v0h1v0v0v0l1 1h0.5h0.5q16 5 30.5 12
t27.5 15t19.5 22t6.5 33v3.5v2.5v3.5t1 2.5v2.5v2.5v3.5v2.5v2v0zM251 376v91h79v-91h-79v0z" />
    <glyph glyph-name="Agrave" unicode="&#xc0;" horiz-adv-x="609" 
d="M473 141h-337l-51 -141h-80l243 667h107l249 -667h-79l-52 141v0zM451 202l-148 410l-147 -410h295v0zM256 846l132 -100l-23 -36l-144 88l35 48v0z" />
    <glyph glyph-name="Aacute" unicode="&#xc1;" horiz-adv-x="609" 
d="M473 141h-337l-51 -141h-80l243 667h107l249 -667h-79l-52 141v0zM451 202l-148 410l-147 -410h295v0zM353 846l35 -48l-143 -88l-24 36l132 100v0z" />
    <glyph glyph-name="Acircumflex" unicode="&#xc2;" horiz-adv-x="609" 
d="M473 141h-337l-51 -141h-80l243 667h107l249 -667h-79l-52 141v0zM451 202l-148 410l-147 -410h295v0zM306 841l153 -95l-21 -38l-132 61l-138 -61l-19 38l157 95v0z" />
    <glyph glyph-name="Atilde" unicode="&#xc3;" horiz-adv-x="609" 
d="M473 141h-337l-51 -141h-80l243 667h107l249 -667h-79l-52 141v0zM451 202l-148 410l-147 -410h295v0zM417 812l38 -24v-2.5v-0.5l-1 -1v0v0v0l-1 -1v0q-7 -12 -16.5 -23t-20.5 -21t-24.5 -15t-28.5 -5q-9 0 -17 1.5t-16 4.5t-15.5 6t-15.5 7h-1.5h-0.5q-1 0 -1.5 0.5
t-0.5 1.5q-4 2 -7.5 3t-7.5 3q-4 1 -7.5 2.5t-7.5 2.5q-7 3 -14.5 4.5t-15.5 1.5q-7 0 -13 -2.5t-11 -7.5q-4 -4 -8 -9.5t-7 -11.5l-1.5 -1.5t-0.5 -1.5v-0.5v-0.5l-1 -1v0l-40 24q6 10 14 21t17 21q9 11 21.5 16.5t27.5 6.5q9 0 17.5 -1.5t16.5 -4.5q4 -1 8 -3t8 -3
q4 -2 8 -3.5t8 -3.5q8 -4 15.5 -7.5t15.5 -6.5t16.5 -4.5t17.5 -1.5q8 0 15 2.5t13 7.5t11 10.5t9 11.5l1.5 1.5l1.5 1.5q0 1 0.5 2t1.5 2v2v0z" />
    <glyph glyph-name="Adieresis" unicode="&#xc4;" horiz-adv-x="609" 
d="M473 141h-337l-51 -141h-80l243 667h107l249 -667h-79l-52 141v0zM451 202l-148 410l-147 -410h295v0zM254 790v-66h-78v66h78v0zM432 790v-66h-79v66h79v0z" />
    <glyph glyph-name="Aring" unicode="&#xc5;" horiz-adv-x="609" 
d="M473 141h-337l-51 -141h-80l243 667h107l249 -667h-79l-52 141v0zM451 202l-148 410l-147 -410h295v0zM305 704q-1 -1 -1.5 -1h-0.5h-1.5h-1.5q-14 0 -26 5.5t-23 16.5q-12 11 -17.5 24.5t-5.5 29.5q0 15 5.5 28.5t17.5 24.5q11 11 24.5 17t29.5 6q15 0 28.5 -6t24.5 -17
t17 -24.5t6 -28.5q0 -16 -6 -29.5t-17 -24.5q-11 -12 -24.5 -17.5t-28.5 -5.5v2v0zM305 737q1 -1 2 -1h2q7 0 13.5 3t12.5 9t9.5 14t3.5 17q0 8 -3.5 15.5t-9.5 14.5q-7 6 -14.5 9.5t-15.5 3.5q-9 0 -17 -3.5t-14 -9.5q-7 -7 -10 -14.5t-3 -15.5q0 -9 3 -17t10 -14
q6 -7 14 -10t17 -3v2v0z" />
    <glyph glyph-name="AE" unicode="&#xc6;" horiz-adv-x="928" 
d="M546 597v-223h333v-64h-333v-245h348v-65h-425v140h-310l-77 -140h-89l368 667h533v-70h-348v0zM469 204v393h-63l-213 -393h276v0z" />
    <glyph glyph-name="Ccedilla" unicode="&#xc7;" horiz-adv-x="591" 
d="M310 -35l55 -31l-79 -109l-44 23l68 117v0zM495 227h74v-9.5v-8.5v-4t1 -3v-4v-4v-8v-8v-4t1 -3v-4v-4q0 -37 -9 -66t-26 -51t-45 -33.5t-67 -12.5q-13 -1 -26.5 -1.5t-27.5 -1.5h-13.5t-13.5 -1h-13.5h-13.5l-93 1q-67 3 -107 27t-52 67q-13 44 -19.5 91.5t-7.5 99.5v2
v2v2v2v2v2v1v2v4v4v3.5v3.5v3v3v6.5v7.5v107q0 46 8.5 84t24.5 67q17 29 51 47t86 25q8 1 16 1.5t16 1.5q8 0 16.5 0.5t16.5 1.5h8t8 1h8h8h16.5h16.5q66 0 110 -9.5t65 -28.5t33.5 -62.5t16.5 -111.5l-74 2q0 37 -4.5 64t-13.5 44t-34.5 26t-66.5 9h-18h-17q-9 -1 -18 -1
h-18q-18 -1 -35.5 -1.5t-34.5 -1.5q-37 -3 -60.5 -14.5t-33.5 -31.5q-10 -21 -14.5 -48t-4.5 -62v-10l1 -107v-35v-18.5v-16.5v-8.5t1 -8.5q0 -5 0.5 -9t0.5 -9q1 -16 2.5 -32t4.5 -31q2 -16 6.5 -28.5t10.5 -23.5q6 -12 15.5 -19.5t22.5 -12.5q13 -4 26.5 -6.5t27.5 -3.5
q5 -1 9.5 -1h8.5h9.5h8.5h16.5h16.5h16t17 1h16h16t16.5 0.5t16.5 1.5q22 2 39 7t29 14q12 8 19 24.5t8 40.5v9.5v8.5v10v10q-1 5 -1 9.5v8.5v4.5v5.5v4.5v4.5v2v0z" />
    <glyph glyph-name="Egrave" unicode="&#xc8;" horiz-adv-x="498" 
d="M110 600v-226h340v-63h-340v-247h355v-64h-428v667h428v-67h-355v0zM201 846l132 -100l-23 -36l-144 88l35 48v0z" />
    <glyph glyph-name="Eacute" unicode="&#xc9;" horiz-adv-x="498" 
d="M110 600v-226h340v-63h-340v-247h355v-64h-428v667h428v-67h-355v0zM298 846l35 -48l-143 -88l-24 36l132 100v0z" />
    <glyph glyph-name="Ecircumflex" unicode="&#xca;" horiz-adv-x="498" 
d="M110 600v-226h340v-63h-340v-247h355v-64h-428v667h428v-67h-355v0zM251 841l153 -95l-21 -38l-132 61l-138 -61l-19 38l157 95v0z" />
    <glyph glyph-name="Edieresis" unicode="&#xcb;" horiz-adv-x="498" 
d="M110 600v-226h340v-63h-340v-247h355v-64h-428v667h428v-67h-355v0zM199 790v-66h-78v66h78v0zM377 790v-66h-79v66h79v0z" />
    <glyph glyph-name="Igrave" unicode="&#xcc;" horiz-adv-x="203" 
d="M139 667v-667h-76v667h76v0zM53 846l132 -100l-23 -36l-144 88l35 48v0z" />
    <glyph glyph-name="Iacute" unicode="&#xcd;" horiz-adv-x="203" 
d="M139 667v-667h-76v667h76v0zM150 846l35 -48l-143 -88l-24 36l132 100v0z" />
    <glyph glyph-name="Icircumflex" unicode="&#xce;" horiz-adv-x="201" 
d="M139 667v-667h-76v667h76v0zM103 841l153 -95l-21 -38l-132 61l-138 -61l-19 38l157 95v0z" />
    <glyph glyph-name="Idieresis" unicode="&#xcf;" horiz-adv-x="201" 
d="M139 667v-667h-76v667h76v0zM51 790v-66h-78v66h78v0zM229 790v-66h-79v66h79v0z" />
    <glyph glyph-name="Eth" unicode="&#xd0;" 
 />
    <glyph glyph-name="Ntilde" unicode="&#xd1;" horiz-adv-x="696" 
d="M633 667v-667h-122l-375 603v-603h-73v667h122l375 -609v609h73v0zM461 812l38 -24v-2.5v-0.5l-1 -1v0v0v0l-1 -1v0q-7 -12 -16.5 -23t-20.5 -21t-24.5 -15t-28.5 -5q-9 0 -17 1.5t-16 4.5t-15.5 6t-15.5 7h-1.5h-0.5q-1 0 -1.5 0.5t-0.5 1.5q-4 2 -7.5 3t-7.5 3
q-4 1 -7.5 2.5t-7.5 2.5q-7 3 -14.5 4.5t-15.5 1.5q-7 0 -13 -2.5t-11 -7.5q-4 -4 -8 -9.5t-7 -11.5l-1.5 -1.5t-0.5 -1.5v-0.5v-0.5l-1 -1v0l-40 24q6 10 14 21t17 21q9 11 21.5 16.5t27.5 6.5q9 0 17.5 -1.5t16.5 -4.5q4 -1 8 -3t8 -3q4 -2 8 -3.5t8 -3.5q8 -4 15.5 -7.5
t15.5 -6.5t16.5 -4.5t17.5 -1.5q8 0 15 2.5t13 7.5t11 10.5t9 11.5l1.5 1.5l1.5 1.5q0 1 0.5 2t1.5 2v2v0z" />
    <glyph glyph-name="Ograve" unicode="&#xd2;" 
 />
    <glyph glyph-name="Oacute" unicode="&#xd3;" horiz-adv-x="596" 
d="M37 322v39q0 67 7 122.5t20 99.5q14 44 61.5 66.5t128.5 22.5l33 2q68 -2 119 -10.5t85 -25.5q35 -17 52 -65t17 -126v-30v-29v-30v-30q0 -30 -0.5 -59.5t-1.5 -58.5q-1 -61 -14 -104t-37 -67t-67 -35.5t-106 -11.5h-4h-4h-2h-1h-2h-2h-4h-4h-2h-1h-2h-2q-4 1 -8 1h-7
h-7.5h-6.5q-57 0 -100 8t-72 26q-29 17 -45.5 57.5t-19.5 104.5q-1 17 -1 33.5v32.5v16v17v16v16v2v0zM113 325l1 -107q1 -50 8.5 -82.5t21.5 -48.5t46.5 -24t83.5 -8q56 0 96 5.5t64 17.5q23 12 36 48.5t14 97.5v27.5v26.5v14t1 14v14v14v14v14v13v14v14v14v13v14
q0 62 -11 98t-33 46q-22 11 -59.5 16t-90.5 5l-25 2q-44 -2 -74 -8.5t-45 -20.5q-15 -13 -23 -47.5t-9 -88.5l-2 -121v0zM348 847l35 -48l-143 -88l-24 36l132 100v0z" />
    <glyph glyph-name="Ocircumflex" unicode="&#xd4;" horiz-adv-x="596" 
d="M37 322v39q0 67 7 122.5t20 99.5q14 44 61.5 66.5t128.5 22.5l33 2q68 -2 119 -10.5t85 -25.5q35 -17 52 -65t17 -126v-30v-29v-30v-30q0 -30 -0.5 -59.5t-1.5 -58.5q-1 -61 -14 -104t-37 -67t-67 -35.5t-106 -11.5h-4h-4h-2h-1h-2h-2h-4h-4h-2h-1h-2h-2q-4 1 -8 1h-7
h-7.5h-6.5q-57 0 -100 8t-72 26q-29 17 -45.5 57.5t-19.5 104.5q-1 17 -1 33.5v32.5v16v17v16v16v2v0zM113 325l1 -107q1 -50 8.5 -82.5t21.5 -48.5t46.5 -24t83.5 -8q56 0 96 5.5t64 17.5q23 12 36 48.5t14 97.5v27.5v26.5v14t1 14v14v14v14v14v13v14v14v14v13v14
q0 62 -11 98t-33 46q-22 11 -59.5 16t-90.5 5l-25 2q-44 -2 -74 -8.5t-45 -20.5q-15 -13 -23 -47.5t-9 -88.5l-2 -121v0zM301 841l153 -95l-21 -38l-132 61l-138 -61l-19 38l157 95v0z" />
    <glyph glyph-name="Otilde" unicode="&#xd5;" horiz-adv-x="596" 
d="M37 322v39q0 67 7 122.5t20 99.5q14 44 61.5 66.5t128.5 22.5l33 2q68 -2 119 -10.5t85 -25.5q35 -17 52 -65t17 -126v-30v-29v-30v-30q0 -30 -0.5 -59.5t-1.5 -58.5q-1 -61 -14 -104t-37 -67t-67 -35.5t-106 -11.5h-4h-4h-2h-1h-2h-2h-4h-4h-2h-1h-2h-2q-4 1 -8 1h-7
h-7.5h-6.5q-57 0 -100 8t-72 26q-29 17 -45.5 57.5t-19.5 104.5q-1 17 -1 33.5v32.5v16v17v16v16v2v0zM113 325l1 -107q1 -50 8.5 -82.5t21.5 -48.5t46.5 -24t83.5 -8q56 0 96 5.5t64 17.5q23 12 36 48.5t14 97.5v27.5v26.5v14t1 14v14v14v14v14v13v14v14v14v13v14
q0 62 -11 98t-33 46q-22 11 -59.5 16t-90.5 5l-25 2q-44 -2 -74 -8.5t-45 -20.5q-15 -13 -23 -47.5t-9 -88.5l-2 -121v0zM412 813l38 -24v-2.5v-0.5l-1 -1v0v0v0l-1 -1v0q-7 -12 -16.5 -23t-20.5 -21t-24.5 -15t-28.5 -5q-9 0 -17 1.5t-16 4.5t-15.5 6t-15.5 7h-1.5h-0.5
q-1 0 -1.5 0.5t-0.5 1.5q-4 2 -7.5 3t-7.5 3q-4 1 -7.5 2.5t-7.5 2.5q-7 3 -14.5 4.5t-15.5 1.5q-7 0 -13 -2.5t-11 -7.5q-4 -4 -8 -9.5t-7 -11.5l-1.5 -1.5t-0.5 -1.5v-0.5v-0.5l-1 -1v0l-40 24q6 10 14 21t17 21q9 11 21.5 16.5t27.5 6.5q9 0 17.5 -1.5t16.5 -4.5
q4 -1 8 -3t8 -3q4 -2 8 -3.5t8 -3.5q8 -4 15.5 -7.5t15.5 -6.5t16.5 -4.5t17.5 -1.5q8 0 15 2.5t13 7.5t11 10.5t9 11.5l1.5 1.5l1.5 1.5q0 1 0.5 2t1.5 2v2v0z" />
    <glyph glyph-name="Odieresis" unicode="&#xd6;" horiz-adv-x="596" 
d="M37 322v39q0 67 7 122.5t20 99.5q14 44 61.5 66.5t128.5 22.5l33 2q68 -2 119 -10.5t85 -25.5q35 -17 52 -65t17 -126v-30v-29v-30v-30q0 -30 -0.5 -59.5t-1.5 -58.5q-1 -61 -14 -104t-37 -67t-67 -35.5t-106 -11.5h-4h-4h-2h-1h-2h-2h-4h-4h-2h-1h-2h-2q-4 1 -8 1h-7
h-7.5h-6.5q-57 0 -100 8t-72 26q-29 17 -45.5 57.5t-19.5 104.5q-1 17 -1 33.5v32.5v16v17v16v16v2v0zM113 325l1 -107q1 -50 8.5 -82.5t21.5 -48.5t46.5 -24t83.5 -8q56 0 96 5.5t64 17.5q23 12 36 48.5t14 97.5v27.5v26.5v14t1 14v14v14v14v14v13v14v14v14v13v14
q0 62 -11 98t-33 46q-22 11 -59.5 16t-90.5 5l-25 2q-44 -2 -74 -8.5t-45 -20.5q-15 -13 -23 -47.5t-9 -88.5l-2 -121v0zM249 791v-66h-78v66h78v0zM427 791v-66h-79v66h79v0z" />
    <glyph glyph-name="multiply" unicode="&#xd7;" 
 />
    <glyph glyph-name="Oslash" unicode="&#xd8;" horiz-adv-x="643" 
d="M619 668v-77l-35 -33l6 -18t4 -20q1 -5 1.5 -10t1.5 -10q1 -6 1.5 -11t0.5 -10q0 -4 0.5 -8.5t0.5 -8.5q1 -5 1 -9v-9v-16.5v-14.5v-49.5v-48.5t-0.5 -48t-1.5 -48q-1 -40 -8.5 -75.5t-21.5 -67.5t-44 -51.5t-75 -24.5q-22 -2 -43.5 -3t-42.5 -1h-21t-21 -1h-21.5h-21.5
q-29 0 -57 2t-54 6q-27 5 -50.5 18.5t-43.5 37.5l-64 -58v72l40 39q-4 7 -6.5 16.5t-4.5 19.5q-1 11 -2.5 22t-1.5 22q-1 5 -1.5 9.5t-0.5 9.5v9v9v18v17v96v0v2v1.5v1.5v0.5v1.5v21.5v21.5t1 22t2 23q2 36 10.5 69t22.5 64t42 49.5t70 24.5q8 1 16.5 1.5t16.5 1.5t16 1.5
t17 1.5h8t8 1h8h8h16.5h16.5l58 2q2 -2 4 -2h4h4h5q23 -1 46.5 -4t45.5 -9q23 -6 43 -18t36 -32l61 62v0zM128 112q8 -16 19.5 -26t24.5 -15q14 -5 28 -8t30 -4q11 -1 22.5 -1.5t23.5 -0.5h23.5h22.5q65 0 106.5 8.5t59.5 25.5t27.5 57.5t9.5 103.5v16.5v17.5v17v18v16.5
v17.5v8t1 9v8.5v8.5v12.5v13.5q-1 6 -1 12.5v13.5q-1 14 -1.5 27.5t-1.5 26.5l-394 -383v0zM506 558q-8 11 -18.5 20t-22.5 15q-13 6 -26.5 9t-28.5 3h-6h-6h-7h-6h-6t-6 1h-7h-6h-13.5h-12.5h-12h-12q-75 0 -118.5 -10t-56.5 -30q-13 -19 -19.5 -72.5t-6.5 -140.5l-1 -104
v-12v-10v-5.5t1 -4.5v-4.5v-4.5v-10v-10v-10v-10l397 390v0z" />
    <glyph glyph-name="Ugrave" unicode="&#xd9;" horiz-adv-x="655" 
d="M517 667h75v-467q0 -53 -9.5 -91t-29.5 -62q-19 -24 -57 -36t-94 -14h-10t-9 -1h-9.5h-9.5h-9t-9 -1h-9.5h-9.5q-61 0 -109.5 6.5t-83.5 21.5t-52.5 58.5t-17.5 116.5v469h76v-467q0 -44 7.5 -72.5t22.5 -42.5q15 -13 44 -19.5t71 -6.5l73 2q44 -2 75 4t49 18
q17 12 26 40.5t9 74.5v469v0zM280 846l132 -100l-23 -36l-144 88l35 48v0z" />
    <glyph glyph-name="Uacute" unicode="&#xda;" horiz-adv-x="655" 
d="M517 667h75v-467q0 -53 -9.5 -91t-29.5 -62q-19 -24 -57 -36t-94 -14h-10t-9 -1h-9.5h-9.5h-9t-9 -1h-9.5h-9.5q-61 0 -109.5 6.5t-83.5 21.5t-52.5 58.5t-17.5 116.5v469h76v-467q0 -44 7.5 -72.5t22.5 -42.5q15 -13 44 -19.5t71 -6.5l73 2q44 -2 75 4t49 18
q17 12 26 40.5t9 74.5v469v0zM377 846l35 -48l-143 -88l-24 36l132 100v0z" />
    <glyph glyph-name="Ucircumflex" unicode="&#xdb;" horiz-adv-x="655" 
d="M517 667h75v-467q0 -53 -9.5 -91t-29.5 -62q-19 -24 -57 -36t-94 -14h-10t-9 -1h-9.5h-9.5h-9t-9 -1h-9.5h-9.5q-61 0 -109.5 6.5t-83.5 21.5t-52.5 58.5t-17.5 116.5v469h76v-467q0 -44 7.5 -72.5t22.5 -42.5q15 -13 44 -19.5t71 -6.5l73 2q44 -2 75 4t49 18
q17 12 26 40.5t9 74.5v469v0zM330 841l153 -95l-21 -38l-132 61l-138 -61l-19 38l157 95v0z" />
    <glyph glyph-name="Udieresis" unicode="&#xdc;" horiz-adv-x="655" 
d="M517 667h75v-467q0 -53 -9.5 -91t-29.5 -62q-19 -24 -57 -36t-94 -14h-10t-9 -1h-9.5h-9.5h-9t-9 -1h-9.5h-9.5q-61 0 -109.5 6.5t-83.5 21.5t-52.5 58.5t-17.5 116.5v469h76v-467q0 -44 7.5 -72.5t22.5 -42.5q15 -13 44 -19.5t71 -6.5l73 2q44 -2 75 4t49 18
q17 12 26 40.5t9 74.5v469v0zM278 791v-66h-78v66h78v0zM456 791v-66h-79v66h79v0z" />
    <glyph glyph-name="Yacute" unicode="&#xdd;" 
 />
    <glyph glyph-name="Thorn" unicode="&#xde;" 
 />
    <glyph glyph-name="germandbls" unicode="&#xdf;" horiz-adv-x="524" 
d="M60 0v515q0 47 10.5 79t32.5 47t55.5 22.5t78.5 7.5h4.5h4.5h4.5h4.5q33 -1 63 -7t57 -17t41 -38t14 -69q0 -24 -5 -41.5t-16 -29.5q-10 -12 -26.5 -22.5t-38.5 -18.5q44 -9 70.5 -27t35.5 -44q9 -27 13.5 -60t4.5 -74q0 -46 -6 -85.5t-18 -74.5q-12 -34 -45.5 -51
t-88.5 -17q-26 0 -49.5 6t-43.5 19q-20 14 -30 35t-10 50v4.5v4.5v4.5t1 4.5v4.5v4.5v4.5v4.5l68 2v-4.5v-3.5v-2.5v-3.5q1 -15 4 -29t9 -26t18 -18t31 -6q23 0 39 6.5t25 19.5q9 14 14 31t6 38v4v5v4v4v4.5t1 4.5v4.5v4.5v4t1 5v4v4v9.5v8.5q0 36 -5 68t-14 60t-36 42
t-72 14h-8h-8h-8h-7q-4 -1 -8 -1h-8h-8h-8v61q2 -2 4.5 -2h5.5h5t6 1h4.5h5.5h4.5h5.5h3.5h2.5h4h4q20 0 37.5 2.5t32.5 6.5q15 5 23 20t8 42q0 32 -8 50.5t-24 24.5t-37.5 9t-48.5 3q-28 0 -48 -5t-34 -14q-13 -10 -20 -29t-7 -48v-520h-73v0z" />
    <glyph glyph-name="agrave" unicode="&#xe0;" horiz-adv-x="507" 
d="M131 332h-72q0 47 13 75.5t40 38.5q26 10 59 15t73 5q48 0 85.5 -6.5t63.5 -20.5q26 -13 39.5 -47.5t13.5 -89.5v-302h-65l3 48q-15 -20 -33 -32t-38 -16t-41.5 -6t-44.5 -2q-43 0 -77 5.5t-58 18.5q-25 13 -37 43.5t-12 78.5q0 47 13 76t38 41q26 12 58.5 18t72.5 6h5.5
h5.5q3 -1 6 -1h6h6h6q3 -1 6 -1h6q5 0 9 -0.5t9 -1.5q4 -1 8.5 -1.5t8.5 -1.5q9 -1 17.5 -3.5t16.5 -5.5q5 -2 10 -5t9 -8q4 -4 7.5 -9t6.5 -10v58q0 41 -6 68t-18 37q-12 11 -39.5 16t-70.5 5h-4.5h-4.5q-2 -1 -4.5 -1h-5.5h-6h-5q-3 -1 -5.5 -1h-4.5q-7 -1 -14.5 -2
t-13.5 -3q-7 -2 -12 -5l-10 -6q-5 -4 -8.5 -8.5t-5.5 -9.5t-3.5 -10.5t-1.5 -11.5q0 -1 -0.5 -2l-0.5 -1v-2v-2v-2.5v-3.5v-2v-1v-2v-2v-2v-1q0 -1 0.5 -2t0.5 -2v2v0zM115 148q0 -32 6 -52.5t19 -30.5q12 -10 33 -14.5t50 -4.5h10h11h10.5t11.5 1q21 1 40 5.5t37 12.5
q17 8 26 25.5t9 43.5q0 32 -9.5 51t-28.5 26t-42 10.5t-49 3.5l-17 2q-2 -1 -4.5 -1.5t-4.5 -0.5h-5.5h-4.5h-5.5h-4.5q-3 -1 -5.5 -1h-4.5q-9 -1 -17.5 -3t-16.5 -4t-15 -5.5t-12 -8.5q-4 -3 -7 -7t-5 -9q-1 -5 -2.5 -10.5t-1.5 -10.5q-1 -3 -1 -5.5v-4.5v-5.5v-4.5v2v0z
M205 660l132 -100l-23 -36l-144 88l35 48v0z" />
    <glyph glyph-name="aacute" unicode="&#xe1;" horiz-adv-x="507" 
d="M131 332h-72q0 47 13 75.5t40 38.5q26 10 59 15t73 5q48 0 85.5 -6.5t63.5 -20.5q26 -13 39.5 -47.5t13.5 -89.5v-302h-65l3 48q-15 -20 -33 -32t-38 -16t-41.5 -6t-44.5 -2q-43 0 -77 5.5t-58 18.5q-25 13 -37 43.5t-12 78.5q0 47 13 76t38 41q26 12 58.5 18t72.5 6h5.5
h5.5q3 -1 6 -1h6h6h6q3 -1 6 -1h6q5 0 9 -0.5t9 -1.5q4 -1 8.5 -1.5t8.5 -1.5q9 -1 17.5 -3.5t16.5 -5.5q5 -2 10 -5t9 -8q4 -4 7.5 -9t6.5 -10v58q0 41 -6 68t-18 37q-12 11 -39.5 16t-70.5 5h-4.5h-4.5q-2 -1 -4.5 -1h-5.5h-6h-5q-3 -1 -5.5 -1h-4.5q-7 -1 -14.5 -2
t-13.5 -3q-7 -2 -12 -5l-10 -6q-5 -4 -8.5 -8.5t-5.5 -9.5t-3.5 -10.5t-1.5 -11.5q0 -1 -0.5 -2l-0.5 -1v-2v-2v-2.5v-3.5v-2v-1v-2v-2v-2v-1q0 -1 0.5 -2t0.5 -2v2v0zM115 148q0 -32 6 -52.5t19 -30.5q12 -10 33 -14.5t50 -4.5h10h11h10.5t11.5 1q21 1 40 5.5t37 12.5
q17 8 26 25.5t9 43.5q0 32 -9.5 51t-28.5 26t-42 10.5t-49 3.5l-17 2q-2 -1 -4.5 -1.5t-4.5 -0.5h-5.5h-4.5h-5.5h-4.5q-3 -1 -5.5 -1h-4.5q-9 -1 -17.5 -3t-16.5 -4t-15 -5.5t-12 -8.5q-4 -3 -7 -7t-5 -9q-1 -5 -2.5 -10.5t-1.5 -10.5q-1 -3 -1 -5.5v-4.5v-5.5v-4.5v2v0z
M302 660l35 -48l-143 -88l-24 36l132 100v0z" />
    <glyph glyph-name="acircumflex" unicode="&#xe2;" horiz-adv-x="507" 
d="M131 332h-72q0 47 13 75.5t40 38.5q26 10 59 15t73 5q48 0 85.5 -6.5t63.5 -20.5q26 -13 39.5 -47.5t13.5 -89.5v-302h-65l3 48q-15 -20 -33 -32t-38 -16t-41.5 -6t-44.5 -2q-43 0 -77 5.5t-58 18.5q-25 13 -37 43.5t-12 78.5q0 47 13 76t38 41q26 12 58.5 18t72.5 6h5.5
h5.5q3 -1 6 -1h6h6h6q3 -1 6 -1h6q5 0 9 -0.5t9 -1.5q4 -1 8.5 -1.5t8.5 -1.5q9 -1 17.5 -3.5t16.5 -5.5q5 -2 10 -5t9 -8q4 -4 7.5 -9t6.5 -10v58q0 41 -6 68t-18 37q-12 11 -39.5 16t-70.5 5h-4.5h-4.5q-2 -1 -4.5 -1h-5.5h-6h-5q-3 -1 -5.5 -1h-4.5q-7 -1 -14.5 -2
t-13.5 -3q-7 -2 -12 -5l-10 -6q-5 -4 -8.5 -8.5t-5.5 -9.5t-3.5 -10.5t-1.5 -11.5q0 -1 -0.5 -2l-0.5 -1v-2v-2v-2.5v-3.5v-2v-1v-2v-2v-2v-1q0 -1 0.5 -2t0.5 -2v2v0zM115 148q0 -32 6 -52.5t19 -30.5q12 -10 33 -14.5t50 -4.5h10h11h10.5t11.5 1q21 1 40 5.5t37 12.5
q17 8 26 25.5t9 43.5q0 32 -9.5 51t-28.5 26t-42 10.5t-49 3.5l-17 2q-2 -1 -4.5 -1.5t-4.5 -0.5h-5.5h-4.5h-5.5h-4.5q-3 -1 -5.5 -1h-4.5q-9 -1 -17.5 -3t-16.5 -4t-15 -5.5t-12 -8.5q-4 -3 -7 -7t-5 -9q-1 -5 -2.5 -10.5t-1.5 -10.5q-1 -3 -1 -5.5v-4.5v-5.5v-4.5v2v0z
M255 654l153 -95l-21 -38l-132 61l-138 -61l-19 38l157 95v0z" />
    <glyph glyph-name="atilde" unicode="&#xe3;" horiz-adv-x="507" 
d="M131 332h-72q0 47 13 75.5t40 38.5q26 10 59 15t73 5q48 0 85.5 -6.5t63.5 -20.5q26 -13 39.5 -47.5t13.5 -89.5v-302h-65l3 48q-15 -20 -33 -32t-38 -16t-41.5 -6t-44.5 -2q-43 0 -77 5.5t-58 18.5q-25 13 -37 43.5t-12 78.5q0 47 13 76t38 41q26 12 58.5 18t72.5 6h5.5
h5.5q3 -1 6 -1h6h6h6q3 -1 6 -1h6q5 0 9 -0.5t9 -1.5q4 -1 8.5 -1.5t8.5 -1.5q9 -1 17.5 -3.5t16.5 -5.5q5 -2 10 -5t9 -8q4 -4 7.5 -9t6.5 -10v58q0 41 -6 68t-18 37q-12 11 -39.5 16t-70.5 5h-4.5h-4.5q-2 -1 -4.5 -1h-5.5h-6h-5q-3 -1 -5.5 -1h-4.5q-7 -1 -14.5 -2
t-13.5 -3q-7 -2 -12 -5l-10 -6q-5 -4 -8.5 -8.5t-5.5 -9.5t-3.5 -10.5t-1.5 -11.5q0 -1 -0.5 -2l-0.5 -1v-2v-2v-2.5v-3.5v-2v-1v-2v-2v-2v-1q0 -1 0.5 -2t0.5 -2v2v0zM115 148q0 -32 6 -52.5t19 -30.5q12 -10 33 -14.5t50 -4.5h10h11h10.5t11.5 1q21 1 40 5.5t37 12.5
q17 8 26 25.5t9 43.5q0 32 -9.5 51t-28.5 26t-42 10.5t-49 3.5l-17 2q-2 -1 -4.5 -1.5t-4.5 -0.5h-5.5h-4.5h-5.5h-4.5q-3 -1 -5.5 -1h-4.5q-9 -1 -17.5 -3t-16.5 -4t-15 -5.5t-12 -8.5q-4 -3 -7 -7t-5 -9q-1 -5 -2.5 -10.5t-1.5 -10.5q-1 -3 -1 -5.5v-4.5v-5.5v-4.5v2v0z
M366 612l38 -24v-2.5v-0.5l-1 -1v0v0v0l-1 -1v0q-7 -12 -16.5 -23t-20.5 -21t-24.5 -15t-28.5 -5q-9 0 -17 1.5t-16 4.5t-15.5 6t-15.5 7h-1.5h-0.5q-1 0 -1.5 0.5t-0.5 1.5q-4 2 -7.5 3t-7.5 3q-4 1 -7.5 2.5t-7.5 2.5q-7 3 -14.5 4.5t-15.5 1.5q-7 0 -13 -2.5t-11 -7.5
q-4 -4 -8 -9.5t-7 -11.5l-1.5 -1.5t-0.5 -1.5v-0.5v-0.5l-1 -1v0l-40 24q6 10 14 21t17 21q9 11 21.5 16.5t27.5 6.5q9 0 17.5 -1.5t16.5 -4.5q4 -1 8 -3t8 -3q4 -2 8 -3.5t8 -3.5q8 -4 15.5 -7.5t15.5 -6.5t16.5 -4.5t17.5 -1.5q8 0 15 2.5t13 7.5t11 10.5t9 11.5l1.5 1.5
l1.5 1.5q0 1 0.5 2t1.5 2v2v0z" />
    <glyph glyph-name="adieresis" unicode="&#xe4;" horiz-adv-x="507" 
d="M131 332h-72q0 47 13 75.5t40 38.5q26 10 59 15t73 5q48 0 85.5 -6.5t63.5 -20.5q26 -13 39.5 -47.5t13.5 -89.5v-302h-65l3 48q-15 -20 -33 -32t-38 -16t-41.5 -6t-44.5 -2q-43 0 -77 5.5t-58 18.5q-25 13 -37 43.5t-12 78.5q0 47 13 76t38 41q26 12 58.5 18t72.5 6h5.5
h5.5q3 -1 6 -1h6h6h6q3 -1 6 -1h6q5 0 9 -0.5t9 -1.5q4 -1 8.5 -1.5t8.5 -1.5q9 -1 17.5 -3.5t16.5 -5.5q5 -2 10 -5t9 -8q4 -4 7.5 -9t6.5 -10v58q0 41 -6 68t-18 37q-12 11 -39.5 16t-70.5 5h-4.5h-4.5q-2 -1 -4.5 -1h-5.5h-6h-5q-3 -1 -5.5 -1h-4.5q-7 -1 -14.5 -2
t-13.5 -3q-7 -2 -12 -5l-10 -6q-5 -4 -8.5 -8.5t-5.5 -9.5t-3.5 -10.5t-1.5 -11.5q0 -1 -0.5 -2l-0.5 -1v-2v-2v-2.5v-3.5v-2v-1v-2v-2v-2v-1q0 -1 0.5 -2t0.5 -2v2v0zM115 148q0 -32 6 -52.5t19 -30.5q12 -10 33 -14.5t50 -4.5h10h11h10.5t11.5 1q21 1 40 5.5t37 12.5
q17 8 26 25.5t9 43.5q0 32 -9.5 51t-28.5 26t-42 10.5t-49 3.5l-17 2q-2 -1 -4.5 -1.5t-4.5 -0.5h-5.5h-4.5h-5.5h-4.5q-3 -1 -5.5 -1h-4.5q-9 -1 -17.5 -3t-16.5 -4t-15 -5.5t-12 -8.5q-4 -3 -7 -7t-5 -9q-1 -5 -2.5 -10.5t-1.5 -10.5q-1 -3 -1 -5.5v-4.5v-5.5v-4.5v2v0z
M203 581v-66h-78v66h78v0zM381 581v-66h-79v66h79v0z" />
    <glyph glyph-name="aring" unicode="&#xe5;" horiz-adv-x="507" 
d="M131 332h-72q0 47 13 75.5t40 38.5q26 10 59 15t73 5q48 0 85.5 -6.5t63.5 -20.5q26 -13 39.5 -47.5t13.5 -89.5v-302h-65l3 48q-15 -20 -33 -32t-38 -16t-41.5 -6t-44.5 -2q-43 0 -77 5.5t-58 18.5q-25 13 -37 43.5t-12 78.5q0 47 13 76t38 41q26 12 58.5 18t72.5 6h5.5
h5.5q3 -1 6 -1h6h6h6q3 -1 6 -1h6q5 0 9 -0.5t9 -1.5q4 -1 8.5 -1.5t8.5 -1.5q9 -1 17.5 -3.5t16.5 -5.5q5 -2 10 -5t9 -8q4 -4 7.5 -9t6.5 -10v58q0 41 -6 68t-18 37q-12 11 -39.5 16t-70.5 5h-4.5h-4.5q-2 -1 -4.5 -1h-5.5h-6h-5q-3 -1 -5.5 -1h-4.5q-7 -1 -14.5 -2
t-13.5 -3q-7 -2 -12 -5l-10 -6q-5 -4 -8.5 -8.5t-5.5 -9.5t-3.5 -10.5t-1.5 -11.5q0 -1 -0.5 -2l-0.5 -1v-2v-2v-2.5v-3.5v-2v-1v-2v-2v-2v-1q0 -1 0.5 -2t0.5 -2v2v0zM115 148q0 -32 6 -52.5t19 -30.5q12 -10 33 -14.5t50 -4.5h10h11h10.5t11.5 1q21 1 40 5.5t37 12.5
q17 8 26 25.5t9 43.5q0 32 -9.5 51t-28.5 26t-42 10.5t-49 3.5l-17 2q-2 -1 -4.5 -1.5t-4.5 -0.5h-5.5h-4.5h-5.5h-4.5q-3 -1 -5.5 -1h-4.5q-9 -1 -17.5 -3t-16.5 -4t-15 -5.5t-12 -8.5q-4 -3 -7 -7t-5 -9q-1 -5 -2.5 -10.5t-1.5 -10.5q-1 -3 -1 -5.5v-4.5v-5.5v-4.5v2v0z
M254 500q-1 -1 -1.5 -1h-0.5h-1.5h-1.5q-14 0 -26 5.5t-23 16.5q-12 11 -17.5 24.5t-5.5 29.5q0 15 5.5 28.5t17.5 24.5q11 11 24.5 17t29.5 6q15 0 28.5 -6t24.5 -17t17 -24.5t6 -28.5q0 -16 -6 -29.5t-17 -24.5q-11 -12 -24.5 -17.5t-28.5 -5.5v2v0zM254 533q1 -1 2 -1h2
q7 0 13.5 3t12.5 9t9.5 14t3.5 17q0 8 -3.5 15.5t-9.5 14.5q-7 6 -14.5 9.5t-15.5 3.5q-9 0 -17 -3.5t-14 -9.5q-7 -7 -10 -14.5t-3 -15.5q0 -9 3 -17t10 -14q6 -7 14 -10t17 -3v2v0z" />
    <glyph glyph-name="ae" unicode="&#xe6;" horiz-adv-x="828" 
d="M780 225h-332v-3.5v-3.5v-1.5v-0.5v-1.5v-1.5v-4v-4v-5v-4v-4t1 -4v-4v-4q0 -11 1 -22l2 -22q2 -10 4 -20.5t5 -21.5q3 -10 8 -17t12 -12q8 -4 16 -7.5t18 -5.5q5 -1 9.5 -1.5t8.5 -0.5q2 0 4.5 -0.5t5.5 -0.5h4.5h4.5q5 -1 9.5 -1h8.5h4.5h5.5h4.5h4.5q25 0 46 2.5
t39 7.5q17 5 26 22t9 47v14h72v-3.5v-3.5v-1.5v-0.5q0 -1 0.5 -1.5t0.5 -1.5v-1.5v-0.5v-1.5v-1.5v-1.5v-0.5v-1.5v-1.5q0 -42 -14 -68.5t-42 -37.5q-28 -10 -59 -15t-64 -6h-6h-5h-5.5h-4.5h-6h-6h-6h-5q-24 1 -46.5 4.5t-43.5 9.5q-21 7 -36.5 22.5t-24.5 40.5
q-9 -22 -22.5 -36.5t-33.5 -22.5q-19 -7 -40 -11t-42 -5h-4t-4 -1h-4h-4h-8h-8q-40 0 -74.5 5.5t-63.5 17.5q-28 12 -42.5 42t-14.5 77q0 44 12 73t36 42q24 14 55.5 20.5t71.5 6.5q14 0 28.5 -0.5t27.5 -1.5q7 0 14 -1l14 -2q6 -1 13 -2.5t14 -3.5q8 -3 15 -6.5t13 -8.5
q5 -4 10.5 -10t10.5 -12v81q0 38 -8 62t-24 31q-16 8 -42.5 12t-63.5 4q-21 0 -39.5 -2t-35.5 -7q-16 -4 -24.5 -19.5t-8.5 -41.5v-9h-72q3 45 15.5 72.5t34.5 37.5q21 10 52.5 15t72.5 5h13h14h6.5h7.5q3 -1 6.5 -1h7.5q6 0 12 -0.5t12 -1.5q5 -1 11 -2l12 -2
q12 -2 23.5 -5.5t22.5 -8.5q6 -3 11 -6.5t9 -8.5t7 -11l6 -12q8 15 20 25.5t27 16.5t31 10.5t32 6.5h6.5t7.5 1h6.5h6.5h6.5t6.5 1h7h6q71 0 114 -15.5t58 -45.5q14 -30 21.5 -77t7.5 -111v2v0zM114 145q0 -37 8.5 -58t26.5 -28t42 -10t54 -3q26 0 49 3.5t44 10.5
q20 8 30.5 27t10.5 50v2v3q-1 1 -1 2.5v2.5v3v3q-1 1 -1 2.5v2.5q-1 6 -3 12l-4 12q-3 6 -6.5 10.5t-8.5 8.5q-6 5 -13.5 8t-16.5 5t-18 3.5t-18 2.5h-8t-8 1h-7.5h-7.5h-7.5t-6.5 1h-7h-6q-23 0 -43.5 -3t-38.5 -9t-26.5 -22.5t-8.5 -44.5v2v0zM711 284q-1 37 -6.5 63.5
t-16.5 41.5q-11 14 -37.5 21.5t-67.5 7.5h-10.5h-10.5h-6h-5q-3 -1 -5.5 -1h-5.5q-9 -1 -18 -3t-18 -5t-16.5 -7t-13.5 -10q-7 -7 -12 -15.5t-7 -18.5q-3 -10 -4.5 -19.5t-1.5 -19.5q0 -1 -0.5 -2.5t-0.5 -2.5v-3v-3v-5.5v-4.5v-2v-2q-1 -1 -1 -2v-2v-4v-4l264 2v0z" />
    <glyph glyph-name="ccedilla" unicode="&#xe7;" horiz-adv-x="485" 
d="M244 -35l47 -27l-68 -95l-38 20l59 102v0zM384 169h69q0 -56 -11 -91t-34 -52q-22 -16 -60 -23.5t-91 -7.5q-74 0 -118.5 14.5t-59.5 44.5t-22 78t-7 114q0 59 10 102t31 69q20 26 61.5 39.5t103.5 13.5q38 0 71.5 -6.5t61.5 -18.5q28 -13 42 -42t14 -75v-2v-2v-2v-2
q-1 -1 -1 -2v-2v-2v-2l-68 2q0 32 -7 52.5t-21 29.5t-36.5 13.5t-54.5 4.5q-46 0 -74 -8.5t-39 -25.5q-10 -16 -15.5 -47.5t-5.5 -77.5v-46q0 -41 4.5 -70.5t13.5 -49.5q9 -19 36 -29t73 -10q39 0 65.5 4.5t40.5 13.5t21 34t7 65v2v0z" />
    <glyph glyph-name="egrave" unicode="&#xe8;" horiz-adv-x="502" 
d="M384 142h72q0 -53 -14 -84.5t-41 -42.5q-28 -11 -64 -16t-80 -5q-66 0 -108 12t-62 37q-19 25 -29 69t-10 108q0 61 7.5 107.5t22.5 79.5q15 32 57 48.5t112 16.5q65 0 107.5 -11t61.5 -33q20 -22 29.5 -65.5t10.5 -108.5v-33h-336q0 -41 4 -72.5t12 -54.5
q8 -24 36 -35.5t75 -11.5l19 2q5 -2 10 -2h11t12 0.5t13 1.5q4 0 7.5 0.5t7.5 0.5q3 1 6.5 2t7.5 2q7 2 13 4.5t11 6.5q5 3 8.5 7.5t4.5 10.5q2 6 3 12l2 12v2t1 2v2.5v2.5v4.5v4.5v17v0zM386 275q0 42 -5 70.5t-16 43.5q-10 14 -38 21.5t-74 7.5q-40 0 -67 -7.5t-40 -22.5
t-19 -44t-6 -71l265 2v0zM204 660l132 -100l-23 -36l-144 88l35 48v0z" />
    <glyph glyph-name="eacute" unicode="&#xe9;" horiz-adv-x="502" 
d="M384 142h72q0 -53 -14 -84.5t-41 -42.5q-28 -11 -64 -16t-80 -5q-66 0 -108 12t-62 37q-19 25 -29 69t-10 108q0 61 7.5 107.5t22.5 79.5q15 32 57 48.5t112 16.5q65 0 107.5 -11t61.5 -33q20 -22 29.5 -65.5t10.5 -108.5v-33h-336q0 -41 4 -72.5t12 -54.5
q8 -24 36 -35.5t75 -11.5l19 2q5 -2 10 -2h11t12 0.5t13 1.5q4 0 7.5 0.5t7.5 0.5q3 1 6.5 2t7.5 2q7 2 13 4.5t11 6.5q5 3 8.5 7.5t4.5 10.5q2 6 3 12l2 12v2t1 2v2.5v2.5v4.5v4.5v17v0zM386 275q0 42 -5 70.5t-16 43.5q-10 14 -38 21.5t-74 7.5q-40 0 -67 -7.5t-40 -22.5
t-19 -44t-6 -71l265 2v0zM301 660l35 -48l-143 -88l-24 36l132 100v0z" />
    <glyph glyph-name="ecircumflex" unicode="&#xea;" horiz-adv-x="502" 
d="M384 142h72q0 -53 -14 -84.5t-41 -42.5q-28 -11 -64 -16t-80 -5q-66 0 -108 12t-62 37q-19 25 -29 69t-10 108q0 61 7.5 107.5t22.5 79.5q15 32 57 48.5t112 16.5q65 0 107.5 -11t61.5 -33q20 -22 29.5 -65.5t10.5 -108.5v-33h-336q0 -41 4 -72.5t12 -54.5
q8 -24 36 -35.5t75 -11.5l19 2q5 -2 10 -2h11t12 0.5t13 1.5q4 0 7.5 0.5t7.5 0.5q3 1 6.5 2t7.5 2q7 2 13 4.5t11 6.5q5 3 8.5 7.5t4.5 10.5q2 6 3 12l2 12v2t1 2v2.5v2.5v4.5v4.5v17v0zM386 275q0 42 -5 70.5t-16 43.5q-10 14 -38 21.5t-74 7.5q-40 0 -67 -7.5t-40 -22.5
t-19 -44t-6 -71l265 2v0zM254 654l153 -95l-21 -38l-132 61l-138 -61l-19 38l157 95v0z" />
    <glyph glyph-name="edieresis" unicode="&#xeb;" horiz-adv-x="502" 
d="M384 142h72q0 -53 -14 -84.5t-41 -42.5q-28 -11 -64 -16t-80 -5q-66 0 -108 12t-62 37q-19 25 -29 69t-10 108q0 61 7.5 107.5t22.5 79.5q15 32 57 48.5t112 16.5q65 0 107.5 -11t61.5 -33q20 -22 29.5 -65.5t10.5 -108.5v-33h-336q0 -41 4 -72.5t12 -54.5
q8 -24 36 -35.5t75 -11.5l19 2q5 -2 10 -2h11t12 0.5t13 1.5q4 0 7.5 0.5t7.5 0.5q3 1 6.5 2t7.5 2q7 2 13 4.5t11 6.5q5 3 8.5 7.5t4.5 10.5q2 6 3 12l2 12v2t1 2v2.5v2.5v4.5v4.5v17v0zM386 275q0 42 -5 70.5t-16 43.5q-10 14 -38 21.5t-74 7.5q-40 0 -67 -7.5t-40 -22.5
t-19 -44t-6 -71l265 2v0zM202 581v-66h-78v66h78v0zM380 581v-66h-79v66h79v0z" />
    <glyph glyph-name="igrave" unicode="&#xec;" horiz-adv-x="191" 
d="M131 467v-467h-71v467h71v0zM47 660l132 -100l-23 -36l-144 88l35 48v0z" />
    <glyph glyph-name="iacute" unicode="&#xed;" horiz-adv-x="191" 
d="M131 467v-467h-71v467h71v0zM144 660l35 -48l-143 -88l-24 36l132 100v0z" />
    <glyph glyph-name="icircumflex" unicode="&#xee;" horiz-adv-x="191" 
d="M131 467v-467h-71v467h71v0zM98 654l153 -95l-21 -38l-132 61l-138 -61l-19 38l157 95v0z" />
    <glyph glyph-name="idieresis" unicode="&#xef;" horiz-adv-x="191" 
d="M131 467v-467h-71v467h71v0zM45 580v-66h-78v66h78v0zM223 580v-66h-79v66h79v0z" />
    <glyph glyph-name="eth" unicode="&#xf0;" 
 />
    <glyph glyph-name="ntilde" unicode="&#xf1;" horiz-adv-x="515" 
d="M60 467h65v-60q14 20 31 33.5t38 20.5t43.5 10.5t46.5 3.5q47 0 80.5 -9.5t52.5 -27.5t28.5 -51t9.5 -80v-307h-71v303q0 34 -5.5 56.5t-16.5 34.5q-11 11 -34.5 17t-58.5 6q-34 0 -59.5 -8t-43.5 -23q-18 -16 -27 -41.5t-9 -60.5v-284h-70v467v0zM371 612l38 -24v-2.5
v-0.5l-1 -1v0v0v0l-1 -1v0q-7 -12 -16.5 -23t-20.5 -21t-24.5 -15t-28.5 -5q-9 0 -17 1.5t-16 4.5t-15.5 6t-15.5 7h-1.5h-0.5q-1 0 -1.5 0.5t-0.5 1.5q-4 2 -7.5 3t-7.5 3q-4 1 -7.5 2.5t-7.5 2.5q-7 3 -14.5 4.5t-15.5 1.5q-7 0 -13 -2.5t-11 -7.5q-4 -4 -8 -9.5t-7 -11.5
l-1.5 -1.5t-0.5 -1.5v-0.5v-0.5l-1 -1v0l-40 24q6 10 14 21t17 21q9 11 21.5 16.5t27.5 6.5q9 0 17.5 -1.5t16.5 -4.5q4 -1 8 -3t8 -3q4 -2 8 -3.5t8 -3.5q8 -4 15.5 -7.5t15.5 -6.5t16.5 -4.5t17.5 -1.5q8 0 15 2.5t13 7.5t11 10.5t9 11.5l1.5 1.5l1.5 1.5q0 1 0.5 2t1.5 2
v2v0z" />
    <glyph glyph-name="ograve" unicode="&#xf2;" horiz-adv-x="507" 
d="M54 246q0 58 8.5 101t26.5 71q18 27 59 41t105 14q67 0 110.5 -12t63.5 -35t30 -67.5t10 -110.5q0 -58 -6.5 -104.5t-18.5 -81.5q-12 -36 -54 -53t-114 -17q-63 0 -106 9.5t-67 28.5q-24 20 -35.5 62t-11.5 108v46v0zM126 247v-39v-7v-5v-6v-6v-11.5t1 -10.5
q1 -15 3 -28.5t5 -26.5t7.5 -23t11.5 -17q5 -5 12 -8.5t15 -5.5t16.5 -3.5t17.5 -1.5h2h2h1h2h4h4l32 2q1 -1 2.5 -1h2.5h2.5h2.5q26 0 47 4t36 12q17 8 26 29t11 54v6.5t1 7.5v6.5v6.5v6t1 7v6.5v7.5v6t1 7v6.5v6.5v13.5v13.5q0 43 -4 73.5t-12 49.5q-8 18 -33.5 27.5
t-68.5 9.5l-15 2q-46 -2 -74.5 -9t-39.5 -21t-16.5 -45.5t-5.5 -81.5v-13v0zM212 660l132 -100l-23 -36l-144 88l35 48v0z" />
    <glyph glyph-name="oacute" unicode="&#xf3;" horiz-adv-x="507" 
d="M54 246q0 58 8.5 101t26.5 71q18 27 59 41t105 14q67 0 110.5 -12t63.5 -35t30 -67.5t10 -110.5q0 -58 -6.5 -104.5t-18.5 -81.5q-12 -36 -54 -53t-114 -17q-63 0 -106 9.5t-67 28.5q-24 20 -35.5 62t-11.5 108v46v0zM126 247v-39v-7v-5v-6v-6v-11.5t1 -10.5
q1 -15 3 -28.5t5 -26.5t7.5 -23t11.5 -17q5 -5 12 -8.5t15 -5.5t16.5 -3.5t17.5 -1.5h2h2h1h2h4h4l32 2q1 -1 2.5 -1h2.5h2.5h2.5q26 0 47 4t36 12q17 8 26 29t11 54v6.5t1 7.5v6.5v6.5v6t1 7v6.5v7.5v6t1 7v6.5v6.5v13.5v13.5q0 43 -4 73.5t-12 49.5q-8 18 -33.5 27.5
t-68.5 9.5l-15 2q-46 -2 -74.5 -9t-39.5 -21t-16.5 -45.5t-5.5 -81.5v-13v0zM309 660l35 -48l-143 -88l-24 36l132 100v0z" />
    <glyph glyph-name="ocircumflex" unicode="&#xf4;" horiz-adv-x="507" 
d="M54 246q0 58 8.5 101t26.5 71q18 27 59 41t105 14q67 0 110.5 -12t63.5 -35t30 -67.5t10 -110.5q0 -58 -6.5 -104.5t-18.5 -81.5q-12 -36 -54 -53t-114 -17q-63 0 -106 9.5t-67 28.5q-24 20 -35.5 62t-11.5 108v46v0zM126 247v-39v-7v-5v-6v-6v-11.5t1 -10.5
q1 -15 3 -28.5t5 -26.5t7.5 -23t11.5 -17q5 -5 12 -8.5t15 -5.5t16.5 -3.5t17.5 -1.5h2h2h1h2h4h4l32 2q1 -1 2.5 -1h2.5h2.5h2.5q26 0 47 4t36 12q17 8 26 29t11 54v6.5t1 7.5v6.5v6.5v6t1 7v6.5v7.5v6t1 7v6.5v6.5v13.5v13.5q0 43 -4 73.5t-12 49.5q-8 18 -33.5 27.5
t-68.5 9.5l-15 2q-46 -2 -74.5 -9t-39.5 -21t-16.5 -45.5t-5.5 -81.5v-13v0zM263 654l153 -95l-21 -38l-132 61l-138 -61l-19 38l157 95v0z" />
    <glyph glyph-name="otilde" unicode="&#xf5;" horiz-adv-x="507" 
d="M54 246q0 58 8.5 101t26.5 71q18 27 59 41t105 14q67 0 110.5 -12t63.5 -35t30 -67.5t10 -110.5q0 -58 -6.5 -104.5t-18.5 -81.5q-12 -36 -54 -53t-114 -17q-63 0 -106 9.5t-67 28.5q-24 20 -35.5 62t-11.5 108v46v0zM126 247v-39v-7v-5v-6v-6v-11.5t1 -10.5
q1 -15 3 -28.5t5 -26.5t7.5 -23t11.5 -17q5 -5 12 -8.5t15 -5.5t16.5 -3.5t17.5 -1.5h2h2h1h2h4h4l32 2q1 -1 2.5 -1h2.5h2.5h2.5q26 0 47 4t36 12q17 8 26 29t11 54v6.5t1 7.5v6.5v6.5v6t1 7v6.5v7.5v6t1 7v6.5v6.5v13.5v13.5q0 43 -4 73.5t-12 49.5q-8 18 -33.5 27.5
t-68.5 9.5l-15 2q-46 -2 -74.5 -9t-39.5 -21t-16.5 -45.5t-5.5 -81.5v-13v0zM374 612l38 -24v-2.5v-0.5l-1 -1v0v0v0l-1 -1v0q-7 -12 -16.5 -23t-20.5 -21t-24.5 -15t-28.5 -5q-9 0 -17 1.5t-16 4.5t-15.5 6t-15.5 7h-1.5h-0.5q-1 0 -1.5 0.5t-0.5 1.5q-4 2 -7.5 3t-7.5 3
q-4 1 -7.5 2.5t-7.5 2.5q-7 3 -14.5 4.5t-15.5 1.5q-7 0 -13 -2.5t-11 -7.5q-4 -4 -8 -9.5t-7 -11.5l-1.5 -1.5t-0.5 -1.5v-0.5v-0.5l-1 -1v0l-40 24q6 10 14 21t17 21q9 11 21.5 16.5t27.5 6.5q9 0 17.5 -1.5t16.5 -4.5q4 -1 8 -3t8 -3q4 -2 8 -3.5t8 -3.5q8 -4 15.5 -7.5
t15.5 -6.5t16.5 -4.5t17.5 -1.5q8 0 15 2.5t13 7.5t11 10.5t9 11.5l1.5 1.5l1.5 1.5q0 1 0.5 2t1.5 2v2v0z" />
    <glyph glyph-name="odieresis" unicode="&#xf6;" horiz-adv-x="507" 
d="M54 246q0 58 8.5 101t26.5 71q18 27 59 41t105 14q67 0 110.5 -12t63.5 -35t30 -67.5t10 -110.5q0 -58 -6.5 -104.5t-18.5 -81.5q-12 -36 -54 -53t-114 -17q-63 0 -106 9.5t-67 28.5q-24 20 -35.5 62t-11.5 108v46v0zM126 247v-39v-7v-5v-6v-6v-11.5t1 -10.5
q1 -15 3 -28.5t5 -26.5t7.5 -23t11.5 -17q5 -5 12 -8.5t15 -5.5t16.5 -3.5t17.5 -1.5h2h2h1h2h4h4l32 2q1 -1 2.5 -1h2.5h2.5h2.5q26 0 47 4t36 12q17 8 26 29t11 54v6.5t1 7.5v6.5v6.5v6t1 7v6.5v7.5v6t1 7v6.5v6.5v13.5v13.5q0 43 -4 73.5t-12 49.5q-8 18 -33.5 27.5
t-68.5 9.5l-15 2q-46 -2 -74.5 -9t-39.5 -21t-16.5 -45.5t-5.5 -81.5v-13v0zM211 581v-66h-78v66h78v0zM389 581v-66h-79v66h79v0z" />
    <glyph glyph-name="divide" unicode="&#xf7;" 
 />
    <glyph glyph-name="oslash" unicode="&#xf8;" horiz-adv-x="495" 
d="M465 477v-62l-33 -31q3 -8 5 -14.5t3 -12.5q2 -7 3 -13.5t2 -13.5t1.5 -13.5t0.5 -12.5q1 -7 1 -13.5v-13.5v-40v-12v-10v-5.5v-4.5q-1 -3 -1 -5.5v-5.5q0 -7 -0.5 -15t-1.5 -15q-1 -8 -1.5 -15.5t-1.5 -15.5q-2 -15 -5.5 -30t-8.5 -29q-9 -25 -23.5 -40.5t-34.5 -23.5
q-21 -7 -42.5 -10.5t-44.5 -4.5h-6t-5 -1h-5.5h-5.5h-10.5h-10.5h-8h-7q-4 1 -8 1h-8q-8 0 -16.5 0.5t-16.5 1.5q-15 1 -29 4t-28 7q-13 5 -25 12.5t-21 17.5l-56 -54v62l37 34q-2 4 -3.5 8.5t-3.5 8.5q-1 5 -2.5 10t-2.5 10q-1 8 -2 16.5t-2 16.5t-1 16.5v17.5q-1 8 -1 16
v17v16.5v16.5q0 61 9 104.5t27 68.5q18 26 59 38.5t104 12.5h9.5h9.5h4.5h5.5q2 -1 4.5 -1h4.5q20 -1 38.5 -3t36.5 -7q18 -4 34.5 -13.5t31.5 -23.5l51 51v0zM122 86q5 -10 11.5 -16.5t16.5 -9.5q9 -4 19.5 -6t20.5 -3q2 0 4.5 -0.5t5.5 -0.5q2 -1 4.5 -1h4.5h4.5h5.5h4.5
h4.5q41 0 69 5.5t43 15.5q14 11 22.5 36.5t11.5 67.5q1 9 1.5 18t0.5 18v9.5t1 8.5v9.5v8.5v10v10q-1 5 -1 10v10q-1 11 -1.5 20.5t-2.5 19.5l-250 -240v0zM364 380q-2 2 -5 5.5t-6 7.5q-3 3 -6.5 6t-8.5 5q-8 3 -16.5 5.5t-16.5 3.5q-4 0 -8.5 0.5t-8.5 1.5q-5 0 -9 0.5
t-9 0.5h-4.5h-4.5h-4h-4l-27 2q-34 -2 -56.5 -7t-33.5 -14t-18 -33.5t-9 -63.5q0 -5 -0.5 -10.5t-0.5 -10.5q-1 -6 -1 -11.5v-10.5t-0.5 -10.5t-0.5 -10.5v-11.5v-10.5v-10v-10t0.5 -10t1.5 -10v-10t1 -10t1.5 -10t1.5 -10l252 246v0z" />
    <glyph glyph-name="ugrave" unicode="&#xf9;" horiz-adv-x="507" 
d="M447 467v-467h-65v62q-15 -24 -32 -38.5t-37 -20.5q-19 -4 -42 -7t-49 -3q-42 0 -72.5 9.5t-50.5 28.5q-19 20 -29 50.5t-10 72.5v313h71v-311q0 -32 5.5 -53t15.5 -32q11 -11 32 -16.5t53 -5.5q41 0 69 7.5t42 23.5q14 15 21 42.5t7 67.5v277h71v0zM205 659l132 -100
l-23 -36l-144 88l35 48v0z" />
    <glyph glyph-name="uacute" unicode="&#xfa;" horiz-adv-x="507" 
d="M447 467v-467h-65v62q-15 -24 -32 -38.5t-37 -20.5q-19 -4 -42 -7t-49 -3q-42 0 -72.5 9.5t-50.5 28.5q-19 20 -29 50.5t-10 72.5v313h71v-311q0 -32 5.5 -53t15.5 -32q11 -11 32 -16.5t53 -5.5q41 0 69 7.5t42 23.5q14 15 21 42.5t7 67.5v277h71v0zM302 659l35 -48
l-143 -88l-24 36l132 100v0z" />
    <glyph glyph-name="ucircumflex" unicode="&#xfb;" horiz-adv-x="507" 
d="M447 467v-467h-65v62q-15 -24 -32 -38.5t-37 -20.5q-19 -4 -42 -7t-49 -3q-42 0 -72.5 9.5t-50.5 28.5q-19 20 -29 50.5t-10 72.5v313h71v-311q0 -32 5.5 -53t15.5 -32q11 -11 32 -16.5t53 -5.5q41 0 69 7.5t42 23.5q14 15 21 42.5t7 67.5v277h71v0zM255 654l153 -95
l-21 -38l-132 61l-138 -61l-19 38l157 95v0z" />
    <glyph glyph-name="udieresis" unicode="&#xfc;" horiz-adv-x="507" 
d="M447 467v-467h-65v62q-15 -24 -32 -38.5t-37 -20.5q-19 -4 -42 -7t-49 -3q-42 0 -72.5 9.5t-50.5 28.5q-19 20 -29 50.5t-10 72.5v313h71v-311q0 -32 5.5 -53t15.5 -32q11 -11 32 -16.5t53 -5.5q41 0 69 7.5t42 23.5q14 15 21 42.5t7 67.5v277h71v0zM203 580v-66h-78v66
h78v0zM381 580v-66h-79v66h79v0z" />
    <glyph glyph-name="yacute" unicode="&#xfd;" 
 />
    <glyph glyph-name="thorn" unicode="&#xfe;" 
 />
    <glyph glyph-name="ydieresis" unicode="&#xff;" horiz-adv-x="389" 
d="M392 467l-132 -494q-1 -3 -2 -6.5t-2 -7.5q-1 -3 -1.5 -6.5t-1.5 -7.5q-9 -29 -21 -56t-29 -51q-16 -24 -41.5 -36.5t-60.5 -12.5h-4t-4 1q-3 0 -5 0.5t-4 0.5q-4 1 -8 1.5t-8 1.5v57h1.5t1.5 -1h1.5h1.5h2t2 -1h1h2h1.5t1.5 -1h1.5h1.5h2h2h1h2q18 0 31.5 7.5t22.5 21.5
t16.5 29.5t11.5 32.5q2 9 4.5 17t3.5 16q1 4 2 7.5t2 7.5q0 3 1 6.5t2 6.5h-25l-169 467h71l146 -416l106 416h72v0zM145 580v-66h-78v66h78v0zM323 580v-66h-79v66h79v0z" />
    <glyph glyph-name="Abreve" unicode="&#x102;" 
 />
    <glyph glyph-name="abreve" unicode="&#x103;" 
 />
    <glyph glyph-name="Aogonek" unicode="&#x104;" 
 />
    <glyph glyph-name="aogonek" unicode="&#x105;" 
 />
    <glyph glyph-name="Cacute" unicode="&#x106;" 
 />
    <glyph glyph-name="cacute" unicode="&#x107;" 
 />
    <glyph glyph-name="Ccaron" unicode="&#x10c;" 
 />
    <glyph glyph-name="ccaron" unicode="&#x10d;" 
 />
    <glyph glyph-name="Dcaron" unicode="&#x10e;" 
 />
    <glyph glyph-name="dcaron" unicode="&#x10f;" 
 />
    <glyph glyph-name="Dslash" unicode="&#x110;" 
 />
    <glyph glyph-name="dcroat" unicode="&#x111;" 
 />
    <glyph glyph-name="Eogonek" unicode="&#x118;" 
 />
    <glyph glyph-name="eogonek" unicode="&#x119;" 
 />
    <glyph glyph-name="Ecaron" unicode="&#x11a;" 
 />
    <glyph glyph-name="ecaron" unicode="&#x11b;" 
 />
    <glyph glyph-name="Gbreve" unicode="&#x11e;" 
 />
    <glyph glyph-name="gbreve" unicode="&#x11f;" 
 />
    <glyph glyph-name="Idotaccent" unicode="&#x130;" 
 />
    <glyph glyph-name="dotlessi" unicode="&#x131;" horiz-adv-x="191" 
d="M131 467v-467h-71v467h71v0z" />
    <glyph glyph-name="Lacute" unicode="&#x139;" 
 />
    <glyph glyph-name="lacute" unicode="&#x13a;" 
 />
    <glyph glyph-name="Lcaron" unicode="&#x13d;" 
 />
    <glyph glyph-name="lcaron" unicode="&#x13e;" 
 />
    <glyph glyph-name="Ldot" unicode="&#x13f;" 
 />
    <glyph glyph-name="ldot" unicode="&#x140;" 
 />
    <glyph glyph-name="Lslash" unicode="&#x141;" 
 />
    <glyph glyph-name="lslash" unicode="&#x142;" 
 />
    <glyph glyph-name="Nacute" unicode="&#x143;" 
 />
    <glyph glyph-name="nacute" unicode="&#x144;" 
 />
    <glyph glyph-name="Ncaron" unicode="&#x147;" 
 />
    <glyph glyph-name="ncaron" unicode="&#x148;" 
 />
    <glyph glyph-name="Odblacute" unicode="&#x150;" 
 />
    <glyph glyph-name="odblacute" unicode="&#x151;" 
 />
    <glyph glyph-name="OE" unicode="&#x152;" horiz-adv-x="986" 
d="M609 596v-218h337v-67h-337v-242h352v-66h-424v66q-10 -20 -25 -33t-34 -21q-19 -7 -38 -11.5t-39 -6.5h-6t-6 -1h-6h-6h-6t-6 -1h-6h-6q-74 0 -131 8.5t-98 26.5q-40 18 -60 70.5t-20 138.5v9.5v8.5v9.5t1 8.5v4v5v4v4v4v5v4v4v112q0 76 16 126t47 73t83 35t125 12h16
h16h8h8q4 -1 8.5 -1h8.5q8 -1 16 -1.5t16 -1.5t16 -1.5t16 -2.5q16 -4 29.5 -9t24.5 -13q11 -7 20.5 -18t17.5 -25v70h424v-68h-352v0zM321 60q56 -2 96 3.5t64 16.5t37 46.5t14 96.5v105l2 102q0 56 -9.5 92t-28.5 50t-56 21t-92 7l-71 2q-54 -2 -87 -13.5t-45 -34.5
q-13 -22 -19 -59.5t-6 -90.5v-8.5v-8.5v-9v-9v-17.5v-16.5q-1 -9 -1 -18v-18v-17.5v-16.5q0 -43 4 -79t13 -65q9 -28 39.5 -44t82.5 -18q4 0 8 -0.5t8 -0.5h7h8h16h16v2v0z" />
    <glyph glyph-name="oe" unicode="&#x153;" horiz-adv-x="837" 
d="M789 226h-330v-5v-4v-2.5v-3.5q0 -1 -0.5 -2l-0.5 -1v-2v-2v-2.5v-3.5q0 -37 4.5 -65.5t13.5 -46.5q9 -19 34.5 -28t67.5 -9l26 2q2 -1 4.5 -1h4.5q25 0 44.5 3.5t32.5 10.5q15 8 23 26.5t8 49.5l69 2q0 -50 -12 -81t-35 -43q-24 -13 -58.5 -18.5t-80.5 -5.5h-6h-6h-6h-7
h-6h-6h-6q-4 1 -7 1h-6q-19 1 -37.5 4t-35.5 9q-18 6 -31.5 18t-22.5 31q-9 -19 -22 -32t-30 -19t-35 -9t-37 -4h-5.5t-4.5 -1h-5.5h-4.5h-10h-10q-36 0 -69 4.5t-62 14.5t-47 36t-25 68q-1 8 -2 15.5t-2 15.5q0 7 -1 15t-1 15q-1 15 -1.5 30.5t-0.5 31.5q0 64 9 109t27 71
t61 39.5t111 13.5h11h12h6h6q3 -1 6 -1h6q5 0 10 -0.5t11 -1.5q5 -1 10 -1.5t10 -1.5q10 -2 19.5 -5t19.5 -7q8 -4 15 -9t11 -11q5 -6 8.5 -13.5t5.5 -15.5q8 18 20.5 30t28.5 19q17 7 34 11.5t35 5.5h6t7 1h6h6h6t6 1h6h6q54 0 93 -9.5t62 -29.5q23 -19 34.5 -57.5
t11.5 -94.5v-55v0zM119 239v-30q0 -47 4.5 -78.5t13.5 -49.5t37.5 -26.5t75.5 -8.5l9 2q5 -2 10 -2h11t12.5 0.5t13.5 1.5q8 2 16.5 3.5t15.5 4.5q8 2 14 6t10 9q5 6 9 15t7 21q2 12 4 24.5t3 25.5v6t1 7v6v6v12v12v37v5v7q-1 4 -1 8v8v9.5v8.5q-1 5 -1 9.5v8.5q-1 12 -3 24
t-5 24t-7 21t-9 15q-4 5 -11 9t-15 6t-16.5 3t-17.5 2h-2.5t-3.5 1h-2.5h-3.5h-6h-6l-44 2q-4 -2 -7.5 -2h-7.5h-4h-3q-2 -1 -3.5 -1h-3.5q-10 -1 -19 -2.5t-17 -4.5q-9 -3 -15 -7.5t-11 -10.5q-4 -6 -8 -14.5t-6 -19.5q-2 -10 -3.5 -21.5t-2.5 -22.5q-1 -9 -1.5 -17
t-0.5 -16v-15v-13v-8v0zM719 284q-1 38 -6.5 65t-14.5 40q-9 14 -36.5 20.5t-72.5 6.5q-41 0 -68 -6.5t-39 -20.5q-12 -13 -18.5 -40t-6.5 -67l262 2v0z" />
    <glyph glyph-name="Racute" unicode="&#x154;" 
 />
    <glyph glyph-name="racute" unicode="&#x155;" 
 />
    <glyph glyph-name="Rcaron" unicode="&#x158;" 
 />
    <glyph glyph-name="rcaron" unicode="&#x159;" 
 />
    <glyph glyph-name="Sacute" unicode="&#x15a;" 
 />
    <glyph glyph-name="sacute" unicode="&#x15b;" 
 />
    <glyph glyph-name="Scedilla" unicode="&#x15e;" 
 />
    <glyph glyph-name="scedilla" unicode="&#x15f;" 
 />
    <glyph glyph-name="Scaron" unicode="&#x160;" 
 />
    <glyph glyph-name="scaron" unicode="&#x161;" 
 />
    <glyph glyph-name="Tcedilla" unicode="&#x162;" 
 />
    <glyph glyph-name="tcedilla" unicode="&#x163;" 
 />
    <glyph glyph-name="Tcaron" unicode="&#x164;" 
 />
    <glyph glyph-name="tcaron" unicode="&#x165;" 
 />
    <glyph glyph-name="Uring" unicode="&#x16e;" 
 />
    <glyph glyph-name="uring" unicode="&#x16f;" 
 />
    <glyph glyph-name="udblacute" unicode="&#x170;" 
 />
    <glyph glyph-name="Udblacute" unicode="&#x171;" 
 />
    <glyph glyph-name="Ydieresis" unicode="&#x178;" horiz-adv-x="562" 
d="M567 667l-252 -388v-279h-75v279l-245 388h87l198 -312l198 312h89v0zM231 790v-66h-78v66h78v0zM409 790v-66h-79v66h79v0z" />
    <glyph glyph-name="Zacute" unicode="&#x179;" 
 />
    <glyph glyph-name="zacute" unicode="&#x17a;" 
 />
    <glyph glyph-name="Zdot" unicode="&#x17b;" 
 />
    <glyph glyph-name="zdot" unicode="&#x17c;" 
 />
    <glyph glyph-name="Zcaron" unicode="&#x17d;" 
 />
    <glyph glyph-name="zcaron" unicode="&#x17e;" 
 />
    <glyph glyph-name="florin" unicode="&#x192;" horiz-adv-x="613" 
d="M367 443l-78 -439q-7 -40 -18.5 -67t-26.5 -42t-44 -22.5t-73 -7.5h-7.5h-6.5h-4h-3q-2 1 -3.5 1h-3.5h-4h-3q-2 1 -3.5 1h-3.5q-4 1 -7.5 1.5t-6.5 0.5l10 57q3 0 6 -0.5t7 -1.5q3 0 6 -0.5t6 -0.5h6t7 -1h6.5h6.5q23 0 38 4.5t23 13.5t14 23.5t10 34.5l79 445h-91
l10 57h91l18 103q8 38 20 65t28 42q17 14 44.5 21.5t67.5 7.5h6.5h7.5h4h4q1 -1 3 -1h4h3.5h3.5q1 -1 3 -1h4h7.5h7.5l-10 -55q-7 -1 -13.5 -1h-12.5h-6t-6 1h-7h-6q-23 0 -38.5 -4.5t-23.5 -12.5q-7 -8 -13 -22.5t-10 -35.5l-19 -107h123l-10 -57h-123v0z" />
    <glyph glyph-name="hungarumlaut" unicode="&#x2ba;" horiz-adv-x="500" 
d="M220 665l40 -44l-134 -103l-27 34l121 113v0zM361 665l40 -44l-134 -103l-27 34l121 113v0z" />
    <glyph glyph-name="tilde" unicode="&#x2c6;" horiz-adv-x="500" 
d="M363 612l38 -24v-2.5v-0.5l-1 -1v0v0v0l-1 -1v0q-7 -12 -16.5 -23t-20.5 -21t-24.5 -15t-28.5 -5q-9 0 -17 1.5t-16 4.5t-15.5 6t-15.5 7h-1.5h-0.5q-1 0 -1.5 0.5t-0.5 1.5q-4 2 -7.5 3t-7.5 3q-4 1 -7.5 2.5t-7.5 2.5q-7 3 -14.5 4.5t-15.5 1.5q-7 0 -13 -2.5t-11 -7.5
q-4 -4 -8 -9.5t-7 -11.5l-1.5 -1.5t-0.5 -1.5v-0.5v-0.5l-1 -1v0l-40 24q6 10 14 21t17 21q9 11 21.5 16.5t27.5 6.5q9 0 17.5 -1.5t16.5 -4.5q4 -1 8 -3t8 -3q4 -2 8 -3.5t8 -3.5q8 -4 15.5 -7.5t15.5 -6.5t16.5 -4.5t17.5 -1.5q8 0 15 2.5t13 7.5t11 10.5t9 11.5l1.5 1.5
l1.5 1.5q0 1 0.5 2t1.5 2v2v0z" />
    <glyph glyph-name="caron" unicode="&#x2c7;" horiz-adv-x="500" 
d="M248 521l-153 96l21 37l132 -60l138 60l19 -37l-157 -96v0z" />
    <glyph glyph-name="macron" unicode="&#x2c9;" horiz-adv-x="500" 
d="M124 576h246v-57h-246v57v0z" />
    <glyph glyph-name="breve" unicode="&#x2d8;" horiz-adv-x="500" 
d="M101 655h48q4 -20 13 -35t23 -27t30.5 -18t35.5 -6t35.5 6t30.5 18t23 27t13 33l47 2q-4 -29 -16.5 -53t-33.5 -44t-45.5 -30t-53.5 -10q-30 0 -54.5 10t-44.5 30t-33 43.5t-18 51.5v2v0z" />
    <glyph glyph-name="dotaccent" unicode="&#x2d9;" horiz-adv-x="500" 
d="M289 580v-66h-78v66h78v0z" />
    <glyph glyph-name="ring" unicode="&#x2da;" horiz-adv-x="500" 
d="M251 500q-1 -1 -1.5 -1h-0.5h-1.5h-1.5q-14 0 -26 5.5t-23 16.5q-12 11 -17.5 24.5t-5.5 29.5q0 15 5.5 28.5t17.5 24.5q11 11 24.5 17t29.5 6q15 0 28.5 -6t24.5 -17t17 -24.5t6 -28.5q0 -16 -6 -29.5t-17 -24.5q-11 -12 -24.5 -17.5t-28.5 -5.5v2v0zM251 533q1 -1 2 -1
h2q7 0 13.5 3t12.5 9t9.5 14t3.5 17q0 8 -3.5 15.5t-9.5 14.5q-7 6 -14.5 9.5t-15.5 3.5q-9 0 -17 -3.5t-14 -9.5q-7 -7 -10 -14.5t-3 -15.5q0 -9 3 -17t10 -14q6 -7 14 -10t17 -3v2v0z" />
    <glyph glyph-name="ogonek" unicode="&#x2db;" horiz-adv-x="500" 
d="M248 0h51q-1 -1 -2.5 -1.5t-2.5 -1.5l-3 -1.5l-3 -1.5q-1 -1 -2.5 -2t-2.5 -2q-2 0 -3 -1l-2 -2q-10 -6 -18.5 -13.5t-16.5 -16.5q-8 -8 -12 -18t-4 -21t4 -18.5t11 -12.5q8 -5 16 -8.5t18 -4.5h0.5t1.5 -1h0.5h1.5h1.5h1.5h0.5h1.5h2h3q1 1 2 1h2h2h2q1 1 2.5 1h2.5
q2 0 4 0.5t4 1.5t4.5 1.5t4.5 1.5v-44q-3 -1 -6 -1.5t-6 -1.5t-6 -1.5t-5 -1.5h-2.5t-3.5 -1h-2.5h-3.5h-2.5t-3.5 -1h-2.5h-3.5h-1.5h-0.5v0v0h-1v0q-17 1 -32.5 6t-29.5 15t-21 24.5t-7 32.5q0 16 5 30.5t15 25.5q11 12 23 21t25 17v0z" />
    <glyph glyph-name="circumflex" unicode="&#x2dc;" horiz-adv-x="500" 
d="M252 654l153 -95l-21 -38l-132 61l-138 -61l-19 38l157 95v0z" />
    <glyph glyph-name="Gamma" unicode="&#x393;" 
 />
    <glyph glyph-name="Theta" unicode="&#x398;" 
 />
    <glyph glyph-name="summation" unicode="&#x3a3;" 
 />
    <glyph glyph-name="Phi" unicode="&#x3a6;" 
 />
    <glyph glyph-name="Omega" unicode="&#x3a9;" 
 />
    <glyph glyph-name="alpha" unicode="&#x3b1;" 
 />
    <glyph glyph-name="delta" unicode="&#x3b4;" 
 />
    <glyph glyph-name="epsilon" unicode="&#x3b5;" 
 />
    <glyph glyph-name="pi" unicode="&#x3c0;" 
 />
    <glyph glyph-name="sigma" unicode="&#x3c3;" 
 />
    <glyph glyph-name="tau" unicode="&#x3c4;" 
 />
    <glyph glyph-name="phi" unicode="&#x3c6;" 
 />
    <glyph glyph-name="endash002" unicode="&#x2013;" horiz-adv-x="613" 
d="M20 276h573v-65h-573v65v0z" />
    <glyph glyph-name="emdash" unicode="&#x2014;" horiz-adv-x="697" 
d="M20 276h657v-65h-657v65v0z" />
    <glyph glyph-name="underscoredbl" unicode="&#x2017;" 
 />
    <glyph glyph-name="quoteleft" unicode="&#x2018;" horiz-adv-x="179" 
d="M42 491v98q0 19 3 35t9 29q6 12 20.5 18.5t36.5 6.5h1.5h1.5h0.5h1.5h1.5h1.5h0.5h1.5q1 -1 2 -1h2h3.5h2.5v-36q-13 -2 -21.5 -5.5t-13.5 -8.5q-4 -5 -6.5 -14t-2.5 -21v-1.5v-1.5v-2t1 -1v-2v-2v-1.5v-1.5l33 2v-90h-79v0z" />
    <glyph glyph-name="quoteright" unicode="&#x2019;" horiz-adv-x="179" 
d="M131 679v-98q0 -22 -3.5 -38.5t-9.5 -29.5t-20 -19t-36 -6h-2.5h-3.5h-2t-2 1h-1.5h-0.5h-1.5h-1.5h-1.5h-0.5h-1.5h-1.5v39q13 -1 22 2t13 8q5 5 7 14t2 22v3.5v2.5v1.5v1.5q-1 1 -1 1.5v1.5l-33 2v91h79v0z" />
    <glyph glyph-name="quotesinglbase" unicode="&#x201a;" 
 />
    <glyph glyph-name="quotedblleft" unicode="&#x201c;" horiz-adv-x="319" 
d="M42 491v98q0 19 3 35t9 29q6 12 20.5 18.5t36.5 6.5h1.5h1.5h0.5h1.5h1.5h1.5h0.5h1.5q1 -1 2 -1h2h3.5h2.5v-36q-13 -2 -21.5 -5.5t-13.5 -8.5q-4 -5 -6.5 -14t-2.5 -21v-1.5v-1.5v-2t1 -1v-2v-2v-1.5v-1.5l33 2v-90h-79v0zM182 491v98q0 19 3 35t9 29q6 12 20.5 18.5
t36.5 6.5h1.5h1.5h0.5h1.5h1.5h1.5h0.5h1.5q1 -1 2 -1h2h3.5h2.5v-36q-13 -2 -21.5 -5.5t-13.5 -8.5q-4 -5 -6.5 -14t-2.5 -21v-1.5v-1.5v-2t1 -1v-2v-2v-1.5v-1.5l33 2v-90h-79v0z" />
    <glyph glyph-name="quotedblright" unicode="&#x201d;" horiz-adv-x="319" 
d="M131 679v-98q0 -22 -3.5 -38.5t-9.5 -29.5t-20 -19t-36 -6h-2.5h-3.5h-2t-2 1h-1.5h-0.5h-1.5h-1.5h-1.5h-0.5h-1.5h-1.5v39q13 -1 22 2t13 8q5 5 7 14t2 22v3.5v2.5v1.5v1.5q-1 1 -1 1.5v1.5l-33 2v91h79v0zM271 679v-98q0 -22 -3.5 -38.5t-9.5 -29.5t-20 -19t-36 -6
h-2.5h-3.5h-2t-2 1h-1.5h-0.5h-1.5h-1.5h-1.5h-0.5h-1.5h-1.5v39q13 -1 22 2t13 8q5 5 7 14t2 22v3.5v2.5v1.5v1.5q-1 1 -1 1.5v1.5l-33 2v91h79v0z" />
    <glyph glyph-name="quotedblbase" unicode="&#x201e;" horiz-adv-x="319" 
d="M137 91v-98q0 -20 -3.5 -36.5t-9.5 -29.5q-6 -12 -20 -18.5t-36 -6.5h-2.5h-3.5h-2h-2t-1.5 0.5l-0.5 0.5h-1.5h-1.5h-1.5h-0.5h-1.5h-1.5v37q13 1 22 4t13 8q5 5 7 14t2 22v2.5v3.5v1.5v1.5q-1 1 -1 1.5v1.5h-33v91h79v0zM277 91v-98q0 -20 -3.5 -36.5t-9.5 -29.5
q-6 -12 -20 -18.5t-36 -6.5h-2.5h-3.5h-2h-2t-1.5 0.5l-0.5 0.5h-1.5h-1.5h-1.5h-0.5h-1.5h-1.5v37q13 1 22 4t13 8q5 5 7 14t2 22v2.5v3.5v1.5v1.5q-1 1 -1 1.5v1.5h-33v91h79v0z" />
    <glyph glyph-name="dagger" unicode="&#x2020;" horiz-adv-x="613" 
d="M344 667v-184h154v-58h-154v-605h-73v605h-155v58h155v184h73v0z" />
    <glyph glyph-name="daggerdbl" unicode="&#x2021;" horiz-adv-x="613" 
d="M344 667v-210h154v-58h-154v-301h154v-58h-154v-220h-73v220h-155v58h155v301h-155v58h155v210h73v0z" />
    <glyph glyph-name="bullet003" unicode="&#x2022;" horiz-adv-x="600" 
d="M198 286q0 19 7 35.5t21 30.5t31 21t37 7t37.5 -7t31.5 -21t21.5 -31t7.5 -37t-7.5 -37t-21.5 -31t-31.5 -21t-37.5 -7t-37 7t-31 21t-21 31t-7 37v2v0z" />
    <glyph glyph-name="ellipsis" unicode="&#x2026;" horiz-adv-x="597" 
d="M139 91v-91h-79v91h79v0zM338 91v-91h-79v91h79v0zM537 91v-91h-79v91h79v0z" />
    <glyph glyph-name="perthousand" unicode="&#x2030;" horiz-adv-x="1139" 
d="M486 171q0 37 4.5 67t14.5 52q9 22 36 33t70 11q41 0 72 -5t52 -14q20 -9 30.5 -36.5t10.5 -74.5v-10.5v-10.5v-10t1 -10v-10.5v-10.5v-10v-10v-1.5v-0.5v-1.5v-1.5v-2v-2q-1 -11 -2 -21.5t-3 -21.5q-1 -10 -5 -19t-9 -17q-7 -11 -16.5 -18.5t-20.5 -10.5q-6 -2 -12 -3.5
t-11 -1.5q-6 0 -12 -1t-12 -1h-4.5t-4.5 -1h-4.5h-4.5h-8.5h-8.5q-40 0 -69.5 5t-47.5 16t-27 40t-9 77v36v0zM530 169v-62q2 -28 8 -43.5t17 -20.5q11 -4 27 -6.5t35 -2.5h2h2h1h2h4h4q24 0 42.5 2.5t31.5 7.5t19.5 21.5t6.5 44.5v112q0 26 -5 42t-15 22q-10 5 -24.5 8
t-33.5 3l-49 2q-1 -2 -2.5 -2h-3.5h-2h-1h-2h-2q-7 -1 -13.5 -1.5t-12.5 -2.5q-7 -1 -12 -4t-8 -7q-4 -5 -7.5 -12t-5.5 -16q-1 -4 -1.5 -8.5t-1.5 -8.5q0 -5 -0.5 -9t-0.5 -9v-2.5v-3.5v-1.5v-0.5v-1.5v-1.5v-6v-6v-5.5t1 -4.5v-5.5v-4.5v-5v-4v2v0zM840 171v3v5v5v6
q-1 0 -1 1v2v2v2v3.5v3.5v2v2v1v2q0 35 7.5 59t23.5 37q15 14 39 20.5t55 6.5q40 0 70.5 -4.5t52.5 -13.5q21 -9 32 -36t11 -72v-2.5v-2.5v-3v-3v-5.5v-4.5q-1 -3 -1 -5.5v-4.5v-5.5v-4.5v-2.5v-2.5v-3v-3v-2.5v-2.5q0 -2 0.5 -3t0.5 -3v-2.5v-2.5v-3v-3v-6v-6v-1.5v-0.5
v-1.5v-1.5v-2v-2q-1 -11 -2 -21.5t-3 -21.5q-1 -10 -5 -19t-9 -17q-7 -11 -16.5 -18.5t-20.5 -10.5q-6 -2 -12 -3.5t-11 -1.5q-6 0 -12 -1t-12 -1h-4.5t-4.5 -1h-4.5h-4.5h-8.5h-8.5h-21q-36 0 -61.5 5.5t-40.5 17.5t-22 41t-7 74v36v0zM883 169l1 -62q0 -16 3 -28t8 -23
q5 -10 15.5 -15.5t26.5 -5.5l48 1q4 -1 7 -1h6q21 0 37 2.5t26 6.5q12 5 18 21.5t6 44.5v116q0 25 -5 40t-15 20t-24.5 8t-33.5 3l-49 2q-1 -2 -2.5 -2h-3.5h-2h-1h-2h-2q-7 -1 -13.5 -1.5t-12.5 -2.5q-7 -1 -12 -4t-8 -7q-4 -5 -7.5 -12t-5.5 -16q-1 -4 -1.5 -8.5
t-1.5 -8.5q0 -5 -0.5 -9t-0.5 -9v-2.5v-3.5v-1.5v-0.5v-1.5v-1.5v-6v-6v-5.5t1 -4.5v-5.5v-4.5v-5v-4v2v0zM650 667l-452 -667h-46l450 667h48v0zM27 504q0 37 4.5 67t13.5 52t36 33t71 11l51 2q32 -2 54.5 -9.5t34.5 -21.5t18.5 -38t6.5 -58v-6v-5v-2.5v-2.5v-3v-3
q-1 -3 -1 -5.5v-4.5v-5.5v-4.5v-2.5v-2.5v-3v-3v-2.5v-2.5q0 -2 0.5 -3t0.5 -3v-2.5v-2.5v-3v-3v-6v-6q0 -36 -7 -60.5t-21 -38.5q-13 -13 -39.5 -20t-64.5 -7q-43 0 -73.5 6t-48.5 18t-27 40.5t-9 74.5v36v0zM70 502l1 -62q0 -28 6 -43t18 -20q12 -4 28.5 -7t38.5 -3h2.5
h2.5h3.5h2.5q24 0 42.5 2.5t31.5 7.5t19.5 21.5t6.5 44.5v112q0 26 -5 42t-15 22q-10 5 -24.5 8t-34.5 3l-49 2l-1.5 -1.5l-0.5 -0.5h-1.5h-1.5h-1.5h-0.5h-1.5h-1.5q-7 -1 -14 -1.5t-13 -2.5q-7 -1 -12 -4t-9 -7q-4 -5 -7.5 -11.5t-5.5 -14.5t-3.5 -16.5t-1.5 -16.5v-4.5
v-4.5v-4v-4v-6v-5v-5.5t1 -4.5v-5.5v-4.5v-4v-4v2v0z" />
    <glyph glyph-name="guilsinglleft" unicode="&#x2039;" horiz-adv-x="282" 
d="M170 511l51 -31l-105 -223l117 -225l-49 -32l-134 257l120 254v0z" />
    <glyph glyph-name="guilsinglright" unicode="&#x203a;" horiz-adv-x="282" 
d="M113 511l120 -254l-135 -257l-48 32l116 225l-105 223l52 31v0z" />
    <glyph glyph-name="exclamdbl" unicode="&#x203c;" 
 />
    <glyph glyph-name="nsuperior" unicode="&#x207f;" 
 />
    <glyph glyph-name="franc" unicode="&#x20a3;" 
 />
    <glyph glyph-name="peseta" unicode="&#x20a7;" 
 />
    <glyph glyph-name="trademark" unicode="&#x2122;" horiz-adv-x="886" 
d="M197 619v-352h-55v352h-135v48h323v-48h-133v0zM842 667v-400h-55v346l-150 -346h-52l-151 343v-343h-53v400h86l143 -330l144 330h88v0z" />
    <glyph glyph-name="arrowleft" unicode="&#x2190;" 
 />
    <glyph glyph-name="arrowup" unicode="&#x2191;" 
 />
    <glyph glyph-name="arrowright" unicode="&#x2192;" 
 />
    <glyph glyph-name="arrowdown" unicode="&#x2193;" 
 />
    <glyph glyph-name="arrowboth" unicode="&#x2194;" 
 />
    <glyph glyph-name="arrowupdn" unicode="&#x2195;" 
 />
    <glyph glyph-name="arrowupdnbase" unicode="&#x21a8;" 
 />
    <glyph glyph-name="partialdiff" unicode="&#x2202;" 
 />
    <glyph glyph-name="Delta" unicode="&#x2206;" 
 />
    <glyph glyph-name="product" unicode="&#x220f;" 
 />
    <glyph glyph-name="minus" unicode="&#x2212;" 
 />
    <glyph glyph-name="fraction" unicode="&#x2215;" horiz-adv-x="503" 
d="M503 667l-453 -667h-50l450 667h53v0z" />
    <glyph glyph-name="periodcentered" unicode="&#x2219;" horiz-adv-x="613" 
d="M346 289v-91h-79v91h79v0z" />
    <glyph glyph-name="radical" unicode="&#x221a;" 
 />
    <glyph glyph-name="infinity" unicode="&#x221e;" 
 />
    <glyph glyph-name="orthogonal" unicode="&#x221f;" 
 />
    <glyph glyph-name="intersection" unicode="&#x2229;" 
 />
    <glyph glyph-name="integral" unicode="&#x222b;" 
 />
    <glyph glyph-name="approxequal" unicode="&#x2248;" 
 />
    <glyph glyph-name="notequal" unicode="&#x2260;" 
 />
    <glyph glyph-name="equivalence" unicode="&#x2261;" 
 />
    <glyph glyph-name="lessequal" unicode="&#x2264;" 
 />
    <glyph glyph-name="greaterequal" unicode="&#x2265;" 
 />
    <glyph glyph-name="house" unicode="&#x2302;" 
 />
    <glyph glyph-name="revlogicalnot" unicode="&#x2310;" 
 />
    <glyph glyph-name="integraltp" unicode="&#x2320;" 
 />
    <glyph glyph-name="integralbt" unicode="&#x2321;" 
 />
    <glyph glyph-name="2500" unicode="&#x2500;" 
 />
    <glyph glyph-name="2502" unicode="&#x2502;" 
 />
    <glyph glyph-name="250c" unicode="&#x250c;" 
 />
    <glyph glyph-name="2510" unicode="&#x2510;" 
 />
    <glyph glyph-name="2514" unicode="&#x2514;" 
 />
    <glyph glyph-name="2518" unicode="&#x2518;" 
 />
    <glyph glyph-name="251c" unicode="&#x251c;" 
 />
    <glyph glyph-name="2524" unicode="&#x2524;" 
 />
    <glyph glyph-name="252c" unicode="&#x252c;" 
 />
    <glyph glyph-name="2534" unicode="&#x2534;" 
 />
    <glyph glyph-name="253c" unicode="&#x253c;" 
 />
    <glyph glyph-name="2550" unicode="&#x2550;" 
 />
    <glyph glyph-name="2551" unicode="&#x2551;" 
 />
    <glyph glyph-name="2552" unicode="&#x2552;" 
 />
    <glyph glyph-name="2553" unicode="&#x2553;" 
 />
    <glyph glyph-name="2554" unicode="&#x2554;" 
 />
    <glyph glyph-name="2555" unicode="&#x2555;" 
 />
    <glyph glyph-name="2556" unicode="&#x2556;" 
 />
    <glyph glyph-name="2557" unicode="&#x2557;" 
 />
    <glyph glyph-name="2558" unicode="&#x2558;" 
 />
    <glyph glyph-name="2559" unicode="&#x2559;" 
 />
    <glyph glyph-name="255a" unicode="&#x255a;" 
 />
    <glyph glyph-name="255b" unicode="&#x255b;" 
 />
    <glyph glyph-name="255c" unicode="&#x255c;" 
 />
    <glyph glyph-name="255d" unicode="&#x255d;" 
 />
    <glyph glyph-name="255e" unicode="&#x255e;" 
 />
    <glyph glyph-name="255f" unicode="&#x255f;" 
 />
    <glyph glyph-name="2560" unicode="&#x2560;" 
 />
    <glyph glyph-name="2561" unicode="&#x2561;" 
 />
    <glyph glyph-name="2562" unicode="&#x2562;" 
 />
    <glyph glyph-name="2563" unicode="&#x2563;" 
 />
    <glyph glyph-name="2564" unicode="&#x2564;" 
 />
    <glyph glyph-name="2565" unicode="&#x2565;" 
 />
    <glyph glyph-name="2566" unicode="&#x2566;" 
 />
    <glyph glyph-name="2567" unicode="&#x2567;" 
 />
    <glyph glyph-name="2568" unicode="&#x2568;" 
 />
    <glyph glyph-name="2569" unicode="&#x2569;" 
 />
    <glyph glyph-name="256a" unicode="&#x256a;" 
 />
    <glyph glyph-name="256b" unicode="&#x256b;" 
 />
    <glyph glyph-name="256c" unicode="&#x256c;" 
 />
    <glyph glyph-name="upblock" unicode="&#x2580;" 
 />
    <glyph glyph-name="dnblock" unicode="&#x2584;" 
 />
    <glyph glyph-name="block" unicode="&#x2588;" 
 />
    <glyph glyph-name="lfblock" unicode="&#x258c;" 
 />
    <glyph glyph-name="rtblock" unicode="&#x2590;" 
 />
    <glyph glyph-name="ltshade" unicode="&#x2591;" 
 />
    <glyph glyph-name="shade" unicode="&#x2592;" 
 />
    <glyph glyph-name="dkshade" unicode="&#x2593;" 
 />
    <glyph glyph-name="filledbox" unicode="&#x25a0;" 
 />
    <glyph glyph-name="filledrect" unicode="&#x25ac;" 
 />
    <glyph glyph-name="triagup" unicode="&#x25b2;" 
 />
    <glyph glyph-name="triagrt" unicode="&#x25ba;" 
 />
    <glyph glyph-name="triagdn" unicode="&#x25bc;" 
 />
    <glyph glyph-name="triaglf" unicode="&#x25c4;" 
 />
    <glyph glyph-name="lozenge" unicode="&#x25ca;" 
 />
    <glyph glyph-name="circle" unicode="&#x25cb;" 
 />
    <glyph glyph-name="invbullet" unicode="&#x25d8;" 
 />
    <glyph glyph-name="invcircle" unicode="&#x25d9;" 
 />
    <glyph glyph-name="smileface" unicode="&#x263a;" 
 />
    <glyph glyph-name="invsmileface" unicode="&#x263b;" 
 />
    <glyph glyph-name="sun" unicode="&#x263c;" 
 />
    <glyph glyph-name="female" unicode="&#x2640;" 
 />
    <glyph glyph-name="male" unicode="&#x2642;" 
 />
    <glyph glyph-name="spade" unicode="&#x2660;" 
 />
    <glyph glyph-name="club" unicode="&#x2663;" 
 />
    <glyph glyph-name="heart" unicode="&#x2665;" 
 />
    <glyph glyph-name="diamond" unicode="&#x2666;" 
 />
    <glyph glyph-name="musicalnote" unicode="&#x266a;" 
 />
    <glyph glyph-name="musicalnotedbl" unicode="&#x266b;" 
 />
    <glyph glyph-name="apple" unicode="&#xf000;" 
 />
    <glyph glyph-name="fi" unicode="&#xf001;" 
 />
    <glyph glyph-name="fl" unicode="&#xf002;" 
 />
    <glyph glyph-name="_" horiz-adv-x="0" 
 />
    <glyph glyph-name="_001" 
 />
    <glyph glyph-name="degree" horiz-adv-x="500" 
d="M251 500q-1 -1 -1.5 -1h-0.5h-1.5h-1.5q-14 0 -26 5.5t-23 16.5q-12 11 -17.5 24.5t-5.5 29.5q0 15 5.5 28.5t17.5 24.5q11 11 24.5 17t29.5 6q15 0 28.5 -6t24.5 -17t17 -24.5t6 -28.5q0 -16 -6 -29.5t-17 -24.5q-11 -12 -24.5 -17.5t-28.5 -5.5v2v0zM251 533q1 -1 2 -1
h2q7 0 13.5 3t12.5 9t9.5 14t3.5 17q0 8 -3.5 15.5t-9.5 14.5q-7 6 -14.5 9.5t-15.5 3.5q-9 0 -17 -3.5t-14 -9.5q-7 -7 -10 -14.5t-3 -15.5q0 -9 3 -17t10 -14q6 -7 14 -10t17 -3v2v0z" />
    <glyph glyph-name="bullet" horiz-adv-x="600" 
d="M198 286q0 19 7 35.5t21 30.5t31 21t37 7t37.5 -7t31.5 -21t21.5 -31t7.5 -37t-7.5 -37t-21.5 -31t-31.5 -21t-37.5 -7t-37 7t-31 21t-21 31t-7 37v2v0z" />
    <glyph glyph-name="endash" 
 />
  </font>
</defs>
</svg>
