<?xml version="1.0" standalone="no"?>
<!DOCTYPE svg PUBLIC "-//W3C//DTD SVG 1.1//EN" "http://www.w3.org/Graphics/SVG/1.1/DTD/svg11.dtd" >
<svg xmlns="http://www.w3.org/2000/svg" xmlns:xlink="http://www.w3.org/1999/xlink" version="1.1">
<metadata>
Created by FontForge 20150102 at Wed Feb  4 21:15:35 2015
 By uniteet7
 The digitally encoded machine readable software for producing the  Typefaces licensed to you is copyrighted (c) 1989, 1990 Adobe Systems.  All Rights Reserved. This software is the property of Adobe Systems  Incorporated and its licensors, and may not be reproduced, used,   displayed, modified, disclosed or transferred without the express   written approval of Adobe.    The digitally encoded machine readable outline data for producing  the Typefaces licensed to you is copyrighted (c) 1981 Linotype AG  and/or its subsidiaries. All Rights Reserved.  This data is the property of Linotype AG and/or its subsidiaries  and may not be reproduced, used, displayed, modified, disclosed or   transferred without the express written approval of Linotype AG   and/or its subsidiaries. 
</metadata>
<defs>
<font id="EurostileBoldCondensed" horiz-adv-x="464" >
  <font-face 
    font-family="EurostileBoldCondensed"
    font-weight="700"
    font-stretch="condensed"
    units-per-em="1000"
    panose-1="0 0 0 0 0 0 0 0 0 0"
    ascent="750"
    descent="-250"
    x-height="510"
    cap-height="724"
    bbox="-166 -228 1000 964"
    underline-thickness="50"
    underline-position="-50"
    unicode-range="U+000D-FB02"
  />
<missing-glyph horiz-adv-x="250" 
 />
    <glyph glyph-name=".notdef" horiz-adv-x="250" 
 />
    <glyph glyph-name=".null" horiz-adv-x="0" 
 />
    <glyph glyph-name=".null" horiz-adv-x="0" 
 />
    <glyph glyph-name="nonmarkingreturn" unicode="&#xd;" horiz-adv-x="250" 
 />
    <glyph glyph-name="space" unicode=" " horiz-adv-x="250" 
 />
    <glyph glyph-name="exclam" unicode="!" horiz-adv-x="278" 
d="M65 724h148v-502h-148v502zM65 154h148v-154h-148v154z" />
    <glyph glyph-name="quotedbl" unicode="&#x22;" horiz-adv-x="407" 
d="M226 724h112v-312h-112v312zM69 724h112v-312h-112v312z" />
    <glyph glyph-name="numbersign" unicode="#" horiz-adv-x="500" 
d="M308 429h-99l-17 -134h99zM4 295h94l17 134h-82v88h94l28 207h94l-28 -207h99l28 207h94l-28 -207h82v-88h-94l-17 -134h81v-88h-93l-28 -207h-94l28 207h-99l-28 -207h-94l28 207h-82v88z" />
    <glyph glyph-name="dollar" unicode="$" horiz-adv-x="500" 
d="M223 614q-16 -1 -25 -3.5t-13.5 -10t-5.5 -21t-1 -35.5q0 -21 1 -36t5.5 -25.5t13.5 -18t25 -13.5v163zM280 111q17 1 26 4.5t13.5 11.5t5.5 21t1 34v27q0 19 -1 32t-5.5 22.5t-13.5 17t-26 14.5v-184zM32 229h136v-60q0 -34 7 -45.5t39 -13.5v206l-6 2q-50 14 -83 27
t-53 33.5t-28 53.5t-8 88q0 63 7.5 103t28 64t57 34t94.5 11v81h66v-81q51 -1 85 -7.5t54 -22t28 -40.5t8 -64v-83h-130v65q0 20 -6.5 26.5t-38.5 7.5v-183h1q1 -1 2 -1q64 -17 99.5 -34.5t52.5 -42.5t20.5 -62.5t3.5 -95.5q0 -59 -10.5 -97.5t-33 -61.5t-58.5 -32.5
t-86 -11.5v-94h-66v94q-40 1 -73.5 7t-57.5 24.5t-37.5 53t-13.5 91.5v61z" />
    <glyph glyph-name="percent" unicode="%" horiz-adv-x="870" 
d="M29 589q0 78 35 110.5t121 32.5t121 -32.5t35 -110.5v-175q0 -78 -35 -110.5t-121 -32.5t-121 32.5t-35 110.5v175zM141 411q0 -18 9 -26t35 -8t35 8t9 26v175q0 18 -9 26t-35 8t-35 -8t-9 -26v-175zM529 310q0 78 35 110.5t121 32.5t121 -32.5t35 -110.5v-175
q0 -78 -35 -110.5t-121 -32.5t-121 32.5t-35 110.5v175zM641 132q0 -18 9 -26t35 -8t35 8t9 26v175q0 18 -9 26t-35 8t-35 -8t-9 -26v-175zM581 731h103l-396 -739h-103z" />
    <glyph glyph-name="ampersand" unicode="&#x26;" horiz-adv-x="556" 
d="M185 170q0 -19 2 -31t9.5 -18.5t21 -8.5t36.5 -2t37 2t21 6.5t9 12t2 18.5t-3 15l-97 137q-1 3 -10 3q-3 0 -7.5 -1.5t-9 -6.5t-8 -14.5t-3.5 -24.5v-87zM37 280q0 50 24.5 87.5t85.5 44.5q-21 27 -35 49t-23 41.5t-13 38.5t-4 41q0 43 8 71.5t28.5 46t56.5 25t93 7.5
t93 -7.5t56.5 -25t28.5 -46t8 -71.5v-52h-142v42q0 26 -10 34t-36 8q-22 0 -29 -9t-7 -28q0 -11 3 -20.5t6 -14.5l111 -165h2v69h130v-251l86 -123l-110 -80q-17 14 -28 38q-12 -10 -23 -17.5t-26 -12t-35.5 -6.5t-50.5 -2h-73q-97 0 -136 36t-39 109v143z" />
    <glyph glyph-name="quotesingle" unicode="'" horiz-adv-x="222" 
d="M55 724h112v-312h-112v312z" />
    <glyph glyph-name="parenleft" unicode="(" horiz-adv-x="333" 
d="M57 538q0 104 41.5 149t132.5 45h45v-118q-32 0 -48.5 -24.5t-16.5 -62.5v-330q0 -38 14.5 -60t50.5 -27v-118h-45q-91 0 -132.5 45t-41.5 149v352z" />
    <glyph glyph-name="parenright" unicode=")" horiz-adv-x="333" 
d="M57 110q32 0 48.5 24.5t16.5 62.5v330q0 38 -14.5 60t-50.5 27v118h45q91 0 132.5 -45t41.5 -149v-352q0 -104 -41.5 -149t-132.5 -45h-45v118z" />
    <glyph glyph-name="asterisk" unicode="*" 
d="M170 458l62 -48l62 48v84l-62 48l-62 -48v-84zM164 458l-142 -14v108l142 -10l-82 143l103 47l46 -136h2l46 136l103 -47l-82 -143l142 10v-108l-142 14l82 -147l-102 -47l-47 140h-2l-47 -140l-102 47z" />
    <glyph glyph-name="plus" unicode="+" horiz-adv-x="600" 
d="M47 309h197v197h112v-197h197v-112h-197v-197h-112v197h-197v112z" />
    <glyph glyph-name="comma" unicode="," horiz-adv-x="250" 
d="M56 -82q31 5 45 18.5t14 44.5q0 5 -0.5 9.5t-0.5 9.5h-63v154h148v-172q0 -39 -12 -66t-32 -43.5t-45.5 -23.5t-53.5 -7v76z" />
    <glyph glyph-name="hyphen" unicode="-" horiz-adv-x="333" 
d="M36 330h261v-130h-261v130z" />
    <glyph glyph-name="period" unicode="." horiz-adv-x="250" 
d="M51 154h148v-154h-148v154z" />
    <glyph glyph-name="slash" unicode="/" horiz-adv-x="296" 
d="M217 732h119l-257 -740h-119z" />
    <glyph glyph-name="zero" unicode="0" horiz-adv-x="500" 
d="M208 143q0 -19 9.5 -26t32.5 -7t32.5 7t9.5 26v444q0 15 -9.5 21t-32.5 6t-32.5 -7t-9.5 -26v-438zM42 544q-1 58 11.5 94.5t38.5 57.5t65.5 28.5t92.5 7.5q56 0 95.5 -7.5t64.5 -28t36.5 -57t11.5 -95.5v-385q0 -51 -11.5 -83.5t-36.5 -51t-64.5 -25.5t-95.5 -7t-95.5 7
t-64.5 25.5t-36.5 51t-11.5 83.5v385z" />
    <glyph glyph-name="one" unicode="1" horiz-adv-x="500" 
d="M169 724h210v-724h-166v600h-2l-107 -163l-89 87z" />
    <glyph glyph-name="two" unicode="2" horiz-adv-x="500" 
d="M56 573q0 51 12.5 82t37.5 48t61 23t83 6q71 0 110 -11t57 -38t21.5 -71.5t3.5 -111.5q0 -61 -3 -97.5t-16.5 -60t-41.5 -40t-77 -39.5q-28 -13 -47.5 -24.5t-31.5 -24t-17 -29t-5 -39.5v-22h235v-124h-389v150q0 38 7 68t25 55t49 47t78 43q24 11 37.5 19t20.5 18.5
t8.5 26t1.5 40.5v78q0 23 -2 37t-5.5 21t-9.5 9t-15 2q-34 0 -34 -31v-126h-154v116z" />
    <glyph glyph-name="three" unicode="3" horiz-adv-x="500" 
d="M37 592q0 75 47 107.5t152 32.5q62 0 100.5 -9t60.5 -29t29.5 -51.5t7.5 -76.5q0 -54 -3.5 -87t-14 -52.5t-29 -29t-49.5 -14.5v-2q36 -5 56.5 -17.5t31 -34.5t13.5 -55t3 -80q0 -56 -8 -94.5t-30.5 -62.5t-63.5 -34.5t-108 -10.5q-64 0 -102.5 9t-59 27.5t-27 46
t-6.5 64.5v102h154v-82q0 -25 7 -37t37 -12q16 0 25.5 4t14 15t6 31t1.5 51q0 37 -2 58t-8.5 31t-19.5 12t-35 2h-71v118h45q29 0 45.5 3t24.5 15t10.5 36t2.5 66q0 21 -1.5 33.5t-6 18.5t-12.5 8t-20 2q-24 0 -33.5 -6.5t-9.5 -28.5v-66h-154v79z" />
    <glyph glyph-name="four" unicode="4" horiz-adv-x="500" 
d="M19 322l157 402h247v-451h45v-124h-45v-149h-154v149h-250v173zM269 636h-2l-118 -363h120v363z" />
    <glyph glyph-name="five" unicode="5" horiz-adv-x="500" 
d="M51 220h154v-81q0 -18 11.5 -23.5t28.5 -5.5q16 0 27 5.5t11 23.5v223q0 17 -9 23.5t-32 6.5q-24 0 -33.5 -6.5t-9.5 -23.5v-30h-136v392h355v-124h-207v-138h2q13 26 40.5 37t58.5 11q27 0 51.5 -4.5t43.5 -18.5t30.5 -41.5t11.5 -74.5v-221q0 -53 -16 -84.5t-43.5 -48
t-64 -21t-77.5 -4.5q-49 0 -86 5.5t-62 22.5t-37 48.5t-12 82.5v69z" />
    <glyph glyph-name="six" unicode="6" horiz-adv-x="500" 
d="M210 150q0 -22 8 -31t34 -9q27 0 35.5 9t8.5 31v155q0 22 -8.5 31t-35.5 9q-26 0 -34 -9t-8 -31v-155zM44 583q0 42 10.5 71t34 46t61.5 24.5t93 7.5q60 0 98.5 -6.5t60.5 -20.5t30.5 -35.5t8.5 -52.5v-86h-148v47q0 20 -9 28t-33 8q-23 0 -32 -8t-9 -28v-169h2
q23 29 44.5 38.5t57.5 9.5q31 0 57.5 -5t45 -18.5t29 -38t10.5 -64.5v-182q0 -48 -10 -78.5t-33.5 -48t-63 -24t-99.5 -6.5q-68 0 -108.5 8.5t-62.5 26.5t-28.5 46t-6.5 67v443z" />
    <glyph glyph-name="seven" unicode="7" horiz-adv-x="500" 
d="M51 724h368v-123l-155 -601h-168l159 600h-204v124z" />
    <glyph glyph-name="eight" unicode="8" horiz-adv-x="500" 
d="M204 145q0 -18 10 -26.5t36 -8.5t36 8.5t10 26.5v134q0 18 -10 26.5t-36 8.5t-36 -8.5t-10 -26.5v-134zM204 456q0 -20 10 -28t36 -8t36 8t10 28v122q0 20 -10 28t-36 8t-36 -8t-10 -28v-122zM32 195q0 34 2.5 63.5t13.5 52.5t32.5 39.5t58.5 24.5l-1 -1v2
q-29 8 -47 19.5t-28.5 29.5t-14.5 44t-4 64q0 50 6 87.5t27 62.5t62 37t111 12t111 -12t62 -37t27 -62.5t6 -87.5q0 -38 -4 -64.5t-14.5 -44.5t-28.5 -29.5t-47 -19.5l-1 1v-2q38 -8 59 -24t32 -39t13.5 -52.5t2.5 -63.5q0 -58 -13 -97.5t-40 -62.5t-68 -33t-97 -10t-97 10
t-68 33t-40 62.5t-13 97.5z" />
    <glyph glyph-name="nine" unicode="9" horiz-adv-x="500" 
d="M203 442q0 -22 9 -31t38 -9q23 0 35 8.5t12 29.5v140q0 20 -9.5 27t-37.5 7t-37.5 -7t-9.5 -27v-138zM43 218h160v-72q0 -20 7 -28t37 -8q23 0 35.5 7.5t12.5 33.5v191h-4q-16 -28 -37 -40t-66 -12q-52 0 -82.5 10t-45.5 32.5t-19 58t-4 87.5q0 82 5.5 132t27 77t64.5 36
t118 9q60 0 100 -6t65 -23t35.5 -47.5t10.5 -78.5v-341q0 -85 -11.5 -133.5t-38.5 -73t-72.5 -31t-114.5 -6.5q-63 0 -99.5 7.5t-55 23.5t-23.5 41.5t-5 60.5v93z" />
    <glyph glyph-name="colon" unicode=":" horiz-adv-x="250" 
d="M51 154h148v-154h-148v154zM51 510h148v-154h-148v154z" />
    <glyph glyph-name="semicolon" unicode=";" horiz-adv-x="250" 
d="M56 -82q31 5 45 18.5t14 44.5q0 5 -0.5 9.5t-0.5 9.5h-63v154h148v-172q0 -39 -12 -66t-32 -43.5t-45.5 -23.5t-53.5 -7v76zM51 510h148v-154h-148v154z" />
    <glyph glyph-name="less" unicode="&#x3c;" horiz-adv-x="600" 
d="M47 298l506 216v-108l-362 -153l362 -153v-108l-506 216v90z" />
    <glyph glyph-name="equal" unicode="=" horiz-adv-x="600" 
d="M47 421h506v-112h-506v112zM47 197h506v-112h-506v112z" />
    <glyph glyph-name="greater" unicode="&#x3e;" horiz-adv-x="600" 
d="M47 100l362 153l-362 153v108l506 -216v-90l-506 -216v108z" />
    <glyph glyph-name="question" unicode="?" horiz-adv-x="426" 
d="M7 565q0 52 9.5 84.5t31.5 51t56.5 25t83.5 6.5q70 0 113 -7t66.5 -29t31.5 -63t8 -108q0 -47 -3.5 -76t-12.5 -47.5t-23.5 -30.5t-36.5 -25t-34 -21.5t-18 -16t-7.5 -15.5t-1.5 -20v-52h-154v80q0 24 3 40t12 29t24 25t39 27q18 12 29 21t16 21t6.5 30t1.5 48
q0 24 -1.5 38.5t-6 22t-13 9.5t-22.5 2q-25 0 -34 -8.5t-9 -26.5v-75h-154v61zM116 154h154v-154h-154v154z" />
    <glyph glyph-name="at" unicode="@" horiz-adv-x="800" 
d="M306 330q0 -35 17.5 -56.5t55.5 -23.5q25 0 45.5 10t35 26t22.5 36.5t8 41.5q0 38 -22 61t-57 23q-23 0 -42.5 -10.5t-33.5 -27t-21.5 -38t-7.5 -42.5zM532 543h92l-51 -243q-4 -19 -5.5 -28.5t-1.5 -16.5q0 -14 13 -14q17 0 35 10.5t33 30.5t25 49.5t10 67.5
q0 60 -20.5 105.5t-57 76.5t-85.5 47t-106 16q-63 0 -114 -21.5t-87.5 -59.5t-56 -89.5t-19.5 -111.5q0 -64 22 -116.5t61 -89t93.5 -56.5t119.5 -20q59 0 110 18.5t90 50.5l93 -4q-54 -74 -131 -113.5t-172 -39.5q-79 -1 -150.5 24t-125 73t-85 117t-31.5 156
q0 79 30.5 146.5t83 117t123 78t150.5 28.5q68 0 131.5 -21.5t112.5 -60.5t79 -95t30 -125q0 -82 -31.5 -137t-74 -88t-85.5 -47t-66 -14t-39 13t-17 39h-2q-17 -24 -40.5 -38t-60.5 -14q-33 0 -63 14t-53 38t-36.5 56t-13.5 67q0 45 15 87.5t42.5 75t66 52.5t86.5 20
q38 0 69 -14t53 -45z" />
    <glyph glyph-name="A" unicode="A" horiz-adv-x="520" 
d="M261 624h-2l-39 -326h80zM125 724h270l109 -724h-169l-21 174h-108l-21 -174h-169z" />
    <glyph glyph-name="B" unicode="B" horiz-adv-x="538" 
d="M221 429h40q36 0 45 14t9 50v44q0 35 -9 49t-45 14h-42l2 1v-172zM55 724h245q54 0 89 -7t55.5 -26t28.5 -53.5t8 -88.5q0 -36 -2.5 -64.5t-13.5 -50.5t-32.5 -36.5t-59.5 -20.5v-2q39 -3 62.5 -17.5t36 -37t17 -52t4.5 -62.5q0 -57 -7.5 -96.5t-26.5 -63.5t-51 -35
t-81 -11h-272v724zM221 124h49q31 0 41 12.5t10 54.5v54q0 41 -11 53.5t-40 12.5h-49v-187z" />
    <glyph glyph-name="C" unicode="C" horiz-adv-x="500" 
d="M45 556q0 87 37.5 131.5t129.5 44.5h62q54 0 90.5 -7.5t58.5 -23t31 -38.5t9 -55v-132h-160v95q0 31 -42 31q-44 0 -44 -31v-418q0 -31 43 -31t43 31v114h160v-107q0 -48 -10 -80t-32 -51.5t-58 -28t-89 -8.5h-62q-92 0 -129.5 42.5t-37.5 112.5v409z" />
    <glyph glyph-name="D" unicode="D" horiz-adv-x="520" 
d="M221 130h44q27 0 35.5 14.5t8.5 55.5v330q0 41 -8.5 55.5t-35.5 14.5h-44v-470zM55 724h216q58 0 97 -9t63 -37.5t34 -82.5t10 -143v-181q0 -89 -10 -142.5t-34 -82t-63 -37.5t-97 -9h-216v724z" />
    <glyph glyph-name="E" unicode="E" horiz-adv-x="426" 
d="M55 724h319v-130h-153v-159h142v-124h-142v-181h165v-130h-331v724z" />
    <glyph glyph-name="F" unicode="F" horiz-adv-x="389" 
d="M55 724h313v-130h-147v-179h134v-130h-134v-285h-166v724z" />
    <glyph glyph-name="G" unicode="G" horiz-adv-x="520" 
d="M45 583q0 44 14 73t41.5 46t67.5 23.5t92 6.5q49 0 89 -6t68 -24t43 -51.5t15 -89.5v-71h-160v76q0 25 -11 33.5t-43 8.5q-24 0 -34 -9t-10 -36v-420q0 -14 10 -20.5t35 -6.5q31 0 42 6.5t11 17.5v114h-51v136h211v-233q0 -52 -11 -84.5t-36.5 -50.5t-66.5 -24t-101 -6
q-52 0 -92 6.5t-67.5 23.5t-41.5 46t-14 73v442z" />
    <glyph glyph-name="H" unicode="H" horiz-adv-x="538" 
d="M55 724h166v-283h96v283h166v-724h-166v311h-96v-311h-166v724z" />
    <glyph glyph-name="I" unicode="I" horiz-adv-x="296" 
d="M65 724h166v-724h-166v724z" />
    <glyph glyph-name="J" unicode="J" horiz-adv-x="426" 
d="M15 261h148v-111q0 -14 4.5 -21t21.5 -7t21.5 7t4.5 21v574h166v-578q0 -44 -10.5 -73.5t-34 -47.5t-61.5 -25.5t-92 -7.5q-53 0 -86 9t-51 25.5t-24.5 41t-6.5 54.5v139z" />
    <glyph glyph-name="K" unicode="K" horiz-adv-x="520" 
d="M55 724h166v-305l-1 -2h2l106 307h178l-141 -344l159 -380h-178l-124 323h-2l1 -2v-321h-166v724z" />
    <glyph glyph-name="L" unicode="L" horiz-adv-x="407" 
d="M55 724h166v-594h161v-130h-327v724z" />
    <glyph glyph-name="M" unicode="M" horiz-adv-x="796" 
d="M205 612h-2v-612h-148v724h261l81 -570h2l81 570h261v-724h-151l6 610h-2l-107 -610h-190z" />
    <glyph glyph-name="N" unicode="N" horiz-adv-x="630" 
d="M206 564h-2l10 -564h-153v724h242l122 -564l2 2l-12 562h154v-724h-242z" />
    <glyph glyph-name="O" unicode="O" horiz-adv-x="520" 
d="M303 574q0 20 -10 27t-33 7t-33 -7t-10 -27v-424q0 -20 10 -27t33 -7t33 7t10 27v424zM45 583q0 44 14 73t41.5 46t67.5 23.5t92 6.5t92 -6.5t67.5 -23.5t41.5 -46t14 -73v-442q0 -44 -14 -73t-41.5 -46t-67.5 -23.5t-92 -6.5t-92 6.5t-67.5 23.5t-41.5 46t-14 73v442z
" />
    <glyph glyph-name="P" unicode="P" horiz-adv-x="500" 
d="M55 724h239q90 0 137.5 -38.5t47.5 -137.5v-126q0 -65 -10.5 -107t-34.5 -66t-62.5 -33.5t-94.5 -9.5h-56v-206h-166v724zM270 336q18 0 27.5 11.5t9.5 41.5v174q0 18 -8 24.5t-30 6.5h-48v-258h49z" />
    <glyph glyph-name="Q" unicode="Q" horiz-adv-x="520" 
d="M217 150q0 -20 10 -27t33 -7t33 7t10 27v6l-71 102l51 67l18 -28h2v277q0 20 -10 27t-33 7t-33 -7t-10 -27v-424zM45 583q0 44 14 73t41.5 46t67.5 23.5t92 6.5t92 -6.5t67.5 -23.5t41.5 -46t14 -73v-442q0 -39 -12 -68l36 -50l-56 -68l-41 59q-25 -12 -61 -17t-81 -5
q-52 0 -92 6.5t-67.5 23.5t-41.5 46t-14 73v442z" />
    <glyph glyph-name="R" unicode="R" horiz-adv-x="538" 
d="M221 374h32q44 0 56.5 14t12.5 49v109q0 28 -12 41t-39 13h-50v-226zM55 724h205q67 0 111 -8t70 -27.5t36.5 -53t10.5 -84.5v-87q0 -41 -8 -67.5t-22.5 -42.5t-35.5 -24t-47 -13v-2q28 -6 49 -12.5t35.5 -19t21.5 -33t7 -53.5v-197h-166v207q0 23 -15.5 33t-57.5 10h-28
v-250h-166v724z" />
    <glyph glyph-name="S" unicode="S" horiz-adv-x="500" 
d="M195 186q0 -19 1 -32t5.5 -21.5t14.5 -12.5t28 -4q28 0 38.5 10t10.5 33v78q0 19 -3 30t-13.5 18t-29.5 12.5t-52 13.5q-48 12 -78.5 25t-47 34t-22.5 52.5t-6 79.5v44q0 63 10.5 100t35 56t65 24.5t99.5 5.5q54 0 91 -8t59.5 -25t32 -43.5t9.5 -64.5v-87h-148v35
q0 24 -1.5 38t-6.5 20.5t-14 8.5t-25 2q-33 0 -40 -13t-7 -39v-48q0 -17 2.5 -28t9.5 -18t19 -11t30 -9q66 -17 105.5 -31.5t59.5 -38.5t26 -64.5t6 -110.5q0 -65 -12 -105.5t-37.5 -62.5t-64 -29.5t-91.5 -7.5q-67 0 -109 9t-65 30t-31 57t-8 90v60h154v-52z" />
    <glyph glyph-name="T" unicode="T" horiz-adv-x="426" 
d="M130 594h-116v130h398v-130h-116v-594h-166v594z" />
    <glyph glyph-name="U" unicode="U" horiz-adv-x="520" 
d="M470 173q0 -60 -14 -96t-41 -55t-66 -24.5t-89 -5.5t-89 5.5t-66 24.5t-41 55t-14 96v551h166v-556q0 -21 9.5 -33.5t34.5 -12.5t34.5 12.5t9.5 33.5v556h166v-551z" />
    <glyph glyph-name="V" unicode="V" horiz-adv-x="500" 
d="M13 724h170l66 -636h2l66 636h170l-96 -724h-282z" />
    <glyph glyph-name="W" unicode="W" horiz-adv-x="796" 
d="M13 724h160l45 -618h2l66 618h224l66 -618h2l45 618h160l-81 -724h-234l-69 600h-2l-69 -600h-234z" />
    <glyph glyph-name="X" unicode="X" horiz-adv-x="500" 
d="M111 380l-82 344h163l57 -303h2l57 303h163l-82 -344l90 -380h-169l-59 323h-2l-59 -323h-169z" />
    <glyph glyph-name="Y" unicode="Y" 
d="M152 234l-152 490h164l67 -326h2l67 326h164l-152 -490v-234h-160v234z" />
    <glyph glyph-name="Z" unicode="Z" horiz-adv-x="426" 
d="M44 724h345v-126l-185 -468h185v-130h-364v124l186 470h-167v130z" />
    <glyph glyph-name="bracketleft" unicode="[" horiz-adv-x="333" 
d="M57 724h219v-118h-65v-488h65v-118h-219v724z" />
    <glyph glyph-name="backslash" unicode="\" horiz-adv-x="296" 
d="M-40 732h119l257 -740h-119z" />
    <glyph glyph-name="bracketright" unicode="]" horiz-adv-x="333" 
d="M122 606h-65v118h219v-724h-219v118h65v488z" />
    <glyph glyph-name="asciicircum" unicode="^" horiz-adv-x="600" 
d="M250 724h100l180 -375h-110l-120 263l-120 -263h-110z" />
    <glyph glyph-name="underscore" unicode="_" horiz-adv-x="500" 
d="M0 -75h500v-50h-500v50z" />
    <glyph glyph-name="grave" unicode="`" horiz-adv-x="242" 
d="M-44 724h155l92 -148h-99z" />
    <glyph glyph-name="a" unicode="a" horiz-adv-x="444" 
d="M45 428q0 28 9.5 45.5t29.5 27.5t51 13.5t73 3.5q50 0 85.5 -5t58.5 -20t34 -43.5t11 -75.5v-374h-142v43h-2q-12 -16 -22.5 -26t-22 -15.5t-26.5 -7.5t-36 -2q-38 0 -62 11t-37.5 32t-18.5 52t-5 70q0 47 8.5 77t25 47.5t40.5 24.5t54 7q27 0 52 -8t46 -25v113
q0 25 -38 25q-17 0 -26.5 -6t-9.5 -20v-28h-130v64zM177 147q1 -25 8.5 -34t27.5 -9q23 0 29.5 11t6.5 26v41q0 20 -7 28.5t-29 8.5q-18 0 -27 -8.5t-9 -34.5v-29z" />
    <glyph glyph-name="b" unicode="b" 
d="M195 138q0 -28 34 -28t34 28v234q0 28 -34 28t-34 -28v-234zM47 724h148v-259h2q18 26 43.5 39.5t65.5 13.5q24 0 44 -5t35 -17t23.5 -31.5t8.5 -49.5v-284q0 -39 -6 -65.5t-20 -43t-37 -23.5t-58 -7q-19 0 -34 2t-27.5 8.5t-23 18.5t-21.5 32h-2v-53h-141v724z" />
    <glyph glyph-name="c" unicode="c" horiz-adv-x="444" 
d="M37 356q0 51 12.5 83t38 49.5t63.5 23.5t88 6q26 0 54.5 -4t52.5 -14.5t39.5 -29.5t15.5 -50v-87h-130v26q0 26 -9 36.5t-31 10.5t-31 -10.5t-9 -36.5v-208q0 -26 9 -36.5t31 -10.5t31 10.5t9 36.5v48h136v-45q0 -42 -5 -72.5t-22.5 -50.5t-52 -29.5t-94.5 -9.5
q-48 0 -84.5 6t-61.5 23.5t-37.5 49.5t-12.5 83v202z" />
    <glyph glyph-name="d" unicode="d" 
d="M47 415q0 30 8.5 49.5t23.5 31.5t35 17t44 5q40 0 65.5 -13.5t43.5 -39.5h2v259h148v-724h-141v53h-2q-11 -20 -21.5 -32t-23.5 -18.5t-28 -8.5t-35 -2q-34 0 -56.5 7t-36.5 23.5t-20 43t-6 65.5v284zM201 138q0 -28 34 -28t34 28v234q0 28 -34 28t-34 -28v-234z" />
    <glyph glyph-name="e" unicode="e" 
d="M37 356q0 51 12.5 83t37.5 49.5t61 23.5t84 6q61 0 99 -11t59.5 -29.5t29 -44.5t7.5 -56v-158h-236v-86q0 -20 7.5 -27.5t36.5 -7.5q22 0 32 6.5t10 29.5v24h150v-29q0 -40 -9.5 -66.5t-32 -42t-60 -22t-93.5 -6.5q-48 0 -84 6t-61 23.5t-37.5 49.5t-12.5 83v202z
M191 313h82v75q0 16 -7.5 23t-33.5 7t-33.5 -7t-7.5 -23v-75z" />
    <glyph glyph-name="f" unicode="f" horiz-adv-x="278" 
d="M10 510h42v102q0 28 11 50t30.5 37.5t45 24t54.5 8.5q20 0 40 -0.5t40 -3.5v-104q-4 1 -7 1.5t-7 0.5h-7q-24 0 -38 -9t-14 -30v-77h71v-112h-71v-398h-148v398h-42v112z" />
    <glyph glyph-name="g" unicode="g" 
d="M195 132q0 -17 8.5 -23.5t28.5 -6.5t28.5 6.5t8.5 23.5v244q0 17 -8.5 23.5t-28.5 6.5t-28.5 -6.5t-8.5 -23.5v-244zM47 384q0 66 28 100t80 34q44 0 71.5 -11.5t51.5 -43.5h2v47h137v-555q0 -44 -12.5 -71.5t-37 -43.5t-62 -22t-88.5 -6q-44 0 -73.5 8t-47.5 23
t-25.5 36t-7.5 46v27h130v-11q0 -23 38 -23q20 0 29 7t9 27v91h-2q-35 -47 -101 -47q-35 0 -58 10t-36.5 27t-19 40t-5.5 48v263z" />
    <glyph glyph-name="h" unicode="h" 
d="M47 724h148v-270h2q16 34 42 49t62 15q24 0 45.5 -6t37 -19.5t24.5 -36t9 -55.5v-401h-148v365q0 17 -8.5 26t-29.5 9q-20 0 -28 -9t-8 -26v-365h-148v724z" />
    <glyph glyph-name="i" unicode="i" horiz-adv-x="242" 
d="M47 510h148v-510h-148v510zM47 724h148v-118h-148v118z" />
    <glyph glyph-name="j" unicode="j" horiz-adv-x="242" 
d="M3 -70q23 0 33.5 12t10.5 49v519h148v-573q0 -64 -30.5 -94.5t-97.5 -30.5q-14 0 -30.5 1.5t-33.5 3.5v113zM47 724h148v-118h-148v118z" />
    <glyph glyph-name="k" unicode="k" horiz-adv-x="426" 
d="M47 724h148v-401h2l67 187h146l-76 -224l100 -286h-158l-79 252h-2v-252h-148v724z" />
    <glyph glyph-name="l" unicode="l" horiz-adv-x="242" 
d="M47 724h148v-724h-148v724z" />
    <glyph glyph-name="m" unicode="m" horiz-adv-x="686" 
d="M47 510h148v-56h2q16 34 42.5 49t67.5 15q32 1 63 -12t49 -52q16 34 42.5 49t66.5 15q23 0 43 -6t35 -19.5t24 -36t9 -55.5v-401h-148v365q0 17 -8.5 26t-29.5 9q-20 0 -28 -9t-8 -26v-365h-148v365q0 17 -8.5 26t-29.5 9q-20 0 -28 -9t-8 -26v-365h-148v510z" />
    <glyph glyph-name="n" unicode="n" 
d="M47 510h148v-56h2q16 34 42 49t62 15q24 0 45.5 -6t37 -19.5t24.5 -36t9 -55.5v-401h-148v365q0 17 -8.5 26t-29.5 9q-20 0 -28 -9t-8 -26v-365h-148v510z" />
    <glyph glyph-name="o" unicode="o" 
d="M37 356q0 51 12.5 83t37.5 49.5t61 23.5t84 6t84 -6t61 -23.5t37.5 -49.5t12.5 -83v-202q0 -51 -12.5 -83t-37.5 -49.5t-61 -23.5t-84 -6t-84 6t-61 23.5t-37.5 49.5t-12.5 83v202zM191 141q0 -23 9.5 -30t31.5 -7t31.5 7t9.5 30v228q0 23 -9.5 30t-31.5 7t-31.5 -7
t-9.5 -30v-228z" />
    <glyph glyph-name="p" unicode="p" 
d="M195 138q0 -28 34 -28t34 28v234q0 28 -34 28t-34 -28v-234zM47 510h142v-53h2q11 20 21.5 32t23 18.5t27.5 8.5t35 2q34 0 56.5 -7t36.5 -23.5t20 -43t6 -65.5v-284q0 -30 -8.5 -49.5t-23.5 -31.5t-35 -17t-44 -5q-40 0 -65.5 13.5t-43.5 39.5h-2v-233h-148v698z" />
    <glyph glyph-name="q" unicode="q" 
d="M201 138q0 -28 34 -28t34 28v234q0 28 -34 28t-34 -28v-234zM47 379q0 39 6 65.5t20 43t36.5 23.5t56.5 7q20 0 35 -2t28 -8.5t23.5 -18.5t21.5 -32h2v53h141v-698h-148v233h-2q-18 -26 -43.5 -39.5t-65.5 -13.5q-24 0 -44 5t-35 17t-23.5 31.5t-8.5 49.5v284z" />
    <glyph glyph-name="r" unicode="r" horiz-adv-x="389" 
d="M47 510h142v-51h2q15 35 36.5 47t64.5 12q40 0 63 -14.5t24 -61.5v-138h-124v76q0 12 -9 16t-21 4q-13 0 -21.5 -5.5t-8.5 -21.5v-373h-148v510z" />
    <glyph glyph-name="s" unicode="s" horiz-adv-x="427" 
d="M38 158h136v-14q0 -29 7.5 -37.5t27.5 -8.5t28.5 8.5t6.5 37.5q-1 16 -3.5 25.5t-10.5 14.5t-23.5 8.5t-42.5 7.5q-39 6 -64 15.5t-39.5 27t-20 43t-5.5 62.5q0 56 8 89t28 50.5t53.5 23.5t84.5 7q48 1 81 -4.5t53 -17.5t28.5 -32t8.5 -47v-59h-130v24q0 36 -33 36
q-21 0 -27.5 -10t-6.5 -36q0 -13 2 -21t8.5 -13.5t20 -9.5t36.5 -7q44 -7 71.5 -15t43 -23.5t21 -41t6.5 -67.5q1 -60 -9.5 -95.5t-32 -55t-55 -25.5t-78.5 -6q-49 0 -83.5 5t-55.5 18.5t-30.5 37t-9.5 60.5v45z" />
    <glyph glyph-name="t" unicode="t" horiz-adv-x="315" 
d="M23 510h42v133h148v-133h86v-112h-86v-255q0 -20 7 -29.5t31 -9.5q10 0 19.5 1t18.5 2v-111q-21 -1 -46 -2.5t-48 -1.5q-68 0 -99 26.5t-31 85.5v294h-42v112z" />
    <glyph glyph-name="u" unicode="u" 
d="M47 510h148v-365q0 -17 8.5 -26t29.5 -9q20 0 28 9t8 26v365h148v-510h-148v56h-2q-16 -34 -42 -49t-62 -15q-24 0 -45.5 6t-37 19.5t-24.5 36t-9 55.5v401z" />
    <glyph glyph-name="v" unicode="v" horiz-adv-x="408" 
d="M10 510h148l45 -422h2l45 422h148l-75 -510h-238z" />
    <glyph glyph-name="w" unicode="w" horiz-adv-x="704" 
d="M14 510h139l46 -416h2l46 416h210l46 -416h2l46 416h139l-76 -510h-220l-41 404h-2l-41 -404h-220z" />
    <glyph glyph-name="x" unicode="x" horiz-adv-x="444" 
d="M96 276l-60 234h145l40 -210h2l40 210h145l-64 -234l76 -276h-149l-48 223h-2l-48 -223h-149z" />
    <glyph glyph-name="y" unicode="y" horiz-adv-x="408" 
d="M10 510h148l45 -422h2l45 422h148l-85 -570q-6 -41 -20.5 -66t-35.5 -39t-48.5 -18.5t-60.5 -4.5q-10 0 -29.5 3t-36.5 11v100q9 -2 18.5 -5t22.5 -3q10 0 22 3t22 14q8 10 9 29t5 36h-100z" />
    <glyph glyph-name="z" unicode="z" horiz-adv-x="353" 
d="M25 111l144 293h-135v106h287v-123l-138 -281h145v-106h-303v111z" />
    <glyph glyph-name="braceleft" unicode="{" horiz-adv-x="333" 
d="M-11 418q10 0 22 3.5t22.5 11t17 19t6.5 28.5v117q0 63 32.5 95t91.5 32h105v-118h-34q-41 0 -41 -50v-96q0 -28 -12 -46.5t-28.5 -29t-34 -15t-29.5 -6.5v-2q12 -2 29.5 -6.5t34 -15t28.5 -28.5t12 -47v-96q0 -50 41 -50h34v-118h-105q-59 0 -91.5 32t-32.5 95v117
q0 17 -6.5 28.5t-17 19t-22.5 11t-22 3.5v112z" />
    <glyph glyph-name="bar" unicode="|" horiz-adv-x="222" 
d="M55 732h112v-740h-112v740z" />
    <glyph glyph-name="braceright" unicode="}" horiz-adv-x="333" 
d="M344 306q-10 0 -22 -3.5t-22.5 -11t-17 -19t-6.5 -28.5v-117q0 -63 -32.5 -95t-91.5 -32h-105v118h34q41 0 41 50v96q0 29 12 47t28.5 28.5t34 15t29.5 6.5v2q-12 2 -29.5 6.5t-34 15t-28.5 29t-12 46.5v96q0 50 -41 50h-34v118h105q59 0 91.5 -32t32.5 -95v-117
q0 -17 6.5 -28.5t17 -19t22.5 -11t22 -3.5v-112z" />
    <glyph glyph-name="asciitilde" unicode="~" horiz-adv-x="600" 
d="M69 256q8 16 19.5 31.5t26.5 27.5t34.5 19.5t44.5 7.5q26 0 54 -9.5t57 -22.5q28 -12 55 -23.5t47 -11.5q30 0 50.5 22.5t37.5 48.5l36 -97q-11 -16 -23.5 -31t-27 -27t-33 -19.5t-41.5 -7.5q-28 0 -52.5 9t-49.5 23q-24 14 -52 24t-63 10q-33 0 -52.5 -22t-31.5 -48z
" />
    <glyph glyph-name="exclamdown" unicode="&#xa1;" horiz-adv-x="278" 
d="M65 322h148v-502h-148v502zM65 544h148v-154h-148v154z" />
    <glyph glyph-name="cent" unicode="&#xa2;" horiz-adv-x="500" 
d="M212 216h2l80 192q-7 2 -15.5 3t-24.5 1q-23 0 -32.5 -8.5t-9.5 -31.5v-156zM64 346q0 55 12.5 89t35.5 52.5t56.5 24.5t75.5 6q24 0 47 -1.5t43 -6.5l51 113h65l-58 -136q16 -12 24.5 -28t8.5 -39v-86h-106l-98 -230q3 -2 10 -4t20 -2q31 0 40.5 8.5t9.5 31.5v61h130
v-70q0 -31 -5 -56t-22.5 -43t-52 -28t-94.5 -10q-22 0 -41.5 1t-36.5 5l-52 -124h-66l61 145q-29 17 -43.5 52t-14.5 95v180z" />
    <glyph glyph-name="sterling" unicode="&#xa3;" horiz-adv-x="500" 
d="M35 381h66q-2 51 -5.5 98.5t-3.5 92.5q0 29 4.5 58t22.5 51.5t53 36.5t96 14q48 0 86 -6.5t63.5 -23.5t39 -46.5t13.5 -76.5v-61h-148v57q0 25 -8.5 32t-26.5 7q-20 0 -30.5 -8t-10.5 -28q-1 -31 5.5 -84t11.5 -113h121v-118h-118q0 -26 -1.5 -59t-9.5 -74h217v-130h-437
v124q23 1 37 5.5t21.5 14t10 25t2.5 37.5v28t-2 29h-69v118z" />
    <glyph glyph-name="currency" unicode="&#xa4;" horiz-adv-x="500" 
d="M114 362q0 -30 10.5 -56t28.5 -45t43 -30t54 -11t54 11t43 30t28.5 45t10.5 56t-10.5 56t-28.5 45t-43 30t-54 11t-54 -11t-43 -30t-28.5 -45t-10.5 -56zM46 222q-21 29 -32.5 65t-11.5 75q0 40 11.5 76t31.5 65l-57 57l64 64l58 -57q31 20 66.5 31.5t73.5 11.5
q40 0 76 -11.5t65 -31.5l57 57l64 -64l-58 -58q21 -31 32.5 -66.5t11.5 -73.5q0 -39 -11.5 -74.5t-32.5 -65.5l58 -58l-64 -64l-58 58q-29 -21 -65 -32.5t-75 -11.5t-74.5 11.5t-65.5 32.5l-58 -58l-64 64z" />
    <glyph glyph-name="yen" unicode="&#xa5;" horiz-adv-x="500" 
d="M173 113h-140v94h140v27l-16 53h-124v94h94l-106 343h161l67 -326h2l67 326h161l-106 -343h94v-94h-124l-16 -53v-27h140v-94h-140v-113h-154v113z" />
    <glyph glyph-name="brokenbar" unicode="&#xa6;" horiz-adv-x="222" 
d="M55 270h112v-278h-112v278zM55 732h112v-278h-112v278z" />
    <glyph glyph-name="section" unicode="&#xa7;" horiz-adv-x="538" 
d="M65 149h142v-11q0 -23 8.5 -31.5t40.5 -8.5q29 0 41 5t12 28q0 12 -4.5 20t-17.5 16t-36 16.5t-60 21.5q-29 10 -55 22.5t-45 29.5t-30 40.5t-11 54.5q0 48 19 75t56 48q-26 22 -35 54t-9 58q0 30 8.5 56.5t30 46t57 31t89.5 11.5q59 0 97 -7.5t60 -25t30.5 -46.5
t8.5 -73h-142v6q0 26 -9 33t-31 7q-24 0 -34.5 -8.5t-10.5 -31.5q0 -10 3.5 -17.5t14.5 -14.5t32.5 -14t57.5 -18q33 -10 60 -22t46 -30.5t29 -45.5t10 -66q0 -38 -17 -69.5t-52 -45.5q44 -44 44 -114q0 -35 -9 -61t-32 -43t-62 -25t-98 -8q-56 0 -93.5 7.5t-60.5 21.5
t-33 36t-10 50v42zM174 394q0 -18 20 -30t47.5 -22t57 -20.5t47.5 -25.5q8 3 13 12.5t5 20.5q0 22 -21 36.5t-49.5 25t-57 19t-43.5 18.5q-19 -12 -19 -34z" />
    <glyph glyph-name="dieresis" unicode="&#xa8;" horiz-adv-x="242" 
d="M-43 724h130v-118h-130v118zM155 724h130v-118h-130v118z" />
    <glyph glyph-name="copyright" unicode="&#xa9;" horiz-adv-x="800" 
d="M566 305q-1 -32 -13 -60.5t-34 -49.5t-53.5 -33.5t-70.5 -12.5q-36 0 -68.5 15.5t-56.5 43.5t-38.5 68t-14.5 89q0 47 13 86.5t37 68t58.5 45t77.5 16.5q69 0 114.5 -38.5t48.5 -113.5h-84q-5 35 -26.5 49.5t-53.5 14.5q-43 0 -67 -33.5t-24 -92.5q0 -65 26 -97.5
t68 -32.5q31 0 51.5 16.5t25.5 51.5h84zM30 362q0 77 29 144t79.5 117.5t118 79.5t143.5 29q77 0 144 -29t117.5 -79.5t79.5 -117.5t29 -144q0 -76 -29 -143.5t-79.5 -118t-117.5 -79.5t-144 -29q-76 0 -143.5 29t-118 79.5t-79.5 118t-29 143.5zM142 362q0 -58 18.5 -107.5
t52 -85.5t81.5 -56.5t106 -20.5q59 0 106.5 20.5t81 56.5t52 85.5t18.5 107.5q0 59 -18.5 108.5t-52 85.5t-81 56t-106.5 20q-58 0 -106 -20t-81.5 -56t-52 -85.5t-18.5 -108.5z" />
    <glyph glyph-name="ordfeminine" unicode="&#xaa;" horiz-adv-x="289" 
d="M29 678q0 34 26.5 44t89.5 10q36 0 61 -3t40.5 -12.5t23 -26.5t7.5 -45v-229h-102v26l-2 -2q-15 -19 -30 -24.5t-51 -5.5q-49 0 -64.5 27.5t-15.5 82.5q0 30 5.5 49.5t16.5 30.5t26.5 15t34.5 4q27 0 44.5 -4.5t31.5 -14.5v51q0 15 -25 15q-23 0 -23 -16v-12h-94v40z
M124 512q1 -15 5.5 -20.5t17.5 -5.5q16 0 20 7t4 16v22q0 11 -5 16.5t-19 5.5q-11 0 -17 -5t-6 -21v-15z" />
    <glyph glyph-name="guillemotleft" unicode="&#xab;" horiz-adv-x="537" 
d="M250 266l88 176h152l-87 -177l88 -177h-153zM46 265l88 177h153l-88 -177l88 -177h-153z" />
    <glyph glyph-name="logicalnot" unicode="&#xac;" horiz-adv-x="600" 
d="M47 421h506v-311h-112v199h-394v112z" />
    <glyph glyph-name="registered" unicode="&#xae;" horiz-adv-x="800" 
d="M30 362q0 77 29 144t79.5 117.5t118 79.5t143.5 29q77 0 144 -29t117.5 -79.5t79.5 -117.5t29 -144q0 -76 -29 -143.5t-79.5 -118t-117.5 -79.5t-144 -29q-76 0 -143.5 29t-118 79.5t-79.5 118t-29 143.5zM142 362q0 -58 18.5 -107.5t52 -85.5t81.5 -56.5t106 -20.5
q59 0 106.5 20.5t81 56.5t52 85.5t18.5 107.5q0 59 -18.5 108.5t-52 85.5t-81 56t-106.5 20q-58 0 -106 -20t-81.5 -56t-52 -85.5t-18.5 -108.5v-1v1zM253 564h149q77 0 119.5 -26t42.5 -96q0 -57 -29 -80.5t-74 -27.5l95 -174h-94l-88 169h-33v-169h-88v404zM341 395h72
q28 0 45.5 10t17.5 45q0 17 -7.5 26.5t-19.5 14.5t-25.5 6t-25.5 1h-57v-103z" />
    <glyph glyph-name="macron" unicode="&#xaf;" horiz-adv-x="242" 
d="M-45 724h332v-76h-332v76z" />
    <glyph glyph-name="degree" unicode="&#xb0;" horiz-adv-x="400" 
d="M57 589q0 30 11 56t30.5 45.5t45.5 30.5t56 11t56 -11t45.5 -30.5t30.5 -45.5t11 -56t-11 -56t-30.5 -45.5t-45.5 -30.5t-56 -11t-56 11t-45.5 30.5t-30.5 45.5t-11 56zM123 589q0 -32 22.5 -54.5t54.5 -22.5t54.5 22.5t22.5 54.5t-22.5 54.5t-54.5 22.5t-54.5 -22.5
t-22.5 -54.5z" />
    <glyph glyph-name="plusminus" unicode="&#xb1;" horiz-adv-x="600" 
d="M47 381h197v125h112v-125h197v-112h-197v-125h-112v125h-197v112zM47 112h506v-112h-506v112z" />
    <glyph glyph-name="twosuperior" unicode="&#xb2;" horiz-adv-x="325" 
d="M21 383q0 23 4.5 41t16.5 33t32 28t51 26q15 6 25.5 11t17 11.5t9.5 15.5t3 24v35q0 29 -4.5 35.5t-15.5 6.5q-22 0 -22 -19v-65h-112v71q0 30 8.5 49t26 29t44 13.5t62.5 3.5q51 0 78.5 -6.5t40.5 -22.5t15.5 -43t2.5 -67q0 -37 -3 -59t-13.5 -36t-30.5 -24t-54 -23
q-40 -15 -55 -28.5t-15 -41.5v-6h169v-82h-281v90z" />
    <glyph glyph-name="threesuperior" unicode="&#xb3;" horiz-adv-x="325" 
d="M97 556h29q19 0 29.5 2t16 8t7 18t1.5 33q0 23 -5 28t-21 5q-14 0 -20 -3.5t-6 -17.5v-27h-112v46q0 45 31.5 64.5t104.5 19.5q47 0 75.5 -5.5t44.5 -17.5t21 -30.5t5 -45.5q0 -32 -2 -52t-9 -32t-19 -18t-32 -9v-4q23 -3 36.5 -10.5t20.5 -20.5t9 -33t2 -48
q0 -33 -5.5 -56.5t-22 -37.5t-47 -20.5t-80.5 -6.5q-44 0 -70.5 5.5t-41 16.5t-19 27.5t-4.5 38.5v58h112v-35q0 -14 4.5 -21.5t24.5 -7.5q21 0 26 11t5 46q0 18 -1 28t-5.5 15t-13 6t-23.5 1h-46v82z" />
    <glyph glyph-name="acute" unicode="&#xb4;" horiz-adv-x="242" 
d="M131 724h155l-148 -148h-99z" />
    <glyph glyph-name="mu" unicode="&#xb5;" 
d="M47 510h148v-365q0 -17 8.5 -26t29.5 -9q20 0 28 9t8 26v365h148v-510h-148v56h-2q-9 -37 -22 -46.5t-24 -9.5q-19 0 -24 18h-2v-206h-148v698z" />
    <glyph glyph-name="paragraph" unicode="&#xb6;" horiz-adv-x="620" 
d="M218 416q-91 1 -138 40t-47 112q0 47 15 77t41.5 47.5t63 24.5t78.5 7h299v-724h-112v636h-88v-636h-112v416z" />
    <glyph glyph-name="periodcentered" unicode="&#xb7;" horiz-adv-x="250" 
d="M36 287q0 37 26 63t63 26t63 -26t26 -63t-26 -63t-63 -26t-63 26t-26 63z" />
    <glyph glyph-name="cedilla" unicode="&#xb8;" horiz-adv-x="242" 
d="M15 -164q24 -8 42.5 -12t41.5 -4q18 0 31.5 9t13.5 30q0 14 -11.5 24.5t-29.5 10.5q-23 0 -43 -8l-21 24l59 90h54l-43 -61l2 -2q12 6 31 6q35 0 62.5 -19t27.5 -58q0 -23 -10.5 -40.5t-27.5 -29.5t-40 -18t-49 -6q-36 0 -60.5 8.5t-46.5 16.5z" />
    <glyph glyph-name="onesuperior" unicode="&#xb9;" horiz-adv-x="325" 
d="M104 724h150v-431h-124v349h-2l-60 -90l-64 52z" />
    <glyph glyph-name="ordmasculine" unicode="&#xba;" horiz-adv-x="302" 
d="M16 635q0 31 8.5 50t25 29.5t42 14t59.5 3.5t59 -3.5t42 -14t25.5 -29.5t8.5 -50v-128q0 -31 -8.5 -50t-25.5 -29.5t-42 -14t-59 -3.5t-59.5 3.5t-42 14t-25 29.5t-8.5 50v128zM128 509q0 -14 5.5 -18.5t17.5 -4.5t17.5 4.5t5.5 18.5v124q0 14 -5.5 18.5t-17.5 4.5
t-17.5 -4.5t-5.5 -18.5v-124z" />
    <glyph glyph-name="guillemotright" unicode="&#xbb;" horiz-adv-x="537" 
d="M134 265l-87 177h152l88 -176l-88 -178h-153zM338 265l-88 177h153l88 -177l-88 -177h-153z" />
    <glyph glyph-name="onequarter" unicode="&#xbc;" horiz-adv-x="750" 
d="M431 190l102 241h179v-267h29v-82h-29v-82h-112v82h-169v108zM600 371h-2l-76 -207h78v207zM521 732h104l-395 -740h-104zM104 724h150v-431h-124v349h-2l-60 -90l-64 52z" />
    <glyph glyph-name="onehalf" unicode="&#xbd;" horiz-adv-x="750" 
d="M521 732h104l-395 -740h-104zM104 724h150v-431h-124v349h-2l-60 -90l-64 52zM458 90q0 23 4.5 41t16.5 33t32 28t51 26q15 6 25.5 11t17 11.5t9.5 15.5t3 24v35q0 29 -4.5 35.5t-15.5 6.5q-22 0 -22 -19v-64h-112v70q0 30 8.5 49t26 29t44 13.5t62.5 3.5q51 0 78.5 -6.5
t40.5 -22.5t15.5 -43t2.5 -67q0 -37 -3 -59t-13.5 -36t-30.5 -24t-54 -23q-40 -15 -55 -28.5t-15 -41.5v-6h169v-82h-281v90z" />
    <glyph glyph-name="threequarters" unicode="&#xbe;" horiz-adv-x="750" 
d="M87 556h29q19 0 29.5 2t16 8t7 18t1.5 33q0 23 -5 28t-21 5q-14 0 -20 -3.5t-6 -17.5v-27h-112v46q0 45 31.5 64.5t104.5 19.5q47 0 75.5 -5.5t44.5 -17.5t21 -30.5t5 -45.5q0 -32 -2 -52t-9 -32t-19 -18t-32 -9v-4q23 -3 36.5 -10.5t20.5 -20.5t9 -33t2 -48
q0 -33 -5.5 -56.5t-22 -37.5t-47 -20.5t-80.5 -6.5q-44 0 -70.5 5.5t-41 16.5t-19 27.5t-4.5 38.5v58h112v-35q0 -14 4.5 -21.5t24.5 -7.5q21 0 26 11t5 46q0 18 -1 28t-5.5 15t-13 6t-23.5 1h-46v82zM431 190l102 241h179v-267h29v-82h-29v-82h-112v82h-169v108zM521 732
h104l-395 -740h-104zM600 371h-2l-76 -207h78v207z" />
    <glyph glyph-name="questiondown" unicode="&#xbf;" horiz-adv-x="426" 
d="M156 323h154v-80q0 -24 -3 -40t-12 -29t-24 -25t-39 -27q-18 -12 -29 -21t-16 -21t-6.5 -30t-1.5 -48q0 -24 1.5 -38.5t6 -22t13 -9.5t22.5 -2q25 0 34 8.5t9 26.5v75h154v-61q0 -52 -9.5 -84.5t-31.5 -51t-56 -25t-84 -6.5q-70 0 -113 7t-66.5 29t-31.5 63t-8 108
q0 47 3.5 76t12.5 47.5t23.5 30.5t36.5 25t34 22t18 16.5t7.5 15t1.5 19.5v52zM156 544h154v-154h-154v154z" />
    <glyph glyph-name="Agrave" unicode="&#xc0;" horiz-adv-x="520" 
d="M261 624h-2l-39 -326h80zM125 724h270l109 -724h-169l-21 174h-108l-21 -174h-169zM95 908h155l92 -148h-99z" />
    <glyph glyph-name="Aacute" unicode="&#xc1;" horiz-adv-x="520" 
d="M261 624h-2l-39 -326h80zM125 724h270l109 -724h-169l-21 174h-108l-21 -174h-169zM270 908h155l-148 -148h-99z" />
    <glyph glyph-name="Acircumflex" unicode="&#xc2;" horiz-adv-x="520" 
d="M261 624h-2l-39 -326h80zM125 724h270l109 -724h-169l-21 174h-108l-21 -174h-169zM198 908h124l115 -148h-113l-64 82l-64 -82h-113z" />
    <glyph glyph-name="Atilde" unicode="&#xc3;" horiz-adv-x="520" 
d="M261 624h-2l-39 -326h80zM125 724h270l109 -724h-169l-21 174h-108l-21 -174h-169zM77 778q11 57 38 91t79 34q20 0 40 -6t38 -13t33 -13t26 -6q17 0 30.5 11.5t16.5 31.5h65q-8 -57 -36 -90.5t-72 -33.5q-24 0 -44 5.5t-38 12t-34.5 12t-33.5 5.5q-18 0 -30 -11t-14 -30
h-64z" />
    <glyph glyph-name="Adieresis" unicode="&#xc4;" horiz-adv-x="520" 
d="M261 624h-2l-39 -326h80zM125 724h270l109 -724h-169l-21 174h-108l-21 -174h-169zM96 883h130v-118h-130v118zM294 883h130v-118h-130v118z" />
    <glyph glyph-name="Aring" unicode="&#xc5;" horiz-adv-x="520" 
d="M261 624h-2l-39 -326h80zM125 724h270l109 -724h-169l-21 174h-108l-21 -174h-169zM153 857q0 52 31 79.5t76 27.5t76 -27.5t31 -79.5q0 -48 -29.5 -77.5t-77.5 -29.5t-77.5 29.5t-29.5 77.5zM213 857q0 -20 13.5 -33.5t33.5 -13.5t33.5 13.5t13.5 33.5t-13.5 33.5
t-33.5 13.5t-33.5 -13.5t-13.5 -33.5z" />
    <glyph glyph-name="AE" unicode="&#xc6;" horiz-adv-x="741" 
d="M367 606h-25l-89 -295h114v295zM219 724h470v-130h-156v-159h142v-124h-142v-181h168v-130h-334v187h-151l-57 -187h-168z" />
    <glyph glyph-name="Ccedilla" unicode="&#xc7;" horiz-adv-x="500" 
d="M45 556q0 87 37.5 131.5t129.5 44.5h62q54 0 90.5 -7.5t58.5 -23t31 -38.5t9 -55v-132h-160v95q0 31 -42 31q-44 0 -44 -31v-418q0 -31 43 -31t43 31v114h160v-107q0 -48 -10 -80t-32 -51.5t-58 -28t-89 -8.5h-62q-92 0 -129.5 42.5t-37.5 112.5v409zM144 -164
q24 -8 42.5 -12t41.5 -4q18 0 31.5 9t13.5 30q0 14 -11.5 24.5t-29.5 10.5q-23 0 -43 -8l-21 24l59 90h54l-43 -61l2 -2q12 6 31 6q35 0 62.5 -19t27.5 -58q0 -23 -10.5 -40.5t-27.5 -29.5t-40 -18t-49 -6q-36 0 -60.5 8.5t-46.5 16.5z" />
    <glyph glyph-name="Egrave" unicode="&#xc8;" horiz-adv-x="426" 
d="M55 724h319v-130h-153v-159h142v-124h-142v-181h165v-130h-331v724zM48 908h155l92 -148h-99z" />
    <glyph glyph-name="Eacute" unicode="&#xc9;" horiz-adv-x="426" 
d="M55 724h319v-130h-153v-159h142v-124h-142v-181h165v-130h-331v724zM223 908h155l-148 -148h-99z" />
    <glyph glyph-name="Ecircumflex" unicode="&#xca;" horiz-adv-x="426" 
d="M55 724h319v-130h-153v-159h142v-124h-142v-181h165v-130h-331v724zM151 908h124l115 -148h-113l-64 82l-64 -82h-113z" />
    <glyph glyph-name="Edieresis" unicode="&#xcb;" horiz-adv-x="426" 
d="M55 724h319v-130h-153v-159h142v-124h-142v-181h165v-130h-331v724zM49 883h130v-118h-130v118zM247 883h130v-118h-130v118z" />
    <glyph glyph-name="Igrave" unicode="&#xcc;" horiz-adv-x="296" 
d="M65 724h166v-724h-166v724zM-17 908h155l92 -148h-99z" />
    <glyph glyph-name="Iacute" unicode="&#xcd;" horiz-adv-x="296" 
d="M65 724h166v-724h-166v724zM158 908h155l-148 -148h-99z" />
    <glyph glyph-name="Icircumflex" unicode="&#xce;" horiz-adv-x="296" 
d="M65 724h166v-724h-166v724zM86 908h124l115 -148h-113l-64 82l-64 -82h-113z" />
    <glyph glyph-name="Idieresis" unicode="&#xcf;" horiz-adv-x="296" 
d="M65 724h166v-724h-166v724zM-16 883h130v-118h-130v118zM182 883h130v-118h-130v118z" />
    <glyph glyph-name="Eth" unicode="&#xd0;" horiz-adv-x="520" 
d="M8 441h47v283h216q58 0 97 -9t63 -37.5t34 -82.5t10 -143v-181q0 -89 -10 -142.5t-34 -82t-63 -37.5t-97 -9h-216v311h-47v130zM221 441h47v-130h-47v-181h44q27 0 35.5 14.5t8.5 55.5v330q0 41 -8.5 55.5t-35.5 14.5h-44v-159z" />
    <glyph glyph-name="Ntilde" unicode="&#xd1;" horiz-adv-x="630" 
d="M206 564h-2l10 -564h-153v724h242l122 -564l2 2l-12 562h154v-724h-242zM132 778q11 57 38 91t79 34q20 0 40 -6t38 -13t33 -13t26 -6q17 0 30.5 11.5t16.5 31.5h65q-8 -57 -36 -90.5t-72 -33.5q-24 0 -44 5.5t-38 12t-34.5 12t-33.5 5.5q-18 0 -30 -11t-14 -30h-64z" />
    <glyph glyph-name="Ograve" unicode="&#xd2;" horiz-adv-x="520" 
d="M303 574q0 20 -10 27t-33 7t-33 -7t-10 -27v-424q0 -20 10 -27t33 -7t33 7t10 27v424zM45 583q0 44 14 73t41.5 46t67.5 23.5t92 6.5t92 -6.5t67.5 -23.5t41.5 -46t14 -73v-442q0 -44 -14 -73t-41.5 -46t-67.5 -23.5t-92 -6.5t-92 6.5t-67.5 23.5t-41.5 46t-14 73v442z
M95 908h155l92 -148h-99z" />
    <glyph glyph-name="Oacute" unicode="&#xd3;" horiz-adv-x="520" 
d="M303 574q0 20 -10 27t-33 7t-33 -7t-10 -27v-424q0 -20 10 -27t33 -7t33 7t10 27v424zM45 583q0 44 14 73t41.5 46t67.5 23.5t92 6.5t92 -6.5t67.5 -23.5t41.5 -46t14 -73v-442q0 -44 -14 -73t-41.5 -46t-67.5 -23.5t-92 -6.5t-92 6.5t-67.5 23.5t-41.5 46t-14 73v442z
M270 908h155l-148 -148h-99z" />
    <glyph glyph-name="Ocircumflex" unicode="&#xd4;" horiz-adv-x="520" 
d="M303 574q0 20 -10 27t-33 7t-33 -7t-10 -27v-424q0 -20 10 -27t33 -7t33 7t10 27v424zM45 583q0 44 14 73t41.5 46t67.5 23.5t92 6.5t92 -6.5t67.5 -23.5t41.5 -46t14 -73v-442q0 -44 -14 -73t-41.5 -46t-67.5 -23.5t-92 -6.5t-92 6.5t-67.5 23.5t-41.5 46t-14 73v442z
M198 908h124l115 -148h-113l-64 82l-64 -82h-113z" />
    <glyph glyph-name="Otilde" unicode="&#xd5;" horiz-adv-x="520" 
d="M303 574q0 20 -10 27t-33 7t-33 -7t-10 -27v-424q0 -20 10 -27t33 -7t33 7t10 27v424zM45 583q0 44 14 73t41.5 46t67.5 23.5t92 6.5t92 -6.5t67.5 -23.5t41.5 -46t14 -73v-442q0 -44 -14 -73t-41.5 -46t-67.5 -23.5t-92 -6.5t-92 6.5t-67.5 23.5t-41.5 46t-14 73v442z
M77 778q11 57 38 91t79 34q20 0 40 -6t38 -13t33 -13t26 -6q17 0 30.5 11.5t16.5 31.5h65q-8 -57 -36 -90.5t-72 -33.5q-24 0 -44 5.5t-38 12t-34.5 12t-33.5 5.5q-18 0 -30 -11t-14 -30h-64z" />
    <glyph glyph-name="Odieresis" unicode="&#xd6;" horiz-adv-x="520" 
d="M303 574q0 20 -10 27t-33 7t-33 -7t-10 -27v-424q0 -20 10 -27t33 -7t33 7t10 27v424zM45 583q0 44 14 73t41.5 46t67.5 23.5t92 6.5t92 -6.5t67.5 -23.5t41.5 -46t14 -73v-442q0 -44 -14 -73t-41.5 -46t-67.5 -23.5t-92 -6.5t-92 6.5t-67.5 23.5t-41.5 46t-14 73v442z
M96 883h130v-118h-130v118zM294 883h130v-118h-130v118z" />
    <glyph glyph-name="multiply" unicode="&#xd7;" horiz-adv-x="600" 
d="M65 411l77 77l158 -158l158 158l77 -77l-159 -158l159 -158l-77 -77l-158 159l-158 -159l-77 77l158 158z" />
    <glyph glyph-name="Oslash" unicode="&#xd8;" horiz-adv-x="520" 
d="M45 583q0 44 14 73t41.5 46t67.5 23.5t92 6.5q43 0 77 -4t59 -15l41 77l78 -38l-53 -99q13 -26 13 -70v-442q0 -44 -14 -73t-41.5 -46t-67.5 -23.5t-92 -6.5q-44 0 -79 5t-60 16l-41 -79l-75 41l52 100q-12 27 -12 66v442zM217 150q0 -20 10 -27t33 -7t33 7t10 27v216h-2
l-84 -162v-54zM217 362h2l84 162v50q0 20 -10 27t-33 7t-33 -7t-10 -27v-212z" />
    <glyph glyph-name="Ugrave" unicode="&#xd9;" horiz-adv-x="520" 
d="M470 173q0 -60 -14 -96t-41 -55t-66 -24.5t-89 -5.5t-89 5.5t-66 24.5t-41 55t-14 96v551h166v-556q0 -21 9.5 -33.5t34.5 -12.5t34.5 12.5t9.5 33.5v556h166v-551zM95 908h155l92 -148h-99z" />
    <glyph glyph-name="Uacute" unicode="&#xda;" horiz-adv-x="520" 
d="M470 173q0 -60 -14 -96t-41 -55t-66 -24.5t-89 -5.5t-89 5.5t-66 24.5t-41 55t-14 96v551h166v-556q0 -21 9.5 -33.5t34.5 -12.5t34.5 12.5t9.5 33.5v556h166v-551zM270 908h155l-148 -148h-99z" />
    <glyph glyph-name="Ucircumflex" unicode="&#xdb;" horiz-adv-x="520" 
d="M470 173q0 -60 -14 -96t-41 -55t-66 -24.5t-89 -5.5t-89 5.5t-66 24.5t-41 55t-14 96v551h166v-556q0 -21 9.5 -33.5t34.5 -12.5t34.5 12.5t9.5 33.5v556h166v-551zM198 908h124l115 -148h-113l-64 82l-64 -82h-113z" />
    <glyph glyph-name="Udieresis" unicode="&#xdc;" horiz-adv-x="520" 
d="M470 173q0 -60 -14 -96t-41 -55t-66 -24.5t-89 -5.5t-89 5.5t-66 24.5t-41 55t-14 96v551h166v-556q0 -21 9.5 -33.5t34.5 -12.5t34.5 12.5t9.5 33.5v556h166v-551zM96 883h130v-118h-130v118zM294 883h130v-118h-130v118z" />
    <glyph glyph-name="Yacute" unicode="&#xdd;" 
d="M152 234l-152 490h164l67 -326h2l67 326h164l-152 -490v-234h-160v234zM242 908h155l-148 -148h-99z" />
    <glyph glyph-name="Thorn" unicode="&#xde;" horiz-adv-x="500" 
d="M55 724h166v-80h73q90 0 137.5 -38.5t47.5 -137.5v-126q0 -65 -10.5 -107t-34.5 -66t-62.5 -33.5t-94.5 -9.5h-56v-126h-166v724zM221 256h49q18 0 27.5 11.5t9.5 41.5v174q0 18 -8 24.5t-30 6.5h-48v-258z" />
    <glyph glyph-name="germandbls" unicode="&#xdf;" horiz-adv-x="481" 
d="M47 569q0 83 43 123t143 40q102 0 145.5 -40.5t43.5 -137.5q0 -30 -4.5 -55t-16.5 -44.5t-34 -32.5t-57 -18v-2q71 -11 102.5 -44.5t31.5 -109.5v-85q0 -30 -5 -60.5t-21.5 -55t-47.5 -40t-83 -15.5q-12 0 -29.5 4t-30.5 12v114l14 -4t15 -2q23 0 31.5 12t8.5 50v66
q0 24 -3 39t-10.5 25t-21 15t-33.5 8v124q31 5 41.5 15.5t10.5 36.5v64q0 31 -8.5 40t-34.5 9q-19 0 -30.5 -6t-11.5 -29v-585h-148v569z" />
    <glyph glyph-name="agrave" unicode="&#xe0;" horiz-adv-x="444" 
d="M45 428q0 28 9.5 45.5t29.5 27.5t51 13.5t73 3.5q50 0 85.5 -5t58.5 -20t34 -43.5t11 -75.5v-374h-142v43h-2q-12 -16 -22.5 -26t-22 -15.5t-26.5 -7.5t-36 -2q-38 0 -62 11t-37.5 32t-18.5 52t-5 70q0 47 8.5 77t25 47.5t40.5 24.5t54 7q27 0 52 -8t46 -25v113
q0 25 -38 25q-17 0 -26.5 -6t-9.5 -20v-28h-130v64zM177 147q1 -25 8.5 -34t27.5 -9q23 0 29.5 11t6.5 26v41q0 20 -7 28.5t-29 8.5q-18 0 -27 -8.5t-9 -34.5v-29zM57 724h155l92 -148h-99z" />
    <glyph glyph-name="aacute" unicode="&#xe1;" horiz-adv-x="444" 
d="M45 428q0 28 9.5 45.5t29.5 27.5t51 13.5t73 3.5q50 0 85.5 -5t58.5 -20t34 -43.5t11 -75.5v-374h-142v43h-2q-12 -16 -22.5 -26t-22 -15.5t-26.5 -7.5t-36 -2q-38 0 -62 11t-37.5 32t-18.5 52t-5 70q0 47 8.5 77t25 47.5t40.5 24.5t54 7q27 0 52 -8t46 -25v113
q0 25 -38 25q-17 0 -26.5 -6t-9.5 -20v-28h-130v64zM177 147q1 -25 8.5 -34t27.5 -9q23 0 29.5 11t6.5 26v41q0 20 -7 28.5t-29 8.5q-18 0 -27 -8.5t-9 -34.5v-29zM232 724h155l-148 -148h-99z" />
    <glyph glyph-name="acircumflex" unicode="&#xe2;" horiz-adv-x="444" 
d="M45 428q0 28 9.5 45.5t29.5 27.5t51 13.5t73 3.5q50 0 85.5 -5t58.5 -20t34 -43.5t11 -75.5v-374h-142v43h-2q-12 -16 -22.5 -26t-22 -15.5t-26.5 -7.5t-36 -2q-38 0 -62 11t-37.5 32t-18.5 52t-5 70q0 47 8.5 77t25 47.5t40.5 24.5t54 7q27 0 52 -8t46 -25v113
q0 25 -38 25q-17 0 -26.5 -6t-9.5 -20v-28h-130v64zM177 147q1 -25 8.5 -34t27.5 -9q23 0 29.5 11t6.5 26v41q0 20 -7 28.5t-29 8.5q-18 0 -27 -8.5t-9 -34.5v-29zM160 724h124l115 -148h-113l-64 82l-64 -82h-113z" />
    <glyph glyph-name="atilde" unicode="&#xe3;" horiz-adv-x="444" 
d="M45 428q0 28 9.5 45.5t29.5 27.5t51 13.5t73 3.5q50 0 85.5 -5t58.5 -20t34 -43.5t11 -75.5v-374h-142v43h-2q-12 -16 -22.5 -26t-22 -15.5t-26.5 -7.5t-36 -2q-38 0 -62 11t-37.5 32t-18.5 52t-5 70q0 47 8.5 77t25 47.5t40.5 24.5t54 7q27 0 52 -8t46 -25v113
q0 25 -38 25q-17 0 -26.5 -6t-9.5 -20v-28h-130v64zM177 147q1 -25 8.5 -34t27.5 -9q23 0 29.5 11t6.5 26v41q0 20 -7 28.5t-29 8.5q-18 0 -27 -8.5t-9 -34.5v-29zM39 594q11 57 38 91t79 34q20 0 40 -6t38 -13t33 -13t26 -6q17 0 30.5 11.5t16.5 31.5h65q-8 -57 -36 -90.5
t-72 -33.5q-24 0 -44 5.5t-38 12t-34.5 12t-33.5 5.5q-18 0 -30 -11t-14 -30h-64z" />
    <glyph glyph-name="adieresis" unicode="&#xe4;" horiz-adv-x="444" 
d="M45 428q0 28 9.5 45.5t29.5 27.5t51 13.5t73 3.5q50 0 85.5 -5t58.5 -20t34 -43.5t11 -75.5v-374h-142v43h-2q-12 -16 -22.5 -26t-22 -15.5t-26.5 -7.5t-36 -2q-38 0 -62 11t-37.5 32t-18.5 52t-5 70q0 47 8.5 77t25 47.5t40.5 24.5t54 7q27 0 52 -8t46 -25v113
q0 25 -38 25q-17 0 -26.5 -6t-9.5 -20v-28h-130v64zM177 147q1 -25 8.5 -34t27.5 -9q23 0 29.5 11t6.5 26v41q0 20 -7 28.5t-29 8.5q-18 0 -27 -8.5t-9 -34.5v-29zM58 699h130v-118h-130v118zM256 699h130v-118h-130v118z" />
    <glyph glyph-name="aring" unicode="&#xe5;" horiz-adv-x="444" 
d="M45 428q0 28 9.5 45.5t29.5 27.5t51 13.5t73 3.5q50 0 85.5 -5t58.5 -20t34 -43.5t11 -75.5v-374h-142v43h-2q-12 -16 -22.5 -26t-22 -15.5t-26.5 -7.5t-36 -2q-38 0 -62 11t-37.5 32t-18.5 52t-5 70q0 47 8.5 77t25 47.5t40.5 24.5t54 7q27 0 52 -8t46 -25v113
q0 25 -38 25q-17 0 -26.5 -6t-9.5 -20v-28h-130v64zM177 147q1 -25 8.5 -34t27.5 -9q23 0 29.5 11t6.5 26v41q0 20 -7 28.5t-29 8.5q-18 0 -27 -8.5t-9 -34.5v-29zM115 683q0 52 31 79.5t76 27.5t76 -27.5t31 -79.5q0 -48 -29.5 -77.5t-77.5 -29.5t-77.5 29.5t-29.5 77.5z
M175 683q0 -20 13.5 -33.5t33.5 -13.5t33.5 13.5t13.5 33.5t-13.5 33.5t-33.5 13.5t-33.5 -13.5t-13.5 -33.5z" />
    <glyph glyph-name="ae" unicode="&#xe6;" horiz-adv-x="667" 
d="M45 428q0 28 9.5 45.5t29.5 27.5t51 13.5t73 3.5q104 0 121 -38q17 20 48 29t58 9q61 0 99 -11t59.5 -29.5t29 -44.5t7.5 -56v-158h-233v-86q0 -20 7.5 -27.5t35.5 -7.5q20 0 30 6.5t10 29.5v24h150v-29q0 -40 -9.5 -66.5t-32 -42t-60 -22t-93.5 -6.5q-59 0 -91.5 10.5
t-43.5 45.5h-2q-11 -32 -38 -44t-84 -12q-49 0 -79.5 11t-46.5 32t-21.5 52t-5.5 70q0 47 8.5 77t25 47.5t40.5 24.5t54 7q27 0 52 -8t46 -25v113q0 25 -38 25q-17 0 -26.5 -6t-9.5 -20v-28h-130v64zM177 147q1 -25 8.5 -34t27.5 -9q23 0 29.5 11t6.5 26v41q0 20 -7 28.5
t-29 8.5q-18 0 -27 -8.5t-9 -34.5v-29zM397 313h79v69q0 16 -7.5 23t-32.5 7q-24 0 -31.5 -7t-7.5 -23v-69z" />
    <glyph glyph-name="ccedilla" unicode="&#xe7;" horiz-adv-x="444" 
d="M37 356q0 51 12.5 83t38 49.5t63.5 23.5t88 6q26 0 54.5 -4t52.5 -14.5t39.5 -29.5t15.5 -50v-87h-130v26q0 26 -9 36.5t-31 10.5t-31 -10.5t-9 -36.5v-208q0 -26 9 -36.5t31 -10.5t31 10.5t9 36.5v48h136v-45q0 -42 -5 -72.5t-22.5 -50.5t-52 -29.5t-94.5 -9.5
q-48 0 -84.5 6t-61.5 23.5t-37.5 49.5t-12.5 83v202zM116 -164q24 -8 42.5 -12t41.5 -4q18 0 31.5 9t13.5 30q0 14 -11.5 24.5t-29.5 10.5q-23 0 -43 -8l-21 24l59 90h54l-43 -61l2 -2q12 6 31 6q35 0 62.5 -19t27.5 -58q0 -23 -10.5 -40.5t-27.5 -29.5t-40 -18t-49 -6
q-36 0 -60.5 8.5t-46.5 16.5z" />
    <glyph glyph-name="egrave" unicode="&#xe8;" 
d="M37 356q0 51 12.5 83t37.5 49.5t61 23.5t84 6q61 0 99 -11t59.5 -29.5t29 -44.5t7.5 -56v-158h-236v-86q0 -20 7.5 -27.5t36.5 -7.5q22 0 32 6.5t10 29.5v24h150v-29q0 -40 -9.5 -66.5t-32 -42t-60 -22t-93.5 -6.5q-48 0 -84 6t-61 23.5t-37.5 49.5t-12.5 83v202z
M191 313h82v75q0 16 -7.5 23t-33.5 7t-33.5 -7t-7.5 -23v-75zM67 724h155l92 -148h-99z" />
    <glyph glyph-name="eacute" unicode="&#xe9;" 
d="M37 356q0 51 12.5 83t37.5 49.5t61 23.5t84 6q61 0 99 -11t59.5 -29.5t29 -44.5t7.5 -56v-158h-236v-86q0 -20 7.5 -27.5t36.5 -7.5q22 0 32 6.5t10 29.5v24h150v-29q0 -40 -9.5 -66.5t-32 -42t-60 -22t-93.5 -6.5q-48 0 -84 6t-61 23.5t-37.5 49.5t-12.5 83v202z
M191 313h82v75q0 16 -7.5 23t-33.5 7t-33.5 -7t-7.5 -23v-75zM242 724h155l-148 -148h-99z" />
    <glyph glyph-name="ecircumflex" unicode="&#xea;" 
d="M37 356q0 51 12.5 83t37.5 49.5t61 23.5t84 6q61 0 99 -11t59.5 -29.5t29 -44.5t7.5 -56v-158h-236v-86q0 -20 7.5 -27.5t36.5 -7.5q22 0 32 6.5t10 29.5v24h150v-29q0 -40 -9.5 -66.5t-32 -42t-60 -22t-93.5 -6.5q-48 0 -84 6t-61 23.5t-37.5 49.5t-12.5 83v202z
M191 313h82v75q0 16 -7.5 23t-33.5 7t-33.5 -7t-7.5 -23v-75zM170 724h124l115 -148h-113l-64 82l-64 -82h-113z" />
    <glyph glyph-name="edieresis" unicode="&#xeb;" 
d="M37 356q0 51 12.5 83t37.5 49.5t61 23.5t84 6q61 0 99 -11t59.5 -29.5t29 -44.5t7.5 -56v-158h-236v-86q0 -20 7.5 -27.5t36.5 -7.5q22 0 32 6.5t10 29.5v24h150v-29q0 -40 -9.5 -66.5t-32 -42t-60 -22t-93.5 -6.5q-48 0 -84 6t-61 23.5t-37.5 49.5t-12.5 83v202z
M191 313h82v75q0 16 -7.5 23t-33.5 7t-33.5 -7t-7.5 -23v-75zM68 699h130v-118h-130v118zM266 699h130v-118h-130v118z" />
    <glyph glyph-name="igrave" unicode="&#xec;" horiz-adv-x="242" 
d="M47 510h148v-510h-148v510zM-44 724h155l92 -148h-99z" />
    <glyph glyph-name="iacute" unicode="&#xed;" horiz-adv-x="242" 
d="M47 510h148v-510h-148v510zM131 724h155l-148 -148h-99z" />
    <glyph glyph-name="icircumflex" unicode="&#xee;" horiz-adv-x="242" 
d="M47 510h148v-510h-148v510zM59 724h124l115 -148h-113l-64 82l-64 -82h-113z" />
    <glyph glyph-name="idieresis" unicode="&#xef;" horiz-adv-x="242" 
d="M47 510h148v-510h-148v510zM-43 699h130v-118h-130v118zM155 699h130v-118h-130v118z" />
    <glyph glyph-name="eth" unicode="&#xf0;" 
d="M37 356q4 67 37 106.5t105 39.5q29 0 55.5 -8t43.5 -32l2 -1q-2 34 -13 66t-37 54l-108 -51l-33 51l82 39q-23 9 -46.5 15t-47.5 8l65 100q45 0 89.5 -13t80.5 -43l109 51l33 -51l-96 -47q25 -26 39 -55.5t20.5 -61.5t8 -65.5t1.5 -66.5v-237q0 -51 -12.5 -83
t-37.5 -49.5t-61 -23.5t-84 -6t-84 6t-61 23.5t-37.5 49.5t-12.5 83v202zM191 141q0 -23 9.5 -30t31.5 -7t31.5 7t9.5 30v212q0 23 -9.5 30t-31.5 7t-31.5 -7t-9.5 -30v-212z" />
    <glyph glyph-name="ntilde" unicode="&#xf1;" 
d="M47 510h148v-56h2q16 34 42 49t62 15q24 0 45.5 -6t37 -19.5t24.5 -36t9 -55.5v-401h-148v365q0 17 -8.5 26t-29.5 9q-20 0 -28 -9t-8 -26v-365h-148v510zM49 594q11 57 38 91t79 34q20 0 40 -6t38 -13t33 -13t26 -6q17 0 30.5 11.5t16.5 31.5h65q-8 -57 -36 -90.5
t-72 -33.5q-24 0 -44 5.5t-38 12t-34.5 12t-33.5 5.5q-18 0 -30 -11t-14 -30h-64z" />
    <glyph glyph-name="ograve" unicode="&#xf2;" 
d="M37 356q0 51 12.5 83t37.5 49.5t61 23.5t84 6t84 -6t61 -23.5t37.5 -49.5t12.5 -83v-202q0 -51 -12.5 -83t-37.5 -49.5t-61 -23.5t-84 -6t-84 6t-61 23.5t-37.5 49.5t-12.5 83v202zM191 141q0 -23 9.5 -30t31.5 -7t31.5 7t9.5 30v228q0 23 -9.5 30t-31.5 7t-31.5 -7
t-9.5 -30v-228zM67 724h155l92 -148h-99z" />
    <glyph glyph-name="oacute" unicode="&#xf3;" 
d="M37 356q0 51 12.5 83t37.5 49.5t61 23.5t84 6t84 -6t61 -23.5t37.5 -49.5t12.5 -83v-202q0 -51 -12.5 -83t-37.5 -49.5t-61 -23.5t-84 -6t-84 6t-61 23.5t-37.5 49.5t-12.5 83v202zM191 141q0 -23 9.5 -30t31.5 -7t31.5 7t9.5 30v228q0 23 -9.5 30t-31.5 7t-31.5 -7
t-9.5 -30v-228zM242 724h155l-148 -148h-99z" />
    <glyph glyph-name="ocircumflex" unicode="&#xf4;" 
d="M37 356q0 51 12.5 83t37.5 49.5t61 23.5t84 6t84 -6t61 -23.5t37.5 -49.5t12.5 -83v-202q0 -51 -12.5 -83t-37.5 -49.5t-61 -23.5t-84 -6t-84 6t-61 23.5t-37.5 49.5t-12.5 83v202zM191 141q0 -23 9.5 -30t31.5 -7t31.5 7t9.5 30v228q0 23 -9.5 30t-31.5 7t-31.5 -7
t-9.5 -30v-228zM170 724h124l115 -148h-113l-64 82l-64 -82h-113z" />
    <glyph glyph-name="otilde" unicode="&#xf5;" 
d="M37 356q0 51 12.5 83t37.5 49.5t61 23.5t84 6t84 -6t61 -23.5t37.5 -49.5t12.5 -83v-202q0 -51 -12.5 -83t-37.5 -49.5t-61 -23.5t-84 -6t-84 6t-61 23.5t-37.5 49.5t-12.5 83v202zM191 141q0 -23 9.5 -30t31.5 -7t31.5 7t9.5 30v228q0 23 -9.5 30t-31.5 7t-31.5 -7
t-9.5 -30v-228zM49 594q11 57 38 91t79 34q20 0 40 -6t38 -13t33 -13t26 -6q17 0 30.5 11.5t16.5 31.5h65q-8 -57 -36 -90.5t-72 -33.5q-24 0 -44 5.5t-38 12t-34.5 12t-33.5 5.5q-18 0 -30 -11t-14 -30h-64z" />
    <glyph glyph-name="odieresis" unicode="&#xf6;" 
d="M37 356q0 51 12.5 83t37.5 49.5t61 23.5t84 6t84 -6t61 -23.5t37.5 -49.5t12.5 -83v-202q0 -51 -12.5 -83t-37.5 -49.5t-61 -23.5t-84 -6t-84 6t-61 23.5t-37.5 49.5t-12.5 83v202zM191 141q0 -23 9.5 -30t31.5 -7t31.5 7t9.5 30v228q0 23 -9.5 30t-31.5 7t-31.5 -7
t-9.5 -30v-228zM68 699h130v-118h-130v118zM266 699h130v-118h-130v118z" />
    <glyph glyph-name="divide" unicode="&#xf7;" horiz-adv-x="600" 
d="M47 309h506v-112h-506v112zM212 460q0 37 26 63t63 26t63 -26t26 -63t-26 -63t-63 -26t-63 26t-26 63zM212 46q0 37 26 63t63 26t63 -26t26 -63t-26 -63t-63 -26t-63 26t-26 63z" />
    <glyph glyph-name="oslash" unicode="&#xf8;" 
d="M191 248h2l80 124q-1 21 -10.5 27.5t-30.5 6.5q-22 0 -31.5 -7t-9.5 -30v-121zM273 256h-2l-79 -123q2 -18 11 -23.5t29 -5.5q22 0 31.5 7t9.5 30v115zM37 356q0 51 12.5 83t37.5 49.5t61 23.5t84 6q37 0 66.5 -3.5t51.5 -11.5l44 71l66 -44l-52 -78q19 -35 19 -96v-202
q0 -51 -12.5 -83t-37.5 -49.5t-61 -23.5t-84 -6q-35 0 -64 3t-51 12l-47 -71l-66 44l53 77q-20 33 -20 97v202z" />
    <glyph glyph-name="ugrave" unicode="&#xf9;" 
d="M47 510h148v-365q0 -17 8.5 -26t29.5 -9q20 0 28 9t8 26v365h148v-510h-148v56h-2q-16 -34 -42 -49t-62 -15q-24 0 -45.5 6t-37 19.5t-24.5 36t-9 55.5v401zM67 724h155l92 -148h-99z" />
    <glyph glyph-name="uacute" unicode="&#xfa;" 
d="M47 510h148v-365q0 -17 8.5 -26t29.5 -9q20 0 28 9t8 26v365h148v-510h-148v56h-2q-16 -34 -42 -49t-62 -15q-24 0 -45.5 6t-37 19.5t-24.5 36t-9 55.5v401zM242 724h155l-148 -148h-99z" />
    <glyph glyph-name="ucircumflex" unicode="&#xfb;" 
d="M47 510h148v-365q0 -17 8.5 -26t29.5 -9q20 0 28 9t8 26v365h148v-510h-148v56h-2q-16 -34 -42 -49t-62 -15q-24 0 -45.5 6t-37 19.5t-24.5 36t-9 55.5v401zM170 724h124l115 -148h-113l-64 82l-64 -82h-113z" />
    <glyph glyph-name="udieresis" unicode="&#xfc;" 
d="M47 510h148v-365q0 -17 8.5 -26t29.5 -9q20 0 28 9t8 26v365h148v-510h-148v56h-2q-16 -34 -42 -49t-62 -15q-24 0 -45.5 6t-37 19.5t-24.5 36t-9 55.5v401zM68 699h130v-118h-130v118zM266 699h130v-118h-130v118z" />
    <glyph glyph-name="yacute" unicode="&#xfd;" horiz-adv-x="408" 
d="M10 510h148l45 -422h2l45 422h148l-85 -570q-6 -41 -20.5 -66t-35.5 -39t-48.5 -18.5t-60.5 -4.5q-10 0 -29.5 3t-36.5 11v100q9 -2 18.5 -5t22.5 -3q10 0 22 3t22 14q8 10 9 29t5 36h-100zM214 724h155l-148 -148h-99z" />
    <glyph glyph-name="thorn" unicode="&#xfe;" 
d="M195 138q0 -28 35 -28q33 0 33 28v234q0 28 -34 28t-34 -28v-234zM47 724h148v-267h2q17 40 39 50.5t62 10.5q34 0 56.5 -7t36.5 -23.5t20 -43t6 -65.5v-284q0 -30 -8.5 -49.5t-23.5 -31.5t-35 -17t-44 -5q-40 0 -65.5 13.5t-43.5 39.5h-2v-233h-148v912z" />
    <glyph glyph-name="ydieresis" unicode="&#xff;" horiz-adv-x="408" 
d="M10 510h148l45 -422h2l45 422h148l-85 -570q-6 -41 -20.5 -66t-35.5 -39t-48.5 -18.5t-60.5 -4.5q-10 0 -29.5 3t-36.5 11v100q9 -2 18.5 -5t22.5 -3q10 0 22 3t22 14q8 10 9 29t5 36h-100zM40 699h130v-118h-130v118zM238 699h130v-118h-130v118z" />
    <glyph glyph-name="dotlessi" unicode="&#x131;" horiz-adv-x="242" 
d="M47 510h148v-510h-148v510z" />
    <glyph glyph-name="Lslash" unicode="&#x141;" horiz-adv-x="407" 
d="M55 261l-44 -27v94l44 27v369h166v-278l110 68v-93l-110 -68v-223h161v-130h-327v261z" />
    <glyph glyph-name="lslash" unicode="&#x142;" horiz-adv-x="242" 
d="M47 282l-45 -28v94l45 28v348h148v-266l45 28v-94l-45 -28v-364h-148v282z" />
    <glyph glyph-name="OE" unicode="&#x152;" horiz-adv-x="685" 
d="M312 574q0 20 -10.5 27t-38.5 7q-22 0 -31.5 -7t-9.5 -27v-424q0 -20 9.5 -27t31.5 -7q28 0 38.5 7t10.5 27v424zM344 31h-2q-14 -24 -44.5 -31.5t-73.5 -7.5q-42 0 -74 5t-54.5 20.5t-34 44.5t-11.5 77v399q0 52 8 88.5t27.5 60t52 34.5t80.5 11q57 0 86.5 -7.5
t43.5 -33.5l2 -2v35h284v-130h-156v-159h144v-124h-144v-181h167v-130h-301v31z" />
    <glyph glyph-name="oe" unicode="&#x153;" horiz-adv-x="685" 
d="M37 356q0 51 12.5 83t37.5 49.5t61 23.5t84 6q28 -1 57.5 -6t54.5 -34q17 23 43.5 31.5t65.5 8.5q61 0 99 -11t59.5 -29.5t29 -44.5t7.5 -56v-158h-233v-86q0 -20 7.5 -27.5t35.5 -7.5q20 0 30 6.5t10 29.5v24h150v-29q0 -40 -9 -66.5t-30.5 -42t-56 -22t-85.5 -6.5
q-42 0 -73.5 7t-52.5 35q-7 -13 -19 -21.5t-27 -13t-31 -6t-31 -1.5q-48 0 -84.5 6t-61.5 23.5t-37.5 49.5t-12.5 83v202zM191 141q0 -23 9 -30t28 -7t29 7t10 30v228q0 23 -10 30t-29 7t-28 -7t-9 -30v-228zM494 313v69q0 16 -7.5 23t-32.5 7q-24 0 -31.5 -7t-7.5 -23v-69
h79z" />
    <glyph glyph-name="Scaron" unicode="&#x160;" horiz-adv-x="500" 
d="M195 186q0 -19 1 -32t5.5 -21.5t14.5 -12.5t28 -4q28 0 38.5 10t10.5 33v78q0 19 -3 30t-13.5 18t-29.5 12.5t-52 13.5q-48 12 -78.5 25t-47 34t-22.5 52.5t-6 79.5v44q0 63 10.5 100t35 56t65 24.5t99.5 5.5q54 0 91 -8t59.5 -25t32 -43.5t9.5 -64.5v-87h-148v35
q0 24 -1.5 38t-6.5 20.5t-14 8.5t-25 2q-33 0 -40 -13t-7 -39v-48q0 -17 2.5 -28t9.5 -18t19 -11t30 -9q66 -17 105.5 -31.5t59.5 -38.5t26 -64.5t6 -110.5q0 -65 -12 -105.5t-37.5 -62.5t-64 -29.5t-91.5 -7.5q-67 0 -109 9t-65 30t-31 57t-8 90v60h154v-52zM73 908h113
l64 -82l64 82h113l-115 -148h-124z" />
    <glyph glyph-name="scaron" unicode="&#x161;" horiz-adv-x="427" 
d="M38 158h136v-14q0 -29 7.5 -37.5t27.5 -8.5t28.5 8.5t6.5 37.5q-1 16 -3.5 25.5t-10.5 14.5t-23.5 8.5t-42.5 7.5q-39 6 -64 15.5t-39.5 27t-20 43t-5.5 62.5q0 56 8 89t28 50.5t53.5 23.5t84.5 7q48 1 81 -4.5t53 -17.5t28.5 -32t8.5 -47v-59h-130v24q0 36 -33 36
q-21 0 -27.5 -10t-6.5 -36q0 -13 2 -21t8.5 -13.5t20 -9.5t36.5 -7q44 -7 71.5 -15t43 -23.5t21 -41t6.5 -67.5q1 -60 -9.5 -95.5t-32 -55t-55 -25.5t-78.5 -6q-49 0 -83.5 5t-55.5 18.5t-30.5 37t-9.5 60.5v45zM37 724h113l64 -82l64 82h113l-115 -148h-124z" />
    <glyph glyph-name="Ydieresis" unicode="&#x178;" 
d="M152 234l-152 490h164l67 -326h2l67 326h164l-152 -490v-234h-160v234zM68 883h130v-118h-130v118zM266 883h130v-118h-130v118z" />
    <glyph glyph-name="Zcaron" unicode="&#x17d;" horiz-adv-x="426" 
d="M44 724h345v-126l-185 -468h185v-130h-364v124l186 470h-167v130zM36 908h113l64 -82l64 82h113l-115 -148h-124z" />
    <glyph glyph-name="zcaron" unicode="&#x17e;" horiz-adv-x="353" 
d="M25 111l144 293h-135v106h287v-123l-138 -281h145v-106h-303v111zM0 724h113l64 -82l64 82h113l-115 -148h-124z" />
    <glyph glyph-name="florin" unicode="&#x192;" horiz-adv-x="500" 
d="M-15 -55q13 -7 26 -11t27 -4q29 0 43 24t23 81l51 328h-81v112h94q10 66 26 114.5t42.5 80t67 47t100.5 15.5q16 0 35 -2.5t33 -4.5v-118q-11 2 -22.5 4.5t-24.5 2.5q-40 0 -62 -30.5t-33 -108.5h89v-112h-103l-48 -310q-10 -68 -26 -114.5t-39 -74.5t-54.5 -40
t-73.5 -12q-30 0 -55 3t-35 8v122z" />
    <glyph glyph-name="circumflex" unicode="&#x2c6;" horiz-adv-x="242" 
d="M59 724h124l115 -148h-113l-64 82l-64 -82h-113z" />
    <glyph glyph-name="caron" unicode="&#x2c7;" horiz-adv-x="242" 
d="M-56 724h113l64 -82l64 82h113l-115 -148h-124z" />
    <glyph glyph-name="breve" unicode="&#x2d8;" horiz-adv-x="242" 
d="M18 724q8 -40 32 -54t71 -15q47 1 71 15t32 54h64q-9 -72 -52 -108.5t-115 -36.5t-115 36.5t-52 108.5h64z" />
    <glyph glyph-name="dotaccent" unicode="&#x2d9;" horiz-adv-x="242" 
d="M56 724h130v-118h-130v118z" />
    <glyph glyph-name="ring" unicode="&#x2da;" horiz-adv-x="242" 
d="M14 683q0 52 31 79.5t76 27.5t76 -27.5t31 -79.5q0 -48 -29.5 -77.5t-77.5 -29.5t-77.5 29.5t-29.5 77.5zM74 683q0 -20 13.5 -33.5t33.5 -13.5t33.5 13.5t13.5 33.5t-13.5 33.5t-33.5 13.5t-33.5 -13.5t-13.5 -33.5z" />
    <glyph glyph-name="ogonek" unicode="&#x2db;" horiz-adv-x="242" 
d="M237 -174q-14 -17 -40.5 -35.5t-56.5 -18.5q-36 0 -57.5 21.5t-21.5 63.5q0 25 12 47t30 40.5t39 32.5t39 23h14q-11 -11 -23 -25.5t-22 -30.5t-16.5 -33.5t-6.5 -33.5q0 -25 13 -41t37 -16q18 0 30.5 6.5t24.5 15.5z" />
    <glyph glyph-name="tilde" unicode="&#x2dc;" horiz-adv-x="242" 
d="M-62 594q11 57 38 91t79 34q20 0 40 -6t38 -13t33 -13t26 -6q17 0 30.5 11.5t16.5 31.5h65q-8 -57 -36 -90.5t-72 -33.5q-24 0 -44 5.5t-38 12t-34.5 12t-33.5 5.5q-18 0 -30 -11t-14 -30h-64z" />
    <glyph glyph-name="hungarumlaut" unicode="&#x2dd;" horiz-adv-x="242" 
d="M31 724h155l-148 -148h-99zM231 724h155l-148 -148h-99z" />
    <glyph glyph-name="endash" unicode="&#x2013;" horiz-adv-x="500" 
d="M0 321h500v-112h-500v112z" />
    <glyph glyph-name="emdash" unicode="&#x2014;" horiz-adv-x="1000" 
d="M0 321h1000v-112h-1000v112z" />
    <glyph glyph-name="quoteleft" unicode="&#x2018;" horiz-adv-x="222" 
d="M37 584q0 39 12 66t32 43.5t45.5 23.5t53.5 7v-76q-31 -5 -45 -18.5t-14 -44.5q0 -5 0.5 -9.5t0.5 -9.5h63v-154h-148v172z" />
    <glyph glyph-name="quoteright" unicode="&#x2019;" horiz-adv-x="222" 
d="M37 724h148v-172q0 -39 -12 -65.5t-32 -43t-45.5 -24t-53.5 -7.5v76q31 5 45 18.5t14 44.5q0 5 -0.5 9.5t-0.5 9.5h-63v154z" />
    <glyph glyph-name="quotesinglbase" unicode="&#x201a;" horiz-adv-x="222" 
d="M42 -82q31 5 45 18.5t14 44.5q0 5 -0.5 9.5t-0.5 9.5h-63v154h148v-172q0 -39 -12 -66t-32 -43.5t-45.5 -23.5t-53.5 -7v76z" />
    <glyph glyph-name="quotedblleft" unicode="&#x201c;" horiz-adv-x="407" 
d="M226 584q0 39 12 66t32 43.5t45.5 23.5t53.5 7v-76q-31 -5 -45 -18.5t-14 -44.5v-9.5t1 -9.5h63v-154h-148v172zM33 584q0 39 12 66t32 43.5t45.5 23.5t53.5 7v-76q-31 -5 -45 -18.5t-14 -44.5v-9.5t1 -9.5h63v-154h-148v172z" />
    <glyph glyph-name="quotedblright" unicode="&#x201d;" horiz-adv-x="407" 
d="M38 488q31 5 45 18.5t14 44.5v9.5t-1 9.5h-63v154h148v-172q0 -39 -12 -65.5t-32 -43t-45.5 -24t-53.5 -7.5v76zM231 488q31 5 45 18.5t14 44.5v9.5t-1 9.5h-63v154h148v-172q0 -39 -12 -65.5t-32 -43t-45.5 -24t-53.5 -7.5v76z" />
    <glyph glyph-name="quotedblbase" unicode="&#x201e;" horiz-adv-x="407" 
d="M226 154h148v-172q0 -39 -12 -66t-32 -43.5t-45.5 -23.5t-53.5 -7v76q31 5 45 18.5t14 44.5v9.5t-1 9.5h-63v154zM33 154h148v-172q0 -39 -12 -66t-32 -43.5t-45.5 -23.5t-53.5 -7v76q31 5 45 18.5t14 44.5v9.5t-1 9.5h-63v154z" />
    <glyph glyph-name="dagger" unicode="&#x2020;" horiz-adv-x="408" 
d="M33 546h97v178h148v-178h97v-136h-97v-410h-148v410h-97v136z" />
    <glyph glyph-name="daggerdbl" unicode="&#x2021;" horiz-adv-x="408" 
d="M45 293h85v143h-85v136h85v152h148v-152h85v-136h-85v-143h85v-136h-85v-157h-148v157h-85v136z" />
    <glyph glyph-name="bullet" unicode="&#x2022;" horiz-adv-x="500" 
d="M69 362q0 38 14 70.5t39 57.5t58 39t70 14q38 0 70.5 -14t57.5 -39t39 -57.5t14 -70.5q0 -37 -14 -70t-39 -58t-57.5 -39t-70.5 -14q-37 0 -70 14t-58 39t-39 58t-14 70z" />
    <glyph glyph-name="ellipsis" unicode="&#x2026;" horiz-adv-x="1000" 
d="M93 154h148v-154h-148v154zM426 154h148v-154h-148v154zM759 154h148v-154h-148v154z" />
    <glyph glyph-name="perthousand" unicode="&#x2030;" horiz-adv-x="1000" 
d="M828 111q0 -11 5 -15t22 -4t22 4t5 15v203q0 11 -5 15t-22 4t-22 -4t-5 -15v-203zM728 316q0 38 9 62t26 37.5t40.5 18.5t51.5 5q34 0 58 -5t39.5 -18.5t22.5 -37.5t7 -62v-197q0 -65 -29 -96t-98 -31q-33 0 -56.5 5.5t-39.5 20t-23.5 39t-7.5 62.5v197zM433 316
q0 38 9 62t26 37.5t40.5 18.5t51.5 5q34 0 58 -5t39.5 -18.5t22.5 -37.5t7 -62v-197q0 -65 -29 -96t-98 -31q-33 0 -56.5 5.5t-39.5 20t-23.5 39t-7.5 62.5v197zM533 111q0 -11 5 -15t22 -4t22 4t5 15v203q0 11 -5 15t-22 4t-22 -4t-5 -15v-203zM18 609q0 38 9 62t26 37.5
t40.5 18.5t51.5 5q34 0 58 -5t39.5 -18.5t22.5 -37.5t7 -62v-197q0 -65 -29 -96t-98 -31q-33 0 -56.5 5.5t-39.5 20t-23.5 39t-7.5 62.5v197zM118 404q0 -11 5 -15t22 -4t22 4t5 15v203q0 11 -5 15t-22 4t-22 -4t-5 -15v-203zM498 731h104l-395 -737h-104z" />
    <glyph glyph-name="guilsinglleft" unicode="&#x2039;" horiz-adv-x="333" 
d="M46 265l88 177h153l-88 -177l88 -177h-153z" />
    <glyph glyph-name="guilsinglright" unicode="&#x203a;" horiz-adv-x="333" 
d="M134 265l-88 177h153l88 -177l-88 -177h-153z" />
    <glyph glyph-name="fraction" unicode="&#x2044;" horiz-adv-x="167" 
d="M229 732h104l-395 -740h-104z" />
    <glyph glyph-name="trademark" unicode="&#x2122;" horiz-adv-x="1000" 
d="M830 594v-1l-2 1l-98 -282h-82l-98 282h-2v-282h-106v412h153l94 -252l94 252h153v-412h-106v282zM158 636h-114v88h340v-88h-114v-324h-112v324z" />
    <glyph glyph-name="minus" unicode="&#x2212;" horiz-adv-x="600" 
d="M47 309h506v-112h-506v112z" />
    <glyph glyph-name="fi" unicode="&#xfb01;" horiz-adv-x="537" 
d="M10 510h42v102q0 28 11 50t30.5 37.5t45 24t54.5 8.5q20 0 40 -0.5t40 -3.5v-104q-4 1 -7 1.5t-7 0.5h-7q-24 0 -38 -9t-14 -30v-77h71v-112h-71v-398h-148v398h-42v112zM342 510h148v-510h-148v510zM342 724h148v-118h-148v118z" />
    <glyph glyph-name="fl" unicode="&#xfb02;" horiz-adv-x="537" 
d="M342 724h148v-724h-148v724zM10 510h42v102q0 28 11 50t30.5 37.5t45 24t54.5 8.5q20 0 40 -0.5t40 -3.5v-104q-4 1 -7 1.5t-7 0.5h-7q-24 0 -38 -9t-14 -30v-77h71v-112h-71v-398h-148v398h-42v112z" />
  </font>
</defs>
</svg>
