<?xml version="1.0" standalone="no"?>
<!DOCTYPE svg PUBLIC "-//W3C//DTD SVG 1.1//EN" "http://www.w3.org/Graphics/SVG/1.1/DTD/svg11.dtd" >
<svg xmlns="http://www.w3.org/2000/svg" xmlns:xlink="http://www.w3.org/1999/xlink" version="1.1">
<metadata>
Created by FontForge 20150102 at Wed Feb  4 21:16:50 2015
 By uniteet7
 Copyright (c) 1987 Adobe Systems Incorporated.  All rights reserved.
</metadata>
<defs>
<font id="EurostileBoldOblique" horiz-adv-x="720" >
  <font-face 
    font-family="EurostileBoldOblique"
    font-weight="700"
    font-style="oblique"
    font-stretch="normal"
    units-per-em="1000"
    panose-1="0 0 0 0 0 0 0 0 0 0"
    ascent="750"
    descent="-250"
    x-height="525"
    cap-height="750"
    bbox="-173 -233 1324.23 986"
    underline-thickness="75"
    underline-position="-38"
    slope="-12"
    unicode-range="U+000D-FB02"
  />
<missing-glyph horiz-adv-x="360" 
 />
    <glyph glyph-name=".notdef" horiz-adv-x="360" 
 />
    <glyph glyph-name=".null" horiz-adv-x="0" 
 />
    <glyph glyph-name=".null" horiz-adv-x="0" 
 />
    <glyph glyph-name="nonmarkingreturn" unicode="&#xd;" horiz-adv-x="250" 
 />
    <glyph glyph-name="space" unicode=" " horiz-adv-x="360" 
 />
    <glyph glyph-name="exclam" unicode="!" horiz-adv-x="349" 
d="M256 0h-162l37 174h162zM324 295h-172l89 455h186z" />
    <glyph glyph-name="quotedbl" unicode="&#x22;" horiz-adv-x="442" 
d="M338 750l-27 -130l-70 -129h-54l-14 129l27 130h138zM560 750l-27 -130l-70 -129h-54l-14 129l27 130h138z" />
    <glyph glyph-name="numbersign" unicode="#" 
d="M547 750l-83 -210h101l83 210h105l-83 -210h80l-25 -115h-98l-51 -130h94l-25 -115h-118l-71 -180h-106l71 180h-101l-71 -180h-106l71 180h-91l25 115h113l51 130h-96l25 115h117l83 210h106zM367 295h102l53 130h-104z" />
    <glyph glyph-name="dollar" unicode="$" 
d="M502 453q67 -5 119 -12.5t85.5 -28.5t44.5 -62.5t-4 -115.5q-15 -69 -41 -115t-67 -74t-98.5 -39.5t-135.5 -11.5l-20 -92h-97l20 92q-69 0 -120.5 9t-82 36t-39 77t9.5 131h180q-8 -35 -6 -54.5t12.5 -29t30.5 -11.5t48 -2h97q27 0 48 1t36.5 8.5t26 23t16.5 44.5
q5 21 3.5 34t-12 21t-31 12t-55.5 7l-96 7q-89 6 -140.5 19.5t-75.5 38.5t-24.5 64t11.5 96q15 72 38.5 116.5t61 70t92 34.5t133.5 9l17 82h97l-17 -82q58 -3 105.5 -10.5t77.5 -30.5t40 -67.5t-6 -121.5h-175q5 25 3.5 40t-11 22.5t-26.5 9.5t-41 2h-97q-24 0 -42 -2
t-32 -9.5t-23.5 -22t-14.5 -40.5q-4 -20 -3 -32t10.5 -18.5t27.5 -9t47 -4.5z" />
    <glyph glyph-name="percent" unicode="%" horiz-adv-x="907" 
d="M299 0h-120l602 750h120zM912 130q-11 -45 -26 -72t-38 -41t-55 -18.5t-75 -4.5q-44 0 -73 4t-45 18.5t-19 41t5 71.5l24 110q10 45 24.5 72t36.5 41t52.5 18.5t74.5 4.5t74 -4t47 -18.5t21 -41t-5 -71.5zM832 228q5 22 5 34t-6 18t-19 7t-33 1q-18 0 -30 -1t-19.5 -7
t-12.5 -18t-10 -34l-17 -83q-5 -24 -5.5 -37t4.5 -19t16.5 -7t29.5 -1q19 0 32 1t22 7t15 19t11 37zM457 511q-11 -45 -26 -72t-38 -41t-55 -18.5t-75 -4.5q-44 0 -73 4t-45 18.5t-19 41t5 71.5l24 110q10 45 24.5 72t36.5 41t52.5 18.5t74.5 4.5t74 -4t47 -18.5t21 -41
t-5 -71.5zM377 609q5 22 5 34t-6 18t-19 7t-33 1q-18 0 -30 -1t-19.5 -7t-12.5 -18t-10 -34l-17 -83q-5 -24 -5.5 -37t4.5 -19t16.5 -7t29.5 -1q19 0 32 1t22 7t15 19t11 37z" />
    <glyph glyph-name="ampersand" unicode="&#x26;" horiz-adv-x="774" 
d="M356 341q-18 -2 -29.5 -11t-18 -21.5t-10 -27.5t-6.5 -29q-8 -38 -3 -58t21 -29t42 -10.5t61 -1.5q22 0 50 2t56 14zM615 62q-24 -25 -52.5 -39t-59 -20.5t-62.5 -7.5t-62 -1q-72 0 -130.5 6.5t-96.5 30.5t-52 71.5t3 129.5q8 36 20 70.5t32 62.5t50 45t73 18
q-14 15 -22.5 28t-12 27.5t-2 31.5t6.5 40q14 65 38 104t60 61t84 29t111 7t110.5 -6.5t76 -28t36.5 -62t-7 -108.5l-8 -38h-172q8 32 9.5 50t-5.5 28t-24 13t-48 3q-38 0 -54.5 -12.5t-25.5 -53.5q-5 -26 2 -41.5t22 -32.5l149 -164l21 99h159l-31 -147q-4 -18 -13.5 -37
t-21.5 -36l67 -75l-112 -107z" />
    <glyph glyph-name="quotesingle" unicode="'" horiz-adv-x="220" 
d="M338 750l-27 -130l-70 -129h-54l-14 129l27 130h138z" />
    <glyph glyph-name="parenleft" unicode="(" horiz-adv-x="385" 
d="M149 432q18 80 35 140.5t51 101.5t93 61.5t161 20.5l-35 -164q-28 0 -46 -8t-29.5 -24t-19 -40t-13.5 -55l-69 -324q-5 -24 -8.5 -47t0.5 -40.5t18 -28.5t44 -11l-35 -164q-97 0 -148 17t-69.5 55t-11.5 98.5t26 147.5z" />
    <glyph glyph-name="parenright" unicode=")" horiz-adv-x="385" 
d="M364 168q-19 -87 -37.5 -147.5t-53 -98.5t-92.5 -55t-156 -17l35 164q30 0 48.5 11t30 28.5t18 40.5t11.5 47l69 324q6 31 9 55t-1.5 40t-19 24t-42.5 8l35 164q101 0 151.5 -20.5t67 -61.5t8 -101.5t-24.5 -140.5z" />
    <glyph glyph-name="asterisk" unicode="*" 
d="M552 525l52 -107l-85 -56l-54 112l-108 -111l-64 55l101 108l-117 46l50 88l117 -45l28 135h93l-28 -135l139 45l9 -96z" />
    <glyph glyph-name="plus" unicode="+" horiz-adv-x="600" 
d="M354 525h115l-41 -191h193l-24 -115h-193l-43 -199h-115l43 199h-192l24 115h192z" />
    <glyph glyph-name="comma" unicode="," horiz-adv-x="360" 
d="M293 168l-36 -168q-7 -39 -20.5 -66t-36.5 -44t-58.5 -24.5t-86.5 -7.5l16 75q43 1 60.5 15t25.5 52h-62l36 168h162z" />
    <glyph glyph-name="hyphen" unicode="-" horiz-adv-x="272" 
d="M348 358l-35 -164h-272l35 164h272z" />
    <glyph glyph-name="period" unicode="." horiz-adv-x="360" 
d="M252 0h-162l37 174h162z" />
    <glyph glyph-name="slash" unicode="/" horiz-adv-x="637" 
d="M143 -113h-137l624 863h137z" />
    <glyph glyph-name="zero" unicode="0" 
d="M521 756q59 0 114 -5.5t93 -31t53.5 -78.5t-4.5 -148l-50 -236q-21 -95 -58.5 -148t-86.5 -78.5t-106.5 -31t-116.5 -5.5q-60 0 -114.5 5.5t-93 31t-54 78.5t5.5 148l50 236q20 95 58 148t87 78.5t106 31t117 5.5zM486 591q-38 0 -62 -2.5t-40 -14.5t-27 -38.5t-21 -74.5
l-37 -172q-10 -48 -10.5 -74.5t10.5 -38.5t34.5 -14.5t60.5 -2.5t61 2.5t40.5 14.5t27 38.5t20.5 74.5l37 172q10 48 10.5 74.5t-10.5 38.5t-34 14.5t-60 2.5z" />
    <glyph glyph-name="one" unicode="1" 
d="M558 0h-200l122 573l-232 -177l-86 128l321 226h234z" />
    <glyph glyph-name="two" unicode="2" 
d="M654 0h-592l33 156q14 65 32 106t52 67.5t89.5 44.5t145.5 38q50 11 79 18t44.5 17t22.5 25.5t13 44.5q6 28 4.5 44.5t-12 25.5t-30 11t-49.5 2q-35 0 -56 -2.5t-34 -11t-20.5 -26t-14.5 -47.5l-8 -37h-190l8 37q16 77 45.5 124.5t73 73.5t100.5 35.5t129 9.5
q66 0 118.5 -7t86.5 -31.5t45 -71.5t-5 -126q-14 -63 -32.5 -103t-48 -65.5t-72.5 -42t-105 -32.5q-60 -15 -99 -22t-63.5 -16t-37.5 -27t-21 -56h402z" />
    <glyph glyph-name="three" unicode="3" 
d="M408 456h48q36 0 57.5 2.5t33.5 9t17.5 18.5t9.5 31q5 23 6 39t-7 26t-28 14t-58 4q-28 0 -48 -1.5t-35 -9.5t-25 -26t-17 -50l-3 -15h-190l5 26q17 80 47.5 126.5t75 70t102.5 29.5t130 6q45 0 94.5 -4.5t87.5 -24.5t57 -60.5t4 -112.5q-7 -31 -18 -60t-29 -51.5
t-43.5 -37.5t-60.5 -20l-2 -8q36 -1 57 -14.5t30.5 -35t9.5 -50t-7 -61.5q-16 -73 -47.5 -116.5t-76 -67t-100 -31t-118.5 -7.5q-66 0 -121.5 5.5t-93 28.5t-52.5 69t2 126l9 40h190l-5 -25q-7 -31 -3 -49t17 -26.5t34 -10.5t47 -2q31 0 53 2t37.5 11t25.5 27t17 51
q4 19 4 32.5t-10 21.5t-32 12t-61 4h-48z" />
    <glyph glyph-name="four" unicode="4" 
d="M680 293h64l-31 -145h-64l-31 -148h-190l31 148h-392l46 214l369 388h295zM555 596h-7l-293 -303h235z" />
    <glyph glyph-name="five" unicode="5" 
d="M301 218q-3 -24 1.5 -37.5t15.5 -20t27.5 -8.5t37.5 -2q33 0 55 2t37.5 11.5t25 29.5t17.5 56t10.5 59t-5.5 35.5t-30 17.5t-64 5q-24 0 -40.5 -0.5t-28.5 -4t-20 -10.5t-15 -21h-172l89 420h542l-30 -145h-370l-31 -144q23 20 40 31t35.5 16.5t42 6.5t59.5 1
q68 0 110 -14t63 -44t22 -76.5t-13 -111.5q-19 -90 -47.5 -144t-71.5 -83.5t-102.5 -39t-140.5 -9.5q-70 0 -120.5 9t-81 33.5t-40.5 68t3 113.5h190z" />
    <glyph glyph-name="six" unicode="6" 
d="M407 299q-28 0 -47 -2t-31.5 -9t-20 -20t-11.5 -35q-6 -26 -6 -42t8 -25t26 -12.5t50 -3.5q40 0 64.5 2t39 10.5t22 26t13.5 48.5q5 24 1.5 36.5t-17 18t-36 6.5t-55.5 1zM581 521q6 28 3.5 44t-13.5 23.5t-30.5 9.5t-46.5 2q-35 0 -58 -2t-38.5 -12.5t-26 -31
t-18.5 -58.5l-25 -119h2q16 29 32.5 44.5t35 23t39.5 9t46 1.5q66 0 114.5 -6t77.5 -28t37.5 -65t-7.5 -116q-17 -78 -45 -126.5t-69.5 -75t-97.5 -35.5t-128 -9q-93 0 -150 12t-84.5 45t-28.5 92t19 154l40 188q19 87 47.5 140t72.5 82.5t104 39t142 9.5q58 0 110 -4.5
t88.5 -24t52 -60.5t0.5 -114l-7 -32h-190z" />
    <glyph glyph-name="seven" unicode="7" 
d="M748 582l-373 -582h-210l378 582h-361l35 168h566z" />
    <glyph glyph-name="eight" unicode="8" 
d="M424 309q-35 0 -57.5 -2.5t-36.5 -11t-22.5 -24t-13.5 -42.5q-11 -49 10 -64t86 -15q42 0 66 3.5t37.5 12.5t19.5 25t11 41q6 26 5.5 41.5t-11 23.5t-33 10t-61.5 2zM359 -6q-60 0 -114 6t-91.5 27.5t-54 64t-0.5 115.5q7 32 21.5 62.5t36 54.5t50.5 39.5t65 16.5l1 7
q-65 17 -83 58t-2 113q14 69 47.5 108.5t78.5 59.5t98.5 25t108.5 5q60 0 112.5 -5t88 -26t50 -62.5t-0.5 -113.5q-8 -38 -18.5 -64t-27.5 -44t-41.5 -30.5t-61.5 -23.5l-1 -7q35 -5 56 -20t30.5 -38t9 -52.5t-7.5 -62.5q-16 -74 -49 -116.5t-79 -64t-102.5 -27t-119.5 -5.5
zM457 454q31 0 52 2.5t34 10.5t21 23.5t13 41.5q4 20 4.5 33t-8.5 20.5t-29 11t-56 3.5q-31 0 -51 -2.5t-33 -10t-20.5 -22.5t-12.5 -40q-6 -24 -3 -38t13.5 -21.5t29 -9.5t46.5 -2z" />
    <glyph glyph-name="nine" unicode="9" 
d="M470 451q28 0 46.5 2t31 9t20 20t12.5 35q5 26 5.5 42t-7.5 25t-26.5 12.5t-49.5 3.5q-41 0 -65 -2t-38.5 -10.5t-22 -26t-14.5 -48.5q-5 -24 -1 -36.5t17 -18t36 -6.5t56 -1zM296 229q-6 -28 -3.5 -44t13 -23.5t30 -9.5t47.5 -2q34 0 57 2t39 12.5t26 31.5t18 58l25 119
h-2q-16 -29 -32.5 -44.5t-35 -23t-39.5 -9t-45 -1.5q-66 0 -115 6t-78 28t-37 65t7 116q17 78 45.5 126.5t70 75t97.5 35.5t128 9q92 0 149 -12t85 -45t28.5 -92t-19.5 -154l-40 -188q-18 -87 -47 -140t-72.5 -82.5t-104 -39t-141.5 -9.5q-58 0 -110.5 4.5t-89 24t-52 60.5
t0.5 114l7 32h190z" />
    <glyph glyph-name="colon" unicode=":" horiz-adv-x="360" 
d="M252 0h-162l37 174h162zM327 351h-162l37 174h162z" />
    <glyph glyph-name="semicolon" unicode=";" horiz-adv-x="360" 
d="M71 -67q43 1 60.5 15t25.5 52h-62l36 168h162l-36 -168q-7 -39 -20.5 -66t-36.5 -44t-58.5 -24.5t-86.5 -7.5zM332 351h-162l37 174h162z" />
    <glyph glyph-name="less" unicode="&#x3c;" horiz-adv-x="600" 
d="M634 397l-363 -119v-2l312 -119l-27 -128l-460 188l26 120l540 188z" />
    <glyph glyph-name="equal" unicode="=" horiz-adv-x="600" 
d="M645 449l-24 -115h-500l24 115h500zM597 219l-25 -115h-500l25 115h500z" />
    <glyph glyph-name="greater" unicode="&#x3e;" horiz-adv-x="600" 
d="M622 337l-26 -120l-540 -188l27 128l364 119v2l-313 119l28 128z" />
    <glyph glyph-name="question" unicode="?" horiz-adv-x="605" 
d="M245 265l7 30q7 35 15 59t22.5 42t38 33t61.5 32l40 17q14 6 26.5 12.5t22.5 15.5t17.5 22.5t12.5 34.5q8 40 -9.5 50.5t-57.5 10.5q-19 0 -36 -1.5t-30.5 -8t-23 -18.5t-13.5 -33l-7 -31h-172l7 31q14 64 41 102t65 58.5t87.5 26.5t109.5 6q57 0 102.5 -6t74 -26.5
t38 -58.5t-3.5 -102q-11 -49 -25.5 -80.5t-36.5 -53.5t-53 -38t-74 -34q-35 -14 -48.5 -26.5t-18.5 -35.5l-7 -30h-172zM356 0h-162l37 174h162z" />
    <glyph glyph-name="at" unicode="@" horiz-adv-x="760" 
d="M366 351q-8 -35 6 -61.5t51 -26.5q23 0 44 9.5t37.5 25t28 35.5t15.5 41q8 37 -8 61t-53 24q-22 0 -42 -9.5t-36 -25t-27.5 -34.5t-15.5 -39zM626 557h95l-111 -292q-5 -14 -8 -25t13 -11t36 13.5t39 37.5t35.5 58t25.5 74q12 61 2 108t-39 79.5t-74.5 49.5t-102.5 17
q-63 0 -119.5 -22.5t-101.5 -62t-76 -93t-45 -115.5q-14 -66 -3 -119.5t42.5 -91t81.5 -58t114 -20.5q57 0 109.5 19t95.5 48h99q-70 -75 -154 -116t-177 -41q-81 0 -145.5 28.5t-106.5 79t-57.5 120t1.5 151.5q17 81 62 150.5t107.5 121.5t138.5 81.5t156 29.5
q63 0 120 -23.5t97.5 -65t59 -98.5t4.5 -124q-12 -57 -43.5 -109.5t-74 -93t-93 -64.5t-101.5 -24q-25 0 -40 12t-8 37l-1 2q-23 -21 -52 -34t-54 -13q-33 0 -60.5 14t-46 38t-25.5 56t1 69q10 44 33 85.5t56.5 73.5t75.5 51.5t88 19.5q39 0 66.5 -14t44.5 -45z" />
    <glyph glyph-name="A" unicode="A" horiz-adv-x="733" 
d="M260 129l-64 -129h-208l384 750h304l69 -750h-204l-12 129h-269zM497 600h-2l-161 -325h186z" />
    <glyph glyph-name="B" unicode="B" horiz-adv-x="738" 
d="M219 750h394q56 0 98.5 -7t69 -27.5t34.5 -58t-5 -99.5q-8 -36 -18.5 -65t-28 -51t-44 -36.5t-64.5 -20.5l-2 -8q41 -3 64 -16t32 -35t7.5 -52t-9.5 -65q-14 -69 -39 -110.5t-60.5 -63t-82.5 -28.5t-107 -7h-398zM356 450h144q26 0 43.5 3t29 10.5t18 22t11.5 36.5
q7 34 -0.5 48.5t-48.5 15.5h-168zM295 164h151q49 0 73.5 15t34.5 61q10 47 -7 59t-66 12h-155z" />
    <glyph glyph-name="C" unicode="C" horiz-adv-x="728" 
d="M755 284l-4 -22q-7 -31 -14.5 -60t-19.5 -56t-31.5 -51.5t-49.5 -45.5t-60.5 -32t-61.5 -16.5t-63 -6t-64 -0.5q-77 0 -140.5 6t-104.5 33.5t-55.5 84.5t7.5 160l41 194q20 93 56 149t88 86t119.5 39.5t150.5 9.5q77 0 132.5 -7t88 -32t41 -74t-8.5 -133l-6 -29h-206
l6 29q3 25 -3.5 39.5t-21 21.5t-35.5 9t-46 2q-43 0 -69.5 -7t-42.5 -23.5t-25.5 -44t-17.5 -67.5l-25 -117q-9 -42 -12.5 -71.5t4.5 -48t31.5 -27t68.5 -8.5q31 0 54.5 2.5t41 11.5t29 28t18.5 52l4 22h206z" />
    <glyph glyph-name="D" unicode="D" horiz-adv-x="775" 
d="M211 750h380q79 0 132.5 -15.5t83.5 -50t36 -90t-11 -135.5l-34 -157q-16 -77 -41.5 -133.5t-65.5 -94t-97 -56t-135 -18.5h-407zM289 174h175q56 0 86 34t42 94l34 157q7 36 6 59t-10.5 36t-27.5 17.5t-45 4.5h-175z" />
    <glyph glyph-name="E" unicode="E" horiz-adv-x="678" 
d="M359 449h320l-29 -139h-320l-31 -146h348l-35 -164h-548l159 750h541l-34 -164h-341z" />
    <glyph glyph-name="F" unicode="F" horiz-adv-x="616" 
d="M348 439h306l-35 -164h-306l-58 -275h-200l159 750h532l-34 -164h-332z" />
    <glyph glyph-name="G" unicode="G" horiz-adv-x="758" 
d="M627 517q4 29 -4.5 44t-25 22t-39 8t-44.5 1q-54 0 -86 -9t-50.5 -28.5t-28.5 -51t-20 -76.5l-26 -122q-11 -50 -8.5 -79t18 -44t43 -19.5t66.5 -4.5q38 0 64 5t43.5 19.5t28.5 39t20 63.5h-138l29 139h341l-28 -131q-20 -95 -46.5 -153.5t-70.5 -91t-111 -43.5t-167 -11
q-89 0 -153.5 10t-102.5 40.5t-48.5 86t8.5 146.5l41 194q20 93 56.5 149t89 86.5t120.5 40t151 9.5q72 0 132.5 -4t99.5 -26.5t53.5 -71t-4.5 -137.5h-203z" />
    <glyph glyph-name="H" unicode="H" horiz-adv-x="788" 
d="M725 0h-200l62 294h-261l-62 -294h-200l159 750h200l-60 -282h261l60 282h200z" />
    <glyph glyph-name="I" unicode="I" horiz-adv-x="324" 
d="M262 0h-200l159 750h200z" />
    <glyph glyph-name="J" unicode="J" horiz-adv-x="602" 
d="M702 750l-110 -519q-16 -75 -38.5 -121.5t-59 -72t-90.5 -34.5t-132 -9t-125 11t-68 39.5t-20.5 79t17.5 128.5l13 62h190l-13 -62q-10 -46 -4 -65t47 -19q23 0 37.5 3t23.5 10.5t13.5 19.5t8.5 30l110 519h200z" />
    <glyph glyph-name="K" unicode="K" horiz-adv-x="752" 
d="M363 468h60l253 282h242l-342 -368l205 -382h-248l-147 294h-60l-62 -294h-200l159 750h200z" />
    <glyph glyph-name="L" unicode="L" horiz-adv-x="585" 
d="M295 174h313l-37 -174h-513l159 750h200z" />
    <glyph glyph-name="M" unicode="M" horiz-adv-x="1049" 
d="M261 0h-200l159 750h317l43 -471h7l236 471h325l-159 -750h-200l142 575h-7l-312 -575h-173l-70 575h-6z" />
    <glyph glyph-name="N" unicode="N" horiz-adv-x="871" 
d="M261 0h-200l159 750h338l93 -576h8l110 576h200l-159 -750h-341l-90 576h-8z" />
    <glyph glyph-name="O" unicode="O" horiz-adv-x="760" 
d="M379 -6q-76 0 -137.5 10.5t-101.5 40.5t-54 83.5t4 140.5l45 212q19 87 56 140.5t89.5 83.5t118.5 40.5t142 10.5t137.5 -10.5t101 -40.5t54 -83.5t-4.5 -140.5l-45 -212q-18 -87 -55 -140.5t-89.5 -83.5t-118.5 -40.5t-142 -10.5zM416 168q39 0 66.5 3.5t47 16t32 37
t21.5 66.5l36 169q9 42 6.5 66t-16.5 36.5t-40 16t-65 3.5t-66.5 -3.5t-46.5 -16t-31.5 -36.5t-22.5 -66l-36 -169q-8 -42 -5.5 -66.5t16 -37t39.5 -16t65 -3.5z" />
    <glyph glyph-name="P" unicode="P" horiz-adv-x="711" 
d="M58 0l159 750h377q70 0 115.5 -15.5t69 -48.5t26.5 -85t-13 -126q-17 -79 -39 -133t-57.5 -87.5t-88.5 -48t-131 -14.5h-177l-41 -192h-200zM473 366q30 1 48.5 4.5t30 14.5t19 32.5t15.5 57.5q6 29 7 48.5t-6 31t-23.5 16.5t-46.5 5h-137l-44 -210h137z" />
    <glyph glyph-name="Q" unicode="Q" horiz-adv-x="796" 
d="M604 302l26 122q11 50 13 81t-9.5 48t-38.5 23t-74 6t-76 -6t-47.5 -23t-29.5 -48t-22 -81l-29 -135q-9 -43 -6 -67.5t18 -36.5t41.5 -14.5t63.5 -2.5q25 0 47.5 1.5t43.5 9.5l-114 87l102 112zM669 58q-31 -23 -66 -36t-70.5 -19t-70.5 -7.5t-65 -1.5q-87 0 -150 12
t-99.5 45t-45.5 92t11 153l34 158q19 92 54 151t86 92.5t118.5 46t153.5 12.5q85 0 147.5 -12.5t99 -46t46.5 -92.5t-9 -151l-40 -188q-8 -35 -17 -58t-20 -42l70 -56l-105 -111z" />
    <glyph glyph-name="R" unicode="R" horiz-adv-x="742" 
d="M491 373q33 0 51 6.5t28.5 20.5t16 36t12.5 54q11 51 -2 68.5t-63 17.5h-155l-43 -203h155zM216 750h386q65 -1 111.5 -10.5t73.5 -34t33.5 -68.5t-8.5 -114q-10 -47 -20 -84t-29.5 -65.5t-52.5 -49t-89 -32.5l-2 -8q62 -2 91.5 -35.5t15.5 -97.5l-32 -151h-200l22 105
q11 42 -2.5 68t-59.5 26h-155l-42 -199h-200z" />
    <glyph glyph-name="S" unicode="S" horiz-adv-x="716" 
d="M500 456q82 -6 133.5 -16.5t77.5 -33t30 -62t-10 -104.5q-10 -46 -23.5 -90.5t-51 -79t-108.5 -55.5t-194 -21q-72 0 -129.5 4.5t-94.5 28.5t-49 74.5t8 142.5h192q-6 -29 -4 -46t14.5 -26t36.5 -11.5t61 -2.5q35 0 59.5 2t40.5 9t25 20.5t14 37.5t5 37.5t-9.5 20
t-30 8.5t-55.5 4l-43 3q-69 5 -122 11t-86 27t-43.5 64.5t6.5 124.5t49 126.5t77.5 68.5t105.5 28.5t134 5.5q61 0 115.5 -3.5t92 -23.5t53 -62.5t-1.5 -120.5l-7 -31h-192q7 29 4 44.5t-15 23t-33 8.5t-51 1q-41 0 -65 -4t-37.5 -12t-19 -20t-9.5 -28q-5 -22 -2 -35t12 -19
t24 -8t34 -4z" />
    <glyph glyph-name="T" unicode="T" horiz-adv-x="595" 
d="M393 0h-200l122 576h-192l37 174h594l-37 -174h-202z" />
    <glyph glyph-name="U" unicode="U" horiz-adv-x="771" 
d="M868 750l-106 -500q-16 -75 -44.5 -124.5t-73 -78.5t-106.5 -41t-144 -12q-113 0 -175.5 14.5t-90 46t-27 80t14.5 115.5l106 500h200l-105 -496q-7 -32 -2 -49.5t20.5 -25.5t39.5 -9.5t56 -1.5t54 2.5t37.5 12t25.5 28.5t17 52l103 487h200z" />
    <glyph glyph-name="V" unicode="V" horiz-adv-x="711" 
d="M679 750h207l-378 -750h-312l-53 750h203l40 -578h6z" />
    <glyph glyph-name="W" unicode="W" horiz-adv-x="1104" 
d="M1071 750h201l-325 -750h-289l-2 470h-8l-209 -470h-286l-3 750h203l-14 -578h7l263 578h208l12 -578h7z" />
    <glyph glyph-name="X" unicode="X" horiz-adv-x="732" 
d="M608 386l141 -386h-233l-88 289l-209 -289h-235l307 386l-134 364h234l77 -275l194 275h230z" />
    <glyph glyph-name="Y" unicode="Y" horiz-adv-x="708" 
d="M506 263l-56 -263h-200l56 263l-163 487h229l73 -289h7l199 289h232z" />
    <glyph glyph-name="Z" unicode="Z" horiz-adv-x="659" 
d="M760 582l-445 -402l-1 -6h359l-37 -174h-613l36 169l439 401l1 6h-331l37 174h590z" />
    <glyph glyph-name="bracketleft" unicode="[" horiz-adv-x="385" 
d="M489 756l-35 -164h-81l-123 -578h81l-35 -164h-271l193 906h271z" />
    <glyph glyph-name="backslash" unicode="\" horiz-adv-x="640" 
d="M373 750l193 -750h-140l-193 750h140z" />
    <glyph glyph-name="bracketright" unicode="]" horiz-adv-x="385" 
d="M25 -150l35 164h81l123 578h-81l35 164h271l-193 -906h-271z" />
    <glyph glyph-name="asciicircum" unicode="^" horiz-adv-x="600" 
d="M103 250l296 500h120l84 -500h-130l-47 338h-2l-191 -338h-130z" />
    <glyph glyph-name="underscore" unicode="_" horiz-adv-x="500" 
d="M468 -150h-500l16 75h500z" />
    <glyph glyph-name="grave" unicode="`" horiz-adv-x="404" 
d="M464 636l-41 -62l-211 71l74 111z" />
    <glyph glyph-name="a" unicode="a" horiz-adv-x="609" 
d="M334 217q-32 0 -55.5 -9.5t-31.5 -45.5q-4 -21 1.5 -33t16 -17t23.5 -6t22 -1q27 0 45.5 2.5t31 9t20 19t11.5 33.5q3 17 -1.5 26.5t-16 14t-28.5 6t-38 1.5zM405 78h-6q-11 -27 -30.5 -43.5t-42.5 -25.5t-48.5 -12t-47.5 -3q-45 0 -79 6.5t-54.5 24.5t-26.5 50t4 82
q10 47 29 79t47.5 51t65.5 27t83 8q19 0 40.5 -1t41 -6t33.5 -17t16 -35h8l18 83q3 18 4.5 33t-3.5 25.5t-19.5 16t-42.5 5.5q-33 0 -54 -11t-29 -46h-172q13 61 40.5 94t65 48t81.5 17.5t90 2.5q66 0 112 -6.5t72 -27.5t31.5 -61t-8.5 -108l-70 -328h-172z" />
    <glyph glyph-name="b" unicode="b" horiz-adv-x="613" 
d="M386 750l-63 -300h8q31 51 73.5 66t89.5 15q108 0 142.5 -52t8.5 -172l-25 -120q-22 -104 -83.5 -148.5t-156.5 -44.5q-28 0 -51.5 4t-40.5 15t-26.5 29.5t-11.5 48.5h-8l-15 -91h-172l159 750h172zM349 126q27 0 45 6t30.5 21t21.5 41.5t18 68.5q7 33 10 58.5t-2 42.5
t-20 26t-45 9q-27 0 -46 -4.5t-33 -19t-25 -41t-20 -71.5q-8 -38 -11.5 -64.5t2 -42.5t23.5 -23t52 -7z" />
    <glyph glyph-name="c" unicode="c" horiz-adv-x="557" 
d="M581 210q-16 -74 -38.5 -116.5t-58.5 -64.5q-35 -23 -84 -29t-119 -6q-76 0 -122 13t-67.5 43.5t-21.5 82t17 129.5q14 67 33.5 117.5t53.5 84t87 50.5t134 17q56 0 102 -5.5t75 -26t39 -61t-5 -110.5h-172q5 21 5 34.5t-7 21.5q-14 15 -65 15q-23 0 -39 -4.5t-28.5 -19
t-22 -41.5t-18.5 -72q-10 -46 -12.5 -73t3 -41t20 -18t39.5 -4q29 0 46.5 4t27.5 13.5t15 26t11 40.5h172z" />
    <glyph glyph-name="d" unicode="d" horiz-adv-x="612" 
d="M558 0h-172l23 91h-8q-27 -59 -70.5 -78t-99.5 -19q-96 0 -138 44.5t-20 148.5l25 120q13 60 33 102.5t49.5 69.5t70 39.5t94.5 12.5q23 0 44.5 -3t38.5 -12t29 -24.5t17 -41.5h8l63 300h172zM261 262q-11 -48 -13 -75t5 -40.5t23.5 -17t43.5 -3.5q26 0 45 4.5t33 19
t24 41t20 71.5q8 38 11.5 64.5t-1.5 42.5t-22.5 23t-51.5 7q-32 0 -51.5 -7t-31.5 -22.5t-19 -42t-15 -65.5z" />
    <glyph glyph-name="e" unicode="e" horiz-adv-x="574" 
d="M441 328q6 29 4 46t-11 25t-25 10t-38 2q-23 0 -39 -3.5t-27 -12.5t-19 -25t-14 -42h169zM580 175q-12 -60 -38.5 -95t-64.5 -55q-38 -19 -86 -25t-105 -6q-78 0 -125 14.5t-69 46t-22 83t16 124.5q16 76 37.5 127.5t56.5 83t88 45t132 13.5q74 0 120.5 -12t69.5 -42.5
t24.5 -82.5t-15.5 -132l-6 -29h-341q-8 -34 -9.5 -57t5 -37t22 -19.5t41.5 -5.5q40 0 65.5 10t34.5 51h169z" />
    <glyph glyph-name="f" unicode="f" horiz-adv-x="393" 
d="M463 399h-117l-85 -399h-172l85 399h-69l27 126h69l10 51q11 52 30.5 86t55 53.5t92 27.5t141.5 7l-27 -131q-16 5 -31 5q-29 0 -45.5 -3t-25.5 -12t-14 -24.5t-10 -40.5l-4 -19h117z" />
    <glyph glyph-name="g" unicode="g" horiz-adv-x="615" 
d="M323 132q32 0 51.5 7.5t32 23.5t20.5 40.5t15 58.5q9 45 10.5 72t-5.5 41.5t-23.5 19t-43.5 4.5q-30 0 -48.5 -4.5t-30.5 -18.5t-20.5 -41.5t-17.5 -72.5q-9 -40 -11 -65.5t4.5 -40t22.5 -19.5t44 -5zM209 -47q-5 -22 -1 -34.5t14 -18.5q9 -5 22.5 -6.5t28.5 -1.5
q28 0 46 3t30 12t19 26t13 44l23 109h-6q-27 -49 -69 -67.5t-92 -18.5q-70 0 -106 20t-49 55t-8 83t17 104q13 64 30 114t45 84.5t72 52.5t112 18q28 0 50.5 -4t39.5 -15t26.5 -30.5t11.5 -49.5h6l14 93h172l-107 -502q-16 -74 -38 -123t-57.5 -78.5t-87.5 -42t-128 -12.5
q-69 0 -114 5.5t-69.5 25t-29 56.5t6.5 99h163z" />
    <glyph glyph-name="h" unicode="h" horiz-adv-x="619" 
d="M320 427h7q32 62 75 83t104 21q87 0 119 -41.5t14 -126.5l-77 -363h-172l69 323q7 38 -3 57t-52 19q-29 0 -48.5 -8t-32 -23t-20 -35t-13.5 -44l-61 -289h-172l159 750h172z" />
    <glyph glyph-name="i" unicode="i" horiz-adv-x="257" 
d="M215 0h-172l112 525h172zM346 618h-172l28 132h172z" />
    <glyph glyph-name="j" unicode="j" horiz-adv-x="242" 
d="M201 -7q-19 -88 -69 -122t-135 -34q-12 0 -24.5 1t-24.5 5l25 118q32 0 43.5 15t15.5 35l110 514h172zM333 618h-172l28 132h172z" />
    <glyph glyph-name="k" unicode="k" horiz-adv-x="592" 
d="M297 328h30l146 197h189l-202 -252l124 -273h-201l-81 213h-30l-45 -213h-172l159 750h172z" />
    <glyph glyph-name="l" unicode="l" horiz-adv-x="289" 
d="M231 0h-172l159 750h172z" />
    <glyph glyph-name="m" unicode="m" horiz-adv-x="929" 
d="M337 525l-16 -74h7q13 23 31.5 38.5t40 24.5t44.5 13t45 4q28 0 54 -3.5t46 -14.5t30.5 -31t6.5 -54h8q9 28 27.5 47.5t41 32t48.5 18t51 5.5q91 0 128.5 -40t17.5 -132l-76 -359h-172l65 304q3 21 5 38t-1.5 30t-15.5 20t-37 7t-42.5 -8t-29 -21.5t-18.5 -32t-12 -39.5
l-63 -298h-172l68 318q3 18 4 33t-3 25.5t-15.5 16.5t-33.5 6q-53 0 -74.5 -27t-31.5 -74l-63 -298h-172l112 525h167z" />
    <glyph glyph-name="n" unicode="n" horiz-adv-x="619" 
d="M341 525l-21 -98h7q32 62 75 83t104 21q87 0 119 -41.5t14 -126.5l-77 -363h-172l69 323q7 38 -3 57t-52 19q-29 0 -48.5 -8t-32 -23t-20 -35t-13.5 -44l-61 -289h-172l112 525h172z" />
    <glyph glyph-name="o" unicode="o" horiz-adv-x="593" 
d="M409 531q82 0 131.5 -11t71.5 -40.5t21 -82t-18 -135.5q-18 -81 -39.5 -133t-56.5 -82t-89 -41.5t-135 -11.5t-129.5 12.5t-71 43t-22 82t17.5 130.5q17 81 38 133t56 82t89 42t136 12zM384 399q-31 0 -50.5 -5.5t-32.5 -20.5t-21.5 -41.5t-17.5 -69.5t-12 -69.5
t3.5 -41.5t24 -20t48.5 -5q30 0 48.5 5t30.5 20t20.5 41.5t17.5 69.5t12 69.5t-2.5 41.5t-22 20.5t-46.5 5.5z" />
    <glyph glyph-name="p" unicode="p" horiz-adv-x="618" 
d="M167 525h172l-22 -83h8q26 54 69 71.5t100 17.5q95 0 137.5 -44.5t20.5 -148.5l-26 -120q-12 -60 -32 -102.5t-49.5 -69.5t-70 -39.5t-94.5 -12.5q-24 0 -45 3t-38 12.5t-28.5 26t-16.5 43.5h-8l-65 -306h-172zM398 399q-28 0 -46 -6t-30.5 -21t-21 -41.5t-17.5 -68.5
q-7 -33 -10.5 -58.5t1.5 -42.5t20.5 -26t45.5 -9q26 0 45.5 4.5t33.5 19t24.5 41t20.5 71.5q8 38 11.5 64.5t-2.5 42.5t-23.5 23t-51.5 7z" />
    <glyph glyph-name="q" unicode="q" horiz-adv-x="619" 
d="M342 -227l65 306h-8q-16 -27 -35 -43.5t-40 -26t-43.5 -12.5t-45.5 -3q-108 0 -142.5 52t-9.5 172l26 120q22 104 83.5 148.5t156.5 44.5q56 0 91.5 -18t39.5 -71h8l14 83h172l-160 -752h-172zM380 399q-28 0 -46 -6t-30.5 -21t-21 -41.5t-17.5 -68.5q-7 -33 -10.5 -58.5
t1.5 -42.5t20.5 -26t45.5 -9q26 0 45.5 4.5t33.5 19t24.5 41t20.5 71.5q8 38 11.5 64.5t-2.5 42.5t-23.5 23t-51.5 7z" />
    <glyph glyph-name="r" unicode="r" horiz-adv-x="501" 
d="M403 321q3 14 5.5 28t1 25t-9.5 18t-25 7q-39 0 -57 -26t-25 -58l-67 -315h-172l112 525h167l-17 -77h7q27 45 64.5 64t85.5 19q45 0 67.5 -17t29.5 -44t3 -62t-11 -71l-9 -41h-155z" />
    <glyph glyph-name="s" unicode="s" horiz-adv-x="578" 
d="M439 376q1 17 -4.5 25.5t-14.5 13t-20.5 5t-21.5 0.5q-33 0 -52 -2t-28.5 -7t-12.5 -13t-6 -20q-2 -10 -2 -18t7.5 -14t25 -9.5t50.5 -4.5q66 -1 113.5 -6t75.5 -21t36.5 -47.5t-3.5 -86.5q-12 -58 -40 -92.5t-67.5 -53.5t-87.5 -25t-99 -6t-97 2t-78.5 18t-46 50.5
t0.5 99.5h172q-5 -22 0 -34t15.5 -17.5t26 -6.5t30.5 -1q30 0 48 1.5t28.5 6t15.5 14t8 24.5q4 20 0.5 30.5t-13.5 15t-26.5 5.5t-39.5 1q-82 0 -130 9.5t-72 28.5t-27 48.5t5 69.5q14 63 41 98t65 51.5t85.5 19.5t102.5 3q36 0 76 -2t72 -14.5t49.5 -39t6.5 -74.5l-5 -25
h-162z" />
    <glyph glyph-name="t" unicode="t" horiz-adv-x="485" 
d="M534 399h-199l-50 -235q-4 -23 0.5 -33.5t29.5 -10.5q16 0 26 5.5t16.5 15t9.5 22t7 25.5l7 28h137l-10 -47q-11 -54 -29 -88t-45 -53.5t-65.5 -26.5t-90.5 -7q-42 0 -77.5 4.5t-59.5 19.5t-34 44t1 78l55 259h-64l27 126h64l23 111h172l-23 -111h199z" />
    <glyph glyph-name="u" unicode="u" horiz-adv-x="615" 
d="M388 0l27 101h-8q-31 -61 -77.5 -84t-101.5 -23q-39 0 -70 9t-50.5 29t-25.5 53t4 81l77 359h172l-67 -313q-4 -18 -5.5 -33.5t2.5 -27.5t15 -18.5t33 -6.5q17 0 35.5 4.5t34 14t27.5 24t16 33.5l69 323h172l-112 -525h-167z" />
    <glyph glyph-name="v" unicode="v" horiz-adv-x="530" 
d="M408 0h-270l-33 525h180l7 -410h5l174 410h178z" />
    <glyph glyph-name="w" unicode="w" horiz-adv-x="838" 
d="M745 0h-247l5 374h-6l-151 -374h-250l17 525h165l-30 -410h8l175 410h201l-1 -410h7l149 410h162z" />
    <glyph glyph-name="x" unicode="x" horiz-adv-x="545" 
d="M458 278l93 -278h-202l-38 173l-110 -173h-207l215 278l-82 247h199l29 -145l94 145h200z" />
    <glyph glyph-name="y" unicode="y" horiz-adv-x="533" 
d="M398 -46q-22 -52 -45.5 -87.5t-54 -57.5t-71 -32t-95.5 -10q-15 0 -29 1t-29 2l25 119q8 -1 15 -1.5t15 -0.5q27 0 46 9t32 25t21.5 36t14.5 43h-94l-44 525h180l13 -427h2l176 427h176z" />
    <glyph glyph-name="z" unicode="z" horiz-adv-x="496" 
d="M587 525l-29 -136l-311 -269h254l-26 -120h-454l30 142l304 263h-229l26 120h435z" />
    <glyph glyph-name="braceleft" unicode="{" horiz-adv-x="385" 
d="M103 374q8 0 22 0.5t28.5 5t26 13.5t15.5 25l43 205q8 35 26 60t39 41t42 24t35 8h142l-28 -132h-37q-18 0 -28 -4.5t-16 -11.5t-8.5 -16.5t-4.5 -18.5l-37 -171q-6 -28 -20.5 -46t-32 -28t-34.5 -14.5t-29 -5.5v-2q11 -1 26.5 -4t28.5 -13t19.5 -30t-0.5 -55l-36 -171
q-2 -9 -3 -18.5t1.5 -16.5t11 -11.5t25.5 -4.5h37l-28 -132h-142q-13 0 -31 8t-32 24t-21.5 41t-0.5 60l44 205q4 21 -3.5 32t-20 16t-26 5.5t-21.5 0.5z" />
    <glyph glyph-name="bar" unicode="|" horiz-adv-x="600" 
d="M358 0h-115l159 750h115z" />
    <glyph glyph-name="braceright" unicode="}" horiz-adv-x="385" 
d="M412 242q-7 0 -21 -0.5t-28.5 -5.5t-27 -16t-16.5 -32l-44 -205q-7 -35 -25 -60t-39 -41t-42 -24t-35 -8h-142l28 132h37q17 0 27.5 4.5t16.5 11.5t8.5 16.5t4.5 18.5l36 171q9 35 23.5 55t32 30t34 13t28.5 4v2q-11 1 -26 5.5t-28 14.5t-20 28t-2 46l37 171q2 9 3 18.5
t-1.5 16.5t-11 11.5t-25.5 4.5h-37l28 132h142q13 0 31 -8t32 -24t21.5 -41t-0.5 -60l-43 -205q-4 -16 4.5 -25t21 -13.5t26 -5t20.5 -0.5z" />
    <glyph glyph-name="asciitilde" unicode="~" horiz-adv-x="600" 
d="M626 359q-7 -33 -20 -69t-34 -66t-50 -50t-67 -20q-30 0 -68 29l-106 80q-27 19 -46 19q-10 0 -17 -9t-12.5 -22.5t-9.5 -28.5t-8 -27h-97q7 33 20.5 69.5t34.5 67t51 50.5t70 20q16 0 31 -5t32 -18l94 -78q16 -14 29 -20t24 -6q10 0 18.5 8.5t15.5 21.5t12 27.5t6 26.5
h97z" />
    <glyph glyph-name="exclamdown" unicode="&#xa1;" horiz-adv-x="349" 
d="M331 351h-162l37 174h162zM137 228h172l-89 -455h-186z" />
    <glyph glyph-name="cent" unicode="&#xa2;" 
d="M317 -11l19 90q-69 0 -107.5 17.5t-54 52.5t-12 87.5t18.5 121.5q14 64 31.5 113t47 82.5t75 50.5t116.5 17l16 75h76l-16 -75q56 0 93 -10.5t56.5 -34.5t22 -63t-9.5 -96h-160q5 34 -7 53t-61 19q-25 0 -41.5 -5t-27.5 -19t-19 -40t-17 -67q-11 -50 -15 -79.5t0 -44.5
t18.5 -19t42.5 -4q50 0 71 19.5t31 69.5h160q-13 -59 -28.5 -101t-42.5 -68.5t-70 -39t-111 -12.5l-19 -90h-76z" />
    <glyph glyph-name="sterling" unicode="&#xa3;" 
d="M612 501q6 28 6 45t-7 26q-7 10 -22 13.5t-39 3.5q-26 0 -44.5 -4t-30.5 -14t-19.5 -27t-13.5 -44l-17 -79h190l-30 -145h-190q-6 -24 -11 -41.5t-12.5 -30.5t-18.5 -22t-29 -17l-1 -5h413l-34 -160h-632l34 160q26 0 41.5 9.5t25 25.5t14.5 37t10 44h-89l30 145h89
l23 108q14 60 36 103t60 70.5t97 40.5t146 13q84 0 135.5 -10.5t77 -36t27.5 -68t-11 -105.5l-8 -35h-196z" />
    <glyph glyph-name="currency" unicode="&#xa4;" 
d="M655 171l-86 -68l-64 81q-22 -10 -47.5 -22t-68.5 -11q-27 2 -53 10t-43 25l-102 -84l-56 70l99 83q-16 27 -18 58.5t6 62t23 56t33 39.5l-66 81l89 72l64 -82q22 14 54 24t66 8q33 -2 59.5 -9.5t41.5 -20.5l100 82l57 -71l-102 -83q5 -16 12.5 -38t1.5 -60
q-9 -46 -30 -75.5t-33 -46.5zM340 358q-6 -39 16.5 -65.5t59.5 -26.5q26 0 46.5 9.5t35 24t22.5 30.5t10 28q6 18 3 36.5t-12.5 32.5t-25.5 23t-38 9t-42 -9t-36 -23t-26 -32.5t-13 -36.5z" />
    <glyph glyph-name="yen" unicode="&#xa5;" 
d="M820 558l-28 -132h-166l-59 -78h208l-28 -132h-245l-46 -216h-200l46 216h-237l28 132h201l-24 78h-160l28 132h91l-61 192h217l66 -289h7l192 289h220l-144 -192h94z" />
    <glyph glyph-name="brokenbar" unicode="&#xa6;" horiz-adv-x="600" 
d="M358 0h-115l64 300h115zM454 450h-115l63 300h115z" />
    <glyph glyph-name="section" unicode="&#xa7;" 
d="M467 186q8 -2 21 -4t21 -2q17 0 28.5 7t19 18t12.5 24.5t7 26.5q4 17 4 29t-8 20.5t-26 14.5t-49 12l-117 23q-12 3 -26.5 6t-27.5 3q-32 0 -47.5 -23.5t-20.5 -49.5q-6 -26 -4 -40t10 -20.5t21.5 -9.5t30.5 -6zM770 517h-185q5 28 5 44.5t-10 24.5q-11 9 -33.5 11.5
t-64.5 2.5q-36 0 -58 -3t-35 -9t-18 -15.5t-8 -21.5q-4 -19 -1.5 -29t11.5 -15.5t23.5 -8t35.5 -6.5l180 -34q46 -9 77.5 -18.5t49 -28t20.5 -50.5t-8 -85q-5 -24 -11 -46.5t-15.5 -42.5t-25.5 -36.5t-41 -28.5q20 -7 29.5 -20.5t12 -32t-0.5 -40t-8 -45.5
q-12 -56 -31.5 -96.5t-60.5 -67.5t-111 -40t-184 -13q-84 0 -140.5 7.5t-87.5 33.5t-37 76t12 135h185q-6 -32 -4.5 -51t13 -29t34 -13t59.5 -3q45 0 73.5 3t44.5 10t23.5 18.5t10.5 28.5q5 20 2 31.5t-12.5 18.5t-25.5 10.5t-37 7.5l-229 41q-44 8 -69.5 18.5t-37 29
t-10.5 48t11 74.5q4 22 10.5 45.5t17.5 44t29 36.5t45 23q-16 13 -22.5 30.5t-7.5 37t3 40t8 41.5q9 43 26 79t54.5 62t101.5 40.5t168 14.5q65 0 120 -4.5t92 -24t52 -59t0 -109.5z" />
    <glyph glyph-name="dieresis" unicode="&#xa8;" horiz-adv-x="469" 
d="M313 609h-109l22 103h109zM523 609h-109l22 103h109z" />
    <glyph glyph-name="copyright" unicode="&#xa9;" horiz-adv-x="800" 
d="M399 -6q-79 0 -142.5 30t-104 81.5t-55.5 121t2 148.5t61.5 148.5t107 121t138.5 81.5t155 30q78 0 141 -30t104 -81.5t56.5 -121t-1.5 -148.5t-62 -148.5t-107.5 -121t-138.5 -81.5t-154 -30zM417 81q61 0 119 23t106.5 63t83.5 93.5t48 114.5t1 114.5t-43.5 93.5
t-80 63t-109.5 23t-119.5 -23t-107 -63t-82.5 -93.5t-47 -114.5t-1.5 -114.5t42.5 -93.5t80 -63t110 -23zM666 303q-11 -36 -33.5 -65t-52 -49t-63.5 -30.5t-70 -10.5q-50 0 -87 18t-59 49t-28.5 73t3.5 90q11 50 35 92.5t58.5 73t78.5 48t95 17.5q74 0 117 -39.5t39 -111.5
h-89q1 37 -22 58t-61 21q-32 0 -59 -13.5t-48 -35t-35.5 -50t-20.5 -58.5q-6 -28 -3 -56.5t15 -51.5t33.5 -37.5t53.5 -14.5q18 0 36 6t34 17t27.5 26.5t16.5 33.5h89z" />
    <glyph glyph-name="ordfeminine" unicode="&#xaa;" horiz-adv-x="480" 
d="M507 377l-16 -77h-374l16 77h374zM418 641q8 35 1.5 43t-35.5 8q-20 0 -32.5 -6.5t-16.5 -27.5h-104q8 37 24.5 57t38.5 29t48.5 10.5t53.5 1.5q32 0 59.5 -2.5t45 -13t24.5 -31.5t0 -57l-47 -220h-104l10 50l1 2h-2q-6 -16 -17.5 -27t-25.5 -17.5t-29.5 -9t-29.5 -2.5
q-53 0 -78 22t-12 80q12 58 44 79t89 21h25.5t25.5 -3t20.5 -10t10.5 -21h3zM347 567q-19 0 -33 -6t-19 -30q-2 -8 -2 -14t4.5 -10t15.5 -6t31 -2q32 0 40 9.5t12 26.5q2 12 -2 18.5t-12 9.5t-17.5 3.5t-17.5 0.5z" />
    <glyph glyph-name="guillemotleft" unicode="&#xab;" horiz-adv-x="556" 
d="M384 454l-135 -182l60 -169l-121 -66l-84 235l179 243zM607 454l-135 -182l60 -169l-121 -66l-84 235l179 243z" />
    <glyph glyph-name="logicalnot" unicode="&#xac;" horiz-adv-x="600" 
d="M506 334h-385l24 115h500l-62 -292h-115z" />
    <glyph glyph-name="registered" unicode="&#xae;" horiz-adv-x="800" 
d="M399 -6q-79 0 -142.5 30t-104 81.5t-55.5 121t2 148.5t61.5 148.5t107 121t138.5 81.5t155 30q78 0 141 -30t104 -81.5t56.5 -121t-1.5 -148.5t-62 -148.5t-107.5 -121t-138.5 -81.5t-154 -30zM417 81q61 0 119 23t106.5 63t83.5 93.5t48 114.5t1 114.5t-43.5 93.5
t-80 63t-109.5 23t-119.5 -23t-107 -63t-82.5 -93.5t-47 -114.5t-1.5 -114.5t42.5 -93.5t80 -63t110 -23zM625 166h-98l-56 169h-77l-36 -169h-87l88 412h206q35 0 64 -4.5t47 -18t24.5 -38t-2.5 -65.5q-12 -57 -46 -82.5t-90 -29.5zM529 401q35 -1 55.5 11t28.5 51
q4 18 -2.5 28t-19 14.5t-28.5 5.5t-31 1h-100l-24 -111h121z" />
    <glyph glyph-name="macron" unicode="&#xaf;" horiz-adv-x="464" 
d="M539 706l-20 -94h-314l20 94h314z" />
    <glyph glyph-name="degree" unicode="&#xb0;" horiz-adv-x="400" 
d="M479 606q-7 -31 -24.5 -58.5t-42.5 -47.5t-54.5 -32t-60.5 -12t-56 12t-41 32t-22 47.5t1 58.5q6 31 23.5 58t42.5 47.5t55 32.5t61 12q30 0 55 -12t41 -32.5t22 -47.5t0 -58zM410 606q7 33 -12 57t-53 24q-16 0 -32.5 -6.5t-29.5 -17.5t-22.5 -25.5t-12.5 -31.5
q-7 -34 11.5 -57.5t52.5 -23.5q33 0 62 23.5t36 57.5z" />
    <glyph glyph-name="plusminus" unicode="&#xb1;" horiz-adv-x="600" 
d="M469 525l-25 -118h193l-25 -115h-193l-26 -123h-115l26 123h-192l25 115h192l25 118h115zM74 115h500l-24 -115h-500z" />
    <glyph glyph-name="twosuperior" unicode="&#xb2;" horiz-adv-x="432" 
d="M469 302h-385l20 94q8 39 19.5 63.5t33 40t58 26.5t94.5 23q32 7 50.5 11t28.5 10t14.5 15.5t7.5 26.5q7 34 -5.5 42.5t-51.5 7.5q-22 0 -36 -1.5t-22 -6.5t-13 -15.5t-8 -28.5l-5 -22h-124l5 22q9 46 28 74.5t46.5 44.5t64.5 21.5t84 5.5q43 0 77.5 -4.5t56.5 -19
t30 -42.5t-2 -76q-9 -38 -20.5 -62t-30.5 -39.5t-46.5 -25t-68.5 -19.5q-39 -9 -64 -13t-40.5 -9.5t-23.5 -16t-13 -33.5h261z" />
    <glyph glyph-name="threesuperior" unicode="&#xb3;" horiz-adv-x="432" 
d="M317 576h31q24 0 38 1.5t21.5 5.5t11 11t5.5 19q3 14 3.5 23t-4.5 15t-18.5 8.5t-37.5 2.5q-18 0 -31 -1t-22.5 -6t-15.5 -15.5t-10 -29.5l-2 -9h-124l3 16q10 48 29 75.5t46.5 42t62.5 18t78 3.5q34 0 68.5 -2.5t60.5 -14.5t39 -36.5t4 -67.5q-8 -38 -29 -67t-67 -34
l-2 -5q47 -2 58 -30t3 -67q-9 -43 -29.5 -69.5t-50.5 -41t-68.5 -19t-84.5 -4.5q-38 0 -71.5 3.5t-57 17.5t-33.5 41.5t1 75.5l5 24h124l-3 -15q-4 -19 -1.5 -29.5t11 -15.5t21.5 -6.5t30 -1.5q20 0 34.5 1.5t24.5 6.5t16.5 16.5t10.5 30.5q2 12 2 20t-6.5 13t-21 7t-39.5 2
h-31z" />
    <glyph glyph-name="acute" unicode="&#xb4;" horiz-adv-x="404" 
d="M466 645l-241 -71l-15 62l230 120z" />
    <glyph glyph-name="mu" unicode="&#xb5;" horiz-adv-x="615" 
d="M391 0l27 101h-8q-31 -61 -78.5 -84t-106.5 -23l-47 -221h-172l160 752h172l-67 -313q-4 -18 -5.5 -33.5t2.5 -27.5t15 -18.5t33 -6.5q17 0 35.5 4.5t34 14t27.5 24t16 33.5l69 323h172l-112 -525h-167z" />
    <glyph glyph-name="paragraph" unicode="&#xb6;" 
d="M545 -227l177 832h-77l-177 -832h-120l89 422h-130q-82 0 -131 12.5t-71.5 44t-22 85.5t18.5 136q15 74 40 126.5t63 86t90 49t121 15.5h457l-207 -977h-120zM525 605h-100q-41 0 -64.5 -6.5t-37.5 -21.5t-21.5 -40.5t-15.5 -63.5q-9 -41 -12 -67t4.5 -40.5t29 -20
t61.5 -5.5h99z" />
    <glyph glyph-name="periodcentered" unicode="&#xb7;" horiz-adv-x="360" 
d="M301 189h-162l37 174h162z" />
    <glyph glyph-name="cedilla" unicode="&#xb8;" horiz-adv-x="322" 
d="M221 -123l-155 -52l-17 52l145 82z" />
    <glyph glyph-name="onesuperior" unicode="&#xb9;" horiz-adv-x="432" 
d="M405 302h-130l74 348l-148 -106l-58 76l207 136h152z" />
    <glyph glyph-name="ordmasculine" unicode="&#xba;" horiz-adv-x="480" 
d="M507 377l-16 -77h-374l16 77h374zM401 756q52 0 81 -8t41.5 -27t11 -50.5t-11.5 -78.5t-21.5 -78.5t-32 -50.5t-53.5 -27t-85 -8t-81.5 8t-42 27t-10.5 50.5t12 78.5t21.5 78.5t32 50.5t53.5 27t85 8zM384 679q-15 0 -26 -3t-19 -12.5t-14 -26.5t-12 -45t-7.5 -45
t2.5 -26.5t14 -12.5t25 -3q16 0 27 3t19 12.5t14 26.5t12 45t7 45t-3 26.5t-13.5 12.5t-25.5 3z" />
    <glyph glyph-name="guillemotright" unicode="&#xbb;" horiz-adv-x="556" 
d="M283 98l135 182l-61 169l121 66l85 -235l-180 -243zM60 98l135 182l-61 169l121 66l85 -235l-180 -243z" />
    <glyph glyph-name="onequarter" unicode="&#xbc;" horiz-adv-x="1080" 
d="M1014 176h41l-18 -87h-41l-19 -89h-124l19 89h-255l27 128l237 233h192zM929 358h-5l-187 -182h153zM348 0h-120l602 750h120zM356 302h-130l73 342l-149 -106l-57 76l206 136h152z" />
    <glyph glyph-name="onehalf" unicode="&#xbd;" horiz-adv-x="1080" 
d="M350 0h-120l602 750h120zM358 302h-130l73 342l-149 -106l-58 76l207 136h152zM1037 0h-385l20 94q8 39 19.5 63.5t33 40t57.5 26.5t95 23q31 7 49.5 11t29 10t15 15.5t7.5 26.5q7 34 -5.5 42.5t-51.5 7.5q-23 0 -36.5 -1.5t-22 -6.5t-13 -15.5t-8.5 -28.5l-4 -22h-124
l4 22q10 46 28.5 74.5t46.5 44.5t65 21.5t84 5.5q43 0 77.5 -4.5t56.5 -19t29.5 -42.5t-2.5 -76q-8 -38 -19.5 -62t-30.5 -39.5t-46.5 -25t-68.5 -19.5q-39 -9 -64 -13t-40.5 -9.5t-23.5 -16t-13 -33.5h261z" />
    <glyph glyph-name="threequarters" unicode="&#xbe;" horiz-adv-x="1080" 
d="M1051 176h41l-18 -87h-41l-19 -89h-124l19 89h-255l27 128l237 233h192zM966 358h-5l-187 -182h153zM405 0h-120l602 750h120zM314 576h31q24 0 38 1.5t21.5 5.5t11 11t5.5 19q3 14 3.5 23t-4.5 15t-18.5 8.5t-37.5 2.5q-18 0 -31 -1t-22.5 -6t-15.5 -15.5t-10 -29.5
l-2 -9h-124l3 16q10 48 29 75.5t46.5 42t62.5 18t78 3.5q34 0 68.5 -2.5t60.5 -14.5t39 -36.5t4 -67.5q-8 -38 -29 -67t-67 -34l-2 -5q47 -2 58 -30t3 -67q-9 -43 -29.5 -69.5t-50.5 -41t-68.5 -19t-84.5 -4.5q-38 0 -71.5 3.5t-57 17.5t-33.5 41.5t1 75.5l5 24h124l-3 -15
q-4 -19 -1.5 -29.5t11 -15.5t21.5 -6.5t30 -1.5q20 0 34.5 1.5t24.5 6.5t16.5 16.5t10.5 30.5q2 12 2 20t-6.5 13t-21 7t-39.5 2h-31z" />
    <glyph glyph-name="questiondown" unicode="&#xbf;" horiz-adv-x="605" 
d="M472 258l-7 -30q-7 -35 -15 -59t-22.5 -42t-38 -33t-61.5 -32l-39 -17q-15 -6 -27.5 -12.5t-22.5 -15.5t-17.5 -22.5t-12.5 -34.5q-8 -40 9.5 -50.5t58.5 -10.5q19 0 35.5 1.5t30 8t23 18.5t13.5 33l7 31h172l-7 -31q-14 -64 -41 -102t-65 -58.5t-87.5 -26.5t-109.5 -6
q-57 0 -102 6t-74 26.5t-38.5 58.5t3.5 102q11 49 25.5 80.5t36.5 53.5t53 38t74 34q35 14 49 26.5t18 35.5l7 30h172zM487 351h-162l37 174h162z" />
    <glyph glyph-name="Agrave" unicode="&#xc0;" horiz-adv-x="733" 
d="M287.424 129l-91.4238 -129h-208l543.439 750h304l-90.4395 -750h-204l15.4238 129h-269zM624.551 600h-2l-230.09 -325h186zM812.204 861l-54.1797 -62l-195.907 71l97.5977 111z" />
    <glyph glyph-name="Aacute" unicode="&#xc1;" horiz-adv-x="733" 
d="M287.424 129l-91.4238 -129h-208l543.439 750h304l-90.4395 -750h-204l15.4238 129h-269zM624.551 600h-2l-230.09 -325h186zM816.117 870l-256.093 -71l-1.82031 62l255.511 120z" />
    <glyph glyph-name="Acircumflex" unicode="&#xc2;" horiz-adv-x="733" 
d="M287.424 129l-91.4238 -129h-208l543.439 750h304l-90.4395 -750h-204l15.4238 129h-269zM624.551 600h-2l-230.09 -325h186zM871.543 872l-50.1172 -57l-130.82 62l-179.18 -62l-1.88281 57l225.172 109z" />
    <glyph glyph-name="Atilde" unicode="&#xc3;" horiz-adv-x="733" 
d="M287.424 129l-91.4238 -129h-208l543.439 750h304l-90.4395 -750h-204l15.4238 129h-269zM624.551 600h-2l-230.09 -325h186zM926.109 917q-17.0391 -19 -36.2598 -36.5q-19.2197 -17.5 -40.1963 -31.5t-43.2832 -22.5t-45.3066 -8.5q-30 0 -49.7686 10.5
q-19.7676 10.5 -35.0039 23.5q-14.2363 13 -27.0039 23.5q-12.7686 10.5 -28.7686 10.5q-23 0 -42.3691 -13.5q-19.3701 -13.5 -37.1963 -31.5l-63.6465 44q36.8652 37 81.1367 66.5t90.2715 29.5q27 0 45.2676 -10.5t32.5039 -23.5q16.0244 -14 30.292 -24.5t33.2676 -10.5
q20 0 38.6895 15q18.6885 15 33.0898 31z" />
    <glyph glyph-name="Adieresis" unicode="&#xc4;" horiz-adv-x="733" 
d="M287.424 129l-91.4238 -129h-208l543.439 750h304l-90.4395 -750h-204l15.4238 129h-269zM624.551 600h-2l-230.09 -325h186zM622.465 834h-109l43.8965 103h109zM832.465 834h-109l43.8965 103h109z" />
    <glyph glyph-name="Aring" unicode="&#xc5;" horiz-adv-x="733" 
d="M287.424 129l-91.4238 -129h-208l543.439 750h304l-90.4395 -750h-204l15.4238 129h-269zM624.551 600h-2l-230.09 -325h186zM599.156 889q8.25195 20 23.5791 38q15.3262 18 34.5898 31t40.3584 20.5q21.0938 7.5 41.0938 7.5q40 0 56.5479 -28t-1.16895 -69
q-8.25098 -20 -23.5781 -38q-15.3262 -18 -34.1963 -31.5t-39.9639 -21q-21.0947 -7.5 -41.0947 -7.5q-40 0 -56.9414 28.5t0.774414 69.5zM651.156 889q-8.03906 -19 -0.908203 -32.5q7.12988 -13.5 26.1299 -13.5q18 0 37.8701 13.5q19.8691 13.5 27.9082 32.5
q8.04004 19 -0.197266 32q-8.23633 13 -26.2363 13q-19 0 -37.7637 -13q-18.7627 -13 -26.8027 -32z" />
    <glyph glyph-name="AE" unicode="&#xc6;" horiz-adv-x="1074" 
d="M624 586h-86l-186 -314h205zM527 133h-258l-78 -133h-217l453 750h764l-34 -164h-343l-30 -140h316l-30 -139h-316l-30 -143h343l-35 -164h-533z" />
    <glyph glyph-name="Ccedilla" unicode="&#xc7;" horiz-adv-x="728" 
d="M815.374 284l-8.67676 -22q-13.5898 -31 -27.2549 -60t-31.4053 -56q-17.7393 -27 -42.4482 -51.5q-24.708 -24.5 -59.1719 -45.5q-34.4648 -21 -67.3027 -32q-32.8389 -11 -65.0078 -16.5t-64.2754 -6t-64.1064 -0.5q-77 0 -139.225 6t-97.3779 33.5
q-35.1543 27.5 -37.5371 84.5t41.5137 160l82.2412 194q39.7705 93 87.6758 149q47.9043 56 106.282 86t127.897 39.5t152.52 9.5q77 0 131.012 -7t81.1973 -32t25.2686 -74t-36.7734 -133l-12.165 -29h-206l12.165 29q8.31445 25 4.89648 39.5q-3.41699 14.5 -16.4287 21.5
q-13.0127 7 -33.5869 9q-20.5752 2 -45.5752 2q-43 0 -70.9883 -7t-47.4951 -23.5q-19.5078 -16.5 -34.8545 -44q-15.3457 -27.5 -31.8496 -67.5l-49.8721 -117q-17.9287 -42 -27.7002 -71.5q-9.77051 -29.5 -5.7041 -48q4.06738 -18.5 25.7607 -27t66.6934 -8.5
q31 0 55.0312 2.5t43.4443 11.5t34.9521 28t29.5547 52l8.67676 22h206zM397.852 -123l-166.054 -52l-5.94629 52l162.433 82z" />
    <glyph glyph-name="Egrave" unicode="&#xc8;" horiz-adv-x="678" 
d="M454.451 449h320l-58.5498 -139h-320l-62.0371 -146h348l-69.8643 -164h-548l318.439 750h541l-68.8643 -164h-341zM784.204 861l-54.1797 -62l-195.907 71l97.5977 111z" />
    <glyph glyph-name="Eacute" unicode="&#xc9;" horiz-adv-x="678" 
d="M454.451 449h320l-58.5498 -139h-320l-62.0371 -146h348l-69.8643 -164h-548l318.439 750h541l-68.8643 -164h-341zM788.117 870l-256.093 -71l-1.82031 62l255.511 120z" />
    <glyph glyph-name="Ecircumflex" unicode="&#xca;" horiz-adv-x="678" 
d="M454.451 449h320l-58.5498 -139h-320l-62.0371 -146h348l-69.8643 -164h-548l318.439 750h541l-68.8643 -164h-341zM843.543 872l-50.1172 -57l-130.82 62l-179.18 -62l-1.88281 57l225.172 109z" />
    <glyph glyph-name="Edieresis" unicode="&#xcb;" horiz-adv-x="678" 
d="M454.451 449h320l-58.5498 -139h-320l-62.0371 -146h348l-69.8643 -164h-548l318.439 750h541l-68.8643 -164h-341zM595.465 834h-109l43.8965 103h109zM805.465 834h-109l43.8965 103h109z" />
    <glyph glyph-name="Igrave" unicode="&#xcc;" horiz-adv-x="324" 
d="M262 0h-200l318.439 750h200zM607.204 861l-54.1797 -62l-195.907 71l97.5977 111z" />
    <glyph glyph-name="Iacute" unicode="&#xcd;" horiz-adv-x="324" 
d="M262 0h-200l318.439 750h200zM611.117 870l-256.093 -71l-1.82031 62l255.511 120z" />
    <glyph glyph-name="Icircumflex" unicode="&#xce;" horiz-adv-x="324" 
d="M262 0h-200l318.439 750h200zM666.543 872l-50.1172 -57l-130.82 62l-179.18 -62l-1.88281 57l225.172 109z" />
    <glyph glyph-name="Idieresis" unicode="&#xcf;" horiz-adv-x="324" 
d="M262 0h-200l318.439 750h200zM418.465 834h-109l43.8965 103h109zM628.465 834h-109l43.8965 103h109z" />
    <glyph glyph-name="Eth" unicode="&#xd0;" horiz-adv-x="775" 
d="M211 750h380q79 0 132.5 -15.5t83.5 -50t36 -90t-11 -135.5l-34 -157q-16 -77 -41.5 -133.5t-65.5 -94t-97 -56t-135 -18.5h-407l67 314h-84l29 139h84zM348 453h112l-29 -139h-112l-30 -140h175q56 0 86 34t42 94l34 157q7 36 6 59t-10.5 36t-27.5 17.5t-45 4.5h-175z
" />
    <glyph glyph-name="Ntilde" unicode="&#xd1;" horiz-adv-x="871" 
d="M261 0h-200l318.439 750h338l-29.4492 -576h8l232.449 576h200l-318.439 -750h-341l32.4492 576h-8zM995.109 917q-17.0391 -19 -36.2598 -36.5q-19.2197 -17.5 -40.1963 -31.5t-43.2832 -22.5t-45.3066 -8.5q-30 0 -49.7686 10.5q-19.7676 10.5 -35.0039 23.5
q-14.2363 13 -27.0039 23.5q-12.7686 10.5 -28.7686 10.5q-23 0 -42.3691 -13.5q-19.3701 -13.5 -37.1963 -31.5l-63.6465 44q36.8652 37 81.1367 66.5t90.2715 29.5q27 0 45.2676 -10.5t32.5039 -23.5q16.0244 -14 30.292 -24.5t33.2676 -10.5q20 0 38.6895 15
q18.6885 15 33.0898 31z" />
    <glyph glyph-name="Ograve" unicode="&#xd2;" horiz-adv-x="760" 
d="M377.725 -6q-76 0 -135.268 10.5q-59.2686 10.5 -92.8906 40.5t-36.249 83.5t33.8682 140.5l90.0684 212q37.4941 87 85.8682 140.5q48.373 53.5 107.251 83.5q58.877 30 127.109 40.5t144.232 10.5t135.268 -10.5t92.3906 -40.5q33.1221 -30 36.249 -83.5
q3.12598 -53.5 -34.3682 -140.5l-90.0684 -212q-36.4951 -87 -84.8682 -140.5t-107.251 -83.5t-127.109 -40.5q-68.2324 -10.5 -144.232 -10.5zM451.715 168q39 0 67.2432 3.5q28.2441 3.5 50.4014 16q22.1582 12.5 39.8662 37t35.6367 66.5l71.9268 169
q17.9287 42 20.5312 66q2.60156 24 -8.74121 36.5t-36.5986 16t-64.2559 3.5t-67.2441 -3.5t-49.9014 -16t-39.2588 -36.5q-17.6025 -24 -36.5312 -66l-71.9268 -169q-16.9287 -42 -19.6367 -66.5t8.13379 -37q10.8428 -12.5 36.0986 -16q25.2568 -3.5 64.2568 -3.5z
M825.204 861l-54.1797 -62l-195.907 71l97.5977 111z" />
    <glyph glyph-name="Oacute" unicode="&#xd3;" horiz-adv-x="760" 
d="M377.725 -6q-76 0 -135.268 10.5q-59.2686 10.5 -92.8906 40.5t-36.249 83.5t33.8682 140.5l90.0684 212q37.4941 87 85.8682 140.5q48.373 53.5 107.251 83.5q58.877 30 127.109 40.5t144.232 10.5t135.268 -10.5t92.3906 -40.5q33.1221 -30 36.249 -83.5
q3.12598 -53.5 -34.3682 -140.5l-90.0684 -212q-36.4951 -87 -84.8682 -140.5t-107.251 -83.5t-127.109 -40.5q-68.2324 -10.5 -144.232 -10.5zM451.715 168q39 0 67.2432 3.5q28.2441 3.5 50.4014 16q22.1582 12.5 39.8662 37t35.6367 66.5l71.9268 169
q17.9287 42 20.5312 66q2.60156 24 -8.74121 36.5t-36.5986 16t-64.2559 3.5t-67.2441 -3.5t-49.9014 -16t-39.2588 -36.5q-17.6025 -24 -36.5312 -66l-71.9268 -169q-16.9287 -42 -19.6367 -66.5t8.13379 -37q10.8428 -12.5 36.0986 -16q25.2568 -3.5 64.2568 -3.5z
M829.117 870l-256.093 -71l-1.82031 62l255.511 120z" />
    <glyph glyph-name="Ocircumflex" unicode="&#xd4;" horiz-adv-x="760" 
d="M377.725 -6q-76 0 -135.268 10.5q-59.2686 10.5 -92.8906 40.5t-36.249 83.5t33.8682 140.5l90.0684 212q37.4941 87 85.8682 140.5q48.373 53.5 107.251 83.5q58.877 30 127.109 40.5t144.232 10.5t135.268 -10.5t92.3906 -40.5q33.1221 -30 36.249 -83.5
q3.12598 -53.5 -34.3682 -140.5l-90.0684 -212q-36.4951 -87 -84.8682 -140.5t-107.251 -83.5t-127.109 -40.5q-68.2324 -10.5 -144.232 -10.5zM451.715 168q39 0 67.2432 3.5q28.2441 3.5 50.4014 16q22.1582 12.5 39.8662 37t35.6367 66.5l71.9268 169
q17.9287 42 20.5312 66q2.60156 24 -8.74121 36.5t-36.5986 16t-64.2559 3.5t-67.2441 -3.5t-49.9014 -16t-39.2588 -36.5q-17.6025 -24 -36.5312 -66l-71.9268 -169q-16.9287 -42 -19.6367 -66.5t8.13379 -37q10.8428 -12.5 36.0986 -16q25.2568 -3.5 64.2568 -3.5z
M884.543 872l-50.1172 -57l-130.82 62l-179.18 -62l-1.88281 57l225.172 109z" />
    <glyph glyph-name="Otilde" unicode="&#xd5;" horiz-adv-x="760" 
d="M377.725 -6q-76 0 -135.268 10.5q-59.2686 10.5 -92.8906 40.5t-36.249 83.5t33.8682 140.5l90.0684 212q37.4941 87 85.8682 140.5q48.373 53.5 107.251 83.5q58.877 30 127.109 40.5t144.232 10.5t135.268 -10.5t92.3906 -40.5q33.1221 -30 36.249 -83.5
q3.12598 -53.5 -34.3682 -140.5l-90.0684 -212q-36.4951 -87 -84.8682 -140.5t-107.251 -83.5t-127.109 -40.5q-68.2324 -10.5 -144.232 -10.5zM451.715 168q39 0 67.2432 3.5q28.2441 3.5 50.4014 16q22.1582 12.5 39.8662 37t35.6367 66.5l71.9268 169
q17.9287 42 20.5312 66q2.60156 24 -8.74121 36.5t-36.5986 16t-64.2559 3.5t-67.2441 -3.5t-49.9014 -16t-39.2588 -36.5q-17.6025 -24 -36.5312 -66l-71.9268 -169q-16.9287 -42 -19.6367 -66.5t8.13379 -37q10.8428 -12.5 36.0986 -16q25.2568 -3.5 64.2568 -3.5z
M940.109 917q-17.0391 -19 -36.2598 -36.5q-19.2197 -17.5 -40.1963 -31.5t-43.2832 -22.5t-45.3066 -8.5q-30 0 -49.7686 10.5q-19.7676 10.5 -35.0039 23.5q-14.2363 13 -27.0039 23.5q-12.7686 10.5 -28.7686 10.5q-23 0 -42.3691 -13.5q-19.3701 -13.5 -37.1963 -31.5
l-63.6465 44q36.8652 37 81.1367 66.5t90.2715 29.5q27 0 45.2676 -10.5t32.5039 -23.5q16.0244 -14 30.292 -24.5t33.2676 -10.5q20 0 38.6895 15q18.6885 15 33.0898 31z" />
    <glyph glyph-name="Odieresis" unicode="&#xd6;" horiz-adv-x="760" 
d="M377.725 -6q-76 0 -135.268 10.5q-59.2686 10.5 -92.8906 40.5t-36.249 83.5t33.8682 140.5l90.0684 212q37.4941 87 85.8682 140.5q48.373 53.5 107.251 83.5q58.877 30 127.109 40.5t144.232 10.5t135.268 -10.5t92.3906 -40.5q33.1221 -30 36.249 -83.5
q3.12598 -53.5 -34.3682 -140.5l-90.0684 -212q-36.4951 -87 -84.8682 -140.5t-107.251 -83.5t-127.109 -40.5q-68.2324 -10.5 -144.232 -10.5zM451.715 168q39 0 67.2432 3.5q28.2441 3.5 50.4014 16q22.1582 12.5 39.8662 37t35.6367 66.5l71.9268 169
q17.9287 42 20.5312 66q2.60156 24 -8.74121 36.5t-36.5986 16t-64.2559 3.5t-67.2441 -3.5t-49.9014 -16t-39.2588 -36.5q-17.6025 -24 -36.5312 -66l-71.9268 -169q-16.9287 -42 -19.6367 -66.5t8.13379 -37q10.8428 -12.5 36.0986 -16q25.2568 -3.5 64.2568 -3.5z
M636.465 834h-109l43.8965 103h109zM846.465 834h-109l43.8965 103h109z" />
    <glyph glyph-name="multiply" unicode="&#xd7;" horiz-adv-x="600" 
d="M250 525l127 -161l197 161l69 -87l-196 -162l127 -162l-106 -88l-128 162l-196 -162l-70 88l197 162l-128 162z" />
    <glyph glyph-name="Oslash" unicode="&#xd8;" horiz-adv-x="760" 
d="M906 640l-67 -48q2 -49 -6.5 -99.5t-19.5 -101.5q-23 -107 -49 -182.5t-71.5 -123t-118.5 -69.5t-189 -22q-34 0 -72.5 1t-75 8t-67.5 21.5t-52 41.5l-132 -96l29 139l65 46q-3 17 -4 37.5t7 54.5l25 119q23 111 51.5 186t75.5 120.5t121.5 64.5t190.5 19q37 0 73.5 -1
t69.5 -7.5t62 -21t51 -40.5l133 95zM302 199q3 -12 19 -18t36 -9t39.5 -3.5t31.5 -0.5q71 0 107 25.5t46 72.5l34 160zM619 550q-19 24 -47 28t-62 4q-45 0 -74.5 -4.5t-50.5 -22t-35 -52.5t-27 -96l-19 -87z" />
    <glyph glyph-name="Ugrave" unicode="&#xd9;" horiz-adv-x="771" 
d="M1027.44 750l-212.293 -500q-31.9443 -75 -70.9668 -124.5q-39.0234 -49.5 -89.6885 -78.5t-115.216 -41t-146.551 -12q-113 0 -172.418 14.5q-59.417 14.5 -80.2207 46t-9.99316 80t39.0537 115.5l212.293 500h200l-210.442 -496q-13.8027 -32 -12.5234 -49.5
q1.28027 -17.5 15.0791 -25.5q13.7998 -8 37.4805 -9.5q23.6816 -1.5 55.6816 -1.5t54.5312 2.5t40.0508 12t31.5586 28.5t28.0547 52l206.529 487h200zM831.204 861l-54.1797 -62l-195.907 71l97.5977 111z" />
    <glyph glyph-name="Uacute" unicode="&#xda;" horiz-adv-x="771" 
d="M1027.44 750l-212.293 -500q-31.9443 -75 -70.9668 -124.5q-39.0234 -49.5 -89.6885 -78.5t-115.216 -41t-146.551 -12q-113 0 -172.418 14.5q-59.417 14.5 -80.2207 46t-9.99316 80t39.0537 115.5l212.293 500h200l-210.442 -496q-13.8027 -32 -12.5234 -49.5
q1.28027 -17.5 15.0791 -25.5q13.7998 -8 37.4805 -9.5q23.6816 -1.5 55.6816 -1.5t54.5312 2.5t40.0508 12t31.5586 28.5t28.0547 52l206.529 487h200zM835.117 870l-256.093 -71l-1.82031 62l255.511 120z" />
    <glyph glyph-name="Ucircumflex" unicode="&#xdb;" horiz-adv-x="771" 
d="M1027.44 750l-212.293 -500q-31.9443 -75 -70.9668 -124.5q-39.0234 -49.5 -89.6885 -78.5t-115.216 -41t-146.551 -12q-113 0 -172.418 14.5q-59.417 14.5 -80.2207 46t-9.99316 80t39.0537 115.5l212.293 500h200l-210.442 -496q-13.8027 -32 -12.5234 -49.5
q1.28027 -17.5 15.0791 -25.5q13.7998 -8 37.4805 -9.5q23.6816 -1.5 55.6816 -1.5t54.5312 2.5t40.0508 12t31.5586 28.5t28.0547 52l206.529 487h200zM890.543 872l-50.1172 -57l-130.82 62l-179.18 -62l-1.88281 57l225.172 109z" />
    <glyph glyph-name="Udieresis" unicode="&#xdc;" horiz-adv-x="771" 
d="M1027.44 750l-212.293 -500q-31.9443 -75 -70.9668 -124.5q-39.0234 -49.5 -89.6885 -78.5t-115.216 -41t-146.551 -12q-113 0 -172.418 14.5q-59.417 14.5 -80.2207 46t-9.99316 80t39.0537 115.5l212.293 500h200l-210.442 -496q-13.8027 -32 -12.5234 -49.5
q1.28027 -17.5 15.0791 -25.5q13.7998 -8 37.4805 -9.5q23.6816 -1.5 55.6816 -1.5t54.5312 2.5t40.0508 12t31.5586 28.5t28.0547 52l206.529 487h200zM641.465 834h-109l43.8965 103h109zM851.465 834h-109l43.8965 103h109z" />
    <glyph glyph-name="Yacute" unicode="&#xdd;" horiz-adv-x="708" 
d="M561.91 263l-111.91 -263h-200l111.91 263l-59.4707 487h229l11.5625 -289h7l260.438 289h232zM803.117 870l-256.093 -71l-1.82031 62l255.511 120z" />
    <glyph glyph-name="Thorn" unicode="&#xde;" horiz-adv-x="711" 
d="M58 0l159 750h200l-20 -96h177q70 0 115.5 -15.5t69 -48.5t26 -85t-12.5 -126q-17 -79 -39 -133t-57.5 -87.5t-88.5 -48t-132 -14.5h-177l-20 -96h-200zM452 270q30 1 48.5 4.5t30.5 14.5t19.5 32.5t15.5 57.5q6 29 7 48.5t-6 31t-24 16.5t-46 5h-137l-45 -210h137z" />
    <glyph glyph-name="germandbls" unicode="&#xdf;" horiz-adv-x="617" 
d="M57 0l120 565q13 60 38.5 97t62 58t84.5 28.5t105 7.5q45 0 88.5 -3.5t75 -19t46 -47t2.5 -88.5q-12 -59 -50.5 -91t-97.5 -39l-1 -8q51 -1 77 -18.5t35.5 -47t5.5 -68.5t-13 -81q-12 -58 -30 -104.5t-48 -79t-74.5 -50t-109.5 -17.5q-23 0 -45 2l-44 4l26 121
q19 -7 44 -7q26 0 43 5.5t29 20.5t20.5 40.5t16.5 64.5q7 35 12 65t0.5 52t-20.5 35t-50 13h-16l25 115h19q29 0 52 8.5t31 43.5q8 38 -12.5 51t-61.5 13q-37 0 -60 -15t-33 -61l-120 -565h-172z" />
    <glyph glyph-name="agrave" unicode="&#xe0;" horiz-adv-x="609" 
d="M380.131 217q-32 0 -57.5195 -9.5t-41.1729 -45.5q-8.46387 -21 -5.51465 -33q2.94824 -12 12.3857 -17t22.2246 -6t21.7871 -1q27 0 46.0312 2.5q19.0322 2.5 32.9141 9t24.0391 19t18.6211 33.5q6.61426 17 4.13379 26.5t-13.0234 14q-10.5439 4.5 -27.2246 6
q-16.6816 1.5 -37.6816 1.5zM421.582 78h-6q-16.7402 -27 -39.748 -43.5t-47.9209 -25.5t-51.0508 -12t-48.1377 -3q-45 0 -77.6182 6.5t-49.292 24.5q-16.6729 18 -15.8701 50t21.4316 82q19.9912 47 45.7939 79t58.3418 51t71.2402 27q38.7002 8 84.7002 8
q19 0 40.2881 -1q21.2871 -1 39.7246 -6q18.4365 -5 29.8857 -17t8.55957 -35h8l35.6445 83q6.82617 18 11.5156 33q4.68848 15 1.9209 25.5q-2.76855 10.5 -16.0986 16q-13.3311 5.5 -41.3311 5.5q-33 0 -56.3389 -11q-23.3379 -11 -38.7783 -46h-172
q25.9678 61 60.4824 94q34.5156 33 75.2041 48q40.6895 15 85.2207 17.5t90.5312 2.5q66 0 110.618 -6.5t66.1543 -27.5q21.5352 -21 18.5322 -61q-3.00391 -40 -31.459 -108l-139.729 -328h-172zM702.204 636l-54.1797 -62l-195.907 71l97.5977 111z" />
    <glyph glyph-name="aacute" unicode="&#xe1;" horiz-adv-x="609" 
d="M380.131 217q-32 0 -57.5195 -9.5t-41.1729 -45.5q-8.46387 -21 -5.51465 -33q2.94824 -12 12.3857 -17t22.2246 -6t21.7871 -1q27 0 46.0312 2.5q19.0322 2.5 32.9141 9t24.0391 19t18.6211 33.5q6.61426 17 4.13379 26.5t-13.0234 14q-10.5439 4.5 -27.2246 6
q-16.6816 1.5 -37.6816 1.5zM421.582 78h-6q-16.7402 -27 -39.748 -43.5t-47.9209 -25.5t-51.0508 -12t-48.1377 -3q-45 0 -77.6182 6.5t-49.292 24.5q-16.6729 18 -15.8701 50t21.4316 82q19.9912 47 45.7939 79t58.3418 51t71.2402 27q38.7002 8 84.7002 8
q19 0 40.2881 -1q21.2871 -1 39.7246 -6q18.4365 -5 29.8857 -17t8.55957 -35h8l35.6445 83q6.82617 18 11.5156 33q4.68848 15 1.9209 25.5q-2.76855 10.5 -16.0986 16q-13.3311 5.5 -41.3311 5.5q-33 0 -56.3389 -11q-23.3379 -11 -38.7783 -46h-172
q25.9678 61 60.4824 94q34.5156 33 75.2041 48q40.6895 15 85.2207 17.5t90.5312 2.5q66 0 110.618 -6.5t66.1543 -27.5q21.5352 -21 18.5322 -61q-3.00391 -40 -31.459 -108l-139.729 -328h-172zM706.117 645l-256.093 -71l-1.82031 62l255.511 120z" />
    <glyph glyph-name="acircumflex" unicode="&#xe2;" horiz-adv-x="609" 
d="M380.131 217q-32 0 -57.5195 -9.5t-41.1729 -45.5q-8.46387 -21 -5.51465 -33q2.94824 -12 12.3857 -17t22.2246 -6t21.7871 -1q27 0 46.0312 2.5q19.0322 2.5 32.9141 9t24.0391 19t18.6211 33.5q6.61426 17 4.13379 26.5t-13.0234 14q-10.5439 4.5 -27.2246 6
q-16.6816 1.5 -37.6816 1.5zM421.582 78h-6q-16.7402 -27 -39.748 -43.5t-47.9209 -25.5t-51.0508 -12t-48.1377 -3q-45 0 -77.6182 6.5t-49.292 24.5q-16.6729 18 -15.8701 50t21.4316 82q19.9912 47 45.7939 79t58.3418 51t71.2402 27q38.7002 8 84.7002 8
q19 0 40.2881 -1q21.2871 -1 39.7246 -6q18.4365 -5 29.8857 -17t8.55957 -35h8l35.6445 83q6.82617 18 11.5156 33q4.68848 15 1.9209 25.5q-2.76855 10.5 -16.0986 16q-13.3311 5.5 -41.3311 5.5q-33 0 -56.3389 -11q-23.3379 -11 -38.7783 -46h-172
q25.9678 61 60.4824 94q34.5156 33 75.2041 48q40.6895 15 85.2207 17.5t90.5312 2.5q66 0 110.618 -6.5t66.1543 -27.5q21.5352 -21 18.5322 -61q-3.00391 -40 -31.459 -108l-139.729 -328h-172zM761.543 647l-50.1172 -57l-130.82 62l-179.18 -62l-1.88281 57l225.172 109
z" />
    <glyph glyph-name="atilde" unicode="&#xe3;" horiz-adv-x="609" 
d="M380.131 217q-32 0 -57.5195 -9.5t-41.1729 -45.5q-8.46387 -21 -5.51465 -33q2.94824 -12 12.3857 -17t22.2246 -6t21.7871 -1q27 0 46.0312 2.5q19.0322 2.5 32.9141 9t24.0391 19t18.6211 33.5q6.61426 17 4.13379 26.5t-13.0234 14q-10.5439 4.5 -27.2246 6
q-16.6816 1.5 -37.6816 1.5zM421.582 78h-6q-16.7402 -27 -39.748 -43.5t-47.9209 -25.5t-51.0508 -12t-48.1377 -3q-45 0 -77.6182 6.5t-49.292 24.5q-16.6729 18 -15.8701 50t21.4316 82q19.9912 47 45.7939 79t58.3418 51t71.2402 27q38.7002 8 84.7002 8
q19 0 40.2881 -1q21.2871 -1 39.7246 -6q18.4365 -5 29.8857 -17t8.55957 -35h8l35.6445 83q6.82617 18 11.5156 33q4.68848 15 1.9209 25.5q-2.76855 10.5 -16.0986 16q-13.3311 5.5 -41.3311 5.5q-33 0 -56.3389 -11q-23.3379 -11 -38.7783 -46h-172
q25.9678 61 60.4824 94q34.5156 33 75.2041 48q40.6895 15 85.2207 17.5t90.5312 2.5q66 0 110.618 -6.5t66.1543 -27.5q21.5352 -21 18.5322 -61q-3.00391 -40 -31.459 -108l-139.729 -328h-172zM816.109 692q-17.0391 -19 -36.2598 -36.5q-19.2197 -17.5 -40.1963 -31.5
t-43.2832 -22.5t-45.3066 -8.5q-30 0 -49.7686 10.5q-19.7676 10.5 -35.0039 23.5q-14.2363 13 -27.0039 23.5q-12.7686 10.5 -28.7686 10.5q-23 0 -42.3691 -13.5q-19.3701 -13.5 -37.1963 -31.5l-63.6465 44q36.8652 37 81.1367 66.5t90.2715 29.5q27 0 45.2676 -10.5
t32.5039 -23.5q16.0244 -14 30.292 -24.5t33.2676 -10.5q20 0 38.6895 15q18.6885 15 33.0898 31z" />
    <glyph glyph-name="adieresis" unicode="&#xe4;" horiz-adv-x="609" 
d="M380.131 217q-32 0 -57.5195 -9.5t-41.1729 -45.5q-8.46387 -21 -5.51465 -33q2.94824 -12 12.3857 -17t22.2246 -6t21.7871 -1q27 0 46.0312 2.5q19.0322 2.5 32.9141 9t24.0391 19t18.6211 33.5q6.61426 17 4.13379 26.5t-13.0234 14q-10.5439 4.5 -27.2246 6
q-16.6816 1.5 -37.6816 1.5zM421.582 78h-6q-16.7402 -27 -39.748 -43.5t-47.9209 -25.5t-51.0508 -12t-48.1377 -3q-45 0 -77.6182 6.5t-49.292 24.5q-16.6729 18 -15.8701 50t21.4316 82q19.9912 47 45.7939 79t58.3418 51t71.2402 27q38.7002 8 84.7002 8
q19 0 40.2881 -1q21.2871 -1 39.7246 -6q18.4365 -5 29.8857 -17t8.55957 -35h8l35.6445 83q6.82617 18 11.5156 33q4.68848 15 1.9209 25.5q-2.76855 10.5 -16.0986 16q-13.3311 5.5 -41.3311 5.5q-33 0 -56.3389 -11q-23.3379 -11 -38.7783 -46h-172
q25.9678 61 60.4824 94q34.5156 33 75.2041 48q40.6895 15 85.2207 17.5t90.5312 2.5q66 0 110.618 -6.5t66.1543 -27.5q21.5352 -21 18.5322 -61q-3.00391 -40 -31.459 -108l-139.729 -328h-172zM512.465 609h-109l43.8965 103h109zM722.465 609h-109l43.8965 103h109z" />
    <glyph glyph-name="aring" unicode="&#xe5;" horiz-adv-x="609" 
d="M380.131 217q-32 0 -57.5195 -9.5t-41.1729 -45.5q-8.46387 -21 -5.51465 -33q2.94824 -12 12.3857 -17t22.2246 -6t21.7871 -1q27 0 46.0312 2.5q19.0322 2.5 32.9141 9t24.0391 19t18.6211 33.5q6.61426 17 4.13379 26.5t-13.0234 14q-10.5439 4.5 -27.2246 6
q-16.6816 1.5 -37.6816 1.5zM421.582 78h-6q-16.7402 -27 -39.748 -43.5t-47.9209 -25.5t-51.0508 -12t-48.1377 -3q-45 0 -77.6182 6.5t-49.292 24.5q-16.6729 18 -15.8701 50t21.4316 82q19.9912 47 45.7939 79t58.3418 51t71.2402 27q38.7002 8 84.7002 8
q19 0 40.2881 -1q21.2871 -1 39.7246 -6q18.4365 -5 29.8857 -17t8.55957 -35h8l35.6445 83q6.82617 18 11.5156 33q4.68848 15 1.9209 25.5q-2.76855 10.5 -16.0986 16q-13.3311 5.5 -41.3311 5.5q-33 0 -56.3389 -11q-23.3379 -11 -38.7783 -46h-172
q25.9678 61 60.4824 94q34.5156 33 75.2041 48q40.6895 15 85.2207 17.5t90.5312 2.5q66 0 110.618 -6.5t66.1543 -27.5q21.5352 -21 18.5322 -61q-3.00391 -40 -31.459 -108l-139.729 -328h-172zM489.156 664q8.25195 20 23.5791 38q15.3262 18 34.5898 31t40.3584 20.5
q21.0938 7.5 41.0938 7.5q40 0 56.5479 -28t-1.16895 -69q-8.25098 -20 -23.5781 -38q-15.3262 -18 -34.1963 -31.5t-39.9639 -21q-21.0947 -7.5 -41.0947 -7.5q-40 0 -56.9414 28.5t0.774414 69.5zM541.156 664q-8.03906 -19 -0.908203 -32.5q7.12988 -13.5 26.1299 -13.5
q18 0 37.8701 13.5q19.8691 13.5 27.9082 32.5q8.04004 19 -0.197266 32q-8.23633 13 -26.2363 13q-19 0 -37.7637 -13q-18.7627 -13 -26.8027 -32z" />
    <glyph glyph-name="ae" unicode="&#xe6;" horiz-adv-x="927" 
d="M790 328q12 59 -6 77t-61 18q-46 0 -68 -21.5t-34 -73.5h169zM331 218q-31 0 -55 -9.5t-31 -45.5q-5 -21 0.5 -33t16 -17t23.5 -6t23 -1q27 0 45.5 2.5t30.5 9t19.5 19t11.5 33.5q4 17 -1 26.5t-16.5 14t-28.5 6t-38 1.5zM453 346q3 18 4.5 33t-3.5 25.5t-19.5 16
t-42.5 5.5q-33 0 -54 -11t-29 -46h-172q13 61 40.5 94t65 48t81.5 17.5t90 2.5q15 0 40.5 -1t50 -8t42.5 -21t20 -41h5q11 26 33.5 40t49 21t52 8.5t42.5 1.5q74 0 120.5 -12t69.5 -42.5t24.5 -82.5t-15.5 -132l-6 -29h-341q-8 -34 -9.5 -57t5 -37t22 -19.5t41.5 -5.5
q40 0 65.5 10t34.5 51h169q-12 -60 -37.5 -95t-63.5 -55q-38 -19 -87 -25t-106 -6q-23 0 -51.5 2t-53.5 10t-43.5 24t-21.5 43h-6q-17 -29 -42.5 -45t-56 -23.5t-65 -9t-68.5 -1.5q-45 0 -79 6.5t-54.5 24.5t-26.5 50t4 82q10 47 29 79t47.5 51t65.5 27t83 8q19 0 40.5 -1
t41 -6.5t33 -17.5t16.5 -34h8z" />
    <glyph glyph-name="ccedilla" unicode="&#xe7;" horiz-adv-x="557" 
d="M625.643 210q-31.7305 -74 -63.2656 -116.5t-72.2119 -64.5q-39.8896 -23 -90.165 -29t-120.275 -6q-76 0 -119.236 13t-58.2529 43.5q-15.0156 30.5 -4.06738 82q10.9473 51.5 44.5293 129.5q28.2432 67 58.4785 117.5q30.2363 50.5 71.3574 84
q41.1221 33.5 97.7354 50.5q56.6143 17 137.614 17q56 0 100.831 -5.5t69.4727 -26t26.0322 -61t-28.4902 -110.5h-172q9.46387 21 12.334 34.5q2.86914 13.5 -2.42969 21.5q-10.8115 15 -61.8115 15q-23 0 -39.9561 -4.5q-16.957 -4.5 -32.5391 -19
q-15.583 -14.5 -30.8223 -41.5q-15.2402 -27 -33.8066 -72q-19.7793 -46 -28.0186 -73q-8.24023 -27 -5.71582 -41q2.52344 -14 16.1729 -18q13.6504 -4 38.6504 -4q29 0 47.3496 4q18.3506 4 30.3701 13.5t20.5273 26t19.6094 40.5h172zM312.852 -123l-166.054 -52
l-5.94629 52l162.433 82z" />
    <glyph glyph-name="egrave" unicode="&#xe8;" horiz-adv-x="574" 
d="M510.729 328q12.1641 29 13.7783 46t-5.68555 25q-7.29883 8 -22.874 10q-15.5742 2 -37.5742 2q-23 0 -39.7441 -3.5t-29.6572 -12.5q-12.9141 -9 -24.3154 -25t-22.9277 -42h169zM617.202 175q-24.7549 -60 -58.6953 -95t-76.1924 -55q-42.0391 -19 -91.3145 -25
t-106.275 -6q-78 0 -121.918 14.5q-43.917 14.5 -59.2207 46t-4.35547 83t42.4668 124.5q32.1562 76 64.6045 127.5t74.1445 83t97.5664 45t134.87 13.5q74 0 117.949 -12t60.4648 -42.5q16.5166 -30.5 6.96191 -82.5t-43.5615 -132l-12.165 -29h-341
q-15.2275 -34 -21.6172 -57t-2.86523 -37q3.52344 -14 17.8545 -19.5q14.3301 -5.5 40.3301 -5.5q40 0 67.626 10t45.3418 51h169zM684.204 636l-54.1797 -62l-195.907 71l97.5977 111z" />
    <glyph glyph-name="eacute" unicode="&#xe9;" horiz-adv-x="574" 
d="M510.729 328q12.1641 29 13.7783 46t-5.68555 25q-7.29883 8 -22.874 10q-15.5742 2 -37.5742 2q-23 0 -39.7441 -3.5t-29.6572 -12.5q-12.9141 -9 -24.3154 -25t-22.9277 -42h169zM617.202 175q-24.7549 -60 -58.6953 -95t-76.1924 -55q-42.0391 -19 -91.3145 -25
t-106.275 -6q-78 0 -121.918 14.5q-43.917 14.5 -59.2207 46t-4.35547 83t42.4668 124.5q32.1562 76 64.6045 127.5t74.1445 83t97.5664 45t134.87 13.5q74 0 117.949 -12t60.4648 -42.5q16.5166 -30.5 6.96191 -82.5t-43.5615 -132l-12.165 -29h-341
q-15.2275 -34 -21.6172 -57t-2.86523 -37q3.52344 -14 17.8545 -19.5q14.3301 -5.5 40.3301 -5.5q40 0 67.626 10t45.3418 51h169zM688.117 645l-256.093 -71l-1.82031 62l255.511 120z" />
    <glyph glyph-name="ecircumflex" unicode="&#xea;" horiz-adv-x="574" 
d="M510.729 328q12.1641 29 13.7783 46t-5.68555 25q-7.29883 8 -22.874 10q-15.5742 2 -37.5742 2q-23 0 -39.7441 -3.5t-29.6572 -12.5q-12.9141 -9 -24.3154 -25t-22.9277 -42h169zM617.202 175q-24.7549 -60 -58.6953 -95t-76.1924 -55q-42.0391 -19 -91.3145 -25
t-106.275 -6q-78 0 -121.918 14.5q-43.917 14.5 -59.2207 46t-4.35547 83t42.4668 124.5q32.1562 76 64.6045 127.5t74.1445 83t97.5664 45t134.87 13.5q74 0 117.949 -12t60.4648 -42.5q16.5166 -30.5 6.96191 -82.5t-43.5615 -132l-12.165 -29h-341
q-15.2275 -34 -21.6172 -57t-2.86523 -37q3.52344 -14 17.8545 -19.5q14.3301 -5.5 40.3301 -5.5q40 0 67.626 10t45.3418 51h169zM743.543 647l-50.1172 -57l-130.82 62l-179.18 -62l-1.88281 57l225.172 109z" />
    <glyph glyph-name="edieresis" unicode="&#xeb;" horiz-adv-x="574" 
d="M510.729 328q12.1641 29 13.7783 46t-5.68555 25q-7.29883 8 -22.874 10q-15.5742 2 -37.5742 2q-23 0 -39.7441 -3.5t-29.6572 -12.5q-12.9141 -9 -24.3154 -25t-22.9277 -42h169zM617.202 175q-24.7549 -60 -58.6953 -95t-76.1924 -55q-42.0391 -19 -91.3145 -25
t-106.275 -6q-78 0 -121.918 14.5q-43.917 14.5 -59.2207 46t-4.35547 83t42.4668 124.5q32.1562 76 64.6045 127.5t74.1445 83t97.5664 45t134.87 13.5q74 0 117.949 -12t60.4648 -42.5q16.5166 -30.5 6.96191 -82.5t-43.5615 -132l-12.165 -29h-341
q-15.2275 -34 -21.6172 -57t-2.86523 -37q3.52344 -14 17.8545 -19.5q14.3301 -5.5 40.3301 -5.5q40 0 67.626 10t45.3418 51h169zM495.465 609h-109l43.8965 103h109zM705.465 609h-109l43.8965 103h109z" />
    <glyph glyph-name="igrave" unicode="&#xec;" horiz-adv-x="257" 
d="M215 0h-172l223.607 525h172zM526.204 636l-54.1797 -62l-195.907 71l97.5977 111z" />
    <glyph glyph-name="iacute" unicode="&#xed;" horiz-adv-x="257" 
d="M215 0h-172l223.607 525h172zM530.117 645l-256.093 -71l-1.82031 62l255.511 120z" />
    <glyph glyph-name="icircumflex" unicode="&#xee;" horiz-adv-x="257" 
d="M215 0h-172l223.607 525h172zM585.543 647l-50.1172 -57l-130.82 62l-179.18 -62l-1.88281 57l225.172 109z" />
    <glyph glyph-name="idieresis" unicode="&#xef;" horiz-adv-x="257" 
d="M215 0h-172l223.607 525h172zM336.465 609h-109l43.8965 103h109zM546.465 609h-109l43.8965 103h109z" />
    <glyph glyph-name="eth" unicode="&#xf0;" horiz-adv-x="593" 
d="M234 572l48 52q-22 9 -44 18.5t-46 15.5l58 98q34 -8 62.5 -19t53.5 -22l41 45l43 -27l-34 -37q61 -32 114.5 -80.5t85.5 -117.5q19 -42 18 -96.5t-19 -139.5q-18 -81 -39.5 -133t-56.5 -82t-89 -41.5t-135 -11.5t-129.5 12.5t-71 43t-22 82t17.5 130.5q17 81 38.5 133
t58 82t93 42t144.5 12q-17 21 -40.5 39t-53.5 34l-57 -62zM384 399q-31 0 -50.5 -5.5t-32.5 -20.5t-21.5 -41.5t-17.5 -69.5t-12 -69.5t3.5 -41.5t24 -20t48.5 -5q30 0 48.5 5t30.5 20t20.5 41.5t17.5 69.5t12 69.5t-2.5 41.5t-22 20.5t-46.5 5.5z" />
    <glyph glyph-name="ntilde" unicode="&#xf1;" horiz-adv-x="619" 
d="M452.607 525l-41.833 -98h7q45.1797 62 92.6445 83q47.4639 21 108.464 21q87 0 110.178 -41.5t-12.8916 -126.5l-154.169 -363h-172l137.665 323q15.0781 38 9.11719 57t-47.9609 19q-29 0 -50.2002 -8q-21.2012 -8 -36.8896 -23t-27.4404 -35t-22.8535 -44
l-122.438 -289h-172l223.607 525h172zM821.109 692q-17.0391 -19 -36.2598 -36.5q-19.2197 -17.5 -40.1963 -31.5t-43.2832 -22.5t-45.3066 -8.5q-30 0 -49.7686 10.5q-19.7676 10.5 -35.0039 23.5q-14.2363 13 -27.0039 23.5q-12.7686 10.5 -28.7686 10.5
q-23 0 -42.3691 -13.5q-19.3701 -13.5 -37.1963 -31.5l-63.6465 44q36.8652 37 81.1367 66.5t90.2715 29.5q27 0 45.2676 -10.5t32.5039 -23.5q16.0244 -14 30.292 -24.5t33.2676 -10.5q20 0 38.6895 15q18.6885 15 33.0898 31z" />
    <glyph glyph-name="ograve" unicode="&#xf2;" horiz-adv-x="593" 
d="M521.883 531q82 0 129.162 -11q47.1611 -11 62.8896 -40.5t3.56836 -82q-12.1611 -52.5 -46.8057 -135.5q-35.2197 -81 -67.7734 -133q-32.5547 -52 -73.9326 -82q-41.377 -30 -97.8223 -41.5q-56.4443 -11.5 -137.444 -11.5t-126.843 12.5t-61.8584 43
q-16.0166 30.5 -4.56836 82t45.2422 130.5q34.2197 81 66.2744 133q32.0537 52 73.4316 82t97.9287 42t138.551 12zM468.821 399q-31 0 -51.6689 -5.5t-36.8584 -20.5q-16.1885 -15 -30.3223 -41.5q-14.1328 -26.5 -32.2744 -69.5q-18.1406 -43 -26.7744 -69.5
t-5.32227 -41.5t19.748 -20q16.4375 -5 47.4375 -5q30 0 49.5625 5q19.5635 5 34.752 20t29.3223 41.5t32.2744 69.5q18.1416 43 26.7744 69.5q8.63379 26.5 6.32227 41.5q-2.31055 15 -17.6416 20.5t-45.3311 5.5zM694.204 636l-54.1797 -62l-195.907 71l97.5977 111z" />
    <glyph glyph-name="oacute" unicode="&#xf3;" horiz-adv-x="593" 
d="M521.883 531q82 0 129.162 -11q47.1611 -11 62.8896 -40.5t3.56836 -82q-12.1611 -52.5 -46.8057 -135.5q-35.2197 -81 -67.7734 -133q-32.5547 -52 -73.9326 -82q-41.377 -30 -97.8223 -41.5q-56.4443 -11.5 -137.444 -11.5t-126.843 12.5t-61.8584 43
q-16.0166 30.5 -4.56836 82t45.2422 130.5q34.2197 81 66.2744 133q32.0537 52 73.4316 82t97.9287 42t138.551 12zM468.821 399q-31 0 -51.6689 -5.5t-36.8584 -20.5q-16.1885 -15 -30.3223 -41.5q-14.1328 -26.5 -32.2744 -69.5q-18.1406 -43 -26.7744 -69.5
t-5.32227 -41.5t19.748 -20q16.4375 -5 47.4375 -5q30 0 49.5625 5q19.5635 5 34.752 20t29.3223 41.5t32.2744 69.5q18.1416 43 26.7744 69.5q8.63379 26.5 6.32227 41.5q-2.31055 15 -17.6416 20.5t-45.3311 5.5zM698.117 645l-256.093 -71l-1.82031 62l255.511 120z" />
    <glyph glyph-name="ocircumflex" unicode="&#xf4;" horiz-adv-x="593" 
d="M521.883 531q82 0 129.162 -11q47.1611 -11 62.8896 -40.5t3.56836 -82q-12.1611 -52.5 -46.8057 -135.5q-35.2197 -81 -67.7734 -133q-32.5547 -52 -73.9326 -82q-41.377 -30 -97.8223 -41.5q-56.4443 -11.5 -137.444 -11.5t-126.843 12.5t-61.8584 43
q-16.0166 30.5 -4.56836 82t45.2422 130.5q34.2197 81 66.2744 133q32.0537 52 73.4316 82t97.9287 42t138.551 12zM468.821 399q-31 0 -51.6689 -5.5t-36.8584 -20.5q-16.1885 -15 -30.3223 -41.5q-14.1328 -26.5 -32.2744 -69.5q-18.1406 -43 -26.7744 -69.5
t-5.32227 -41.5t19.748 -20q16.4375 -5 47.4375 -5q30 0 49.5625 5q19.5635 5 34.752 20t29.3223 41.5t32.2744 69.5q18.1416 43 26.7744 69.5q8.63379 26.5 6.32227 41.5q-2.31055 15 -17.6416 20.5t-45.3311 5.5zM753.543 647l-50.1172 -57l-130.82 62l-179.18 -62
l-1.88281 57l225.172 109z" />
    <glyph glyph-name="otilde" unicode="&#xf5;" horiz-adv-x="593" 
d="M521.883 531q82 0 129.162 -11q47.1611 -11 62.8896 -40.5t3.56836 -82q-12.1611 -52.5 -46.8057 -135.5q-35.2197 -81 -67.7734 -133q-32.5547 -52 -73.9326 -82q-41.377 -30 -97.8223 -41.5q-56.4443 -11.5 -137.444 -11.5t-126.843 12.5t-61.8584 43
q-16.0166 30.5 -4.56836 82t45.2422 130.5q34.2197 81 66.2744 133q32.0537 52 73.4316 82t97.9287 42t138.551 12zM468.821 399q-31 0 -51.6689 -5.5t-36.8584 -20.5q-16.1885 -15 -30.3223 -41.5q-14.1328 -26.5 -32.2744 -69.5q-18.1406 -43 -26.7744 -69.5
t-5.32227 -41.5t19.748 -20q16.4375 -5 47.4375 -5q30 0 49.5625 5q19.5635 5 34.752 20t29.3223 41.5t32.2744 69.5q18.1416 43 26.7744 69.5q8.63379 26.5 6.32227 41.5q-2.31055 15 -17.6416 20.5t-45.3311 5.5zM808.109 692q-17.0391 -19 -36.2598 -36.5
q-19.2197 -17.5 -40.1963 -31.5t-43.2832 -22.5t-45.3066 -8.5q-30 0 -49.7686 10.5q-19.7676 10.5 -35.0039 23.5q-14.2363 13 -27.0039 23.5q-12.7686 10.5 -28.7686 10.5q-23 0 -42.3691 -13.5q-19.3701 -13.5 -37.1963 -31.5l-63.6465 44q36.8652 37 81.1367 66.5
t90.2715 29.5q27 0 45.2676 -10.5t32.5039 -23.5q16.0244 -14 30.292 -24.5t33.2676 -10.5q20 0 38.6895 15q18.6885 15 33.0898 31z" />
    <glyph glyph-name="odieresis" unicode="&#xf6;" horiz-adv-x="593" 
d="M521.883 531q82 0 129.162 -11q47.1611 -11 62.8896 -40.5t3.56836 -82q-12.1611 -52.5 -46.8057 -135.5q-35.2197 -81 -67.7734 -133q-32.5547 -52 -73.9326 -82q-41.377 -30 -97.8223 -41.5q-56.4443 -11.5 -137.444 -11.5t-126.843 12.5t-61.8584 43
q-16.0166 30.5 -4.56836 82t45.2422 130.5q34.2197 81 66.2744 133q32.0537 52 73.4316 82t97.9287 42t138.551 12zM468.821 399q-31 0 -51.6689 -5.5t-36.8584 -20.5q-16.1885 -15 -30.3223 -41.5q-14.1328 -26.5 -32.2744 -69.5q-18.1406 -43 -26.7744 -69.5
t-5.32227 -41.5t19.748 -20q16.4375 -5 47.4375 -5q30 0 49.5625 5q19.5635 5 34.752 20t29.3223 41.5t32.2744 69.5q18.1416 43 26.7744 69.5q8.63379 26.5 6.32227 41.5q-2.31055 15 -17.6416 20.5t-45.3311 5.5zM504.465 609h-109l43.8965 103h109zM714.465 609h-109
l43.8965 103h109z" />
    <glyph glyph-name="divide" unicode="&#xf7;" horiz-adv-x="600" 
d="M121 334h500l-24 -115h-500zM248 28l24 115h115l-24 -115h-115zM329 410l25 115h115l-25 -115h-115z" />
    <glyph glyph-name="oslash" unicode="&#xf8;" horiz-adv-x="615" 
d="M260 161q5 -23 26 -29t48 -6q29 0 48.5 5.5t32 19t20 35t14.5 52.5l10 47zM466 362q0 14 -7.5 21.5t-19 11t-24.5 4t-23 0.5q-52 0 -74.5 -16t-29.5 -49l-20 -94zM16 83l66 41q1 41 8.5 82.5t16.5 83.5q16 76 39 123t59.5 73.5t88.5 35.5t126 9q29 0 61 -1t61 -7
t52.5 -19.5t35.5 -37.5l86 55l-18 -85l-51 -32q1 -28 -4 -56t-11 -57q-19 -87 -39 -144.5t-54 -91t-89 -47.5t-144 -14q-30 0 -61 1t-59 7.5t-51 20.5t-37 39l-100 -62z" />
    <glyph glyph-name="ugrave" unicode="&#xf9;" horiz-adv-x="615" 
d="M388 0l48.4707 101h-8q-43.9668 -61 -95.3564 -84t-106.39 -23q-39 0 -68.0869 9t-44.335 29t-14.2334 53q1.01562 33 21.2197 81l153.318 359h172l-133.539 -313q-7.82715 -18 -12.6221 -33.5t-3.3457 -27.5t11.0674 -18.5t31.6182 -6.5q17 0 36.4561 4.5
q19.457 4.5 36.9766 14t32.6016 24q15.083 14.5 23.1221 33.5l137.665 323h172l-223.607 -525h-167zM705.204 636l-54.1797 -62l-195.907 71l97.5977 111z" />
    <glyph glyph-name="uacute" unicode="&#xfa;" horiz-adv-x="615" 
d="M388 0l48.4707 101h-8q-43.9668 -61 -95.3564 -84t-106.39 -23q-39 0 -68.0869 9t-44.335 29t-14.2334 53q1.01562 33 21.2197 81l153.318 359h172l-133.539 -313q-7.82715 -18 -12.6221 -33.5t-3.3457 -27.5t11.0674 -18.5t31.6182 -6.5q17 0 36.4561 4.5
q19.457 4.5 36.9766 14t32.6016 24q15.083 14.5 23.1221 33.5l137.665 323h172l-223.607 -525h-167zM709.117 645l-256.093 -71l-1.82031 62l255.511 120z" />
    <glyph glyph-name="ucircumflex" unicode="&#xfb;" horiz-adv-x="615" 
d="M388 0l48.4707 101h-8q-43.9668 -61 -95.3564 -84t-106.39 -23q-39 0 -68.0869 9t-44.335 29t-14.2334 53q1.01562 33 21.2197 81l153.318 359h172l-133.539 -313q-7.82715 -18 -12.6221 -33.5t-3.3457 -27.5t11.0674 -18.5t31.6182 -6.5q17 0 36.4561 4.5
q19.457 4.5 36.9766 14t32.6016 24q15.083 14.5 23.1221 33.5l137.665 323h172l-223.607 -525h-167zM764.543 647l-50.1172 -57l-130.82 62l-179.18 -62l-1.88281 57l225.172 109z" />
    <glyph glyph-name="udieresis" unicode="&#xfc;" horiz-adv-x="615" 
d="M388 0l48.4707 101h-8q-43.9668 -61 -95.3564 -84t-106.39 -23q-39 0 -68.0869 9t-44.335 29t-14.2334 53q1.01562 33 21.2197 81l153.318 359h172l-133.539 -313q-7.82715 -18 -12.6221 -33.5t-3.3457 -27.5t11.0674 -18.5t31.6182 -6.5q17 0 36.4561 4.5
q19.457 4.5 36.9766 14t32.6016 24q15.083 14.5 23.1221 33.5l137.665 323h172l-223.607 -525h-167zM515.465 609h-109l43.8965 103h109zM725.465 609h-109l43.8965 103h109z" />
    <glyph glyph-name="yacute" unicode="&#xfd;" horiz-adv-x="533" 
d="M388.221 -46q-33.0537 -52 -64.1006 -87.5t-66.2236 -57.5t-77.8027 -32t-97.626 -10q-15 0 -28.7881 1q-13.7871 1 -28.5742 2l50.2979 119q7.78711 -1 14.6807 -1.5t14.8936 -0.5q27 0 47.9131 9q20.9141 9 37.3154 25t29.1523 36q12.752 20 23.6416 43h-94
l67.6074 525h180l-77.7744 -427h2l266.774 427h176zM668.117 645l-256.093 -71l-1.82031 62l255.511 120z" />
    <glyph glyph-name="thorn" unicode="&#xfe;" horiz-adv-x="618" 
d="M317 444h6q25 52 67.5 69.5t99.5 17.5q95 0 137.5 -44.5t20.5 -148.5l-26 -120q-12 -60 -32 -102.5t-49.5 -69.5t-70 -39.5t-94.5 -12.5q-24 0 -45 3t-38 12.5t-28.5 26t-16.5 43.5h-8l-65 -306h-172l207 977h172zM394 399q-28 0 -46 -6t-30.5 -21t-21 -41.5t-17.5 -68.5
q-7 -33 -10.5 -58.5t1.5 -42.5t20.5 -26t45.5 -9q26 0 45.5 4.5t33.5 19t24.5 41t20.5 71.5q8 38 11.5 64.5t-2.5 42.5t-23.5 23t-51.5 7z" />
    <glyph glyph-name="ydieresis" unicode="&#xff;" horiz-adv-x="533" 
d="M388.221 -46q-33.0537 -52 -64.1006 -87.5t-66.2236 -57.5t-77.8027 -32t-97.626 -10q-15 0 -28.7881 1q-13.7871 1 -28.5742 2l50.2979 119q7.78711 -1 14.6807 -1.5t14.8936 -0.5q27 0 47.9131 9q20.9141 9 37.3154 25t29.1523 36q12.752 20 23.6416 43h-94
l67.6074 525h180l-77.7744 -427h2l266.774 427h176zM474.465 609h-109l43.8965 103h109zM684.465 609h-109l43.8965 103h109z" />
    <glyph glyph-name="dotlessi" unicode="&#x131;" horiz-adv-x="257" 
d="M215 0h-172l112 525h172z" />
    <glyph glyph-name="Lslash" unicode="&#x141;" horiz-adv-x="596" 
d="M307 174h315l-37 -174h-515l65 306l-86 -61l30 142l86 60l64 303h200l-35 -167l149 106l-29 -139l-149 -105z" />
    <glyph glyph-name="lslash" unicode="&#x142;" horiz-adv-x="312" 
d="M243 0h-172l71 335l-81 -50l19 92l82 51l68 322h172l-46 -218l80 51l-20 -95l-80 -51z" />
    <glyph glyph-name="OE" unicode="&#x152;" horiz-adv-x="1101" 
d="M560 83h-7q-43 -53 -90.5 -70.5t-105.5 -18.5q-85 0 -142.5 12.5t-89 45.5t-37.5 90t13 145l30 141q17 81 41 142.5t64 102.5t100 62t150 21q29 0 60.5 -2.5t58.5 -12.5t46 -29t24 -52h7l12 90h526l-34 -164h-340l-30 -139h318l-30 -139h-318l-30 -144h347l-35 -164h-533
zM628 457q10 45 7 72t-19.5 41t-46 18t-72.5 4q-41 0 -68 -6.5t-44.5 -22t-28.5 -41.5t-19 -65l-31 -145q-10 -49 -11 -79t9.5 -46.5t35 -22.5t65.5 -6q54 0 88 8.5t54 27t30.5 47.5t19.5 71z" />
    <glyph glyph-name="oe" unicode="&#x153;" horiz-adv-x="920" 
d="M784 328q12 59 -5.5 78.5t-60.5 19.5q-46 0 -68.5 -23t-34.5 -75h169zM429 262q9 44 13 70.5t-1 41.5t-20.5 20t-46.5 5q-30 0 -48 -5t-30 -20t-19.5 -41.5t-16.5 -70.5q-10 -46 -12.5 -73t4 -41t22.5 -18t42 -4q29 0 47 6t30 21.5t19.5 42t16.5 66.5zM391 531
q24 0 50.5 -1.5t50.5 -8.5t42 -21t24 -39h4q16 26 38.5 40.5t47.5 21t49.5 7.5t45.5 1q74 0 120.5 -12t69.5 -42.5t24.5 -82.5t-15.5 -132l-6 -29h-341q-8 -34 -9.5 -57t5 -37t22 -19.5t41.5 -5.5q40 0 65.5 10t34.5 51h169q-12 -60 -38.5 -95t-64.5 -55q-38 -19 -86 -25
t-105 -6q-24 0 -49 1.5t-46.5 8.5t-36.5 23t-18 44h-6q-20 -27 -40 -42t-42.5 -23t-50 -10t-63.5 -2q-79 0 -124.5 13t-65.5 44.5t-18 83t19 127.5q16 75 35 126.5t52 83t84.5 45.5t131.5 14z" />
    <glyph glyph-name="Scaron" unicode="&#x160;" horiz-adv-x="716" 
d="M596.939 456q80.7236 -6 129.992 -16.5q49.2676 -10.5 70.4844 -33t16.8193 -62q-4.39648 -39.5 -32.2148 -104.5q-19.7793 -46 -42.7393 -90.5t-67.7939 -79t-120.299 -55.5q-75.4639 -21 -198.464 -21q-72 0 -128.544 4.5q-56.543 4.5 -88.4404 28.5
q-31.8984 24 -33.1631 74.5t38.2939 142.5h192q-12.165 -29 -13.7793 -46t8.97266 -26t34.0557 -11.5t60.4688 -2.5q35 0 59.9248 2t42.4131 9t29.3584 20.5t21.9717 37.5q10.1025 24 12.9717 37.5q2.87012 13.5 -5.24805 20t-28.1934 8.5q-20.0742 2 -54.6494 4l-42.3623 3
q-67.9365 5 -119.661 11t-80.2607 27q-28.5352 21 -29.7881 64.5q-1.25195 43.5 32.9668 124.5q34.2197 81 75.8926 126.5t92.0615 68.5q50.3896 23 111.559 28.5q61.1699 5.5 135.17 5.5q61 0 114.756 -3.5t87.0039 -23.5t39.7139 -62.5q6.46484 -42.5 -27.1172 -120.5
l-13.5898 -31h-192q13.165 29 13.46 44.5t-10.1104 23t-31.1934 8.5q-20.7871 1 -50.7871 1q-41 0 -65.8506 -4q-24.8496 -4 -40.0508 -12t-23.252 -20t-15.4521 -28q-9.67676 -22 -9.44043 -35t7.96094 -19t22.2988 -8q14.5752 -2 33.1504 -4zM522.598 924l51.1172 57
l125.819 -62l184.181 62l0.882812 -57l-230.172 -109z" />
    <glyph glyph-name="scaron" unicode="&#x161;" horiz-adv-x="578" 
d="M518.932 376q4.61426 17 0.921875 25.5q-3.69336 8.5 -11.7373 13q-8.04297 4.5 -19.4365 5t-21.3936 0.5q-33 0 -52.4258 -2q-19.4248 -2 -29.9873 -7q-10.5635 -5 -15.2637 -13q-4.70117 -8 -10.252 -20q-4.12598 -10 -5.82617 -18q-1.70117 -8 4.52344 -14
t22.9805 -9.5t49.543 -4.5q65.7881 -1 112.225 -6q46.4375 -5 71.0361 -21t26.4023 -47.5q1.80273 -31.5 -21.8887 -86.5q-24.3301 -58 -59.665 -92.5q-35.334 -34.5 -78.873 -53.5t-92.8145 -25t-100.275 -6t-96.5752 2q-45.5742 2 -74.6729 18t-35.2646 50.5t21.6523 99.5
h172q-9.67676 -22 -7.22852 -34q2.44922 -12 11.7803 -17.5t24.6182 -6.5t30.2871 -1q30 0 48.3193 1.5q18.3184 1.5 29.7754 6q11.4561 4.5 18.4756 14q7.02051 9.5 13.209 24.5q8.25195 20 6.9834 30.5q-1.26758 10.5 -10.3105 15q-9.04395 4.5 -25.3311 5.5t-39.2871 1
q-82 0 -127.98 9.5t-65.9414 28.5t-16.6895 48.5q3.27051 29.5 19.7744 69.5q27.3926 63 61.833 98t75.9482 51.5t89.6455 19.5t103.138 3q36 0 75.5752 -2q39.5742 -2 68.917 -14.5t41.209 -39q11.8672 -26.5 -9.33691 -74.5l-10.3154 -25h-162zM405.598 699l51.1172 57
l125.819 -62l184.181 62l0.882812 -57l-230.172 -109z" />
    <glyph glyph-name="Ydieresis" unicode="&#x178;" horiz-adv-x="708" 
d="M561.91 263l-111.91 -263h-200l111.91 263l-59.4707 487h229l11.5625 -289h7l260.438 289h232zM610.465 834h-109l43.8965 103h109zM820.465 834h-109l43.8965 103h109z" />
    <glyph glyph-name="Zcaron" unicode="&#x17d;" horiz-adv-x="659" 
d="M883.725 582l-530.459 -402l-2.27539 -6h359l-73.9902 -174h-613l71.9268 169l524.247 401l2.27539 6h-331l73.9902 174h590zM494.598 924l51.1172 57l125.819 -62l184.181 62l0.882812 -57l-230.172 -109z" />
    <glyph glyph-name="zcaron" unicode="&#x17e;" horiz-adv-x="496" 
d="M698.607 525l-57.9121 -136l-368.186 -269h254l-51.5098 -120h-454l60.1875 142l359.909 263h-229l51.5107 120h435zM364.598 699l51.1172 57l125.819 -62l184.181 62l0.882812 -57l-230.172 -109z" />
    <glyph glyph-name="florin" unicode="&#x192;" 
d="M651 363h-102l-152 -390q-19 -50 -35 -85t-34.5 -58t-42 -35.5t-58 -18.5t-83 -7.5t-117.5 -1.5l50 131q13 -2 25 -3.5t25 -1.5q22 0 36.5 6.5t24.5 18.5t17 27.5t15 33.5l149 384h-76l49 126h75l23 59q31 78 58.5 120.5t66 62t95 22.5t144.5 3l-50 -131q-21 5 -39 5
t-31.5 -3t-24.5 -12t-20.5 -26.5t-20.5 -46.5l-20 -53h102z" />
    <glyph glyph-name="circumflex" unicode="&#x2c6;" horiz-adv-x="512" 
d="M575 647l-38 -57l-144 62l-166 -62l-14 57l202 109z" />
    <glyph glyph-name="caron" unicode="&#x2c7;" horiz-adv-x="512" 
d="M224 699l39 57l139 -62l171 62l13 -57l-207 -109z" />
    <glyph glyph-name="breve" unicode="&#x2d8;" horiz-adv-x="506" 
d="M325 733q-1 -35 14.5 -55t53.5 -20t61.5 20t38.5 55h94q-12 -35 -33 -64.5t-49 -50.5t-61 -33t-69 -12q-35 0 -63 12t-47 33.5t-28 51t-6 63.5h94z" />
    <glyph glyph-name="dotaccent" unicode="&#x2d9;" horiz-adv-x="259" 
d="M313 609h-109l22 103h109z" />
    <glyph glyph-name="ring" unicode="&#x2da;" horiz-adv-x="345" 
d="M216 664q4 20 15.5 38t28 31t36 20.5t39.5 7.5q40 0 62.5 -28t13.5 -69q-4 -20 -15.5 -38t-27.5 -31.5t-35.5 -21t-39.5 -7.5q-40 0 -63 28.5t-14 69.5zM268 664q-4 -19 6 -32.5t29 -13.5q18 0 35 13.5t21 32.5t-7 32t-29 13q-19 0 -35 -13t-20 -32z" />
    <glyph glyph-name="ogonek" unicode="&#x2db;" horiz-adv-x="314" 
d="M238 0l-27.5 -15t-32 -20t-27.5 -23.5t-15 -25.5q-3 -17 7 -23t25 -6q12 0 23.5 2.5t23.5 6.5l-16 -76q-14 -6 -29 -8.5t-30 -2.5q-20 0 -38 6t-30.5 17.5t-17.5 28.5t0 40q7 35 33.5 59.5t59.5 39.5h91z" />
    <glyph glyph-name="tilde" unicode="&#x2dc;" horiz-adv-x="585" 
d="M657 692q-13 -19 -28.5 -36.5t-33.5 -31.5t-38.5 -22.5t-43.5 -8.5q-30 0 -52 10.5t-40 23.5q-17 13 -32 23.5t-31 10.5q-23 0 -39.5 -13.5t-30.5 -31.5l-73 44q29 37 67 66.5t84 29.5q27 0 47.5 -10.5t37.5 -23.5q19 -14 35.5 -24.5t35.5 -10.5q20 0 35.5 15t26.5 31z
" />
    <glyph glyph-name="hungarumlaut" unicode="&#x2dd;" horiz-adv-x="595" 
d="M454 719l-210 -139l-36 47l181 175zM673 719l-210 -139l-36 47l181 175z" />
    <glyph glyph-name="endash" unicode="&#x2013;" horiz-adv-x="500" 
d="M576 358l-35 -164h-500l35 164h500z" />
    <glyph glyph-name="emdash" unicode="&#x2014;" horiz-adv-x="1000" 
d="M1076 358l-35 -164h-1000l35 164h1000z" />
    <glyph glyph-name="quoteleft" unicode="&#x2018;" horiz-adv-x="264" 
d="M141 446l36 168q7 39 20 66t36.5 44t58.5 24.5t87 7.5l-16 -75q-43 -1 -60.5 -15t-25.5 -52h62l-36 -168h-162z" />
    <glyph glyph-name="quoteright" unicode="&#x2019;" horiz-adv-x="264" 
d="M377 750l-35 -168q-7 -39 -20.5 -66t-36.5 -44t-58.5 -24.5t-86.5 -7.5l15 75q44 1 61.5 15t25.5 52h-62l35 168h162z" />
    <glyph glyph-name="quotesinglbase" unicode="&#x201a;" horiz-adv-x="264" 
d="M254 168l-36 -168q-7 -39 -20.5 -66t-36.5 -44t-58.5 -24.5t-86.5 -7.5l16 75q43 1 60.5 15t25.5 52h-62l36 168h162z" />
    <glyph glyph-name="quotedblleft" unicode="&#x201c;" horiz-adv-x="489" 
d="M366 446l36 168q7 39 20 66t36.5 44t58.5 24.5t87 7.5l-16 -75q-43 -1 -60.5 -15t-25.5 -52h62l-36 -168h-162zM141 446l36 168q7 39 20 66t36.5 44t58.5 24.5t87 7.5l-16 -75q-43 -1 -60.5 -15t-25.5 -52h62l-36 -168h-162z" />
    <glyph glyph-name="quotedblright" unicode="&#x201d;" horiz-adv-x="489" 
d="M377 750l-35 -168q-7 -39 -20.5 -66t-36.5 -44t-58.5 -24.5t-86.5 -7.5l15 75q44 1 61.5 15t25.5 52h-62l35 168h162zM602 750l-35 -168q-7 -39 -20.5 -66t-36.5 -44t-58.5 -24.5t-86.5 -7.5l15 75q44 1 61.5 15t25.5 52h-62l35 168h162z" />
    <glyph glyph-name="quotedblbase" unicode="&#x201e;" horiz-adv-x="489" 
d="M252 168l-36 -168q-7 -39 -20.5 -66t-36.5 -44t-58.5 -24.5t-86.5 -7.5l16 75q43 1 60.5 15t25.5 52h-62l36 168h162zM477 168l-36 -168q-7 -39 -20.5 -66t-36.5 -44t-58.5 -24.5t-86.5 -7.5l16 75q43 1 60.5 15t25.5 52h-62l36 168h162z" />
    <glyph glyph-name="dagger" unicode="&#x2020;" 
d="M559 531h182l-28 -132h-182l-133 -626h-172l133 626h-182l28 132h182l46 219h172z" />
    <glyph glyph-name="daggerdbl" unicode="&#x2021;" 
d="M558 525h182l-28 -132h-182l-56 -261h182l-28 -132h-182l-48 -227h-172l48 227h-182l28 132h182l56 261h-182l28 132h182l47 225h172z" />
    <glyph glyph-name="bullet" unicode="&#x2022;" horiz-adv-x="600" 
d="M568 375q-9 -39 -30.5 -73t-52.5 -59.5t-68.5 -40t-76.5 -14.5t-70 14.5t-51 39.5t-27.5 59.5t1.5 73.5q7 39 29 73.5t52.5 60t68 40t77.5 14.5q39 0 70 -14.5t51 -40t27.5 -60t-0.5 -73.5z" />
    <glyph glyph-name="ellipsis" unicode="&#x2026;" horiz-adv-x="1000" 
d="M247 0h-162l37 174h162zM581 0h-162l37 174h162zM915 0h-162l37 174h162z" />
    <glyph glyph-name="perthousand" unicode="&#x2030;" horiz-adv-x="1290" 
d="M1295 130q-11 -45 -26 -72t-38 -41t-55 -18.5t-75 -4.5q-44 0 -73 4t-45 18.5t-19 41t5 71.5l24 110q10 45 24.5 72t36.5 41t52.5 18.5t74.5 4.5t74 -4t47 -18.5t21 -41t-5 -71.5zM1215 228q5 22 5 34t-6 18t-19 7t-33 1q-18 0 -30 -1t-19.5 -7t-12.5 -18t-10 -34
l-17 -83q-5 -24 -5.5 -37t4.5 -19t16.5 -7t29.5 -1q19 0 32 1t22 7t15 19t11 37zM299 0h-120l602 750h120zM912 130q-11 -45 -26 -72t-38 -41t-55 -18.5t-75 -4.5q-44 0 -73 4t-45 18.5t-19 41t5 71.5l24 110q10 45 24.5 72t36.5 41t52.5 18.5t74.5 4.5t74 -4t47 -18.5
t21 -41t-5 -71.5zM832 228q5 22 5 34t-6 18t-19 7t-33 1q-18 0 -30 -1t-19.5 -7t-12.5 -18t-10 -34l-17 -83q-5 -24 -5.5 -37t4.5 -19t16.5 -7t29.5 -1q19 0 32 1t22 7t15 19t11 37zM457 511q-11 -45 -26 -72t-38 -41t-55 -18.5t-75 -4.5q-44 0 -73 4t-45 18.5t-19 41
t5 71.5l24 110q10 45 24.5 72t36.5 41t52.5 18.5t74.5 4.5t74 -4t47 -18.5t21 -41t-5 -71.5zM377 609q5 22 5 34t-6 18t-19 7t-33 1q-18 0 -30 -1t-19.5 -7t-12.5 -18t-10 -34l-17 -83q-5 -24 -5.5 -37t4.5 -19t16.5 -7t29.5 -1q19 0 32 1t22 7t15 19t11 37z" />
    <glyph glyph-name="guilsinglleft" unicode="&#x2039;" horiz-adv-x="331" 
d="M382 454l-135 -182l60 -169l-121 -66l-84 235l179 243z" />
    <glyph glyph-name="guilsinglright" unicode="&#x203a;" horiz-adv-x="330" 
d="M60 98l135 182l-61 169l121 66l85 -235l-180 -243z" />
    <glyph glyph-name="fraction" unicode="&#x2044;" horiz-adv-x="218" 
d="M-53 0h-120l602 750h120z" />
    <glyph glyph-name="trademark" unicode="&#x2122;" horiz-adv-x="860" 
d="M938 346h-93l68 323h-2l-185 -323h-52l-49 323h-2l-68 -323h-93l85 404h147l41 -239l141 239h147zM486 667h-123l-68 -321h-102l68 321h-123l17 83h348z" />
    <glyph glyph-name="minus" unicode="&#x2212;" horiz-adv-x="600" 
d="M121 334h500l-24 -115h-500z" />
    <glyph glyph-name="fi" unicode="&#xfb01;" horiz-adv-x="651" 
d="M608 0h-172l112 525h172zM739 618h-172l28 132h172zM503 619q-16 5 -31 5q-29 0 -45.5 -3t-25.5 -12t-14 -24.5t-10 -40.5l-4 -19h117l-27 -126h-117l-85 -399h-172l85 399h-69l27 126h69l10 51q11 52 30.5 86t55 53.5t92 27.5t141.5 7z" />
    <glyph glyph-name="fl" unicode="&#xfb02;" horiz-adv-x="666" 
d="M608 0h-172l159 750h172zM463 399h-117l-85 -399h-172l85 399h-69l27 126h69l10 51q11 52 30.5 86t55 53.5t92 27.5t141.5 7l-27 -131q-16 5 -31 5q-29 0 -45.5 -3t-25.5 -12t-14 -24.5t-10 -40.5l-4 -19h117z" />
  </font>
</defs>
</svg>
