<?xml version="1.0" standalone="no"?>
<!DOCTYPE svg PUBLIC "-//W3C//DTD SVG 1.1//EN" "http://www.w3.org/Graphics/SVG/1.1/DTD/svg11.dtd" >
<svg xmlns="http://www.w3.org/2000/svg" xmlns:xlink="http://www.w3.org/1999/xlink" version="1.1">
<metadata>
Created by FontForge 20150102 at Wed Feb  4 21:57:50 2015
 By uniteet7
 Copyright (c) 1987 Adobe Systems Incorporated.  All rights reserved.
</metadata>
<defs>
<font id="EurostileDemiOblique" horiz-adv-x="705" >
  <font-face 
    font-family="EurostileDemiOblique"
    font-weight="400"
    font-style="oblique"
    font-stretch="normal"
    units-per-em="1000"
    panose-1="0 0 0 0 0 0 0 0 0 0"
    ascent="750"
    descent="-250"
    x-height="525"
    cap-height="750"
    bbox="-50 -233 1327.23 993"
    underline-thickness="75"
    underline-position="-38"
    slope="-12"
    unicode-range="U+000D-FB02"
  />
<missing-glyph horiz-adv-x="352" 
 />
    <glyph glyph-name=".notdef" horiz-adv-x="352" 
 />
    <glyph glyph-name=".null" horiz-adv-x="0" 
 />
    <glyph glyph-name=".null" horiz-adv-x="0" 
 />
    <glyph glyph-name="nonmarkingreturn" unicode="&#xd;" horiz-adv-x="250" 
 />
    <glyph glyph-name="space" unicode=" " horiz-adv-x="352" 
d="M0 0z" />
    <glyph glyph-name="exclam" unicode="!" horiz-adv-x="309" 
d="M217 0h-126l29 137h126zM270 251h-126l98 499h142z" />
    <glyph glyph-name="quotedbl" unicode="&#x22;" horiz-adv-x="474" 
d="M347 750l-27 -130l-70 -129h-54l-14 129l27 130h138zM583 750l-27 -130l-70 -129h-54l-14 129l27 130h138z" />
    <glyph glyph-name="numbersign" unicode="#" 
d="M536 750l-83 -210h109l83 210h92l-83 -210h89l-25 -115h-107l-52 -133h103l-24 -115h-127l-71 -177h-93l71 177h-109l-71 -177h-93l71 177h-100l24 115h122l52 133h-105l25 115h126l83 210h93zM355 292h110l54 133h-112z" />
    <glyph glyph-name="dollar" unicode="$" 
d="M415 112q46 0 77 4.5t50.5 17.5t31 35t18.5 57t0.5 54t-24 28t-45.5 10.5t-64 2.5zM484 439q66 -3 118 -9t85.5 -26.5t45 -62t-4.5 -115.5q-15 -69 -41.5 -114t-67.5 -71t-98 -36.5t-131 -10.5l-17 -78h-80l17 78q-93 0 -146 16t-77 45.5t-24.5 70.5t9.5 91l6 27h126
l-6 -27q-8 -37 -4 -58t20 -31.5t46 -13t75 -2.5l44 209q-66 6 -117 14.5t-82 29.5t-41 60.5t5 108.5q15 74 42.5 118t68 67t94.5 30t123 7l15 73h80l-15 -73q58 -2 105.5 -6.5t78.5 -23.5t42 -57.5t-4 -107.5l-5 -25h-126l5 25q4 27 0 42t-18.5 22.5t-40 9.5t-62.5 3z
M447 638q-41 -1 -69 -3t-47 -11.5t-31 -30.5t-20 -59q-8 -33 -2 -51.5t23 -27.5t43.5 -11.5t59.5 -4.5z" />
    <glyph glyph-name="percent" unicode="%" horiz-adv-x="905" 
d="M265 0h-93l633 750h95zM911 130q-11 -45 -26 -72t-38 -41t-55 -18.5t-75 -4.5q-44 0 -73 4t-45 18.5t-19 41t5 71.5l24 110q10 45 24.5 72t36.5 41t52.5 18.5t74.5 4.5t74 -4t47 -18.5t21 -41t-5 -71.5zM848 234q5 24 4.5 37.5t-8 19.5t-23 7t-40.5 1q-24 0 -38.5 -1
t-24 -7t-15 -19.5t-10.5 -37.5l-20 -93q-6 -26 -6 -40.5t6.5 -21t21 -8t37.5 -1.5t39 1.5t26.5 8t17.5 21t13 40.5zM456 511q-11 -45 -26 -72t-38 -41t-55 -18.5t-75 -4.5q-44 0 -73 4t-45 18.5t-19 41t5 71.5l24 110q10 45 24.5 72t36.5 41t52.5 18.5t74.5 4.5t74 -4
t47 -18.5t21 -41t-5 -71.5zM393 615q5 24 4.5 37.5t-8 19.5t-23 7t-40.5 1q-24 0 -38.5 -1t-24 -7t-15 -19.5t-10.5 -37.5l-20 -93q-6 -26 -6 -40.5t6.5 -21t21 -8t37.5 -1.5t39 1.5t26.5 8t17.5 21t13 40.5z" />
    <glyph glyph-name="ampersand" unicode="&#x26;" horiz-adv-x="781" 
d="M355 365q-32 -5 -51 -15t-30.5 -26.5t-18 -40t-13.5 -55.5q-9 -45 -4.5 -68.5t23.5 -34t52 -12t80 -1.5q27 0 50 0.5t43 5t37 13.5t33 26zM632 77q-23 -30 -53.5 -47t-65 -25t-71.5 -9.5t-74 -1.5q-73 0 -129 6t-91 29.5t-46.5 70.5t5.5 128q9 42 21.5 77.5t33.5 62.5
t53 43.5t79 20.5q-15 16 -24.5 29.5t-13.5 28.5t-3 32.5t6 42.5q13 63 37 100.5t59 57.5t81 26.5t105 6.5q71 0 114 -8.5t63.5 -33.5t20.5 -71.5t-16 -121.5h-123q8 38 10.5 61t-5.5 35.5t-29 16.5t-60 4q-26 0 -46 -1.5t-35 -8.5t-25 -22t-16 -42q-7 -33 -0.5 -51t27.5 -38
l194 -207l21 101h123l-10 -51q-8 -35 -17.5 -71.5t-27.5 -69.5l87 -94l-86 -83z" />
    <glyph glyph-name="quotesingle" unicode="'" horiz-adv-x="238" 
d="M347 750l-27 -130l-70 -129h-54l-14 129l27 130h138z" />
    <glyph glyph-name="parenleft" unicode="(" horiz-adv-x="348" 
d="M261 -150q-84 0 -127 17t-58 55t-7.5 98.5t26.5 147.5l56 264q18 80 34.5 140.5t47 101.5t82 61.5t139.5 20.5l-25 -118q-35 0 -56.5 -8t-34.5 -24t-20.5 -40t-13.5 -55l-89 -416q-5 -24 -8 -47t2.5 -40.5t23 -28.5t53.5 -11z" />
    <glyph glyph-name="parenright" unicode=")" horiz-adv-x="348" 
d="M216 756q83 0 126.5 -17t58.5 -55t7.5 -98.5t-26.5 -147.5l-56 -264q-18 -80 -34.5 -140.5t-47 -101.5t-82 -61.5t-139.5 -20.5l25 118q35 0 56 8t34.5 24t21 40t13.5 55l89 416q5 24 8 47t-2.5 40.5t-23 28.5t-53.5 11z" />
    <glyph glyph-name="asterisk" unicode="*" 
d="M529 533l57 -116l-69 -45l-57 120l-116 -120l-50 45l108 116l-125 51l41 71l126 -49l30 144h75l-30 -144l147 49l9 -76z" />
    <glyph glyph-name="plus" unicode="+" horiz-adv-x="584" 
d="M452 525l-42 -194h194l-20 -96h-194l-41 -194h-96l41 194h-194l20 96h194l42 194h96z" />
    <glyph glyph-name="comma" unicode="," horiz-adv-x="352" 
d="M75 -67q28 0 46.5 12.5t27.5 54.5h-50l29 135h126l-25 -118q-7 -32 -15 -58.5t-23 -45.5t-39.5 -29t-64.5 -10h-25z" />
    <glyph glyph-name="hyphen" unicode="-" horiz-adv-x="266" 
d="M335 324l-21 -96h-266l21 96h266z" />
    <glyph glyph-name="period" unicode="." horiz-adv-x="352" 
d="M215 0h-126l29 137h126z" />
    <glyph glyph-name="slash" unicode="/" horiz-adv-x="682" 
d="M83 -113h-112l762 863h113z" />
    <glyph glyph-name="zero" unicode="0" 
d="M514 756q84 0 140.5 -11.5t86.5 -45t33.5 -95t-17.5 -162.5l-29 -136q-21 -100 -51 -161.5t-74 -95t-105.5 -44.5t-145.5 -11q-85 0 -141.5 11t-86.5 44.5t-33.5 95t17.5 161.5l29 138q20 94 45.5 154.5t67 95.5t105 48.5t159.5 13.5zM377 112q52 0 86.5 3.5t57.5 19
t37.5 47.5t26.5 90l43 205q13 57 12 89.5t-17 48.5t-49 19.5t-85 3.5q-53 0 -87.5 -3.5t-57.5 -19.5t-37 -48.5t-27 -89.5l-43 -205q-12 -58 -11.5 -90t16.5 -47.5t49 -19t86 -3.5z" />
    <glyph glyph-name="one" unicode="1" 
d="M492 0h-136l134 630l-237 -195l-63 89l288 226h173z" />
    <glyph glyph-name="two" unicode="2" 
d="M627 0h-565l30 143q16 72 39.5 113.5t58.5 65t83.5 34t113.5 20.5q58 10 95 15.5t60 18t36.5 38.5t24.5 77q7 37 5 59.5t-15.5 34.5t-39.5 15.5t-65 3.5q-49 0 -80 -2.5t-50.5 -17t-32 -46t-24.5 -89.5h-136q14 69 32 120t53.5 85t97.5 51t165 17q66 0 115.5 -8t79.5 -33
t38 -70.5t-7 -119.5q-16 -74 -38.5 -118.5t-57.5 -70.5t-86 -39t-123 -25q-53 -8 -88.5 -13.5t-58.5 -17t-36.5 -34t-22.5 -64.5l-5 -25h429z" />
    <glyph glyph-name="three" unicode="3" 
d="M249 253q-11 -52 -11.5 -80.5t12.5 -42t41.5 -16t75.5 -2.5q46 0 77.5 2t52.5 11.5t33.5 31t20.5 60.5q13 60 -1.5 85.5t-74.5 25.5h-109l23 109h109q28 0 46.5 6.5t31 21t21 38t15.5 57.5q6 27 2 42.5t-19.5 23.5t-44 10t-71.5 2q-47 0 -75.5 -4t-46 -17t-27.5 -38.5
t-19 -69.5h-136q17 81 42.5 129.5t64.5 75t93 34.5t129 8q53 0 103.5 -3t87 -21.5t53 -58.5t0.5 -113q-7 -33 -17.5 -63.5t-28.5 -54t-44 -38.5t-65 -19l-1 -4q38 -3 60.5 -15t33 -33t10 -50t-8.5 -66q-16 -78 -45.5 -122.5t-72 -67t-99.5 -28t-128 -5.5t-123 5.5t-82.5 31
t-37 77.5t13.5 145h136z" />
    <glyph glyph-name="four" unicode="4" 
d="M631 269h88l-23 -109h-88l-34 -160h-136l34 160h-408l33 157l424 433h212zM575 646h-4l-370 -377h294z" />
    <glyph glyph-name="five" unicode="5" 
d="M308 456h2q17 21 40.5 33.5t49.5 19t52.5 8t48.5 1.5q73 0 117.5 -14t65.5 -45.5t21.5 -80.5t-14.5 -120q-19 -88 -45.5 -140t-67.5 -79.5t-99.5 -36t-141.5 -8.5q-69 0 -117.5 7.5t-76.5 30.5t-35.5 67t6.5 117h136q-8 -39 -3 -60t22 -31t43.5 -11.5t60.5 -1.5
q49 0 79.5 4t49.5 18.5t30.5 43t21.5 77.5q10 48 11 77t-11.5 44t-41 19.5t-77.5 4.5q-27 0 -51 -1t-43 -5.5t-33 -14.5t-23 -29h-126l85 400h523l-23 -109h-397z" />
    <glyph glyph-name="six" unicode="6" 
d="M419 340q-40 0 -69 -1.5t-49 -10t-32 -27.5t-19 -54q-10 -45 -11 -71.5t11.5 -40.5t41.5 -18.5t79 -4.5q47 0 76.5 2t48.5 13t30 35t20 68q8 40 6.5 62.5t-16 33t-43 12.5t-74.5 2zM168 505q18 79 45 128t68 76.5t96.5 37t130.5 9.5q64 0 115 -4.5t83 -25.5t42.5 -64
t-6.5 -121h-136q8 36 4 55.5t-19 28.5t-42 11t-66 2q-48 0 -78.5 -3t-49.5 -16.5t-30 -40.5t-21 -74l-25 -118h2q14 24 34 38.5t44 22t50.5 9.5t53.5 2q75 0 125 -7t76 -30t30.5 -66t-10.5 -115q-16 -76 -41 -124t-64 -75t-96 -37t-137 -10q-84 0 -137 10t-79 40.5t-27 88.5
t19 154z" />
    <glyph glyph-name="seven" unicode="7" 
d="M751 612l-436 -612h-155l457 627h-419l26 123h556z" />
    <glyph glyph-name="eight" unicode="8" 
d="M423 329q-53 0 -85 -4.5t-51 -16.5t-28 -33t-16 -54q-8 -35 -7.5 -56.5t14.5 -33t44.5 -15.5t82.5 -4t84 4.5t51 16.5t28.5 33.5t16.5 54.5q8 36 7.5 57t-14.5 32.5t-44.5 15t-82.5 3.5zM352 -6q-61 0 -113.5 4.5t-87.5 26.5t-48.5 68t4.5 128q7 31 18 59t30 49.5
t48.5 36t71.5 19.5l1 4q-37 8 -57.5 21.5t-29.5 34t-7.5 48t8.5 63.5q14 66 41.5 105.5t68.5 60.5t94.5 27.5t119.5 6.5q53 0 103 -1.5t85.5 -19.5t51 -59t-1.5 -120q-7 -35 -17 -62.5t-27 -48.5t-42.5 -35t-64.5 -21l-1 -4q70 -10 89 -52t4 -112q-17 -79 -45.5 -124
t-70 -68t-97.5 -29t-128 -6zM446 438q39 0 67 1t47.5 11.5t32.5 35t23 70.5q7 31 2.5 48t-20 24.5t-43 8.5t-66.5 1q-46 0 -74.5 -2t-46.5 -10.5t-27 -24.5t-15 -45q-9 -44 -6.5 -68t17.5 -35t42.5 -13t66.5 -2z" />
    <glyph glyph-name="nine" unicode="9" 
d="M487 638q-50 0 -80 -3t-48 -15t-28 -35.5t-18 -64.5q-8 -37 -8 -58.5t13.5 -32.5t42 -14.5t77.5 -3.5t80.5 3t50.5 14t29.5 32.5t19.5 59.5q8 42 5 65.5t-19.5 35.5t-45.5 14.5t-71 2.5zM241 210q-8 -37 -5 -57t19 -29t45.5 -10.5t74.5 -1.5q44 0 74.5 2.5t51 14.5
t34 38.5t23.5 74.5l27 124h-2q-35 -45 -83 -59t-120 -14q-60 0 -105.5 7t-72.5 30.5t-34.5 68.5t9.5 121q14 70 36.5 115.5t60 72.5t95 37.5t143.5 10.5q92 0 146.5 -13.5t78.5 -49.5t21.5 -98.5t-23.5 -159.5l-46 -217q-15 -71 -44.5 -115t-72.5 -68t-98.5 -32.5
t-123.5 -8.5q-62 0 -114 4t-87 24.5t-48 64.5t4 123h136z" />
    <glyph glyph-name="colon" unicode=":" horiz-adv-x="352" 
d="M215 0h-126l29 137h126zM297 388h-126l30 137h126z" />
    <glyph glyph-name="semicolon" unicode=";" horiz-adv-x="352" 
d="M75 -67q28 0 46.5 12.5t27.5 54.5h-50l29 135h126l-25 -118q-7 -32 -15 -58.5t-23 -45.5t-39.5 -29t-64.5 -10h-25zM307 388h-126l30 137h126z" />
    <glyph glyph-name="less" unicode="&#x3c;" horiz-adv-x="584" 
d="M118 318l528 207l-22 -100l-378 -142l318 -142l-21 -100l-440 207z" />
    <glyph glyph-name="equal" unicode="=" horiz-adv-x="584" 
d="M141 429h484l-20 -96h-484zM100 234h484l-21 -96h-484z" />
    <glyph glyph-name="greater" unicode="&#x3e;" horiz-adv-x="584" 
d="M587 248l-528 -207l21 100l378 142l-318 142l22 100l440 -207z" />
    <glyph glyph-name="question" unicode="?" horiz-adv-x="595" 
d="M253 239l3 17q9 40 18.5 66t25 44t40 31.5t63.5 28.5q28 11 49.5 19t37 19.5t26.5 29.5t18 50q7 36 6.5 57t-11.5 32t-32.5 14t-55.5 3q-38 0 -63.5 -3.5t-42 -14t-25.5 -30.5t-15 -53l-6 -27h-126l6 27q14 65 35.5 105.5t56.5 63t85.5 30t121.5 7.5q56 0 98.5 -7
t68 -29.5t32.5 -64t-7 -110.5q-9 -41 -20 -70.5t-30 -51.5t-49 -39t-76 -35q-22 -8 -38.5 -14.5t-29 -15.5t-21 -23.5t-14.5 -38.5l-3 -17h-126zM328 0h-126l29 137h126z" />
    <glyph glyph-name="at" unicode="@" horiz-adv-x="975" 
d="M817 551l-127 -261q-9 -23 -3 -37.5t34 -14.5t55.5 20.5t50.5 49.5t38.5 60.5t20.5 53.5q10 47 -2 91.5t-42 80t-76.5 57t-105.5 21.5q-76 0 -143.5 -31t-121 -78.5t-89 -104t-46.5 -108.5q-12 -60 2 -110t47.5 -86t84 -56t110.5 -20q40 0 87 6.5t90 23.5l14 -75
q-48 -23 -104.5 -31t-104.5 -8q-72 0 -138 21.5t-113.5 64.5t-69.5 106t-4 147q17 82 67 158.5t120.5 135t156 94t173.5 35.5q70 0 131.5 -24t103.5 -67.5t60 -104.5t3 -134q-10 -46 -35.5 -93t-62.5 -85t-83.5 -62.5t-97.5 -24.5q-38 0 -58.5 13t-32.5 45
q-51 -35 -81.5 -46.5t-59.5 -11.5q-31 0 -54.5 12.5t-38.5 33.5t-20.5 48t0.5 57q9 42 37.5 87t67.5 82t85 60.5t91 23.5q29 0 53 -18.5t28 -46.5h2l23 51h78zM602 488q-15 0 -37.5 -10t-44.5 -30t-41 -50t-27 -70q-8 -37 0.5 -63.5t50.5 -26.5q30 0 57 18.5t48.5 46.5
t36 59.5t19.5 56.5q7 35 -10.5 52t-51.5 17z" />
    <glyph glyph-name="A" unicode="A" horiz-adv-x="709" 
d="M223 142l-77 -142h-149l408 750h212l95 -750h-146l-19 142h-324zM492 640h-2l-211 -389h259z" />
    <glyph glyph-name="B" unicode="B" horiz-adv-x="716" 
d="M234 123h197q32 0 56.5 2.5t42.5 12t30 29.5t19 54q7 31 7 51.5t-9 32.5t-28 17t-50 5h-221zM64 0l159 750h373q56 0 95.5 -7.5t63 -28.5t29 -59t-7.5 -100q-7 -32 -16.5 -59t-25.5 -48t-40 -36t-60 -23l-1 -4q38 -4 59.5 -19t30 -38t7 -53t-9.5 -66
q-13 -62 -34.5 -102.5t-54 -64t-77.5 -33t-104 -9.5h-386zM301 436h207q30 0 50.5 5t34 17.5t22 32.5t14.5 50t3.5 47t-13 26t-29.5 11t-46 2h-203z" />
    <glyph glyph-name="C" unicode="C" horiz-adv-x="696" 
d="M617 499l9 41q7 33 3.5 51.5t-19.5 27.5t-46.5 11.5t-77.5 2.5q-55 0 -89.5 -6t-56.5 -24.5t-35.5 -52t-25.5 -88.5l-35 -166q-12 -56 -14 -91t11.5 -54.5t45.5 -26.5t89 -7q43 0 75.5 2.5t55.5 13t37.5 33t22.5 62.5l9 41h144l-10 -49q-17 -85 -49 -129.5t-77.5 -65
t-104.5 -24.5t-129 -7q-100 -4 -158 11t-84 51t-26 94t17 140l36 172q19 90 49.5 147t75.5 90t107 45t145 12q70 0 124 -3.5t88 -24t46.5 -64t-0.5 -124.5l-9 -41h-144z" />
    <glyph glyph-name="D" unicode="D" horiz-adv-x="754" 
d="M221 750h358q78 0 130.5 -15t81.5 -48t34.5 -86t-10.5 -130l-38 -177q-12 -58 -33.5 -111.5t-60 -94t-96.5 -64.5t-143 -24h-382zM470 123q37 0 64.5 15t47 39t32.5 55t19 62l38 177q10 47 8.5 77t-16 47.5t-41.5 24.5t-69 7h-214l-107 -504h238z" />
    <glyph glyph-name="E" unicode="E" horiz-adv-x="619" 
d="M294 440h351l-26 -118h-351l-42 -199h373l-26 -123h-517l159 750h514l-26 -123h-370z" />
    <glyph glyph-name="F" unicode="F" horiz-adv-x="582" 
d="M293 428h334l-25 -118h-334l-66 -310h-144l159 750h496l-26 -123h-352z" />
    <glyph glyph-name="G" unicode="G" horiz-adv-x="727" 
d="M772 398l-29 -136q-18 -83 -42 -135.5t-66 -82t-107 -40t-165 -10.5q-90 0 -150.5 10.5t-93.5 42t-38.5 90t15.5 153.5l36 172q20 94 51.5 151.5t78 89t111.5 42.5t152 11q68 0 127.5 -2.5t98.5 -23.5t53 -68.5t-7 -137.5h-143q9 41 3.5 63.5t-25.5 32.5t-53.5 11.5
t-79.5 1.5q-63 0 -101 -6.5t-61 -25t-35.5 -52t-25.5 -87.5l-36 -172q-12 -59 -12.5 -93.5t15 -52t51 -22.5t95.5 -5q51 0 86 2.5t59 16.5t38.5 43.5t26.5 82.5l5 27h-189l24 109h333z" />
    <glyph glyph-name="H" unicode="H" horiz-adv-x="769" 
d="M703 0h-144l68 320h-349l-68 -320h-144l159 750h144l-65 -307h349l65 307h144z" />
    <glyph glyph-name="I" unicode="I" horiz-adv-x="276" 
d="M210 0h-144l159 750h144z" />
    <glyph glyph-name="J" unicode="J" horiz-adv-x="583" 
d="M683 750l-110 -519q-16 -74 -39.5 -120t-58.5 -72t-83 -35.5t-112 -9.5q-58 0 -103 5.5t-73.5 25.5t-38 58t4.5 103l22 108h138l-11 -56q-8 -37 -11.5 -60.5t4.5 -37t29.5 -18.5t64.5 -5q32 0 52.5 5t34 17.5t21.5 35t15 56.5l110 519h144z" />
    <glyph glyph-name="K" unicode="K" horiz-adv-x="715" 
d="M304 444h67l315 306h177l-381 -366l253 -384h-182l-208 321h-67l-68 -321h-144l159 750h144z" />
    <glyph glyph-name="L" unicode="L" horiz-adv-x="565" 
d="M236 123h350l-26 -123h-494l159 750h144z" />
    <glyph glyph-name="M" unicode="M" horiz-adv-x="1007" 
d="M568 0h-129l-104 629h-3l-122 -629h-144l159 750h231l86 -557h4l318 557h236l-159 -750h-144l146 632h-5z" />
    <glyph glyph-name="N" unicode="N" horiz-adv-x="827" 
d="M776 750h144l-159 -750h-239l-186 627h-5l-121 -627h-144l159 750h238l188 -627h4z" />
    <glyph glyph-name="O" unicode="O" horiz-adv-x="715" 
d="M517 756q81 0 139 -9t91.5 -37.5t42 -83t-11.5 -144.5l-42 -202q-20 -90 -50 -146t-75 -87t-108 -42t-148 -11q-87 0 -145.5 10t-89.5 40.5t-36 87t15 148.5l42 202q19 87 46.5 141t71 83.5t106 39.5t152.5 10zM491 633q-59 0 -94 -7t-56.5 -24t-33 -46t-22.5 -74
l-42 -202q-12 -56 -12.5 -88.5t15 -49t48.5 -21t87 -4.5q49 0 83.5 5t59 22t40.5 49.5t28 86.5l42 202q13 53 10 83t-21 45t-51 19t-81 4z" />
    <glyph glyph-name="P" unicode="P" horiz-adv-x="686" 
d="M215 750h332q76 0 124.5 -11t74 -39.5t28 -78.5t-13.5 -129q-17 -79 -41.5 -128t-62 -76t-90.5 -36t-126 -9h-188l-52 -243h-144zM466 366q39 1 64 6t41 18.5t26 38t19 63.5q8 40 9.5 66t-8 41.5t-32.5 21.5t-64 6h-188l-55 -261h188z" />
    <glyph glyph-name="Q" unicode="Q" horiz-adv-x="766" 
d="M719 16l-54 49q-33 -27 -69 -41.5t-73 -21t-73 -7.5t-68 -1q-87 0 -146.5 10t-93 40t-41 86.5t10.5 149.5l42 202q19 88 51 141.5t79.5 83t111.5 39.5t148 10q66 0 125 -5.5t99 -32t55 -82t-6 -154.5l-42 -202q-2 -5 -5.5 -20t-9 -34.5t-12.5 -40t-15 -35.5l62 -49z
M619 243q6 27 13.5 53.5t12.5 53.5l28 132q11 51 8.5 81t-21.5 45.5t-54 20t-88 4.5q-48 0 -84 -3.5t-62.5 -18.5t-44 -45.5t-29.5 -83.5l-42 -202q-13 -58 -11 -91t20 -49t53 -19.5t90 -3.5q41 0 80.5 3t74.5 28l-158 119l77 85z" />
    <glyph glyph-name="R" unicode="R" horiz-adv-x="722" 
d="M258 248l-53 -248h-144l159 750h383q62 -1 102.5 -12.5t62 -37.5t25 -68.5t-9.5 -106.5q-9 -42 -19.5 -77.5t-29.5 -62.5t-49.5 -45.5t-79.5 -25.5l-1 -4q37 -3 59.5 -15.5t32 -33.5t8.5 -51t-9 -70l-30 -140h-144l30 140q10 48 -5 77.5t-67 30.5h-221zM474 371
q40 0 66.5 5t44.5 19.5t29 40t20 66.5q8 40 8.5 64.5t-9.5 38t-33 18t-62 4.5h-200l-54 -256h190z" />
    <glyph glyph-name="S" unicode="S" horiz-adv-x="673" 
d="M228 239l-8 -35q-6 -32 -2.5 -50.5t21 -27.5t50 -11.5t82.5 -2.5q49 0 79.5 5t49 18t27.5 34t16 54q9 40 2.5 59.5t-26 27.5t-51 9t-73.5 3q-60 4 -111.5 8.5t-86.5 24.5t-48.5 63.5t4.5 125.5q16 77 48 120t78 63.5t103.5 24.5t125.5 4q57 0 107 -4t83.5 -23.5t46.5 -60
t-2 -114.5l-5 -24h-144l5 24q6 30 3 47t-17 25.5t-39.5 10t-62.5 1.5q-54 0 -87.5 -3.5t-53 -13.5t-29.5 -28.5t-16 -48.5q-8 -34 -6.5 -53.5t16.5 -29.5t46.5 -14t86.5 -7q85 -5 140 -13t84 -29.5t34 -62t-11 -112.5q-16 -79 -44.5 -124.5t-70.5 -69t-98 -29.5t-128 -6
q-63 0 -119 2.5t-95.5 22t-56 62t0.5 123.5l8 35h144z" />
    <glyph glyph-name="T" unicode="T" horiz-adv-x="587" 
d="M366 0h-144l133 627h-220l26 123h584l-26 -123h-220z" />
    <glyph glyph-name="U" unicode="U" horiz-adv-x="754" 
d="M848 750l-113 -533q-17 -78 -49.5 -123t-79 -67t-105 -27.5t-126.5 -5.5q-66 0 -122 5.5t-93 27.5t-51.5 66.5t2.5 123.5l113 533h144l-113 -533q-6 -29 -3.5 -48t18.5 -30.5t47.5 -16.5t83.5 -5q50 0 83.5 4t55 15.5t33.5 31t18 49.5l113 533h144z" />
    <glyph glyph-name="V" unicode="V" horiz-adv-x="677" 
d="M847 750l-401 -750h-217l-81 750h147l67 -630h3l333 630h149z" />
    <glyph glyph-name="W" unicode="W" horiz-adv-x="1113" 
d="M1131 750h145l-361 -750h-208l-28 572h-4l-277 -572h-206l-36 750h144l22 -632h4l306 632h166l34 -632h3z" />
    <glyph glyph-name="X" unicode="X" horiz-adv-x="693" 
d="M546 387l158 -387h-166l-122 317l-257 -317h-170l329 387l-152 363h168l111 -298l236 298h165z" />
    <glyph glyph-name="Y" unicode="Y" horiz-adv-x="670" 
d="M465 288l-61 -288h-144l61 288l-173 462h164l110 -320h3l249 320h166z" />
    <glyph glyph-name="Z" unicode="Z" horiz-adv-x="648" 
d="M751 627l-521 -501l-1 -3h420l-26 -123h-598l26 122l518 501l1 4h-394l26 123h575z" />
    <glyph glyph-name="bracketleft" unicode="[" horiz-adv-x="348" 
d="M452 756l-23 -109h-96l-147 -688h96l-23 -109h-232l193 906h232z" />
    <glyph glyph-name="backslash" unicode="\" horiz-adv-x="278" 
d="M125 750h99l88 -750h-98z" />
    <glyph glyph-name="bracketright" unicode="]" horiz-adv-x="348" 
d="M25 -150l23 109h96l147 688h-96l23 109h232l-193 -906h-232z" />
    <glyph glyph-name="asciicircum" unicode="^" horiz-adv-x="584" 
d="M486 750l104 -485h-100l-67 349l-217 -349h-100l310 485h70z" />
    <glyph glyph-name="underscore" unicode="_" horiz-adv-x="500" 
d="M468 -150h-500l16 75h500z" />
    <glyph glyph-name="grave" unicode="`" horiz-adv-x="371" 
d="M429 627l-38 -52l-175 86l62 82z" />
    <glyph glyph-name="a" unicode="a" horiz-adv-x="589" 
d="M334 236q-24 0 -45 -1t-38 -8t-29.5 -22.5t-18.5 -43.5t-3.5 -44t14.5 -24t33.5 -10.5t53.5 -2.5q25 0 47 2t39 10.5t29 24.5t18 44q6 27 0 42.5t-20.5 22.5t-35.5 8.5t-44 1.5zM419 66h-3q-15 -26 -36 -40.5t-45 -21.5t-49 -8.5t-48 -1.5q-45 0 -80 6t-56.5 24t-28.5 51
t4 86q10 47 29 78t47.5 49.5t67 26t86.5 7.5q24 0 47.5 -1t42.5 -7t33.5 -18t21.5 -34h4l14 68q7 32 9 54t-6.5 35.5t-29.5 19.5t-60 6q-21 0 -39.5 -2t-33.5 -9t-26 -21.5t-16 -40.5h-126q12 57 37 89t59.5 47.5t76 19t86.5 3.5q63 0 106.5 -7t68 -28t29.5 -61t-9 -106
l-70 -329h-126z" />
    <glyph glyph-name="b" unicode="b" horiz-adv-x="594" 
d="M402 435q-40 0 -67 -9t-44.5 -27.5t-28 -48.5t-19.5 -72q-10 -47 -16 -82t0.5 -58.5t30 -35.5t71.5 -12q43 0 68.5 12.5t41 36.5t24.5 59t18 80q11 50 12 80.5t-8 47.5t-29.5 23t-53.5 6zM217 750h126l-62 -295h5q15 24 35 39t43 23t47.5 11t48.5 3q67 0 103 -18t50 -51
t10 -79.5t-16 -104.5q-13 -60 -28 -112t-42.5 -90.5t-72.5 -60t-118 -21.5q-56 0 -94.5 16.5t-51.5 68.5h-4l-12 -79h-126z" />
    <glyph glyph-name="c" unicode="c" horiz-adv-x="551" 
d="M563 200q-14 -64 -35 -104.5t-54 -63t-80.5 -30.5t-113.5 -8q-73 0 -116 12t-62.5 42.5t-18 82.5t18.5 131q14 69 32.5 119.5t50.5 84t82 49.5t127 16q58 0 101.5 -6.5t69.5 -26.5t33.5 -57.5t-6.5 -99.5h-126q7 30 5.5 48.5t-12 28.5t-32 13.5t-54.5 3.5q-40 0 -64 -8
t-38.5 -28t-23.5 -53t-19 -84q-11 -49 -16.5 -82t0.5 -53t26.5 -28.5t61.5 -8.5q39 0 62.5 4.5t37.5 16.5t21.5 33.5t15.5 55.5h126z" />
    <glyph glyph-name="d" unicode="d" horiz-adv-x="593" 
d="M371 435q-32 0 -55 -6t-39.5 -23t-28 -47.5t-22.5 -80.5q-9 -45 -15.5 -80t-1 -59t25.5 -36.5t63 -12.5q49 0 76.5 12t44 35.5t25 58.5t18.5 82q9 42 11.5 72t-6.5 48.5t-32 27.5t-64 9zM427 79h-4q-35 -52 -80.5 -68.5t-101.5 -16.5q-73 0 -109 21.5t-47.5 60t-4.5 90.5
t20 112q12 58 28 104.5t44 79.5t71.5 51t111.5 18q24 0 47 -3t42.5 -11t33.5 -23t19 -39h5l62 295h126l-159 -750h-126z" />
    <glyph glyph-name="e" unicode="e" horiz-adv-x="570" 
d="M564 167q-13 -62 -37.5 -96.5t-60 -51.5t-81.5 -21t-102 -4q-76 0 -120.5 13t-64 44t-18.5 82.5t17 127.5q15 71 34 122t51.5 84t83.5 48.5t131 15.5q81 0 126.5 -13.5t64 -46.5t14.5 -89.5t-22 -142.5h-361q-9 -42 -13 -71t3.5 -46t29.5 -24.5t64 -7.5q26 0 48.5 1
t39.5 8t29 23t18 45h126zM471 319q8 41 9 64t-9 34.5t-33 14.5t-62 3q-40 0 -64.5 -5t-39 -18t-22 -35.5t-14.5 -57.5h235z" />
    <glyph glyph-name="f" unicode="f" horiz-adv-x="348" 
d="M433 429h-128l-91 -429h-126l91 429h-74l21 96h74l9 46q10 47 24.5 81t37.5 56t58 32t86 10h82l-20 -96h-38q-32 1 -50.5 -5t-29.5 -18t-16 -31t-11 -43l-6 -32h128z" />
    <glyph glyph-name="g" unicode="g" horiz-adv-x="594" 
d="M372 435q-32 0 -55 -6t-39.5 -23t-28 -47.5t-22.5 -80.5q-9 -45 -15 -80t-0.5 -59t25.5 -36.5t62 -12.5q47 0 75.5 12t45 35.5t26 58.5t19.5 82q9 42 11 72t-7.5 48.5t-32.5 27.5t-64 9zM426 75h-3q-18 -26 -39.5 -42t-45 -24.5t-48 -11.5t-48.5 -3q-68 0 -104 18
t-49.5 51t-10 79.5t16.5 104.5q12 60 27 112t42.5 90.5t73 60t118.5 21.5q55 0 94 -16.5t52 -68.5h4l12 79h126l-112 -524q-15 -71 -37 -116.5t-57 -71.5t-85.5 -36t-122.5 -10q-48 0 -87.5 6t-64.5 24.5t-33 54t8 94.5h118q-6 -27 -4.5 -43.5t11.5 -25t28 -11.5t45 -3
q40 0 66.5 5t43.5 17.5t27 34t17 55.5z" />
    <glyph glyph-name="h" unicode="h" horiz-adv-x="598" 
d="M283 446h4q16 29 36.5 46t43.5 25.5t49 11t54 2.5q52 0 84 -11t48 -33.5t17.5 -57.5t-8.5 -83l-74 -346h-126l71 333q6 29 6 48.5t-8 31.5t-26 17t-49 5q-41 0 -67.5 -9.5t-43.5 -28t-27 -46t-18 -62.5l-61 -289h-126l159 750h126z" />
    <glyph glyph-name="i" unicode="i" horiz-adv-x="236" 
d="M181 0h-126l112 525h126zM318 643h-126l22 107h126z" />
    <glyph glyph-name="j" unicode="j" horiz-adv-x="225" 
d="M173 -12q-8 -38 -20.5 -70t-33 -54.5t-50.5 -35t-73 -12.5q-23 0 -46 6l19 90q42 0 56 18t20 46l117 549h126zM313 643h-126l22 107h126z" />
    <glyph glyph-name="k" unicode="k" horiz-adv-x="539" 
d="M255 321h31l191 204h142l-239 -247l165 -278h-152l-125 235h-31l-50 -235h-126l159 750h126z" />
    <glyph glyph-name="l" unicode="l" horiz-adv-x="252" 
d="M189 0h-126l159 750h126z" />
    <glyph glyph-name="m" unicode="m" horiz-adv-x="924" 
d="M297 525l-17 -76h4q16 25 37.5 41t45.5 25t49.5 12.5t50.5 3.5t49.5 -4t44 -14t31.5 -28t11 -47h4q15 27 36 45t45.5 28.5t51.5 15t53 4.5q51 0 83.5 -9.5t49.5 -30.5t19 -54.5t-9 -81.5l-75 -355h-126l73 343q8 50 -4.5 71t-64.5 21q-38 0 -63.5 -8.5t-42.5 -26
t-27.5 -43.5t-17.5 -61l-63 -296h-126l73 343q8 50 -4.5 71t-64.5 21q-38 0 -63.5 -8.5t-42.5 -26t-27.5 -43.5t-17.5 -61l-63 -296h-126l112 525h122z" />
    <glyph glyph-name="n" unicode="n" horiz-adv-x="598" 
d="M300 525l-17 -79h4q16 29 36.5 46t43.5 25.5t49 11t54 2.5q52 0 84 -11t48 -33.5t17.5 -57.5t-8.5 -83l-74 -346h-126l71 333q6 29 6 48.5t-8 31.5t-26 17t-49 5q-41 0 -67.5 -9.5t-43.5 -28t-27 -46t-18 -62.5l-61 -289h-126l112 525h126z" />
    <glyph glyph-name="o" unicode="o" horiz-adv-x="582" 
d="M404 531q82 0 128 -13.5t65 -44.5t16 -82.5t-19 -128.5q-16 -76 -35 -127.5t-51.5 -82.5t-84 -44.5t-133.5 -13.5t-128 13.5t-65.5 44.5t-16 82.5t19.5 127.5q16 77 34.5 128.5t51 82.5t84.5 44.5t134 13.5zM383 435q-42 0 -67.5 -7t-42 -26.5t-26.5 -53.5t-22 -87
q-11 -52 -15 -85.5t4.5 -52.5t31 -26t64.5 -7t67.5 7t42 26t26.5 52.5t21 85.5q12 53 16 87t-4 53.5t-31 26.5t-65 7z" />
    <glyph glyph-name="p" unicode="p" horiz-adv-x="596" 
d="M331 90q33 0 55.5 6t39 23t28.5 48t23 80q9 45 15 80t1 59t-25 36.5t-64 12.5q-48 0 -76 -12t-44.5 -35.5t-26 -58.5t-18.5 -82q-9 -42 -11 -72t7 -48.5t32 -27.5t64 -9zM276 446h4q35 52 80.5 68.5t101.5 16.5q73 0 109 -21.5t47 -60t4 -90.5t-19 -112
q-13 -58 -29 -104.5t-43.5 -79.5t-71.5 -51t-111 -18q-24 0 -47.5 3t-43 11t-33 23t-18.5 39h-5l-63 -297h-126l160 752h126z" />
    <glyph glyph-name="q" unicode="q" horiz-adv-x="597" 
d="M375 435q-32 0 -55 -6t-39.5 -23t-28 -47.5t-22.5 -80.5q-9 -45 -15.5 -80t-1 -59t25.5 -36.5t63 -12.5q49 0 77 12t44.5 35.5t25.5 58.5t19 82q9 42 11 72t-7.5 48.5t-32.5 27.5t-64 9zM487 -227h-126l63 297h-5q-15 -24 -35.5 -39t-43 -23t-47 -11t-48.5 -3
q-68 0 -104 18t-49.5 51t-10 79.5t16.5 104.5q12 60 27 112t42.5 90.5t73 60t118.5 21.5q55 0 94 -16.5t52 -68.5h4l12 79h126z" />
    <glyph glyph-name="r" unicode="r" horiz-adv-x="471" 
d="M288 525l-18 -69h5q28 44 69 59.5t87 15.5q41 0 65.5 -12t35.5 -33.5t10.5 -52t-8.5 -67.5l-9 -42h-118l6 27q4 20 5.5 35.5t-2.5 26.5t-15.5 16.5t-34.5 5.5q-56 0 -82.5 -30t-35.5 -81l-69 -324h-126l112 525h123z" />
    <glyph glyph-name="s" unicode="s" horiz-adv-x="557" 
d="M462 382q5 24 1.5 36.5t-14.5 18.5t-29.5 7t-43.5 1q-26 0 -47 -1t-37 -7.5t-27.5 -20.5t-16.5 -40q-4 -19 -2.5 -30t13 -17t36 -8t64.5 -4q46 -2 88 -4.5t71 -17.5t41 -48t-1 -97q-11 -53 -37.5 -84t-63 -47t-82 -20.5t-95.5 -4.5q-54 0 -97.5 2.5t-71.5 18.5t-38 51
t4 99h126q-5 -28 -4 -45t11.5 -26t31.5 -11.5t56 -2.5q28 0 50.5 1t39 7t27.5 20.5t17 41.5q4 17 4 30t-10.5 22t-36 13.5t-72.5 5.5q-72 1 -115.5 8t-64 24.5t-22.5 49t9 81.5q11 54 35.5 83.5t60 44t79.5 17t95 2.5q38 0 78 -2.5t69.5 -17t44 -44.5t2.5 -85h-126z" />
    <glyph glyph-name="t" unicode="t" horiz-adv-x="425" 
d="M110 525h66l25 119h126l-25 -119h201l-21 -96h-201l-57 -269q-3 -18 -5 -31t1 -22t13 -13t30 -4q27 0 42 9.5t23.5 25.5t12.5 35.5t9 40.5h111q-12 -60 -28.5 -99.5t-41.5 -63.5t-61 -34t-87 -10q-52 0 -85 7t-50 25.5t-19 50.5t9 82l57 270h-66z" />
    <glyph glyph-name="u" unicode="u" horiz-adv-x="593" 
d="M408 0l17 81h-4q-33 -52 -81.5 -69.5t-102.5 -17.5q-40 0 -70.5 7.5t-50 25t-26 46.5t2.5 72l81 380h126l-71 -331q-6 -28 -7.5 -48t4.5 -32.5t22.5 -18t46.5 -5.5q73 0 107.5 32t48.5 100l65 303h126l-112 -525h-122z" />
    <glyph glyph-name="v" unicode="v" horiz-adv-x="491" 
d="M344 0h-190l-47 525h129l29 -439h3l209 439h132z" />
    <glyph glyph-name="w" unicode="w" horiz-adv-x="796" 
d="M674 0h-180l-4 422h-3l-183 -422h-183l-7 525h124l-5 -439h3l196 439h157l7 -439h4l184 439h122z" />
    <glyph glyph-name="x" unicode="x" horiz-adv-x="500" 
d="M393 276l111 -276h-148l-65 192l-146 -192h-150l232 276l-100 249h144l55 -168l127 168h146z" />
    <glyph glyph-name="y" unicode="y" horiz-adv-x="485" 
d="M350 -21q-21 -45 -41 -83.5t-47 -67t-64.5 -45t-93.5 -16.5q-13 0 -26 1.5t-27 2.5l21 95q6 -1 12.5 -2t13.5 -1q30 0 50.5 13t35.5 33t25.5 44t19.5 47h-61l-61 525h130l38 -447h2l197 447h128z" />
    <glyph glyph-name="z" unicode="z" horiz-adv-x="475" 
d="M189 96h283l-20 -96h-429l23 108l348 321h-258l21 96h407l-23 -105z" />
    <glyph glyph-name="braceleft" unicode="{" horiz-adv-x="389" 
d="M113 356q7 0 21 0.5t28.5 5t26.5 13.5t15 25l47 223q8 35 26 60t39 41t42 24t35 8h96l-21 -96h-37q-17 0 -27.5 -4.5t-16 -11.5t-8.5 -16.5t-5 -18.5l-44 -207q-6 -28 -20.5 -46t-32 -28t-34.5 -14.5t-29 -5.5v-2q11 -1 26.5 -4t28.5 -13t19.5 -30t-0.5 -55l-44 -207
q-2 -9 -3 -18.5t1.5 -16.5t11 -11.5t26.5 -4.5h37l-21 -96h-96q-13 0 -31 8t-32 24t-21.5 41t-0.5 60l48 223q4 21 -3.5 32t-20 16t-26 5.5t-21.5 0.5z" />
    <glyph glyph-name="bar" unicode="|" horiz-adv-x="280" 
d="M188 0h-96l159 750h96z" />
    <glyph glyph-name="braceright" unicode="}" horiz-adv-x="389" 
d="M405 250q-7 0 -21 -0.5t-28.5 -5t-26.5 -13t-15 -25.5l-48 -223q-7 -35 -25 -60t-39 -41t-42 -24t-35 -8h-96l21 96h37q17 0 27 4.5t16 11.5t8.5 16.5t4.5 18.5l44 207q7 28 21.5 46t31.5 28t34 14.5t29 5.5l1 2q-12 1 -27.5 4t-28 13t-19 30t-0.5 55l44 207
q2 9 3.5 18.5t-1.5 16.5t-11 11.5t-26 4.5h-37l21 96h96q13 0 31 -8t32 -24t21.5 -41t-0.5 -60l-47 -223q-4 -21 3.5 -32t20 -16t26 -5.5t21.5 -0.5z" />
    <glyph glyph-name="asciitilde" unicode="~" horiz-adv-x="584" 
d="M607 345q-5 -26 -19 -54t-34.5 -50.5t-45.5 -37t-51 -14.5q-16 0 -34.5 4.5t-39.5 16.5l-107 60q-12 8 -23 11t-20 3q-11 0 -19.5 -7t-15 -17t-11 -21t-7.5 -20h-83q5 29 20.5 57t38.5 50.5t51.5 36.5t60.5 14q24 0 52 -17l93 -59q16 -11 30 -15t25 -4q14 0 24 6.5
t16.5 16t10.5 20.5t5 20h83z" />
    <glyph glyph-name="exclamdown" unicode="&#xa1;" horiz-adv-x="309" 
d="M299 388h-126l30 137h126zM149 274h126l-98 -499h-142z" />
    <glyph glyph-name="cent" unicode="&#xa2;" 
d="M431 520q-31 -5 -50.5 -20.5t-32.5 -39t-21 -53.5t-15 -63q-8 -37 -12.5 -66.5t-1 -51.5t17 -35t41.5 -17zM389 -6h-70l18 84q-70 0 -107 19.5t-51 54.5t-9.5 84t16.5 108q13 61 29.5 110.5t45 85t74 55.5t116.5 21l14 68h70l-14 -68q100 -1 141 -43.5t21 -147.5h-126
q5 26 5 42t-6.5 26.5t-19.5 16.5t-35 10l-74 -346q26 3 43 9t28 19t17.5 32.5t11.5 49.5h126q-9 -54 -25.5 -92.5t-45 -63t-71.5 -36.5t-104 -14z" />
    <glyph glyph-name="sterling" unicode="&#xa3;" 
d="M544 283h-201l-9 -42q-4 -22 -9 -40t-13.5 -33t-22 -27t-36.5 -23l-1 -3l452 6l-26 -121h-608l25 118q25 2 42 12t28 25t18 34t12 39l12 55h-98l23 109h98l26 120q15 74 37.5 121t57.5 74.5t86 38t123 10.5q66 0 116 -5t80 -26t38.5 -63t-7.5 -116l-7 -32h-136l7 32
q6 27 5 45t-12 28.5t-34.5 14.5t-62.5 4q-37 0 -62.5 -3.5t-42.5 -15t-28 -33t-19 -58.5l-29 -136h201z" />
    <glyph glyph-name="currency" unicode="&#xa4;" 
d="M635 171l-81 -65l-61 77q-22 -10 -45.5 -21t-65.5 -10q-25 2 -50 9.5t-42 23.5l-97 -80l-52 67l94 79q-14 23 -15 49.5t5 53.5q6 32 19.5 59.5t32.5 42.5l-63 77l84 69l61 -78q21 14 51.5 23t63.5 7q31 -2 56.5 -9t39.5 -19l95 78l54 -68l-97 -79q4 -15 10 -36t-1 -57
q-9 -44 -26.5 -71.5t-29.5 -44.5zM320 348q-6 -44 19 -72t66 -28q29 0 51.5 10.5t38.5 25.5t25.5 32.5t11.5 31.5q6 21 3 40.5t-14 35t-29 25t-43 9.5q-24 0 -46 -9.5t-39.5 -25t-29 -35t-14.5 -40.5z" />
    <glyph glyph-name="yen" unicode="&#xa5;" 
d="M766 536l-23 -109h-155l-71 -86h207l-23 -109h-235l-49 -232h-136l49 232h-228l23 109h200l-32 86h-149l23 109h90l-76 214h156l103 -320h3l241 320h158l-170 -214h94z" />
    <glyph glyph-name="brokenbar" unicode="&#xa6;" horiz-adv-x="280" 
d="M284 450h-96l63 300h96zM92 0l64 300h96l-64 -300h-96z" />
    <glyph glyph-name="section" unicode="&#xa7;" 
d="M381 372q-11 3 -28 7t-29 4q-20 0 -34 -8t-23 -20.5t-14.5 -28.5t-9.5 -33q-5 -23 -4 -37t9 -23t23 -14t38 -11l144 -35q9 -2 25 -6t26 -4q18 0 31 8t22 21t14 29.5t9 32.5q4 21 4.5 34t-7.5 22t-25.5 15.5t-48.5 14.5zM197 1q-6 -35 -7.5 -57.5t10.5 -35.5t42.5 -18
t87.5 -5q49 0 81 4t51.5 13.5t29.5 27t15 44.5q5 24 4 38t-9 23t-22 14t-34 9l-234 54q-39 9 -63 20t-35.5 29t-11 46t9.5 71q5 24 12 47t19.5 42.5t31.5 34t48 20.5q-17 11 -24.5 27t-9 35t1.5 40.5t8 43.5q14 65 39.5 102.5t64.5 56.5t91.5 24t120.5 5q62 0 111 -4
t80 -22.5t41.5 -57.5t-4.5 -109l-6 -28h-130q6 35 5.5 55t-12 31t-38 14t-72.5 3q-47 0 -75.5 -3t-45 -11t-23.5 -21.5t-11 -34.5q-6 -26 -4 -41t11.5 -23.5t27.5 -14t45 -11.5l159 -38q38 -9 68.5 -18t49 -25t24 -44t-4.5 -75q-5 -22 -12.5 -47t-20 -46.5t-30 -38.5
t-41.5 -25l-1 -2q23 -8 33.5 -22.5t13 -34t-1 -42t-8.5 -46.5q-16 -77 -46.5 -119t-73.5 -61.5t-98 -23t-121 -3.5q-71 0 -123.5 5.5t-84 27.5t-40 65.5t7.5 119.5l3 16h130z" />
    <glyph glyph-name="dieresis" unicode="&#xa8;" horiz-adv-x="453" 
d="M322 695l-19 -88h-99l19 88h99zM526 695l-19 -88h-99l19 88h99z" />
    <glyph glyph-name="copyright" unicode="&#xa9;" horiz-adv-x="790" 
d="M394 -6q-79 0 -142.5 30t-104 81.5t-55.5 121t2 148.5t61.5 148.5t107 121t138.5 81.5t155 30q78 0 141 -30t104 -81.5t56.5 -121t-1.5 -148.5t-62 -148.5t-107.5 -121t-138.5 -81.5t-154 -30zM409 66q63 0 124.5 24t112.5 66t87.5 98.5t50.5 120.5q13 64 0.5 120.5
t-45.5 98.5t-84 66t-115 24t-125.5 -24t-112.5 -66t-87.5 -98.5t-49.5 -120.5q-14 -64 -1.5 -120.5t45.5 -98.5t84.5 -66t115.5 -24zM653 307q-11 -35 -32.5 -62.5t-49.5 -46.5t-60.5 -29t-65.5 -10q-48 0 -83.5 17t-56.5 46.5t-27 69.5t3 86q10 48 33 88.5t56 70t75.5 46
t90.5 16.5q70 0 111 -38t38 -107h-85q1 35 -21 55t-59 20q-30 0 -56 -12.5t-45.5 -33.5t-33 -47.5t-19.5 -55.5q-6 -27 -3.5 -54t14.5 -48.5t32.5 -35t50.5 -13.5q34 0 66 21.5t42 56.5h85z" />
    <glyph glyph-name="ordfeminine" unicode="&#xaa;" horiz-adv-x="440" 
d="M486 371l-15 -69h-373l15 69h373zM379 466l-2 2q-22 -28 -49 -32.5t-57 -4.5q-28 0 -49.5 4t-34.5 15t-17.5 30.5t2.5 50.5q6 30 19 49.5t31 30.5t41.5 15t51.5 4q11 0 25 -0.5t26.5 -3t22.5 -8t13 -16.5h2l8 40q3 12 4.5 23t-2.5 19t-16 12.5t-35 4.5q-26 0 -44 -6
t-23 -38h-86q8 37 24.5 57t38.5 29.5t48.5 11t53.5 1.5q33 0 59.5 -3t43.5 -14.5t23 -33t-1 -58.5l-46 -212h-84zM312 486q32 0 52 8t27 40q5 28 -11.5 34.5t-49.5 6.5q-25 0 -45 -5t-26 -34q-8 -36 6.5 -43t46.5 -7z" />
    <glyph glyph-name="guillemotleft" unicode="&#xab;" horiz-adv-x="529" 
d="M372 491l-153 -216l69 -211l-92 -51l-87 262l188 264zM576 491l-153 -216l69 -211l-91 -51l-88 262l189 264z" />
    <glyph glyph-name="logicalnot" unicode="&#xac;" horiz-adv-x="584" 
d="M509 333h-388l20 96h484l-65 -308h-96z" />
    <glyph glyph-name="registered" unicode="&#xae;" horiz-adv-x="790" 
d="M394 -6q-79 0 -142 30t-104 82t-56 121t2 148q16 79 61 148.5t107.5 121t138.5 81.5t155 30q78 0 141 -30t104 -81.5t56 -121t-1 -148.5q-17 -79 -62 -148t-107.5 -121t-138.5 -82t-154 -30zM409 66q64 0 125.5 24t112.5 66t87 98.5t50 120.5q13 65 1 121t-45 98t-84 66
t-116 24q-64 0 -125.5 -24t-112 -66t-87 -98t-49.5 -121q-14 -64 -2 -120.5t45 -98.5t84.5 -66t115.5 -24zM620 168h-93l-55 174h-81l-37 -174h-80l87 411h199q31 0 59 -4t47.5 -16t28 -34.5t0.5 -59.5q-14 -66 -48 -92.5t-89 -30.5zM524 402q35 0 58.5 12t32.5 51
q4 21 -3 32t-21 16t-31 5.5t-32 0.5h-100l-25 -117h121z" />
    <glyph glyph-name="macron" unicode="&#xaf;" horiz-adv-x="426" 
d="M498 690l-16 -76h-276l16 76h276z" />
    <glyph glyph-name="degree" unicode="&#xb0;" horiz-adv-x="400" 
d="M479 606q-7 -31 -24.5 -58.5t-42.5 -47.5t-54.5 -32t-60.5 -12t-56 12t-41 32t-22 47.5t1 58.5q6 31 23.5 58t42.5 47.5t55 32.5t61 12q30 0 55 -12t41 -32.5t22 -47.5t0 -58zM410 606q7 33 -12 57t-53 24q-16 0 -32.5 -6.5t-29.5 -17.5t-22.5 -25.5t-12.5 -31.5
q-7 -34 11.5 -57.5t52.5 -23.5q33 0 62 23.5t36 57.5z" />
    <glyph glyph-name="plusminus" unicode="&#xb1;" horiz-adv-x="584" 
d="M452 525l-29 -135h194l-21 -96h-194l-28 -135h-96l28 135h-194l21 96h194l29 135h96zM70 96h484l-20 -96h-484z" />
    <glyph glyph-name="twosuperior" unicode="&#xb2;" horiz-adv-x="423" 
d="M438 306h-339l17 82q10 43 24 68t35 39t50 20.5t68 12.5q31 6 50.5 9t32 10.5t20 23t13.5 46.5q9 43 -3.5 54.5t-52.5 11.5q-24 0 -39.5 -1.5t-26 -10t-18 -27t-14.5 -52.5h-95q9 41 19.5 72t32 51.5t58.5 30.5t99 10q39 0 69 -5t47.5 -20t23 -42t-4.5 -72
q-9 -45 -22.5 -71.5t-35 -42t-52 -23.5t-73.5 -15q-28 -4 -46.5 -7.5t-31 -9.5t-19 -17.5t-11.5 -33.5l-2 -13h244z" />
    <glyph glyph-name="threesuperior" unicode="&#xb3;" horiz-adv-x="423" 
d="M296 573h65q16 0 26 2.5t17 9.5t11.5 20t9.5 33q5 27 -10.5 33.5t-68.5 6.5q-22 0 -36.5 -2t-23.5 -9.5t-14.5 -21.5t-10.5 -38h-95q10 49 25.5 78.5t38.5 45t55.5 20.5t77.5 5q32 0 64 -2t55.5 -13t35 -35t2.5 -68q-9 -40 -33 -70t-71 -35v-2q46 -4 61 -29t6 -70
q-10 -46 -29 -72.5t-46.5 -40t-63 -16.5t-78.5 -3t-74 3t-49 18t-22 46t8 87h95q-6 -28 -7.5 -43t4 -22.5t20.5 -9t41 -1.5q28 0 46.5 1t30 6t18.5 16t11 31q7 33 0 48t-44 15h-65z" />
    <glyph glyph-name="acute" unicode="&#xb4;" horiz-adv-x="371" 
d="M437 661l-213 -86l-16 52l201 116z" />
    <glyph glyph-name="mu" unicode="&#xb5;" horiz-adv-x="593" 
d="M409 0l17 81h-4q-33 -52 -81.5 -69.5t-102.5 -17.5q-28 0 -49 4l-48 -225h-126l160 752h126l-71 -331q-6 -28 -7.5 -48t4.5 -32.5t22.5 -18t46.5 -5.5q73 0 107.5 32t48.5 100l65 303h126l-112 -525h-122z" />
    <glyph glyph-name="paragraph" unicode="&#xb6;" 
d="M536 -227l182 859h-87l-182 -859h-109l99 467h-113q-73 0 -124 8t-79 34t-33.5 75.5t12.5 131.5q17 82 42 133t64 79.5t94 38.5t132 10h418l-207 -977h-109zM522 632h-113q-47 0 -75.5 -4t-46.5 -18t-28.5 -42.5t-20.5 -78.5q-10 -45 -9.5 -71t13 -39.5t37.5 -17t64 -3.5
h121z" />
    <glyph glyph-name="periodcentered" unicode="&#xb7;" horiz-adv-x="352" 
d="M285 215h-126l29 137h126z" />
    <glyph glyph-name="cedilla" unicode="&#xb8;" horiz-adv-x="308" 
d="M217 -75l-142 -52l-17 46l128 69z" />
    <glyph glyph-name="onesuperior" unicode="&#xb9;" horiz-adv-x="423" 
d="M374 306h-95l79 373l-142 -117l-37 58l173 136h118z" />
    <glyph glyph-name="ordmasculine" unicode="&#xba;" horiz-adv-x="440" 
d="M381 756q47 0 75.5 -6.5t42 -24t13 -48.5t-10.5 -80q-9 -43 -20 -74.5t-31.5 -52t-53 -30t-84.5 -9.5q-47 0 -75.5 6.5t-41.5 24.5t-12.5 50.5t11.5 84.5q9 44 20.5 74t31.5 49t52 27.5t83 8.5zM367 691q-24 0 -38.5 -4.5t-23.5 -15t-14 -29t-11 -45.5q-7 -34 -10 -54
t1.5 -30.5t17 -13.5t36.5 -3q26 0 41 6.5t24 19t14.5 31.5t10.5 44q6 30 8.5 48.5t-2.5 28.5t-17.5 13.5t-36.5 3.5zM486 371l-15 -69h-373l15 69h373z" />
    <glyph glyph-name="guillemotright" unicode="&#xbb;" horiz-adv-x="529" 
d="M536 275l-198 -262l-69 51l157 211l-61 216l97 48zM332 275l-198 -262l-69 51l157 211l-61 216l96 48z" />
    <glyph glyph-name="onequarter" unicode="&#xbc;" horiz-adv-x="1057" 
d="M990 166h39l-15 -74h-39l-20 -92h-95l20 92h-245l20 98l255 260h141zM940 378h-3l-209 -212h167zM340 0h-93l633 750h95zM380 300h-95l79 373l-142 -117l-37 58l172 136h118z" />
    <glyph glyph-name="onehalf" unicode="&#xbd;" horiz-adv-x="1057" 
d="M325 0h-93l633 750h95zM365 300h-95l79 373l-142 -117l-37 58l172 136h118zM1008 0h-339l17 82q10 43 24 68t35 39t50 20.5t68 12.5q31 6 50.5 9t32 10.5t20 23t13.5 46.5q9 43 -3.5 54.5t-52.5 11.5q-24 0 -39.5 -1.5t-26.5 -10t-18 -27t-14 -52.5h-95q9 41 19.5 72
t32 51.5t58.5 30.5t99 10q39 0 69 -5t47.5 -20t23 -42t-4.5 -72q-9 -45 -22.5 -71.5t-35 -42t-52 -23.5t-73.5 -15q-28 -4 -47 -7.5t-31 -9.5t-18.5 -17.5t-11.5 -33.5l-2 -13h244z" />
    <glyph glyph-name="threequarters" unicode="&#xbe;" horiz-adv-x="1057" 
d="M1002 166h39l-15 -74h-39l-20 -92h-95l20 92h-245l20 98l255 260h141zM952 378h-3l-209 -212h167zM362 0h-93l633 750h95zM296 573h65q16 0 26 2.5t17 9.5t11.5 20t9.5 33q5 27 -10.5 33.5t-68.5 6.5q-22 0 -36.5 -2t-23.5 -9.5t-14.5 -21.5t-10.5 -38h-95
q10 49 25.5 78.5t38.5 45t55.5 20.5t77.5 5q32 0 64 -2t55.5 -13t35 -35t2.5 -68q-9 -40 -33 -70t-71 -35v-2q46 -4 61 -29t6 -70q-10 -46 -29 -72.5t-46.5 -40t-63 -16.5t-78.5 -3t-74 3t-49 18t-22 46t8 87h95q-6 -28 -7.5 -43t4 -22.5t20.5 -9t41 -1.5q28 0 46.5 1t30 6
t18.5 16t11 31q7 33 0 48t-44 15h-65z" />
    <glyph glyph-name="questiondown" unicode="&#xbf;" horiz-adv-x="595" 
d="M454 283l-3 -17q-9 -40 -18.5 -66t-25 -44t-40 -31.5t-63.5 -28.5q-28 -11 -49.5 -19t-37 -19.5t-26.5 -29.5t-18 -50q-7 -36 -6.5 -57t11.5 -32t32.5 -14t55.5 -3q38 0 63.5 3.5t42 14t25.5 30.5t15 53l6 27h126l-6 -27q-14 -65 -35.5 -105.5t-56.5 -63t-85.5 -30
t-122.5 -7.5q-55 0 -97.5 7t-68 29.5t-32.5 64t7 110.5q9 41 20 70.5t30 51.5t49 39t76 35q22 8 38.5 14.5t29 15.5t21 23.5t14.5 38.5l3 17h126zM476 388h-126l30 137h126z" />
    <glyph glyph-name="Agrave" unicode="&#xc0;" horiz-adv-x="709" 
d="M253.188 142l-107.188 -142h-149l567.439 750h212l-64.4395 -750h-146l11.1875 142h-324zM628.055 640h-2l-293.695 -389h259zM799.291 852l-49.0547 -52l-156.718 86l79.4326 82z" />
    <glyph glyph-name="Aacute" unicode="&#xc1;" horiz-adv-x="709" 
d="M253.188 142l-107.188 -142h-149l567.439 750h212l-64.4395 -750h-146l11.1875 142h-324zM628.055 640h-2l-293.695 -389h259zM814.519 886l-231.282 -86l-4.94531 52l225.66 116z" />
    <glyph glyph-name="Acircumflex" unicode="&#xc2;" horiz-adv-x="709" 
d="M253.188 142l-107.188 -142h-149l567.439 750h212l-64.4395 -750h-146l11.1875 142h-324zM628.055 640h-2l-293.695 -389h259zM850.779 859l-46.6289 -50l-125.607 63l-181.393 -63l-2.37109 50l223.959 108z" />
    <glyph glyph-name="Atilde" unicode="&#xc3;" horiz-adv-x="709" 
d="M253.188 142l-107.188 -142h-149l567.439 750h212l-64.4395 -750h-146l11.1875 142h-324zM628.055 640h-2l-293.695 -389h259zM880.433 895q-34.4404 -35 -71.9678 -61t-80.5273 -26q-22 0 -39.1934 8.5t-31.9609 19t-28.9609 19q-14.1924 8.5 -29.1924 8.5
q-22 0 -39.1572 -12.5q-17.1582 -12.5 -32.7715 -29.5l-49.5596 35q33.2275 34 71.1484 59.5t79.9209 25.5q20 0 37.0869 -9t32.3545 -19.5t30.3545 -19.5t30.0869 -9q20 0 39.583 14.5q19.582 14.5 35.9834 30.5z" />
    <glyph glyph-name="Adieresis" unicode="&#xc4;" horiz-adv-x="709" 
d="M253.188 142l-107.188 -142h-149l567.439 750h212l-64.4395 -750h-146l11.1875 142h-324zM628.055 640h-2l-293.695 -389h259zM645.747 920l-37.708 -88h-99l37.708 88h99zM849.747 920l-37.708 -88h-99l37.708 88h99z" />
    <glyph glyph-name="Aring" unicode="&#xc5;" horiz-adv-x="709" 
d="M253.188 142l-107.188 -142h-149l567.439 750h212l-64.4395 -750h-146l11.1875 142h-324zM628.055 640h-2l-293.695 -389h259zM593.456 901q9.03906 19 23.1533 36q14.1133 17 31.7715 29.5q17.6572 12.5 37.6445 19.5q19.9883 7 38.9883 7q38 0 53.7607 -27
q15.7598 -27 -1.31836 -65q-8.03906 -19 -22.0469 -35.5t-31.665 -29t-37.752 -20q-20.0938 -7.5 -39.0938 -7.5q-39 0 -54.2607 27q-15.2598 27 0.818359 65zM638.456 901q-8.25195 -20 -0.12207 -33.5q8.13086 -13.5 27.1309 -13.5q20 0 39.3691 13.5
q19.3701 13.5 27.6221 33.5q9.25195 20 1.12207 33.5q-8.13086 13.5 -28.1309 13.5q-19 0 -38.3691 -13.5q-19.3701 -13.5 -28.6221 -33.5z" />
    <glyph glyph-name="AE" unicode="&#xc6;" horiz-adv-x="1059" 
d="M643 627h-75l-259 -376h254zM540 142h-300l-99 -142h-158l513 750h682l-26 -123h-365l-41 -192h343l-23 -109h-343l-43 -203h365l-26 -123h-509z" />
    <glyph glyph-name="Ccedilla" unicode="&#xc7;" horiz-adv-x="696" 
d="M723.08 499l17.7158 41q14.0156 33 14.4482 51.5t-13.6533 27.5q-14.0869 9 -44.0557 11.5t-76.9688 2.5q-55 0 -90.7754 -6t-61.708 -24.5t-46.5547 -52t-44.3135 -88.5l-70.2891 -166q-23.9053 -56 -33.3457 -91t-0.0859375 -54.5t39.8662 -26.5t87.5117 -7
q43 0 76.0322 2.5q33.0312 2.5 58.2637 13q25.2314 10.5 44.5146 33t35.7871 62.5l17.7158 41h144l-20.417 -49q-35.0693 -85 -76.5293 -129.5t-91.3184 -65t-109.708 -24.5q-59.8506 -4 -130.488 -7q-100.851 -4 -155.662 11q-54.8105 15 -73.1582 51
q-18.3467 36 -6.0166 94t46.7617 140l72.5654 172q38.1328 90 80.75 147t94.6328 90q52.0146 33 116.566 45q64.5508 12 147.551 12q70 0 123.256 -3.5t82.8975 -24q29.6426 -20.5 32.8945 -64q3.25293 -43.5 -26.9668 -124.5l-17.7158 -41h-144zM395.056 -75l-153.054 -52
l-7.22168 46l142.669 69z" />
    <glyph glyph-name="Egrave" unicode="&#xc8;" horiz-adv-x="619" 
d="M387.537 440h351l-51.085 -118h-351l-84.3037 -199h373l-52.1484 -123h-517l318.439 750h514l-52.1484 -123h-370zM734.291 852l-49.0547 -52l-156.718 86l79.4326 82z" />
    <glyph glyph-name="Eacute" unicode="&#xc9;" horiz-adv-x="619" 
d="M387.537 440h351l-51.085 -118h-351l-84.3037 -199h373l-52.1484 -123h-517l318.439 750h514l-52.1484 -123h-370zM769.519 886l-231.282 -86l-4.94531 52l225.66 116z" />
    <glyph glyph-name="Ecircumflex" unicode="&#xca;" horiz-adv-x="619" 
d="M387.537 440h351l-51.085 -118h-351l-84.3037 -199h373l-52.1484 -123h-517l318.439 750h514l-52.1484 -123h-370zM805.779 859l-46.6289 -50l-125.607 63l-181.393 -63l-2.37109 50l223.959 108z" />
    <glyph glyph-name="Edieresis" unicode="&#xcb;" horiz-adv-x="619" 
d="M387.537 440h351l-51.085 -118h-351l-84.3037 -199h373l-52.1484 -123h-517l318.439 750h514l-52.1484 -123h-370zM600.747 920l-37.708 -88h-99l37.708 88h99zM804.747 920l-37.708 -88h-99l37.708 88h99z" />
    <glyph glyph-name="Igrave" unicode="&#xcc;" horiz-adv-x="276" 
d="M210 0h-144l318.439 750h144zM563.291 852l-49.0547 -52l-156.718 86l79.4326 82z" />
    <glyph glyph-name="Iacute" unicode="&#xcd;" horiz-adv-x="276" 
d="M210 0h-144l318.439 750h144zM578.519 886l-231.282 -86l-4.94531 52l225.66 116z" />
    <glyph glyph-name="Icircumflex" unicode="&#xce;" horiz-adv-x="276" 
d="M210 0h-144l318.439 750h144zM633.779 859l-46.6289 -50l-125.607 63l-181.393 -63l-2.37109 50l223.959 108z" />
    <glyph glyph-name="Idieresis" unicode="&#xcf;" horiz-adv-x="276" 
d="M210 0h-144l318.439 750h144zM409.747 920l-37.708 -88h-99l37.708 88h99zM613.747 920l-37.708 -88h-99l37.708 88h99z" />
    <glyph glyph-name="Eth" unicode="&#xd0;" horiz-adv-x="754" 
d="M300 440h125l-24 -109h-125l-44 -208h238q37 0 64.5 15t47 39t32.5 55t19 62l38 177q10 47 8.5 77t-16 47.5t-41.5 24.5t-69 7h-214zM221 750h358q78 0 130.5 -15t81.5 -48t34.5 -86t-10.5 -130l-38 -177q-12 -58 -33.5 -111.5t-60 -94t-96.5 -64.5t-143 -24h-382l70 331
h-91l24 109h91z" />
    <glyph glyph-name="Ntilde" unicode="&#xd1;" horiz-adv-x="827" 
d="M935.439 750h144l-318.439 -750h-239l-52.709 627h-5l-254.291 -627h-144l318.439 750h238l54.709 -627h4zM939.433 895q-34.4404 -35 -71.9678 -61t-80.5273 -26q-22 0 -39.1934 8.5t-31.9609 19t-28.9609 19q-14.1924 8.5 -29.1924 8.5q-22 0 -39.1572 -12.5
q-17.1582 -12.5 -32.7715 -29.5l-49.5596 35q33.2275 34 71.1484 59.5t79.9209 25.5q20 0 37.0869 -9t32.3545 -19.5t30.3545 -19.5t30.0869 -9q20 0 39.583 14.5q19.582 14.5 35.9834 30.5z" />
    <glyph glyph-name="Ograve" unicode="&#xd2;" horiz-adv-x="715" 
d="M677.715 756q81 0 137.087 -9q56.0859 -9 83.5273 -37.5t24.3555 -83t-42.2188 -144.5l-84.9424 -202q-39.1318 -90 -81.0371 -146q-41.9043 -56 -93.4951 -87q-51.5898 -31 -116.929 -42q-65.3379 -11 -150.338 -11q-87 0 -143.374 10t-80.8906 40.5
q-24.5156 30.5 -17.5049 87t46.5684 148.5l84.9424 202q37.4951 87 76.4746 141t88.751 83.5t114.397 39.5t154.626 10zM625.566 633q-59 0 -95.4883 -7q-36.4873 -7 -61.6016 -24t-42.7793 -46t-38.2314 -74l-84.9424 -202q-23.9043 -56 -31.3135 -88.5t4.58301 -49
q11.9932 -16.5 44.0361 -21t86.043 -4.5q49 0 84.5635 5q35.5625 5 63.6768 22t51.0234 49.5q22.9082 32.5 46.3877 86.5l84.9424 202q24.2676 53 27.6445 83q3.37793 30 -11.4336 45q-14.8105 15 -46.9609 19q-32.1494 4 -80.1494 4zM782.291 852l-49.0547 -52l-156.718 86
l79.4326 82z" />
    <glyph glyph-name="Oacute" unicode="&#xd3;" horiz-adv-x="715" 
d="M677.715 756q81 0 137.087 -9q56.0859 -9 83.5273 -37.5t24.3555 -83t-42.2188 -144.5l-84.9424 -202q-39.1318 -90 -81.0371 -146q-41.9043 -56 -93.4951 -87q-51.5898 -31 -116.929 -42q-65.3379 -11 -150.338 -11q-87 0 -143.374 10t-80.8906 40.5
q-24.5156 30.5 -17.5049 87t46.5684 148.5l84.9424 202q37.4951 87 76.4746 141t88.751 83.5t114.397 39.5t154.626 10zM625.566 633q-59 0 -95.4883 -7q-36.4873 -7 -61.6016 -24t-42.7793 -46t-38.2314 -74l-84.9424 -202q-23.9043 -56 -31.3135 -88.5t4.58301 -49
q11.9932 -16.5 44.0361 -21t86.043 -4.5q49 0 84.5635 5q35.5625 5 63.6768 22t51.0234 49.5q22.9082 32.5 46.3877 86.5l84.9424 202q24.2676 53 27.6445 83q3.37793 30 -11.4336 45q-14.8105 15 -46.9609 19q-32.1494 4 -80.1494 4zM797.519 886l-231.282 -86l-4.94531 52
l225.66 116z" />
    <glyph glyph-name="Ocircumflex" unicode="&#xd4;" horiz-adv-x="715" 
d="M677.715 756q81 0 137.087 -9q56.0859 -9 83.5273 -37.5t24.3555 -83t-42.2188 -144.5l-84.9424 -202q-39.1318 -90 -81.0371 -146q-41.9043 -56 -93.4951 -87q-51.5898 -31 -116.929 -42q-65.3379 -11 -150.338 -11q-87 0 -143.374 10t-80.8906 40.5
q-24.5156 30.5 -17.5049 87t46.5684 148.5l84.9424 202q37.4951 87 76.4746 141t88.751 83.5t114.397 39.5t154.626 10zM625.566 633q-59 0 -95.4883 -7q-36.4873 -7 -61.6016 -24t-42.7793 -46t-38.2314 -74l-84.9424 -202q-23.9043 -56 -31.3135 -88.5t4.58301 -49
q11.9932 -16.5 44.0361 -21t86.043 -4.5q49 0 84.5635 5q35.5625 5 63.6768 22t51.0234 49.5q22.9082 32.5 46.3877 86.5l84.9424 202q24.2676 53 27.6445 83q3.37793 30 -11.4336 45q-14.8105 15 -46.9609 19q-32.1494 4 -80.1494 4zM853.779 859l-46.6289 -50l-125.607 63
l-181.393 -63l-2.37109 50l223.959 108z" />
    <glyph glyph-name="Otilde" unicode="&#xd5;" horiz-adv-x="715" 
d="M677.715 756q81 0 137.087 -9q56.0859 -9 83.5273 -37.5t24.3555 -83t-42.2188 -144.5l-84.9424 -202q-39.1318 -90 -81.0371 -146q-41.9043 -56 -93.4951 -87q-51.5898 -31 -116.929 -42q-65.3379 -11 -150.338 -11q-87 0 -143.374 10t-80.8906 40.5
q-24.5156 30.5 -17.5049 87t46.5684 148.5l84.9424 202q37.4951 87 76.4746 141t88.751 83.5t114.397 39.5t154.626 10zM625.566 633q-59 0 -95.4883 -7q-36.4873 -7 -61.6016 -24t-42.7793 -46t-38.2314 -74l-84.9424 -202q-23.9043 -56 -31.3135 -88.5t4.58301 -49
q11.9932 -16.5 44.0361 -21t86.043 -4.5q49 0 84.5635 5q35.5625 5 63.6768 22t51.0234 49.5q22.9082 32.5 46.3877 86.5l84.9424 202q24.2676 53 27.6445 83q3.37793 30 -11.4336 45q-14.8105 15 -46.9609 19q-32.1494 4 -80.1494 4zM883.433 895
q-34.4404 -35 -71.9678 -61t-80.5273 -26q-22 0 -39.1934 8.5t-31.9609 19t-28.9609 19q-14.1924 8.5 -29.1924 8.5q-22 0 -39.1572 -12.5q-17.1582 -12.5 -32.7715 -29.5l-49.5596 35q33.2275 34 71.1484 59.5t79.9209 25.5q20 0 37.0869 -9t32.3545 -19.5t30.3545 -19.5
t30.0869 -9q20 0 39.583 14.5q19.582 14.5 35.9834 30.5z" />
    <glyph glyph-name="Odieresis" unicode="&#xd6;" horiz-adv-x="715" 
d="M677.715 756q81 0 137.087 -9q56.0859 -9 83.5273 -37.5t24.3555 -83t-42.2188 -144.5l-84.9424 -202q-39.1318 -90 -81.0371 -146q-41.9043 -56 -93.4951 -87q-51.5898 -31 -116.929 -42q-65.3379 -11 -150.338 -11q-87 0 -143.374 10t-80.8906 40.5
q-24.5156 30.5 -17.5049 87t46.5684 148.5l84.9424 202q37.4951 87 76.4746 141t88.751 83.5t114.397 39.5t154.626 10zM625.566 633q-59 0 -95.4883 -7q-36.4873 -7 -61.6016 -24t-42.7793 -46t-38.2314 -74l-84.9424 -202q-23.9043 -56 -31.3135 -88.5t4.58301 -49
q11.9932 -16.5 44.0361 -21t86.043 -4.5q49 0 84.5635 5q35.5625 5 63.6768 22t51.0234 49.5q22.9082 32.5 46.3877 86.5l84.9424 202q24.2676 53 27.6445 83q3.37793 30 -11.4336 45q-14.8105 15 -46.9609 19q-32.1494 4 -80.1494 4zM648.747 920l-37.708 -88h-99
l37.708 88h99zM852.747 920l-37.708 -88h-99l37.708 88h99z" />
    <glyph glyph-name="multiply" unicode="&#xd7;" horiz-adv-x="584" 
d="M578 525l53 -67l-212 -175l138 -175l-82 -66l-138 173l-209 -173l-54 70l209 171l-136 173l83 69l136 -174z" />
    <glyph glyph-name="Oslash" unicode="&#xd8;" horiz-adv-x="754" 
d="M895 661l-72 -53q5 -48 -6 -101.5t-25 -119.5q-25 -117 -50 -193t-68 -120.5t-112.5 -62t-182.5 -17.5q-51 0 -91.5 1t-72 8t-55.5 21t-43 41l-123 -91l24 109l72 55q-2 16 1 45t8.5 64t13.5 72t14 68q21 98 42 168t62.5 114.5t113.5 65.5t196 21q35 0 72 -1t71 -8
t63.5 -22t49.5 -42l122 91zM245 161q2 -16 18 -25t40 -13.5t51.5 -5t50.5 -0.5q73 0 113.5 10.5t63 39t35 79t29.5 131.5l24 114zM670 587q-18 33 -59 39.5t-96 6.5q-63 0 -102 -8t-63.5 -28t-38 -53t-24.5 -83l-44 -207z" />
    <glyph glyph-name="Ugrave" unicode="&#xd9;" horiz-adv-x="754" 
d="M1007.44 750l-226.309 -533q-33.5811 -78 -75.6475 -123t-93.2432 -67q-51.1777 -22 -110.847 -27.5t-127.669 -5.5q-66 0 -120.831 5.5t-87.1533 27.5q-32.3232 22 -37.3633 66.5t28.7539 123.5l226.309 533h144l-226.309 -533q-12.165 -29 -13.7041 -48t12.0166 -30.5
q13.5547 -11.5 43.9922 -16.5q30.4365 -5 82.4365 -5q50 0 84.3506 4t58.2949 15.5q23.9453 11.5 40.0908 31t28.5225 49.5l226.309 533h144zM802.291 852l-49.0547 -52l-156.718 86l79.4326 82z" />
    <glyph glyph-name="Uacute" unicode="&#xda;" horiz-adv-x="754" 
d="M1007.44 750l-226.309 -533q-33.5811 -78 -75.6475 -123t-93.2432 -67q-51.1777 -22 -110.847 -27.5t-127.669 -5.5q-66 0 -120.831 5.5t-87.1533 27.5q-32.3232 22 -37.3633 66.5t28.7539 123.5l226.309 533h144l-226.309 -533q-12.165 -29 -13.7041 -48t12.0166 -30.5
q13.5547 -11.5 43.9922 -16.5q30.4365 -5 82.4365 -5q50 0 84.3506 4t58.2949 15.5q23.9453 11.5 40.0908 31t28.5225 49.5l226.309 533h144zM817.519 886l-231.282 -86l-4.94531 52l225.66 116z" />
    <glyph glyph-name="Ucircumflex" unicode="&#xdb;" horiz-adv-x="754" 
d="M1007.44 750l-226.309 -533q-33.5811 -78 -75.6475 -123t-93.2432 -67q-51.1777 -22 -110.847 -27.5t-127.669 -5.5q-66 0 -120.831 5.5t-87.1533 27.5q-32.3232 22 -37.3633 66.5t28.7539 123.5l226.309 533h144l-226.309 -533q-12.165 -29 -13.7041 -48t12.0166 -30.5
q13.5547 -11.5 43.9922 -16.5q30.4365 -5 82.4365 -5q50 0 84.3506 4t58.2949 15.5q23.9453 11.5 40.0908 31t28.5225 49.5l226.309 533h144zM872.779 859l-46.6289 -50l-125.607 63l-181.393 -63l-2.37109 50l223.959 108z" />
    <glyph glyph-name="Udieresis" unicode="&#xdc;" horiz-adv-x="754" 
d="M1007.44 750l-226.309 -533q-33.5811 -78 -75.6475 -123t-93.2432 -67q-51.1777 -22 -110.847 -27.5t-127.669 -5.5q-66 0 -120.831 5.5t-87.1533 27.5q-32.3232 22 -37.3633 66.5t28.7539 123.5l226.309 533h144l-226.309 -533q-12.165 -29 -13.7041 -48t12.0166 -30.5
q13.5547 -11.5 43.9922 -16.5q30.4365 -5 82.4365 -5q50 0 84.3506 4t58.2949 15.5q23.9453 11.5 40.0908 31t28.5225 49.5l226.309 533h144zM668.747 920l-37.708 -88h-99l37.708 88h99zM872.747 920l-37.708 -88h-99l37.708 88h99z" />
    <glyph glyph-name="Yacute" unicode="&#xdd;" horiz-adv-x="670" 
d="M526.225 288l-122.225 -288h-144l122.225 288l-74.7852 462h164l41.9727 -320h3l317.027 320h166zM793.519 886l-231.282 -86l-4.94531 52l225.66 116z" />
    <glyph glyph-name="Thorn" unicode="&#xde;" horiz-adv-x="686" 
d="M215 750h144l-26 -122h188q76 0 125 -11t74 -39.5t27.5 -78.5t-13.5 -129q-17 -79 -41.5 -128t-62 -76t-90.5 -36t-126 -9h-188l-26 -121h-144zM440 244q39 1 64 6t41 18.5t26 38t19 63.5q8 40 9.5 66t-8 41.5t-32.5 21.5t-64 6h-188l-55 -261h188z" />
    <glyph glyph-name="germandbls" unicode="&#xdf;" horiz-adv-x="606" 
d="M176 513q14 67 30.5 113t47 75t81 42t132.5 13q42 0 80.5 -5.5t65.5 -22t39 -47t2 -80.5q-13 -60 -51.5 -93t-97.5 -41v-3q49 -3 75.5 -20.5t37 -47t8.5 -67.5t-11 -81q-12 -55 -29.5 -101.5t-46 -80.5t-71.5 -53t-105 -19q-29 0 -56 5.5t-52 13.5l22 103q17 -10 36 -18
t42 -8q30 0 52 12.5t38 33.5t26.5 50t17.5 62q9 44 11 75.5t-7 52.5t-31.5 31t-61.5 10h-36l18 86h36q19 0 37.5 4t34.5 15t27.5 30t18.5 49q4 21 -2.5 34.5t-21 21t-34.5 10.5t-42 3q-29 0 -49 -4.5t-34 -16t-23 -30.5t-16 -48l-121 -571h-126z" />
    <glyph glyph-name="agrave" unicode="&#xe0;" horiz-adv-x="589" 
d="M384.17 236q-24 0 -45.2119 -1q-21.2129 -1 -39.7012 -8t-34.2832 -22.5t-27.7471 -43.5q-11.9531 -28 -12.8545 -44t9.39844 -24q10.2988 -8 31.2676 -10.5t52.9688 -2.5q25 0 47.4248 2q22.4258 2 41.2324 10.5t34.208 24.5t27.3545 44q11.7393 27 9.03418 42.5
q-2.7041 15.5 -15.7168 22.5q-13.0117 7 -33.6924 8.5q-20.6816 1.5 -43.6816 1.5zM433.03 66h-3q-20.5264 -26 -44.6094 -40.5q-24.082 -14.5 -49.5703 -21.5t-50.8076 -8.5q-25.3184 -1.5 -48.3184 -1.5q-45 0 -78.7246 6t-51.3984 24q-17.6729 18 -17.6572 51
q0.0146484 33 22.2822 86q19.9912 47 45.5811 78q25.5908 31 58.0234 49.5t72.5273 26q40.0938 7.5 88.0938 7.5q24 0 47.2881 -1q23.2871 -1 41.0117 -7t29.6738 -18q11.9482 -12 14.2715 -34h4l28.4561 68q13.8027 32 20.4795 54t1.04688 35.5t-25.3545 19.5t-58.7246 6
q-21 0 -39.9248 -2q-18.9258 -2 -35.4141 -9q-16.4873 -7 -30.5703 -21.5q-14.082 -14.5 -24.6094 -40.5h-126q24.1172 57 55.9199 89t69.5977 47.5t80.0391 19t87.2441 3.5q63 0 105.012 -7t62.0479 -28t16.5322 -61q-3.50293 -40 -31.5342 -106l-139.94 -329h-126z
M671.291 627l-49.0547 -52l-156.718 86l79.4326 82z" />
    <glyph glyph-name="aacute" unicode="&#xe1;" horiz-adv-x="589" 
d="M384.17 236q-24 0 -45.2119 -1q-21.2129 -1 -39.7012 -8t-34.2832 -22.5t-27.7471 -43.5q-11.9531 -28 -12.8545 -44t9.39844 -24q10.2988 -8 31.2676 -10.5t52.9688 -2.5q25 0 47.4248 2q22.4258 2 41.2324 10.5t34.208 24.5t27.3545 44q11.7393 27 9.03418 42.5
q-2.7041 15.5 -15.7168 22.5q-13.0117 7 -33.6924 8.5q-20.6816 1.5 -43.6816 1.5zM433.03 66h-3q-20.5264 -26 -44.6094 -40.5q-24.082 -14.5 -49.5703 -21.5t-50.8076 -8.5q-25.3184 -1.5 -48.3184 -1.5q-45 0 -78.7246 6t-51.3984 24q-17.6729 18 -17.6572 51
q0.0146484 33 22.2822 86q19.9912 47 45.5811 78q25.5908 31 58.0234 49.5t72.5273 26q40.0938 7.5 88.0938 7.5q24 0 47.2881 -1q23.2871 -1 41.0117 -7t29.6738 -18q11.9482 -12 14.2715 -34h4l28.4561 68q13.8027 32 20.4795 54t1.04688 35.5t-25.3545 19.5t-58.7246 6
q-21 0 -39.9248 -2q-18.9258 -2 -35.4141 -9q-16.4873 -7 -30.5703 -21.5q-14.082 -14.5 -24.6094 -40.5h-126q24.1172 57 55.9199 89t69.5977 47.5t80.0391 19t87.2441 3.5q63 0 105.012 -7t62.0479 -28t16.5322 -61q-3.50293 -40 -31.5342 -106l-139.94 -329h-126z
M706.519 661l-231.282 -86l-4.94531 52l225.66 116z" />
    <glyph glyph-name="acircumflex" unicode="&#xe2;" horiz-adv-x="589" 
d="M384.17 236q-24 0 -45.2119 -1q-21.2129 -1 -39.7012 -8t-34.2832 -22.5t-27.7471 -43.5q-11.9531 -28 -12.8545 -44t9.39844 -24q10.2988 -8 31.2676 -10.5t52.9688 -2.5q25 0 47.4248 2q22.4258 2 41.2324 10.5t34.208 24.5t27.3545 44q11.7393 27 9.03418 42.5
q-2.7041 15.5 -15.7168 22.5q-13.0117 7 -33.6924 8.5q-20.6816 1.5 -43.6816 1.5zM433.03 66h-3q-20.5264 -26 -44.6094 -40.5q-24.082 -14.5 -49.5703 -21.5t-50.8076 -8.5q-25.3184 -1.5 -48.3184 -1.5q-45 0 -78.7246 6t-51.3984 24q-17.6729 18 -17.6572 51
q0.0146484 33 22.2822 86q19.9912 47 45.5811 78q25.5908 31 58.0234 49.5t72.5273 26q40.0938 7.5 88.0938 7.5q24 0 47.2881 -1q23.2871 -1 41.0117 -7t29.6738 -18q11.9482 -12 14.2715 -34h4l28.4561 68q13.8027 32 20.4795 54t1.04688 35.5t-25.3545 19.5t-58.7246 6
q-21 0 -39.9248 -2q-18.9258 -2 -35.4141 -9q-16.4873 -7 -30.5703 -21.5q-14.082 -14.5 -24.6094 -40.5h-126q24.1172 57 55.9199 89t69.5977 47.5t80.0391 19t87.2441 3.5q63 0 105.012 -7t62.0479 -28t16.5322 -61q-3.50293 -40 -31.5342 -106l-139.94 -329h-126z
M742.779 634l-46.6289 -50l-125.607 63l-181.393 -63l-2.37109 50l223.959 108z" />
    <glyph glyph-name="atilde" unicode="&#xe3;" horiz-adv-x="589" 
d="M384.17 236q-24 0 -45.2119 -1q-21.2129 -1 -39.7012 -8t-34.2832 -22.5t-27.7471 -43.5q-11.9531 -28 -12.8545 -44t9.39844 -24q10.2988 -8 31.2676 -10.5t52.9688 -2.5q25 0 47.4248 2q22.4258 2 41.2324 10.5t34.208 24.5t27.3545 44q11.7393 27 9.03418 42.5
q-2.7041 15.5 -15.7168 22.5q-13.0117 7 -33.6924 8.5q-20.6816 1.5 -43.6816 1.5zM433.03 66h-3q-20.5264 -26 -44.6094 -40.5q-24.082 -14.5 -49.5703 -21.5t-50.8076 -8.5q-25.3184 -1.5 -48.3184 -1.5q-45 0 -78.7246 6t-51.3984 24q-17.6729 18 -17.6572 51
q0.0146484 33 22.2822 86q19.9912 47 45.5811 78q25.5908 31 58.0234 49.5t72.5273 26q40.0938 7.5 88.0938 7.5q24 0 47.2881 -1q23.2871 -1 41.0117 -7t29.6738 -18q11.9482 -12 14.2715 -34h4l28.4561 68q13.8027 32 20.4795 54t1.04688 35.5t-25.3545 19.5t-58.7246 6
q-21 0 -39.9248 -2q-18.9258 -2 -35.4141 -9q-16.4873 -7 -30.5703 -21.5q-14.082 -14.5 -24.6094 -40.5h-126q24.1172 57 55.9199 89t69.5977 47.5t80.0391 19t87.2441 3.5q63 0 105.012 -7t62.0479 -28t16.5322 -61q-3.50293 -40 -31.5342 -106l-139.94 -329h-126z
M772.433 670q-34.4404 -35 -71.9678 -61t-80.5273 -26q-22 0 -39.1934 8.5t-31.9609 19t-28.9609 19q-14.1924 8.5 -29.1924 8.5q-22 0 -39.1572 -12.5q-17.1582 -12.5 -32.7715 -29.5l-49.5596 35q33.2275 34 71.1484 59.5t79.9209 25.5q20 0 37.0869 -9t32.3545 -19.5
t30.3545 -19.5t30.0869 -9q20 0 39.583 14.5q19.582 14.5 35.9834 30.5z" />
    <glyph glyph-name="adieresis" unicode="&#xe4;" horiz-adv-x="589" 
d="M384.17 236q-24 0 -45.2119 -1q-21.2129 -1 -39.7012 -8t-34.2832 -22.5t-27.7471 -43.5q-11.9531 -28 -12.8545 -44t9.39844 -24q10.2988 -8 31.2676 -10.5t52.9688 -2.5q25 0 47.4248 2q22.4258 2 41.2324 10.5t34.208 24.5t27.3545 44q11.7393 27 9.03418 42.5
q-2.7041 15.5 -15.7168 22.5q-13.0117 7 -33.6924 8.5q-20.6816 1.5 -43.6816 1.5zM433.03 66h-3q-20.5264 -26 -44.6094 -40.5q-24.082 -14.5 -49.5703 -21.5t-50.8076 -8.5q-25.3184 -1.5 -48.3184 -1.5q-45 0 -78.7246 6t-51.3984 24q-17.6729 18 -17.6572 51
q0.0146484 33 22.2822 86q19.9912 47 45.5811 78q25.5908 31 58.0234 49.5t72.5273 26q40.0938 7.5 88.0938 7.5q24 0 47.2881 -1q23.2871 -1 41.0117 -7t29.6738 -18q11.9482 -12 14.2715 -34h4l28.4561 68q13.8027 32 20.4795 54t1.04688 35.5t-25.3545 19.5t-58.7246 6
q-21 0 -39.9248 -2q-18.9258 -2 -35.4141 -9q-16.4873 -7 -30.5703 -21.5q-14.082 -14.5 -24.6094 -40.5h-126q24.1172 57 55.9199 89t69.5977 47.5t80.0391 19t87.2441 3.5q63 0 105.012 -7t62.0479 -28t16.5322 -61q-3.50293 -40 -31.5342 -106l-139.94 -329h-126z
M537.747 695l-37.708 -88h-99l37.708 88h99zM741.747 695l-37.708 -88h-99l37.708 88h99z" />
    <glyph glyph-name="aring" unicode="&#xe5;" horiz-adv-x="589" 
d="M384.17 236q-24 0 -45.2119 -1q-21.2129 -1 -39.7012 -8t-34.2832 -22.5t-27.7471 -43.5q-11.9531 -28 -12.8545 -44t9.39844 -24q10.2988 -8 31.2676 -10.5t52.9688 -2.5q25 0 47.4248 2q22.4258 2 41.2324 10.5t34.208 24.5t27.3545 44q11.7393 27 9.03418 42.5
q-2.7041 15.5 -15.7168 22.5q-13.0117 7 -33.6924 8.5q-20.6816 1.5 -43.6816 1.5zM433.03 66h-3q-20.5264 -26 -44.6094 -40.5q-24.082 -14.5 -49.5703 -21.5t-50.8076 -8.5q-25.3184 -1.5 -48.3184 -1.5q-45 0 -78.7246 6t-51.3984 24q-17.6729 18 -17.6572 51
q0.0146484 33 22.2822 86q19.9912 47 45.5811 78q25.5908 31 58.0234 49.5t72.5273 26q40.0938 7.5 88.0938 7.5q24 0 47.2881 -1q23.2871 -1 41.0117 -7t29.6738 -18q11.9482 -12 14.2715 -34h4l28.4561 68q13.8027 32 20.4795 54t1.04688 35.5t-25.3545 19.5t-58.7246 6
q-21 0 -39.9248 -2q-18.9258 -2 -35.4141 -9q-16.4873 -7 -30.5703 -21.5q-14.082 -14.5 -24.6094 -40.5h-126q24.1172 57 55.9199 89t69.5977 47.5t80.0391 19t87.2441 3.5q63 0 105.012 -7t62.0479 -28t16.5322 -61q-3.50293 -40 -31.5342 -106l-139.94 -329h-126z
M481.456 656q9.03906 19 23.1533 36q14.1133 17 31.7715 29.5q17.6572 12.5 37.6445 19.5q19.9883 7 38.9883 7q38 0 53.7607 -27q15.7598 -27 -1.31836 -65q-8.03906 -19 -22.0469 -35.5t-31.665 -29t-37.752 -20q-20.0938 -7.5 -39.0938 -7.5q-39 0 -54.2607 27
q-15.2598 27 0.818359 65zM526.456 656q-8.25195 -20 -0.12207 -33.5q8.13086 -13.5 27.1309 -13.5q20 0 39.3691 13.5q19.3701 13.5 27.6221 33.5q9.25195 20 1.12207 33.5q-8.13086 13.5 -28.1309 13.5q-19 0 -38.3691 -13.5q-19.3701 -13.5 -28.6221 -33.5z" />
    <glyph glyph-name="ae" unicode="&#xe6;" horiz-adv-x="920" 
d="M824 319q8 41 9 64t-9 34.5t-33 14.5t-62 3q-40 0 -64.5 -5t-39 -18t-22 -35.5t-14.5 -57.5h235zM329 236q-24 0 -45 -1t-38 -8t-29.5 -22.5t-18.5 -43.5t-3.5 -44t14.5 -24t33.5 -10.5t53.5 -2.5q25 0 47 2t39 10.5t29 24.5t18 44q6 27 0 42.5t-20.5 22.5t-35.5 8.5
t-44 1.5zM465 330q7 32 9 54t-6.5 35.5t-29.5 19.5t-60 6q-21 0 -39.5 -2t-33.5 -9t-26 -21.5t-16 -40.5h-126q12 57 37 89t59.5 47.5t76 19t86.5 3.5q15 0 42 -0.5t53.5 -6.5t47 -20t21.5 -41h3q14 24 37.5 38t50.5 20.5t53 8t46 1.5q81 0 126.5 -13.5t64 -46.5t14.5 -89.5
t-22 -142.5h-361q-9 -42 -13 -71t3.5 -46t29.5 -24.5t64 -7.5q26 0 48.5 1t39.5 8t29 23t18 45h126q-13 -62 -37.5 -96.5t-60 -51.5t-81.5 -21t-102 -4q-26 0 -54.5 2t-53.5 10.5t-42.5 25t-21.5 45.5h-3q-16 -30 -41.5 -46.5t-56 -25t-64.5 -10t-66 -1.5q-45 0 -80 6
t-56.5 24t-28.5 51t4 86q10 47 29 78t47.5 49.5t67 26t86.5 7.5q24 0 47.5 -1t42.5 -7t33.5 -18.5t20.5 -35.5h4z" />
    <glyph glyph-name="ccedilla" unicode="&#xe7;" horiz-adv-x="551" 
d="M605.518 200q-27.6055 -64 -57.2158 -104.5q-29.6094 -40.5 -67.3926 -63t-86.9844 -30.5q-49.2002 -8 -115.2 -8q-73 0 -113.449 12t-53.4648 42.5q-13.0166 30.5 -0.461914 82.5t46.3486 131q28.6689 69 57.9043 119.5t68.3574 84q39.1211 33.5 92.5225 49.5
t130.401 16q58 0 100.118 -6.5t63.8662 -26.5q21.749 -20 21.2764 -57.5q-0.47168 -37.5 -27.6523 -99.5h-126q13.3779 30 15.8105 48.5t-5.94141 28.5t-29.1299 13.5t-53.7559 3.5q-40 0 -65.7002 -8q-25.7012 -8 -44.4531 -28q-18.751 -20 -34.7666 -53t-36.8574 -84
q-21.417 -49 -33.9316 -82q-12.5156 -33 -10.7676 -53q1.74902 -20 20.4414 -28.5q18.6934 -8.5 59.6934 -8.5q39 0 63.4561 4.5q24.457 4.5 41.0078 16.5q16.5518 12 28.6221 33.5t27.2988 55.5h126zM323.056 -75l-153.054 -52l-7.22168 46l142.669 69z" />
    <glyph glyph-name="egrave" unicode="&#xe8;" horiz-adv-x="570" 
d="M599.502 167q-26.1807 -62 -58.0146 -96.5t-70.9482 -51.5t-85.9639 -21q-46.8506 -4 -102.851 -4q-76 0 -117.736 13t-54.6465 44t-0.961914 82.5t44.1045 127.5q30.0938 71 59.9355 122t69.3574 84t93.8105 48.5t134.295 15.5q81 0 123.63 -13.5t54.1152 -46.5
q11.4844 -33 -4.52637 -89.5q-16.0117 -56.5 -52.2939 -142.5h-361q-17.9287 -42 -28.0928 -71q-10.165 -29 -6.2793 -46t24.292 -24.5q20.4053 -7.5 62.4053 -7.5q26 0 48.7129 1q22.7119 1 41.2002 8t33.8896 23t27.5664 45h126zM538.814 319q16.7168 41 22.6055 64
q5.88965 23 -1.66504 34.5q-7.55566 11.5 -29.918 14.5t-61.3623 3q-40 0 -65.5625 -5q-25.5635 -5 -42.8271 -18t-29.5469 -35.5t-26.7236 -57.5h235zM662.291 627l-49.0547 -52l-156.718 86l79.4326 82z" />
    <glyph glyph-name="eacute" unicode="&#xe9;" horiz-adv-x="570" 
d="M599.502 167q-26.1807 -62 -58.0146 -96.5t-70.9482 -51.5t-85.9639 -21q-46.8506 -4 -102.851 -4q-76 0 -117.736 13t-54.6465 44t-0.961914 82.5t44.1045 127.5q30.0938 71 59.9355 122t69.3574 84t93.8105 48.5t134.295 15.5q81 0 123.63 -13.5t54.1152 -46.5
q11.4844 -33 -4.52637 -89.5q-16.0117 -56.5 -52.2939 -142.5h-361q-17.9287 -42 -28.0928 -71q-10.165 -29 -6.2793 -46t24.292 -24.5q20.4053 -7.5 62.4053 -7.5q26 0 48.7129 1q22.7119 1 41.2002 8t33.8896 23t27.5664 45h126zM538.814 319q16.7168 41 22.6055 64
q5.88965 23 -1.66504 34.5q-7.55566 11.5 -29.918 14.5t-61.3623 3q-40 0 -65.5625 -5q-25.5635 -5 -42.8271 -18t-29.5469 -35.5t-26.7236 -57.5h235zM697.519 661l-231.282 -86l-4.94531 52l225.66 116z" />
    <glyph glyph-name="ecircumflex" unicode="&#xea;" horiz-adv-x="570" 
d="M599.502 167q-26.1807 -62 -58.0146 -96.5t-70.9482 -51.5t-85.9639 -21q-46.8506 -4 -102.851 -4q-76 0 -117.736 13t-54.6465 44t-0.961914 82.5t44.1045 127.5q30.0938 71 59.9355 122t69.3574 84t93.8105 48.5t134.295 15.5q81 0 123.63 -13.5t54.1152 -46.5
q11.4844 -33 -4.52637 -89.5q-16.0117 -56.5 -52.2939 -142.5h-361q-17.9287 -42 -28.0928 -71q-10.165 -29 -6.2793 -46t24.292 -24.5q20.4053 -7.5 62.4053 -7.5q26 0 48.7129 1q22.7119 1 41.2002 8t33.8896 23t27.5664 45h126zM538.814 319q16.7168 41 22.6055 64
q5.88965 23 -1.66504 34.5q-7.55566 11.5 -29.918 14.5t-61.3623 3q-40 0 -65.5625 -5q-25.5635 -5 -42.8271 -18t-29.5469 -35.5t-26.7236 -57.5h235zM732.779 634l-46.6289 -50l-125.607 63l-181.393 -63l-2.37109 50l223.959 108z" />
    <glyph glyph-name="edieresis" unicode="&#xeb;" horiz-adv-x="570" 
d="M599.502 167q-26.1807 -62 -58.0146 -96.5t-70.9482 -51.5t-85.9639 -21q-46.8506 -4 -102.851 -4q-76 0 -117.736 13t-54.6465 44t-0.961914 82.5t44.1045 127.5q30.0938 71 59.9355 122t69.3574 84t93.8105 48.5t134.295 15.5q81 0 123.63 -13.5t54.1152 -46.5
q11.4844 -33 -4.52637 -89.5q-16.0117 -56.5 -52.2939 -142.5h-361q-17.9287 -42 -28.0928 -71q-10.165 -29 -6.2793 -46t24.292 -24.5q20.4053 -7.5 62.4053 -7.5q26 0 48.7129 1q22.7119 1 41.2002 8t33.8896 23t27.5664 45h126zM538.814 319q16.7168 41 22.6055 64
q5.88965 23 -1.66504 34.5q-7.55566 11.5 -29.918 14.5t-61.3623 3q-40 0 -65.5625 -5q-25.5635 -5 -42.8271 -18t-29.5469 -35.5t-26.7236 -57.5h235zM528.747 695l-37.708 -88h-99l37.708 88h99zM732.747 695l-37.708 -88h-99l37.708 88h99z" />
    <glyph glyph-name="igrave" unicode="&#xec;" horiz-adv-x="236" 
d="M181 0h-126l223.607 525h126zM495.291 627l-49.0547 -52l-156.718 86l79.4326 82z" />
    <glyph glyph-name="iacute" unicode="&#xed;" horiz-adv-x="236" 
d="M181 0h-126l223.607 525h126zM510.519 661l-231.282 -86l-4.94531 52l225.66 116z" />
    <glyph glyph-name="icircumflex" unicode="&#xee;" horiz-adv-x="236" 
d="M181 0h-126l223.607 525h126zM565.779 634l-46.6289 -50l-125.607 63l-181.393 -63l-2.37109 50l223.959 108z" />
    <glyph glyph-name="idieresis" unicode="&#xef;" horiz-adv-x="236" 
d="M181 0h-126l223.607 525h126zM361.747 695l-37.708 -88h-99l37.708 88h99zM565.747 695l-37.708 -88h-99l37.708 88h99z" />
    <glyph glyph-name="eth" unicode="&#xf0;" horiz-adv-x="582" 
d="M383 435q-42 0 -67.5 -7t-42 -26.5t-26.5 -53.5t-22 -87q-11 -52 -15 -85.5t4.5 -52.5t31 -26t64.5 -7t67.5 7t42 26t26.5 52.5t21 85.5q12 53 16 87t-4 53.5t-31 26.5t-65 7zM428 677q59 -34 104 -85t68 -114q5 -16 8.5 -35.5t3 -45t-4.5 -58.5t-13 -77
q-16 -76 -35 -127.5t-51.5 -82.5t-84 -44.5t-133.5 -13.5t-128 13.5t-65.5 44.5t-16 82.5t19.5 127.5q16 77 35 128.5t54 82.5t91.5 44.5t147.5 13.5q-7 9 -18.5 21t-24.5 23.5t-26.5 21.5t-24.5 15l-80 -59l-31 43l57 42q-14 8 -37.5 15t-46.5 15l52 88q33 -9 64.5 -21.5
t61.5 -27.5l67 49l34 -44z" />
    <glyph glyph-name="ntilde" unicode="&#xf1;" horiz-adv-x="598" 
d="M411.607 525l-33.7939 -79h4q22.165 29 46.2783 46q24.1143 17 48.9209 25.5q24.8076 8.5 51.3389 11t54.5312 2.5q52 0 81.6621 -11q29.6611 -11 40.8779 -33.5t5.27637 -57.5t-26.1445 -83l-147.555 -346h-126l141.791 333q12.165 29 16.3105 48.5t-1.30371 31.5
t-22.3857 17q-16.9375 5 -47.9375 5q-41 0 -69.5195 -9.5t-49.4521 -28t-36.7793 -46q-15.8457 -27.5 -31.2861 -62.5l-122.438 -289h-126l223.607 525h126zM777.433 670q-34.4404 -35 -71.9678 -61t-80.5273 -26q-22 0 -39.1934 8.5t-31.9609 19t-28.9609 19
q-14.1924 8.5 -29.1924 8.5q-22 0 -39.1572 -12.5q-17.1582 -12.5 -32.7715 -29.5l-49.5596 35q33.2275 34 71.1484 59.5t79.9209 25.5q20 0 37.0869 -9t32.3545 -19.5t30.3545 -19.5t30.0869 -9q20 0 39.583 14.5q19.582 14.5 35.9834 30.5z" />
    <glyph glyph-name="ograve" unicode="&#xf2;" horiz-adv-x="582" 
d="M516.883 531q82 0 125.13 -13.5t55.54 -44.5t-1.53809 -82.5t-46.3174 -128.5q-32.1562 -76 -62.1045 -127.5t-69.0381 -82.5q-39.0908 -31 -93.46 -44.5q-54.3701 -13.5 -136.37 -13.5t-125.13 13.5q-43.1309 13.5 -56.04 44.5q-12.9102 31 1.53809 82.5t46.6045 127.5
q32.3691 77 61.8174 128.5t68.5381 82.5t93.96 44.5t136.87 13.5zM475.475 435q-42 0 -68.9883 -7t-47.6328 -26.5q-20.6455 -19.5 -37.874 -53.5q-17.2275 -34 -40.4951 -87q-22.0537 -52 -33.1758 -85.5q-11.1211 -33.5 -6.66016 -52.5t25.4727 -26t63.0117 -7t68.9883 7
t47.5273 26t37.6602 52.5q17.1221 33.5 39.1758 85.5q23.2676 53 34.4951 87q11.2285 34 7.37402 53.5q-3.85547 19.5 -25.3672 26.5t-63.5117 7zM668.291 627l-49.0547 -52l-156.718 86l79.4326 82z" />
    <glyph glyph-name="oacute" unicode="&#xf3;" horiz-adv-x="582" 
d="M516.883 531q82 0 125.13 -13.5t55.54 -44.5t-1.53809 -82.5t-46.3174 -128.5q-32.1562 -76 -62.1045 -127.5t-69.0381 -82.5q-39.0908 -31 -93.46 -44.5q-54.3701 -13.5 -136.37 -13.5t-125.13 13.5q-43.1309 13.5 -56.04 44.5q-12.9102 31 1.53809 82.5t46.6045 127.5
q32.3691 77 61.8174 128.5t68.5381 82.5t93.96 44.5t136.87 13.5zM475.475 435q-42 0 -68.9883 -7t-47.6328 -26.5q-20.6455 -19.5 -37.874 -53.5q-17.2275 -34 -40.4951 -87q-22.0537 -52 -33.1758 -85.5q-11.1211 -33.5 -6.66016 -52.5t25.4727 -26t63.0117 -7t68.9883 7
t47.5273 26t37.6602 52.5q17.1221 33.5 39.1758 85.5q23.2676 53 34.4951 87q11.2285 34 7.37402 53.5q-3.85547 19.5 -25.3672 26.5t-63.5117 7zM683.519 661l-231.282 -86l-4.94531 52l225.66 116z" />
    <glyph glyph-name="ocircumflex" unicode="&#xf4;" horiz-adv-x="582" 
d="M516.883 531q82 0 125.13 -13.5t55.54 -44.5t-1.53809 -82.5t-46.3174 -128.5q-32.1562 -76 -62.1045 -127.5t-69.0381 -82.5q-39.0908 -31 -93.46 -44.5q-54.3701 -13.5 -136.37 -13.5t-125.13 13.5q-43.1309 13.5 -56.04 44.5q-12.9102 31 1.53809 82.5t46.6045 127.5
q32.3691 77 61.8174 128.5t68.5381 82.5t93.96 44.5t136.87 13.5zM475.475 435q-42 0 -68.9883 -7t-47.6328 -26.5q-20.6455 -19.5 -37.874 -53.5q-17.2275 -34 -40.4951 -87q-22.0537 -52 -33.1758 -85.5q-11.1211 -33.5 -6.66016 -52.5t25.4727 -26t63.0117 -7t68.9883 7
t47.5273 26t37.6602 52.5q17.1221 33.5 39.1758 85.5q23.2676 53 34.4951 87q11.2285 34 7.37402 53.5q-3.85547 19.5 -25.3672 26.5t-63.5117 7zM738.779 634l-46.6289 -50l-125.607 63l-181.393 -63l-2.37109 50l223.959 108z" />
    <glyph glyph-name="otilde" unicode="&#xf5;" horiz-adv-x="582" 
d="M516.883 531q82 0 125.13 -13.5t55.54 -44.5t-1.53809 -82.5t-46.3174 -128.5q-32.1562 -76 -62.1045 -127.5t-69.0381 -82.5q-39.0908 -31 -93.46 -44.5q-54.3701 -13.5 -136.37 -13.5t-125.13 13.5q-43.1309 13.5 -56.04 44.5q-12.9102 31 1.53809 82.5t46.6045 127.5
q32.3691 77 61.8174 128.5t68.5381 82.5t93.96 44.5t136.87 13.5zM475.475 435q-42 0 -68.9883 -7t-47.6328 -26.5q-20.6455 -19.5 -37.874 -53.5q-17.2275 -34 -40.4951 -87q-22.0537 -52 -33.1758 -85.5q-11.1211 -33.5 -6.66016 -52.5t25.4727 -26t63.0117 -7t68.9883 7
t47.5273 26t37.6602 52.5q17.1221 33.5 39.1758 85.5q23.2676 53 34.4951 87q11.2285 34 7.37402 53.5q-3.85547 19.5 -25.3672 26.5t-63.5117 7zM769.433 670q-34.4404 -35 -71.9678 -61t-80.5273 -26q-22 0 -39.1934 8.5t-31.9609 19t-28.9609 19
q-14.1924 8.5 -29.1924 8.5q-22 0 -39.1572 -12.5q-17.1582 -12.5 -32.7715 -29.5l-49.5596 35q33.2275 34 71.1484 59.5t79.9209 25.5q20 0 37.0869 -9t32.3545 -19.5t30.3545 -19.5t30.0869 -9q20 0 39.583 14.5q19.582 14.5 35.9834 30.5z" />
    <glyph glyph-name="odieresis" unicode="&#xf6;" horiz-adv-x="582" 
d="M516.883 531q82 0 125.13 -13.5t55.54 -44.5t-1.53809 -82.5t-46.3174 -128.5q-32.1562 -76 -62.1045 -127.5t-69.0381 -82.5q-39.0908 -31 -93.46 -44.5q-54.3701 -13.5 -136.37 -13.5t-125.13 13.5q-43.1309 13.5 -56.04 44.5q-12.9102 31 1.53809 82.5t46.6045 127.5
q32.3691 77 61.8174 128.5t68.5381 82.5t93.96 44.5t136.87 13.5zM475.475 435q-42 0 -68.9883 -7t-47.6328 -26.5q-20.6455 -19.5 -37.874 -53.5q-17.2275 -34 -40.4951 -87q-22.0537 -52 -33.1758 -85.5q-11.1211 -33.5 -6.66016 -52.5t25.4727 -26t63.0117 -7t68.9883 7
t47.5273 26t37.6602 52.5q17.1221 33.5 39.1758 85.5q23.2676 53 34.4951 87q11.2285 34 7.37402 53.5q-3.85547 19.5 -25.3672 26.5t-63.5117 7zM534.747 695l-37.708 -88h-99l37.708 88h99zM738.747 695l-37.708 -88h-99l37.708 88h99z" />
    <glyph glyph-name="divide" unicode="&#xf7;" horiz-adv-x="584" 
d="M120 331h484l-20 -96h-484zM267 159h118l-25 -118h-118zM345 525h118l-25 -118h-118z" />
    <glyph glyph-name="oslash" unicode="&#xf8;" horiz-adv-x="582" 
d="M678 458l-63 -42q3 -29 -2 -58.5t-12 -59.5q-16 -78 -32.5 -135t-47.5 -94.5t-84 -56t-142 -18.5q-25 0 -54.5 1t-56.5 6.5t-50 17.5t-35 33l-101 -73l16 79l67 49q-3 38 4 77.5t15 78.5q16 78 35 129.5t51.5 82t84 43.5t134.5 13q25 0 54 -1t55.5 -6.5t49 -17.5
t35.5 -33l97 66zM480 326l-266 -198q1 -15 12.5 -23t27 -11.5t33 -3.5h30.5q20 0 37 1t31 7t26 17.5t21 32.5q14 27 23 62.5t15 64.5zM483 395q0 16 -12 24.5t-28 12t-34 3.5h-32q-21 0 -39.5 -2t-34 -8.5t-28 -20.5t-21.5 -38t-17.5 -58t-13.5 -60l-10 -52z" />
    <glyph glyph-name="ugrave" unicode="&#xf9;" horiz-adv-x="593" 
d="M408 0l34.2197 81h-4q-44.0547 -52 -96.2754 -69.5q-52.2197 -17.5 -106.22 -17.5q-40 0 -68.9053 7.5q-28.9062 7.5 -44.6855 25q-15.7803 17.5 -16.1152 46.5t17.8066 72l161.782 380h126l-141.366 -331q-11.9521 -28 -17.7041 -48q-5.75098 -20 -2.4082 -32.5
q3.3418 -12.5 18.6729 -18t45.3311 -5.5q73 0 114.303 32t69.7588 100l129.413 303h126l-223.607 -525h-122zM633.291 627l-49.0547 -52l-156.718 86l79.4326 82z" />
    <glyph glyph-name="uacute" unicode="&#xfa;" horiz-adv-x="593" 
d="M408 0l34.2197 81h-4q-44.0547 -52 -96.2754 -69.5q-52.2197 -17.5 -106.22 -17.5q-40 0 -68.9053 7.5q-28.9062 7.5 -44.6855 25q-15.7803 17.5 -16.1152 46.5t17.8066 72l161.782 380h126l-141.366 -331q-11.9521 -28 -17.7041 -48q-5.75098 -20 -2.4082 -32.5
q3.3418 -12.5 18.6729 -18t45.3311 -5.5q73 0 114.303 32t69.7588 100l129.413 303h126l-223.607 -525h-122zM700.519 661l-231.282 -86l-4.94531 52l225.66 116z" />
    <glyph glyph-name="ucircumflex" unicode="&#xfb;" horiz-adv-x="593" 
d="M408 0l34.2197 81h-4q-44.0547 -52 -96.2754 -69.5q-52.2197 -17.5 -106.22 -17.5q-40 0 -68.9053 7.5q-28.9062 7.5 -44.6855 25q-15.7803 17.5 -16.1152 46.5t17.8066 72l161.782 380h126l-141.366 -331q-11.9521 -28 -17.7041 -48q-5.75098 -20 -2.4082 -32.5
q3.3418 -12.5 18.6729 -18t45.3311 -5.5q73 0 114.303 32t69.7588 100l129.413 303h126l-223.607 -525h-122zM724.779 634l-46.6289 -50l-125.607 63l-181.393 -63l-2.37109 50l223.959 108z" />
    <glyph glyph-name="udieresis" unicode="&#xfc;" horiz-adv-x="593" 
d="M408 0l34.2197 81h-4q-44.0547 -52 -96.2754 -69.5q-52.2197 -17.5 -106.22 -17.5q-40 0 -68.9053 7.5q-28.9062 7.5 -44.6855 25q-15.7803 17.5 -16.1152 46.5t17.8066 72l161.782 380h126l-141.366 -331q-11.9521 -28 -17.7041 -48q-5.75098 -20 -2.4082 -32.5
q3.3418 -12.5 18.6729 -18t45.3311 -5.5q73 0 114.303 32t69.7588 100l129.413 303h126l-223.607 -525h-122zM539.747 695l-37.708 -88h-99l37.708 88h99zM743.747 695l-37.708 -88h-99l37.708 88h99z" />
    <glyph glyph-name="yacute" unicode="&#xfd;" horiz-adv-x="485" 
d="M345.536 -21q-30.5664 -45 -58.751 -83.5t-61.2432 -67q-33.0596 -28.5 -74.0664 -45q-41.0078 -16.5 -97.0078 -16.5q-13 0 -25.6816 1.5q-12.6807 1.5 -26.4678 2.5l41.1953 95q5.78711 -1 12.0742 -2q6.28809 -1 13.2881 -1q30 0 53.2637 13t42.5146 33
q19.252 20 34.8545 44q15.6016 24 29.4912 47h-61l50.6074 525h130l-57.0254 -447h2l292.025 447h128zM646.519 661l-231.282 -86l-4.94531 52l225.66 116z" />
    <glyph glyph-name="thorn" unicode="&#xfe;" horiz-adv-x="596" 
d="M331 90q33 0 55.5 6t39 23t28.5 48t23 80q9 45 15 80t1 59t-25 36.5t-64 12.5q-48 0 -76 -12t-44.5 -35.5t-26 -58.5t-18.5 -82q-9 -42 -11 -72t7 -48.5t32 -27.5t64 -9zM219 750h126l-64 -304h2q33 52 78 68.5t101 16.5q73 0 109 -21.5t47 -60t4 -90.5t-19 -112
q-13 -58 -29 -104.5t-43.5 -79.5t-71.5 -51t-111 -18q-24 0 -47.5 3t-43 11t-33 23t-18.5 39h-5l-63 -297h-126z" />
    <glyph glyph-name="ydieresis" unicode="&#xff;" horiz-adv-x="485" 
d="M345.536 -21q-30.5664 -45 -58.751 -83.5t-61.2432 -67q-33.0596 -28.5 -74.0664 -45q-41.0078 -16.5 -97.0078 -16.5q-13 0 -25.6816 1.5q-12.6807 1.5 -26.4678 2.5l41.1953 95q5.78711 -1 12.0742 -2q6.28809 -1 13.2881 -1q30 0 53.2637 13t42.5146 33
q19.252 20 34.8545 44q15.6016 24 29.4912 47h-61l50.6074 525h130l-57.0254 -447h2l292.025 447h128zM485.747 695l-37.708 -88h-99l37.708 88h99zM689.747 695l-37.708 -88h-99l37.708 88h99z" />
    <glyph glyph-name="dotlessi" unicode="&#x131;" horiz-adv-x="236" 
d="M181 0h-126l112 525h126z" />
    <glyph glyph-name="Lslash" unicode="&#x141;" horiz-adv-x="565" 
d="M236 123h350l-26 -123h-494l61 287l-96 -75l24 114l96 74l74 350h144l-49 -232l193 148l-24 -112l-193 -148z" />
    <glyph glyph-name="lslash" unicode="&#x142;" horiz-adv-x="272" 
d="M199 0h-126l68 319l-88 -69l19 88l87 68l73 344h126l-50 -239l87 67l-19 -88l-87 -67z" />
    <glyph glyph-name="OE" unicode="&#x152;" horiz-adv-x="1105" 
d="M388 117q62 0 101.5 6t63.5 24.5t37.5 52t25.5 88.5l37 174q12 57 12.5 91t-16 51.5t-53 23t-98.5 5.5t-99 -7.5t-59 -24.5t-33 -44t-19 -65l-43 -202q-13 -60 -14.5 -94.5t13.5 -52t49.5 -22t94.5 -4.5zM791 435h347l-23 -109h-347l-43 -203h369l-26 -123h-504l20 81h-3
q-24 -30 -51 -47t-57 -26t-63 -11.5t-68 -2.5q-90 0 -146 15t-83 49.5t-28.5 91t16.5 140.5l43 202q16 75 44.5 125.5t72.5 81.5t104 44t139 13q27 0 59 -1.5t61.5 -10t51.5 -27t29 -52.5h3l15 85h501l-26 -123h-366z" />
    <glyph glyph-name="oe" unicode="&#x153;" horiz-adv-x="931" 
d="M377 435q-40 0 -65 -5t-41 -22.5t-26.5 -52t-22.5 -93.5q-12 -56 -15 -90t5.5 -52t31 -24t60.5 -6q40 0 65 5.5t41 23.5t27 52t23 91q13 62 17 96.5t-4.5 51.5t-31.5 21t-64 4zM96 262q14 66 30 116.5t47.5 84.5t85 51t142.5 17q19 0 46 -1t52.5 -8t44.5 -21.5t22 -41.5
h2q15 26 38.5 40t50 21.5t53 9t49.5 1.5q81 0 126.5 -13.5t64 -46.5t14.5 -89.5t-22 -142.5h-361q-9 -42 -13 -71t3.5 -46t29.5 -24.5t64 -7.5q26 0 48.5 1t39.5 8t29 23t18 45h126q-13 -62 -37.5 -96.5t-60 -51.5t-81.5 -21t-102 -4q-28 0 -54.5 1.5t-48.5 9t-37 22.5
t-20 42h-3q-19 -28 -41.5 -43.5t-48 -22.5t-52.5 -8t-53 -1q-80 0 -126 13t-66 44.5t-18 83t19 127.5zM833 319q8 41 9 64t-9 34.5t-33 14.5t-62 3q-40 0 -64.5 -5t-39 -18t-22 -35.5t-14.5 -57.5h235z" />
    <glyph glyph-name="Scaron" unicode="&#x160;" horiz-adv-x="673" 
d="M278.808 239l-15.4404 -35q-12.8027 -32 -13.2354 -50.5t15.1543 -27.5q15.5859 -9 47.5547 -11.5t81.9688 -2.5q49 0 80.5625 5q31.5635 5 52.8271 18t34.7275 34q13.4648 21 27.4795 54q17.5039 40 15.1494 59.5t-20.1543 27.5q-17.7988 8 -49.0869 9
q-31.2871 1 -72.8623 3q-59.1494 4 -109.692 8.5q-50.5439 4.5 -81.292 24.5t-35.001 63.5q-4.25195 43.5 31.1797 125.5q32.3691 77 73.5098 120q41.1416 43 91.5 63.5q50.3574 20.5 108.708 24.5t126.351 4q57 0 106.149 -4t78.5039 -23.5t33.7451 -60t-26.3408 -114.5
l-10.1025 -24h-144l10.1025 24q12.3779 30 12.9912 47q0.614258 17 -11.5791 25.5q-12.1924 8.5 -37.374 10q-25.1807 1.5 -62.1807 1.5q-54 0 -88.2441 -3.5t-55.8701 -13.5t-35.5586 -28.5t-26.3105 -48.5q-15.2275 -34 -17.873 -53.5t10.2285 -29.5t43.5234 -14
q30.6504 -4 85.0117 -7q83.9375 -5 137.237 -13q53.2988 -8 77.7285 -29.5q24.4287 -21.5 20.8193 -62t-34.916 -112.5q-32.7939 -79 -70.9668 -124.5t-85.168 -69q-46.9961 -23.5 -104.271 -29.5t-129.275 -6q-63 0 -118.469 2.5t-90.8232 22t-42.8193 62t26.7539 123.5
l15.4404 35h144zM501.109 917l45.6289 50l126.607 -63l180.393 63l3.37109 -50l-223.959 -108z" />
    <glyph glyph-name="scaron" unicode="&#x161;" horiz-adv-x="557" 
d="M543.208 382q10.1016 24 9.25879 36.5t-10.5674 18.5q-9.72363 6 -28.0117 7q-18.2871 1 -43.2871 1q-26 0 -47.2129 -1q-21.2119 -1 -38.5938 -7.5t-31.8584 -20.5t-25.0039 -40q-8.03906 -19 -8.87695 -30q-0.838867 -11 9.38574 -17t34.2998 -8q24.0742 -2 63.6494 -4
q45.5752 -2 87.043 -4.5q41.4688 -2.5 67.2803 -17.5q25.8105 -15 30.7959 -48q4.98438 -33 -21.6211 -97q-22.2666 -53 -55.3574 -84q-33.0898 -31 -72.9912 -47t-86.3584 -20.5q-46.4561 -4.5 -96.4561 -4.5q-54 0 -96.9688 2.5t-67.5674 18.5t-27.1582 51t25.0459 99h126
q-10.9521 -28 -13.5664 -45q-2.61328 -17 5.97363 -26q8.58594 -9 29.0547 -11.5t55.4688 -2.5q28 0 50.7129 1q22.7119 1 40.4873 7q17.7764 6 31.8584 20.5q14.083 14.5 25.8223 41.5q7.61426 17 10.3779 30t-5.82324 22t-33.1299 13.5q-24.5439 4.5 -71.3311 5.5
q-71.7871 1 -113.8 8q-42.0117 7 -58.791 24.5q-16.7803 17.5 -12.084 49q4.69727 31.5 26.3262 81.5q22.4795 54 53.251 83.5t69.3535 44q38.583 14.5 83.1143 17t95.5312 2.5q38 0 77.4688 -2.5t65.8857 -17q26.418 -14.5 34.54 -44.5t-15.5693 -85h-126zM395.109 692
l45.6289 50l126.607 -63l180.393 63l3.37109 -50l-223.959 -108z" />
    <glyph glyph-name="Ydieresis" unicode="&#x178;" horiz-adv-x="670" 
d="M526.225 288l-122.225 -288h-144l122.225 288l-74.7852 462h164l41.9727 -320h3l317.027 320h166zM626.747 920l-37.708 -88h-99l37.708 88h99zM830.747 920l-37.708 -88h-99l37.708 88h99z" />
    <glyph glyph-name="Zcaron" unicode="&#x17d;" horiz-adv-x="648" 
d="M884.291 627l-627.505 -501l-1.6377 -3h420l-52.1484 -123h-598l51.9355 122l624.505 501l1.85059 4h-394l52.1484 123h575zM488.109 917l45.6289 50l126.607 -63l180.393 63l3.37109 -50l-223.959 -108z" />
    <glyph glyph-name="zcaron" unicode="&#x17e;" horiz-adv-x="475" 
d="M209.408 96h283l-40.4082 -96h-429l45.959 108l416.24 321h-258l41.4082 96h407l-45.3213 -105zM354.109 692l45.6289 50l126.607 -63l180.393 63l3.37109 -50l-223.959 -108z" />
    <glyph glyph-name="florin" unicode="&#x192;" 
d="M750 660q-33 0 -56.5 -1.5t-40.5 -10t-30 -27t-26 -52.5l-33 -83h118l-36 -96h-118l-180 -462q-24 -60 -52 -93t-65 -48t-86.5 -17.5t-116.5 -2.5l38 96q45 0 70.5 1.5t40.5 10t25 26.5t23 51l171 438h-90l36 96h90l33 83q28 72 56 110.5t64 55.5t85 19t118 2z" />
    <glyph glyph-name="circumflex" unicode="&#x2c6;" horiz-adv-x="506" 
d="M566 634l-36 -50l-139 63l-168 -63l-13 50l201 108z" />
    <glyph glyph-name="caron" unicode="&#x2c7;" horiz-adv-x="506" 
d="M222 692l35 50l140 -63l167 63l14 -50l-201 -108z" />
    <glyph glyph-name="breve" unicode="&#x2d8;" horiz-adv-x="489" 
d="M296 728q-2 -38 22.5 -62t62.5 -24t73 24t49 62h66q-10 -33 -30 -62t-47.5 -51t-60 -34.5t-65.5 -12.5q-34 0 -61.5 12.5t-45.5 34.5t-26 51t-3 62h66z" />
    <glyph glyph-name="dotaccent" unicode="&#x2d9;" horiz-adv-x="249" 
d="M303 607h-99l19 88h99z" />
    <glyph glyph-name="ring" unicode="&#x2da;" horiz-adv-x="334" 
d="M214 656q5 19 15.5 36t25.5 29.5t33.5 19.5t37.5 7q38 0 59.5 -27t12.5 -65q-4 -19 -14.5 -35.5t-25.5 -29t-33.5 -20t-37.5 -7.5q-39 0 -60 27t-13 65zM259 656q-4 -20 7 -33.5t30 -13.5q20 0 36.5 13.5t20.5 33.5q5 20 -6 33.5t-31 13.5q-19 0 -35.5 -13.5t-21.5 -33.5
z" />
    <glyph glyph-name="ogonek" unicode="&#x2db;" horiz-adv-x="313" 
d="M239 4l-2 -8q-15 -6 -34 -16t-36 -21.5t-30 -24t-15 -25.5q-5 -20 7.5 -30t31.5 -10q14 0 25.5 3t25.5 9l-14 -65q-15 -5 -29.5 -8t-28.5 -3q-20 0 -38 5.5t-30.5 17t-18 28t-1.5 38.5q8 38 36.5 64t63.5 46h87z" />
    <glyph glyph-name="tilde" unicode="&#x2dc;" horiz-adv-x="537" 
d="M604 670q-27 -35 -59 -61t-75 -26q-22 0 -41 8.5t-36 19t-33 19t-31 8.5q-22 0 -36.5 -12.5t-26.5 -29.5l-57 35q26 34 58.5 59.5t74.5 25.5q20 0 39 -9t36.5 -19.5t34.5 -19.5t32 -9q20 0 36.5 14.5t29.5 30.5z" />
    <glyph glyph-name="hungarumlaut" unicode="&#x2dd;" horiz-adv-x="538" 
d="M419 698l-184 -146l-34 39l162 170zM611 698l-184 -146l-35 39l162 170z" />
    <glyph glyph-name="endash" unicode="&#x2013;" horiz-adv-x="500" 
d="M569 324l-21 -96h-500l21 96h500z" />
    <glyph glyph-name="emdash" unicode="&#x2014;" horiz-adv-x="1000" 
d="M1069 324l-21 -96h-1000l21 96h1000z" />
    <glyph glyph-name="quoteleft" unicode="&#x2018;" horiz-adv-x="232" 
d="M332 697q-28 0 -46.5 -12.5t-27.5 -54.5h50l-29 -135h-126l25 118q7 32 15 58.5t22.5 45.5t39.5 29t65 10h25z" />
    <glyph glyph-name="quoteright" unicode="&#x2019;" horiz-adv-x="232" 
d="M164 548q28 0 47 12.5t28 54.5h-50l28 135h126l-25 -118q-7 -32 -14.5 -58.5t-22.5 -45t-39.5 -29t-64.5 -10.5h-25z" />
    <glyph glyph-name="quotesinglbase" unicode="&#x201a;" horiz-adv-x="252" 
d="M32 -67q28 0 46.5 12.5t27.5 54.5h-50l29 135h126l-25 -118q-7 -32 -15 -58.5t-23 -45.5t-39.5 -29t-64.5 -10h-25z" />
    <glyph glyph-name="quotedblleft" unicode="&#x201c;" horiz-adv-x="424" 
d="M525 697q-28 0 -46.5 -12.5t-27.5 -54.5h50l-29 -135h-126l25 118q7 32 15 58.5t22.5 45.5t39.5 29t65 10h25zM332 697q-28 0 -46.5 -12.5t-27.5 -54.5h50l-29 -135h-126l25 118q7 32 15 58.5t22.5 45.5t39.5 29t65 10h25z" />
    <glyph glyph-name="quotedblright" unicode="&#x201d;" horiz-adv-x="424" 
d="M164 548q28 0 47 12.5t28 54.5h-50l28 135h126l-25 -118q-7 -32 -14.5 -58.5t-22.5 -45t-39.5 -29t-64.5 -10.5h-25zM357 548q28 0 47 12.5t28 54.5h-50l28 135h126l-25 -118q-7 -32 -14.5 -58.5t-22.5 -45t-39.5 -29t-64.5 -10.5h-25z" />
    <glyph glyph-name="quotedblbase" unicode="&#x201e;" horiz-adv-x="424" 
d="M32 -67q28 0 46.5 12.5t27.5 54.5h-50l29 135h126l-25 -118q-7 -32 -15 -58.5t-23 -45.5t-39.5 -29t-64.5 -10h-25zM223 -67q28 0 46.5 12.5t27.5 54.5h-50l29 135h126l-25 -118q-7 -32 -15 -58.5t-23 -45.5t-39.5 -29t-64.5 -10h-25z" />
    <glyph glyph-name="dagger" unicode="&#x2020;" 
d="M532 529h193l-23 -109h-193l-137 -647h-136l137 647h-192l23 109h192l47 221h136z" />
    <glyph glyph-name="daggerdbl" unicode="&#x2021;" 
d="M529 514h193l-23 -109h-193l-59 -276h193l-23 -109h-193l-52 -247h-136l52 247h-192l23 109h192l59 276h-192l23 109h192l50 236h136z" />
    <glyph glyph-name="bullet" unicode="&#x2022;" horiz-adv-x="520" 
d="M528 375q-9 -39 -30.5 -73t-52.5 -59.5t-68.5 -40t-76.5 -14.5t-70 14.5t-51 39.5t-27.5 59.5t1.5 73.5q7 39 29 73.5t52.5 60t68 40t77.5 14.5q39 0 70 -14.5t51 -40t27.5 -60t-0.5 -73.5z" />
    <glyph glyph-name="ellipsis" unicode="&#x2026;" horiz-adv-x="1000" 
d="M230 0h-126l29 137h126zM563 0h-126l29 137h126zM896 0h-126l29 137h126z" />
    <glyph glyph-name="perthousand" unicode="&#x2030;" horiz-adv-x="1292" 
d="M1298 130q-11 -45 -26 -72t-38 -41t-55 -18.5t-75 -4.5q-44 0 -73 4t-45 18.5t-19 41t5 71.5l24 110q10 45 24.5 72t36.5 41t52.5 18.5t74.5 4.5t74 -4t47 -18.5t21 -41t-5 -71.5zM1235 234q5 24 4.5 37.5t-8 19.5t-23 7t-40.5 1q-24 0 -38.5 -1t-24 -7t-15 -19.5
t-10.5 -37.5l-20 -93q-6 -26 -6 -40.5t6.5 -21t21 -8t37.5 -1.5t39 1.5t26.5 8t17.5 21t13 40.5zM265 0h-93l633 750h95zM911 130q-11 -45 -26 -72t-38 -41t-55 -18.5t-75 -4.5q-44 0 -73 4t-45 18.5t-19 41t5 71.5l24 110q10 45 24.5 72t36.5 41t52.5 18.5t74.5 4.5t74 -4
t47 -18.5t21 -41t-5 -71.5zM848 234q5 24 4.5 37.5t-8 19.5t-23 7t-40.5 1q-24 0 -38.5 -1t-24 -7t-15 -19.5t-10.5 -37.5l-20 -93q-6 -26 -6 -40.5t6.5 -21t21 -8t37.5 -1.5t39 1.5t26.5 8t17.5 21t13 40.5zM456 511q-11 -45 -26 -72t-38 -41t-55 -18.5t-75 -4.5
q-44 0 -73 4t-45 18.5t-19 41t5 71.5l24 110q10 45 24.5 72t36.5 41t52.5 18.5t74.5 4.5t74 -4t47 -18.5t21 -41t-5 -71.5zM393 615q5 24 4.5 37.5t-8 19.5t-23 7t-40.5 1q-24 0 -38.5 -1t-24 -7t-15 -19.5t-10.5 -37.5l-20 -93q-6 -26 -6 -40.5t6.5 -21t21 -8t37.5 -1.5
t39 1.5t26.5 8t17.5 21t13 40.5z" />
    <glyph glyph-name="guilsinglleft" unicode="&#x2039;" horiz-adv-x="325" 
d="M371 491l-152 -216l69 -211l-92 -51l-87 262l188 264z" />
    <glyph glyph-name="guilsinglright" unicode="&#x203a;" horiz-adv-x="325" 
d="M332 275l-198 -262l-69 51l157 211l-61 216l96 48z" />
    <glyph glyph-name="fraction" unicode="&#x2044;" horiz-adv-x="564" 
d="M91 0h-93l633 750h95z" />
    <glyph glyph-name="trademark" unicode="&#x2122;" horiz-adv-x="1000" 
d="M1003 346h-88l69 326h-2l-186 -326h-52l-48 326h-2l-69 -326h-88l85 404h142l41 -239l141 239h142zM557 672h-123l-69 -326h-97l69 326h-123l16 78h343z" />
    <glyph glyph-name="minus" unicode="&#x2212;" horiz-adv-x="584" 
d="M120 331h484l-20 -96h-484z" />
    <glyph glyph-name="fi" unicode="&#xfb01;" horiz-adv-x="584" 
d="M665 643h-126l22 107h126zM528 0h-126l112 525h126zM477 654h-38q-32 1 -50.5 -5t-29.5 -18t-16 -31t-11 -43l-6 -32h128l-21 -96h-128l-91 -429h-126l91 429h-74l21 96h74l9 46q10 47 24.5 81t37.5 56t58 32t86 10h82z" />
    <glyph glyph-name="fl" unicode="&#xfb02;" horiz-adv-x="596" 
d="M532 0h-126l159 750h126zM433 429h-128l-91 -429h-126l91 429h-74l21 96h74l9 46q10 47 24.5 81t37.5 56t58 32t86 10h82l-20 -96h-38q-32 1 -50.5 -5t-29.5 -18t-16 -31t-11 -43l-6 -32h128z" />
  </font>
</defs>
</svg>
